solid csg.js
facet normal -1 0 0
outer loop
vertex 0 0 20
vertex 0 0 30
vertex 0 10 30
endloop
endfacet
facet normal -1 0 0
outer loop
vertex 0 0 20
vertex 0 10 30
vertex 0 10 20
endloop
endfacet
facet normal 1 0 0
outer loop
vertex 10 0 20
vertex 10 10 20
vertex 10 10 30
endloop
endfacet
facet normal 1 0 0
outer loop
vertex 10 0 20
vertex 10 10 30
vertex 10 0 30
endloop
endfacet
facet normal 0 -1 0
outer loop
vertex 0 0 20
vertex 10 0 20
vertex 10 0 30
endloop
endfacet
facet normal 0 -1 0
outer loop
vertex 0 0 20
vertex 10 0 30
vertex 0 0 30
endloop
endfacet
facet normal 0 1 0
outer loop
vertex 0 10 20
vertex 0 10 30
vertex 10 10 30
endloop
endfacet
facet normal 0 1 0
outer loop
vertex 0 10 20
vertex 10 10 30
vertex 10 10 20
endloop
endfacet
facet normal 0 0 -1
outer loop
vertex 0 0 20
vertex 0 10 20
vertex 10 10 20
endloop
endfacet
facet normal 0 0 -1
outer loop
vertex 0 0 20
vertex 10 10 20
vertex 10 0 20
endloop
endfacet
facet normal 0 0 1
outer loop
vertex 0 0 30
vertex 10 0 30
vertex 10 10 30
endloop
endfacet
facet normal 0 0 1
outer loop
vertex 0 0 30
vertex 10 10 30
vertex 0 10 30
endloop
endfacet
facet normal -1 0 0
outer loop
vertex 60 0 20
vertex 60 0 30
vertex 60 10 30
endloop
endfacet
facet normal -1 0 0
outer loop
vertex 60 0 20
vertex 60 10 30
vertex 60 10 20
endloop
endfacet
facet normal 1 0 0
outer loop
vertex 70 0 20
vertex 70 10 20
vertex 70 10 30
endloop
endfacet
facet normal 1 0 0
outer loop
vertex 70 0 20
vertex 70 10 30
vertex 70 0 30
endloop
endfacet
facet normal 0 -1 0
outer loop
vertex 60 0 20
vertex 70 0 20
vertex 70 0 30
endloop
endfacet
facet normal 0 -1 0
outer loop
vertex 60 0 20
vertex 70 0 30
vertex 60 0 30
endloop
endfacet
facet normal 0 1 0
outer loop
vertex 60 10 20
vertex 60 10 30
vertex 70 10 30
endloop
endfacet
facet normal 0 1 0
outer loop
vertex 60 10 20
vertex 70 10 30
vertex 70 10 20
endloop
endfacet
facet normal 0 0 1
outer loop
vertex 60 0 30
vertex 70 0 30
vertex 70 10 30
endloop
endfacet
facet normal 0 0 1
outer loop
vertex 60 0 30
vertex 70 10 30
vertex 60 10 30
endloop
endfacet
facet normal 0.9914448613738103 -0.13052619222005293 0
outer loop
vertex 45 5 10
vertex 45 5 25
vertex 44.65925826289068 2.4118095489747926 25
endloop
endfacet
facet normal 0.9914448613738103 -0.13052619222005293 0
outer loop
vertex 45 5 10
vertex 44.65925826289068 2.4118095489747926 25
vertex 44.65925826289068 2.4118095489747926 10
endloop
endfacet
facet normal 0 0 1
outer loop
vertex 35 5 25
vertex 44.65925826289068 2.4118095489747926 25
vertex 45 5 25
endloop
endfacet
facet normal 0.9238795325112875 -0.38268343236508806 0
outer loop
vertex 44.65925826289068 2.4118095489747926 10
vertex 44.65925826289068 2.4118095489747926 25
vertex 43.66025403784439 8.881784197001252e-16 25
endloop
endfacet
facet normal 0.9238795325112875 -0.38268343236508806 0
outer loop
vertex 44.65925826289068 2.4118095489747926 10
vertex 43.66025403784439 8.881784197001252e-16 25
vertex 43.66025403784439 8.881784197001252e-16 10
endloop
endfacet
facet normal 0 0 1
outer loop
vertex 35 5 25
vertex 43.66025403784439 8.881784197001252e-16 25
vertex 44.65925826289068 2.4118095489747926 25
endloop
endfacet
facet normal 0.7933533402912338 -0.6087614290087223 0
outer loop
vertex 43.66025403784439 8.881784197001252e-16 10
vertex 43.66025403784439 8.881784197001252e-16 25
vertex 42.071067811865476 -2.0710678118654746 25
endloop
endfacet
facet normal 0.7933533402912338 -0.6087614290087223 0
outer loop
vertex 43.66025403784439 8.881784197001252e-16 10
vertex 42.071067811865476 -2.0710678118654746 25
vertex 42.071067811865476 -2.0710678118654746 10
endloop
endfacet
facet normal 0 0 1
outer loop
vertex 35 5 25
vertex 42.071067811865476 -2.0710678118654746 25
vertex 43.66025403784439 8.881784197001252e-16 25
endloop
endfacet
facet normal 0.6087614290087207 -0.7933533402912352 0
outer loop
vertex 42.071067811865476 -2.0710678118654746 10
vertex 42.071067811865476 -2.0710678118654746 25
vertex 40 -3.6602540378443855 25
endloop
endfacet
facet normal 0.6087614290087207 -0.7933533402912352 0
outer loop
vertex 42.071067811865476 -2.0710678118654746 10
vertex 40 -3.6602540378443855 25
vertex 40 -3.6602540378443855 10
endloop
endfacet
facet normal 0 0 1
outer loop
vertex 35 5 25
vertex 40 -3.6602540378443855 25
vertex 42.071067811865476 -2.0710678118654746 25
endloop
endfacet
facet normal 0.3826834323650899 -0.9238795325112867 0
outer loop
vertex 40 -3.6602540378443855 10
vertex 40 -3.6602540378443855 25
vertex 37.588190451025206 -4.659258262890683 25
endloop
endfacet
facet normal 0.3826834323650899 -0.9238795325112867 0
outer loop
vertex 40 -3.6602540378443855 10
vertex 37.588190451025206 -4.659258262890683 25
vertex 37.588190451025206 -4.659258262890683 10
endloop
endfacet
facet normal 0 0 1
outer loop
vertex 35 5 25
vertex 37.588190451025206 -4.659258262890683 25
vertex 40 -3.6602540378443855 25
endloop
endfacet
facet normal 0.13052619222005152 -0.9914448613738105 0
outer loop
vertex 37.588190451025206 -4.659258262890683 10
vertex 37.588190451025206 -4.659258262890683 25
vertex 35 -5 25
endloop
endfacet
facet normal 0.13052619222005152 -0.9914448613738105 0
outer loop
vertex 37.588190451025206 -4.659258262890683 10
vertex 35 -5 25
vertex 35 -5 10
endloop
endfacet
facet normal 0 0 1
outer loop
vertex 35 5 25
vertex 35 -5 25
vertex 37.588190451025206 -4.659258262890683 25
endloop
endfacet
facet normal -0.13052619222005152 -0.9914448613738105 0
outer loop
vertex 35 -5 10
vertex 35 -5 25
vertex 32.411809548974794 -4.659258262890683 25
endloop
endfacet
facet normal -0.13052619222005152 -0.9914448613738105 0
outer loop
vertex 35 -5 10
vertex 32.411809548974794 -4.659258262890683 25
vertex 32.411809548974794 -4.659258262890683 10
endloop
endfacet
facet normal 0 0 1
outer loop
vertex 35 5 25
vertex 32.411809548974794 -4.659258262890683 25
vertex 35 -5 25
endloop
endfacet
facet normal -0.3826834323650895 -0.9238795325112871 0
outer loop
vertex 32.411809548974794 -4.659258262890683 10
vertex 32.411809548974794 -4.659258262890683 25
vertex 30 -3.6602540378443873 25
endloop
endfacet
facet normal -0.3826834323650895 -0.9238795325112871 0
outer loop
vertex 32.411809548974794 -4.659258262890683 10
vertex 30 -3.6602540378443873 25
vertex 30 -3.6602540378443873 10
endloop
endfacet
facet normal 0 0 1
outer loop
vertex 35 5 25
vertex 30 -3.6602540378443873 25
vertex 32.411809548974794 -4.659258262890683 25
endloop
endfacet
facet normal -0.6087614290087208 -0.793353340291235 0
outer loop
vertex 30 -3.6602540378443873 10
vertex 30 -3.6602540378443873 25
vertex 27.928932188134524 -2.0710678118654755 25
endloop
endfacet
facet normal -0.6087614290087208 -0.793353340291235 0
outer loop
vertex 30 -3.6602540378443873 10
vertex 27.928932188134524 -2.0710678118654755 25
vertex 27.928932188134524 -2.0710678118654755 10
endloop
endfacet
facet normal 0 0 1
outer loop
vertex 35 5 25
vertex 27.928932188134524 -2.0710678118654755 25
vertex 30 -3.6602540378443873 25
endloop
endfacet
facet normal -0.7933533402912347 -0.6087614290087212 0
outer loop
vertex 27.928932188134524 -2.0710678118654755 10
vertex 27.928932188134524 -2.0710678118654755 25
vertex 26.33974596215561 8.881784197001252e-16 25
endloop
endfacet
facet normal -0.7933533402912347 -0.6087614290087212 0
outer loop
vertex 27.928932188134524 -2.0710678118654755 10
vertex 26.33974596215561 8.881784197001252e-16 25
vertex 26.33974596215561 8.881784197001252e-16 10
endloop
endfacet
facet normal 0 0 1
outer loop
vertex 35 5 25
vertex 26.33974596215561 8.881784197001252e-16 25
vertex 27.928932188134524 -2.0710678118654755 25
endloop
endfacet
facet normal -0.923879532511287 -0.3826834323650896 0
outer loop
vertex 26.33974596215561 8.881784197001252e-16 10
vertex 26.33974596215561 8.881784197001252e-16 25
vertex 25.34074173710932 2.41180954897479 25
endloop
endfacet
facet normal -0.923879532511287 -0.3826834323650896 0
outer loop
vertex 26.33974596215561 8.881784197001252e-16 10
vertex 25.34074173710932 2.41180954897479 25
vertex 25.34074173710932 2.41180954897479 10
endloop
endfacet
facet normal 0 0 1
outer loop
vertex 35 5 25
vertex 25.34074173710932 2.41180954897479 25
vertex 26.33974596215561 8.881784197001252e-16 25
endloop
endfacet
facet normal -0.9914448613738103 -0.13052619222005293 0
outer loop
vertex 25.34074173710932 2.41180954897479 10
vertex 25.34074173710932 2.41180954897479 25
vertex 25 4.999999999999998 25
endloop
endfacet
facet normal -0.9914448613738103 -0.13052619222005293 0
outer loop
vertex 25.34074173710932 2.41180954897479 10
vertex 25 4.999999999999998 25
vertex 25 4.999999999999998 10
endloop
endfacet
facet normal 0 0 1
outer loop
vertex 35 5 25
vertex 25 4.999999999999998 25
vertex 25.34074173710932 2.41180954897479 25
endloop
endfacet
facet normal -0.9914448613738105 0.1305261922200511 0
outer loop
vertex 25 4.999999999999998 10
vertex 25 4.999999999999998 25
vertex 25.340741737109315 7.588190451025204 25
endloop
endfacet
facet normal -0.9914448613738105 0.1305261922200511 0
outer loop
vertex 25 4.999999999999998 10
vertex 25.340741737109315 7.588190451025204 25
vertex 25.340741737109315 7.588190451025204 10
endloop
endfacet
facet normal 0 0 1
outer loop
vertex 35 5 25
vertex 25.340741737109315 7.588190451025204 25
vertex 25 4.999999999999998 25
endloop
endfacet
facet normal -0.9238795325112868 0.3826834323650897 0
outer loop
vertex 25.340741737109315 7.588190451025204 10
vertex 25.340741737109315 7.588190451025204 25
vertex 26.339745962155614 10 25
endloop
endfacet
facet normal -0.9238795325112868 0.3826834323650897 0
outer loop
vertex 25.340741737109315 7.588190451025204 10
vertex 26.339745962155614 10 25
vertex 26.339745962155614 10 10
endloop
endfacet
facet normal 0 0 1
outer loop
vertex 35 5 25
vertex 26.339745962155614 10 25
vertex 25.340741737109315 7.588190451025204 25
endloop
endfacet
facet normal -0.7933533402912352 0.6087614290087208 0
outer loop
vertex 26.339745962155614 10 10
vertex 26.339745962155614 10 25
vertex 27.928932188134524 12.071067811865476 25
endloop
endfacet
facet normal -0.7933533402912352 0.6087614290087208 0
outer loop
vertex 26.339745962155614 10 10
vertex 27.928932188134524 12.071067811865476 25
vertex 27.928932188134524 12.071067811865476 10
endloop
endfacet
facet normal 0 0 1
outer loop
vertex 35 5 25
vertex 27.928932188134524 12.071067811865476 25
vertex 26.339745962155614 10 25
endloop
endfacet
facet normal -0.6087614290087201 0.7933533402912356 0
outer loop
vertex 27.928932188134524 12.071067811865476 10
vertex 27.928932188134524 12.071067811865476 25
vertex 29.999999999999996 13.660254037844382 25
endloop
endfacet
facet normal -0.6087614290087201 0.7933533402912356 0
outer loop
vertex 27.928932188134524 12.071067811865476 10
vertex 29.999999999999996 13.660254037844382 25
vertex 29.999999999999996 13.660254037844382 10
endloop
endfacet
facet normal 0 0 1
outer loop
vertex 35 5 25
vertex 29.999999999999996 13.660254037844382 25
vertex 27.928932188134524 12.071067811865476 25
endloop
endfacet
facet normal -0.3826834323650899 0.9238795325112867 0
outer loop
vertex 29.999999999999996 13.660254037844382 10
vertex 29.999999999999996 13.660254037844382 25
vertex 32.411809548974794 14.659258262890681 25
endloop
endfacet
facet normal -0.3826834323650899 0.9238795325112867 0
outer loop
vertex 29.999999999999996 13.660254037844382 10
vertex 32.411809548974794 14.659258262890681 25
vertex 32.411809548974794 14.659258262890681 10
endloop
endfacet
facet normal 0 0 1
outer loop
vertex 35 5 25
vertex 32.411809548974794 14.659258262890681 25
vertex 29.999999999999996 13.660254037844382 25
endloop
endfacet
facet normal -0.13052619222005282 0.9914448613738103 0
outer loop
vertex 32.411809548974794 14.659258262890681 10
vertex 32.411809548974794 14.659258262890681 25
vertex 35 15 25
endloop
endfacet
facet normal -0.13052619222005282 0.9914448613738103 0
outer loop
vertex 32.411809548974794 14.659258262890681 10
vertex 35 15 25
vertex 35 15 10
endloop
endfacet
facet normal 0 0 1
outer loop
vertex 35 5 25
vertex 35 15 25
vertex 32.411809548974794 14.659258262890681 25
endloop
endfacet
facet normal 0.13052619222005107 0.9914448613738105 0
outer loop
vertex 35 15 10
vertex 35 15 25
vertex 37.5881904510252 14.659258262890685 25
endloop
endfacet
facet normal 0.13052619222005107 0.9914448613738105 0
outer loop
vertex 35 15 10
vertex 37.5881904510252 14.659258262890685 25
vertex 37.5881904510252 14.659258262890685 10
endloop
endfacet
facet normal 0 0 1
outer loop
vertex 35 5 25
vertex 37.5881904510252 14.659258262890685 25
vertex 35 15 25
endloop
endfacet
facet normal 0.3826834323650899 0.9238795325112867 0
outer loop
vertex 37.5881904510252 14.659258262890685 10
vertex 37.5881904510252 14.659258262890685 25
vertex 40 13.660254037844386 25
endloop
endfacet
facet normal 0.3826834323650899 0.9238795325112867 0
outer loop
vertex 37.5881904510252 14.659258262890685 10
vertex 40 13.660254037844386 25
vertex 40 13.660254037844386 10
endloop
endfacet
facet normal 0 0 1
outer loop
vertex 35 5 25
vertex 40 13.660254037844386 25
vertex 37.5881904510252 14.659258262890685 25
endloop
endfacet
facet normal 0.6087614290087193 0.7933533402912363 0
outer loop
vertex 40 13.660254037844386 10
vertex 40 13.660254037844386 25
vertex 42.071067811865476 12.071067811865476 25
endloop
endfacet
facet normal 0.6087614290087193 0.7933533402912363 0
outer loop
vertex 40 13.660254037844386 10
vertex 42.071067811865476 12.071067811865476 25
vertex 42.071067811865476 12.071067811865476 10
endloop
endfacet
facet normal 0 0 1
outer loop
vertex 35 5 25
vertex 42.071067811865476 12.071067811865476 25
vertex 40 13.660254037844386 25
endloop
endfacet
facet normal 0.7933533402912359 0.6087614290087197 0
outer loop
vertex 42.071067811865476 12.071067811865476 10
vertex 42.071067811865476 12.071067811865476 25
vertex 43.66025403784438 10.000000000000004 25
endloop
endfacet
facet normal 0.7933533402912359 0.6087614290087197 0
outer loop
vertex 42.071067811865476 12.071067811865476 10
vertex 43.66025403784438 10.000000000000004 25
vertex 43.66025403784438 10.000000000000004 10
endloop
endfacet
facet normal 0 0 1
outer loop
vertex 35 5 25
vertex 43.66025403784438 10.000000000000004 25
vertex 42.071067811865476 12.071067811865476 25
endloop
endfacet
facet normal 0.9238795325112861 0.3826834323650912 0
outer loop
vertex 43.66025403784438 10.000000000000004 10
vertex 43.66025403784438 10.000000000000004 25
vertex 44.65925826289068 7.588190451025207 25
endloop
endfacet
facet normal 0.9238795325112861 0.3826834323650912 0
outer loop
vertex 43.66025403784438 10.000000000000004 10
vertex 44.65925826289068 7.588190451025207 25
vertex 44.65925826289068 7.588190451025207 10
endloop
endfacet
facet normal 0 0 1
outer loop
vertex 35 5 25
vertex 44.65925826289068 7.588190451025207 25
vertex 43.66025403784438 10.000000000000004 25
endloop
endfacet
facet normal 0.9914448613738103 0.13052619222005293 0
outer loop
vertex 44.65925826289068 7.588190451025207 10
vertex 44.65925826289068 7.588190451025207 25
vertex 45 5.000000000000002 25
endloop
endfacet
facet normal 0.9914448613738103 0.13052619222005293 0
outer loop
vertex 44.65925826289068 7.588190451025207 10
vertex 45 5.000000000000002 25
vertex 45 5.000000000000002 10
endloop
endfacet
facet normal 0 0 1
outer loop
vertex 35 5 25
vertex 45 5.000000000000002 25
vertex 44.65925826289068 7.588190451025207 25
endloop
endfacet
facet normal -1 0 0
outer loop
vertex 45 -15 10
vertex 45 -15 20
vertex 45 25 20
endloop
endfacet
facet normal -1 0 0
outer loop
vertex 45 -15 10
vertex 45 25 20
vertex 45 25 10
endloop
endfacet
facet normal 1 0 0
outer loop
vertex 85 -15 10
vertex 85 25 10
vertex 85 25 20
endloop
endfacet
facet normal 1 0 0
outer loop
vertex 85 -15 10
vertex 85 25 20
vertex 85 -15 20
endloop
endfacet
facet normal 0 -1 0
outer loop
vertex 45 -15 10
vertex 85 -15 10
vertex 85 -15 20
endloop
endfacet
facet normal 0 -1 0
outer loop
vertex 45 -15 10
vertex 85 -15 20
vertex 45 -15 20
endloop
endfacet
facet normal 0 1 0
outer loop
vertex 45 25 10
vertex 45 25 20
vertex 85 25 20
endloop
endfacet
facet normal 0 1 0
outer loop
vertex 45 25 10
vertex 85 25 20
vertex 85 25 10
endloop
endfacet
facet normal 0 0 1
outer loop
vertex 45 -15 20
vertex 60 -15 20
vertex 60 25 20
endloop
endfacet
facet normal 0 0 1
outer loop
vertex 45 -15 20
vertex 60 25 20
vertex 45 25 20
endloop
endfacet
facet normal 0 0 1
outer loop
vertex 70 -15 20
vertex 85 -15 20
vertex 85 25 20
endloop
endfacet
facet normal 0 0 1
outer loop
vertex 70 -15 20
vertex 85 25 20
vertex 70 25 20
endloop
endfacet
facet normal 0 0 1
outer loop
vertex 60 -15 20
vertex 70 -15 20
vertex 70 0 20
endloop
endfacet
facet normal 0 0 1
outer loop
vertex 60 -15 20
vertex 70 0 20
vertex 60 0 20
endloop
endfacet
facet normal 0 0 1
outer loop
vertex 70 10 20
vertex 70 25 20
vertex 60 25 20
endloop
endfacet
facet normal 0 0 1
outer loop
vertex 70 10 20
vertex 60 25 20
vertex 60 10 20
endloop
endfacet
facet normal -1 0 0
outer loop
vertex 15 -20 0
vertex 15 -20 10
vertex 15 30 10
endloop
endfacet
facet normal -1 0 0
outer loop
vertex 15 -20 0
vertex 15 30 10
vertex 15 30 0
endloop
endfacet
facet normal 1 0 0
outer loop
vertex 115 -20 0
vertex 115 30 0
vertex 115 30 10
endloop
endfacet
facet normal 1 0 0
outer loop
vertex 115 -20 0
vertex 115 30 10
vertex 115 -20 10
endloop
endfacet
facet normal 0 -1 0
outer loop
vertex 15 -20 0
vertex 115 -20 0
vertex 115 -20 10
endloop
endfacet
facet normal 0 -1 0
outer loop
vertex 15 -20 0
vertex 115 -20 10
vertex 15 -20 10
endloop
endfacet
facet normal 0 1 0
outer loop
vertex 15 30 0
vertex 15 30 10
vertex 115 30 10
endloop
endfacet
facet normal 0 1 0
outer loop
vertex 15 30 0
vertex 115 30 10
vertex 115 30 0
endloop
endfacet
facet normal 0 0 -1
outer loop
vertex 15 -20 0
vertex 15 30 0
vertex 115 30 0
endloop
endfacet
facet normal 0 0 -1
outer loop
vertex 15 -20 0
vertex 115 30 0
vertex 115 -20 0
endloop
endfacet
facet normal 0 0 1
outer loop
vertex 41.70868756031507 -20 10
vertex 45 -20 10
vertex 45 4.999999999999943 10
endloop
endfacet
facet normal 0 0 1
outer loop
vertex 85 -20 10
vertex 115 -20 10
vertex 115 30 10
endloop
endfacet
facet normal 0 0 1
outer loop
vertex 85 -20 10
vertex 115 30 10
vertex 85 30 10
endloop
endfacet
facet normal 0 0 1
outer loop
vertex 45 -20 10
vertex 85 -20 10
vertex 85 -15 10
endloop
endfacet
facet normal 0 0 1
outer loop
vertex 45 -20 10
vertex 85 -15 10
vertex 45 -15 10
endloop
endfacet
facet normal 0 0 1
outer loop
vertex 85 25 10
vertex 85 30 10
vertex 48.291312439684944 30 10
endloop
endfacet
facet normal 0 0 1
outer loop
vertex 85 25 10
vertex 48.291312439684944 30 10
vertex 47.63304995174796 25 10
endloop
endfacet
facet normal 0 0 1
outer loop
vertex 35.37598279038252 -20 10
vertex 41.70868756031507 -20 10
vertex 44.659258262890695 2.4118095489748477 10
endloop
endfacet
facet normal 0 0 1
outer loop
vertex 28.313714278265145 -20 10
vertex 35.37598279038252 -20 10
vertex 43.66025403784434 -9.947598300641403e-14 10
endloop
endfacet
facet normal 0 0 1
outer loop
vertex 18.705628476339168 -20 10
vertex 28.313714278265145 -20 10
vertex 42.07106781186553 -2.071067811865433 10
endloop
endfacet
facet normal 0 0 1
outer loop
vertex 15 -20 10
vertex 18.705628476339168 -20 10
vertex 39.99999999999999 -3.6602540378443926 10
endloop
endfacet
facet normal 0 0 1
outer loop
vertex 15 -20 10
vertex 39.99999999999999 -3.6602540378443926 10
vertex 15 -14.015593097171767 10
endloop
endfacet
facet normal 0 0 1
outer loop
vertex 15 -7.633049951747921 10
vertex 15 -14.015593097171767 10
vertex 37.58819045102521 -4.659258262890683 10
endloop
endfacet
facet normal 0 0 1
outer loop
vertex 15 -2.366950048252079 10
vertex 15 -7.633049951747921 10
vertex 35 -5 10
endloop
endfacet
facet normal 0 0 1
outer loop
vertex 15 2.5529493977520374 10
vertex 15 -2.366950048252079 10
vertex 32.4118095489748 -4.659258262890683 10
endloop
endfacet
facet normal 0 0 1
outer loop
vertex 15 7.8496507818400225 10
vertex 15 2.5529493977520374 10
vertex 29.999999999999993 -3.66025403784438 10
endloop
endfacet
facet normal 0 0 1
outer loop
vertex 15 14.778244659454787 10
vertex 15 7.8496507818400225 10
vertex 27.92893218813453 -2.0710678118654773 10
endloop
endfacet
facet normal 0 0 1
outer loop
vertex 15 27.376568495701633 10
vertex 15 14.778244659454787 10
vertex 26.339745962155604 1.2434497875801753e-14 10
endloop
endfacet
facet normal 0 0 1
outer loop
vertex 21.708687560315063 30 10
vertex 15 30 10
vertex 15 27.376568495701633 10
endloop
endfacet
facet normal 0 0 1
outer loop
vertex 21.708687560315063 30 10
vertex 15 27.376568495701633 10
vertex 25.34074173710931 2.411809548974798 10
endloop
endfacet
facet normal 0 0 1
outer loop
vertex 28.29131243968488 30 10
vertex 21.708687560315063 30 10
vertex 24.999999999999996 4.999999999999975 10
endloop
endfacet
facet normal 0 0 1
outer loop
vertex 34.624017209617506 30 10
vertex 28.29131243968488 30 10
vertex 25.34074173710932 7.588190451025223 10
endloop
endfacet
facet normal 0 0 1
outer loop
vertex 41.68628572173485 30 10
vertex 34.624017209617506 30 10
vertex 26.339745962155583 9.999999999999943 10
endloop
endfacet
facet normal 0 0 1
outer loop
vertex 47.953851375880184 27.436728736720426 10
vertex 48.291312439684944 30 10
vertex 41.68628572173485 30 10
endloop
endfacet
facet normal 0 0 1
outer loop
vertex 47.953851375880184 27.436728736720426 10
vertex 41.68628572173485 30 10
vertex 27.928932188134567 12.071067811865511 10
endloop
endfacet
facet normal 0 0 1
outer loop
vertex 45 25.17015885752878 10
vertex 29.99999999999998 13.660254037844373 10
vertex 45 19.87345747344081 10
endloop
endfacet
facet normal 0 0 1
outer loop
vertex 47.63304995174796 25 10
vertex 47.953851375880184 27.436728736720426 10
vertex 45 25.17015885752878 10
endloop
endfacet
facet normal 0 0 1
outer loop
vertex 47.63304995174796 25 10
vertex 45 25.17015885752878 10
vertex 45 25 10
endloop
endfacet
facet normal 0 0 1
outer loop
vertex 45 19.873457473440812 10
vertex 32.41180954897482 14.659258262890692 10
vertex 45 16.316524975873982 10
endloop
endfacet
facet normal 0 0 1
outer loop
vertex 45 16.316524975873982 10
vertex 34.99999999999999 15.000000000000007 10
vertex 45 13.68347502412605 10
endloop
endfacet
facet normal 0 0 1
outer loop
vertex 45 13.68347502412605 10
vertex 37.58819045102519 14.659258262890692 10
vertex 45 11.589186225978906 10
endloop
endfacet
facet normal 0 0 1
outer loop
vertex 45 11.589186225978906 10
vertex 40.00000000000001 13.660254037844382 10
vertex 45 9.823619097949594 10
endloop
endfacet
facet normal 0 0 1
outer loop
vertex 45 9.823619097949594 10
vertex 42.07106781186544 12.071067811865507 10
vertex 45 8.254009068957227 10
endloop
endfacet
facet normal 0 0 1
outer loop
vertex 45 8.25400906895723 10
vertex 43.66025403784438 9.99999999999999 10
vertex 45 6.765567128029309 10
endloop
endfacet
facet normal 0 0 1
outer loop
vertex 45 4.99999999999995 10
vertex 45 6.765567128029309 10
vertex 44.65925826289067 7.588190451025226 10
endloop
endfacet
endsolid csg.js
