solid csg.js
facet normal -1 0 0
outer loop
vertex 0 0 20
vertex 0 0 30
vertex 0 10 30
endloop
endfacet
facet normal -1 0 0
outer loop
vertex 0 0 20
vertex 0 10 30
vertex 0 10 20
endloop
endfacet
facet normal 1 0 0
outer loop
vertex 10 0 20
vertex 10 10 20
vertex 10 10 30
endloop
endfacet
facet normal 1 0 0
outer loop
vertex 10 0 20
vertex 10 10 30
vertex 10 0 30
endloop
endfacet
facet normal 0 -1 0
outer loop
vertex 0 0 20
vertex 10 0 20
vertex 10 0 30
endloop
endfacet
facet normal 0 -1 0
outer loop
vertex 0 0 20
vertex 10 0 30
vertex 0 0 30
endloop
endfacet
facet normal 0 1 0
outer loop
vertex 0 10 20
vertex 0 10 30
vertex 10 10 30
endloop
endfacet
facet normal 0 1 0
outer loop
vertex 0 10 20
vertex 10 10 30
vertex 10 10 20
endloop
endfacet
facet normal 0 0 -1
outer loop
vertex 0 0 20
vertex 0 10 20
vertex 10 10 20
endloop
endfacet
facet normal 0 0 -1
outer loop
vertex 0 0 20
vertex 10 10 20
vertex 10 0 20
endloop
endfacet
facet normal 0 0 1
outer loop
vertex 0 0 30
vertex 10 0 30
vertex 10 10 30
endloop
endfacet
facet normal 0 0 1
outer loop
vertex 0 0 30
vertex 10 10 30
vertex 0 10 30
endloop
endfacet
facet normal -1 0 0
outer loop
vertex 60 0 20
vertex 60 0 30
vertex 60 10 30
endloop
endfacet
facet normal -1 0 0
outer loop
vertex 60 0 20
vertex 60 10 30
vertex 60 10 20
endloop
endfacet
facet normal 1 0 0
outer loop
vertex 70 0 20
vertex 70 10 20
vertex 70 10 30
endloop
endfacet
facet normal 1 0 0
outer loop
vertex 70 0 20
vertex 70 10 30
vertex 70 0 30
endloop
endfacet
facet normal 0 -1 0
outer loop
vertex 60 0 20
vertex 70 0 20
vertex 70 0 30
endloop
endfacet
facet normal 0 -1 0
outer loop
vertex 60 0 20
vertex 70 0 30
vertex 60 0 30
endloop
endfacet
facet normal 0 1 0
outer loop
vertex 60 10 20
vertex 60 10 30
vertex 70 10 30
endloop
endfacet
facet normal 0 1 0
outer loop
vertex 60 10 20
vertex 70 10 30
vertex 70 10 20
endloop
endfacet
facet normal 0 0 1
outer loop
vertex 60 0 30
vertex 70 0 30
vertex 70 10 30
endloop
endfacet
facet normal 0 0 1
outer loop
vertex 60 0 30
vertex 70 10 30
vertex 60 10 30
endloop
endfacet
facet normal 0.9914448613738103 -0.13052619222005304 0
outer loop
vertex 44.65925826289068 -7.588190451025207 10
vertex 45 -5 10
vertex 45 -5 30
endloop
endfacet
facet normal 0.9914448613738103 -0.13052619222005304 0
outer loop
vertex 44.65925826289068 -7.588190451025207 10
vertex 45 -5 30
vertex 44.65925826289068 -7.588190451025207 30
endloop
endfacet
facet normal 0 0 1
outer loop
vertex 35 -5 30
vertex 44.65925826289068 -7.588190451025207 30
vertex 45 -5 30
endloop
endfacet
facet normal 0.9238795325112873 -0.38268343236508834 0
outer loop
vertex 43.66025403784439 -10 10
vertex 44.65925826289068 -7.588190451025207 10
vertex 44.65925826289068 -7.588190451025207 30
endloop
endfacet
facet normal 0.9238795325112873 -0.38268343236508834 0
outer loop
vertex 43.66025403784439 -10 10
vertex 44.65925826289068 -7.588190451025207 30
vertex 43.66025403784439 -10 30
endloop
endfacet
facet normal 0 0 1
outer loop
vertex 35 -5 30
vertex 43.66025403784439 -10 30
vertex 44.65925826289068 -7.588190451025207 30
endloop
endfacet
facet normal 0.7933533402912346 -0.6087614290087214 0
outer loop
vertex 42.071067811865476 -12.071067811865476 10
vertex 43.66025403784439 -10 10
vertex 43.66025403784439 -10 30
endloop
endfacet
facet normal 0.7933533402912346 -0.6087614290087214 0
outer loop
vertex 42.071067811865476 -12.071067811865476 10
vertex 43.66025403784439 -10 30
vertex 42.071067811865476 -12.071067811865476 30
endloop
endfacet
facet normal 0 0 1
outer loop
vertex 35 -5 30
vertex 42.071067811865476 -12.071067811865476 30
vertex 43.66025403784439 -10 30
endloop
endfacet
facet normal 0.6087614290087201 -0.7933533402912356 0
outer loop
vertex 40 -13.660254037844386 10
vertex 42.071067811865476 -12.071067811865476 10
vertex 42.071067811865476 -12.071067811865476 30
endloop
endfacet
facet normal 0.6087614290087201 -0.7933533402912356 0
outer loop
vertex 40 -13.660254037844386 10
vertex 42.071067811865476 -12.071067811865476 30
vertex 40 -13.660254037844386 30
endloop
endfacet
facet normal 0 0 1
outer loop
vertex 35 -5 30
vertex 40 -13.660254037844386 30
vertex 42.071067811865476 -12.071067811865476 30
endloop
endfacet
facet normal 0.3826834323650899 -0.9238795325112867 0
outer loop
vertex 37.588190451025206 -14.659258262890683 10
vertex 40 -13.660254037844386 10
vertex 40 -13.660254037844386 30
endloop
endfacet
facet normal 0.3826834323650899 -0.9238795325112867 0
outer loop
vertex 37.588190451025206 -14.659258262890683 10
vertex 40 -13.660254037844386 30
vertex 37.588190451025206 -14.659258262890683 30
endloop
endfacet
facet normal 0 0 1
outer loop
vertex 35 -5 30
vertex 37.588190451025206 -14.659258262890683 30
vertex 40 -13.660254037844386 30
endloop
endfacet
facet normal 0.13052619222005107 -0.9914448613738105 0
outer loop
vertex 35 -15 10
vertex 37.588190451025206 -14.659258262890683 10
vertex 37.588190451025206 -14.659258262890683 30
endloop
endfacet
facet normal 0.13052619222005107 -0.9914448613738105 0
outer loop
vertex 35 -15 10
vertex 37.588190451025206 -14.659258262890683 30
vertex 35 -15 30
endloop
endfacet
facet normal 0 0 1
outer loop
vertex 35 -5 30
vertex 35 -15 30
vertex 37.588190451025206 -14.659258262890683 30
endloop
endfacet
facet normal -0.13052619222005196 -0.9914448613738105 0
outer loop
vertex 32.411809548974794 -14.659258262890683 10
vertex 35 -15 10
vertex 35 -15 30
endloop
endfacet
facet normal -0.13052619222005196 -0.9914448613738105 0
outer loop
vertex 32.411809548974794 -14.659258262890683 10
vertex 35 -15 30
vertex 32.411809548974794 -14.659258262890683 30
endloop
endfacet
facet normal 0 0 1
outer loop
vertex 35 -5 30
vertex 32.411809548974794 -14.659258262890683 30
vertex 35 -15 30
endloop
endfacet
facet normal -0.3826834323650893 -0.9238795325112871 0
outer loop
vertex 30 -13.660254037844387 10
vertex 32.411809548974794 -14.659258262890683 10
vertex 32.411809548974794 -14.659258262890683 30
endloop
endfacet
facet normal -0.3826834323650893 -0.9238795325112871 0
outer loop
vertex 30 -13.660254037844387 10
vertex 32.411809548974794 -14.659258262890683 30
vertex 30 -13.660254037844387 30
endloop
endfacet
facet normal 0 0 1
outer loop
vertex 35 -5 30
vertex 30 -13.660254037844387 30
vertex 32.411809548974794 -14.659258262890683 30
endloop
endfacet
facet normal -0.6087614290087207 -0.7933533402912352 0
outer loop
vertex 27.928932188134524 -12.071067811865476 10
vertex 30 -13.660254037844387 10
vertex 30 -13.660254037844387 30
endloop
endfacet
facet normal -0.6087614290087207 -0.7933533402912352 0
outer loop
vertex 27.928932188134524 -12.071067811865476 10
vertex 30 -13.660254037844387 30
vertex 27.928932188134524 -12.071067811865476 30
endloop
endfacet
facet normal 0 0 1
outer loop
vertex 35 -5 30
vertex 27.928932188134524 -12.071067811865476 30
vertex 30 -13.660254037844387 30
endloop
endfacet
facet normal -0.7933533402912347 -0.6087614290087212 0
outer loop
vertex 26.33974596215561 -10 10
vertex 27.928932188134524 -12.071067811865476 10
vertex 27.928932188134524 -12.071067811865476 30
endloop
endfacet
facet normal -0.7933533402912347 -0.6087614290087212 0
outer loop
vertex 26.33974596215561 -10 10
vertex 27.928932188134524 -12.071067811865476 30
vertex 26.33974596215561 -10 30
endloop
endfacet
facet normal 0 0 1
outer loop
vertex 35 -5 30
vertex 26.33974596215561 -10 30
vertex 27.928932188134524 -12.071067811865476 30
endloop
endfacet
facet normal -0.9238795325112871 -0.3826834323650893 0
outer loop
vertex 25.34074173710932 -7.58819045102521 10
vertex 26.33974596215561 -10 10
vertex 26.33974596215561 -10 30
endloop
endfacet
facet normal -0.9238795325112871 -0.3826834323650893 0
outer loop
vertex 25.34074173710932 -7.58819045102521 10
vertex 26.33974596215561 -10 30
vertex 25.34074173710932 -7.58819045102521 30
endloop
endfacet
facet normal 0 0 1
outer loop
vertex 35 -5 30
vertex 25.34074173710932 -7.58819045102521 30
vertex 26.33974596215561 -10 30
endloop
endfacet
facet normal -0.9914448613738103 -0.13052619222005282 0
outer loop
vertex 25 -5.000000000000002 10
vertex 25.34074173710932 -7.58819045102521 10
vertex 25.34074173710932 -7.58819045102521 30
endloop
endfacet
facet normal -0.9914448613738103 -0.13052619222005282 0
outer loop
vertex 25 -5.000000000000002 10
vertex 25.34074173710932 -7.58819045102521 30
vertex 25 -5.000000000000002 30
endloop
endfacet
facet normal 0 0 1
outer loop
vertex 35 -5 30
vertex 25 -5.000000000000002 30
vertex 25.34074173710932 -7.58819045102521 30
endloop
endfacet
facet normal -0.9914448613738105 0.13052619222005118 0
outer loop
vertex 25.340741737109315 -2.411809548974796 10
vertex 25 -5.000000000000002 10
vertex 25 -5.000000000000002 30
endloop
endfacet
facet normal -0.9914448613738105 0.13052619222005118 0
outer loop
vertex 25.340741737109315 -2.411809548974796 10
vertex 25 -5.000000000000002 30
vertex 25.340741737109315 -2.411809548974796 30
endloop
endfacet
facet normal 0 0 1
outer loop
vertex 35 -5 30
vertex 25.340741737109315 -2.411809548974796 30
vertex 25 -5.000000000000002 30
endloop
endfacet
facet normal -0.923879532511287 0.3826834323650896 0
outer loop
vertex 26.339745962155614 0 10
vertex 25.340741737109315 -2.411809548974796 10
vertex 25.340741737109315 -2.411809548974796 30
endloop
endfacet
facet normal -0.923879532511287 0.3826834323650896 0
outer loop
vertex 26.339745962155614 0 10
vertex 25.340741737109315 -2.411809548974796 30
vertex 26.339745962155614 0 30
endloop
endfacet
facet normal 0 0 1
outer loop
vertex 35 -5 30
vertex 26.339745962155614 0 30
vertex 25.340741737109315 -2.411809548974796 30
endloop
endfacet
facet normal -0.7933533402912355 0.6087614290087203 0
outer loop
vertex 27.928932188134524 2.0710678118654755 10
vertex 26.339745962155614 0 10
vertex 26.339745962155614 0 30
endloop
endfacet
facet normal -0.7933533402912355 0.6087614290087203 0
outer loop
vertex 27.928932188134524 2.0710678118654755 10
vertex 26.339745962155614 0 30
vertex 27.928932188134524 2.0710678118654755 30
endloop
endfacet
facet normal 0 0 1
outer loop
vertex 35 -5 30
vertex 27.928932188134524 2.0710678118654755 30
vertex 26.339745962155614 0 30
endloop
endfacet
facet normal -0.6087614290087201 0.7933533402912356 0
outer loop
vertex 29.999999999999996 3.660254037844382 10
vertex 27.928932188134524 2.0710678118654755 10
vertex 27.928932188134524 2.0710678118654755 30
endloop
endfacet
facet normal -0.6087614290087201 0.7933533402912356 0
outer loop
vertex 29.999999999999996 3.660254037844382 10
vertex 27.928932188134524 2.0710678118654755 30
vertex 29.999999999999996 3.660254037844382 30
endloop
endfacet
facet normal 0 0 1
outer loop
vertex 35 -5 30
vertex 29.999999999999996 3.660254037844382 30
vertex 27.928932188134524 2.0710678118654755 30
endloop
endfacet
facet normal -0.3826834323650899 0.9238795325112867 0
outer loop
vertex 32.411809548974794 4.659258262890681 10
vertex 29.999999999999996 3.660254037844382 10
vertex 29.999999999999996 3.660254037844382 30
endloop
endfacet
facet normal -0.3826834323650899 0.9238795325112867 0
outer loop
vertex 32.411809548974794 4.659258262890681 10
vertex 29.999999999999996 3.660254037844382 30
vertex 32.411809548974794 4.659258262890681 30
endloop
endfacet
facet normal 0 0 1
outer loop
vertex 35 -5 30
vertex 32.411809548974794 4.659258262890681 30
vertex 29.999999999999996 3.660254037844382 30
endloop
endfacet
facet normal -0.13052619222005282 0.9914448613738103 0
outer loop
vertex 35 5 10
vertex 32.411809548974794 4.659258262890681 10
vertex 32.411809548974794 4.659258262890681 30
endloop
endfacet
facet normal -0.13052619222005282 0.9914448613738103 0
outer loop
vertex 35 5 10
vertex 32.411809548974794 4.659258262890681 30
vertex 35 5 30
endloop
endfacet
facet normal 0 0 1
outer loop
vertex 35 -5 30
vertex 35 5 30
vertex 32.411809548974794 4.659258262890681 30
endloop
endfacet
facet normal 0.13052619222005107 0.9914448613738105 0
outer loop
vertex 37.5881904510252 4.659258262890685 10
vertex 35 5 10
vertex 35 5 30
endloop
endfacet
facet normal 0.13052619222005107 0.9914448613738105 0
outer loop
vertex 37.5881904510252 4.659258262890685 10
vertex 35 5 30
vertex 37.5881904510252 4.659258262890685 30
endloop
endfacet
facet normal 0 0 1
outer loop
vertex 35 -5 30
vertex 37.5881904510252 4.659258262890685 30
vertex 35 5 30
endloop
endfacet
facet normal 0.3826834323650899 0.9238795325112867 0
outer loop
vertex 40 3.6602540378443855 10
vertex 37.5881904510252 4.659258262890685 10
vertex 37.5881904510252 4.659258262890685 30
endloop
endfacet
facet normal 0.3826834323650899 0.9238795325112867 0
outer loop
vertex 40 3.6602540378443855 10
vertex 37.5881904510252 4.659258262890685 30
vertex 40 3.6602540378443855 30
endloop
endfacet
facet normal 0 0 1
outer loop
vertex 35 -5 30
vertex 40 3.6602540378443855 30
vertex 37.5881904510252 4.659258262890685 30
endloop
endfacet
facet normal 0.6087614290087193 0.7933533402912364 0
outer loop
vertex 42.071067811865476 2.0710678118654755 10
vertex 40 3.6602540378443855 10
vertex 40 3.6602540378443855 30
endloop
endfacet
facet normal 0.6087614290087193 0.7933533402912364 0
outer loop
vertex 42.071067811865476 2.0710678118654755 10
vertex 40 3.6602540378443855 30
vertex 42.071067811865476 2.0710678118654755 30
endloop
endfacet
facet normal 0 0 1
outer loop
vertex 35 -5 30
vertex 42.071067811865476 2.0710678118654755 30
vertex 40 3.6602540378443855 30
endloop
endfacet
facet normal 0.7933533402912359 0.6087614290087197 0
outer loop
vertex 43.66025403784438 3.552713678800501e-15 10
vertex 42.071067811865476 2.0710678118654755 10
vertex 42.071067811865476 2.0710678118654755 30
endloop
endfacet
facet normal 0.7933533402912359 0.6087614290087197 0
outer loop
vertex 43.66025403784438 3.552713678800501e-15 10
vertex 42.071067811865476 2.0710678118654755 30
vertex 43.66025403784438 3.552713678800501e-15 30
endloop
endfacet
facet normal 0 0 1
outer loop
vertex 35 -5 30
vertex 43.66025403784438 3.552713678800501e-15 30
vertex 42.071067811865476 2.0710678118654755 30
endloop
endfacet
facet normal 0.9238795325112861 0.3826834323650914 0
outer loop
vertex 44.65925826289068 -2.4118095489747926 10
vertex 43.66025403784438 3.552713678800501e-15 10
vertex 43.66025403784438 3.552713678800501e-15 30
endloop
endfacet
facet normal 0.9238795325112861 0.3826834323650914 0
outer loop
vertex 44.65925826289068 -2.4118095489747926 10
vertex 43.66025403784438 3.552713678800501e-15 30
vertex 44.65925826289068 -2.4118095489747926 30
endloop
endfacet
facet normal 0 0 1
outer loop
vertex 35 -5 30
vertex 44.65925826289068 -2.4118095489747926 30
vertex 43.66025403784438 3.552713678800501e-15 30
endloop
endfacet
facet normal 0.9914448613738103 0.13052619222005282 0
outer loop
vertex 45 -4.999999999999998 10
vertex 44.65925826289068 -2.4118095489747926 10
vertex 44.65925826289068 -2.4118095489747926 30
endloop
endfacet
facet normal 0.9914448613738103 0.13052619222005282 0
outer loop
vertex 45 -4.999999999999998 10
vertex 44.65925826289068 -2.4118095489747926 30
vertex 45 -4.999999999999998 30
endloop
endfacet
facet normal 0 0 1
outer loop
vertex 35 -5 30
vertex 45 -4.999999999999998 30
vertex 44.65925826289068 -2.4118095489747926 30
endloop
endfacet
facet normal -1 0 0
outer loop
vertex 45 -15 10
vertex 45 -15 20
vertex 45 25 20
endloop
endfacet
facet normal -1 0 0
outer loop
vertex 45 -15 10
vertex 45 25 20
vertex 45 25 10
endloop
endfacet
facet normal 1 0 0
outer loop
vertex 85 -15 10
vertex 85 25 10
vertex 85 25 20
endloop
endfacet
facet normal 1 0 0
outer loop
vertex 85 -15 10
vertex 85 25 20
vertex 85 -15 20
endloop
endfacet
facet normal 0 -1 0
outer loop
vertex 45 -15 10
vertex 85 -15 10
vertex 85 -15 20
endloop
endfacet
facet normal 0 -1 0
outer loop
vertex 45 -15 10
vertex 85 -15 20
vertex 45 -15 20
endloop
endfacet
facet normal 0 1 0
outer loop
vertex 45 25 10
vertex 45 25 20
vertex 85 25 20
endloop
endfacet
facet normal 0 1 0
outer loop
vertex 45 25 10
vertex 85 25 20
vertex 85 25 10
endloop
endfacet
facet normal 0 0 1
outer loop
vertex 45 -15 20
vertex 60 -15 20
vertex 60 25 20
endloop
endfacet
facet normal 0 0 1
outer loop
vertex 45 -15 20
vertex 60 25 20
vertex 45 25 20
endloop
endfacet
facet normal 0 0 1
outer loop
vertex 70 -15 20
vertex 85 -15 20
vertex 85 25 20
endloop
endfacet
facet normal 0 0 1
outer loop
vertex 70 -15 20
vertex 85 25 20
vertex 70 25 20
endloop
endfacet
facet normal 0 0 1
outer loop
vertex 60 -15 20
vertex 70 -15 20
vertex 70 0 20
endloop
endfacet
facet normal 0 0 1
outer loop
vertex 60 -15 20
vertex 70 0 20
vertex 60 0 20
endloop
endfacet
facet normal 0 0 1
outer loop
vertex 70 10 20
vertex 70 25 20
vertex 60 25 20
endloop
endfacet
facet normal 0 0 1
outer loop
vertex 70 10 20
vertex 60 25 20
vertex 60 10 20
endloop
endfacet
facet normal -1 0 0
outer loop
vertex 15 -20 0
vertex 15 -20 10
vertex 15 30 10
endloop
endfacet
facet normal -1 0 0
outer loop
vertex 15 -20 0
vertex 15 30 10
vertex 15 30 0
endloop
endfacet
facet normal 1 0 0
outer loop
vertex 115 -20 0
vertex 115 30 0
vertex 115 30 10
endloop
endfacet
facet normal 1 0 0
outer loop
vertex 115 -20 0
vertex 115 30 10
vertex 115 -20 10
endloop
endfacet
facet normal 0 -1 0
outer loop
vertex 15 -20 0
vertex 115 -20 0
vertex 115 -20 10
endloop
endfacet
facet normal 0 -1 0
outer loop
vertex 15 -20 0
vertex 115 -20 10
vertex 15 -20 10
endloop
endfacet
facet normal 0 1 0
outer loop
vertex 15 30 0
vertex 15 30 10
vertex 115 30 10
endloop
endfacet
facet normal 0 1 0
outer loop
vertex 15 30 0
vertex 115 30 10
vertex 115 30 0
endloop
endfacet
facet normal 0 0 -1
outer loop
vertex 15 -20 0
vertex 15 30 0
vertex 115 30 0
endloop
endfacet
facet normal 0 0 -1
outer loop
vertex 15 -20 0
vertex 115 30 0
vertex 115 -20 0
endloop
endfacet
facet normal 0 0 1
outer loop
vertex 43.025212536189045 -20 10
vertex 45 -20 10
vertex 45 -5.000000000000021 10
endloop
endfacet
facet normal 0 0 1
outer loop
vertex 85 -20 10
vertex 115 -20 10
vertex 115 30 10
endloop
endfacet
facet normal 0 0 1
outer loop
vertex 85 -20 10
vertex 115 30 10
vertex 85 30 10
endloop
endfacet
facet normal 0 0 1
outer loop
vertex 45 -20 10
vertex 85 -20 10
vertex 85 -15 10
endloop
endfacet
facet normal 0 0 1
outer loop
vertex 45 -20 10
vertex 85 -15 10
vertex 45 -15 10
endloop
endfacet
facet normal 0 0 1
outer loop
vertex 85 25 10
vertex 85 30 10
vertex 49.607837415558905 30 10
endloop
endfacet
facet normal 0 0 1
outer loop
vertex 85 25 10
vertex 49.607837415558905 30 10
vertex 48.94957492762192 25 10
endloop
endfacet
facet normal 0 0 1
outer loop
vertex 39.51811841411346 -20 10
vertex 43.025212536189045 -20 10
vertex 44.65925826289068 -7.588190451025218 10
endloop
endfacet
facet normal 0 0 1
outer loop
vertex 35.98698415805478 -20 10
vertex 39.51811841411346 -20 10
vertex 43.66025403784439 -10.000000000000009 10
endloop
endfacet
facet normal 0 0 1
outer loop
vertex 31.737882204751212 -20 10
vertex 35.98698415805478 -20 10
vertex 42.07106781186547 -12.071067811865495 10
endloop
endfacet
facet normal 0 0 1
outer loop
vertex 24.694499316163864 -20 10
vertex 31.737882204751212 -20 10
vertex 40.000000000000014 -13.660254037844387 10
endloop
endfacet
facet normal 0 0 1
outer loop
vertex 15 -20 10
vertex 24.694499316163864 -20 10
vertex 37.58819045102521 -14.659258262890686 10
endloop
endfacet
facet normal 0 0 1
outer loop
vertex 15 -20 10
vertex 37.58819045102521 -14.659258262890686 10
vertex 15 -17.633049951747907 10
endloop
endfacet
facet normal 0 0 1
outer loop
vertex 15 -12.366950048252079 10
vertex 15 -17.633049951747907 10
vertex 34.999999999999986 -15.000000000000004 10
endloop
endfacet
facet normal 0 0 1
outer loop
vertex 15 -7.447050602247963 10
vertex 15 -12.366950048252079 10
vertex 32.41180954897483 -14.659258262890692 10
endloop
endfacet
facet normal 0 0 1
outer loop
vertex 15 -2.150349218159981 10
vertex 15 -7.447050602247963 10
vertex 29.999999999999986 -13.660254037844375 10
endloop
endfacet
facet normal 0 0 1
outer loop
vertex 15 4.778244659454781 10
vertex 15 -2.150349218159981 10
vertex 27.928932188134524 -12.071067811865474 10
endloop
endfacet
facet normal 0 0 1
outer loop
vertex 15 17.37656849570167 10
vertex 15 4.778244659454781 10
vertex 26.339745962155618 -10.000000000000005 10
endloop
endfacet
facet normal 0 0 1
outer loop
vertex 20.392162584441092 30 10
vertex 15 30 10
vertex 15 17.37656849570167 10
endloop
endfacet
facet normal 0 0 1
outer loop
vertex 20.392162584441092 30 10
vertex 15 17.37656849570167 10
vertex 25.34074173710932 -7.5881904510251985 10
endloop
endfacet
facet normal 0 0 1
outer loop
vertex 29.607837415558844 30 10
vertex 20.392162584441092 30 10
vertex 25 -5 10
endloop
endfacet
facet normal 0 0 1
outer loop
vertex 38.76615283334846 30 10
vertex 29.607837415558844 30 10
vertex 25.34074173710932 -2.411809548974759 10
endloop
endfacet
facet normal 0 0 1
outer loop
vertex 45 30 10
vertex 38.76615283334846 30 10
vertex 26.339745962155575 -5.684341886080802e-14 10
endloop
endfacet
facet normal 0 0 1
outer loop
vertex 45 30 10
vertex 26.339745962155575 -5.684341886080802e-14 10
vertex 45 24.318516525781376 10
endloop
endfacet
facet normal 0 0 1
outer loop
vertex 49.35955560152441 30 10
vertex 45 30 10
vertex 45 25 10
endloop
endfacet
facet normal 0 0 1
outer loop
vertex 49.35955560152441 30 10
vertex 45 25 10
vertex 45.52292066162961 25 10
endloop
endfacet
facet normal 0 0 1
outer loop
vertex 45 24.318516525781376 10
vertex 27.928932188134535 2.071067811865486 10
vertex 45 15.170158857528776 10
endloop
endfacet
facet normal 0 0 1
outer loop
vertex 48.94957492762192 25 10
vertex 49.607837415558905 30 10
vertex 49.35955560152441 30 10
endloop
endfacet
facet normal 0 0 1
outer loop
vertex 48.94957492762192 25 10
vertex 49.35955560152441 30 10
vertex 45.52292066162961 25 10
endloop
endfacet
facet normal 0 0 1
outer loop
vertex 45 15.170158857528776 10
vertex 29.99999999999998 3.6602540378443713 10
vertex 45 9.873457473440808 10
endloop
endfacet
facet normal 0 0 1
outer loop
vertex 45 9.873457473440808 10
vertex 32.41180954897482 4.65925826289069 10
vertex 45 6.316524975873979 10
endloop
endfacet
facet normal 0 0 1
outer loop
vertex 45 6.316524975873979 10
vertex 34.999999999999986 5.000000000000004 10
vertex 45 3.6834750241260497 10
endloop
endfacet
facet normal 0 0 1
outer loop
vertex 45 3.6834750241260497 10
vertex 37.588190451025184 4.65925826289069 10
vertex 45 1.5891862259789074 10
endloop
endfacet
facet normal 0 0 1
outer loop
vertex 45 1.5891862259789074 10
vertex 40 3.6602540378443824 10
vertex 45 -0.17638090205040458 10
endloop
endfacet
facet normal 0 0 1
outer loop
vertex 45 -0.17638090205040413 10
vertex 42.07106781186544 2.0710678118655044 10
vertex 45 -1.7459909310427708 10
endloop
endfacet
facet normal 0 0 1
outer loop
vertex 45 -1.7459909310427708 10
vertex 43.66025403784439 -2.398081733190338e-14 10
vertex 45 -3.23443287197067 10
endloop
endfacet
facet normal 0 0 1
outer loop
vertex 45 -5.00000000000004 10
vertex 45 -3.2344328719706716 10
vertex 44.65925826289067 -2.4118095489747615 10
endloop
endfacet
endsolid csg.js
