solid csg.js
facet normal -1 0 0
outer loop
vertex 0 -10 20
vertex 0 -10 30
vertex 0 0 30
endloop
endfacet
facet normal -1 0 0
outer loop
vertex 0 -10 20
vertex 0 0 30
vertex 0 0 20
endloop
endfacet
facet normal 1 0 0
outer loop
vertex 10 0 30
vertex 10 -10 30
vertex 10 -10 20
endloop
endfacet
facet normal 1 0 0
outer loop
vertex 10 0 30
vertex 10 -10 20
vertex 10 0 20
endloop
endfacet
facet normal 0 1 0
outer loop
vertex 0 0 30
vertex 10 0 30
vertex 10 0 20
endloop
endfacet
facet normal 0 1 0
outer loop
vertex 0 0 30
vertex 10 0 20
vertex 0 0 20
endloop
endfacet
facet normal 0 -1 0
outer loop
vertex 10 -10 20
vertex 10 -10 30
vertex 0 -10 30
endloop
endfacet
facet normal 0 -1 0
outer loop
vertex 10 -10 20
vertex 0 -10 30
vertex 0 -10 20
endloop
endfacet
facet normal 0 0 -1
outer loop
vertex 10 0 20
vertex 10 -10 20
vertex 0 -10 20
endloop
endfacet
facet normal 0 0 -1
outer loop
vertex 10 0 20
vertex 0 -10 20
vertex 0 0 20
endloop
endfacet
facet normal 0 0 1
outer loop
vertex 0 -10 30
vertex 10 -10 30
vertex 10 0 30
endloop
endfacet
facet normal 0 0 1
outer loop
vertex 0 -10 30
vertex 10 0 30
vertex 0 0 30
endloop
endfacet
facet normal -1 0 0
outer loop
vertex 60 -10 20
vertex 60 -10 30
vertex 60 0 30
endloop
endfacet
facet normal -1 0 0
outer loop
vertex 60 -10 20
vertex 60 0 30
vertex 60 0 20
endloop
endfacet
facet normal 1 0 0
outer loop
vertex 70 0 30
vertex 70 -10 30
vertex 70 -10 20
endloop
endfacet
facet normal 1 0 0
outer loop
vertex 70 0 30
vertex 70 -10 20
vertex 70 0 20
endloop
endfacet
facet normal 0 1 0
outer loop
vertex 60 0 30
vertex 70 0 30
vertex 70 0 20
endloop
endfacet
facet normal 0 1 0
outer loop
vertex 60 0 30
vertex 70 0 20
vertex 60 0 20
endloop
endfacet
facet normal 0 -1 0
outer loop
vertex 70 -10 20
vertex 70 -10 30
vertex 60 -10 30
endloop
endfacet
facet normal 0 -1 0
outer loop
vertex 70 -10 20
vertex 60 -10 30
vertex 60 -10 20
endloop
endfacet
facet normal 0 0 1
outer loop
vertex 60 -10 30
vertex 70 -10 30
vertex 70 0 30
endloop
endfacet
facet normal 0 0 1
outer loop
vertex 60 -10 30
vertex 70 0 30
vertex 60 0 30
endloop
endfacet
facet normal 0.9914448613738103 0.13052619222005293 0
outer loop
vertex 44.65925826289068 -2.4118095489747926 30
vertex 45 -5 30
vertex 45 -5 10
endloop
endfacet
facet normal 0.9914448613738103 0.13052619222005293 0
outer loop
vertex 44.65925826289068 -2.4118095489747926 30
vertex 45 -5 10
vertex 44.65925826289068 -2.4118095489747926 10
endloop
endfacet
facet normal 0 0 1
outer loop
vertex 45 -5 30
vertex 44.65925826289068 -2.4118095489747926 30
vertex 35 -5 30
endloop
endfacet
facet normal 0.9238795325112875 0.38268343236508806 0
outer loop
vertex 43.66025403784439 -8.881784197001252e-16 30
vertex 44.65925826289068 -2.4118095489747926 30
vertex 44.65925826289068 -2.4118095489747926 10
endloop
endfacet
facet normal 0.9238795325112875 0.38268343236508806 0
outer loop
vertex 43.66025403784439 -8.881784197001252e-16 30
vertex 44.65925826289068 -2.4118095489747926 10
vertex 43.66025403784439 -8.881784197001252e-16 10
endloop
endfacet
facet normal 0 0 1
outer loop
vertex 44.65925826289068 -2.4118095489747926 30
vertex 43.66025403784439 -8.881784197001252e-16 30
vertex 35 -5 30
endloop
endfacet
facet normal 0.7933533402912338 0.6087614290087223 0
outer loop
vertex 42.071067811865476 2.0710678118654746 30
vertex 43.66025403784439 -8.881784197001252e-16 30
vertex 43.66025403784439 -8.881784197001252e-16 10
endloop
endfacet
facet normal 0.7933533402912338 0.6087614290087223 0
outer loop
vertex 42.071067811865476 2.0710678118654746 30
vertex 43.66025403784439 -8.881784197001252e-16 10
vertex 42.071067811865476 2.0710678118654746 10
endloop
endfacet
facet normal 0 0 1
outer loop
vertex 43.66025403784439 -8.881784197001252e-16 30
vertex 42.071067811865476 2.0710678118654746 30
vertex 35 -5 30
endloop
endfacet
facet normal 0.6087614290087207 0.7933533402912352 0
outer loop
vertex 40 3.6602540378443855 30
vertex 42.071067811865476 2.0710678118654746 30
vertex 42.071067811865476 2.0710678118654746 10
endloop
endfacet
facet normal 0.6087614290087207 0.7933533402912352 0
outer loop
vertex 40 3.6602540378443855 30
vertex 42.071067811865476 2.0710678118654746 10
vertex 40 3.6602540378443855 10
endloop
endfacet
facet normal 0 0 1
outer loop
vertex 42.071067811865476 2.0710678118654746 30
vertex 40 3.6602540378443855 30
vertex 35 -5 30
endloop
endfacet
facet normal 0.3826834323650899 0.9238795325112867 0
outer loop
vertex 37.588190451025206 4.659258262890683 30
vertex 40 3.6602540378443855 30
vertex 40 3.6602540378443855 10
endloop
endfacet
facet normal 0.3826834323650899 0.9238795325112867 0
outer loop
vertex 37.588190451025206 4.659258262890683 30
vertex 40 3.6602540378443855 10
vertex 37.588190451025206 4.659258262890683 10
endloop
endfacet
facet normal 0 0 1
outer loop
vertex 40 3.6602540378443855 30
vertex 37.588190451025206 4.659258262890683 30
vertex 35 -5 30
endloop
endfacet
facet normal 0.13052619222005152 0.9914448613738105 0
outer loop
vertex 35 5 30
vertex 37.588190451025206 4.659258262890683 30
vertex 37.588190451025206 4.659258262890683 10
endloop
endfacet
facet normal 0.13052619222005152 0.9914448613738105 0
outer loop
vertex 35 5 30
vertex 37.588190451025206 4.659258262890683 10
vertex 35 5 10
endloop
endfacet
facet normal 0 0 1
outer loop
vertex 37.588190451025206 4.659258262890683 30
vertex 35 5 30
vertex 35 -5 30
endloop
endfacet
facet normal -0.13052619222005152 0.9914448613738105 0
outer loop
vertex 32.411809548974794 4.659258262890683 30
vertex 35 5 30
vertex 35 5 10
endloop
endfacet
facet normal -0.13052619222005152 0.9914448613738105 0
outer loop
vertex 32.411809548974794 4.659258262890683 30
vertex 35 5 10
vertex 32.411809548974794 4.659258262890683 10
endloop
endfacet
facet normal 0 0 1
outer loop
vertex 35 5 30
vertex 32.411809548974794 4.659258262890683 30
vertex 35 -5 30
endloop
endfacet
facet normal -0.3826834323650895 0.9238795325112871 0
outer loop
vertex 30 3.6602540378443873 30
vertex 32.411809548974794 4.659258262890683 30
vertex 32.411809548974794 4.659258262890683 10
endloop
endfacet
facet normal -0.3826834323650895 0.9238795325112871 0
outer loop
vertex 30 3.6602540378443873 30
vertex 32.411809548974794 4.659258262890683 10
vertex 30 3.6602540378443873 10
endloop
endfacet
facet normal 0 0 1
outer loop
vertex 32.411809548974794 4.659258262890683 30
vertex 30 3.6602540378443873 30
vertex 35 -5 30
endloop
endfacet
facet normal -0.6087614290087208 0.7933533402912352 0
outer loop
vertex 27.928932188134524 2.0710678118654755 30
vertex 30 3.6602540378443873 30
vertex 30 3.6602540378443873 10
endloop
endfacet
facet normal -0.6087614290087208 0.7933533402912352 0
outer loop
vertex 27.928932188134524 2.0710678118654755 30
vertex 30 3.6602540378443873 10
vertex 27.928932188134524 2.0710678118654755 10
endloop
endfacet
facet normal 0 0 1
outer loop
vertex 30 3.6602540378443873 30
vertex 27.928932188134524 2.0710678118654755 30
vertex 35 -5 30
endloop
endfacet
facet normal -0.7933533402912347 0.6087614290087212 0
outer loop
vertex 26.33974596215561 -8.881784197001252e-16 30
vertex 27.928932188134524 2.0710678118654755 30
vertex 27.928932188134524 2.0710678118654755 10
endloop
endfacet
facet normal -0.7933533402912347 0.6087614290087212 0
outer loop
vertex 26.33974596215561 -8.881784197001252e-16 30
vertex 27.928932188134524 2.0710678118654755 10
vertex 26.33974596215561 -8.881784197001252e-16 10
endloop
endfacet
facet normal 0 0 1
outer loop
vertex 27.928932188134524 2.0710678118654755 30
vertex 26.33974596215561 -8.881784197001252e-16 30
vertex 35 -5 30
endloop
endfacet
facet normal -0.923879532511287 0.3826834323650896 0
outer loop
vertex 25.34074173710932 -2.41180954897479 30
vertex 26.33974596215561 -8.881784197001252e-16 30
vertex 26.33974596215561 -8.881784197001252e-16 10
endloop
endfacet
facet normal -0.923879532511287 0.3826834323650896 0
outer loop
vertex 25.34074173710932 -2.41180954897479 30
vertex 26.33974596215561 -8.881784197001252e-16 10
vertex 25.34074173710932 -2.41180954897479 10
endloop
endfacet
facet normal 0 0 1
outer loop
vertex 26.33974596215561 -8.881784197001252e-16 30
vertex 25.34074173710932 -2.41180954897479 30
vertex 35 -5 30
endloop
endfacet
facet normal -0.9914448613738103 0.13052619222005293 0
outer loop
vertex 25 -4.999999999999998 30
vertex 25.34074173710932 -2.41180954897479 30
vertex 25.34074173710932 -2.41180954897479 10
endloop
endfacet
facet normal -0.9914448613738103 0.13052619222005293 0
outer loop
vertex 25 -4.999999999999998 30
vertex 25.34074173710932 -2.41180954897479 10
vertex 25 -4.999999999999998 10
endloop
endfacet
facet normal 0 0 1
outer loop
vertex 25.34074173710932 -2.41180954897479 30
vertex 25 -4.999999999999998 30
vertex 35 -5 30
endloop
endfacet
facet normal -0.9914448613738105 -0.1305261922200511 0
outer loop
vertex 25.340741737109315 -7.588190451025204 30
vertex 25 -4.999999999999998 30
vertex 25 -4.999999999999998 10
endloop
endfacet
facet normal -0.9914448613738105 -0.1305261922200511 0
outer loop
vertex 25.340741737109315 -7.588190451025204 30
vertex 25 -4.999999999999998 10
vertex 25.340741737109315 -7.588190451025204 10
endloop
endfacet
facet normal 0 0 1
outer loop
vertex 25 -4.999999999999998 30
vertex 25.340741737109315 -7.588190451025204 30
vertex 35 -5 30
endloop
endfacet
facet normal -0.9238795325112868 -0.3826834323650897 0
outer loop
vertex 26.339745962155614 -10 30
vertex 25.340741737109315 -7.588190451025204 30
vertex 25.340741737109315 -7.588190451025204 10
endloop
endfacet
facet normal -0.9238795325112868 -0.3826834323650897 0
outer loop
vertex 26.339745962155614 -10 30
vertex 25.340741737109315 -7.588190451025204 10
vertex 26.339745962155614 -10 10
endloop
endfacet
facet normal 0 0 1
outer loop
vertex 25.340741737109315 -7.588190451025204 30
vertex 26.339745962155614 -10 30
vertex 35 -5 30
endloop
endfacet
facet normal -0.7933533402912352 -0.6087614290087208 0
outer loop
vertex 27.928932188134524 -12.071067811865476 30
vertex 26.339745962155614 -10 30
vertex 26.339745962155614 -10 10
endloop
endfacet
facet normal -0.7933533402912352 -0.6087614290087208 0
outer loop
vertex 27.928932188134524 -12.071067811865476 30
vertex 26.339745962155614 -10 10
vertex 27.928932188134524 -12.071067811865476 10
endloop
endfacet
facet normal 0 0 1
outer loop
vertex 26.339745962155614 -10 30
vertex 27.928932188134524 -12.071067811865476 30
vertex 35 -5 30
endloop
endfacet
facet normal -0.6087614290087201 -0.7933533402912356 0
outer loop
vertex 29.999999999999996 -13.660254037844382 30
vertex 27.928932188134524 -12.071067811865476 30
vertex 27.928932188134524 -12.071067811865476 10
endloop
endfacet
facet normal -0.6087614290087201 -0.7933533402912356 0
outer loop
vertex 29.999999999999996 -13.660254037844382 30
vertex 27.928932188134524 -12.071067811865476 10
vertex 29.999999999999996 -13.660254037844382 10
endloop
endfacet
facet normal 0 0 1
outer loop
vertex 27.928932188134524 -12.071067811865476 30
vertex 29.999999999999996 -13.660254037844382 30
vertex 35 -5 30
endloop
endfacet
facet normal -0.3826834323650899 -0.9238795325112867 0
outer loop
vertex 32.411809548974794 -14.659258262890681 30
vertex 29.999999999999996 -13.660254037844382 30
vertex 29.999999999999996 -13.660254037844382 10
endloop
endfacet
facet normal -0.3826834323650899 -0.9238795325112867 0
outer loop
vertex 32.411809548974794 -14.659258262890681 30
vertex 29.999999999999996 -13.660254037844382 10
vertex 32.411809548974794 -14.659258262890681 10
endloop
endfacet
facet normal 0 0 1
outer loop
vertex 29.999999999999996 -13.660254037844382 30
vertex 32.411809548974794 -14.659258262890681 30
vertex 35 -5 30
endloop
endfacet
facet normal -0.13052619222005282 -0.9914448613738103 0
outer loop
vertex 35 -15 30
vertex 32.411809548974794 -14.659258262890681 30
vertex 32.411809548974794 -14.659258262890681 10
endloop
endfacet
facet normal -0.13052619222005282 -0.9914448613738103 0
outer loop
vertex 35 -15 30
vertex 32.411809548974794 -14.659258262890681 10
vertex 35 -15 10
endloop
endfacet
facet normal 0 0 1
outer loop
vertex 32.411809548974794 -14.659258262890681 30
vertex 35 -15 30
vertex 35 -5 30
endloop
endfacet
facet normal 0.13052619222005107 -0.9914448613738105 0
outer loop
vertex 37.5881904510252 -14.659258262890685 30
vertex 35 -15 30
vertex 35 -15 10
endloop
endfacet
facet normal 0.13052619222005107 -0.9914448613738105 0
outer loop
vertex 37.5881904510252 -14.659258262890685 30
vertex 35 -15 10
vertex 37.5881904510252 -14.659258262890685 10
endloop
endfacet
facet normal 0 0 1
outer loop
vertex 35 -15 30
vertex 37.5881904510252 -14.659258262890685 30
vertex 35 -5 30
endloop
endfacet
facet normal 0.3826834323650899 -0.9238795325112867 0
outer loop
vertex 40 -13.660254037844386 30
vertex 37.5881904510252 -14.659258262890685 30
vertex 37.5881904510252 -14.659258262890685 10
endloop
endfacet
facet normal 0.3826834323650899 -0.9238795325112867 0
outer loop
vertex 40 -13.660254037844386 30
vertex 37.5881904510252 -14.659258262890685 10
vertex 40 -13.660254037844386 10
endloop
endfacet
facet normal 0 0 1
outer loop
vertex 37.5881904510252 -14.659258262890685 30
vertex 40 -13.660254037844386 30
vertex 35 -5 30
endloop
endfacet
facet normal 0.6087614290087193 -0.7933533402912364 0
outer loop
vertex 42.071067811865476 -12.071067811865476 30
vertex 40 -13.660254037844386 30
vertex 40 -13.660254037844386 10
endloop
endfacet
facet normal 0.6087614290087193 -0.7933533402912364 0
outer loop
vertex 42.071067811865476 -12.071067811865476 30
vertex 40 -13.660254037844386 10
vertex 42.071067811865476 -12.071067811865476 10
endloop
endfacet
facet normal 0 0 1
outer loop
vertex 40 -13.660254037844386 30
vertex 42.071067811865476 -12.071067811865476 30
vertex 35 -5 30
endloop
endfacet
facet normal 0.7933533402912359 -0.6087614290087197 0
outer loop
vertex 43.66025403784438 -10.000000000000004 30
vertex 42.071067811865476 -12.071067811865476 30
vertex 42.071067811865476 -12.071067811865476 10
endloop
endfacet
facet normal 0.7933533402912359 -0.6087614290087197 0
outer loop
vertex 43.66025403784438 -10.000000000000004 30
vertex 42.071067811865476 -12.071067811865476 10
vertex 43.66025403784438 -10.000000000000004 10
endloop
endfacet
facet normal 0 0 1
outer loop
vertex 42.071067811865476 -12.071067811865476 30
vertex 43.66025403784438 -10.000000000000004 30
vertex 35 -5 30
endloop
endfacet
facet normal 0.9238795325112861 -0.3826834323650912 0
outer loop
vertex 44.65925826289068 -7.588190451025207 30
vertex 43.66025403784438 -10.000000000000004 30
vertex 43.66025403784438 -10.000000000000004 10
endloop
endfacet
facet normal 0.9238795325112861 -0.3826834323650912 0
outer loop
vertex 44.65925826289068 -7.588190451025207 30
vertex 43.66025403784438 -10.000000000000004 10
vertex 44.65925826289068 -7.588190451025207 10
endloop
endfacet
facet normal 0 0 1
outer loop
vertex 43.66025403784438 -10.000000000000004 30
vertex 44.65925826289068 -7.588190451025207 30
vertex 35 -5 30
endloop
endfacet
facet normal 0.9914448613738103 -0.13052619222005293 0
outer loop
vertex 45 -5.000000000000002 30
vertex 44.65925826289068 -7.588190451025207 30
vertex 44.65925826289068 -7.588190451025207 10
endloop
endfacet
facet normal 0.9914448613738103 -0.13052619222005293 0
outer loop
vertex 45 -5.000000000000002 30
vertex 44.65925826289068 -7.588190451025207 10
vertex 45 -5.000000000000002 10
endloop
endfacet
facet normal 0 0 1
outer loop
vertex 44.65925826289068 -7.588190451025207 30
vertex 45 -5.000000000000002 30
vertex 35 -5 30
endloop
endfacet
facet normal -1 0 0
outer loop
vertex 45 -25 10
vertex 45 -25 20
vertex 45 15 20
endloop
endfacet
facet normal -1 0 0
outer loop
vertex 45 -25 10
vertex 45 15 20
vertex 45 15 10
endloop
endfacet
facet normal 1 0 0
outer loop
vertex 85 15 20
vertex 85 -25 20
vertex 85 -25 10
endloop
endfacet
facet normal 1 0 0
outer loop
vertex 85 15 20
vertex 85 -25 10
vertex 85 15 10
endloop
endfacet
facet normal 0 1 0
outer loop
vertex 45 15 20
vertex 85 15 20
vertex 85 15 10
endloop
endfacet
facet normal 0 1 0
outer loop
vertex 45 15 20
vertex 85 15 10
vertex 45 15 10
endloop
endfacet
facet normal 0 -1 0
outer loop
vertex 85 -25 10
vertex 85 -25 20
vertex 45 -25 20
endloop
endfacet
facet normal 0 -1 0
outer loop
vertex 85 -25 10
vertex 45 -25 20
vertex 45 -25 10
endloop
endfacet
facet normal 0 0 1
outer loop
vertex 45 -25 20
vertex 60 -25 20
vertex 60 15 20
endloop
endfacet
facet normal 0 0 1
outer loop
vertex 45 -25 20
vertex 60 15 20
vertex 45 15 20
endloop
endfacet
facet normal 0 0 1
outer loop
vertex 70 -25 20
vertex 85 -25 20
vertex 85 15 20
endloop
endfacet
facet normal 0 0 1
outer loop
vertex 70 -25 20
vertex 85 15 20
vertex 70 15 20
endloop
endfacet
facet normal 0 0 1
outer loop
vertex 70 0 20
vertex 70 15 20
vertex 60 15 20
endloop
endfacet
facet normal 0 0 1
outer loop
vertex 70 0 20
vertex 60 15 20
vertex 60 0 20
endloop
endfacet
facet normal 0 0 1
outer loop
vertex 60 -25 20
vertex 70 -25 20
vertex 70 -10 20
endloop
endfacet
facet normal 0 0 1
outer loop
vertex 60 -25 20
vertex 70 -10 20
vertex 60 -10 20
endloop
endfacet
facet normal -1 0 0
outer loop
vertex 15 -30 0
vertex 15 -30 10
vertex 15 20 10
endloop
endfacet
facet normal -1 0 0
outer loop
vertex 15 -30 0
vertex 15 20 10
vertex 15 20 0
endloop
endfacet
facet normal 1 0 0
outer loop
vertex 115 20 10
vertex 115 -30 10
vertex 115 -30 0
endloop
endfacet
facet normal 1 0 0
outer loop
vertex 115 20 10
vertex 115 -30 0
vertex 115 20 0
endloop
endfacet
facet normal 0 1 0
outer loop
vertex 15 20 10
vertex 115 20 10
vertex 115 20 0
endloop
endfacet
facet normal 0 1 0
outer loop
vertex 15 20 10
vertex 115 20 0
vertex 15 20 0
endloop
endfacet
facet normal 0 -1 0
outer loop
vertex 115 -30 0
vertex 115 -30 10
vertex 15 -30 10
endloop
endfacet
facet normal 0 -1 0
outer loop
vertex 115 -30 0
vertex 15 -30 10
vertex 15 -30 0
endloop
endfacet
facet normal 0 0 -1
outer loop
vertex 115 20 0
vertex 115 -30 0
vertex 15 -30 0
endloop
endfacet
facet normal 0 0 -1
outer loop
vertex 115 20 0
vertex 15 -30 0
vertex 15 20 0
endloop
endfacet
facet normal 0 0 1
outer loop
vertex 45 20 10
vertex 41.708687560315084 20 10
vertex 45 -4.999999999999918 10
endloop
endfacet
facet normal 0 0 1
outer loop
vertex 85 -30 10
vertex 115 -30 10
vertex 115 20 10
endloop
endfacet
facet normal 0 0 1
outer loop
vertex 85 -30 10
vertex 115 20 10
vertex 85 20 10
endloop
endfacet
facet normal 0 0 1
outer loop
vertex 85 15 10
vertex 85 20 10
vertex 45 20 10
endloop
endfacet
facet normal 0 0 1
outer loop
vertex 85 15 10
vertex 45 20 10
vertex 45 15 10
endloop
endfacet
facet normal 0 0 1
outer loop
vertex 48.29131243968494 -30 10
vertex 85 -30 10
vertex 85 -25 10
endloop
endfacet
facet normal 0 0 1
outer loop
vertex 48.29131243968494 -30 10
vertex 85 -25 10
vertex 47.63304995174795 -25 10
endloop
endfacet
facet normal 0 0 1
outer loop
vertex 44.659258262890695 -2.411809548974837 10
vertex 41.708687560315084 20 10
vertex 35.37598279038252 20 10
endloop
endfacet
facet normal 0 0 1
outer loop
vertex 43.66025403784435 6.750155989720952e-14 10
vertex 35.37598279038252 20 10
vertex 28.31371427826514 20 10
endloop
endfacet
facet normal 0 0 1
outer loop
vertex 42.07106781186551 2.0710678118654497 10
vertex 28.31371427826514 20 10
vertex 18.705628476339164 20 10
endloop
endfacet
facet normal 0 0 1
outer loop
vertex 40 3.660254037844391 10
vertex 18.705628476339164 20 10
vertex 15 20 10
endloop
endfacet
facet normal 0 0 1
outer loop
vertex 40 3.660254037844391 10
vertex 15 20 10
vertex 15 14.015593097171768 10
endloop
endfacet
facet normal 0 0 1
outer loop
vertex 37.58819045102522 4.659258262890681 10
vertex 15 14.015593097171768 10
vertex 15 7.633049951747916 10
endloop
endfacet
facet normal 0 0 1
outer loop
vertex 35 5 10
vertex 15 7.633049951747916 10
vertex 15 2.366950048252084 10
endloop
endfacet
facet normal 0 0 1
outer loop
vertex 32.41180954897481 4.659258262890685 10
vertex 15 2.366950048252084 10
vertex 15 -2.5529493977520357 10
endloop
endfacet
facet normal 0 0 1
outer loop
vertex 29.99999999999999 3.6602540378443784 10
vertex 15 -2.5529493977520357 10
vertex 15 -7.84965078184002 10
endloop
endfacet
facet normal 0 0 1
outer loop
vertex 27.928932188134524 2.0710678118654755 10
vertex 15 -7.84965078184002 10
vertex 15 -14.778244659454783 10
endloop
endfacet
facet normal 0 0 1
outer loop
vertex 26.339745962155604 -7.105427357601002e-15 10
vertex 15 -14.778244659454783 10
vertex 15 -27.376568495701633 10
endloop
endfacet
facet normal 0 0 1
outer loop
vertex 15 -30 10
vertex 21.708687560315063 -30 10
vertex 25.340741737109315 -2.4118095489747824 10
endloop
endfacet
facet normal 0 0 1
outer loop
vertex 15 -30 10
vertex 25.340741737109315 -2.4118095489747824 10
vertex 15 -27.376568495701633 10
endloop
endfacet
facet normal 0 0 1
outer loop
vertex 21.708687560315063 -30 10
vertex 28.29131243968488 -30 10
vertex 24.999999999999996 -4.999999999999987 10
endloop
endfacet
facet normal 0 0 1
outer loop
vertex 28.29131243968488 -30 10
vertex 34.624017209617506 -30 10
vertex 25.34074173710932 -7.588190451025236 10
endloop
endfacet
facet normal 0 0 1
outer loop
vertex 34.624017209617506 -30 10
vertex 41.68628572173484 -30 10
vertex 26.339745962155575 -9.99999999999993 10
endloop
endfacet
facet normal 0 0 1
outer loop
vertex 41.68628572173484 -30 10
vertex 48.29131243968494 -30 10
vertex 47.95385137588018 -27.436728736720415 10
endloop
endfacet
facet normal 0 0 1
outer loop
vertex 41.68628572173484 -30 10
vertex 47.95385137588018 -27.436728736720415 10
vertex 27.928932188134567 -12.07106781186551 10
endloop
endfacet
facet normal 0 0 1
outer loop
vertex 45 -19.87345747344081 10
vertex 29.999999999999986 -13.660254037844375 10
vertex 45 -25.170158857528776 10
endloop
endfacet
facet normal 0 0 1
outer loop
vertex 47.95385137588018 -27.436728736720415 10
vertex 47.63304995174795 -25 10
vertex 45 -25 10
endloop
endfacet
facet normal 0 0 1
outer loop
vertex 47.95385137588018 -27.436728736720415 10
vertex 45 -25 10
vertex 45 -25.170158857528776 10
endloop
endfacet
facet normal 0 0 1
outer loop
vertex 45 -16.316524975873982 10
vertex 32.411809548974816 -14.659258262890688 10
vertex 45 -19.87345747344081 10
endloop
endfacet
facet normal 0 0 1
outer loop
vertex 45 -13.683475024126054 10
vertex 34.99999999999998 -15.000000000000004 10
vertex 45 -16.316524975873982 10
endloop
endfacet
facet normal 0 0 1
outer loop
vertex 45 -11.589186225978908 10
vertex 37.58819045102519 -14.659258262890688 10
vertex 45 -13.683475024126054 10
endloop
endfacet
facet normal 0 0 1
outer loop
vertex 45 -9.823619097949596 10
vertex 39.99999999999999 -13.660254037844387 10
vertex 45 -11.589186225978908 10
endloop
endfacet
facet normal 0 0 1
outer loop
vertex 45 -8.254009068957227 10
vertex 42.07106781186544 -12.071067811865504 10
vertex 45 -9.823619097949596 10
endloop
endfacet
facet normal 0 0 1
outer loop
vertex 45 -6.7655671280293115 10
vertex 43.660254037844396 -9.999999999999972 10
vertex 45 -8.254009068957227 10
endloop
endfacet
facet normal 0 0 1
outer loop
vertex 45 -4.999999999999941 10
vertex 44.65925826289067 -7.588190451025239 10
vertex 45 -6.765567128029313 10
endloop
endfacet
endsolid csg.js
