solid craftml
facet normal -1 0 0
outer loop
vertex 24.499999999999996 -35.5 68.11238553914872
vertex 24.499999999999996 -35.5 71.11238553914872
vertex 24.499999999999996 -24.499999999999996 71.11238553914872
endloop
endfacet
facet normal -1 0 0
outer loop
vertex 24.499999999999996 -35.5 68.11238553914872
vertex 24.499999999999996 -24.499999999999996 71.11238553914872
vertex 24.499999999999996 -24.499999999999996 68.11238553914872
endloop
endfacet
facet normal 1 0 0
outer loop
vertex 35.5 -24.499999999999996 71.11238553914872
vertex 35.5 -35.5 71.11238553914872
vertex 35.5 -35.5 68.11238553914872
endloop
endfacet
facet normal 1 0 0
outer loop
vertex 35.5 -24.499999999999996 71.11238553914872
vertex 35.5 -35.5 68.11238553914872
vertex 35.5 -24.499999999999996 68.11238553914872
endloop
endfacet
facet normal 0 1 0
outer loop
vertex 24.499999999999996 -24.499999999999996 71.11238553914872
vertex 35.5 -24.499999999999996 71.11238553914872
vertex 35.5 -24.499999999999996 68.11238553914872
endloop
endfacet
facet normal 0 1 0
outer loop
vertex 24.499999999999996 -24.499999999999996 71.11238553914872
vertex 35.5 -24.499999999999996 68.11238553914872
vertex 24.499999999999996 -24.499999999999996 68.11238553914872
endloop
endfacet
facet normal 0 -1 0
outer loop
vertex 35.5 -35.5 68.11238553914872
vertex 35.5 -35.5 71.11238553914872
vertex 24.499999999999996 -35.5 71.11238553914872
endloop
endfacet
facet normal 0 -1 0
outer loop
vertex 35.5 -35.5 68.11238553914872
vertex 24.499999999999996 -35.5 71.11238553914872
vertex 24.499999999999996 -35.5 68.11238553914872
endloop
endfacet
facet normal 0 0 -1
outer loop
vertex 24.999999999999996 -35.5 68.11238553914872
vertex 24.499999999999996 -35.5 68.11238553914872
vertex 24.499999999999996 -24.499999999999996 68.11238553914872
endloop
endfacet
facet normal 0 0 -1
outer loop
vertex 24.999999999999996 -35.5 68.11238553914872
vertex 24.499999999999996 -24.499999999999996 68.11238553914872
vertex 24.999999999999996 -24.499999999999996 68.11238553914872
endloop
endfacet
facet normal 0 0 -1
outer loop
vertex 35.5 -24.499999999999996 68.11238553914872
vertex 35.5 -35.5 68.11238553914872
vertex 35 -35.5 68.11238553914872
endloop
endfacet
facet normal 0 0 -1
outer loop
vertex 35.5 -24.499999999999996 68.11238553914872
vertex 35 -35.5 68.11238553914872
vertex 35 -24.499999999999996 68.11238553914872
endloop
endfacet
facet normal 0 0 -1
outer loop
vertex 24.999999999999996 -24.999999999999996 68.11238553914872
vertex 24.999999999999996 -24.499999999999996 68.11238553914872
vertex 35 -24.499999999999996 68.11238553914872
endloop
endfacet
facet normal 0 0 -1
outer loop
vertex 24.999999999999996 -24.999999999999996 68.11238553914872
vertex 35 -24.499999999999996 68.11238553914872
vertex 35 -24.999999999999996 68.11238553914872
endloop
endfacet
facet normal 0 0 -1
outer loop
vertex 35 -35.5 68.11238553914872
vertex 24.999999999999996 -35.5 68.11238553914872
vertex 24.999999999999996 -35 68.11238553914872
endloop
endfacet
facet normal 0 0 -1
outer loop
vertex 35 -35.5 68.11238553914872
vertex 24.999999999999996 -35 68.11238553914872
vertex 35 -35 68.11238553914872
endloop
endfacet
facet normal 0 0 1
outer loop
vertex 24.499999999999996 -35.5 71.11238553914872
vertex 35.5 -35.5 71.11238553914872
vertex 35.5 -24.499999999999996 71.11238553914872
endloop
endfacet
facet normal 0 0 1
outer loop
vertex 24.499999999999996 -35.5 71.11238553914872
vertex 35.5 -24.499999999999996 71.11238553914872
vertex 24.499999999999996 -24.499999999999996 71.11238553914872
endloop
endfacet
facet normal -1 0 0
outer loop
vertex 24.999999999999996 -35 59.058630718707526
vertex 24.999999999999996 -35 68.11238553914872
vertex 24.999999999999996 -24.999999999999996 68.11238553914872
endloop
endfacet
facet normal -1 0 0
outer loop
vertex 24.999999999999996 -35 59.058630718707526
vertex 24.999999999999996 -24.999999999999996 68.11238553914872
vertex 24.999999999999996 -24.999999999999996 59.05863071870753
endloop
endfacet
facet normal 1 0 0
outer loop
vertex 35 -24.999999999999996 68.11238553914872
vertex 35 -35 68.11238553914872
vertex 35 -35 50.054590275729254
endloop
endfacet
facet normal 1 0 0
outer loop
vertex 35 -24.999999999999996 68.11238553914872
vertex 35 -35 50.054590275729254
vertex 35 -24.999999999999996 50.05459027572926
endloop
endfacet
facet normal 0 1 0
outer loop
vertex 24.999999999999996 -24.999999999999996 68.11238553914872
vertex 35 -24.999999999999996 68.11238553914872
vertex 35 -24.999999999999996 50.054590275729254
endloop
endfacet
facet normal 0 1 0
outer loop
vertex 24.999999999999996 -24.999999999999996 68.11238553914872
vertex 35 -24.999999999999996 50.054590275729254
vertex 24.999999999999996 -24.999999999999996 59.058630718707526
endloop
endfacet
facet normal 0 -1 0
outer loop
vertex 35 -35 50.05459027572926
vertex 35 -35 68.11238553914872
vertex 24.999999999999996 -35 68.11238553914872
endloop
endfacet
facet normal 0 -1 0
outer loop
vertex 35 -35 50.05459027572926
vertex 24.999999999999996 -35 68.11238553914872
vertex 24.999999999999996 -35 59.05863071870753
endloop
endfacet
facet normal -0.7431448254773937 0 -0.6691306063588588
outer loop
vertex -19.582822203622747 -73.3 37
vertex -21.59021402269932 -73.3 39.22943447643218
vertex -21.59021402269932 -8.299999999999997 39.22943447643218
endloop
endfacet
facet normal -0.7431448254773937 0 -0.6691306063588588
outer loop
vertex -19.582822203622747 -73.3 37
vertex -21.59021402269932 -8.299999999999997 39.22943447643218
vertex -19.582822203622747 -8.299999999999997 37
endloop
endfacet
facet normal 0.7431448254773987 0 0.6691306063588534
outer loop
vertex 12.70877792241118 -8.299999999999997 70.11238553914872
vertex 12.70877792241118 -73.3 70.11238553914872
vertex 12.716169741487748 -73.3 70.10417609237493
endloop
endfacet
facet normal 0.7431448254773987 0 0.6691306063588534
outer loop
vertex 12.70877792241118 -8.299999999999997 70.11238553914872
vertex 12.716169741487748 -73.3 70.10417609237493
vertex 12.716169741487752 -8.299999999999997 70.10417609237493
endloop
endfacet
facet normal 0 1 0
outer loop
vertex -21.59021402269932 -8.299999999999997 39.22943447643218
vertex 12.70877792241118 -8.299999999999997 70.11238553914872
vertex 14.716169741487754 -8.299999999999997 67.88295106271653
endloop
endfacet
facet normal 0 1 0
outer loop
vertex -21.59021402269932 -8.299999999999997 39.22943447643218
vertex 14.716169741487754 -8.299999999999997 67.88295106271653
vertex -19.582822203622747 -8.299999999999997 37
endloop
endfacet
facet normal 0 -1 0
outer loop
vertex 14.716169741487754 -73.3 67.88295106271653
vertex 12.70877792241118 -73.3 70.11238553914872
vertex -21.59021402269932 -73.3 39.22943447643218
endloop
endfacet
facet normal 0 -1 0
outer loop
vertex 14.716169741487754 -73.3 67.88295106271653
vertex -21.59021402269932 -73.3 39.22943447643218
vertex -19.582822203622747 -73.3 37
endloop
endfacet
facet normal 0.6691306063588568 0 -0.7431448254773955
outer loop
vertex -6.417374725522745 -73.3 48.85422215427204
vertex -19.582822203622747 -73.3 37
vertex -19.582822203622747 -70.8 37
endloop
endfacet
facet normal 0.6691306063588568 0 -0.7431448254773955
outer loop
vertex -6.417374725522745 -73.3 48.85422215427204
vertex -19.582822203622747 -70.8 37
vertex -6.417374725522745 -70.8 48.85422215427204
endloop
endfacet
facet normal 0.6691306063588568 0 -0.7431448254773955
outer loop
vertex -19.582822203622747 -10.799999999999997 37
vertex -19.582822203622747 -8.299999999999997 37
vertex -6.4173747255227465 -8.299999999999997 48.85422215427204
endloop
endfacet
facet normal 0.6691306063588568 0 -0.7431448254773955
outer loop
vertex -19.582822203622747 -10.799999999999997 37
vertex -6.4173747255227465 -8.299999999999997 48.85422215427204
vertex -6.4173747255227465 -10.799999999999997 48.85422215427204
endloop
endfacet
facet normal 0.6691306063588568 0 -0.7431448254773955
outer loop
vertex -19.582822203622747 -70.8 37
vertex -19.582822203622747 -10.799999999999997 37
vertex -17.283830258512246 -10.799999999999997 39.070021645185655
endloop
endfacet
facet normal 0.6691306063588568 0 -0.7431448254773955
outer loop
vertex -19.582822203622747 -70.8 37
vertex -17.283830258512246 -10.799999999999997 39.070021645185655
vertex -17.283830258512246 -70.8 39.070021645185655
endloop
endfacet
facet normal 0.6691306063588568 0 -0.7431448254773955
outer loop
vertex 12.716169741487747 -73.3 66.08214297412084
vertex -6.417374725522745 -73.3 48.85422215427204
vertex -6.417374725522745 -70.8 48.85422215427204
endloop
endfacet
facet normal 0.6691306063588568 0 -0.7431448254773955
outer loop
vertex 12.716169741487747 -73.3 66.08214297412084
vertex -6.417374725522745 -70.8 48.85422215427204
vertex 12.716169741487747 -70.8 66.08214297412084
endloop
endfacet
facet normal 0.6691306063588568 0 -0.7431448254773955
outer loop
vertex -6.4173747255227465 -10.799999999999997 48.85422215427204
vertex -6.4173747255227465 -8.299999999999997 48.85422215427204
vertex 12.716169741487748 -8.299999999999997 66.08214297412084
endloop
endfacet
facet normal 0.6691306063588568 0 -0.7431448254773955
outer loop
vertex -6.4173747255227465 -10.799999999999997 48.85422215427204
vertex 12.716169741487748 -8.299999999999997 66.08214297412084
vertex 12.716169741487748 -10.799999999999997 66.08214297412084
endloop
endfacet
facet normal -0.6691306063588568 0 0.7431448254773955
outer loop
vertex -21.59021402269932 -73.3 39.22943447643218
vertex 12.70877792241118 -73.3 70.11238553914872
vertex 12.70877792241118 -8.299999999999997 70.11238553914872
endloop
endfacet
facet normal -0.6691306063588568 0 0.7431448254773955
outer loop
vertex -21.59021402269932 -73.3 39.22943447643218
vertex 12.70877792241118 -8.299999999999997 70.11238553914872
vertex -21.59021402269932 -8.299999999999997 39.22943447643218
endloop
endfacet
facet normal -0.7431448254773968 0 0.6691306063588552
outer loop
vertex 12.71616974148777 -73.3 70.10417609237494
vertex 12.723561560564331 -73.3 70.11238553914872
vertex 12.723561560564331 -8.299999999999997 70.11238553914872
endloop
endfacet
facet normal -0.7431448254773968 0 0.6691306063588552
outer loop
vertex 12.71616974148777 -73.3 70.10417609237494
vertex 12.723561560564331 -8.299999999999997 70.11238553914872
vertex 12.716169741487766 -8.299999999999997 70.10417609237493
endloop
endfacet
facet normal 0.7431448254773958 0 -0.6691306063588565
outer loop
vertex 47.022553505674836 -8.299999999999997 39.229434476432175
vertex 47.022553505674836 -73.3 39.229434476432175
vertex 45.01516168659826 -73.3 37
endloop
endfacet
facet normal 0.7431448254773958 0 -0.6691306063588565
outer loop
vertex 47.022553505674836 -8.299999999999997 39.229434476432175
vertex 45.01516168659826 -73.3 37
vertex 45.01516168659826 -8.299999999999997 37
endloop
endfacet
facet normal 0 1 0
outer loop
vertex 12.723561560564331 -8.299999999999997 70.11238553914872
vertex 24.499999999999996 -8.299999999999997 59.5088327408563
vertex 24.499999999999996 -8.299999999999997 57.01690673464816
endloop
endfacet
facet normal 0 1 0
outer loop
vertex 12.723561560564331 -8.299999999999997 70.11238553914872
vertex 24.499999999999996 -8.299999999999997 57.01690673464816
vertex 12.71616974148777 -8.299999999999997 70.10417609237494
endloop
endfacet
facet normal 0 1 0
outer loop
vertex 14.71616974148782 -8.299999999999997 67.88295106271647
vertex 24.499999999999996 -8.299999999999997 57.01690673464816
vertex 24.499999999999996 -8.299999999999997 55.47193455203717
endloop
endfacet
facet normal 0 1 0
outer loop
vertex 14.71616974148782 -8.299999999999997 67.88295106271647
vertex 24.499999999999996 -8.299999999999997 55.47193455203717
vertex 12.716169741487818 -8.299999999999997 66.0821429741208
endloop
endfacet
facet normal 0 1 0
outer loop
vertex 24.499999999999996 -8.299999999999997 59.5088327408563
vertex 47.022553505674836 -8.299999999999997 39.229434476432175
vertex 45.01516168659826 -8.299999999999997 37
endloop
endfacet
facet normal 0 1 0
outer loop
vertex 24.499999999999996 -8.299999999999997 59.5088327408563
vertex 45.01516168659826 -8.299999999999997 37
vertex 24.499999999999996 -8.299999999999997 55.47193455203717
endloop
endfacet
facet normal 0 -1 0
outer loop
vertex 24.499999999999996 -73.3 59.5088327408563
vertex 12.723561560564331 -73.3 70.11238553914872
vertex 12.716169741487766 -73.3 70.10417609237493
endloop
endfacet
facet normal 0 -1 0
outer loop
vertex 24.499999999999996 -73.3 59.5088327408563
vertex 12.716169741487766 -73.3 70.10417609237493
vertex 24.499999999999996 -73.3 57.01690673464816
endloop
endfacet
facet normal 0 -1 0
outer loop
vertex 14.716169741487814 -73.3 67.88295106271646
vertex 12.716169741487816 -73.3 66.0821429741208
vertex 24.499999999999996 -73.3 55.47193455203717
endloop
endfacet
facet normal 0 -1 0
outer loop
vertex 14.716169741487814 -73.3 67.88295106271646
vertex 24.499999999999996 -73.3 55.47193455203717
vertex 24.499999999999996 -73.3 57.01690673464816
endloop
endfacet
facet normal 0 -1 0
outer loop
vertex 45.01516168659826 -73.3 37
vertex 47.022553505674836 -73.3 39.229434476432175
vertex 24.499999999999996 -73.3 59.5088327408563
endloop
endfacet
facet normal 0 -1 0
outer loop
vertex 45.01516168659826 -73.3 37
vertex 24.499999999999996 -73.3 59.5088327408563
vertex 24.499999999999996 -73.3 55.47193455203717
endloop
endfacet
facet normal -0.6691306063588608 0 -0.7431448254773919
outer loop
vertex 24.499999999999996 -73.3 55.47193455203717
vertex 12.716169741487816 -73.3 66.0821429741208
vertex 12.716169741487816 -70.8 66.0821429741208
endloop
endfacet
facet normal -0.6691306063588608 0 -0.7431448254773919
outer loop
vertex 24.499999999999996 -73.3 55.47193455203717
vertex 12.716169741487816 -70.8 66.0821429741208
vertex 24.499999999999996 -70.8 55.47193455203717
endloop
endfacet
facet normal -0.6691306063588608 0 -0.7431448254773919
outer loop
vertex 12.716169741487818 -10.799999999999997 66.0821429741208
vertex 12.716169741487818 -8.299999999999997 66.0821429741208
vertex 24.499999999999996 -8.299999999999997 55.47193455203717
endloop
endfacet
facet normal -0.6691306063588608 0 -0.7431448254773919
outer loop
vertex 12.716169741487818 -10.799999999999997 66.0821429741208
vertex 24.499999999999996 -8.299999999999997 55.47193455203717
vertex 24.499999999999996 -10.799999999999997 55.47193455203717
endloop
endfacet
facet normal -0.6691306063588608 0 -0.7431448254773919
outer loop
vertex 45.01516168659826 -70.8 37
vertex 45.01516168659826 -73.3 37
vertex 35.5 -73.3 45.56749006476093
endloop
endfacet
facet normal -0.6691306063588608 0 -0.7431448254773919
outer loop
vertex 45.01516168659826 -70.8 37
vertex 35.5 -73.3 45.56749006476093
vertex 35.5 -70.8 45.56749006476093
endloop
endfacet
facet normal -0.6691306063588608 0 -0.7431448254773919
outer loop
vertex 45.01516168659826 -8.299999999999997 37
vertex 45.01516168659826 -10.799999999999997 37
vertex 35.5 -10.799999999999997 45.56749006476093
endloop
endfacet
facet normal -0.6691306063588608 0 -0.7431448254773919
outer loop
vertex 45.01516168659826 -8.299999999999997 37
vertex 35.5 -10.799999999999997 45.56749006476093
vertex 35.5 -8.299999999999997 45.56749006476093
endloop
endfacet
facet normal -0.6691306063588608 0 -0.7431448254773919
outer loop
vertex 45.01516168659826 -10.799999999999997 37
vertex 45.01516168659826 -70.8 37
vertex 42.716169741487754 -70.8 39.07002164518566
endloop
endfacet
facet normal -0.6691306063588608 0 -0.7431448254773919
outer loop
vertex 45.01516168659826 -10.799999999999997 37
vertex 42.716169741487754 -70.8 39.07002164518566
vertex 42.716169741487754 -10.799999999999997 39.07002164518566
endloop
endfacet
facet normal -0.6691306063588608 0 -0.7431448254773919
outer loop
vertex 24.499999999999996 -10.799999999999997 55.47193455203717
vertex 24.499999999999996 -8.299999999999997 55.47193455203717
vertex 24.999999999999996 -8.299999999999997 55.02173252988825
endloop
endfacet
facet normal -0.6691306063588608 0 -0.7431448254773919
outer loop
vertex 24.499999999999996 -10.799999999999997 55.47193455203717
vertex 24.999999999999996 -8.299999999999997 55.02173252988825
vertex 24.999999999999996 -10.799999999999997 55.02173252988825
endloop
endfacet
facet normal -0.6691306063588608 0 -0.7431448254773919
outer loop
vertex 35 -8.299999999999997 46.017692086909854
vertex 35.5 -8.299999999999997 45.56749006476093
vertex 35.5 -10.799999999999997 45.56749006476093
endloop
endfacet
facet normal -0.6691306063588608 0 -0.7431448254773919
outer loop
vertex 35 -8.299999999999997 46.017692086909854
vertex 35.5 -10.799999999999997 45.56749006476093
vertex 35 -10.799999999999997 46.017692086909854
endloop
endfacet
facet normal -0.6691306063588608 0 -0.7431448254773919
outer loop
vertex 31.8497142084978 -8.299999999999997 48.85422215427245
vertex 35 -8.299999999999997 46.017692086909854
vertex 35 -10.799999999999997 46.017692086909854
endloop
endfacet
facet normal -0.6691306063588608 0 -0.7431448254773919
outer loop
vertex 31.8497142084978 -8.299999999999997 48.85422215427245
vertex 35 -10.799999999999997 46.017692086909854
vertex 31.849714208497794 -10.799999999999997 48.854222154272456
endloop
endfacet
facet normal -0.6691306063588608 0 -0.7431448254773919
outer loop
vertex 24.999999999999996 -8.299999999999997 55.02173252988825
vertex 31.8497142084978 -8.299999999999997 48.85422215427245
vertex 31.849714208497794 -10.799999999999997 48.854222154272456
endloop
endfacet
facet normal -0.6691306063588608 0 -0.7431448254773919
outer loop
vertex 24.999999999999996 -8.299999999999997 55.02173252988825
vertex 31.849714208497794 -10.799999999999997 48.854222154272456
vertex 24.999999999999996 -10.799999999999997 55.02173252988825
endloop
endfacet
facet normal -0.6691306063588608 0 -0.7431448254773919
outer loop
vertex 24.999999999999996 -73.3 55.02173252988825
vertex 24.499999999999996 -73.3 55.47193455203717
vertex 24.499999999999996 -70.8 55.47193455203717
endloop
endfacet
facet normal -0.6691306063588608 0 -0.7431448254773919
outer loop
vertex 24.999999999999996 -73.3 55.02173252988825
vertex 24.499999999999996 -70.8 55.47193455203717
vertex 24.999999999999996 -70.8 55.02173252988825
endloop
endfacet
facet normal -0.6691306063588608 0 -0.7431448254773919
outer loop
vertex 35.5 -73.3 45.56749006476093
vertex 35 -73.3 46.017692086909854
vertex 35 -70.8 46.017692086909854
endloop
endfacet
facet normal -0.6691306063588608 0 -0.7431448254773919
outer loop
vertex 35.5 -73.3 45.56749006476093
vertex 35 -70.8 46.017692086909854
vertex 35.5 -70.8 45.56749006476093
endloop
endfacet
facet normal -0.6691306063588608 0 -0.7431448254773919
outer loop
vertex 35 -73.3 46.017692086909854
vertex 31.84971420849775 -73.3 48.8542221542725
vertex 31.849714208497755 -70.8 48.8542221542725
endloop
endfacet
facet normal -0.6691306063588608 0 -0.7431448254773919
outer loop
vertex 35 -73.3 46.017692086909854
vertex 31.849714208497755 -70.8 48.8542221542725
vertex 35 -70.8 46.017692086909854
endloop
endfacet
facet normal -0.6691306063588608 0 -0.7431448254773919
outer loop
vertex 31.84971420849775 -73.3 48.8542221542725
vertex 24.999999999999996 -73.3 55.02173252988825
vertex 24.999999999999996 -70.8 55.02173252988825
endloop
endfacet
facet normal -0.6691306063588608 0 -0.7431448254773919
outer loop
vertex 31.84971420849775 -73.3 48.8542221542725
vertex 24.999999999999996 -70.8 55.02173252988825
vertex 31.849714208497755 -70.8 48.8542221542725
endloop
endfacet
facet normal 0.6691306063588529 0 0.743144825477399
outer loop
vertex 12.723561560564331 -73.3 70.11238553914872
vertex 24.499999999999996 -73.3 59.5088327408563
vertex 24.499999999999996 -8.299999999999997 59.5088327408563
endloop
endfacet
facet normal 0.6691306063588529 0 0.743144825477399
outer loop
vertex 12.723561560564331 -73.3 70.11238553914872
vertex 24.499999999999996 -8.299999999999997 59.5088327408563
vertex 12.723561560564331 -8.299999999999997 70.11238553914872
endloop
endfacet
facet normal 0.6691306063588529 0 0.743144825477399
outer loop
vertex 35.5 -73.3 49.604388253580055
vertex 47.022553505674836 -73.3 39.229434476432175
vertex 47.022553505674836 -8.299999999999997 39.229434476432175
endloop
endfacet
facet normal 0.6691306063588529 0 0.743144825477399
outer loop
vertex 35.5 -73.3 49.604388253580055
vertex 47.022553505674836 -8.299999999999997 39.229434476432175
vertex 35.5 -8.299999999999997 49.604388253580055
endloop
endfacet
facet normal 0.6691306063588529 0 0.743144825477399
outer loop
vertex 35.5 -24.5 49.604388253580055
vertex 35.5 -8.299999999999997 49.604388253580055
vertex 24.499999999999996 -8.299999999999997 59.5088327408563
endloop
endfacet
facet normal 0.6691306063588529 0 0.743144825477399
outer loop
vertex 35.5 -24.5 49.604388253580055
vertex 24.499999999999996 -8.299999999999997 59.5088327408563
vertex 24.499999999999996 -24.499999999999996 59.5088327408563
endloop
endfacet
facet normal 0.6691306063588529 0 0.743144825477399
outer loop
vertex 24.499999999999996 -73.3 59.5088327408563
vertex 35.5 -73.3 49.604388253580055
vertex 35.5 -35.5 49.604388253580055
endloop
endfacet
facet normal 0.6691306063588529 0 0.743144825477399
outer loop
vertex 24.499999999999996 -73.3 59.5088327408563
vertex 35.5 -35.5 49.604388253580055
vertex 24.499999999999996 -35.5 59.5088327408563
endloop
endfacet
facet normal 0.6691306063588529 0 0.743144825477399
outer loop
vertex 24.999999999999996 -24.499999999999996 59.05863071870738
vertex 24.499999999999996 -24.499999999999996 59.5088327408563
vertex 24.499999999999996 -35.5 59.5088327408563
endloop
endfacet
facet normal 0.6691306063588529 0 0.743144825477399
outer loop
vertex 24.999999999999996 -24.499999999999996 59.05863071870738
vertex 24.499999999999996 -35.5 59.5088327408563
vertex 24.999999999999996 -35.5 59.05863071870738
endloop
endfacet
facet normal 0.6691306063588529 0 0.743144825477399
outer loop
vertex 35.5 -35.5 49.604388253580055
vertex 35.5 -24.5 49.604388253580055
vertex 35 -24.5 50.05459027572898
endloop
endfacet
facet normal 0.6691306063588529 0 0.743144825477399
outer loop
vertex 35.5 -35.5 49.604388253580055
vertex 35 -24.5 50.05459027572898
vertex 35 -35.5 50.05459027572898
endloop
endfacet
facet normal 0.6691306063588529 0 0.743144825477399
outer loop
vertex 35 -24.5 50.05459027572898
vertex 24.999999999999996 -24.499999999999996 59.05863071870738
vertex 24.999999999999996 -24.999999999999996 59.05863071870738
endloop
endfacet
facet normal 0.6691306063588529 0 0.743144825477399
outer loop
vertex 35 -24.5 50.05459027572898
vertex 24.999999999999996 -24.999999999999996 59.05863071870738
vertex 35 -24.999999999999996 50.05459027572898
endloop
endfacet
facet normal 0.6691306063588529 0 0.743144825477399
outer loop
vertex 24.999999999999996 -35 59.05863071870738
vertex 24.999999999999996 -35.5 59.05863071870738
vertex 35 -35.5 50.05459027572898
endloop
endfacet
facet normal 0.6691306063588529 0 0.743144825477399
outer loop
vertex 24.999999999999996 -35 59.05863071870738
vertex 35 -35.5 50.05459027572898
vertex 35 -35 50.05459027572898
endloop
endfacet
facet normal 0 -1 0
outer loop
vertex -16.250984659135153 -70.8 40
vertex -14.389752162340766 -70.8 40
vertex -6.417374725522972 -70.8 48.85422215427179
endloop
endfacet
facet normal 0 -1 0
outer loop
vertex -14.389752162340766 -70.8 40
vertex 24.999999999999996 -70.8 40
vertex 24.999999999999996 -70.8 55.02173252988816
endloop
endfacet
facet normal 0 -1 0
outer loop
vertex -14.389752162340766 -70.8 40
vertex 24.999999999999996 -70.8 55.02173252988816
vertex 12.716169741487809 -70.8 66.0821429741208
endloop
endfacet
facet normal 0 -1 0
outer loop
vertex -14.389752162340766 -70.8 40
vertex 12.716169741487809 -70.8 66.0821429741208
vertex -6.417374725522972 -70.8 48.85422215427179
endloop
endfacet
facet normal 0 -1 0
outer loop
vertex 39.822091645316135 -70.8 40
vertex 41.683324142110465 -70.8 40
vertex 35 -70.8 46.017692086909705
endloop
endfacet
facet normal 0 -1 0
outer loop
vertex 39.822091645316135 -70.8 40
vertex 35 -70.8 46.017692086909705
vertex 35 -70.8 45.35547532894147
endloop
endfacet
facet normal 0 -1 0
outer loop
vertex 35 -70.8 40
vertex 39.822091645316135 -70.8 40
vertex 35 -70.8 45.35547532894147
endloop
endfacet
facet normal 0 -1 0
outer loop
vertex 35 -70.8 45.355475328941466
vertex 35 -70.8 46.01769208690969
vertex 31.84971420849838 -70.8 48.8542221542718
endloop
endfacet
facet normal 0 -1 0
outer loop
vertex 24.999999999999996 -70.8 40
vertex 35 -70.8 40
vertex 35 -70.8 45.355475328941466
endloop
endfacet
facet normal 0 -1 0
outer loop
vertex 24.999999999999996 -70.8 40
vertex 35 -70.8 45.355475328941466
vertex 31.849714208498437 -70.8 48.85422215427174
endloop
endfacet
facet normal 0 -1 0
outer loop
vertex 24.999999999999996 -70.8 40
vertex 31.849714208498437 -70.8 48.85422215427174
vertex 24.999999999999996 -70.8 55.02173252988816
endloop
endfacet
facet normal 0 1 0
outer loop
vertex -14.38975216234076 -10.800000000000004 40
vertex -16.250984659135153 -10.800000000000004 40
vertex -6.417374725523013 -10.800000000000002 48.854222154271746
endloop
endfacet
facet normal 0 1 0
outer loop
vertex 24.999999999999996 -10.799999999999994 55.021732529888155
vertex 24.999999999999996 -10.799999999999994 40
vertex -14.38975216234076 -10.800000000000004 40
endloop
endfacet
facet normal 0 1 0
outer loop
vertex 24.999999999999996 -10.799999999999994 55.021732529888155
vertex -14.38975216234076 -10.800000000000004 40
vertex -6.417374725523013 -10.800000000000002 48.854222154271746
endloop
endfacet
facet normal 0 1 0
outer loop
vertex 24.999999999999996 -10.799999999999994 55.021732529888155
vertex -6.417374725523013 -10.800000000000002 48.854222154271746
vertex 12.716169741487816 -10.799999999999997 66.08214297412079
endloop
endfacet
facet normal 0 1 0
outer loop
vertex 41.683324142110465 -10.79999999999999 40
vertex 39.82209164531614 -10.79999999999999 40
vertex 35 -10.799999999999992 45.355475328941466
endloop
endfacet
facet normal 0 1 0
outer loop
vertex 41.683324142110465 -10.79999999999999 40
vertex 35 -10.799999999999992 45.355475328941466
vertex 35 -10.799999999999992 46.01769208690969
endloop
endfacet
facet normal 0 1 0
outer loop
vertex 39.82209164531614 -10.79999999999999 40
vertex 35 -10.799999999999992 40
vertex 35 -10.799999999999992 45.355475328941466
endloop
endfacet
facet normal 0 1 0
outer loop
vertex 35 -10.799999999999992 46.0176920869097
vertex 35 -10.799999999999992 45.35547532894147
vertex 31.84971420849844 -10.799999999999992 48.85422215427174
endloop
endfacet
facet normal 0 1 0
outer loop
vertex 31.849714208498447 -10.799999999999992 48.85422215427173
vertex 35 -10.799999999999992 45.35547532894147
vertex 35 -10.799999999999992 40
endloop
endfacet
facet normal 0 1 0
outer loop
vertex 31.849714208498447 -10.799999999999992 48.85422215427173
vertex 35 -10.799999999999992 40
vertex 24.999999999999996 -10.799999999999994 40
endloop
endfacet
facet normal 0 1 0
outer loop
vertex 31.849714208498447 -10.799999999999992 48.85422215427173
vertex 24.999999999999996 -10.799999999999994 40
vertex 24.999999999999996 -10.799999999999994 55.02173252988816
endloop
endfacet
facet normal -1 0 0
outer loop
vertex -17.283830258512246 -70.8 0
vertex -17.283830258512246 -70.8 34.44671077426877
vertex -17.283830258512246 -10.8 34.44671077426878
endloop
endfacet
facet normal -1 0 0
outer loop
vertex -17.283830258512246 -70.8 0
vertex -17.283830258512246 -10.8 34.44671077426878
vertex -17.283830258512246 -10.8 0
endloop
endfacet
facet normal -1 0 0
outer loop
vertex -17.283830258512246 -70.8 34.44671077426877
vertex -17.283830258512246 -70.8 39.07002164518565
vertex -17.283830258512246 -10.8 39.07002164518565
endloop
endfacet
facet normal -1 0 0
outer loop
vertex -17.283830258512246 -70.8 34.44671077426877
vertex -17.283830258512246 -10.8 39.07002164518565
vertex -17.283830258512246 -10.8 34.44671077426878
endloop
endfacet
facet normal 1 0 0
outer loop
vertex 42.716169741487754 -70.8 39.07002164518546
vertex 42.716169741487754 -70.8 36.78580064749872
vertex 42.716169741487754 -10.8 36.785800647498725
endloop
endfacet
facet normal 1 0 0
outer loop
vertex 42.716169741487754 -70.8 39.07002164518546
vertex 42.716169741487754 -10.8 36.785800647498725
vertex 42.716169741487754 -10.8 39.070021645185456
endloop
endfacet
facet normal 1 0 0
outer loop
vertex 42.716169741487754 -70.8 36.78580064749872
vertex 42.716169741487754 -70.8 0
vertex 42.716169741487754 -10.8 0
endloop
endfacet
facet normal 1 0 0
outer loop
vertex 42.716169741487754 -70.8 36.78580064749872
vertex 42.716169741487754 -10.8 0
vertex 42.716169741487754 -10.8 36.785800647498725
endloop
endfacet
facet normal 0 1 0
outer loop
vertex 13.732127435397388 -10.8 0
vertex -17.283830258512246 -10.8 0
vertex -17.283830258512246 -10.8 34.44671077426877
endloop
endfacet
facet normal 0 1 0
outer loop
vertex 39.82209164531615 -10.8 40
vertex 41.683324142110465 -10.8 40
vertex 42.716169741487754 -10.8 39.07002164518546
endloop
endfacet
facet normal 0 1 0
outer loop
vertex 39.82209164531615 -10.8 40
vertex 42.716169741487754 -10.8 39.07002164518546
vertex 42.716169741487754 -10.8 36.78580064749872
endloop
endfacet
facet normal 0 1 0
outer loop
vertex -16.250984659135156 -10.8 40
vertex 39.82209164531615 -10.8 40
vertex 42.716169741487754 -10.8 36.78580064749872
endloop
endfacet
facet normal 0 1 0
outer loop
vertex -16.250984659135156 -10.8 40
vertex 42.716169741487754 -10.8 36.78580064749872
vertex 42.716169741487754 -10.8 0
endloop
endfacet
facet normal 0 1 0
outer loop
vertex -16.250984659135156 -10.8 40
vertex 42.716169741487754 -10.8 0
vertex 13.732127435397388 -10.8 0
endloop
endfacet
facet normal 0 1 0
outer loop
vertex -16.250984659135156 -10.8 40
vertex 13.732127435397388 -10.8 0
vertex -17.283830258512246 -10.8 34.44671077426877
endloop
endfacet
facet normal 0 1 0
outer loop
vertex -16.250984659135156 -10.8 40
vertex -17.283830258512246 -10.8 34.44671077426877
vertex -17.283830258512246 -10.8 39.07002164518565
endloop
endfacet
facet normal 0 -1 0
outer loop
vertex -17.283830258512246 -70.8 34.44671077426878
vertex -17.283830258512246 -70.8 0
vertex 13.732127435397384 -70.8 0
endloop
endfacet
facet normal 0 -1 0
outer loop
vertex 42.716169741487754 -70.8 36.785800647498725
vertex 42.716169741487754 -70.8 39.070021645185456
vertex 41.68332414211047 -70.8 40
endloop
endfacet
facet normal 0 -1 0
outer loop
vertex 42.716169741487754 -70.8 36.785800647498725
vertex 41.68332414211047 -70.8 40
vertex 39.82209164531614 -70.8 40
endloop
endfacet
facet normal 0 -1 0
outer loop
vertex 42.716169741487754 -70.8 0
vertex 42.716169741487754 -70.8 36.785800647498725
vertex 39.82209164531614 -70.8 40
endloop
endfacet
facet normal 0 -1 0
outer loop
vertex 42.716169741487754 -70.8 0
vertex 39.82209164531614 -70.8 40
vertex -16.250984659135156 -70.8 40
endloop
endfacet
facet normal 0 -1 0
outer loop
vertex 42.716169741487754 -70.8 0
vertex -16.250984659135156 -70.8 40
vertex -17.283830258512246 -70.8 39.07002164518565
endloop
endfacet
facet normal 0 -1 0
outer loop
vertex 42.716169741487754 -70.8 0
vertex -17.283830258512246 -70.8 39.07002164518565
vertex -17.283830258512246 -70.8 34.44671077426878
endloop
endfacet
facet normal 0 -1 0
outer loop
vertex 42.716169741487754 -70.8 0
vertex -17.283830258512246 -70.8 34.44671077426878
vertex 13.732127435397384 -70.8 0
endloop
endfacet
facet normal 0 0 -1
outer loop
vertex 42.716169741487754 -10.8 0
vertex 42.716169741487754 -70.8 0
vertex -17.283830258512246 -70.8 0
endloop
endfacet
facet normal 0 0 -1
outer loop
vertex 42.716169741487754 -10.8 0
vertex -17.283830258512246 -70.8 0
vertex -17.283830258512246 -10.8 0
endloop
endfacet
endsolid craftml
