solid craftml
facet normal -1 0 0
outer loop
vertex 24.499999999999996 -35.5 68.11238553914872
vertex 24.499999999999996 -35.5 71.11238553914872
vertex 24.499999999999996 -24.500000000000004 71.11238553914872
endloop
endfacet
facet normal -1 0 0
outer loop
vertex 24.499999999999996 -35.5 68.11238553914872
vertex 24.499999999999996 -24.500000000000004 71.11238553914872
vertex 24.499999999999996 -24.500000000000004 68.11238553914872
endloop
endfacet
facet normal 1 0 0
outer loop
vertex 35.5 -24.500000000000004 71.11238553914872
vertex 35.5 -35.5 71.11238553914872
vertex 35.5 -35.5 68.11238553914872
endloop
endfacet
facet normal 1 0 0
outer loop
vertex 35.5 -24.500000000000004 71.11238553914872
vertex 35.5 -35.5 68.11238553914872
vertex 35.5 -24.500000000000004 68.11238553914872
endloop
endfacet
facet normal 0 1 0
outer loop
vertex 24.499999999999996 -24.500000000000004 71.11238553914872
vertex 35.5 -24.500000000000004 71.11238553914872
vertex 35.5 -24.500000000000004 68.11238553914872
endloop
endfacet
facet normal 0 1 0
outer loop
vertex 24.499999999999996 -24.500000000000004 71.11238553914872
vertex 35.5 -24.500000000000004 68.11238553914872
vertex 24.499999999999996 -24.500000000000004 68.11238553914872
endloop
endfacet
facet normal 0 -1 0
outer loop
vertex 35.5 -35.5 68.11238553914872
vertex 35.5 -35.5 71.11238553914872
vertex 24.499999999999996 -35.5 71.11238553914872
endloop
endfacet
facet normal 0 -1 0
outer loop
vertex 35.5 -35.5 68.11238553914872
vertex 24.499999999999996 -35.5 71.11238553914872
vertex 24.499999999999996 -35.5 68.11238553914872
endloop
endfacet
facet normal 0 0 -1
outer loop
vertex 24.999999999999996 -35.5 68.11238553914872
vertex 24.499999999999996 -35.5 68.11238553914872
vertex 24.499999999999996 -24.500000000000004 68.11238553914872
endloop
endfacet
facet normal 0 0 -1
outer loop
vertex 24.999999999999996 -35.5 68.11238553914872
vertex 24.499999999999996 -24.500000000000004 68.11238553914872
vertex 24.999999999999996 -24.500000000000004 68.11238553914872
endloop
endfacet
facet normal 0 0 -1
outer loop
vertex 35.5 -24.500000000000004 68.11238553914872
vertex 35.5 -35.5 68.11238553914872
vertex 35 -35.5 68.11238553914872
endloop
endfacet
facet normal 0 0 -1
outer loop
vertex 35.5 -24.500000000000004 68.11238553914872
vertex 35 -35.5 68.11238553914872
vertex 35 -24.500000000000004 68.11238553914872
endloop
endfacet
facet normal 0 0 -1
outer loop
vertex 24.999999999999996 -25.000000000000004 68.11238553914872
vertex 24.999999999999996 -24.500000000000004 68.11238553914872
vertex 35 -24.500000000000004 68.11238553914872
endloop
endfacet
facet normal 0 0 -1
outer loop
vertex 24.999999999999996 -25.000000000000004 68.11238553914872
vertex 35 -24.500000000000004 68.11238553914872
vertex 35 -25.000000000000004 68.11238553914872
endloop
endfacet
facet normal 0 0 -1
outer loop
vertex 35 -35.5 68.11238553914872
vertex 24.999999999999996 -35.5 68.11238553914872
vertex 24.999999999999996 -35 68.11238553914872
endloop
endfacet
facet normal 0 0 -1
outer loop
vertex 35 -35.5 68.11238553914872
vertex 24.999999999999996 -35 68.11238553914872
vertex 35 -35 68.11238553914872
endloop
endfacet
facet normal 0 0 1
outer loop
vertex 24.499999999999996 -35.5 71.11238553914872
vertex 35.5 -35.5 71.11238553914872
vertex 35.5 -24.500000000000004 71.11238553914872
endloop
endfacet
facet normal 0 0 1
outer loop
vertex 24.499999999999996 -35.5 71.11238553914872
vertex 35.5 -24.500000000000004 71.11238553914872
vertex 24.499999999999996 -24.500000000000004 71.11238553914872
endloop
endfacet
facet normal -1 0 0
outer loop
vertex 24.999999999999996 -35 59.058630718707526
vertex 24.999999999999996 -35 68.11238553914872
vertex 24.999999999999996 -25.000000000000004 68.11238553914872
endloop
endfacet
facet normal -1 0 0
outer loop
vertex 24.999999999999996 -35 59.058630718707526
vertex 24.999999999999996 -25.000000000000004 68.11238553914872
vertex 24.999999999999996 -25.000000000000004 59.05863071870753
endloop
endfacet
facet normal 1 0 0
outer loop
vertex 35 -25.000000000000004 68.11238553914872
vertex 35 -35 68.11238553914872
vertex 35 -35 50.054590275729254
endloop
endfacet
facet normal 1 0 0
outer loop
vertex 35 -25.000000000000004 68.11238553914872
vertex 35 -35 50.054590275729254
vertex 35 -25.000000000000004 50.05459027572926
endloop
endfacet
facet normal 0 1 0
outer loop
vertex 24.999999999999996 -25.000000000000004 68.11238553914872
vertex 35 -25.000000000000004 68.11238553914872
vertex 35 -25.000000000000004 50.054590275729254
endloop
endfacet
facet normal 0 1 0
outer loop
vertex 24.999999999999996 -25.000000000000004 68.11238553914872
vertex 35 -25.000000000000004 50.054590275729254
vertex 24.999999999999996 -25.000000000000004 59.058630718707526
endloop
endfacet
facet normal 0 -1 0
outer loop
vertex 35 -35 50.05459027572926
vertex 35 -35 68.11238553914872
vertex 24.999999999999996 -35 68.11238553914872
endloop
endfacet
facet normal 0 -1 0
outer loop
vertex 35 -35 50.05459027572926
vertex 24.999999999999996 -35 68.11238553914872
vertex 24.999999999999996 -35 59.05863071870753
endloop
endfacet
facet normal -0.7431448254773937 0 -0.6691306063588588
outer loop
vertex -19.58282220362275 -73.30000000000001 37
vertex -21.590214022699325 -73.30000000000001 39.22943447643218
vertex -21.590214022699325 -8.300000000000004 39.22943447643218
endloop
endfacet
facet normal -0.7431448254773937 0 -0.6691306063588588
outer loop
vertex -19.58282220362275 -73.30000000000001 37
vertex -21.590214022699325 -8.300000000000004 39.22943447643218
vertex -19.58282220362275 -8.300000000000004 37
endloop
endfacet
facet normal 0.7431448254773987 0 0.6691306063588534
outer loop
vertex 12.708777922411176 -8.300000000000004 70.11238553914872
vertex 12.708777922411176 -73.30000000000001 70.11238553914872
vertex 12.716169741487745 -73.30000000000001 70.10417609237493
endloop
endfacet
facet normal 0.7431448254773987 0 0.6691306063588534
outer loop
vertex 12.708777922411176 -8.300000000000004 70.11238553914872
vertex 12.716169741487745 -73.30000000000001 70.10417609237493
vertex 12.716169741487748 -8.300000000000004 70.10417609237493
endloop
endfacet
facet normal 0 1 0
outer loop
vertex -21.590214022699325 -8.300000000000004 39.22943447643218
vertex 12.708777922411176 -8.300000000000004 70.11238553914872
vertex 14.71616974148775 -8.300000000000004 67.88295106271653
endloop
endfacet
facet normal 0 1 0
outer loop
vertex -21.590214022699325 -8.300000000000004 39.22943447643218
vertex 14.71616974148775 -8.300000000000004 67.88295106271653
vertex -19.58282220362275 -8.300000000000004 37
endloop
endfacet
facet normal 0 -1 0
outer loop
vertex 14.71616974148775 -73.30000000000001 67.88295106271653
vertex 12.708777922411176 -73.30000000000001 70.11238553914872
vertex -21.590214022699325 -73.30000000000001 39.22943447643218
endloop
endfacet
facet normal 0 -1 0
outer loop
vertex 14.71616974148775 -73.30000000000001 67.88295106271653
vertex -21.590214022699325 -73.30000000000001 39.22943447643218
vertex -19.58282220362275 -73.30000000000001 37
endloop
endfacet
facet normal 0.6691306063588568 0 -0.7431448254773955
outer loop
vertex -6.417374725522748 -73.30000000000001 48.85422215427204
vertex -19.58282220362275 -73.30000000000001 37
vertex -19.58282220362275 -70.8 37
endloop
endfacet
facet normal 0.6691306063588568 0 -0.7431448254773955
outer loop
vertex -6.417374725522748 -73.30000000000001 48.85422215427204
vertex -19.58282220362275 -70.8 37
vertex -6.41737472552275 -70.8 48.85422215427204
endloop
endfacet
facet normal 0.6691306063588568 0 -0.7431448254773955
outer loop
vertex -19.58282220362275 -10.799999999999997 37
vertex -19.58282220362275 -8.300000000000004 37
vertex -6.4173747255228 -8.300000000000004 48.854222154271994
endloop
endfacet
facet normal 0.6691306063588568 0 -0.7431448254773955
outer loop
vertex -19.58282220362275 -10.799999999999997 37
vertex -6.4173747255228 -8.300000000000004 48.854222154271994
vertex -6.417374725522798 -10.799999999999997 48.854222154271994
endloop
endfacet
facet normal 0.6691306063588568 0 -0.7431448254773955
outer loop
vertex -19.58282220362275 -70.8 37
vertex -19.58282220362275 -10.799999999999997 37
vertex -17.283830258512246 -10.799999999999997 39.070021645185655
endloop
endfacet
facet normal 0.6691306063588568 0 -0.7431448254773955
outer loop
vertex -19.58282220362275 -70.8 37
vertex -17.283830258512246 -10.799999999999997 39.070021645185655
vertex -17.283830258512246 -70.8 39.070021645185655
endloop
endfacet
facet normal 0.6691306063588568 0 -0.7431448254773955
outer loop
vertex 12.716169741487748 -73.30000000000001 66.08214297412084
vertex -6.417374725522748 -73.30000000000001 48.85422215427204
vertex -6.41737472552275 -70.8 48.85422215427204
endloop
endfacet
facet normal 0.6691306063588568 0 -0.7431448254773955
outer loop
vertex 12.716169741487748 -73.30000000000001 66.08214297412084
vertex -6.41737472552275 -70.8 48.85422215427204
vertex 12.716169741487748 -70.8 66.08214297412084
endloop
endfacet
facet normal 0.6691306063588568 0 -0.7431448254773955
outer loop
vertex -6.417374725522798 -10.799999999999997 48.854222154271994
vertex -6.4173747255228 -8.300000000000004 48.854222154271994
vertex 12.716169741487752 -8.300000000000004 66.08214297412084
endloop
endfacet
facet normal 0.6691306063588568 0 -0.7431448254773955
outer loop
vertex -6.417374725522798 -10.799999999999997 48.854222154271994
vertex 12.716169741487752 -8.300000000000004 66.08214297412084
vertex 12.716169741487752 -10.799999999999997 66.08214297412084
endloop
endfacet
facet normal -0.6691306063588568 0 0.7431448254773955
outer loop
vertex -21.590214022699325 -73.30000000000001 39.22943447643218
vertex 12.708777922411176 -73.30000000000001 70.11238553914872
vertex 12.708777922411176 -8.300000000000004 70.11238553914872
endloop
endfacet
facet normal -0.6691306063588568 0 0.7431448254773955
outer loop
vertex -21.590214022699325 -73.30000000000001 39.22943447643218
vertex 12.708777922411176 -8.300000000000004 70.11238553914872
vertex -21.590214022699325 -8.300000000000004 39.22943447643218
endloop
endfacet
facet normal -0.7431448254773968 0 0.6691306063588552
outer loop
vertex 12.716169741487757 -73.30000000000001 70.10417609237493
vertex 12.723561560564324 -73.30000000000001 70.11238553914872
vertex 12.723561560564324 -8.300000000000004 70.11238553914872
endloop
endfacet
facet normal -0.7431448254773968 0 0.6691306063588552
outer loop
vertex 12.716169741487757 -73.30000000000001 70.10417609237493
vertex 12.723561560564324 -8.300000000000004 70.11238553914872
vertex 12.716169741487755 -8.300000000000004 70.10417609237493
endloop
endfacet
facet normal 0.7431448254773887 0 -0.6691306063588643
outer loop
vertex 47.02255350567482 -8.300000000000004 39.229434476432175
vertex 47.02255350567482 -73.30000000000001 39.229434476432175
vertex 45.01516168659825 -73.30000000000001 37
endloop
endfacet
facet normal 0.7431448254773887 0 -0.6691306063588643
outer loop
vertex 47.02255350567482 -8.300000000000004 39.229434476432175
vertex 45.01516168659825 -73.30000000000001 37
vertex 45.01516168659825 -8.300000000000004 37
endloop
endfacet
facet normal 0 1 0
outer loop
vertex 12.723561560564324 -8.300000000000004 70.11238553914872
vertex 24.499999999999996 -8.300000000000004 59.50883274085629
vertex 24.499999999999996 -8.300000000000004 57.01690673464815
endloop
endfacet
facet normal 0 1 0
outer loop
vertex 12.723561560564324 -8.300000000000004 70.11238553914872
vertex 24.499999999999996 -8.300000000000004 57.01690673464815
vertex 12.716169741487757 -8.300000000000004 70.10417609237493
endloop
endfacet
facet normal 0 1 0
outer loop
vertex 14.716169741487807 -8.300000000000004 67.88295106271646
vertex 24.499999999999996 -8.300000000000004 57.01690673464815
vertex 24.499999999999996 -8.300000000000004 55.47193455203716
endloop
endfacet
facet normal 0 1 0
outer loop
vertex 14.716169741487807 -8.300000000000004 67.88295106271646
vertex 24.499999999999996 -8.300000000000004 55.47193455203716
vertex 12.71616974148781 -8.300000000000004 66.0821429741208
endloop
endfacet
facet normal 0 1 0
outer loop
vertex 24.499999999999996 -8.300000000000004 59.50883274085629
vertex 47.02255350567482 -8.300000000000004 39.229434476432175
vertex 45.01516168659825 -8.300000000000004 37
endloop
endfacet
facet normal 0 1 0
outer loop
vertex 24.499999999999996 -8.300000000000004 59.50883274085629
vertex 45.01516168659825 -8.300000000000004 37
vertex 24.499999999999996 -8.300000000000004 55.47193455203716
endloop
endfacet
facet normal 0 -1 0
outer loop
vertex 24.499999999999996 -73.30000000000001 59.50883274085629
vertex 12.723561560564324 -73.30000000000001 70.11238553914872
vertex 12.716169741487755 -73.30000000000001 70.10417609237493
endloop
endfacet
facet normal 0 -1 0
outer loop
vertex 24.499999999999996 -73.30000000000001 59.50883274085629
vertex 12.716169741487755 -73.30000000000001 70.10417609237493
vertex 24.499999999999996 -73.30000000000001 57.016906734648146
endloop
endfacet
facet normal 0 -1 0
outer loop
vertex 14.716169741487803 -73.30000000000001 67.88295106271646
vertex 12.716169741487812 -73.30000000000001 66.0821429741208
vertex 24.499999999999996 -73.30000000000001 55.47193455203716
endloop
endfacet
facet normal 0 -1 0
outer loop
vertex 14.716169741487803 -73.30000000000001 67.88295106271646
vertex 24.499999999999996 -73.30000000000001 55.47193455203716
vertex 24.499999999999996 -73.30000000000001 57.016906734648146
endloop
endfacet
facet normal 0 -1 0
outer loop
vertex 45.01516168659825 -73.30000000000001 37
vertex 47.02255350567482 -73.30000000000001 39.229434476432175
vertex 24.499999999999996 -73.30000000000001 59.50883274085629
endloop
endfacet
facet normal 0 -1 0
outer loop
vertex 45.01516168659825 -73.30000000000001 37
vertex 24.499999999999996 -73.30000000000001 59.50883274085629
vertex 24.499999999999996 -73.30000000000001 55.47193455203716
endloop
endfacet
facet normal -0.6691306063588608 0 -0.7431448254773919
outer loop
vertex 24.499999999999996 -73.30000000000001 55.47193455203716
vertex 12.716169741487812 -73.30000000000001 66.0821429741208
vertex 12.716169741487812 -70.8 66.0821429741208
endloop
endfacet
facet normal -0.6691306063588608 0 -0.7431448254773919
outer loop
vertex 24.499999999999996 -73.30000000000001 55.47193455203716
vertex 12.716169741487812 -70.8 66.0821429741208
vertex 24.499999999999996 -70.8 55.47193455203716
endloop
endfacet
facet normal -0.6691306063588608 0 -0.7431448254773919
outer loop
vertex 12.71616974148781 -10.799999999999997 66.0821429741208
vertex 12.71616974148781 -8.300000000000004 66.0821429741208
vertex 24.499999999999996 -8.300000000000004 55.47193455203716
endloop
endfacet
facet normal -0.6691306063588608 0 -0.7431448254773919
outer loop
vertex 12.71616974148781 -10.799999999999997 66.0821429741208
vertex 24.499999999999996 -8.300000000000004 55.47193455203716
vertex 24.499999999999996 -10.799999999999997 55.47193455203716
endloop
endfacet
facet normal -0.6691306063588608 0 -0.7431448254773919
outer loop
vertex 45.01516168659825 -70.8 37
vertex 45.01516168659825 -73.30000000000001 37
vertex 35.5 -73.30000000000001 45.56749006476092
endloop
endfacet
facet normal -0.6691306063588608 0 -0.7431448254773919
outer loop
vertex 45.01516168659825 -70.8 37
vertex 35.5 -73.30000000000001 45.56749006476092
vertex 35.5 -70.8 45.56749006476092
endloop
endfacet
facet normal -0.6691306063588608 0 -0.7431448254773919
outer loop
vertex 45.01516168659825 -8.300000000000004 37
vertex 45.01516168659825 -10.799999999999997 37
vertex 35.5 -10.799999999999997 45.56749006476092
endloop
endfacet
facet normal -0.6691306063588608 0 -0.7431448254773919
outer loop
vertex 45.01516168659825 -8.300000000000004 37
vertex 35.5 -10.799999999999997 45.56749006476092
vertex 35.5 -8.300000000000004 45.56749006476092
endloop
endfacet
facet normal -0.6691306063588608 0 -0.7431448254773919
outer loop
vertex 45.01516168659825 -10.799999999999997 37
vertex 45.01516168659825 -70.8 37
vertex 42.716169741487754 -70.8 39.07002164518565
endloop
endfacet
facet normal -0.6691306063588608 0 -0.7431448254773919
outer loop
vertex 45.01516168659825 -10.799999999999997 37
vertex 42.716169741487754 -70.8 39.07002164518565
vertex 42.716169741487754 -10.799999999999997 39.07002164518565
endloop
endfacet
facet normal -0.6691306063588608 0 -0.7431448254773919
outer loop
vertex 24.499999999999996 -10.799999999999997 55.47193455203716
vertex 24.499999999999996 -8.300000000000004 55.47193455203716
vertex 24.999999999999996 -8.300000000000004 55.02173252988824
endloop
endfacet
facet normal -0.6691306063588608 0 -0.7431448254773919
outer loop
vertex 24.499999999999996 -10.799999999999997 55.47193455203716
vertex 24.999999999999996 -8.300000000000004 55.02173252988824
vertex 24.999999999999996 -10.799999999999997 55.02173252988824
endloop
endfacet
facet normal -0.6691306063588608 0 -0.7431448254773919
outer loop
vertex 35 -8.300000000000004 46.01769208690984
vertex 35.5 -8.300000000000004 45.56749006476092
vertex 35.5 -10.799999999999997 45.56749006476092
endloop
endfacet
facet normal -0.6691306063588608 0 -0.7431448254773919
outer loop
vertex 35 -8.300000000000004 46.01769208690984
vertex 35.5 -10.799999999999997 45.56749006476092
vertex 35 -10.799999999999997 46.01769208690984
endloop
endfacet
facet normal -0.6691306063588608 0 -0.7431448254773919
outer loop
vertex 31.849714208497826 -8.300000000000004 48.85422215427242
vertex 35 -8.300000000000004 46.01769208690984
vertex 35 -10.799999999999997 46.01769208690984
endloop
endfacet
facet normal -0.6691306063588608 0 -0.7431448254773919
outer loop
vertex 31.849714208497826 -8.300000000000004 48.85422215427242
vertex 35 -10.799999999999997 46.01769208690984
vertex 31.849714208497822 -10.799999999999997 48.85422215427243
endloop
endfacet
facet normal -0.6691306063588608 0 -0.7431448254773919
outer loop
vertex 24.999999999999996 -8.300000000000004 55.02173252988824
vertex 31.849714208497826 -8.300000000000004 48.85422215427242
vertex 31.849714208497822 -10.799999999999997 48.85422215427243
endloop
endfacet
facet normal -0.6691306063588608 0 -0.7431448254773919
outer loop
vertex 24.999999999999996 -8.300000000000004 55.02173252988824
vertex 31.849714208497822 -10.799999999999997 48.85422215427243
vertex 24.999999999999996 -10.799999999999997 55.02173252988824
endloop
endfacet
facet normal -0.6691306063588608 0 -0.7431448254773919
outer loop
vertex 24.999999999999996 -73.30000000000001 55.02173252988824
vertex 24.499999999999996 -73.30000000000001 55.47193455203716
vertex 24.499999999999996 -70.8 55.47193455203716
endloop
endfacet
facet normal -0.6691306063588608 0 -0.7431448254773919
outer loop
vertex 24.999999999999996 -73.30000000000001 55.02173252988824
vertex 24.499999999999996 -70.8 55.47193455203716
vertex 24.999999999999996 -70.8 55.02173252988824
endloop
endfacet
facet normal -0.6691306063588608 0 -0.7431448254773919
outer loop
vertex 35.5 -73.30000000000001 45.56749006476092
vertex 35 -73.30000000000001 46.01769208690984
vertex 35 -70.8 46.01769208690984
endloop
endfacet
facet normal -0.6691306063588608 0 -0.7431448254773919
outer loop
vertex 35.5 -73.30000000000001 45.56749006476092
vertex 35 -70.8 46.01769208690984
vertex 35.5 -70.8 45.56749006476092
endloop
endfacet
facet normal -0.6691306063588608 0 -0.7431448254773919
outer loop
vertex 35 -73.30000000000001 46.01769208690984
vertex 31.849714208497794 -73.30000000000001 48.85422215427245
vertex 31.849714208497797 -70.8 48.85422215427245
endloop
endfacet
facet normal -0.6691306063588608 0 -0.7431448254773919
outer loop
vertex 35 -73.30000000000001 46.01769208690984
vertex 31.849714208497797 -70.8 48.85422215427245
vertex 35 -70.8 46.01769208690984
endloop
endfacet
facet normal -0.6691306063588608 0 -0.7431448254773919
outer loop
vertex 31.849714208497794 -73.30000000000001 48.85422215427245
vertex 24.999999999999996 -73.30000000000001 55.02173252988824
vertex 24.999999999999996 -70.8 55.02173252988824
endloop
endfacet
facet normal -0.6691306063588608 0 -0.7431448254773919
outer loop
vertex 31.849714208497794 -73.30000000000001 48.85422215427245
vertex 24.999999999999996 -70.8 55.02173252988824
vertex 31.849714208497797 -70.8 48.85422215427245
endloop
endfacet
facet normal 0.6691306063588529 0 0.743144825477399
outer loop
vertex 12.723561560564324 -73.30000000000001 70.11238553914872
vertex 24.499999999999996 -73.30000000000001 59.50883274085629
vertex 24.499999999999996 -8.300000000000004 59.50883274085629
endloop
endfacet
facet normal 0.6691306063588529 0 0.743144825477399
outer loop
vertex 12.723561560564324 -73.30000000000001 70.11238553914872
vertex 24.499999999999996 -8.300000000000004 59.50883274085629
vertex 12.723561560564324 -8.300000000000004 70.11238553914872
endloop
endfacet
facet normal 0.6691306063588529 0 0.743144825477399
outer loop
vertex 35.5 -73.30000000000001 49.60438825358004
vertex 47.02255350567482 -73.30000000000001 39.229434476432175
vertex 47.02255350567482 -8.300000000000004 39.229434476432175
endloop
endfacet
facet normal 0.6691306063588529 0 0.743144825477399
outer loop
vertex 35.5 -73.30000000000001 49.60438825358004
vertex 47.02255350567482 -8.300000000000004 39.229434476432175
vertex 35.5 -8.300000000000004 49.60438825358004
endloop
endfacet
facet normal 0.6691306063588529 0 0.743144825477399
outer loop
vertex 35.5 -24.5 49.60438825358004
vertex 35.5 -8.300000000000004 49.60438825358004
vertex 24.499999999999996 -8.300000000000004 59.50883274085629
endloop
endfacet
facet normal 0.6691306063588529 0 0.743144825477399
outer loop
vertex 35.5 -24.5 49.60438825358004
vertex 24.499999999999996 -8.300000000000004 59.50883274085629
vertex 24.499999999999996 -24.500000000000004 59.50883274085629
endloop
endfacet
facet normal 0.6691306063588529 0 0.743144825477399
outer loop
vertex 24.499999999999996 -73.30000000000001 59.50883274085629
vertex 35.5 -73.30000000000001 49.60438825358004
vertex 35.5 -35.5 49.60438825358004
endloop
endfacet
facet normal 0.6691306063588529 0 0.743144825477399
outer loop
vertex 24.499999999999996 -73.30000000000001 59.50883274085629
vertex 35.5 -35.5 49.60438825358004
vertex 24.499999999999996 -35.5 59.50883274085629
endloop
endfacet
facet normal 0.6691306063588529 0 0.743144825477399
outer loop
vertex 24.999999999999996 -24.500000000000004 59.05863071870737
vertex 24.499999999999996 -24.500000000000004 59.50883274085629
vertex 24.499999999999996 -35.5 59.50883274085629
endloop
endfacet
facet normal 0.6691306063588529 0 0.743144825477399
outer loop
vertex 24.999999999999996 -24.500000000000004 59.05863071870737
vertex 24.499999999999996 -35.5 59.50883274085629
vertex 24.999999999999996 -35.5 59.05863071870737
endloop
endfacet
facet normal 0.6691306063588529 0 0.743144825477399
outer loop
vertex 35.5 -35.5 49.60438825358004
vertex 35.5 -24.5 49.60438825358004
vertex 35 -24.5 50.05459027572896
endloop
endfacet
facet normal 0.6691306063588529 0 0.743144825477399
outer loop
vertex 35.5 -35.5 49.60438825358004
vertex 35 -24.5 50.05459027572896
vertex 35 -35.5 50.05459027572896
endloop
endfacet
facet normal 0.6691306063588529 0 0.743144825477399
outer loop
vertex 35 -24.5 50.05459027572896
vertex 24.999999999999996 -24.500000000000004 59.05863071870737
vertex 24.999999999999996 -25.000000000000004 59.05863071870737
endloop
endfacet
facet normal 0.6691306063588529 0 0.743144825477399
outer loop
vertex 35 -24.5 50.05459027572896
vertex 24.999999999999996 -25.000000000000004 59.05863071870737
vertex 35 -25.000000000000004 50.05459027572896
endloop
endfacet
facet normal 0.6691306063588529 0 0.743144825477399
outer loop
vertex 24.999999999999996 -35 59.05863071870737
vertex 24.999999999999996 -35.5 59.05863071870737
vertex 35 -35.5 50.05459027572896
endloop
endfacet
facet normal 0.6691306063588529 0 0.743144825477399
outer loop
vertex 24.999999999999996 -35 59.05863071870737
vertex 35 -35.5 50.05459027572896
vertex 35 -35 50.05459027572896
endloop
endfacet
facet normal 0 -1 0
outer loop
vertex -16.250984659135156 -70.8 40
vertex -14.38975216234077 -70.8 40
vertex -6.417374725523006 -70.8 48.85422215427176
endloop
endfacet
facet normal 0 -1 0
outer loop
vertex -14.38975216234077 -70.8 40
vertex 24.999999999999993 -70.8 40
vertex 24.999999999999996 -70.8 55.02173252988817
endloop
endfacet
facet normal 0 -1 0
outer loop
vertex -14.38975216234077 -70.8 40
vertex 24.999999999999996 -70.8 55.02173252988817
vertex 12.71616974148781 -70.8 66.0821429741208
endloop
endfacet
facet normal 0 -1 0
outer loop
vertex -14.38975216234077 -70.8 40
vertex 12.71616974148781 -70.8 66.0821429741208
vertex -6.417374725523006 -70.8 48.85422215427176
endloop
endfacet
facet normal 0 -1 0
outer loop
vertex 39.82209164531613 -70.8 40
vertex 41.683324142110465 -70.8 40
vertex 35 -70.8 46.0176920869097
endloop
endfacet
facet normal 0 -1 0
outer loop
vertex 39.82209164531613 -70.8 40
vertex 35 -70.8 46.0176920869097
vertex 35 -70.8 45.355475328941466
endloop
endfacet
facet normal 0 -1 0
outer loop
vertex 35 -70.8 40
vertex 39.82209164531613 -70.8 40
vertex 35 -70.8 45.355475328941466
endloop
endfacet
facet normal 0 -1 0
outer loop
vertex 35 -70.8 45.35547532894146
vertex 35 -70.8 46.017692086909705
vertex 31.84971420849838 -70.8 48.854222154271795
endloop
endfacet
facet normal 0 -1 0
outer loop
vertex 24.999999999999993 -70.8 40
vertex 35 -70.8 40
vertex 35 -70.8 45.35547532894146
endloop
endfacet
facet normal 0 -1 0
outer loop
vertex 24.999999999999993 -70.8 40
vertex 35 -70.8 45.35547532894146
vertex 31.849714208498348 -70.8 48.85422215427183
endloop
endfacet
facet normal 0 -1 0
outer loop
vertex 24.999999999999993 -70.8 40
vertex 31.849714208498348 -70.8 48.85422215427183
vertex 24.999999999999996 -70.8 55.021732529888155
endloop
endfacet
facet normal 0 1 0
outer loop
vertex -14.389752162340773 -10.800000000000004 40
vertex -16.250984659135153 -10.800000000000004 40
vertex -6.417374725523057 -10.800000000000002 48.85422215427171
endloop
endfacet
facet normal 0 1 0
outer loop
vertex 24.999999999999996 -10.799999999999994 55.02173252988816
vertex 24.999999999999996 -10.799999999999994 40
vertex -14.389752162340773 -10.800000000000004 40
endloop
endfacet
facet normal 0 1 0
outer loop
vertex 24.999999999999996 -10.799999999999994 55.02173252988816
vertex -14.389752162340773 -10.800000000000004 40
vertex -6.417374725523057 -10.800000000000002 48.85422215427171
endloop
endfacet
facet normal 0 1 0
outer loop
vertex 24.999999999999996 -10.799999999999994 55.02173252988816
vertex -6.417374725523057 -10.800000000000002 48.85422215427171
vertex 12.716169741487818 -10.799999999999997 66.08214297412079
endloop
endfacet
facet normal 0 1 0
outer loop
vertex 41.683324142110465 -10.79999999999999 40
vertex 39.822091645316135 -10.79999999999999 40
vertex 35 -10.799999999999992 45.35547532894146
endloop
endfacet
facet normal 0 1 0
outer loop
vertex 41.683324142110465 -10.79999999999999 40
vertex 35 -10.799999999999992 45.35547532894146
vertex 35 -10.799999999999992 46.017692086909705
endloop
endfacet
facet normal 0 1 0
outer loop
vertex 39.822091645316135 -10.79999999999999 40
vertex 35 -10.799999999999992 40
vertex 35 -10.799999999999992 45.35547532894146
endloop
endfacet
facet normal 0 1 0
outer loop
vertex 35 -10.799999999999992 46.01769208690969
vertex 35 -10.799999999999992 45.35547532894146
vertex 31.84971420849835 -10.799999999999992 48.85422215427183
endloop
endfacet
facet normal 0 1 0
outer loop
vertex 31.849714208498398 -10.799999999999992 48.85422215427178
vertex 35 -10.799999999999992 45.35547532894146
vertex 35 -10.799999999999992 40
endloop
endfacet
facet normal 0 1 0
outer loop
vertex 31.849714208498398 -10.799999999999992 48.85422215427178
vertex 35 -10.799999999999992 40
vertex 24.999999999999996 -10.799999999999994 40
endloop
endfacet
facet normal 0 1 0
outer loop
vertex 31.849714208498398 -10.799999999999992 48.85422215427178
vertex 24.999999999999996 -10.799999999999994 40
vertex 24.999999999999996 -10.799999999999994 55.02173252988816
endloop
endfacet
facet normal -1 0 0
outer loop
vertex -17.283830258512246 -70.8 0
vertex -17.283830258512246 -70.8 34.44671077426877
vertex -17.283830258512246 -10.8 34.44671077426877
endloop
endfacet
facet normal -1 0 0
outer loop
vertex -17.283830258512246 -70.8 0
vertex -17.283830258512246 -10.8 34.44671077426877
vertex -17.283830258512246 -10.8 0
endloop
endfacet
facet normal -1 0 0
outer loop
vertex -17.283830258512246 -70.8 34.44671077426877
vertex -17.283830258512246 -70.8 39.07002164518565
vertex -17.283830258512246 -10.8 39.07002164518565
endloop
endfacet
facet normal -1 0 0
outer loop
vertex -17.283830258512246 -70.8 34.44671077426877
vertex -17.283830258512246 -10.8 39.07002164518565
vertex -17.283830258512246 -10.8 34.44671077426877
endloop
endfacet
facet normal 1 0 0
outer loop
vertex 42.716169741487754 -70.8 39.07002164518546
vertex 42.716169741487754 -70.8 36.785800647498704
vertex 42.716169741487754 -10.8 36.78580064749872
endloop
endfacet
facet normal 1 0 0
outer loop
vertex 42.716169741487754 -70.8 39.07002164518546
vertex 42.716169741487754 -10.8 36.78580064749872
vertex 42.716169741487754 -10.8 39.070021645185456
endloop
endfacet
facet normal 1 0 0
outer loop
vertex 42.716169741487754 -70.8 36.785800647498704
vertex 42.716169741487754 -70.8 0
vertex 42.716169741487754 -10.8 0
endloop
endfacet
facet normal 1 0 0
outer loop
vertex 42.716169741487754 -70.8 36.785800647498704
vertex 42.716169741487754 -10.8 0
vertex 42.716169741487754 -10.8 36.78580064749872
endloop
endfacet
facet normal 0 1 0
outer loop
vertex 13.73212743539738 -10.8 0
vertex -17.283830258512246 -10.8 0
vertex -17.283830258512246 -10.8 34.44671077426877
endloop
endfacet
facet normal 0 1 0
outer loop
vertex 39.822091645316135 -10.8 40
vertex 41.683324142110465 -10.8 40
vertex 42.716169741487754 -10.8 39.07002164518546
endloop
endfacet
facet normal 0 1 0
outer loop
vertex 39.822091645316135 -10.8 40
vertex 42.716169741487754 -10.8 39.07002164518546
vertex 42.716169741487754 -10.8 36.785800647498704
endloop
endfacet
facet normal 0 1 0
outer loop
vertex -16.250984659135156 -10.8 40
vertex 39.822091645316135 -10.8 40
vertex 42.716169741487754 -10.8 36.785800647498704
endloop
endfacet
facet normal 0 1 0
outer loop
vertex -16.250984659135156 -10.8 40
vertex 42.716169741487754 -10.8 36.785800647498704
vertex 42.716169741487754 -10.8 0
endloop
endfacet
facet normal 0 1 0
outer loop
vertex -16.250984659135156 -10.8 40
vertex 42.716169741487754 -10.8 0
vertex 13.73212743539738 -10.8 0
endloop
endfacet
facet normal 0 1 0
outer loop
vertex -16.250984659135156 -10.8 40
vertex 13.73212743539738 -10.8 0
vertex -17.283830258512246 -10.8 34.44671077426877
endloop
endfacet
facet normal 0 1 0
outer loop
vertex -16.250984659135156 -10.8 40
vertex -17.283830258512246 -10.8 34.44671077426877
vertex -17.283830258512246 -10.8 39.07002164518565
endloop
endfacet
facet normal 0 -1 0
outer loop
vertex -17.283830258512246 -70.8 34.44671077426877
vertex -17.283830258512246 -70.8 0
vertex 13.732127435397384 -70.8 0
endloop
endfacet
facet normal 0 -1 0
outer loop
vertex 42.716169741487754 -70.8 36.78580064749872
vertex 42.716169741487754 -70.8 39.070021645185456
vertex 41.68332414211047 -70.8 40
endloop
endfacet
facet normal 0 -1 0
outer loop
vertex 42.716169741487754 -70.8 36.78580064749872
vertex 41.68332414211047 -70.8 40
vertex 39.82209164531613 -70.8 40
endloop
endfacet
facet normal 0 -1 0
outer loop
vertex 42.716169741487754 -70.8 0
vertex 42.716169741487754 -70.8 36.78580064749872
vertex 39.82209164531613 -70.8 40
endloop
endfacet
facet normal 0 -1 0
outer loop
vertex 42.716169741487754 -70.8 0
vertex 39.82209164531613 -70.8 40
vertex -16.250984659135156 -70.8 40
endloop
endfacet
facet normal 0 -1 0
outer loop
vertex 42.716169741487754 -70.8 0
vertex -16.250984659135156 -70.8 40
vertex -17.283830258512246 -70.8 39.07002164518565
endloop
endfacet
facet normal 0 -1 0
outer loop
vertex 42.716169741487754 -70.8 0
vertex -17.283830258512246 -70.8 39.07002164518565
vertex -17.283830258512246 -70.8 34.44671077426877
endloop
endfacet
facet normal 0 -1 0
outer loop
vertex 42.716169741487754 -70.8 0
vertex -17.283830258512246 -70.8 34.44671077426877
vertex 13.732127435397384 -70.8 0
endloop
endfacet
facet normal 0 0 -1
outer loop
vertex 42.716169741487754 -10.8 0
vertex 42.716169741487754 -70.8 0
vertex -17.283830258512246 -70.8 0
endloop
endfacet
facet normal 0 0 -1
outer loop
vertex 42.716169741487754 -10.8 0
vertex -17.283830258512246 -70.8 0
vertex -17.283830258512246 -10.8 0
endloop
endfacet
endsolid craftml
