solid craftml
facet normal 1 0 0
outer loop
vertex 10 0 5
vertex 10 -10 5
vertex 10 -10 0
endloop
endfacet
facet normal 1 0 0
outer loop
vertex 10 0 5
vertex 10 -10 0
vertex 10 0 0
endloop
endfacet
facet normal 0 -1 0
outer loop
vertex 10 -10 0
vertex 10 -10 5
vertex 9.998489885977783 -10 5
endloop
endfacet
facet normal 0 -1 0
outer loop
vertex 10 -10 0
vertex 9.998489885977783 -10 5
vertex 9.998489885977783 -10 0
endloop
endfacet
facet normal 0 -1 0
outer loop
vertex 0.0007550570111067856 -10 5
vertex 0 -10 5
vertex 0 -10 0
endloop
endfacet
facet normal 0 -1 0
outer loop
vertex 0.0007550570111067856 -10 5
vertex 0 -10 0
vertex 0.0007550570111064741 -10 0
endloop
endfacet
facet normal 0 0 -1
outer loop
vertex 10 0 0
vertex 10 -10 0
vertex 2.3165249758739623 -10 0
endloop
endfacet
facet normal 0 0 -1
outer loop
vertex 10 0 0
vertex 2.3165249758739623 -10 0
vertex 0.9999999999999998 0 0
endloop
endfacet
facet normal 0 0 -1
outer loop
vertex 0.3165249758739539 -10 0
vertex 0 -10 0
vertex 0 -7.595754112725176 0
endloop
endfacet
facet normal 0 0 -1
outer loop
vertex 2.3165249758739623 -10 0
vertex 0.3165249758739539 -10 0
vertex 0 -7.595754112725176 0
endloop
endfacet
facet normal 0 0 -1
outer loop
vertex 2.3165249758739623 -10 0
vertex 0 -7.595754112725176 0
vertex 0 -2.5907702751760278 0
endloop
endfacet
facet normal 0 0 -1
outer loop
vertex 2.3165249758739623 -10 0
vertex 0 -2.5907702751760278 0
vertex 1.9659258262890722 -7.336935067622638 0
endloop
endfacet
facet normal 0 0 -1
outer loop
vertex 0 -2.5907702751760278 0
vertex 0 -1.6286262797369315 0
vertex 1.46592582628907 -3.5390580112600585 0
endloop
endfacet
facet normal 0 0 -1
outer loop
vertex 0 -2.5907702751760278 0
vertex 1.46592582628907 -3.5390580112600585 0
vertex 1.9659258262890722 -7.336935067622638 0
endloop
endfacet
facet normal 0 0 -1
outer loop
vertex 0 -1.6286262797369315 0
vertex 0 -1.2496888977739191 0
vertex 1.2953851375880148 -2.243672873672042 0
endloop
endfacet
facet normal 0 0 -1
outer loop
vertex 0 -1.6286262797369315 0
vertex 1.2953851375880148 -2.243672873672042 0
vertex 1.46592582628907 -3.5390580112600585 0
endloop
endfacet
facet normal 0 0 -1
outer loop
vertex 0 -1.2496888977739191 0
vertex 0 -1.073132184970986 0
vertex 1.207106781186548 -1.573132184970986 0
endloop
endfacet
facet normal 0 0 -1
outer loop
vertex 0 -1.2496888977739191 0
vertex 1.207106781186548 -1.573132184970986 0
vertex 1.2953851375880148 -2.243672873672042 0
endloop
endfacet
facet normal 0 0 -1
outer loop
vertex 0 -1.073132184970986 0
vertex 0 -0.9999999999999997 0
vertex 1.151612686420603 -1.151612686420603 0
endloop
endfacet
facet normal 0 0 -1
outer loop
vertex 0 -1.073132184970986 0
vertex 1.151612686420603 -1.151612686420603 0
vertex 1.207106781186548 -1.573132184970986 0
endloop
endfacet
facet normal 0 0 -1
outer loop
vertex 1.1123724356957947 -0.8535533905932743 0
vertex 1.151612686420603 -1.151612686420603 0
vertex 1.5543122344752192e-15 -0.9999999999999999 0
endloop
endfacet
facet normal 0 0 -1
outer loop
vertex 1.0822623322995881 -0.6248444488869599 0
vertex 1.1123724356957947 -0.8535533905932743 0
vertex 0.2588190451025215 -0.9659258262890684 0
endloop
endfacet
facet normal 0 0 -1
outer loop
vertex 1.0576775358252053 -0.4381043799561558 0
vertex 1.0822623322995881 -0.6248444488869599 0
vertex 0.4999999999999988 -0.8660254037844396 0
endloop
endfacet
facet normal 0 0 -1
outer loop
vertex 1.036566092485493 -0.2777470473829726 0
vertex 1.0576775358252053 -0.4381043799561558 0
vertex 0.7071067811865476 -0.7071067811865478 0
endloop
endfacet
facet normal 0 0 -1
outer loop
vertex 1.0176380902050415 -0.13397459621556268 0
vertex 1.036566092485493 -0.2777470473829726 0
vertex 0.8660254037844398 -0.49999999999999867 0
endloop
endfacet
facet normal 0 0 -1
outer loop
vertex 0.9999999999999996 0 0
vertex 1.0176380902050415 -0.13397459621556268 0
vertex 0.9659258262890673 -0.25881904510252446 0
endloop
endfacet
facet normal 0 0 1
outer loop
vertex 9.998489885977783 -10 5
vertex 10 -10 5
vertex 10 0 5
endloop
endfacet
facet normal 0 0 1
outer loop
vertex 9.998489885977783 -10 5
vertex 10 0 5
vertex 9.998489885977783 0 5
endloop
endfacet
facet normal 0 0 1
outer loop
vertex 2.3165249758739628 -10 5
vertex 9.998489885977783 -10 5
vertex 9.998489885977783 0 5
endloop
endfacet
facet normal 0 0 1
outer loop
vertex 2.3165249758739628 -10 5
vertex 9.998489885977783 0 5
vertex 1.0000000000000018 0 5
endloop
endfacet
facet normal 0 0 1
outer loop
vertex 0 -10 5
vertex 0.316524975873954 -10 5
vertex 0 -7.595754112725177 5
endloop
endfacet
facet normal 0 0 1
outer loop
vertex 0.316524975873954 -10 5
vertex 2.3165249758739628 -10 5
vertex 1.9659258262890733 -7.33693506762264 5
endloop
endfacet
facet normal 0 0 1
outer loop
vertex 0.316524975873954 -10 5
vertex 1.9659258262890733 -7.33693506762264 5
vertex 0 -2.5907702751760273 5
endloop
endfacet
facet normal 0 0 1
outer loop
vertex 0.316524975873954 -10 5
vertex 0 -2.5907702751760273 5
vertex 0 -7.595754112725177 5
endloop
endfacet
facet normal 0 0 1
outer loop
vertex 1.9659258262890733 -7.33693506762264 5
vertex 1.4659258262890718 -3.5390580112600607 5
vertex 0 -1.6286262797369315 5
endloop
endfacet
facet normal 0 0 1
outer loop
vertex 1.9659258262890733 -7.33693506762264 5
vertex 0 -1.6286262797369315 5
vertex 0 -2.5907702751760273 5
endloop
endfacet
facet normal 0 0 1
outer loop
vertex 1.4659258262890718 -3.5390580112600607 5
vertex 1.2953851375880165 -2.2436728736720433 5
vertex 0 -1.2496888977739191 5
endloop
endfacet
facet normal 0 0 1
outer loop
vertex 1.4659258262890718 -3.5390580112600607 5
vertex 0 -1.2496888977739191 5
vertex 0 -1.6286262797369315 5
endloop
endfacet
facet normal 0 0 1
outer loop
vertex 1.2953851375880165 -2.2436728736720433 5
vertex 1.2071067811865497 -1.5731321849709865 5
vertex 0 -1.0731321849709858 5
endloop
endfacet
facet normal 0 0 1
outer loop
vertex 1.2953851375880165 -2.2436728736720433 5
vertex 0 -1.0731321849709858 5
vertex 0 -1.2496888977739191 5
endloop
endfacet
facet normal 0 0 1
outer loop
vertex 1.2071067811865497 -1.5731321849709865 5
vertex 1.1516126864206049 -1.1516126864206035 5
vertex 0 -0.9999999999999997 5
endloop
endfacet
facet normal 0 0 1
outer loop
vertex 1.2071067811865497 -1.5731321849709865 5
vertex 0 -0.9999999999999997 5
vertex 0 -1.0731321849709858 5
endloop
endfacet
facet normal 0 0 1
outer loop
vertex 1.1516126864206049 -1.1516126864206035 5
vertex 1.1123724356957965 -0.8535533905932742 5
vertex 1.7011497933739645e-15 -0.9999999999999999 5
endloop
endfacet
facet normal 0 0 1
outer loop
vertex 1.1123724356957965 -0.8535533905932742 5
vertex 1.08226233229959 -0.6248444488869591 5
vertex 0.2588190451025228 -0.965925826289068 5
endloop
endfacet
facet normal 0 0 1
outer loop
vertex 1.08226233229959 -0.6248444488869591 5
vertex 1.057677535825207 -0.4381043799561543 5
vertex 0.499999999999999 -0.8660254037844396 5
endloop
endfacet
facet normal 0 0 1
outer loop
vertex 1.057677535825207 -0.4381043799561543 5
vertex 1.0365660924854947 -0.2777470473829703 5
vertex 0.7071067811865472 -0.7071067811865481 5
endloop
endfacet
facet normal 0 0 1
outer loop
vertex 1.0365660924854947 -0.2777470473829703 5
vertex 1.017638090205043 -0.13397459621555874 5
vertex 0.8660254037844396 -0.4999999999999989 5
endloop
endfacet
facet normal 0 0 1
outer loop
vertex 1.017638090205043 -0.13397459621555874 5
vertex 1.0000000000000018 0 5
vertex 0.9659258262890673 -0.2588190451025243 5
endloop
endfacet
facet normal -4.3297802811774646e-17 4.3297802811774646e-17 -1
outer loop
vertex 9.998489885977783 -10 4.4405651754048394e-16
vertex 9.998489885977783 -19.997734828966674 1.1176566351473242e-17
vertex 0.0007550570111085619 -10 8.769364687294946e-16
endloop
endfacet
facet normal 1 0 0
outer loop
vertex 9.998489885977783 -10 5
vertex 9.998489885977783 -19.997734828966674 5
vertex 9.998489885977783 -19.997734828966674 1.1176566351473242e-17
endloop
endfacet
facet normal 1 0 0
outer loop
vertex 9.998489885977783 -10 5
vertex 9.998489885977783 -19.997734828966674 1.1176566351473242e-17
vertex 9.998489885977783 -10 4.4405651754048394e-16
endloop
endfacet
facet normal 0 0 1
outer loop
vertex 9.998489885977783 -19.997734828966674 5
vertex 9.998489885977783 -10 5
vertex 0.0007550570111085619 -10 5
endloop
endfacet
facet normal -0.7071067811865476 -0.7071067811865476 0
outer loop
vertex 9.998489885977783 -19.997734828966674 1.1176566351473242e-17
vertex 9.998489885977783 -19.997734828966674 5
vertex 0.0007550570111085619 -10 5
endloop
endfacet
facet normal -0.7071067811865476 -0.7071067811865476 0
outer loop
vertex 9.998489885977783 -19.997734828966674 1.1176566351473242e-17
vertex 0.0007550570111085619 -10 5
vertex 0.0007550570111085619 -10 8.769364687294947e-16
endloop
endfacet
facet normal 0 -1 0
outer loop
vertex 6.123233995736766e-16 -10 5
vertex -10 -10 5
vertex -10 -10 0
endloop
endfacet
facet normal 0 -1 0
outer loop
vertex 6.123233995736766e-16 -10 5
vertex -10 -10 0
vertex 6.123233995736766e-16 -10 0
endloop
endfacet
facet normal -1 0 0
outer loop
vertex -10 -9.999244942988891 5
vertex -10 -9.998489885977783 5
vertex -10 -9.998489885977783 0
endloop
endfacet
facet normal -1 0 0
outer loop
vertex -10 -9.999244942988891 5
vertex -10 -9.998489885977783 0
vertex -10 -9.999244942988891 0
endloop
endfacet
facet normal -1 0 0
outer loop
vertex -10 -0.0007550570111085619 5
vertex -10 -6.123233995736766e-16 5
vertex -10 -6.123233995736766e-16 0
endloop
endfacet
facet normal -1 0 0
outer loop
vertex -10 -0.0007550570111085619 5
vertex -10 -6.123233995736766e-16 0
vertex -10 -0.0007550570111083425 0
endloop
endfacet
facet normal -1 0 0
outer loop
vertex -10 -10 0
vertex -10 -10 5
vertex -10 -9.999244942988891 5
endloop
endfacet
facet normal -1 0 0
outer loop
vertex -10 -10 0
vertex -10 -9.999244942988891 5
vertex -10 -9.999244942988891 0
endloop
endfacet
facet normal 0 0 -1
outer loop
vertex -10 -0.316524975873957 0
vertex -10 -6.123233995736766e-16 0
vertex -7.595754112725163 -4.651057980629608e-16 0
endloop
endfacet
facet normal 0 0 -1
outer loop
vertex -10 -3.069003438759969 0
vertex -10 -0.316524975873957 0
vertex -7.595754112725163 -4.651057980629608e-16 0
endloop
endfacet
facet normal 0 0 -1
outer loop
vertex -10 -3.069003438759969 0
vertex -7.595754112725163 -4.651057980629608e-16 0
vertex -2.590770275176026 -1.5863892624102138e-16 0
endloop
endfacet
facet normal 0 0 -1
outer loop
vertex -10 -6.423580982015682 0
vertex -10 -3.069003438759969 0
vertex -2.590770275176026 -1.5863892624102138e-16 0
endloop
endfacet
facet normal 0 0 -1
outer loop
vertex -10 -6.423580982015682 0
vertex -2.590770275176026 -1.5863892624102138e-16 0
vertex -1.6286262797369317 -9.972459802435477e-17 0
endloop
endfacet
facet normal 0 0 -1
outer loop
vertex -8.92237940194144 -9.999244942988891 0
vertex -10 -9.999244942988891 0
vertex -10 -6.423580982015682 0
endloop
endfacet
facet normal 0 0 -1
outer loop
vertex -8.92237940194144 -9.999244942988891 0
vertex -10 -6.423580982015682 0
vertex -1.6286262797369317 -9.972459802435477e-17 0
endloop
endfacet
facet normal 0 0 -1
outer loop
vertex -8.92237940194144 -9.999244942988891 0
vertex -1.6286262797369317 -9.972459802435477e-17 0
vertex -1.249688897773919 -7.652137542944067e-17 0
endloop
endfacet
facet normal 0 0 -1
outer loop
vertex -5.214955053847569 -9.999244942988891 0
vertex -8.92237940194144 -9.999244942988891 0
vertex -1.249688897773919 -7.652137542944067e-17 0
endloop
endfacet
facet normal 0 0 -1
outer loop
vertex -5.214955053847569 -9.999244942988891 0
vertex -1.249688897773919 -7.652137542944067e-17 0
vertex -1.0731321849709863 -6.571039476933617e-17 0
endloop
endfacet
facet normal 0 0 -1
outer loop
vertex -2.3164255707326276 -9.999244942988891 0
vertex -5.214955053847569 -9.999244942988891 0
vertex -1.0731321849709863 -6.571039476933617e-17 0
endloop
endfacet
facet normal 0 0 -1
outer loop
vertex -2.3164255707326276 -9.999244942988891 0
vertex -1.0731321849709863 -6.571039476933617e-17 0
vertex -1 -6.123233995736765e-17 0
endloop
endfacet
facet normal 0 0 -1
outer loop
vertex 6.122771656660852e-16 -9.999244942988891 0
vertex -2.3164255707326276 -9.999244942988891 0
vertex -1 -6.123233995736765e-17 0
endloop
endfacet
facet normal 0 0 -1
outer loop
vertex 6.122771656660852e-16 -9.999244942988891 0
vertex -1 -6.123233995736765e-17 0
vertex 4.651057980629619e-16 -7.595754112725181 0
endloop
endfacet
facet normal 0 0 -1
outer loop
vertex 1.586389262410215e-16 -2.5907702751760278 0
vertex 4.651057980629619e-16 -7.595754112725181 0
vertex -0.9659258262890684 -0.25881904510252074 0
endloop
endfacet
facet normal 0 0 -1
outer loop
vertex 9.972459802435478e-17 -1.6286262797369317 0
vertex 1.586389262410215e-16 -2.5907702751760278 0
vertex -0.8660254037844388 -0.5 0
endloop
endfacet
facet normal 0 0 -1
outer loop
vertex 7.65213754294407e-17 -1.2496888977739191 0
vertex 9.972459802435478e-17 -1.6286262797369317 0
vertex -0.7071067811865481 -0.707106781186547 0
endloop
endfacet
facet normal 0 0 -1
outer loop
vertex 6.571039476933616e-17 -1.0731321849709858 0
vertex 7.65213754294407e-17 -1.2496888977739191 0
vertex -0.5000000000000004 -0.8660254037844384 0
endloop
endfacet
facet normal 0 0 -1
outer loop
vertex 6.123233995736764e-17 -0.9999999999999997 0
vertex 6.571039476933616e-17 -1.0731321849709858 0
vertex -0.2588190451025216 -0.9659258262890678 0
endloop
endfacet
facet normal 0 0 -1
outer loop
vertex 6.122771656660852e-16 -9.999244942988891 0
vertex 6.123233995736766e-16 -10 0
vertex -10 -10 0
endloop
endfacet
facet normal 0 0 -1
outer loop
vertex 6.122771656660852e-16 -9.999244942988891 0
vertex -10 -10 0
vertex -10 -9.999244942988891 0
endloop
endfacet
facet normal 0 0 1
outer loop
vertex -10 -9.998489885977783 5
vertex -10 -9.999244942988891 5
vertex 6.122771656660852e-16 -9.999244942988891 5
endloop
endfacet
facet normal 0 0 1
outer loop
vertex -10 -9.998489885977783 5
vertex 6.122771656660852e-16 -9.999244942988891 5
vertex 6.122309317584938e-16 -9.998489885977783 5
endloop
endfacet
facet normal 0 0 1
outer loop
vertex -10 -6.123233995736766e-16 5
vertex -10 -0.316524975873957 5
vertex -7.595754112725163 -4.651057980629608e-16 5
endloop
endfacet
facet normal 0 0 1
outer loop
vertex -10 -0.316524975873957 5
vertex -10 -3.0690034387599674 5
vertex -2.590770275176026 -1.586389262410214e-16 5
endloop
endfacet
facet normal 0 0 1
outer loop
vertex -10 -0.316524975873957 5
vertex -2.590770275176026 -1.586389262410214e-16 5
vertex -7.595754112725163 -4.651057980629608e-16 5
endloop
endfacet
facet normal 0 0 1
outer loop
vertex -10 -3.0690034387599674 5
vertex -10 -6.423580982015681 5
vertex -1.6286262797369315 -9.972459802435477e-17 5
endloop
endfacet
facet normal 0 0 1
outer loop
vertex -10 -3.0690034387599674 5
vertex -1.6286262797369315 -9.972459802435477e-17 5
vertex -2.590770275176026 -1.586389262410214e-16 5
endloop
endfacet
facet normal 0 0 1
outer loop
vertex -10 -6.423580982015681 5
vertex -10 -9.998489885977783 5
vertex -8.921800026319353 -9.998489885977783 5
endloop
endfacet
facet normal 0 0 1
outer loop
vertex -10 -6.423580982015681 5
vertex -8.921800026319353 -9.998489885977783 5
vertex -1.249688897773919 -7.652137542944069e-17 5
endloop
endfacet
facet normal 0 0 1
outer loop
vertex -10 -6.423580982015681 5
vertex -1.249688897773919 -7.652137542944069e-17 5
vertex -1.6286262797369315 -9.972459802435477e-17 5
endloop
endfacet
facet normal 0 0 1
outer loop
vertex -8.921800026319353 -9.998489885977783 5
vertex -5.214642298993203 -9.998489885977783 5
vertex -1.073132184970986 -6.571039476933619e-17 5
endloop
endfacet
facet normal 0 0 1
outer loop
vertex -8.921800026319353 -9.998489885977783 5
vertex -1.073132184970986 -6.571039476933619e-17 5
vertex -1.249688897773919 -7.652137542944069e-17 5
endloop
endfacet
facet normal 0 0 1
outer loop
vertex -5.214642298993203 -9.998489885977783 5
vertex -2.3163261655912946 -9.998489885977783 5
vertex -1 -6.123233995736767e-17 5
endloop
endfacet
facet normal 0 0 1
outer loop
vertex -5.214642298993203 -9.998489885977783 5
vertex -1 -6.123233995736767e-17 5
vertex -1.073132184970986 -6.571039476933619e-17 5
endloop
endfacet
facet normal 0 0 1
outer loop
vertex -2.3163261655912946 -9.998489885977783 5
vertex 6.122309317584938e-16 -9.998489885977783 5
vertex 4.651057980629619e-16 -7.595754112725181 5
endloop
endfacet
facet normal 0 0 1
outer loop
vertex -2.3163261655912946 -9.998489885977783 5
vertex 4.651057980629619e-16 -7.595754112725181 5
vertex -1 -6.123233995736767e-17 5
endloop
endfacet
facet normal 0 0 1
outer loop
vertex 4.651057980629619e-16 -7.595754112725181 5
vertex 1.5863892624102153e-16 -2.5907702751760278 5
vertex -0.9659258262890684 -0.2588190451025207 5
endloop
endfacet
facet normal 0 0 1
outer loop
vertex 1.5863892624102153e-16 -2.5907702751760278 5
vertex 9.972459802435479e-17 -1.628626279736932 5
vertex -0.866025403784439 -0.4999999999999991 5
endloop
endfacet
facet normal 0 0 1
outer loop
vertex 9.972459802435479e-17 -1.628626279736932 5
vertex 7.65213754294407e-17 -1.2496888977739191 5
vertex -0.7071067811865468 -0.7071067811865483 5
endloop
endfacet
facet normal 0 0 1
outer loop
vertex 7.65213754294407e-17 -1.2496888977739191 5
vertex 6.571039476933617e-17 -1.073132184970986 5
vertex -0.5000000000000008 -0.8660254037844383 5
endloop
endfacet
facet normal 0 0 1
outer loop
vertex 6.571039476933617e-17 -1.073132184970986 5
vertex 6.123233995736765e-17 -0.9999999999999997 5
vertex -0.2588190451025214 -0.9659258262890679 5
endloop
endfacet
facet normal 0 0 1
outer loop
vertex -10 -9.999244942988891 5
vertex -10 -10 5
vertex 6.123233995736766e-16 -10 5
endloop
endfacet
facet normal 0 0 1
outer loop
vertex -10 -9.999244942988891 5
vertex 6.123233995736766e-16 -10 5
vertex 6.122771656660852e-16 -9.999244942988891 5
endloop
endfacet
facet normal 4.329780281177462e-17 4.3297802811774677e-17 -1
outer loop
vertex -10 -9.998489885977783 4.4405651754048394e-16
vertex -19.997734828966674 -9.998489885977783 1.1176566351473242e-17
vertex -10 -0.0007550570111085619 8.769364687294946e-16
endloop
endfacet
facet normal 0 -1 0
outer loop
vertex -10 -9.998489885977783 5
vertex -19.997734828966674 -9.998489885977783 5
vertex -19.997734828966674 -9.998489885977783 1.1176566351473242e-17
endloop
endfacet
facet normal 0 -1 0
outer loop
vertex -10 -9.998489885977783 5
vertex -19.997734828966674 -9.998489885977783 1.1176566351473242e-17
vertex -10 -9.998489885977783 4.4405651754048394e-16
endloop
endfacet
facet normal 0 0 1
outer loop
vertex -19.997734828966674 -9.998489885977783 5
vertex -10 -9.998489885977783 5
vertex -10 -0.0007550570111094501 5
endloop
endfacet
facet normal -0.7071067811865476 0.7071067811865476 0
outer loop
vertex -19.997734828966674 -9.998489885977783 1.1176566351473242e-17
vertex -19.997734828966674 -9.998489885977783 5
vertex -10 -0.0007550570111085619 5
endloop
endfacet
facet normal -0.7071067811865476 0.7071067811865476 0
outer loop
vertex -19.997734828966674 -9.998489885977783 1.1176566351473242e-17
vertex -10 -0.0007550570111085619 5
vertex -10 -0.0007550570111094501 8.769364687294947e-16
endloop
endfacet
facet normal -1 0 0
outer loop
vertex -10 -1.2246467991473533e-15 5
vertex -10.000000000000002 9.999999999999998 5
vertex -10.000000000000002 9.999999999999998 0
endloop
endfacet
facet normal -1 0 0
outer loop
vertex -10 -1.2246467991473533e-15 5
vertex -10.000000000000002 9.999999999999998 0
vertex -10 -1.2246467991473533e-15 0
endloop
endfacet
facet normal 0 1 0
outer loop
vertex -9.999244942988891 9.999999999999998 5
vertex -9.998489885977785 9.999999999999998 5
vertex -9.998489885977785 9.999999999999998 0
endloop
endfacet
facet normal 0 1 0
outer loop
vertex -9.999244942988891 9.999999999999998 5
vertex -9.998489885977785 9.999999999999998 0
vertex -9.999244942988891 9.999999999999998 0
endloop
endfacet
facet normal 0 1 0
outer loop
vertex -0.0007550570111103383 10 5
vertex -1.2246467991473533e-15 10 5
vertex -1.2246467991473533e-15 10 0
endloop
endfacet
facet normal 0 1 0
outer loop
vertex -0.0007550570111103383 10 5
vertex -1.2246467991473533e-15 10 0
vertex -0.0007550570111089547 10 0
endloop
endfacet
facet normal 0 1 0
outer loop
vertex -10.000000000000002 9.999999999999998 0
vertex -10.000000000000002 9.999999999999998 5
vertex -9.999244942988891 9.999999999999998 5
endloop
endfacet
facet normal 0 1 0
outer loop
vertex -10.000000000000002 9.999999999999998 0
vertex -9.999244942988891 9.999999999999998 5
vertex -9.999244942988891 9.999999999999998 0
endloop
endfacet
facet normal 0 0 -1
outer loop
vertex -0.31652497587396233 10 0
vertex -1.2246467991473533e-15 10 0
vertex -9.302115961259172e-16 7.595754112725128 0
endloop
endfacet
facet normal 0 0 -1
outer loop
vertex -3.069003438759953 10 0
vertex -0.31652497587396233 10 0
vertex -9.302115961259172e-16 7.595754112725128 0
endloop
endfacet
facet normal 0 0 -1
outer loop
vertex -3.069003438759953 10 0
vertex -9.302115961259172e-16 7.595754112725128 0
vertex -3.1727785248204364e-16 2.590770275176033 0
endloop
endfacet
facet normal 0 0 -1
outer loop
vertex -6.423580982015697 10 0
vertex -3.069003438759953 10 0
vertex -3.1727785248204364e-16 2.590770275176033 0
endloop
endfacet
facet normal 0 0 -1
outer loop
vertex -6.423580982015697 10 0
vertex -3.1727785248204364e-16 2.590770275176033 0
vertex -1.9944919604870926e-16 1.6286262797369293 0
endloop
endfacet
facet normal 0 0 -1
outer loop
vertex -9.999244942988891 8.922379401941436 0
vertex -9.999244942988891 9.999999999999998 0
vertex -6.423580982015697 10 0
endloop
endfacet
facet normal 0 0 -1
outer loop
vertex -9.999244942988891 8.922379401941436 0
vertex -6.423580982015697 10 0
vertex -1.9944919604870926e-16 1.6286262797369293 0
endloop
endfacet
facet normal 0 0 -1
outer loop
vertex -9.999244942988891 8.922379401941436 0
vertex -1.9944919604870926e-16 1.6286262797369293 0
vertex -1.5304275085888142e-16 1.2496888977739191 0
endloop
endfacet
facet normal 0 0 -1
outer loop
vertex -9.999244942988891 5.214955053847573 0
vertex -9.999244942988891 8.922379401941436 0
vertex -1.5304275085888142e-16 1.2496888977739191 0
endloop
endfacet
facet normal 0 0 -1
outer loop
vertex -9.999244942988891 5.214955053847573 0
vertex -1.5304275085888142e-16 1.2496888977739191 0
vertex -1.3142078953867242e-16 1.0731321849709863 0
endloop
endfacet
facet normal 0 0 -1
outer loop
vertex -9.999244942988891 2.3164255707326245 0
vertex -9.999244942988891 5.214955053847573 0
vertex -1.3142078953867242e-16 1.0731321849709863 0
endloop
endfacet
facet normal 0 0 -1
outer loop
vertex -9.999244942988891 2.3164255707326245 0
vertex -1.3142078953867242e-16 1.0731321849709863 0
vertex -1.2246467991473535e-16 0.9999999999999999 0
endloop
endfacet
facet normal 0 0 -1
outer loop
vertex -9.999244942988891 -1.2245543313321705e-15 0
vertex -9.999244942988891 2.3164255707326245 0
vertex -1.7763568394002505e-15 1.0000000000000002 0
endloop
endfacet
facet normal 0 0 -1
outer loop
vertex -9.999244942988891 -1.2245543313321705e-15 0
vertex -1.7763568394002505e-15 1.0000000000000002 0
vertex -7.5957541127251655 -9.302115961259217e-16 0
endloop
endfacet
facet normal 0 0 -1
outer loop
vertex -2.5907702751760264 -3.172778524820428e-16 0
vertex -7.5957541127251655 -9.302115961259217e-16 0
vertex -0.25881904510252074 0.9659258262890688 0
endloop
endfacet
facet normal 0 0 -1
outer loop
vertex -1.6286262797369317 -1.9944919604870953e-16 0
vertex -2.5907702751760264 -3.172778524820428e-16 0
vertex -0.4999999999999991 0.8660254037844394 0
endloop
endfacet
facet normal 0 0 -1
outer loop
vertex -1.2496888977739191 -1.5304275085888137e-16 0
vertex -1.6286262797369317 -1.9944919604870953e-16 0
vertex -0.7071067811865472 0.7071067811865479 0
endloop
endfacet
facet normal 0 0 -1
outer loop
vertex -1.0731321849709863 -1.3142078953867235e-16 0
vertex -1.2496888977739191 -1.5304275085888137e-16 0
vertex -0.8660254037844386 0.5000000000000002 0
endloop
endfacet
facet normal 0 0 -1
outer loop
vertex -1 -1.224646799147353e-16 0
vertex -1.0731321849709863 -1.3142078953867235e-16 0
vertex -0.9659258262890682 0.2588190451025212 0
endloop
endfacet
facet normal 0 0 -1
outer loop
vertex -9.999244942988891 -1.2245543313321705e-15 0
vertex -10 -1.2246467991473533e-15 0
vertex -10.000000000000002 9.999999999999998 0
endloop
endfacet
facet normal 0 0 -1
outer loop
vertex -9.999244942988891 -1.2245543313321705e-15 0
vertex -10.000000000000002 9.999999999999998 0
vertex -9.999244942988891 9.999999999999998 0
endloop
endfacet
facet normal 0 0 1
outer loop
vertex -9.998489885977785 9.999999999999998 5
vertex -9.999244942988891 9.999999999999998 5
vertex -9.999244942988891 -1.2245543313321705e-15 5
endloop
endfacet
facet normal 0 0 1
outer loop
vertex -9.998489885977785 9.999999999999998 5
vertex -9.999244942988891 -1.2245543313321705e-15 5
vertex -9.998489885977785 -1.2244618635169879e-15 5
endloop
endfacet
facet normal 0 0 1
outer loop
vertex -1.2246467991473533e-15 10 5
vertex -0.3165249758739636 10 5
vertex -9.302115961259172e-16 7.595754112725127 5
endloop
endfacet
facet normal 0 0 1
outer loop
vertex -0.3165249758739636 10 5
vertex -3.069003438759955 10 5
vertex -3.172778524820438e-16 2.590770275176034 5
endloop
endfacet
facet normal 0 0 1
outer loop
vertex -0.3165249758739636 10 5
vertex -3.172778524820438e-16 2.590770275176034 5
vertex -9.302115961259172e-16 7.595754112725127 5
endloop
endfacet
facet normal 0 0 1
outer loop
vertex -3.069003438759955 10 5
vertex -6.423580982015696 10 5
vertex -1.994491960487093e-16 1.6286262797369297 5
endloop
endfacet
facet normal 0 0 1
outer loop
vertex -3.069003438759955 10 5
vertex -1.994491960487093e-16 1.6286262797369297 5
vertex -3.172778524820438e-16 2.590770275176034 5
endloop
endfacet
facet normal 0 0 1
outer loop
vertex -6.423580982015696 10 5
vertex -9.998489885977785 9.999999999999998 5
vertex -9.998489885977785 8.921800026319351 5
endloop
endfacet
facet normal 0 0 1
outer loop
vertex -6.423580982015696 10 5
vertex -9.998489885977785 8.921800026319351 5
vertex -1.5304275085888142e-16 1.2496888977739191 5
endloop
endfacet
facet normal 0 0 1
outer loop
vertex -6.423580982015696 10 5
vertex -1.5304275085888142e-16 1.2496888977739191 5
vertex -1.994491960487093e-16 1.6286262797369297 5
endloop
endfacet
facet normal 0 0 1
outer loop
vertex -9.998489885977785 8.921800026319351 5
vertex -9.998489885977785 5.214642298993208 5
vertex -1.314207895386724e-16 1.0731321849709863 5
endloop
endfacet
facet normal 0 0 1
outer loop
vertex -9.998489885977785 8.921800026319351 5
vertex -1.314207895386724e-16 1.0731321849709863 5
vertex -1.5304275085888142e-16 1.2496888977739191 5
endloop
endfacet
facet normal 0 0 1
outer loop
vertex -9.998489885977785 5.214642298993208 5
vertex -9.998489885977785 2.316326165591292 5
vertex -1.2246467991473535e-16 0.9999999999999999 5
endloop
endfacet
facet normal 0 0 1
outer loop
vertex -9.998489885977785 5.214642298993208 5
vertex -1.2246467991473535e-16 0.9999999999999999 5
vertex -1.314207895386724e-16 1.0731321849709863 5
endloop
endfacet
facet normal 0 0 1
outer loop
vertex -9.998489885977785 2.316326165591292 5
vertex -9.998489885977785 -1.2244618635169879e-15 5
vertex -7.5957541127251655 -9.302115961259217e-16 5
endloop
endfacet
facet normal 0 0 1
outer loop
vertex -9.998489885977785 2.316326165591292 5
vertex -7.5957541127251655 -9.302115961259217e-16 5
vertex -5.477521282582271e-16 1 5
endloop
endfacet
facet normal 0 0 1
outer loop
vertex -7.5957541127251655 -9.302115961259217e-16 5
vertex -2.590770275176027 -3.1727785248204286e-16 5
vertex -0.25881904510252124 0.9659258262890682 5
endloop
endfacet
facet normal 0 0 1
outer loop
vertex -2.590770275176027 -3.1727785248204286e-16 5
vertex -1.628626279736932 -1.9944919604870953e-16 5
vertex -0.5000000000000004 0.8660254037844385 5
endloop
endfacet
facet normal 0 0 1
outer loop
vertex -1.628626279736932 -1.9944919604870953e-16 5
vertex -1.2496888977739191 -1.5304275085888135e-16 5
vertex -0.7071067811865469 0.7071067811865483 5
endloop
endfacet
facet normal 0 0 1
outer loop
vertex -1.2496888977739191 -1.5304275085888135e-16 5
vertex -1.0731321849709863 -1.3142078953867232e-16 5
vertex -0.8660254037844386 0.5000000000000001 5
endloop
endfacet
facet normal 0 0 1
outer loop
vertex -1.0731321849709863 -1.3142078953867232e-16 5
vertex -1 -1.2246467991473527e-16 5
vertex -0.9659258262890684 0.25881904510252046 5
endloop
endfacet
facet normal 0 0 1
outer loop
vertex -9.999244942988891 9.999999999999998 5
vertex -10.000000000000002 9.999999999999998 5
vertex -10 -1.2246467991473533e-15 5
endloop
endfacet
facet normal 0 0 1
outer loop
vertex -9.999244942988891 9.999999999999998 5
vertex -10 -1.2246467991473533e-15 5
vertex -9.999244942988891 -1.2245543313321705e-15 5
endloop
endfacet
facet normal 4.3297802811774677e-17 -4.329780281177462e-17 -1
outer loop
vertex -9.998489885977783 10 4.4405651754048394e-16
vertex -9.998489885977786 19.99773482896667 1.1176566351473242e-17
vertex -0.0007550570111067856 10 8.769364687294948e-16
endloop
endfacet
facet normal -1 0 0
outer loop
vertex -9.998489885977783 10 5
vertex -9.998489885977786 19.99773482896667 5
vertex -9.998489885977786 19.99773482896667 1.1176566351473242e-17
endloop
endfacet
facet normal -1 0 0
outer loop
vertex -9.998489885977783 10 5
vertex -9.998489885977786 19.99773482896667 1.1176566351473242e-17
vertex -9.998489885977783 10 4.4405651754048394e-16
endloop
endfacet
facet normal 0 0 1
outer loop
vertex -9.998489885977786 19.99773482896667 5
vertex -9.998489885977783 10 5
vertex -0.0007550570111076744 10 5
endloop
endfacet
facet normal 0.7071067811865476 0.7071067811865476 0
outer loop
vertex -9.998489885977786 19.99773482896667 1.1176566351473242e-17
vertex -9.998489885977786 19.99773482896667 5
vertex -0.0007550570111067856 10 5
endloop
endfacet
facet normal 0.7071067811865476 0.7071067811865476 0
outer loop
vertex -9.998489885977786 19.99773482896667 1.1176566351473242e-17
vertex -0.0007550570111067856 10 5
vertex -0.0007550570111076744 10 8.769364687294948e-16
endloop
endfacet
facet normal 0 1 0
outer loop
vertex -1.8369701987210296e-15 10 5
vertex 9.999999999999998 10.000000000000002 5
vertex 9.999999999999998 10.000000000000002 0
endloop
endfacet
facet normal 0 1 0
outer loop
vertex -1.8369701987210296e-15 10 5
vertex 9.999999999999998 10.000000000000002 0
vertex -1.8369701987210296e-15 10 0
endloop
endfacet
facet normal 1 0 0
outer loop
vertex 9.999999999999998 9.999244942988891 5
vertex 9.999999999999998 9.998489885977786 5
vertex 9.999999999999998 9.998489885977786 0
endloop
endfacet
facet normal 1 0 0
outer loop
vertex 9.999999999999998 9.999244942988891 5
vertex 9.999999999999998 9.998489885977786 0
vertex 9.999999999999998 9.999244942988891 0
endloop
endfacet
facet normal 1 0 0
outer loop
vertex 10 0.0007550570111103383 5
vertex 10 1.8369701987210296e-15 5
vertex 10 1.8369701987210296e-15 0
endloop
endfacet
facet normal 1 0 0
outer loop
vertex 10 0.0007550570111103383 5
vertex 10 1.8369701987210296e-15 0
vertex 10 0.0007550570111120792 0
endloop
endfacet
facet normal 1 0 0
outer loop
vertex 9.999999999999998 10.000000000000002 0
vertex 9.999999999999998 10.000000000000002 5
vertex 9.999999999999998 9.999244942988891 5
endloop
endfacet
facet normal 1 0 0
outer loop
vertex 9.999999999999998 10.000000000000002 0
vertex 9.999999999999998 9.999244942988891 5
vertex 9.999999999999998 9.999244942988891 0
endloop
endfacet
facet normal 0 0 -1
outer loop
vertex -1.8368314969982553e-15 9.999244942988891 0
vertex 9.999999999999998 9.999244942988891 0
vertex 10 1.8369701987210296e-15 0
endloop
endfacet
facet normal 0 0 -1
outer loop
vertex -1.8368314969982553e-15 9.999244942988891 0
vertex 10 1.8369701987210296e-15 0
vertex 1 1.8369701987210312e-16 0
endloop
endfacet
facet normal 0 0 -1
outer loop
vertex -1.8368314969982553e-15 9.999244942988891 0
vertex 1 1.8369701987210312e-16 0
vertex -1.3953173941888759e-15 7.59575411272513 0
endloop
endfacet
facet normal 0 0 -1
outer loop
vertex -4.759167787230657e-16 2.5907702751760344 0
vertex -1.3953173941888759e-15 7.59575411272513 0
vertex 0.965925826289068 0.2588190451025216 0
endloop
endfacet
facet normal 0 0 -1
outer loop
vertex -2.9917379407306393e-16 1.62862627973693 0
vertex -4.759167787230657e-16 2.5907702751760344 0
vertex 0.8660254037844387 0.5000000000000004 0
endloop
endfacet
facet normal 0 0 -1
outer loop
vertex -2.2956412628832205e-16 1.2496888977739191 0
vertex -2.9917379407306393e-16 1.62862627973693 0
vertex 0.7071067811865478 0.7071067811865474 0
endloop
endfacet
facet normal 0 0 -1
outer loop
vertex -1.9713118430800855e-16 1.0731321849709863 0
vertex -2.2956412628832205e-16 1.2496888977739191 0
vertex 0.5000000000000002 0.8660254037844386 0
endloop
endfacet
facet normal 0 0 -1
outer loop
vertex -1.8369701987210294e-16 0.9999999999999999 0
vertex -1.9713118430800855e-16 1.0731321849709863 0
vertex 0.25881904510252124 0.9659258262890681 0
endloop
endfacet
facet normal 0 0 -1
outer loop
vertex -1.8368314969982553e-15 9.999244942988891 0
vertex -1.8369701987210296e-15 10 0
vertex 9.999999999999998 10.000000000000002 0
endloop
endfacet
facet normal 0 0 -1
outer loop
vertex -1.8368314969982553e-15 9.999244942988891 0
vertex 9.999999999999998 10.000000000000002 0
vertex 9.999999999999998 9.999244942988891 0
endloop
endfacet
facet normal 0 0 1
outer loop
vertex 9.999999999999998 9.998489885977786 5
vertex 9.999999999999998 9.999244942988891 5
vertex -1.8368314969982553e-15 9.999244942988891 5
endloop
endfacet
facet normal 0 0 1
outer loop
vertex 9.999999999999998 9.998489885977786 5
vertex -1.8368314969982553e-15 9.999244942988891 5
vertex -1.836692795275482e-15 9.998489885977786 5
endloop
endfacet
facet normal 0 0 1
outer loop
vertex 10 1.8369701987210296e-15 5
vertex 9.999999999999998 9.998489885977786 5
vertex -1.836692795275482e-15 9.998489885977786 5
endloop
endfacet
facet normal 0 0 1
outer loop
vertex 10 1.8369701987210296e-15 5
vertex -1.836692795275482e-15 9.998489885977786 5
vertex -1.3953173941888759e-15 7.59575411272513 5
endloop
endfacet
facet normal 0 0 1
outer loop
vertex 10 1.8369701987210296e-15 5
vertex -1.3953173941888759e-15 7.59575411272513 5
vertex 0.9999999999999998 1.8369701987210292e-16 5
endloop
endfacet
facet normal 0 0 1
outer loop
vertex -1.3953173941888759e-15 7.59575411272513 5
vertex -4.759167787230656e-16 2.590770275176034 5
vertex 0.9659258262890678 0.2588190451025221 5
endloop
endfacet
facet normal 0 0 1
outer loop
vertex -4.759167787230656e-16 2.590770275176034 5
vertex -2.991737940730639e-16 1.6286262797369297 5
vertex 0.8660254037844388 0.5000000000000003 5
endloop
endfacet
facet normal 0 0 1
outer loop
vertex -2.991737940730639e-16 1.6286262797369297 5
vertex -2.2956412628832205e-16 1.2496888977739191 5
vertex 0.7071067811865478 0.7071067811865474 5
endloop
endfacet
facet normal 0 0 1
outer loop
vertex -2.2956412628832205e-16 1.2496888977739191 5
vertex -1.9713118430800855e-16 1.0731321849709863 5
vertex 0.5000000000000002 0.8660254037844386 5
endloop
endfacet
facet normal 0 0 1
outer loop
vertex -1.9713118430800855e-16 1.0731321849709863 5
vertex -1.8369701987210294e-16 0.9999999999999999 5
vertex 0.25881904510252063 0.9659258262890683 5
endloop
endfacet
facet normal 0 0 1
outer loop
vertex 9.999999999999998 9.999244942988891 5
vertex 9.999999999999998 10.000000000000002 5
vertex -1.8369701987210296e-15 10 5
endloop
endfacet
facet normal 0 0 1
outer loop
vertex 9.999999999999998 9.999244942988891 5
vertex -1.8369701987210296e-15 10 5
vertex -1.8368314969982553e-15 9.999244942988891 5
endloop
endfacet
facet normal -4.329780281177462e-17 -4.3297802811774677e-17 -1
outer loop
vertex 10 9.998489885977785 4.4405651754048385e-16
vertex 19.99773482896667 9.998489885977786 1.1176566351473242e-17
vertex 10 0.0007550570111103383 8.769364687294946e-16
endloop
endfacet
facet normal 0 1 0
outer loop
vertex 10 9.998489885977785 5
vertex 19.99773482896667 9.998489885977786 5
vertex 19.99773482896667 9.998489885977786 1.1176566351473242e-17
endloop
endfacet
facet normal 0 1 0
outer loop
vertex 10 9.998489885977785 5
vertex 19.99773482896667 9.998489885977786 1.1176566351473242e-17
vertex 10 9.998489885977785 4.440565175404839e-16
endloop
endfacet
facet normal 0 0 1
outer loop
vertex 19.99773482896667 9.998489885977786 5
vertex 10 9.998489885977785 5
vertex 10 0.0007550570111103387 5
endloop
endfacet
facet normal 0.7071067811865476 -0.7071067811865476 0
outer loop
vertex 19.99773482896667 9.998489885977786 1.1176566351473242e-17
vertex 19.99773482896667 9.998489885977786 5
vertex 10 0.0007550570111103383 5
endloop
endfacet
facet normal 0.7071067811865476 -0.7071067811865476 0
outer loop
vertex 19.99773482896667 9.998489885977786 1.1176566351473242e-17
vertex 10 0.0007550570111103383 5
vertex 10 0.0007550570111103387 8.769364687294947e-16
endloop
endfacet
facet normal 0 0 -1
outer loop
vertex 0.9659258262890682 0.25881904510252074 -0.5
vertex 1 0 -0.5
vertex 0 0 -0.5
endloop
endfacet
facet normal 0.9914448613738104 0.13052619222005207 0
outer loop
vertex 1 0 0
vertex 1 0 -0.5
vertex 0.9659258262890682 0.25881904510252074 -0.5
endloop
endfacet
facet normal 0.9914448613738104 0.13052619222005207 0
outer loop
vertex 1 0 0
vertex 0.9659258262890682 0.25881904510252074 -0.5
vertex 0.9659258262890682 0.25881904510252074 0
endloop
endfacet
facet normal 0.9914448613738104 0.13052619222005207 0
outer loop
vertex 0.9659258262890682 0.25881904510252074 5.5
vertex 1 0 5.5
vertex 1 0 5
endloop
endfacet
facet normal 0.9914448613738104 0.13052619222005207 0
outer loop
vertex 0.9659258262890682 0.25881904510252074 5.5
vertex 1 0 5
vertex 0.9659258262890682 0.25881904510252074 5
endloop
endfacet
facet normal 0 0 1
outer loop
vertex 1 0 5.5
vertex 0.9659258262890682 0.25881904510252074 5.5
vertex 0 0 5.5
endloop
endfacet
facet normal 0 0 -1
outer loop
vertex 0.8660254037844388 0.5 -0.5
vertex 0.9659258262890682 0.25881904510252074 -0.5
vertex 0 0 -0.5
endloop
endfacet
facet normal 0.9238795325112871 0.382683432365089 0
outer loop
vertex 0.9659258262890682 0.25881904510252074 0
vertex 0.9659258262890682 0.25881904510252074 -0.5
vertex 0.8660254037844388 0.5 -0.5
endloop
endfacet
facet normal 0.9238795325112871 0.382683432365089 0
outer loop
vertex 0.9659258262890682 0.25881904510252074 0
vertex 0.8660254037844388 0.5 -0.5
vertex 0.8660254037844388 0.5 0
endloop
endfacet
facet normal 0.9238795325112871 0.382683432365089 0
outer loop
vertex 0.8660254037844388 0.5 5.5
vertex 0.9659258262890682 0.25881904510252074 5.5
vertex 0.9659258262890682 0.25881904510252074 5
endloop
endfacet
facet normal 0.9238795325112871 0.382683432365089 0
outer loop
vertex 0.8660254037844388 0.5 5.5
vertex 0.9659258262890682 0.25881904510252074 5
vertex 0.8660254037844388 0.5 5
endloop
endfacet
facet normal 0 0 1
outer loop
vertex 0.9659258262890682 0.25881904510252074 5.5
vertex 0.8660254037844388 0.5 5.5
vertex 0 0 5.5
endloop
endfacet
facet normal 0 0 -1
outer loop
vertex 0.7071067811865475 0.7071067811865475 -0.5
vertex 0.8660254037844388 0.5 -0.5
vertex 0 0 -0.5
endloop
endfacet
facet normal 0.7933533402912347 0.6087614290087213 0
outer loop
vertex 0.8660254037844388 0.5 0
vertex 0.8660254037844388 0.5 -0.5
vertex 0.7071067811865475 0.7071067811865475 -0.5
endloop
endfacet
facet normal 0.7933533402912347 0.6087614290087213 0
outer loop
vertex 0.8660254037844388 0.5 0
vertex 0.7071067811865475 0.7071067811865475 -0.5
vertex 0.7071067811865475 0.7071067811865475 0
endloop
endfacet
facet normal 0.7933533402912347 0.6087614290087213 0
outer loop
vertex 0.7071067811865475 0.7071067811865475 5.5
vertex 0.8660254037844388 0.5 5.5
vertex 0.8660254037844388 0.5 5
endloop
endfacet
facet normal 0.7933533402912347 0.6087614290087213 0
outer loop
vertex 0.7071067811865475 0.7071067811865475 5.5
vertex 0.8660254037844388 0.5 5
vertex 0.7071067811865475 0.7071067811865475 5
endloop
endfacet
facet normal 0 0 1
outer loop
vertex 0.8660254037844388 0.5 5.5
vertex 0.7071067811865475 0.7071067811865475 5.5
vertex 0 0 5.5
endloop
endfacet
facet normal 0 0 -1
outer loop
vertex 0.5 0.8660254037844386 -0.5
vertex 0.7071067811865475 0.7071067811865475 -0.5
vertex 0 0 -0.5
endloop
endfacet
facet normal 0.6087614290087207 0.7933533402912352 0
outer loop
vertex 0.7071067811865475 0.7071067811865475 0
vertex 0.7071067811865475 0.7071067811865475 -0.5
vertex 0.5 0.8660254037844386 -0.5
endloop
endfacet
facet normal 0.6087614290087207 0.7933533402912352 0
outer loop
vertex 0.7071067811865475 0.7071067811865475 0
vertex 0.5 0.8660254037844386 -0.5
vertex 0.5 0.8660254037844386 0
endloop
endfacet
facet normal 0.6087614290087207 0.7933533402912352 0
outer loop
vertex 0.5 0.8660254037844386 5.5
vertex 0.7071067811865475 0.7071067811865475 5.5
vertex 0.7071067811865475 0.7071067811865475 5
endloop
endfacet
facet normal 0.6087614290087207 0.7933533402912352 0
outer loop
vertex 0.5 0.8660254037844386 5.5
vertex 0.7071067811865475 0.7071067811865475 5
vertex 0.5 0.8660254037844386 5
endloop
endfacet
facet normal 0 0 1
outer loop
vertex 0.7071067811865475 0.7071067811865475 5.5
vertex 0.5 0.8660254037844386 5.5
vertex 0 0 5.5
endloop
endfacet
facet normal 0 0 -1
outer loop
vertex 0.25881904510252074 0.9659258262890683 -0.5
vertex 0.5 0.8660254037844386 -0.5
vertex 0 0 -0.5
endloop
endfacet
facet normal 0.38268343236509006 0.9238795325112867 0
outer loop
vertex 0.5 0.8660254037844386 0
vertex 0.5 0.8660254037844386 -0.5
vertex 0.25881904510252074 0.9659258262890683 -0.5
endloop
endfacet
facet normal 0.38268343236509006 0.9238795325112867 0
outer loop
vertex 0.5 0.8660254037844386 0
vertex 0.25881904510252074 0.9659258262890683 -0.5
vertex 0.25881904510252074 0.9659258262890683 0
endloop
endfacet
facet normal 0.38268343236509006 0.9238795325112867 0
outer loop
vertex 0.25881904510252074 0.9659258262890683 5.5
vertex 0.5 0.8660254037844386 5.5
vertex 0.5 0.8660254037844386 5
endloop
endfacet
facet normal 0.38268343236509006 0.9238795325112867 0
outer loop
vertex 0.25881904510252074 0.9659258262890683 5.5
vertex 0.5 0.8660254037844386 5
vertex 0.25881904510252074 0.9659258262890683 5
endloop
endfacet
facet normal 0 0 1
outer loop
vertex 0.5 0.8660254037844386 5.5
vertex 0.25881904510252074 0.9659258262890683 5.5
vertex 0 0 5.5
endloop
endfacet
facet normal 0 0 -1
outer loop
vertex 0 1 -0.5
vertex 0.25881904510252074 0.9659258262890683 -0.5
vertex 0 0 -0.5
endloop
endfacet
facet normal 0.13052619222005155 0.9914448613738104 0
outer loop
vertex 0.25881904510252074 0.9659258262890683 0
vertex 0.25881904510252074 0.9659258262890683 -0.5
vertex 0 1 -0.5
endloop
endfacet
facet normal 0.13052619222005155 0.9914448613738104 0
outer loop
vertex 0.25881904510252074 0.9659258262890683 0
vertex 0 1 -0.5
vertex 0 1 0
endloop
endfacet
facet normal 0.13052619222005155 0.9914448613738104 0
outer loop
vertex 0 1 5.5
vertex 0.25881904510252074 0.9659258262890683 5.5
vertex 0.25881904510252074 0.9659258262890683 5
endloop
endfacet
facet normal 0.13052619222005155 0.9914448613738104 0
outer loop
vertex 0 1 5.5
vertex 0.25881904510252074 0.9659258262890683 5
vertex 0 1 5
endloop
endfacet
facet normal 0 0 1
outer loop
vertex 0.25881904510252074 0.9659258262890683 5.5
vertex 0 1 5.5
vertex 0 0 5.5
endloop
endfacet
facet normal 0 0 -1
outer loop
vertex -0.25881904510252085 0.9659258262890683 -0.5
vertex 0 1 -0.5
vertex 0 0 -0.5
endloop
endfacet
facet normal -0.13052619222005143 0.9914448613738104 0
outer loop
vertex 0 1 0
vertex 0 1 -0.5
vertex -0.25881904510252085 0.9659258262890683 -0.5
endloop
endfacet
facet normal -0.13052619222005143 0.9914448613738104 0
outer loop
vertex 0 1 0
vertex -0.25881904510252085 0.9659258262890683 -0.5
vertex -0.25881904510252085 0.9659258262890683 0
endloop
endfacet
facet normal -0.13052619222005143 0.9914448613738104 0
outer loop
vertex -0.25881904510252085 0.9659258262890683 5.5
vertex 0 1 5.5
vertex 0 1 5
endloop
endfacet
facet normal -0.13052619222005143 0.9914448613738104 0
outer loop
vertex -0.25881904510252085 0.9659258262890683 5.5
vertex 0 1 5
vertex -0.25881904510252085 0.9659258262890683 5
endloop
endfacet
facet normal 0 0 1
outer loop
vertex 0 1 5.5
vertex -0.25881904510252085 0.9659258262890683 5.5
vertex 0 0 5.5
endloop
endfacet
facet normal 0 0 -1
outer loop
vertex -0.4999999999999998 0.8660254037844387 -0.5
vertex -0.25881904510252085 0.9659258262890683 -0.5
vertex 0 0 -0.5
endloop
endfacet
facet normal -0.38268343236509006 0.9238795325112866 0
outer loop
vertex -0.25881904510252085 0.9659258262890683 0
vertex -0.25881904510252085 0.9659258262890683 -0.5
vertex -0.4999999999999998 0.8660254037844387 -0.5
endloop
endfacet
facet normal -0.38268343236509006 0.9238795325112866 0
outer loop
vertex -0.25881904510252085 0.9659258262890683 0
vertex -0.4999999999999998 0.8660254037844387 -0.5
vertex -0.4999999999999998 0.8660254037844387 0
endloop
endfacet
facet normal -0.38268343236509006 0.9238795325112866 0
outer loop
vertex -0.4999999999999998 0.8660254037844387 5.5
vertex -0.25881904510252085 0.9659258262890683 5.5
vertex -0.25881904510252085 0.9659258262890683 5
endloop
endfacet
facet normal -0.38268343236509006 0.9238795325112866 0
outer loop
vertex -0.4999999999999998 0.8660254037844387 5.5
vertex -0.25881904510252085 0.9659258262890683 5
vertex -0.4999999999999998 0.8660254037844387 5
endloop
endfacet
facet normal 0 0 1
outer loop
vertex -0.25881904510252085 0.9659258262890683 5.5
vertex -0.4999999999999998 0.8660254037844387 5.5
vertex 0 0 5.5
endloop
endfacet
facet normal 0 0 -1
outer loop
vertex -0.7071067811865475 0.7071067811865476 -0.5
vertex -0.4999999999999998 0.8660254037844387 -0.5
vertex 0 0 -0.5
endloop
endfacet
facet normal -0.6087614290087204 0.7933533402912353 0
outer loop
vertex -0.4999999999999998 0.8660254037844387 0
vertex -0.4999999999999998 0.8660254037844387 -0.5
vertex -0.7071067811865475 0.7071067811865476 -0.5
endloop
endfacet
facet normal -0.6087614290087204 0.7933533402912353 0
outer loop
vertex -0.4999999999999998 0.8660254037844387 0
vertex -0.7071067811865475 0.7071067811865476 -0.5
vertex -0.7071067811865475 0.7071067811865476 0
endloop
endfacet
facet normal -0.6087614290087204 0.7933533402912353 0
outer loop
vertex -0.7071067811865475 0.7071067811865476 5.5
vertex -0.4999999999999998 0.8660254037844387 5.5
vertex -0.4999999999999998 0.8660254037844387 5
endloop
endfacet
facet normal -0.6087614290087204 0.7933533402912353 0
outer loop
vertex -0.7071067811865475 0.7071067811865476 5.5
vertex -0.4999999999999998 0.8660254037844387 5
vertex -0.7071067811865475 0.7071067811865476 5
endloop
endfacet
facet normal 0 0 1
outer loop
vertex -0.4999999999999998 0.8660254037844387 5.5
vertex -0.7071067811865475 0.7071067811865476 5.5
vertex 0 0 5.5
endloop
endfacet
facet normal 0 0 -1
outer loop
vertex -0.8660254037844387 0.5 -0.5
vertex -0.7071067811865475 0.7071067811865476 -0.5
vertex 0 0 -0.5
endloop
endfacet
facet normal -0.793353340291235 0.6087614290087208 0
outer loop
vertex -0.7071067811865475 0.7071067811865476 0
vertex -0.7071067811865475 0.7071067811865476 -0.5
vertex -0.8660254037844387 0.5 -0.5
endloop
endfacet
facet normal -0.793353340291235 0.6087614290087208 0
outer loop
vertex -0.7071067811865475 0.7071067811865476 0
vertex -0.8660254037844387 0.5 -0.5
vertex -0.8660254037844387 0.5 0
endloop
endfacet
facet normal -0.793353340291235 0.6087614290087208 0
outer loop
vertex -0.8660254037844387 0.5 5.5
vertex -0.7071067811865475 0.7071067811865476 5.5
vertex -0.7071067811865475 0.7071067811865476 5
endloop
endfacet
facet normal -0.793353340291235 0.6087614290087208 0
outer loop
vertex -0.8660254037844387 0.5 5.5
vertex -0.7071067811865475 0.7071067811865476 5
vertex -0.8660254037844387 0.5 5
endloop
endfacet
facet normal 0 0 1
outer loop
vertex -0.7071067811865475 0.7071067811865476 5.5
vertex -0.8660254037844387 0.5 5.5
vertex 0 0 5.5
endloop
endfacet
facet normal 0 0 -1
outer loop
vertex -0.9659258262890682 0.25881904510252096 -0.5
vertex -0.8660254037844387 0.5 -0.5
vertex 0 0 -0.5
endloop
endfacet
facet normal -0.9238795325112868 0.38268343236508967 0
outer loop
vertex -0.8660254037844387 0.5 0
vertex -0.8660254037844387 0.5 -0.5
vertex -0.9659258262890682 0.25881904510252096 -0.5
endloop
endfacet
facet normal -0.9238795325112868 0.38268343236508967 0
outer loop
vertex -0.8660254037844387 0.5 0
vertex -0.9659258262890682 0.25881904510252096 -0.5
vertex -0.9659258262890682 0.25881904510252096 0
endloop
endfacet
facet normal -0.9238795325112868 0.38268343236508967 0
outer loop
vertex -0.9659258262890682 0.25881904510252096 5.5
vertex -0.8660254037844387 0.5 5.5
vertex -0.8660254037844387 0.5 5
endloop
endfacet
facet normal -0.9238795325112868 0.38268343236508967 0
outer loop
vertex -0.9659258262890682 0.25881904510252096 5.5
vertex -0.8660254037844387 0.5 5
vertex -0.9659258262890682 0.25881904510252096 5
endloop
endfacet
facet normal 0 0 1
outer loop
vertex -0.8660254037844387 0.5 5.5
vertex -0.9659258262890682 0.25881904510252096 5.5
vertex 0 0 5.5
endloop
endfacet
facet normal 0 0 -1
outer loop
vertex -1 1.1102230246251565e-16 -0.5
vertex -0.9659258262890682 0.25881904510252096 -0.5
vertex 0 0 -0.5
endloop
endfacet
facet normal -0.9914448613738104 0.13052619222005182 0
outer loop
vertex -0.9659258262890682 0.25881904510252096 0
vertex -0.9659258262890682 0.25881904510252096 -0.5
vertex -1 1.1102230246251565e-16 -0.5
endloop
endfacet
facet normal -0.9914448613738104 0.13052619222005182 0
outer loop
vertex -0.9659258262890682 0.25881904510252096 0
vertex -1 1.1102230246251565e-16 -0.5
vertex -1 1.1102230246251565e-16 0
endloop
endfacet
facet normal -0.9914448613738104 0.13052619222005182 0
outer loop
vertex -1 1.1102230246251565e-16 5.5
vertex -0.9659258262890682 0.25881904510252096 5.5
vertex -0.9659258262890682 0.25881904510252096 5
endloop
endfacet
facet normal -0.9914448613738104 0.13052619222005182 0
outer loop
vertex -1 1.1102230246251565e-16 5.5
vertex -0.9659258262890682 0.25881904510252096 5
vertex -1 1.1102230246251565e-16 5
endloop
endfacet
facet normal 0 0 1
outer loop
vertex -0.9659258262890682 0.25881904510252096 5.5
vertex -1 1.1102230246251565e-16 5.5
vertex 0 0 5.5
endloop
endfacet
facet normal 0 0 -1
outer loop
vertex -0.9659258262890684 -0.2588190451025203 -0.5
vertex -1 1.1102230246251565e-16 -0.5
vertex 0 0 -0.5
endloop
endfacet
facet normal -0.9914448613738105 -0.13052619222005116 0
outer loop
vertex -1 1.1102230246251565e-16 0
vertex -1 1.1102230246251565e-16 -0.5
vertex -0.9659258262890684 -0.2588190451025203 -0.5
endloop
endfacet
facet normal -0.9914448613738105 -0.13052619222005116 0
outer loop
vertex -1 1.1102230246251565e-16 0
vertex -0.9659258262890684 -0.2588190451025203 -0.5
vertex -0.9659258262890684 -0.2588190451025203 0
endloop
endfacet
facet normal -0.9914448613738105 -0.13052619222005116 0
outer loop
vertex -0.9659258262890684 -0.2588190451025203 5.5
vertex -1 1.1102230246251565e-16 5.5
vertex -1 1.1102230246251565e-16 5
endloop
endfacet
facet normal -0.9914448613738105 -0.13052619222005116 0
outer loop
vertex -0.9659258262890684 -0.2588190451025203 5.5
vertex -1 1.1102230246251565e-16 5
vertex -0.9659258262890684 -0.2588190451025203 5
endloop
endfacet
facet normal 0 0 1
outer loop
vertex -1 1.1102230246251565e-16 5.5
vertex -0.9659258262890684 -0.2588190451025203 5.5
vertex 0 0 5.5
endloop
endfacet
facet normal 0 0 -1
outer loop
vertex -0.8660254037844386 -0.5 -0.5
vertex -0.9659258262890684 -0.2588190451025203 -0.5
vertex 0 0 -0.5
endloop
endfacet
facet normal -0.9238795325112867 -0.38268343236508984 0
outer loop
vertex -0.9659258262890684 -0.2588190451025203 0
vertex -0.9659258262890684 -0.2588190451025203 -0.5
vertex -0.8660254037844386 -0.5 -0.5
endloop
endfacet
facet normal -0.9238795325112867 -0.38268343236508984 0
outer loop
vertex -0.9659258262890684 -0.2588190451025203 0
vertex -0.8660254037844386 -0.5 -0.5
vertex -0.8660254037844386 -0.5 0
endloop
endfacet
facet normal -0.9238795325112867 -0.38268343236508984 0
outer loop
vertex -0.8660254037844386 -0.5 5.5
vertex -0.9659258262890684 -0.2588190451025203 5.5
vertex -0.9659258262890684 -0.2588190451025203 5
endloop
endfacet
facet normal -0.9238795325112867 -0.38268343236508984 0
outer loop
vertex -0.8660254037844386 -0.5 5.5
vertex -0.9659258262890684 -0.2588190451025203 5
vertex -0.8660254037844386 -0.5 5
endloop
endfacet
facet normal 0 0 1
outer loop
vertex -0.9659258262890684 -0.2588190451025203 5.5
vertex -0.8660254037844386 -0.5 5.5
vertex 0 0 5.5
endloop
endfacet
facet normal 0 0 -1
outer loop
vertex -0.7071067811865477 -0.7071067811865475 -0.5
vertex -0.8660254037844386 -0.5 -0.5
vertex 0 0 -0.5
endloop
endfacet
facet normal -0.7933533402912354 -0.6087614290087203 0
outer loop
vertex -0.8660254037844386 -0.5 0
vertex -0.8660254037844386 -0.5 -0.5
vertex -0.7071067811865477 -0.7071067811865475 -0.5
endloop
endfacet
facet normal -0.7933533402912354 -0.6087614290087203 0
outer loop
vertex -0.8660254037844386 -0.5 0
vertex -0.7071067811865477 -0.7071067811865475 -0.5
vertex -0.7071067811865477 -0.7071067811865475 0
endloop
endfacet
facet normal -0.7933533402912354 -0.6087614290087203 0
outer loop
vertex -0.7071067811865477 -0.7071067811865475 5.5
vertex -0.8660254037844386 -0.5 5.5
vertex -0.8660254037844386 -0.5 5
endloop
endfacet
facet normal -0.7933533402912354 -0.6087614290087203 0
outer loop
vertex -0.7071067811865477 -0.7071067811865475 5.5
vertex -0.8660254037844386 -0.5 5
vertex -0.7071067811865477 -0.7071067811865475 5
endloop
endfacet
facet normal 0 0 1
outer loop
vertex -0.8660254037844386 -0.5 5.5
vertex -0.7071067811865477 -0.7071067811865475 5.5
vertex 0 0 5.5
endloop
endfacet
facet normal 0 0 -1
outer loop
vertex -0.5000000000000004 -0.8660254037844384 -0.5
vertex -0.7071067811865477 -0.7071067811865475 -0.5
vertex 0 0 -0.5
endloop
endfacet
facet normal -0.6087614290087208 -0.7933533402912352 0
outer loop
vertex -0.7071067811865477 -0.7071067811865475 0
vertex -0.7071067811865477 -0.7071067811865475 -0.5
vertex -0.5000000000000004 -0.8660254037844384 -0.5
endloop
endfacet
facet normal -0.6087614290087208 -0.7933533402912352 0
outer loop
vertex -0.7071067811865477 -0.7071067811865475 0
vertex -0.5000000000000004 -0.8660254037844384 -0.5
vertex -0.5000000000000004 -0.8660254037844384 0
endloop
endfacet
facet normal -0.6087614290087208 -0.7933533402912352 0
outer loop
vertex -0.5000000000000004 -0.8660254037844384 5.5
vertex -0.7071067811865477 -0.7071067811865475 5.5
vertex -0.7071067811865477 -0.7071067811865475 5
endloop
endfacet
facet normal -0.6087614290087208 -0.7933533402912352 0
outer loop
vertex -0.5000000000000004 -0.8660254037844384 5.5
vertex -0.7071067811865477 -0.7071067811865475 5
vertex -0.5000000000000004 -0.8660254037844384 5
endloop
endfacet
facet normal 0 0 1
outer loop
vertex -0.7071067811865477 -0.7071067811865475 5.5
vertex -0.5000000000000004 -0.8660254037844384 5.5
vertex 0 0 5.5
endloop
endfacet
facet normal 0 0 -1
outer loop
vertex -0.25881904510252063 -0.9659258262890682 -0.5
vertex -0.5000000000000004 -0.8660254037844384 -0.5
vertex 0 0 -0.5
endloop
endfacet
facet normal -0.3826834323650896 -0.923879532511287 0
outer loop
vertex -0.5000000000000004 -0.8660254037844384 0
vertex -0.5000000000000004 -0.8660254037844384 -0.5
vertex -0.25881904510252063 -0.9659258262890682 -0.5
endloop
endfacet
facet normal -0.3826834323650896 -0.923879532511287 0
outer loop
vertex -0.5000000000000004 -0.8660254037844384 0
vertex -0.25881904510252063 -0.9659258262890682 -0.5
vertex -0.25881904510252063 -0.9659258262890682 0
endloop
endfacet
facet normal -0.3826834323650896 -0.923879532511287 0
outer loop
vertex -0.25881904510252063 -0.9659258262890682 5.5
vertex -0.5000000000000004 -0.8660254037844384 5.5
vertex -0.5000000000000004 -0.8660254037844384 5
endloop
endfacet
facet normal -0.3826834323650896 -0.923879532511287 0
outer loop
vertex -0.25881904510252063 -0.9659258262890682 5.5
vertex -0.5000000000000004 -0.8660254037844384 5
vertex -0.25881904510252063 -0.9659258262890682 5
endloop
endfacet
facet normal 0 0 1
outer loop
vertex -0.5000000000000004 -0.8660254037844384 5.5
vertex -0.25881904510252063 -0.9659258262890682 5.5
vertex 0 0 5.5
endloop
endfacet
facet normal 0 0 -1
outer loop
vertex -2.220446049250313e-16 -1 -0.5
vertex -0.25881904510252063 -0.9659258262890682 -0.5
vertex 0 0 -0.5
endloop
endfacet
facet normal -0.13052619222005205 -0.9914448613738104 0
outer loop
vertex -0.25881904510252063 -0.9659258262890682 0
vertex -0.25881904510252063 -0.9659258262890682 -0.5
vertex -2.220446049250313e-16 -1 -0.5
endloop
endfacet
facet normal -0.13052619222005205 -0.9914448613738104 0
outer loop
vertex -0.25881904510252063 -0.9659258262890682 0
vertex -2.220446049250313e-16 -1 -0.5
vertex -2.220446049250313e-16 -1 0
endloop
endfacet
facet normal -0.13052619222005205 -0.9914448613738104 0
outer loop
vertex -2.220446049250313e-16 -1 5.5
vertex -0.25881904510252063 -0.9659258262890682 5.5
vertex -0.25881904510252063 -0.9659258262890682 5
endloop
endfacet
facet normal -0.13052619222005205 -0.9914448613738104 0
outer loop
vertex -2.220446049250313e-16 -1 5.5
vertex -0.25881904510252063 -0.9659258262890682 5
vertex -2.220446049250313e-16 -1 5
endloop
endfacet
facet normal 0 0 1
outer loop
vertex -0.25881904510252063 -0.9659258262890682 5.5
vertex -2.220446049250313e-16 -1 5.5
vertex 0 0 5.5
endloop
endfacet
facet normal 0 0 -1
outer loop
vertex 0.2588190451025203 -0.9659258262890684 -0.5
vertex -2.220446049250313e-16 -1 -0.5
vertex 0 0 -0.5
endloop
endfacet
facet normal 0.13052619222005113 -0.9914448613738105 0
outer loop
vertex -2.220446049250313e-16 -1 0
vertex -2.220446049250313e-16 -1 -0.5
vertex 0.2588190451025203 -0.9659258262890684 -0.5
endloop
endfacet
facet normal 0.13052619222005113 -0.9914448613738105 0
outer loop
vertex -2.220446049250313e-16 -1 0
vertex 0.2588190451025203 -0.9659258262890684 -0.5
vertex 0.2588190451025203 -0.9659258262890684 0
endloop
endfacet
facet normal 0.13052619222005113 -0.9914448613738105 0
outer loop
vertex 0.2588190451025203 -0.9659258262890684 5.5
vertex -2.220446049250313e-16 -1 5.5
vertex -2.220446049250313e-16 -1 5
endloop
endfacet
facet normal 0.13052619222005113 -0.9914448613738105 0
outer loop
vertex 0.2588190451025203 -0.9659258262890684 5.5
vertex -2.220446049250313e-16 -1 5
vertex 0.2588190451025203 -0.9659258262890684 5
endloop
endfacet
facet normal 0 0 1
outer loop
vertex -2.220446049250313e-16 -1 5.5
vertex 0.2588190451025203 -0.9659258262890684 5.5
vertex 0 0 5.5
endloop
endfacet
facet normal 0 0 -1
outer loop
vertex 0.5 -0.8660254037844386 -0.5
vertex 0.2588190451025203 -0.9659258262890684 -0.5
vertex 0 0 -0.5
endloop
endfacet
facet normal 0.3826834323650898 -0.9238795325112866 0
outer loop
vertex 0.2588190451025203 -0.9659258262890684 0
vertex 0.2588190451025203 -0.9659258262890684 -0.5
vertex 0.5 -0.8660254037844386 -0.5
endloop
endfacet
facet normal 0.3826834323650898 -0.9238795325112866 0
outer loop
vertex 0.2588190451025203 -0.9659258262890684 0
vertex 0.5 -0.8660254037844386 -0.5
vertex 0.5 -0.8660254037844386 0
endloop
endfacet
facet normal 0.3826834323650898 -0.9238795325112866 0
outer loop
vertex 0.5 -0.8660254037844386 5.5
vertex 0.2588190451025203 -0.9659258262890684 5.5
vertex 0.2588190451025203 -0.9659258262890684 5
endloop
endfacet
facet normal 0.3826834323650898 -0.9238795325112866 0
outer loop
vertex 0.5 -0.8660254037844386 5.5
vertex 0.2588190451025203 -0.9659258262890684 5
vertex 0.5 -0.8660254037844386 5
endloop
endfacet
facet normal 0 0 1
outer loop
vertex 0.2588190451025203 -0.9659258262890684 5.5
vertex 0.5 -0.8660254037844386 5.5
vertex 0 0 5.5
endloop
endfacet
facet normal 0 0 -1
outer loop
vertex 0.7071067811865475 -0.7071067811865477 -0.5
vertex 0.5 -0.8660254037844386 -0.5
vertex 0 0 -0.5
endloop
endfacet
facet normal 0.6087614290087203 -0.7933533402912355 0
outer loop
vertex 0.5 -0.8660254037844386 0
vertex 0.5 -0.8660254037844386 -0.5
vertex 0.7071067811865475 -0.7071067811865477 -0.5
endloop
endfacet
facet normal 0.6087614290087203 -0.7933533402912355 0
outer loop
vertex 0.5 -0.8660254037844386 0
vertex 0.7071067811865475 -0.7071067811865477 -0.5
vertex 0.7071067811865475 -0.7071067811865477 0
endloop
endfacet
facet normal 0.6087614290087203 -0.7933533402912355 0
outer loop
vertex 0.7071067811865475 -0.7071067811865477 5.5
vertex 0.5 -0.8660254037844386 5.5
vertex 0.5 -0.8660254037844386 5
endloop
endfacet
facet normal 0.6087614290087203 -0.7933533402912355 0
outer loop
vertex 0.7071067811865475 -0.7071067811865477 5.5
vertex 0.5 -0.8660254037844386 5
vertex 0.7071067811865475 -0.7071067811865477 5
endloop
endfacet
facet normal 0 0 1
outer loop
vertex 0.5 -0.8660254037844386 5.5
vertex 0.7071067811865475 -0.7071067811865477 5.5
vertex 0 0 5.5
endloop
endfacet
facet normal 0 0 -1
outer loop
vertex 0.8660254037844384 -0.5000000000000004 -0.5
vertex 0.7071067811865475 -0.7071067811865477 -0.5
vertex 0 0 -0.5
endloop
endfacet
facet normal 0.7933533402912352 -0.6087614290087207 0
outer loop
vertex 0.7071067811865475 -0.7071067811865477 0
vertex 0.7071067811865475 -0.7071067811865477 -0.5
vertex 0.8660254037844384 -0.5000000000000004 -0.5
endloop
endfacet
facet normal 0.7933533402912352 -0.6087614290087207 0
outer loop
vertex 0.7071067811865475 -0.7071067811865477 0
vertex 0.8660254037844384 -0.5000000000000004 -0.5
vertex 0.8660254037844384 -0.5000000000000004 0
endloop
endfacet
facet normal 0.7933533402912352 -0.6087614290087207 0
outer loop
vertex 0.8660254037844384 -0.5000000000000004 5.5
vertex 0.7071067811865475 -0.7071067811865477 5.5
vertex 0.7071067811865475 -0.7071067811865477 5
endloop
endfacet
facet normal 0.7933533402912352 -0.6087614290087207 0
outer loop
vertex 0.8660254037844384 -0.5000000000000004 5.5
vertex 0.7071067811865475 -0.7071067811865477 5
vertex 0.8660254037844384 -0.5000000000000004 5
endloop
endfacet
facet normal 0 0 1
outer loop
vertex 0.7071067811865475 -0.7071067811865477 5.5
vertex 0.8660254037844384 -0.5000000000000004 5.5
vertex 0 0 5.5
endloop
endfacet
facet normal 0 0 -1
outer loop
vertex 0.9659258262890682 -0.25881904510252074 -0.5
vertex 0.8660254037844384 -0.5000000000000004 -0.5
vertex 0 0 -0.5
endloop
endfacet
facet normal 0.9238795325112868 -0.3826834323650896 0
outer loop
vertex 0.8660254037844384 -0.5000000000000004 0
vertex 0.8660254037844384 -0.5000000000000004 -0.5
vertex 0.9659258262890682 -0.25881904510252074 -0.5
endloop
endfacet
facet normal 0.9238795325112868 -0.3826834323650896 0
outer loop
vertex 0.8660254037844384 -0.5000000000000004 0
vertex 0.9659258262890682 -0.25881904510252074 -0.5
vertex 0.9659258262890682 -0.25881904510252074 0
endloop
endfacet
facet normal 0.9238795325112868 -0.3826834323650896 0
outer loop
vertex 0.9659258262890682 -0.25881904510252074 5.5
vertex 0.8660254037844384 -0.5000000000000004 5.5
vertex 0.8660254037844384 -0.5000000000000004 5
endloop
endfacet
facet normal 0.9238795325112868 -0.3826834323650896 0
outer loop
vertex 0.9659258262890682 -0.25881904510252074 5.5
vertex 0.8660254037844384 -0.5000000000000004 5
vertex 0.9659258262890682 -0.25881904510252074 5
endloop
endfacet
facet normal 0 0 1
outer loop
vertex 0.8660254037844384 -0.5000000000000004 5.5
vertex 0.9659258262890682 -0.25881904510252074 5.5
vertex 0 0 5.5
endloop
endfacet
facet normal 0 0 -1
outer loop
vertex 1 -2.220446049250313e-16 -0.5
vertex 0.9659258262890682 -0.25881904510252074 -0.5
vertex 0 0 -0.5
endloop
endfacet
facet normal 0.9914448613738104 -0.13052619222005205 0
outer loop
vertex 0.9659258262890682 -0.25881904510252074 0
vertex 0.9659258262890682 -0.25881904510252074 -0.5
vertex 1 -2.220446049250313e-16 -0.5
endloop
endfacet
facet normal 0.9914448613738104 -0.13052619222005205 0
outer loop
vertex 0.9659258262890682 -0.25881904510252074 0
vertex 1 -2.220446049250313e-16 -0.5
vertex 1 -2.220446049250313e-16 0
endloop
endfacet
facet normal 0.9914448613738104 -0.13052619222005205 0
outer loop
vertex 1 -2.220446049250313e-16 5.5
vertex 0.9659258262890682 -0.25881904510252074 5.5
vertex 0.9659258262890682 -0.25881904510252074 5
endloop
endfacet
facet normal 0.9914448613738104 -0.13052619222005205 0
outer loop
vertex 1 -2.220446049250313e-16 5.5
vertex 0.9659258262890682 -0.25881904510252074 5
vertex 1 -2.220446049250313e-16 5
endloop
endfacet
facet normal 0 0 1
outer loop
vertex 0.9659258262890682 -0.25881904510252074 5.5
vertex 1 -2.220446049250313e-16 5.5
vertex 0 0 5.5
endloop
endfacet
endsolid craftml
