solid craftml
facet normal -1 0 0
outer loop
vertex 8.5 -1.5 -1.5
vertex 8.5 -1.5 1.5
vertex 8.5 1.5 1.5
endloop
endfacet
facet normal -1 0 0
outer loop
vertex 8.5 -1.5 -1.5
vertex 8.5 1.5 1.5
vertex 8.5 1.5 -1.5
endloop
endfacet
facet normal 1 0 0
outer loop
vertex 11.5 1.5 1.5
vertex 11.5 -1.5 1.5
vertex 11.5 -1.5 -1.5
endloop
endfacet
facet normal 1 0 0
outer loop
vertex 11.5 1.5 1.5
vertex 11.5 -1.5 -1.5
vertex 11.5 1.5 -1.5
endloop
endfacet
facet normal 0 1 0
outer loop
vertex 8.5 1.5 1.5
vertex 11.5 1.5 1.5
vertex 11.5 1.5 -1.5
endloop
endfacet
facet normal 0 1 0
outer loop
vertex 8.5 1.5 1.5
vertex 11.5 1.5 -1.5
vertex 8.5 1.5 -1.5
endloop
endfacet
facet normal 0 -1 0
outer loop
vertex 11.5 -1.5 -1.5
vertex 11.5 -1.5 1.5
vertex 8.5 -1.5 1.5
endloop
endfacet
facet normal 0 -1 0
outer loop
vertex 11.5 -1.5 -1.5
vertex 8.5 -1.5 1.5
vertex 8.5 -1.5 -1.5
endloop
endfacet
facet normal 0 0 -1
outer loop
vertex 11.5 1.5 -1.5
vertex 11.5 -1.5 -1.5
vertex 8.5 -1.5 -1.5
endloop
endfacet
facet normal 0 0 -1
outer loop
vertex 11.5 1.5 -1.5
vertex 8.5 -1.5 -1.5
vertex 8.5 1.5 -1.5
endloop
endfacet
facet normal 0 0 1
outer loop
vertex 8.5 -1.5 1.5
vertex 11.5 -1.5 1.5
vertex 11.5 1.5 1.5
endloop
endfacet
facet normal 0 0 1
outer loop
vertex 8.5 -1.5 1.5
vertex 11.5 1.5 1.5
vertex 8.5 1.5 1.5
endloop
endfacet
facet normal -0.8090169943749478 0.5877852522924728 0
outer loop
vertex 5.994966573748344 -6.209700136048443 -1.5
vertex 5.994966573748344 -6.209700136048443 1.5
vertex 7.758322330625763 -3.782649152923601 1.5
endloop
endfacet
facet normal -0.8090169943749478 0.5877852522924728 0
outer loop
vertex 5.994966573748344 -6.209700136048443 -1.5
vertex 7.758322330625763 -3.782649152923601 1.5
vertex 7.758322330625763 -3.782649152923601 -1.5
endloop
endfacet
facet normal 0.8090169943749491 -0.5877852522924708 0
outer loop
vertex 10.185373313750606 -5.54600490980102 1.5
vertex 8.422017556873186 -7.973055892925863 1.5
vertex 8.422017556873186 -7.973055892925863 -1.5
endloop
endfacet
facet normal 0.8090169943749491 -0.5877852522924708 0
outer loop
vertex 10.185373313750606 -5.54600490980102 1.5
vertex 8.422017556873186 -7.973055892925863 -1.5
vertex 10.185373313750606 -5.54600490980102 -1.5
endloop
endfacet
facet normal 0.5877852522924728 0.8090169943749478 0
outer loop
vertex 7.758322330625763 -3.782649152923601 1.5
vertex 10.185373313750606 -5.54600490980102 1.5
vertex 10.185373313750606 -5.54600490980102 -1.5
endloop
endfacet
facet normal 0.5877852522924728 0.8090169943749478 0
outer loop
vertex 7.758322330625763 -3.782649152923601 1.5
vertex 10.185373313750606 -5.54600490980102 -1.5
vertex 7.758322330625763 -3.782649152923601 -1.5
endloop
endfacet
facet normal -0.5877852522924728 -0.8090169943749478 0
outer loop
vertex 8.422017556873186 -7.973055892925863 -1.5
vertex 8.422017556873186 -7.973055892925863 1.5
vertex 5.994966573748344 -6.209700136048443 1.5
endloop
endfacet
facet normal -0.5877852522924728 -0.8090169943749478 0
outer loop
vertex 8.422017556873186 -7.973055892925863 -1.5
vertex 5.994966573748344 -6.209700136048443 1.5
vertex 5.994966573748344 -6.209700136048443 -1.5
endloop
endfacet
facet normal 0 0 -1
outer loop
vertex 10.185373313750606 -5.54600490980102 -1.5
vertex 8.422017556873186 -7.973055892925863 -1.5
vertex 5.994966573748344 -6.209700136048443 -1.5
endloop
endfacet
facet normal 0 0 -1
outer loop
vertex 10.185373313750606 -5.54600490980102 -1.5
vertex 5.994966573748344 -6.209700136048443 -1.5
vertex 7.758322330625763 -3.782649152923601 -1.5
endloop
endfacet
facet normal 0 0 1
outer loop
vertex 5.994966573748344 -6.209700136048443 1.5
vertex 8.422017556873186 -7.973055892925863 1.5
vertex 10.185373313750606 -5.54600490980102 1.5
endloop
endfacet
facet normal 0 0 1
outer loop
vertex 5.994966573748344 -6.209700136048443 1.5
vertex 10.185373313750606 -5.54600490980102 1.5
vertex 7.758322330625763 -3.782649152923601 1.5
endloop
endfacet
facet normal -0.3090169943749468 0.9510565162951536 0
outer loop
vertex 1.2000596777443233 -8.547505880071226 -1.5
vertex 1.2000596777443233 -8.547505880071226 1.5
vertex 4.053229226629783 -7.6204548969463834 1.5
endloop
endfacet
facet normal -0.3090169943749468 0.9510565162951536 0
outer loop
vertex 1.2000596777443233 -8.547505880071226 -1.5
vertex 4.053229226629783 -7.6204548969463834 1.5
vertex 4.053229226629783 -7.6204548969463834 -1.5
endloop
endfacet
facet normal 0.3090169943749468 -0.9510565162951536 0
outer loop
vertex 4.980280209754626 -10.473624445831843 1.5
vertex 2.1271106608691657 -11.400675428956685 1.5
vertex 2.1271106608691657 -11.400675428956685 -1.5
endloop
endfacet
facet normal 0.3090169943749468 -0.9510565162951536 0
outer loop
vertex 4.980280209754626 -10.473624445831843 1.5
vertex 2.1271106608691657 -11.400675428956685 -1.5
vertex 4.980280209754626 -10.473624445831843 -1.5
endloop
endfacet
facet normal 0.9510565162951534 0.3090169943749481 0
outer loop
vertex 4.053229226629783 -7.6204548969463834 1.5
vertex 4.980280209754626 -10.473624445831843 1.5
vertex 4.980280209754626 -10.473624445831843 -1.5
endloop
endfacet
facet normal 0.9510565162951534 0.3090169943749481 0
outer loop
vertex 4.053229226629783 -7.6204548969463834 1.5
vertex 4.980280209754626 -10.473624445831843 -1.5
vertex 4.053229226629783 -7.6204548969463834 -1.5
endloop
endfacet
facet normal -0.9510565162951536 -0.3090169943749473 0
outer loop
vertex 2.1271106608691657 -11.400675428956685 -1.5
vertex 2.1271106608691657 -11.400675428956685 1.5
vertex 1.2000596777443233 -8.547505880071226 1.5
endloop
endfacet
facet normal -0.9510565162951536 -0.3090169943749473 0
outer loop
vertex 2.1271106608691657 -11.400675428956685 -1.5
vertex 1.2000596777443233 -8.547505880071226 1.5
vertex 1.2000596777443233 -8.547505880071226 -1.5
endloop
endfacet
facet normal 0 0 -1
outer loop
vertex 4.980280209754626 -10.473624445831843 -1.5
vertex 2.1271106608691657 -11.400675428956685 -1.5
vertex 1.2000596777443233 -8.547505880071226 -1.5
endloop
endfacet
facet normal 0 0 -1
outer loop
vertex 4.980280209754626 -10.473624445831843 -1.5
vertex 1.2000596777443233 -8.547505880071226 -1.5
vertex 4.053229226629783 -7.6204548969463834 -1.5
endloop
endfacet
facet normal 0 0 1
outer loop
vertex 1.2000596777443233 -8.547505880071226 1.5
vertex 2.1271106608691657 -11.400675428956685 1.5
vertex 4.980280209754626 -10.473624445831843 1.5
endloop
endfacet
facet normal 0 0 1
outer loop
vertex 1.2000596777443233 -8.547505880071226 1.5
vertex 4.980280209754626 -10.473624445831843 1.5
vertex 4.053229226629783 -7.6204548969463834 1.5
endloop
endfacet
facet normal 0.30901699437494656 0.9510565162951539 0
outer loop
vertex -4.053229226629783 -7.620454896946385 -1.5
vertex -4.053229226629783 -7.620454896946385 1.5
vertex -1.200059677744322 -8.547505880071228 1.5
endloop
endfacet
facet normal 0.30901699437494656 0.9510565162951539 0
outer loop
vertex -4.053229226629783 -7.620454896946385 -1.5
vertex -1.200059677744322 -8.547505880071228 1.5
vertex -1.200059677744322 -8.547505880071228 -1.5
endloop
endfacet
facet normal -0.3090169943749468 -0.9510565162951536 0
outer loop
vertex -2.127110660869164 -11.400675428956689 1.5
vertex -4.980280209754625 -10.473624445831847 1.5
vertex -4.980280209754625 -10.473624445831847 -1.5
endloop
endfacet
facet normal -0.3090169943749468 -0.9510565162951536 0
outer loop
vertex -2.127110660869164 -11.400675428956689 1.5
vertex -4.980280209754625 -10.473624445831847 -1.5
vertex -2.127110660869164 -11.400675428956689 -1.5
endloop
endfacet
facet normal 0.9510565162951539 -0.3090169943749466 0
outer loop
vertex -1.200059677744322 -8.547505880071228 1.5
vertex -2.127110660869164 -11.400675428956689 1.5
vertex -2.127110660869164 -11.400675428956689 -1.5
endloop
endfacet
facet normal 0.9510565162951539 -0.3090169943749466 0
outer loop
vertex -1.200059677744322 -8.547505880071228 1.5
vertex -2.127110660869164 -11.400675428956689 -1.5
vertex -1.200059677744322 -8.547505880071228 -1.5
endloop
endfacet
facet normal -0.951056516295153 0.3090169943749495 0
outer loop
vertex -4.980280209754625 -10.473624445831847 -1.5
vertex -4.980280209754625 -10.473624445831847 1.5
vertex -4.053229226629783 -7.620454896946385 1.5
endloop
endfacet
facet normal -0.951056516295153 0.3090169943749495 0
outer loop
vertex -4.980280209754625 -10.473624445831847 -1.5
vertex -4.053229226629783 -7.620454896946385 1.5
vertex -4.053229226629783 -7.620454896946385 -1.5
endloop
endfacet
facet normal 0 0 -1
outer loop
vertex -2.127110660869164 -11.400675428956689 -1.5
vertex -4.980280209754625 -10.473624445831847 -1.5
vertex -4.053229226629783 -7.620454896946385 -1.5
endloop
endfacet
facet normal 0 0 -1
outer loop
vertex -2.127110660869164 -11.400675428956689 -1.5
vertex -4.053229226629783 -7.620454896946385 -1.5
vertex -1.200059677744322 -8.547505880071228 -1.5
endloop
endfacet
facet normal 0 0 1
outer loop
vertex -4.053229226629783 -7.620454896946385 1.5
vertex -4.980280209754625 -10.473624445831847 1.5
vertex -2.127110660869164 -11.400675428956689 1.5
endloop
endfacet
facet normal 0 0 1
outer loop
vertex -4.053229226629783 -7.620454896946385 1.5
vertex -2.127110660869164 -11.400675428956689 1.5
vertex -1.200059677744322 -8.547505880071228 1.5
endloop
endfacet
facet normal 0.8090169943749478 0.5877852522924728 0
outer loop
vertex -7.758322330625765 -3.782649152923602 -1.5
vertex -7.758322330625765 -3.782649152923602 1.5
vertex -5.994966573748345 -6.209700136048444 1.5
endloop
endfacet
facet normal 0.8090169943749478 0.5877852522924728 0
outer loop
vertex -7.758322330625765 -3.782649152923602 -1.5
vertex -5.994966573748345 -6.209700136048444 1.5
vertex -5.994966573748345 -6.209700136048444 -1.5
endloop
endfacet
facet normal -0.8090169943749491 -0.5877852522924708 0
outer loop
vertex -8.422017556873186 -7.9730558929258635 1.5
vertex -10.185373313750606 -5.546004909801022 1.5
vertex -10.185373313750606 -5.546004909801022 -1.5
endloop
endfacet
facet normal -0.8090169943749491 -0.5877852522924708 0
outer loop
vertex -8.422017556873186 -7.9730558929258635 1.5
vertex -10.185373313750606 -5.546004909801022 -1.5
vertex -8.422017556873186 -7.9730558929258635 -1.5
endloop
endfacet
facet normal 0.5877852522924728 -0.8090169943749478 0
outer loop
vertex -5.994966573748345 -6.209700136048444 1.5
vertex -8.422017556873186 -7.9730558929258635 1.5
vertex -8.422017556873186 -7.9730558929258635 -1.5
endloop
endfacet
facet normal 0.5877852522924728 -0.8090169943749478 0
outer loop
vertex -5.994966573748345 -6.209700136048444 1.5
vertex -8.422017556873186 -7.9730558929258635 -1.5
vertex -5.994966573748345 -6.209700136048444 -1.5
endloop
endfacet
facet normal -0.5877852522924728 0.8090169943749478 0
outer loop
vertex -10.185373313750606 -5.546004909801022 -1.5
vertex -10.185373313750606 -5.546004909801022 1.5
vertex -7.758322330625765 -3.782649152923602 1.5
endloop
endfacet
facet normal -0.5877852522924728 0.8090169943749478 0
outer loop
vertex -10.185373313750606 -5.546004909801022 -1.5
vertex -7.758322330625765 -3.782649152923602 1.5
vertex -7.758322330625765 -3.782649152923602 -1.5
endloop
endfacet
facet normal 0 0 -1
outer loop
vertex -8.422017556873186 -7.9730558929258635 -1.5
vertex -10.185373313750606 -5.546004909801022 -1.5
vertex -7.758322330625765 -3.782649152923602 -1.5
endloop
endfacet
facet normal 0 0 -1
outer loop
vertex -8.422017556873186 -7.9730558929258635 -1.5
vertex -7.758322330625765 -3.782649152923602 -1.5
vertex -5.994966573748345 -6.209700136048444 -1.5
endloop
endfacet
facet normal 0 0 1
outer loop
vertex -7.758322330625765 -3.782649152923602 1.5
vertex -10.185373313750606 -5.546004909801022 1.5
vertex -8.422017556873186 -7.9730558929258635 1.5
endloop
endfacet
facet normal 0 0 1
outer loop
vertex -7.758322330625765 -3.782649152923602 1.5
vertex -8.422017556873186 -7.9730558929258635 1.5
vertex -5.994966573748345 -6.209700136048444 1.5
endloop
endfacet
facet normal 1 0 0
outer loop
vertex -8.5 1.499999999999999 -1.5
vertex -8.5 1.499999999999999 1.5
vertex -8.5 -1.500000000000001 1.5
endloop
endfacet
facet normal 1 0 0
outer loop
vertex -8.5 1.499999999999999 -1.5
vertex -8.5 -1.500000000000001 1.5
vertex -8.5 -1.500000000000001 -1.5
endloop
endfacet
facet normal -1 0 0
outer loop
vertex -11.5 -1.5000000000000016 1.5
vertex -11.5 1.4999999999999984 1.5
vertex -11.5 1.4999999999999984 -1.5
endloop
endfacet
facet normal -1 0 0
outer loop
vertex -11.5 -1.5000000000000016 1.5
vertex -11.5 1.4999999999999984 -1.5
vertex -11.5 -1.5000000000000016 -1.5
endloop
endfacet
facet normal 0 -1 0
outer loop
vertex -8.5 -1.500000000000001 1.5
vertex -11.5 -1.5000000000000016 1.5
vertex -11.5 -1.5000000000000016 -1.5
endloop
endfacet
facet normal 0 -1 0
outer loop
vertex -8.5 -1.500000000000001 1.5
vertex -11.5 -1.5000000000000016 -1.5
vertex -8.5 -1.500000000000001 -1.5
endloop
endfacet
facet normal 0 1 0
outer loop
vertex -11.5 1.4999999999999984 -1.5
vertex -11.5 1.4999999999999984 1.5
vertex -8.5 1.499999999999999 1.5
endloop
endfacet
facet normal 0 1 0
outer loop
vertex -11.5 1.4999999999999984 -1.5
vertex -8.5 1.499999999999999 1.5
vertex -8.5 1.499999999999999 -1.5
endloop
endfacet
facet normal 0 0 -1
outer loop
vertex -11.5 -1.5000000000000016 -1.5
vertex -11.5 1.4999999999999984 -1.5
vertex -8.5 1.499999999999999 -1.5
endloop
endfacet
facet normal 0 0 -1
outer loop
vertex -11.5 -1.5000000000000016 -1.5
vertex -8.5 1.499999999999999 -1.5
vertex -8.5 -1.500000000000001 -1.5
endloop
endfacet
facet normal 0 0 1
outer loop
vertex -8.5 1.499999999999999 1.5
vertex -11.5 1.4999999999999984 1.5
vertex -11.5 -1.5000000000000016 1.5
endloop
endfacet
facet normal 0 0 1
outer loop
vertex -8.5 1.499999999999999 1.5
vertex -11.5 -1.5000000000000016 1.5
vertex -8.5 -1.500000000000001 1.5
endloop
endfacet
facet normal 0.8090169943749478 -0.5877852522924728 0
outer loop
vertex -5.994966573748345 6.209700136048442 -1.5
vertex -5.994966573748345 6.209700136048442 1.5
vertex -7.758322330625764 3.7826491529235993 1.5
endloop
endfacet
facet normal 0.8090169943749478 -0.5877852522924728 0
outer loop
vertex -5.994966573748345 6.209700136048442 -1.5
vertex -7.758322330625764 3.7826491529235993 1.5
vertex -7.758322330625764 3.7826491529235993 -1.5
endloop
endfacet
facet normal -0.8090169943749491 0.5877852522924708 0
outer loop
vertex -10.185373313750606 5.5460049098010185 1.5
vertex -8.422017556873186 7.973055892925861 1.5
vertex -8.422017556873186 7.973055892925861 -1.5
endloop
endfacet
facet normal -0.8090169943749491 0.5877852522924708 0
outer loop
vertex -10.185373313750606 5.5460049098010185 1.5
vertex -8.422017556873186 7.973055892925861 -1.5
vertex -10.185373313750606 5.5460049098010185 -1.5
endloop
endfacet
facet normal -0.5877852522924728 -0.8090169943749478 0
outer loop
vertex -7.758322330625764 3.7826491529235993 1.5
vertex -10.185373313750606 5.5460049098010185 1.5
vertex -10.185373313750606 5.5460049098010185 -1.5
endloop
endfacet
facet normal -0.5877852522924728 -0.8090169943749478 0
outer loop
vertex -7.758322330625764 3.7826491529235993 1.5
vertex -10.185373313750606 5.5460049098010185 -1.5
vertex -7.758322330625764 3.7826491529235993 -1.5
endloop
endfacet
facet normal 0.5877852522924728 0.8090169943749478 0
outer loop
vertex -8.422017556873186 7.973055892925861 -1.5
vertex -8.422017556873186 7.973055892925861 1.5
vertex -5.994966573748345 6.209700136048442 1.5
endloop
endfacet
facet normal 0.5877852522924728 0.8090169943749478 0
outer loop
vertex -8.422017556873186 7.973055892925861 -1.5
vertex -5.994966573748345 6.209700136048442 1.5
vertex -5.994966573748345 6.209700136048442 -1.5
endloop
endfacet
facet normal 0 0 -1
outer loop
vertex -10.185373313750606 5.5460049098010185 -1.5
vertex -8.422017556873186 7.973055892925861 -1.5
vertex -5.994966573748345 6.209700136048442 -1.5
endloop
endfacet
facet normal 0 0 -1
outer loop
vertex -10.185373313750606 5.5460049098010185 -1.5
vertex -5.994966573748345 6.209700136048442 -1.5
vertex -7.758322330625764 3.7826491529235993 -1.5
endloop
endfacet
facet normal 0 0 1
outer loop
vertex -5.994966573748345 6.209700136048442 1.5
vertex -8.422017556873186 7.973055892925861 1.5
vertex -10.185373313750606 5.5460049098010185 1.5
endloop
endfacet
facet normal 0 0 1
outer loop
vertex -5.994966573748345 6.209700136048442 1.5
vertex -10.185373313750606 5.5460049098010185 1.5
vertex -7.758322330625764 3.7826491529235993 1.5
endloop
endfacet
facet normal 0.3090169943749468 -0.9510565162951536 0
outer loop
vertex -1.2000596777443242 8.547505880071226 -1.5
vertex -1.2000596777443242 8.547505880071226 1.5
vertex -4.053229226629784 7.6204548969463834 1.5
endloop
endfacet
facet normal 0.3090169943749468 -0.9510565162951536 0
outer loop
vertex -1.2000596777443242 8.547505880071226 -1.5
vertex -4.053229226629784 7.6204548969463834 1.5
vertex -4.053229226629784 7.6204548969463834 -1.5
endloop
endfacet
facet normal -0.3090169943749459 0.951056516295154 0
outer loop
vertex -4.980280209754627 10.473624445831843 1.5
vertex -2.1271106608691666 11.400675428956685 1.5
vertex -2.1271106608691666 11.400675428956685 -1.5
endloop
endfacet
facet normal -0.3090169943749459 0.951056516295154 0
outer loop
vertex -4.980280209754627 10.473624445831843 1.5
vertex -2.1271106608691666 11.400675428956685 -1.5
vertex -4.980280209754627 10.473624445831843 -1.5
endloop
endfacet
facet normal -0.9510565162951534 -0.3090169943749481 0
outer loop
vertex -4.053229226629784 7.6204548969463834 1.5
vertex -4.980280209754627 10.473624445831843 1.5
vertex -4.980280209754627 10.473624445831843 -1.5
endloop
endfacet
facet normal -0.9510565162951534 -0.3090169943749481 0
outer loop
vertex -4.053229226629784 7.6204548969463834 1.5
vertex -4.980280209754627 10.473624445831843 -1.5
vertex -4.053229226629784 7.6204548969463834 -1.5
endloop
endfacet
facet normal 0.9510565162951531 0.309016994374949 0
outer loop
vertex -2.1271106608691666 11.400675428956685 -1.5
vertex -2.1271106608691666 11.400675428956685 1.5
vertex -1.2000596777443242 8.547505880071226 1.5
endloop
endfacet
facet normal 0.9510565162951531 0.309016994374949 0
outer loop
vertex -2.1271106608691666 11.400675428956685 -1.5
vertex -1.2000596777443242 8.547505880071226 1.5
vertex -1.2000596777443242 8.547505880071226 -1.5
endloop
endfacet
facet normal 0 0 -1
outer loop
vertex -4.980280209754627 10.473624445831843 -1.5
vertex -2.1271106608691666 11.400675428956685 -1.5
vertex -1.2000596777443242 8.547505880071226 -1.5
endloop
endfacet
facet normal 0 0 -1
outer loop
vertex -4.980280209754627 10.473624445831843 -1.5
vertex -1.2000596777443242 8.547505880071226 -1.5
vertex -4.053229226629784 7.6204548969463834 -1.5
endloop
endfacet
facet normal 0 0 1
outer loop
vertex -1.2000596777443242 8.547505880071226 1.5
vertex -2.1271106608691666 11.400675428956685 1.5
vertex -4.980280209754627 10.473624445831843 1.5
endloop
endfacet
facet normal 0 0 1
outer loop
vertex -1.2000596777443242 8.547505880071226 1.5
vertex -4.980280209754627 10.473624445831843 1.5
vertex -4.053229226629784 7.6204548969463834 1.5
endloop
endfacet
facet normal -0.30901699437494656 -0.9510565162951539 0
outer loop
vertex 4.053229226629782 7.620454896946386 -1.5
vertex 4.053229226629782 7.620454896946386 1.5
vertex 1.200059677744321 8.547505880071228 1.5
endloop
endfacet
facet normal -0.30901699437494656 -0.9510565162951539 0
outer loop
vertex 4.053229226629782 7.620454896946386 -1.5
vertex 1.200059677744321 8.547505880071228 1.5
vertex 1.200059677744321 8.547505880071228 -1.5
endloop
endfacet
facet normal 0.30901699437494634 0.9510565162951539 0
outer loop
vertex 2.127110660869163 11.400675428956689 1.5
vertex 4.980280209754623 10.473624445831847 1.5
vertex 4.980280209754623 10.473624445831847 -1.5
endloop
endfacet
facet normal 0.30901699437494634 0.9510565162951539 0
outer loop
vertex 2.127110660869163 11.400675428956689 1.5
vertex 4.980280209754623 10.473624445831847 -1.5
vertex 2.127110660869163 11.400675428956689 -1.5
endloop
endfacet
facet normal -0.9510565162951539 0.3090169943749466 0
outer loop
vertex 1.200059677744321 8.547505880071228 1.5
vertex 2.127110660869163 11.400675428956689 1.5
vertex 2.127110660869163 11.400675428956689 -1.5
endloop
endfacet
facet normal -0.9510565162951539 0.3090169943749466 0
outer loop
vertex 1.200059677744321 8.547505880071228 1.5
vertex 2.127110660869163 11.400675428956689 -1.5
vertex 1.200059677744321 8.547505880071228 -1.5
endloop
endfacet
facet normal 0.9510565162951545 -0.3090169943749446 0
outer loop
vertex 4.980280209754623 10.473624445831847 -1.5
vertex 4.980280209754623 10.473624445831847 1.5
vertex 4.053229226629782 7.620454896946386 1.5
endloop
endfacet
facet normal 0.9510565162951545 -0.3090169943749446 0
outer loop
vertex 4.980280209754623 10.473624445831847 -1.5
vertex 4.053229226629782 7.620454896946386 1.5
vertex 4.053229226629782 7.620454896946386 -1.5
endloop
endfacet
facet normal 0 0 -1
outer loop
vertex 2.127110660869163 11.400675428956689 -1.5
vertex 4.980280209754623 10.473624445831847 -1.5
vertex 4.053229226629782 7.620454896946386 -1.5
endloop
endfacet
facet normal 0 0 -1
outer loop
vertex 2.127110660869163 11.400675428956689 -1.5
vertex 4.053229226629782 7.620454896946386 -1.5
vertex 1.200059677744321 8.547505880071228 -1.5
endloop
endfacet
facet normal 0 0 1
outer loop
vertex 4.053229226629782 7.620454896946386 1.5
vertex 4.980280209754623 10.473624445831847 1.5
vertex 2.127110660869163 11.400675428956689 1.5
endloop
endfacet
facet normal 0 0 1
outer loop
vertex 4.053229226629782 7.620454896946386 1.5
vertex 2.127110660869163 11.400675428956689 1.5
vertex 1.200059677744321 8.547505880071228 1.5
endloop
endfacet
facet normal -0.8090169943749478 -0.5877852522924728 0
outer loop
vertex 7.758322330625762 3.782649152923603 -1.5
vertex 7.758322330625762 3.782649152923603 1.5
vertex 5.994966573748342 6.209700136048444 1.5
endloop
endfacet
facet normal -0.8090169943749478 -0.5877852522924728 0
outer loop
vertex 7.758322330625762 3.782649152923603 -1.5
vertex 5.994966573748342 6.209700136048444 1.5
vertex 5.994966573748342 6.209700136048444 -1.5
endloop
endfacet
facet normal 0.8090169943749481 0.5877852522924721 0
outer loop
vertex 8.422017556873183 7.973055892925864 1.5
vertex 10.185373313750603 5.546004909801023 1.5
vertex 10.185373313750603 5.546004909801023 -1.5
endloop
endfacet
facet normal 0.8090169943749481 0.5877852522924721 0
outer loop
vertex 8.422017556873183 7.973055892925864 1.5
vertex 10.185373313750603 5.546004909801023 -1.5
vertex 8.422017556873183 7.973055892925864 -1.5
endloop
endfacet
facet normal -0.5877852522924728 0.8090169943749478 0
outer loop
vertex 5.994966573748342 6.209700136048444 1.5
vertex 8.422017556873183 7.973055892925864 1.5
vertex 8.422017556873183 7.973055892925864 -1.5
endloop
endfacet
facet normal -0.5877852522924728 0.8090169943749478 0
outer loop
vertex 5.994966573748342 6.209700136048444 1.5
vertex 8.422017556873183 7.973055892925864 -1.5
vertex 5.994966573748342 6.209700136048444 -1.5
endloop
endfacet
facet normal 0.5877852522924728 -0.8090169943749478 0
outer loop
vertex 10.185373313750603 5.546004909801023 -1.5
vertex 10.185373313750603 5.546004909801023 1.5
vertex 7.758322330625762 3.782649152923603 1.5
endloop
endfacet
facet normal 0.5877852522924728 -0.8090169943749478 0
outer loop
vertex 10.185373313750603 5.546004909801023 -1.5
vertex 7.758322330625762 3.782649152923603 1.5
vertex 7.758322330625762 3.782649152923603 -1.5
endloop
endfacet
facet normal 0 0 -1
outer loop
vertex 8.422017556873183 7.973055892925864 -1.5
vertex 10.185373313750603 5.546004909801023 -1.5
vertex 7.758322330625762 3.782649152923603 -1.5
endloop
endfacet
facet normal 0 0 -1
outer loop
vertex 8.422017556873183 7.973055892925864 -1.5
vertex 7.758322330625762 3.782649152923603 -1.5
vertex 5.994966573748342 6.209700136048444 -1.5
endloop
endfacet
facet normal 0 0 1
outer loop
vertex 7.758322330625762 3.782649152923603 1.5
vertex 10.185373313750603 5.546004909801023 1.5
vertex 8.422017556873183 7.973055892925864 1.5
endloop
endfacet
facet normal 0 0 1
outer loop
vertex 7.758322330625762 3.782649152923603 1.5
vertex 8.422017556873183 7.973055892925864 1.5
vertex 5.994966573748342 6.209700136048444 1.5
endloop
endfacet
endsolid craftml
