solid craftml
facet normal 0 -1 0
outer loop
vertex -6.88190960235586 -5.000000000000001 5
vertex -15 -5 5
vertex -15 -5 -5
endloop
endfacet
facet normal 0 -1 0
outer loop
vertex -6.88190960235586 -5.000000000000001 5
vertex -15 -5 -5
vertex -6.8819096023558615 -5.000000000000001 -5
endloop
endfacet
facet normal 0 1 0
outer loop
vertex -15 5 5
vertex -6.881909602355876 5 5
vertex -6.881909602355876 5 -5
endloop
endfacet
facet normal 0 1 0
outer loop
vertex -15 5 5
vertex -6.881909602355876 5 -5
vertex -15 5 -5
endloop
endfacet
facet normal -1 0 0
outer loop
vertex -15 -5 5
vertex -15 5 5
vertex -15 5 -5
endloop
endfacet
facet normal -1 0 0
outer loop
vertex -15 -5 5
vertex -15 5 -5
vertex -15 -5 -5
endloop
endfacet
facet normal 1 0 0
outer loop
vertex -5 -0.7919222016227243 5
vertex -5 -3.6327126400267984 5
vertex -5 -3.6327126400267984 -5
endloop
endfacet
facet normal 1 0 0
outer loop
vertex -5 -0.7919222016227243 5
vertex -5 -3.6327126400267984 -5
vertex -5 -0.7919222016227243 -5
endloop
endfacet
facet normal 1 0 0
outer loop
vertex -5 3.6327126400268024 5
vertex -5 -0.7919222016227243 5
vertex -5 -0.7919222016227243 -5
endloop
endfacet
facet normal 1 0 0
outer loop
vertex -5 3.6327126400268024 5
vertex -5 -0.7919222016227243 -5
vertex -5 3.632712640026803 -5
endloop
endfacet
facet normal 0 0 -1
outer loop
vertex -15 5 -5
vertex -5 5 -5
vertex -5 -5.000000000000001 -5
endloop
endfacet
facet normal 0 0 -1
outer loop
vertex -15 5 -5
vertex -5 -5.000000000000001 -5
vertex -15 -5 -5
endloop
endfacet
facet normal 0 0 1
outer loop
vertex -5 -5.000000000000001 5
vertex -5 5 5
vertex -15 5 5
endloop
endfacet
facet normal 0 0 1
outer loop
vertex -5 -5.000000000000001 5
vertex -15 5 5
vertex -15 -5 5
endloop
endfacet
facet normal -0.9510565162951539 -0.3090169943749466 0
outer loop
vertex -6.881909602355868 5 5
vertex -9.390537497099979 12.720762772552565 5
vertex -9.390537497099979 12.720762772552565 -5
endloop
endfacet
facet normal -0.9510565162951539 -0.3090169943749466 0
outer loop
vertex -6.881909602355868 5 5
vertex -9.390537497099979 12.720762772552565 -5
vertex -6.881909602355868 5 -5
endloop
endfacet
facet normal 0.9510565162951536 0.3090169943749472 0
outer loop
vertex 0.12002766585155555 15.81093271630204 5
vertex 2.6286555605956687 8.09016994374947 5
vertex 2.6286555605956687 8.09016994374947 -5
endloop
endfacet
facet normal 0.9510565162951536 0.3090169943749472 0
outer loop
vertex 0.12002766585155555 15.81093271630204 5
vertex 2.6286555605956687 8.09016994374947 -5
vertex 0.12002766585155555 15.81093271630204 -5
endloop
endfacet
facet normal -0.3090169943749466 0.9510565162951539 0
outer loop
vertex -9.390537497099979 12.720762772552565 5
vertex 0.12002766585155555 15.81093271630204 5
vertex 0.12002766585155555 15.81093271630204 -5
endloop
endfacet
facet normal -0.3090169943749466 0.9510565162951539 0
outer loop
vertex -9.390537497099979 12.720762772552565 5
vertex 0.12002766585155555 15.81093271630204 -5
vertex -9.390537497099979 12.720762772552565 -5
endloop
endfacet
facet normal 0.3090169943749466 -0.9510565162951539 0
outer loop
vertex 1.9098300562505284 5.877852522924732 5
vertex -0.7919222016226799 5 5
vertex -0.7919222016226799 5 -5
endloop
endfacet
facet normal 0.3090169943749466 -0.9510565162951539 0
outer loop
vertex 1.9098300562505284 5.877852522924732 5
vertex -0.7919222016226799 5 -5
vertex 1.9098300562505282 5.877852522924732 -5
endloop
endfacet
facet normal 0.3090169943749466 -0.9510565162951539 0
outer loop
vertex -0.7919222016226799 5 5
vertex -5 3.6327126400268037 5
vertex -5 3.6327126400268037 -5
endloop
endfacet
facet normal 0.3090169943749466 -0.9510565162951539 0
outer loop
vertex -0.7919222016226799 5 5
vertex -5 3.6327126400268037 -5
vertex -0.7919222016226799 5 -5
endloop
endfacet
facet normal 0 0 -1
outer loop
vertex 0.12002766585155555 15.81093271630204 -5
vertex 3.21019760960103 6.300367553350505 -5
vertex -0.7919222016226799 5 -5
endloop
endfacet
facet normal 0 0 -1
outer loop
vertex 0.12002766585155555 15.81093271630204 -5
vertex -0.7919222016226799 5 -5
vertex -6.881909602355868 5 -5
endloop
endfacet
facet normal 0 0 -1
outer loop
vertex 0.12002766585155555 15.81093271630204 -5
vertex -6.881909602355868 5 -5
vertex -9.390537497099979 12.720762772552565 -5
endloop
endfacet
facet normal 0 0 -1
outer loop
vertex -0.7919222016226799 5 -5
vertex -5 3.6327126400268037 -5
vertex -5 5 -5
endloop
endfacet
facet normal 0 0 1
outer loop
vertex -0.7919222016226799 5 5
vertex 3.21019760960103 6.300367553350505 5
vertex 0.12002766585155555 15.81093271630204 5
endloop
endfacet
facet normal 0 0 1
outer loop
vertex -0.7919222016226799 5 5
vertex 0.12002766585155555 15.81093271630204 5
vertex -9.390537497099979 12.720762772552565 5
endloop
endfacet
facet normal 0 0 1
outer loop
vertex -0.7919222016226799 5 5
vertex -9.390537497099979 12.720762772552565 5
vertex -6.881909602355868 5 5
endloop
endfacet
facet normal 0 0 1
outer loop
vertex -5 3.6327126400268037 5
vertex -0.7919222016226799 5 5
vertex -5 5 5
endloop
endfacet
facet normal -0.5877852522924737 0.809016994374947 0
outer loop
vertex 2.628655560595665 8.090169943749475 5
vertex 9.196328654161846 12.861863756261837 5
vertex 9.196328654161846 12.861863756261837 -5
endloop
endfacet
facet normal -0.5877852522924737 0.809016994374947 0
outer loop
vertex 2.628655560595665 8.090169943749475 5
vertex 9.196328654161846 12.861863756261837 -5
vertex 2.6286555605956643 8.090169943749473 -5
endloop
endfacet
facet normal 0.5877852522924728 -0.8090169943749477 0
outer loop
vertex 15.074181177086578 4.771693812512362 5
vertex 8.506508083520403 4.440892098500626e-15 5
vertex 8.506508083520405 5.329070518200751e-15 -5
endloop
endfacet
facet normal 0.5877852522924728 -0.8090169943749477 0
outer loop
vertex 15.074181177086578 4.771693812512362 5
vertex 8.506508083520405 5.329070518200751e-15 -5
vertex 15.074181177086578 4.771693812512362 -5
endloop
endfacet
facet normal 0.809016994374947 0.5877852522924737 0
outer loop
vertex 9.196328654161846 12.861863756261837 5
vertex 15.074181177086578 4.771693812512362 5
vertex 15.074181177086578 4.771693812512362 -5
endloop
endfacet
facet normal 0.809016994374947 0.5877852522924737 0
outer loop
vertex 9.196328654161846 12.861863756261837 5
vertex 15.074181177086578 4.771693812512362 -5
vertex 9.196328654161846 12.861863756261837 -5
endloop
endfacet
facet normal -0.8090169943749475 -0.5877852522924734 0
outer loop
vertex 6.180339887498948 2.6645352591003757e-15 5
vertex 4.510565162951526 2.298247742126809 5
vertex 4.510565162951526 2.2982477421268097 -5
endloop
endfacet
facet normal -0.8090169943749475 -0.5877852522924734 0
outer loop
vertex 6.180339887498948 2.6645352591003757e-15 5
vertex 4.510565162951526 2.2982477421268097 -5
vertex 6.180339887498948 2.6645352591003757e-15 -5
endloop
endfacet
facet normal -0.8090169943749475 -0.5877852522924734 0
outer loop
vertex 4.510565162951526 2.298247742126809 5
vertex 1.9098300562505326 5.877852522924725 5
vertex 1.9098300562505324 5.877852522924725 -5
endloop
endfacet
facet normal -0.8090169943749475 -0.5877852522924734 0
outer loop
vertex 4.510565162951526 2.298247742126809 5
vertex 1.9098300562505324 5.877852522924725 -5
vertex 4.510565162951526 2.2982477421268097 -5
endloop
endfacet
facet normal 0 0 -1
outer loop
vertex 15.074181177086578 4.771693812512362 -5
vertex 6.984011233337103 -1.1061587104123696 -5
vertex 4.510565162951526 2.298247742126809 -5
endloop
endfacet
facet normal 0 0 -1
outer loop
vertex 15.074181177086578 4.771693812512362 -5
vertex 4.510565162951526 2.298247742126809 -5
vertex 2.628655560595665 8.090169943749475 -5
endloop
endfacet
facet normal 0 0 -1
outer loop
vertex 15.074181177086578 4.771693812512362 -5
vertex 2.628655560595665 8.090169943749475 -5
vertex 9.196328654161846 12.861863756261837 -5
endloop
endfacet
facet normal 0 0 -1
outer loop
vertex 4.510565162951526 2.298247742126809 -5
vertex 1.9098300562505326 5.877852522924725 -5
vertex 3.2101976096010305 6.300367553350495 -5
endloop
endfacet
facet normal 0 0 1
outer loop
vertex 4.510565162951526 2.2982477421268097 5
vertex 6.984011233337103 -1.1061587104123696 5
vertex 15.074181177086578 4.771693812512362 5
endloop
endfacet
facet normal 0 0 1
outer loop
vertex 4.510565162951526 2.2982477421268097 5
vertex 15.074181177086578 4.771693812512362 5
vertex 9.196328654161846 12.861863756261837 5
endloop
endfacet
facet normal 0 0 1
outer loop
vertex 4.510565162951526 2.2982477421268097 5
vertex 9.196328654161846 12.861863756261837 5
vertex 2.6286555605956643 8.090169943749473 5
endloop
endfacet
facet normal 0 0 1
outer loop
vertex 1.9098300562505324 5.877852522924725 5
vertex 4.510565162951526 2.2982477421268097 5
vertex 3.21019760960103 6.300367553350494 5
endloop
endfacet
facet normal 0.5877852522924737 0.809016994374947 0
outer loop
vertex 8.506508083520396 2.6645352591003757e-15 5
vertex 15.074181177086576 -4.771693812512358 5
vertex 15.074181177086576 -4.771693812512358 -5
endloop
endfacet
facet normal 0.5877852522924737 0.809016994374947 0
outer loop
vertex 8.506508083520396 2.6645352591003757e-15 5
vertex 15.074181177086576 -4.771693812512358 -5
vertex 8.506508083520396 1.7763568394002505e-15 -5
endloop
endfacet
facet normal -0.5877852522924737 -0.809016994374947 0
outer loop
vertex 9.196328654161846 -12.861863756261833 5
vertex 2.628655560595674 -8.090169943749478 5
vertex 2.628655560595674 -8.090169943749478 -5
endloop
endfacet
facet normal -0.5877852522924737 -0.809016994374947 0
outer loop
vertex 9.196328654161846 -12.861863756261833 5
vertex 2.628655560595674 -8.090169943749478 -5
vertex 9.196328654161846 -12.861863756261833 -5
endloop
endfacet
facet normal 0.8090169943749475 -0.5877852522924734 0
outer loop
vertex 15.074181177086576 -4.771693812512358 5
vertex 9.196328654161846 -12.861863756261833 5
vertex 9.196328654161846 -12.861863756261833 -5
endloop
endfacet
facet normal 0.8090169943749475 -0.5877852522924734 0
outer loop
vertex 15.074181177086576 -4.771693812512358 5
vertex 9.196328654161846 -12.861863756261833 -5
vertex 15.074181177086576 -4.771693812512358 -5
endloop
endfacet
facet normal -0.8090169943749475 0.5877852522924734 0
outer loop
vertex 1.9098300562505242 -5.877852522924733 5
vertex 3.57960478079795 -3.579604780797921 5
vertex 3.579604780797949 -3.579604780797922 -5
endloop
endfacet
facet normal -0.8090169943749475 0.5877852522924734 0
outer loop
vertex 1.9098300562505242 -5.877852522924733 5
vertex 3.579604780797949 -3.579604780797922 -5
vertex 1.9098300562505248 -5.877852522924732 -5
endloop
endfacet
facet normal -0.8090169943749475 0.5877852522924734 0
outer loop
vertex 3.57960478079795 -3.579604780797921 5
vertex 6.18033988749895 3.9968028886505635e-15 5
vertex 6.18033988749895 4.440892098500626e-15 -5
endloop
endfacet
facet normal -0.8090169943749475 0.5877852522924734 0
outer loop
vertex 3.57960478079795 -3.579604780797921 5
vertex 6.18033988749895 4.440892098500626e-15 -5
vertex 3.579604780797949 -3.579604780797922 -5
endloop
endfacet
facet normal 0 0 -1
outer loop
vertex 9.196328654161846 -12.861863756261833 -5
vertex 1.1061587104123713 -6.984011233337102 -5
vertex 3.57960478079795 -3.579604780797921 -5
endloop
endfacet
facet normal 0 0 -1
outer loop
vertex 9.196328654161846 -12.861863756261833 -5
vertex 3.57960478079795 -3.579604780797921 -5
vertex 8.506508083520396 2.6645352591003757e-15 -5
endloop
endfacet
facet normal 0 0 -1
outer loop
vertex 9.196328654161846 -12.861863756261833 -5
vertex 8.506508083520396 2.6645352591003757e-15 -5
vertex 15.074181177086576 -4.771693812512358 -5
endloop
endfacet
facet normal 0 0 -1
outer loop
vertex 3.57960478079795 -3.579604780797921 -5
vertex 6.18033988749895 3.9968028886505635e-15 -5
vertex 6.984011233337103 -1.1061587104123651 -5
endloop
endfacet
facet normal 0 0 1
outer loop
vertex 3.579604780797949 -3.579604780797922 5
vertex 1.1061587104123713 -6.984011233337102 5
vertex 9.196328654161846 -12.861863756261833 5
endloop
endfacet
facet normal 0 0 1
outer loop
vertex 3.579604780797949 -3.579604780797922 5
vertex 9.196328654161846 -12.861863756261833 5
vertex 15.074181177086576 -4.771693812512358 5
endloop
endfacet
facet normal 0 0 1
outer loop
vertex 3.579604780797949 -3.579604780797922 5
vertex 15.074181177086576 -4.771693812512358 5
vertex 8.506508083520396 1.7763568394002505e-15 5
endloop
endfacet
facet normal 0 0 1
outer loop
vertex 6.18033988749895 4.440892098500626e-15 5
vertex 3.579604780797949 -3.579604780797922 5
vertex 6.984011233337103 -1.1061587104123656 5
endloop
endfacet
facet normal 0.9510565162951533 -0.30901699437494823 0
outer loop
vertex 2.628655560595672 -8.09016994374947 5
vertex 0.12002766585155555 -15.810932716302043 5
vertex 0.12002766585155555 -15.810932716302043 -5
endloop
endfacet
facet normal 0.9510565162951533 -0.30901699437494823 0
outer loop
vertex 2.628655560595672 -8.09016994374947 5
vertex 0.12002766585155555 -15.810932716302043 -5
vertex 2.6286555605956723 -8.09016994374947 -5
endloop
endfacet
facet normal -0.9510565162951534 0.3090169943749483 0
outer loop
vertex -9.390537497099979 -12.720762772552565 5
vertex -6.881909602355865 -5 5
vertex -6.881909602355865 -5 -5
endloop
endfacet
facet normal -0.9510565162951534 0.3090169943749483 0
outer loop
vertex -9.390537497099979 -12.720762772552565 5
vertex -6.881909602355865 -5 -5
vertex -9.390537497099979 -12.720762772552565 -5
endloop
endfacet
facet normal -0.3090169943749483 -0.9510565162951534 0
outer loop
vertex 0.12002766585155555 -15.810932716302043 5
vertex -9.390537497099979 -12.720762772552565 5
vertex -9.390537497099979 -12.720762772552565 -5
endloop
endfacet
facet normal -0.3090169943749483 -0.9510565162951534 0
outer loop
vertex 0.12002766585155555 -15.810932716302043 5
vertex -9.390537497099979 -12.720762772552565 -5
vertex 0.12002766585155555 -15.810932716302043 -5
endloop
endfacet
facet normal 0.3090169943749483 0.9510565162951534 0
outer loop
vertex -0.7919222016226835 -5 5
vertex 1.9098300562505215 -5.877852522924732 5
vertex 1.9098300562505215 -5.877852522924732 -5
endloop
endfacet
facet normal 0.3090169943749483 0.9510565162951534 0
outer loop
vertex -0.7919222016226835 -5 5
vertex 1.9098300562505215 -5.877852522924732 -5
vertex -0.7919222016226843 -5 -5
endloop
endfacet
facet normal 0.3090169943749483 0.9510565162951534 0
outer loop
vertex -5 -3.6327126400268033 5
vertex -0.7919222016226835 -5 5
vertex -0.7919222016226843 -5 -5
endloop
endfacet
facet normal 0.3090169943749483 0.9510565162951534 0
outer loop
vertex -5 -3.6327126400268033 5
vertex -0.7919222016226843 -5 -5
vertex -5 -3.6327126400268033 -5
endloop
endfacet
facet normal 0 0 -1
outer loop
vertex -9.390537497099979 -12.720762772552565 -5
vertex -6.881909602355865 -5 -5
vertex -1.6245984811645187 -5 -5
endloop
endfacet
facet normal 0 0 -1
outer loop
vertex -9.390537497099979 -12.720762772552565 -5
vertex -1.6245984811645187 -5 -5
vertex 2.628655560595672 -8.09016994374947 -5
endloop
endfacet
facet normal 0 0 -1
outer loop
vertex -9.390537497099979 -12.720762772552565 -5
vertex 2.628655560595672 -8.09016994374947 -5
vertex 0.12002766585155555 -15.810932716302043 -5
endloop
endfacet
facet normal 0 0 -1
outer loop
vertex -1.6245984811645187 -5 -5
vertex -0.7919222016226835 -5 -5
vertex 1.9098300562505215 -5.877852522924732 -5
endloop
endfacet
facet normal 0 0 -1
outer loop
vertex -1.6245984811645187 -5 -5
vertex 1.9098300562505215 -5.877852522924732 -5
vertex 1.106158710412373 -6.984011233337095 -5
endloop
endfacet
facet normal 0 0 -1
outer loop
vertex -5 -3.6327126400268033 -5
vertex -0.7919222016226835 -5 -5
vertex -5 -5 -5
endloop
endfacet
facet normal 0 0 1
outer loop
vertex -1.624598481164516 -5 5
vertex -6.881909602355865 -5 5
vertex -9.390537497099979 -12.720762772552565 5
endloop
endfacet
facet normal 0 0 1
outer loop
vertex -1.624598481164516 -5 5
vertex -9.390537497099979 -12.720762772552565 5
vertex 0.12002766585155555 -15.810932716302043 5
endloop
endfacet
facet normal 0 0 1
outer loop
vertex -1.624598481164516 -5 5
vertex 0.12002766585155555 -15.810932716302043 5
vertex 2.6286555605956723 -8.09016994374947 5
endloop
endfacet
facet normal 0 0 1
outer loop
vertex 1.9098300562505215 -5.877852522924732 5
vertex -0.7919222016226843 -5 5
vertex -1.624598481164516 -5 5
endloop
endfacet
facet normal 0 0 1
outer loop
vertex 1.9098300562505215 -5.877852522924732 5
vertex -1.624598481164516 -5 5
vertex 1.1061587104123731 -6.984011233337094 5
endloop
endfacet
facet normal 0 0 1
outer loop
vertex -0.7919222016226843 -5 5
vertex -5 -3.6327126400268033 5
vertex -5 -5 5
endloop
endfacet
endsolid craftml
