solid craftml
facet normal 0 0 1
outer loop
vertex 4.999999999999998 5 20
vertex 3.4356553495976896 4.876883405951377 20
vertex 1.9098300562505246 4.510565162951535 20
endloop
endfacet
facet normal 0 0 1
outer loop
vertex 4.999999999999998 5 20
vertex 1.9098300562505246 4.510565162951535 20
vertex 0.46009500260453073 3.9100652418836788 20
endloop
endfacet
facet normal 0 0 1
outer loop
vertex 4.999999999999998 5 20
vertex 0.46009500260453073 3.9100652418836788 20
vertex -0.8778525229247327 3.0901699437494727 20
endloop
endfacet
facet normal 0 0 1
outer loop
vertex 4.999999999999998 5 20
vertex -0.8778525229247327 3.0901699437494727 20
vertex -0.983427962440195 3 20
endloop
endfacet
facet normal 0 0 1
outer loop
vertex 4.999999999999998 5 20
vertex -0.983427962440195 3 20
vertex 10.983427962440192 3 20
endloop
endfacet
facet normal 0 0 1
outer loop
vertex 4.999999999999998 5 20
vertex 10.983427962440192 3 20
vertex 10.87785252292473 3.0901699437494727 20
endloop
endfacet
facet normal 0 0 1
outer loop
vertex 4.999999999999998 5 20
vertex 10.87785252292473 3.0901699437494727 20
vertex 9.539904997395467 3.9100652418836788 20
endloop
endfacet
facet normal 0 0 1
outer loop
vertex 4.999999999999998 5 20
vertex 9.539904997395467 3.9100652418836788 20
vertex 8.090169943749473 4.510565162951535 20
endloop
endfacet
facet normal 0 0 1
outer loop
vertex 4.999999999999998 5 20
vertex 8.090169943749473 4.510565162951535 20
vertex 6.564344650402306 4.876883405951377 20
endloop
endfacet
facet normal 0 0 1
outer loop
vertex -0.983427962440195 3 20
vertex -1.0987487710186625 2.9015067247611013 20
vertex 3.7485242796781515 2.9015067247611013 20
endloop
endfacet
facet normal 0 0 1
outer loop
vertex -0.983427962440195 3 20
vertex 3.7485242796781515 2.9015067247611013 20
vertex 4.999999999999997 3 20
endloop
endfacet
facet normal 0 0 1
outer loop
vertex 4.999999999999997 3 20
vertex 6.251475720321857 2.9015067247611013 20
vertex 11.098748771018661 2.9015067247611013 20
endloop
endfacet
facet normal 0 0 1
outer loop
vertex 4.999999999999997 3 20
vertex 11.098748771018661 2.9015067247611013 20
vertex 10.983427962440192 3 20
endloop
endfacet
facet normal 0 0 1
outer loop
vertex -1.0987487710186625 2.9015067247611013 20
vertex -1.4418716157190394 2.608452130361229 20
vertex 2.527864045000422 2.608452130361229 20
endloop
endfacet
facet normal 0 0 1
outer loop
vertex -1.0987487710186625 2.9015067247611013 20
vertex 2.527864045000422 2.608452130361229 20
vertex 3.7485242796781515 2.9015067247611013 20
endloop
endfacet
facet normal 0 0 1
outer loop
vertex 6.251475720321857 2.9015067247611013 20
vertex 7.47213595499958 2.608452130361229 20
vertex 11.44187161571904 2.608452130361229 20
endloop
endfacet
facet normal 0 0 1
outer loop
vertex 6.251475720321857 2.9015067247611013 20
vertex 11.44187161571904 2.608452130361229 20
vertex 11.098748771018661 2.9015067247611013 20
endloop
endfacet
facet normal 0 0 1
outer loop
vertex -1.4418716157190394 2.608452130361229 20
vertex -2.0043476733453742 2.1280521935069414 20
vertex 1.3680760020836225 2.1280521935069414 20
endloop
endfacet
facet normal 0 0 1
outer loop
vertex -1.4418716157190394 2.608452130361229 20
vertex 1.3680760020836225 2.1280521935069414 20
vertex 2.527864045000422 2.608452130361229 20
endloop
endfacet
facet normal 0 0 1
outer loop
vertex 7.47213595499958 2.608452130361229 20
vertex 8.631923997916376 2.1280521935069414 20
vertex 12.004347673345372 2.1280521935069414 20
endloop
endfacet
facet normal 0 0 1
outer loop
vertex 7.47213595499958 2.608452130361229 20
vertex 12.004347673345372 2.1280521935069414 20
vertex 11.44187161571904 2.608452130361229 20
endloop
endfacet
facet normal 0 0 1
outer loop
vertex -2.0043476733453742 2.1280521935069414 20
vertex -2.0710678118654773 2.0710678118654746 20
vertex -2.582603942723406 1.47213595499958 20
endloop
endfacet
facet normal 0 0 1
outer loop
vertex -2.0043476733453742 2.1280521935069414 20
vertex -2.582603942723406 1.47213595499958 20
vertex 0.2977179816602158 1.47213595499958 20
endloop
endfacet
facet normal 0 0 1
outer loop
vertex -2.0043476733453742 2.1280521935069414 20
vertex 0.2977179816602158 1.47213595499958 20
vertex 1.3680760020836225 2.1280521935069414 20
endloop
endfacet
facet normal 0 0 1
outer loop
vertex 8.631923997916376 2.1280521935069414 20
vertex 9.702282018339782 1.47213595499958 20
vertex 12.582603942723406 1.47213595499958 20
endloop
endfacet
facet normal 0 0 1
outer loop
vertex 8.631923997916376 2.1280521935069414 20
vertex 12.582603942723406 1.47213595499958 20
vertex 12.071067811865474 2.0710678118654746 20
endloop
endfacet
facet normal 0 0 1
outer loop
vertex 8.631923997916376 2.1280521935069414 20
vertex 12.071067811865474 2.0710678118654746 20
vertex 12.004347673345372 2.1280521935069414 20
endloop
endfacet
facet normal 0 0 1
outer loop
vertex -2.582603942723406 1.47213595499958 20
vertex -3.0901699437494745 0.87785252292473 20
vertex -3.2255978598863853 0.6568542494923797 20
endloop
endfacet
facet normal 0 0 1
outer loop
vertex -2.582603942723406 1.47213595499958 20
vertex -3.2255978598863853 0.6568542494923797 20
vertex -0.6568542494923815 0.6568542494923797 20
endloop
endfacet
facet normal 0 0 1
outer loop
vertex -2.582603942723406 1.47213595499958 20
vertex -0.6568542494923815 0.6568542494923797 20
vertex 0.2977179816602158 1.47213595499958 20
endloop
endfacet
facet normal 0 0 1
outer loop
vertex 9.702282018339782 1.47213595499958 20
vertex 10.65685424949238 0.6568542494923797 20
vertex 13.225597859886383 0.6568542494923797 20
endloop
endfacet
facet normal 0 0 1
outer loop
vertex 9.702282018339782 1.47213595499958 20
vertex 13.225597859886383 0.6568542494923797 20
vertex 13.090169943749473 0.87785252292473 20
endloop
endfacet
facet normal 0 0 1
outer loop
vertex 9.702282018339782 1.47213595499958 20
vertex 13.090169943749473 0.87785252292473 20
vertex 12.582603942723406 1.47213595499958 20
endloop
endfacet
facet normal 0 0 1
outer loop
vertex -3.2255978598863853 0.6568542494923797 20
vertex -3.8105604754731885 -0.2977179816602149 20
vertex -1.4721359549995792 -0.2977179816602149 20
endloop
endfacet
facet normal 0 0 1
outer loop
vertex -3.2255978598863853 0.6568542494923797 20
vertex -1.4721359549995792 -0.2977179816602149 20
vertex -0.6568542494923815 0.6568542494923797 20
endloop
endfacet
facet normal 0 0 1
outer loop
vertex 10.65685424949238 0.6568542494923797 20
vertex 11.472135954999573 -0.2977179816602149 20
vertex 13.810560475473189 -0.2977179816602149 20
endloop
endfacet
facet normal 0 0 1
outer loop
vertex 10.65685424949238 0.6568542494923797 20
vertex 13.810560475473189 -0.2977179816602149 20
vertex 13.225597859886383 0.6568542494923797 20
endloop
endfacet
facet normal 0 0 1
outer loop
vertex -3.8105604754731885 -0.2977179816602149 20
vertex -3.9100652418836788 -0.46009500260453073 20
vertex -4.2861632862449985 -1.368076002083627 20
endloop
endfacet
facet normal 0 0 1
outer loop
vertex -3.8105604754731885 -0.2977179816602149 20
vertex -4.2861632862449985 -1.368076002083627 20
vertex -2.1280521935069436 -1.368076002083627 20
endloop
endfacet
facet normal 0 0 1
outer loop
vertex -3.8105604754731885 -0.2977179816602149 20
vertex -2.1280521935069436 -1.368076002083627 20
vertex -1.4721359549995792 -0.2977179816602149 20
endloop
endfacet
facet normal 0 0 1
outer loop
vertex 11.472135954999573 -0.2977179816602149 20
vertex 12.128052193506948 -1.368076002083627 20
vertex 14.286163286244998 -1.368076002083627 20
endloop
endfacet
facet normal 0 0 1
outer loop
vertex 11.472135954999573 -0.2977179816602149 20
vertex 14.286163286244998 -1.368076002083627 20
vertex 13.910065241883679 -0.46009500260453073 20
endloop
endfacet
facet normal 0 0 1
outer loop
vertex 11.472135954999573 -0.2977179816602149 20
vertex 13.910065241883679 -0.46009500260453073 20
vertex 13.810560475473189 -0.2977179816602149 20
endloop
endfacet
facet normal 0 0 1
outer loop
vertex -4.2861632862449985 -1.368076002083627 20
vertex -4.510565162951538 -1.9098300562505237 20
vertex -4.658941996039947 -2.527864045000425 20
endloop
endfacet
facet normal 0 0 1
outer loop
vertex -4.2861632862449985 -1.368076002083627 20
vertex -4.658941996039947 -2.527864045000425 20
vertex -2.60845213036123 -2.527864045000425 20
endloop
endfacet
facet normal 0 0 1
outer loop
vertex -4.2861632862449985 -1.368076002083627 20
vertex -2.60845213036123 -2.527864045000425 20
vertex -2.1280521935069436 -1.368076002083627 20
endloop
endfacet
facet normal 0 0 1
outer loop
vertex 12.128052193506948 -1.368076002083627 20
vertex 12.608452130361227 -2.527864045000425 20
vertex 14.658941996039946 -2.527864045000425 20
endloop
endfacet
facet normal 0 0 1
outer loop
vertex 12.128052193506948 -1.368076002083627 20
vertex 14.658941996039946 -2.527864045000425 20
vertex 14.510565162951535 -1.9098300562505237 20
endloop
endfacet
facet normal 0 0 1
outer loop
vertex 12.128052193506948 -1.368076002083627 20
vertex 14.510565162951535 -1.9098300562505237 20
vertex 14.286163286244998 -1.368076002083627 20
endloop
endfacet
facet normal 0 0 1
outer loop
vertex -4.658941996039947 -2.527864045000425 20
vertex -4.876883405951379 -3.4356553495976887 20
vertex -4.901506724761103 -3.748524279678155 20
endloop
endfacet
facet normal 0 0 1
outer loop
vertex -4.658941996039947 -2.527864045000425 20
vertex -4.901506724761103 -3.748524279678155 20
vertex -2.901506724761102 -3.748524279678155 20
endloop
endfacet
facet normal 0 0 1
outer loop
vertex -4.658941996039947 -2.527864045000425 20
vertex -2.901506724761102 -3.748524279678155 20
vertex -2.60845213036123 -2.527864045000425 20
endloop
endfacet
facet normal 0 0 1
outer loop
vertex 12.608452130361227 -2.527864045000425 20
vertex 12.901506724761104 -3.748524279678155 20
vertex 14.901506724761102 -3.748524279678155 20
endloop
endfacet
facet normal 0 0 1
outer loop
vertex 12.608452130361227 -2.527864045000425 20
vertex 14.901506724761102 -3.748524279678155 20
vertex 14.876883405951377 -3.4356553495976887 20
endloop
endfacet
facet normal 0 0 1
outer loop
vertex 12.608452130361227 -2.527864045000425 20
vertex 14.876883405951377 -3.4356553495976887 20
vertex 14.658941996039946 -2.527864045000425 20
endloop
endfacet
facet normal 0 0 1
outer loop
vertex -4.901506724761103 -3.748524279678155 20
vertex -5 -5 20
vertex -3 -5 20
endloop
endfacet
facet normal 0 0 1
outer loop
vertex -4.901506724761103 -3.748524279678155 20
vertex -3 -5 20
vertex -2.901506724761102 -3.748524279678155 20
endloop
endfacet
facet normal 0 0 1
outer loop
vertex 12.901506724761104 -3.748524279678155 20
vertex 12.999999999999998 -5 20
vertex 15 -5 20
endloop
endfacet
facet normal 0 0 1
outer loop
vertex 12.901506724761104 -3.748524279678155 20
vertex 15 -5 20
vertex 14.901506724761102 -3.748524279678155 20
endloop
endfacet
facet normal 0 0 1
outer loop
vertex -5 -5 20
vertex -4.901506724761101 -6.251475720321846 20
vertex -2.9015067247611013 -6.251475720321846 20
endloop
endfacet
facet normal 0 0 1
outer loop
vertex -5 -5 20
vertex -2.9015067247611013 -6.251475720321846 20
vertex -3 -5 20
endloop
endfacet
facet normal 0 0 1
outer loop
vertex 12.999999999999998 -5 20
vertex 12.9015067247611 -6.251475720321846 20
vertex 14.901506724761102 -6.251475720321846 20
endloop
endfacet
facet normal 0 0 1
outer loop
vertex 12.999999999999998 -5 20
vertex 14.901506724761102 -6.251475720321846 20
vertex 15 -5 20
endloop
endfacet
facet normal 0 0 1
outer loop
vertex -4.901506724761101 -6.251475720321846 20
vertex -4.876883405951377 -6.564344650402308 20
vertex -4.658941996039945 -7.472135954999575 20
endloop
endfacet
facet normal 0 0 1
outer loop
vertex -4.901506724761101 -6.251475720321846 20
vertex -4.658941996039945 -7.472135954999575 20
vertex -2.60845213036123 -7.472135954999575 20
endloop
endfacet
facet normal 0 0 1
outer loop
vertex -4.901506724761101 -6.251475720321846 20
vertex -2.60845213036123 -7.472135954999575 20
vertex -2.9015067247611013 -6.251475720321846 20
endloop
endfacet
facet normal 0 0 1
outer loop
vertex 12.9015067247611 -6.251475720321846 20
vertex 12.60845213036123 -7.472135954999575 20
vertex 14.658941996039946 -7.472135954999575 20
endloop
endfacet
facet normal 0 0 1
outer loop
vertex 12.9015067247611 -6.251475720321846 20
vertex 14.658941996039946 -7.472135954999575 20
vertex 14.876883405951379 -6.564344650402308 20
endloop
endfacet
facet normal 0 0 1
outer loop
vertex 12.9015067247611 -6.251475720321846 20
vertex 14.876883405951379 -6.564344650402308 20
vertex 14.901506724761102 -6.251475720321846 20
endloop
endfacet
facet normal 0 0 1
outer loop
vertex -4.658941996039945 -7.472135954999575 20
vertex -4.510565162951535 -8.090169943749475 20
vertex -4.286163286244991 -8.631923997916388 20
endloop
endfacet
facet normal 0 0 1
outer loop
vertex -4.658941996039945 -7.472135954999575 20
vertex -4.286163286244991 -8.631923997916388 20
vertex -2.1280521935069396 -8.631923997916388 20
endloop
endfacet
facet normal 0 0 1
outer loop
vertex -4.658941996039945 -7.472135954999575 20
vertex -2.1280521935069396 -8.631923997916388 20
vertex -2.60845213036123 -7.472135954999575 20
endloop
endfacet
facet normal 0 0 1
outer loop
vertex 12.60845213036123 -7.472135954999575 20
vertex 12.128052193506935 -8.631923997916388 20
vertex 14.28616328624499 -8.631923997916388 20
endloop
endfacet
facet normal 0 0 1
outer loop
vertex 12.60845213036123 -7.472135954999575 20
vertex 14.28616328624499 -8.631923997916388 20
vertex 14.510565162951535 -8.090169943749475 20
endloop
endfacet
facet normal 0 0 1
outer loop
vertex 12.60845213036123 -7.472135954999575 20
vertex 14.510565162951535 -8.090169943749475 20
vertex 14.658941996039946 -7.472135954999575 20
endloop
endfacet
facet normal 0 0 1
outer loop
vertex -4.286163286244991 -8.631923997916388 20
vertex -3.9100652418836788 -9.539904997395467 20
vertex -3.8105604754731948 -9.702282018339773 20
endloop
endfacet
facet normal 0 0 1
outer loop
vertex -4.286163286244991 -8.631923997916388 20
vertex -3.8105604754731948 -9.702282018339773 20
vertex -1.4721359549995818 -9.702282018339773 20
endloop
endfacet
facet normal 0 0 1
outer loop
vertex -4.286163286244991 -8.631923997916388 20
vertex -1.4721359549995818 -9.702282018339773 20
vertex -2.1280521935069396 -8.631923997916388 20
endloop
endfacet
facet normal 0 0 1
outer loop
vertex 12.128052193506935 -8.631923997916388 20
vertex 11.472135954999588 -9.702282018339773 20
vertex 13.810560475473194 -9.702282018339773 20
endloop
endfacet
facet normal 0 0 1
outer loop
vertex 12.128052193506935 -8.631923997916388 20
vertex 13.810560475473194 -9.702282018339773 20
vertex 13.910065241883679 -9.539904997395467 20
endloop
endfacet
facet normal 0 0 1
outer loop
vertex 12.128052193506935 -8.631923997916388 20
vertex 13.910065241883679 -9.539904997395467 20
vertex 14.28616328624499 -8.631923997916388 20
endloop
endfacet
facet normal 0 0 1
outer loop
vertex -3.8105604754731948 -9.702282018339773 20
vertex -3.225597859886382 -10.656854249492383 20
vertex -0.6568542494923779 -10.656854249492383 20
endloop
endfacet
facet normal 0 0 1
outer loop
vertex -3.8105604754731948 -9.702282018339773 20
vertex -0.6568542494923779 -10.656854249492383 20
vertex -1.4721359549995818 -9.702282018339773 20
endloop
endfacet
facet normal 0 0 1
outer loop
vertex 11.472135954999588 -9.702282018339773 20
vertex 10.656854249492374 -10.656854249492383 20
vertex 13.225597859886381 -10.656854249492383 20
endloop
endfacet
facet normal 0 0 1
outer loop
vertex 11.472135954999588 -9.702282018339773 20
vertex 13.225597859886381 -10.656854249492383 20
vertex 13.810560475473194 -9.702282018339773 20
endloop
endfacet
facet normal 0 0 1
outer loop
vertex -3.225597859886382 -10.656854249492383 20
vertex -3.0901699437494745 -10.877852522924732 20
vertex -2.5826039427234044 -11.472135954999583 20
endloop
endfacet
facet normal 0 0 1
outer loop
vertex -3.225597859886382 -10.656854249492383 20
vertex -2.5826039427234044 -11.472135954999583 20
vertex 0.2977179816602149 -11.472135954999583 20
endloop
endfacet
facet normal 0 0 1
outer loop
vertex -3.225597859886382 -10.656854249492383 20
vertex 0.2977179816602149 -11.472135954999583 20
vertex -0.6568542494923779 -10.656854249492383 20
endloop
endfacet
facet normal 0 0 1
outer loop
vertex 10.656854249492374 -10.656854249492383 20
vertex 9.70228201833978 -11.472135954999583 20
vertex 12.582603942723402 -11.472135954999583 20
endloop
endfacet
facet normal 0 0 1
outer loop
vertex 10.656854249492374 -10.656854249492383 20
vertex 12.582603942723402 -11.472135954999583 20
vertex 13.090169943749475 -10.877852522924732 20
endloop
endfacet
facet normal 0 0 1
outer loop
vertex 10.656854249492374 -10.656854249492383 20
vertex 13.090169943749475 -10.877852522924732 20
vertex 13.225597859886381 -10.656854249492383 20
endloop
endfacet
facet normal 0 0 1
outer loop
vertex -2.5826039427234044 -11.472135954999583 20
vertex -2.0710678118654746 -12.071067811865476 20
vertex -2.00434767334538 -12.128052193506935 20
endloop
endfacet
facet normal 0 0 1
outer loop
vertex -2.5826039427234044 -11.472135954999583 20
vertex -2.00434767334538 -12.128052193506935 20
vertex 1.3680760020836198 -12.128052193506935 20
endloop
endfacet
facet normal 0 0 1
outer loop
vertex -2.5826039427234044 -11.472135954999583 20
vertex 1.3680760020836198 -12.128052193506935 20
vertex 0.2977179816602149 -11.472135954999583 20
endloop
endfacet
facet normal 0 0 1
outer loop
vertex 9.70228201833978 -11.472135954999583 20
vertex 8.631923997916385 -12.128052193506935 20
vertex 12.00434767334538 -12.128052193506935 20
endloop
endfacet
facet normal 0 0 1
outer loop
vertex 9.70228201833978 -11.472135954999583 20
vertex 12.00434767334538 -12.128052193506935 20
vertex 12.071067811865476 -12.071067811865476 20
endloop
endfacet
facet normal 0 0 1
outer loop
vertex 9.70228201833978 -11.472135954999583 20
vertex 12.071067811865476 -12.071067811865476 20
vertex 12.582603942723402 -11.472135954999583 20
endloop
endfacet
facet normal 0 0 1
outer loop
vertex -2.00434767334538 -12.128052193506935 20
vertex -1.44187161571904 -12.608452130361227 20
vertex 2.5278640450004195 -12.608452130361227 20
endloop
endfacet
facet normal 0 0 1
outer loop
vertex -2.00434767334538 -12.128052193506935 20
vertex 2.5278640450004195 -12.608452130361227 20
vertex 1.3680760020836198 -12.128052193506935 20
endloop
endfacet
facet normal 0 0 1
outer loop
vertex 8.631923997916385 -12.128052193506935 20
vertex 7.472135954999578 -12.608452130361227 20
vertex 11.441871615719043 -12.608452130361227 20
endloop
endfacet
facet normal 0 0 1
outer loop
vertex 8.631923997916385 -12.128052193506935 20
vertex 11.441871615719043 -12.608452130361227 20
vertex 12.00434767334538 -12.128052193506935 20
endloop
endfacet
facet normal 0 0 1
outer loop
vertex -1.44187161571904 -12.608452130361227 20
vertex -1.0987487710186585 -12.901506724761104 20
vertex 3.7485242796781613 -12.901506724761104 20
endloop
endfacet
facet normal 0 0 1
outer loop
vertex -1.44187161571904 -12.608452130361227 20
vertex 3.7485242796781613 -12.901506724761104 20
vertex 2.5278640450004195 -12.608452130361227 20
endloop
endfacet
facet normal 0 0 1
outer loop
vertex 7.472135954999578 -12.608452130361227 20
vertex 6.2514757203218325 -12.901506724761104 20
vertex 11.098748771018661 -12.901506724761104 20
endloop
endfacet
facet normal 0 0 1
outer loop
vertex 7.472135954999578 -12.608452130361227 20
vertex 11.098748771018661 -12.901506724761104 20
vertex 11.441871615719043 -12.608452130361227 20
endloop
endfacet
facet normal 0 0 1
outer loop
vertex -1.0987487710186585 -12.901506724761104 20
vertex -0.9834279624401943 -13 20
vertex 4.999999999999998 -13 20
endloop
endfacet
facet normal 0 0 1
outer loop
vertex -1.0987487710186585 -12.901506724761104 20
vertex 4.999999999999998 -13 20
vertex 3.7485242796781613 -12.901506724761104 20
endloop
endfacet
facet normal 0 0 1
outer loop
vertex 6.2514757203218325 -12.901506724761104 20
vertex 4.999999999999998 -13 20
vertex 10.983427962440196 -13 20
endloop
endfacet
facet normal 0 0 1
outer loop
vertex 6.2514757203218325 -12.901506724761104 20
vertex 10.983427962440196 -13 20
vertex 11.098748771018661 -12.901506724761104 20
endloop
endfacet
facet normal 0 0 1
outer loop
vertex -0.9834279624401943 -13 20
vertex -0.87785252292473 -13.090169943749475 20
vertex 0.4600950026045325 -13.910065241883679 20
endloop
endfacet
facet normal 0 0 1
outer loop
vertex -0.9834279624401943 -13 20
vertex 0.4600950026045325 -13.910065241883679 20
vertex 1.9098300562505264 -14.510565162951535 20
endloop
endfacet
facet normal 0 0 1
outer loop
vertex -0.9834279624401943 -13 20
vertex 1.9098300562505264 -14.510565162951535 20
vertex 3.435655349597694 -14.876883405951379 20
endloop
endfacet
facet normal 0 0 1
outer loop
vertex -0.9834279624401943 -13 20
vertex 3.435655349597694 -14.876883405951379 20
vertex 5.000000000000001 -15 20
endloop
endfacet
facet normal 0 0 1
outer loop
vertex -0.9834279624401943 -13 20
vertex 5.000000000000001 -15 20
vertex 6.564344650402309 -14.876883405951379 20
endloop
endfacet
facet normal 0 0 1
outer loop
vertex -0.9834279624401943 -13 20
vertex 6.564344650402309 -14.876883405951379 20
vertex 8.090169943749475 -14.510565162951535 20
endloop
endfacet
facet normal 0 0 1
outer loop
vertex -0.9834279624401943 -13 20
vertex 8.090169943749475 -14.510565162951535 20
vertex 9.539904997395467 -13.910065241883679 20
endloop
endfacet
facet normal 0 0 1
outer loop
vertex -0.9834279624401943 -13 20
vertex 9.539904997395467 -13.910065241883679 20
vertex 10.877852522924732 -13.090169943749475 20
endloop
endfacet
facet normal 0 0 1
outer loop
vertex -0.9834279624401943 -13 20
vertex 10.877852522924732 -13.090169943749475 20
vertex 10.983427962440196 -13 20
endloop
endfacet
facet normal 0 0 -1
outer loop
vertex 5.000000000000001 -15 0
vertex 3.435655349597694 -14.876883405951379 0
vertex 1.9098300562505264 -14.510565162951535 0
endloop
endfacet
facet normal 0 0 -1
outer loop
vertex 5.000000000000001 -15 0
vertex 1.9098300562505264 -14.510565162951535 0
vertex 0.4600950026045325 -13.910065241883679 0
endloop
endfacet
facet normal 0 0 -1
outer loop
vertex 5.000000000000001 -15 0
vertex 0.4600950026045325 -13.910065241883679 0
vertex -0.87785252292473 -13.090169943749475 0
endloop
endfacet
facet normal 0 0 -1
outer loop
vertex 5.000000000000001 -15 0
vertex -0.87785252292473 -13.090169943749475 0
vertex -0.9834279624401945 -13 0
endloop
endfacet
facet normal 0 0 -1
outer loop
vertex 5.000000000000001 -15 0
vertex -0.9834279624401945 -13 0
vertex 10.983427962440196 -13 0
endloop
endfacet
facet normal 0 0 -1
outer loop
vertex 5.000000000000001 -15 0
vertex 10.983427962440196 -13 0
vertex 10.877852522924732 -13.090169943749475 0
endloop
endfacet
facet normal 0 0 -1
outer loop
vertex 5.000000000000001 -15 0
vertex 10.877852522924732 -13.090169943749475 0
vertex 9.539904997395467 -13.910065241883679 0
endloop
endfacet
facet normal 0 0 -1
outer loop
vertex 5.000000000000001 -15 0
vertex 9.539904997395467 -13.910065241883679 0
vertex 8.090169943749475 -14.510565162951535 0
endloop
endfacet
facet normal 0 0 -1
outer loop
vertex 5.000000000000001 -15 0
vertex 8.090169943749475 -14.510565162951535 0
vertex 6.564344650402309 -14.876883405951379 0
endloop
endfacet
facet normal 0 0 -1
outer loop
vertex -0.9834279624401945 -13 0
vertex -1.0987487710186632 -12.9015067247611 0
vertex 3.748524279678125 -12.9015067247611 0
endloop
endfacet
facet normal 0 0 -1
outer loop
vertex -0.9834279624401945 -13 0
vertex 3.748524279678125 -12.9015067247611 0
vertex 4.999999999999994 -13 0
endloop
endfacet
facet normal 0 0 -1
outer loop
vertex 4.999999999999994 -13 0
vertex 6.251475720321851 -12.9015067247611 0
vertex 11.098748771018665 -12.9015067247611 0
endloop
endfacet
facet normal 0 0 -1
outer loop
vertex 4.999999999999994 -13 0
vertex 11.098748771018665 -12.9015067247611 0
vertex 10.983427962440196 -13 0
endloop
endfacet
facet normal 0 0 -1
outer loop
vertex -1.0987487710186632 -12.9015067247611 0
vertex -1.441871615719039 -12.60845213036123 0
vertex 2.527864045000433 -12.60845213036123 0
endloop
endfacet
facet normal 0 0 -1
outer loop
vertex -1.0987487710186632 -12.9015067247611 0
vertex 2.527864045000433 -12.60845213036123 0
vertex 3.748524279678125 -12.9015067247611 0
endloop
endfacet
facet normal 0 0 -1
outer loop
vertex 6.251475720321851 -12.9015067247611 0
vertex 7.472135954999576 -12.60845213036123 0
vertex 11.44187161571904 -12.60845213036123 0
endloop
endfacet
facet normal 0 0 -1
outer loop
vertex 6.251475720321851 -12.9015067247611 0
vertex 11.44187161571904 -12.60845213036123 0
vertex 11.098748771018665 -12.9015067247611 0
endloop
endfacet
facet normal 0 0 -1
outer loop
vertex -1.441871615719039 -12.60845213036123 0
vertex -2.004347673345376 -12.128052193506939 0
vertex 1.3680760020836233 -12.128052193506939 0
endloop
endfacet
facet normal 0 0 -1
outer loop
vertex -1.441871615719039 -12.60845213036123 0
vertex 1.3680760020836233 -12.128052193506939 0
vertex 2.527864045000433 -12.60845213036123 0
endloop
endfacet
facet normal 0 0 -1
outer loop
vertex 7.472135954999576 -12.60845213036123 0
vertex 8.631923997916381 -12.128052193506939 0
vertex 12.004347673345377 -12.128052193506939 0
endloop
endfacet
facet normal 0 0 -1
outer loop
vertex 7.472135954999576 -12.60845213036123 0
vertex 12.004347673345377 -12.128052193506939 0
vertex 11.44187161571904 -12.60845213036123 0
endloop
endfacet
facet normal 0 0 -1
outer loop
vertex -2.004347673345376 -12.128052193506939 0
vertex -2.0710678118654746 -12.071067811865476 0
vertex -2.5826039427234058 -11.472135954999581 0
endloop
endfacet
facet normal 0 0 -1
outer loop
vertex -2.004347673345376 -12.128052193506939 0
vertex -2.5826039427234058 -11.472135954999581 0
vertex 0.29771798166021735 -11.472135954999581 0
endloop
endfacet
facet normal 0 0 -1
outer loop
vertex -2.004347673345376 -12.128052193506939 0
vertex 0.29771798166021735 -11.472135954999581 0
vertex 1.3680760020836233 -12.128052193506939 0
endloop
endfacet
facet normal 0 0 -1
outer loop
vertex 8.631923997916381 -12.128052193506939 0
vertex 9.702282018339783 -11.472135954999581 0
vertex 12.582603942723406 -11.472135954999581 0
endloop
endfacet
facet normal 0 0 -1
outer loop
vertex 8.631923997916381 -12.128052193506939 0
vertex 12.582603942723406 -11.472135954999581 0
vertex 12.071067811865476 -12.071067811865476 0
endloop
endfacet
facet normal 0 0 -1
outer loop
vertex 8.631923997916381 -12.128052193506939 0
vertex 12.071067811865476 -12.071067811865476 0
vertex 12.004347673345377 -12.128052193506939 0
endloop
endfacet
facet normal 0 0 -1
outer loop
vertex -2.5826039427234058 -11.472135954999581 0
vertex -3.0901699437494745 -10.877852522924732 0
vertex -3.225597859886382 -10.656854249492383 0
endloop
endfacet
facet normal 0 0 -1
outer loop
vertex -2.5826039427234058 -11.472135954999581 0
vertex -3.225597859886382 -10.656854249492383 0
vertex -0.6568542494923795 -10.656854249492383 0
endloop
endfacet
facet normal 0 0 -1
outer loop
vertex -2.5826039427234058 -11.472135954999581 0
vertex -0.6568542494923795 -10.656854249492383 0
vertex 0.29771798166021735 -11.472135954999581 0
endloop
endfacet
facet normal 0 0 -1
outer loop
vertex 9.702282018339783 -11.472135954999581 0
vertex 10.656854249492376 -10.656854249492383 0
vertex 13.225597859886381 -10.656854249492383 0
endloop
endfacet
facet normal 0 0 -1
outer loop
vertex 9.702282018339783 -11.472135954999581 0
vertex 13.225597859886381 -10.656854249492383 0
vertex 13.090169943749475 -10.877852522924732 0
endloop
endfacet
facet normal 0 0 -1
outer loop
vertex 9.702282018339783 -11.472135954999581 0
vertex 13.090169943749475 -10.877852522924732 0
vertex 12.582603942723406 -11.472135954999581 0
endloop
endfacet
facet normal 0 0 -1
outer loop
vertex -3.225597859886382 -10.656854249492383 0
vertex -3.810560475473198 -9.702282018339767 0
vertex -1.4721359549995978 -9.702282018339767 0
endloop
endfacet
facet normal 0 0 -1
outer loop
vertex -3.225597859886382 -10.656854249492383 0
vertex -1.4721359549995978 -9.702282018339767 0
vertex -0.6568542494923795 -10.656854249492383 0
endloop
endfacet
facet normal 0 0 -1
outer loop
vertex 10.656854249492376 -10.656854249492383 0
vertex 11.472135954999592 -9.702282018339767 0
vertex 13.810560475473197 -9.702282018339767 0
endloop
endfacet
facet normal 0 0 -1
outer loop
vertex 10.656854249492376 -10.656854249492383 0
vertex 13.810560475473197 -9.702282018339767 0
vertex 13.225597859886381 -10.656854249492383 0
endloop
endfacet
facet normal 0 0 -1
outer loop
vertex -3.810560475473198 -9.702282018339767 0
vertex -3.9100652418836788 -9.539904997395467 0
vertex -4.2861632862449905 -8.631923997916388 0
endloop
endfacet
facet normal 0 0 -1
outer loop
vertex -3.810560475473198 -9.702282018339767 0
vertex -4.2861632862449905 -8.631923997916388 0
vertex -2.128052193506923 -8.631923997916388 0
endloop
endfacet
facet normal 0 0 -1
outer loop
vertex -3.810560475473198 -9.702282018339767 0
vertex -2.128052193506923 -8.631923997916388 0
vertex -1.4721359549995978 -9.702282018339767 0
endloop
endfacet
facet normal 0 0 -1
outer loop
vertex 11.472135954999592 -9.702282018339767 0
vertex 12.128052193506935 -8.631923997916388 0
vertex 14.28616328624499 -8.631923997916388 0
endloop
endfacet
facet normal 0 0 -1
outer loop
vertex 11.472135954999592 -9.702282018339767 0
vertex 14.28616328624499 -8.631923997916388 0
vertex 13.910065241883679 -9.539904997395467 0
endloop
endfacet
facet normal 0 0 -1
outer loop
vertex 11.472135954999592 -9.702282018339767 0
vertex 13.910065241883679 -9.539904997395467 0
vertex 13.810560475473197 -9.702282018339767 0
endloop
endfacet
facet normal 0 0 -1
outer loop
vertex -4.2861632862449905 -8.631923997916388 0
vertex -4.510565162951535 -8.090169943749475 0
vertex -4.658941996039945 -7.472135954999575 0
endloop
endfacet
facet normal 0 0 -1
outer loop
vertex -4.2861632862449905 -8.631923997916388 0
vertex -4.658941996039945 -7.472135954999575 0
vertex -2.6084521303612327 -7.472135954999575 0
endloop
endfacet
facet normal 0 0 -1
outer loop
vertex -4.2861632862449905 -8.631923997916388 0
vertex -2.6084521303612327 -7.472135954999575 0
vertex -2.128052193506923 -8.631923997916388 0
endloop
endfacet
facet normal 0 0 -1
outer loop
vertex 12.128052193506935 -8.631923997916388 0
vertex 12.60845213036123 -7.472135954999575 0
vertex 14.658941996039946 -7.472135954999575 0
endloop
endfacet
facet normal 0 0 -1
outer loop
vertex 12.128052193506935 -8.631923997916388 0
vertex 14.658941996039946 -7.472135954999575 0
vertex 14.510565162951535 -8.090169943749475 0
endloop
endfacet
facet normal 0 0 -1
outer loop
vertex 12.128052193506935 -8.631923997916388 0
vertex 14.510565162951535 -8.090169943749475 0
vertex 14.28616328624499 -8.631923997916388 0
endloop
endfacet
facet normal 0 0 -1
outer loop
vertex -4.658941996039945 -7.472135954999575 0
vertex -4.876883405951377 -6.564344650402308 0
vertex -4.901506724761102 -6.251475720321844 0
endloop
endfacet
facet normal 0 0 -1
outer loop
vertex -4.658941996039945 -7.472135954999575 0
vertex -4.901506724761102 -6.251475720321844 0
vertex -2.901506724761102 -6.251475720321844 0
endloop
endfacet
facet normal 0 0 -1
outer loop
vertex -4.658941996039945 -7.472135954999575 0
vertex -2.901506724761102 -6.251475720321844 0
vertex -2.6084521303612327 -7.472135954999575 0
endloop
endfacet
facet normal 0 0 -1
outer loop
vertex 12.60845213036123 -7.472135954999575 0
vertex 12.901506724761102 -6.251475720321844 0
vertex 14.901506724761102 -6.251475720321844 0
endloop
endfacet
facet normal 0 0 -1
outer loop
vertex 12.60845213036123 -7.472135954999575 0
vertex 14.901506724761102 -6.251475720321844 0
vertex 14.876883405951379 -6.564344650402308 0
endloop
endfacet
facet normal 0 0 -1
outer loop
vertex 12.60845213036123 -7.472135954999575 0
vertex 14.876883405951379 -6.564344650402308 0
vertex 14.658941996039946 -7.472135954999575 0
endloop
endfacet
facet normal 0 0 -1
outer loop
vertex -4.901506724761102 -6.251475720321844 0
vertex -5 -4.999999999999997 0
vertex -2.9999999999999996 -4.999999999999997 0
endloop
endfacet
facet normal 0 0 -1
outer loop
vertex -4.901506724761102 -6.251475720321844 0
vertex -2.9999999999999996 -4.999999999999997 0
vertex -2.901506724761102 -6.251475720321844 0
endloop
endfacet
facet normal 0 0 -1
outer loop
vertex 12.901506724761102 -6.251475720321844 0
vertex 13 -4.999999999999997 0
vertex 15 -4.999999999999997 0
endloop
endfacet
facet normal 0 0 -1
outer loop
vertex 12.901506724761102 -6.251475720321844 0
vertex 15 -4.999999999999997 0
vertex 14.901506724761102 -6.251475720321844 0
endloop
endfacet
facet normal 0 0 -1
outer loop
vertex -5 -4.999999999999997 0
vertex -4.901506724761103 -3.7485242796781546 0
vertex -2.9015067247611026 -3.7485242796781546 0
endloop
endfacet
facet normal 0 0 -1
outer loop
vertex -5 -4.999999999999997 0
vertex -2.9015067247611026 -3.7485242796781546 0
vertex -2.9999999999999996 -4.999999999999997 0
endloop
endfacet
facet normal 0 0 -1
outer loop
vertex 13 -4.999999999999997 0
vertex 12.901506724761104 -3.7485242796781546 0
vertex 14.901506724761102 -3.7485242796781546 0
endloop
endfacet
facet normal 0 0 -1
outer loop
vertex 13 -4.999999999999997 0
vertex 14.901506724761102 -3.7485242796781546 0
vertex 15 -4.999999999999997 0
endloop
endfacet
facet normal 0 0 -1
outer loop
vertex -4.901506724761103 -3.7485242796781546 0
vertex -4.876883405951379 -3.4356553495976887 0
vertex -4.658941996039946 -2.527864045000423 0
endloop
endfacet
facet normal 0 0 -1
outer loop
vertex -4.901506724761103 -3.7485242796781546 0
vertex -4.658941996039946 -2.527864045000423 0
vertex -2.6084521303612296 -2.527864045000423 0
endloop
endfacet
facet normal 0 0 -1
outer loop
vertex -4.901506724761103 -3.7485242796781546 0
vertex -2.6084521303612296 -2.527864045000423 0
vertex -2.9015067247611026 -3.7485242796781546 0
endloop
endfacet
facet normal 0 0 -1
outer loop
vertex 12.901506724761104 -3.7485242796781546 0
vertex 12.608452130361231 -2.527864045000423 0
vertex 14.658941996039944 -2.527864045000423 0
endloop
endfacet
facet normal 0 0 -1
outer loop
vertex 12.901506724761104 -3.7485242796781546 0
vertex 14.658941996039944 -2.527864045000423 0
vertex 14.876883405951377 -3.4356553495976887 0
endloop
endfacet
facet normal 0 0 -1
outer loop
vertex 12.901506724761104 -3.7485242796781546 0
vertex 14.876883405951377 -3.4356553495976887 0
vertex 14.901506724761102 -3.7485242796781546 0
endloop
endfacet
facet normal 0 0 -1
outer loop
vertex -4.658941996039946 -2.527864045000423 0
vertex -4.510565162951538 -1.9098300562505237 0
vertex -4.286163286245 -1.3680760020836298 0
endloop
endfacet
facet normal 0 0 -1
outer loop
vertex -4.658941996039946 -2.527864045000423 0
vertex -4.286163286245 -1.3680760020836298 0
vertex -2.128052193506945 -1.3680760020836298 0
endloop
endfacet
facet normal 0 0 -1
outer loop
vertex -4.658941996039946 -2.527864045000423 0
vertex -2.128052193506945 -1.3680760020836298 0
vertex -2.6084521303612296 -2.527864045000423 0
endloop
endfacet
facet normal 0 0 -1
outer loop
vertex 12.608452130361231 -2.527864045000423 0
vertex 12.128052193506939 -1.3680760020836298 0
vertex 14.286163286245 -1.3680760020836298 0
endloop
endfacet
facet normal 0 0 -1
outer loop
vertex 12.608452130361231 -2.527864045000423 0
vertex 14.286163286245 -1.3680760020836298 0
vertex 14.510565162951535 -1.9098300562505237 0
endloop
endfacet
facet normal 0 0 -1
outer loop
vertex 12.608452130361231 -2.527864045000423 0
vertex 14.510565162951535 -1.9098300562505237 0
vertex 14.658941996039944 -2.527864045000423 0
endloop
endfacet
facet normal 0 0 -1
outer loop
vertex -4.286163286245 -1.3680760020836298 0
vertex -3.9100652418836788 -0.46009500260453073 0
vertex -3.8105604754731877 -0.2977179816602138 0
endloop
endfacet
facet normal 0 0 -1
outer loop
vertex -4.286163286245 -1.3680760020836298 0
vertex -3.8105604754731877 -0.2977179816602138 0
vertex -1.4721359549995783 -0.2977179816602138 0
endloop
endfacet
facet normal 0 0 -1
outer loop
vertex -4.286163286245 -1.3680760020836298 0
vertex -1.4721359549995783 -0.2977179816602138 0
vertex -2.128052193506945 -1.3680760020836298 0
endloop
endfacet
facet normal 0 0 -1
outer loop
vertex 12.128052193506939 -1.3680760020836298 0
vertex 11.472135954999585 -0.2977179816602138 0
vertex 13.810560475473187 -0.2977179816602138 0
endloop
endfacet
facet normal 0 0 -1
outer loop
vertex 12.128052193506939 -1.3680760020836298 0
vertex 13.810560475473187 -0.2977179816602138 0
vertex 13.910065241883679 -0.46009500260453073 0
endloop
endfacet
facet normal 0 0 -1
outer loop
vertex 12.128052193506939 -1.3680760020836298 0
vertex 13.910065241883679 -0.46009500260453073 0
vertex 14.286163286245 -1.3680760020836298 0
endloop
endfacet
facet normal 0 0 -1
outer loop
vertex -3.8105604754731877 -0.2977179816602138 0
vertex -3.225597859886386 0.6568542494923778 0
vertex -0.6568542494923837 0.6568542494923778 0
endloop
endfacet
facet normal 0 0 -1
outer loop
vertex -3.8105604754731877 -0.2977179816602138 0
vertex -0.6568542494923837 0.6568542494923778 0
vertex -1.4721359549995783 -0.2977179816602138 0
endloop
endfacet
facet normal 0 0 -1
outer loop
vertex 11.472135954999585 -0.2977179816602138 0
vertex 10.656854249492374 0.6568542494923778 0
vertex 13.225597859886383 0.6568542494923778 0
endloop
endfacet
facet normal 0 0 -1
outer loop
vertex 11.472135954999585 -0.2977179816602138 0
vertex 13.225597859886383 0.6568542494923778 0
vertex 13.810560475473187 -0.2977179816602138 0
endloop
endfacet
facet normal 0 0 -1
outer loop
vertex -3.225597859886386 0.6568542494923778 0
vertex -3.0901699437494745 0.87785252292473 0
vertex -2.582603942723407 1.4721359549995792 0
endloop
endfacet
facet normal 0 0 -1
outer loop
vertex -3.225597859886386 0.6568542494923778 0
vertex -2.582603942723407 1.4721359549995792 0
vertex 0.2977179816602147 1.4721359549995792 0
endloop
endfacet
facet normal 0 0 -1
outer loop
vertex -3.225597859886386 0.6568542494923778 0
vertex 0.2977179816602147 1.4721359549995792 0
vertex -0.6568542494923837 0.6568542494923778 0
endloop
endfacet
facet normal 0 0 -1
outer loop
vertex 10.656854249492374 0.6568542494923778 0
vertex 9.702282018339787 1.4721359549995792 0
vertex 12.582603942723406 1.4721359549995792 0
endloop
endfacet
facet normal 0 0 -1
outer loop
vertex 10.656854249492374 0.6568542494923778 0
vertex 12.582603942723406 1.4721359549995792 0
vertex 13.090169943749473 0.87785252292473 0
endloop
endfacet
facet normal 0 0 -1
outer loop
vertex 10.656854249492374 0.6568542494923778 0
vertex 13.090169943749473 0.87785252292473 0
vertex 13.225597859886383 0.6568542494923778 0
endloop
endfacet
facet normal 0 0 -1
outer loop
vertex -2.582603942723407 1.4721359549995792 0
vertex -2.0710678118654773 2.0710678118654746 0
vertex -2.004347673345374 2.128052193506942 0
endloop
endfacet
facet normal 0 0 -1
outer loop
vertex -2.582603942723407 1.4721359549995792 0
vertex -2.004347673345374 2.128052193506942 0
vertex 1.3680760020836238 2.128052193506942 0
endloop
endfacet
facet normal 0 0 -1
outer loop
vertex -2.582603942723407 1.4721359549995792 0
vertex 1.3680760020836238 2.128052193506942 0
vertex 0.2977179816602147 1.4721359549995792 0
endloop
endfacet
facet normal 0 0 -1
outer loop
vertex 9.702282018339787 1.4721359549995792 0
vertex 8.631923997916376 2.128052193506942 0
vertex 12.004347673345372 2.128052193506942 0
endloop
endfacet
facet normal 0 0 -1
outer loop
vertex 9.702282018339787 1.4721359549995792 0
vertex 12.004347673345372 2.128052193506942 0
vertex 12.071067811865474 2.0710678118654746 0
endloop
endfacet
facet normal 0 0 -1
outer loop
vertex 9.702282018339787 1.4721359549995792 0
vertex 12.071067811865474 2.0710678118654746 0
vertex 12.582603942723406 1.4721359549995792 0
endloop
endfacet
facet normal 0 0 -1
outer loop
vertex -2.004347673345374 2.128052193506942 0
vertex -1.44187161571904 2.6084521303612287 0
vertex 2.5278640450004204 2.6084521303612287 0
endloop
endfacet
facet normal 0 0 -1
outer loop
vertex -2.004347673345374 2.128052193506942 0
vertex 2.5278640450004204 2.6084521303612287 0
vertex 1.3680760020836238 2.128052193506942 0
endloop
endfacet
facet normal 0 0 -1
outer loop
vertex 8.631923997916376 2.128052193506942 0
vertex 7.472135954999574 2.6084521303612287 0
vertex 11.44187161571904 2.6084521303612287 0
endloop
endfacet
facet normal 0 0 -1
outer loop
vertex 8.631923997916376 2.128052193506942 0
vertex 11.44187161571904 2.6084521303612287 0
vertex 12.004347673345372 2.128052193506942 0
endloop
endfacet
facet normal 0 0 -1
outer loop
vertex -1.44187161571904 2.6084521303612287 0
vertex -1.0987487710186628 2.9015067247611013 0
vertex 3.7485242796781506 2.9015067247611013 0
endloop
endfacet
facet normal 0 0 -1
outer loop
vertex -1.44187161571904 2.6084521303612287 0
vertex 3.7485242796781506 2.9015067247611013 0
vertex 2.5278640450004204 2.6084521303612287 0
endloop
endfacet
facet normal 0 0 -1
outer loop
vertex 7.472135954999574 2.6084521303612287 0
vertex 6.25147572032185 2.9015067247611013 0
vertex 11.098748771018661 2.9015067247611013 0
endloop
endfacet
facet normal 0 0 -1
outer loop
vertex 7.472135954999574 2.6084521303612287 0
vertex 11.098748771018661 2.9015067247611013 0
vertex 11.44187161571904 2.6084521303612287 0
endloop
endfacet
facet normal 0 0 -1
outer loop
vertex -1.0987487710186628 2.9015067247611013 0
vertex -0.9834279624401951 3 0
vertex 4.9999999999999964 3 0
endloop
endfacet
facet normal 0 0 -1
outer loop
vertex -1.0987487710186628 2.9015067247611013 0
vertex 4.9999999999999964 3 0
vertex 3.7485242796781506 2.9015067247611013 0
endloop
endfacet
facet normal 0 0 -1
outer loop
vertex 6.25147572032185 2.9015067247611013 0
vertex 4.9999999999999964 3 0
vertex 10.983427962440192 3 0
endloop
endfacet
facet normal 0 0 -1
outer loop
vertex 6.25147572032185 2.9015067247611013 0
vertex 10.983427962440192 3 0
vertex 11.098748771018661 2.9015067247611013 0
endloop
endfacet
facet normal 0 0 -1
outer loop
vertex -0.9834279624401951 3 0
vertex -0.8778525229247327 3.0901699437494727 0
vertex 0.46009500260453073 3.9100652418836788 0
endloop
endfacet
facet normal 0 0 -1
outer loop
vertex -0.9834279624401951 3 0
vertex 0.46009500260453073 3.9100652418836788 0
vertex 1.9098300562505246 4.510565162951535 0
endloop
endfacet
facet normal 0 0 -1
outer loop
vertex -0.9834279624401951 3 0
vertex 1.9098300562505246 4.510565162951535 0
vertex 3.4356553495976896 4.876883405951377 0
endloop
endfacet
facet normal 0 0 -1
outer loop
vertex -0.9834279624401951 3 0
vertex 3.4356553495976896 4.876883405951377 0
vertex 4.999999999999998 5 0
endloop
endfacet
facet normal 0 0 -1
outer loop
vertex -0.9834279624401951 3 0
vertex 4.999999999999998 5 0
vertex 6.564344650402306 4.876883405951377 0
endloop
endfacet
facet normal 0 0 -1
outer loop
vertex -0.9834279624401951 3 0
vertex 6.564344650402306 4.876883405951377 0
vertex 8.090169943749473 4.510565162951535 0
endloop
endfacet
facet normal 0 0 -1
outer loop
vertex -0.9834279624401951 3 0
vertex 8.090169943749473 4.510565162951535 0
vertex 9.539904997395467 3.9100652418836788 0
endloop
endfacet
facet normal 0 0 -1
outer loop
vertex -0.9834279624401951 3 0
vertex 9.539904997395467 3.9100652418836788 0
vertex 10.87785252292473 3.0901699437494727 0
endloop
endfacet
facet normal 0 0 -1
outer loop
vertex -0.9834279624401951 3 0
vertex 10.87785252292473 3.0901699437494727 0
vertex 10.983427962440192 3 0
endloop
endfacet
facet normal 0.9969173337331281 -0.07845909572784393 0
outer loop
vertex 14.876883405951379 -6.564344650402308 0
vertex 15 -4.999999999999997 0
vertex 15 -5 20
endloop
endfacet
facet normal 0.9969173337331281 -0.07845909572784393 0
outer loop
vertex 14.876883405951379 -6.564344650402308 0
vertex 15 -5 20
vertex 14.876883405951379 -6.564344650402308 20
endloop
endfacet
facet normal 0.9723699203976762 -0.23344536385590683 0
outer loop
vertex 14.510565162951535 -8.090169943749475 0
vertex 14.876883405951379 -6.564344650402308 0
vertex 14.876883405951379 -6.564344650402308 20
endloop
endfacet
facet normal 0.9723699203976762 -0.23344536385590683 0
outer loop
vertex 14.510565162951535 -8.090169943749475 0
vertex 14.876883405951379 -6.564344650402308 20
vertex 14.510565162951535 -8.090169943749475 20
endloop
endfacet
facet normal 0.923879532511287 -0.3826834323650896 0
outer loop
vertex 13.910065241883679 -9.539904997395467 0
vertex 14.510565162951535 -8.090169943749475 0
vertex 14.510565162951535 -8.090169943749475 20
endloop
endfacet
facet normal 0.923879532511287 -0.3826834323650896 0
outer loop
vertex 13.910065241883679 -9.539904997395467 0
vertex 14.510565162951535 -8.090169943749475 20
vertex 13.910065241883679 -9.539904997395467 20
endloop
endfacet
facet normal 0.8526401643540921 -0.5224985647159491 0
outer loop
vertex 13.090169943749475 -10.877852522924732 0
vertex 13.910065241883679 -9.539904997395467 0
vertex 13.910065241883679 -9.539904997395467 20
endloop
endfacet
facet normal 0.8526401643540921 -0.5224985647159491 0
outer loop
vertex 13.090169943749475 -10.877852522924732 0
vertex 13.910065241883679 -9.539904997395467 20
vertex 13.090169943749475 -10.877852522924732 20
endloop
endfacet
facet normal 0.7604059656000308 -0.649448048330184 0
outer loop
vertex 12.071067811865476 -12.071067811865476 0
vertex 13.090169943749475 -10.877852522924732 0
vertex 13.090169943749475 -10.877852522924732 20
endloop
endfacet
facet normal 0.7604059656000308 -0.649448048330184 0
outer loop
vertex 12.071067811865476 -12.071067811865476 0
vertex 13.090169943749475 -10.877852522924732 20
vertex 12.071067811865476 -12.071067811865476 20
endloop
endfacet
facet normal 0.649448048330184 -0.7604059656000308 0
outer loop
vertex 10.877852522924732 -13.090169943749475 0
vertex 12.071067811865476 -12.071067811865476 0
vertex 12.071067811865476 -12.071067811865476 20
endloop
endfacet
facet normal 0.649448048330184 -0.7604059656000308 0
outer loop
vertex 10.877852522924732 -13.090169943749475 0
vertex 12.071067811865476 -12.071067811865476 20
vertex 10.877852522924732 -13.090169943749475 20
endloop
endfacet
facet normal 0.5224985647159491 -0.8526401643540921 0
outer loop
vertex 9.539904997395467 -13.910065241883679 0
vertex 10.877852522924732 -13.090169943749475 0
vertex 10.877852522924732 -13.090169943749475 20
endloop
endfacet
facet normal 0.5224985647159491 -0.8526401643540921 0
outer loop
vertex 9.539904997395467 -13.910065241883679 0
vertex 10.877852522924732 -13.090169943749475 20
vertex 9.539904997395467 -13.910065241883679 20
endloop
endfacet
facet normal 0.3826834323650896 -0.923879532511287 0
outer loop
vertex 8.090169943749475 -14.510565162951535 0
vertex 9.539904997395467 -13.910065241883679 0
vertex 9.539904997395467 -13.910065241883679 20
endloop
endfacet
facet normal 0.3826834323650896 -0.923879532511287 0
outer loop
vertex 8.090169943749475 -14.510565162951535 0
vertex 9.539904997395467 -13.910065241883679 20
vertex 8.090169943749475 -14.510565162951535 20
endloop
endfacet
facet normal 0.23344536385590675 -0.9723699203976763 0
outer loop
vertex 6.564344650402309 -14.876883405951379 0
vertex 8.090169943749475 -14.510565162951535 0
vertex 8.090169943749475 -14.510565162951535 20
endloop
endfacet
facet normal 0.23344536385590675 -0.9723699203976763 0
outer loop
vertex 6.564344650402309 -14.876883405951379 0
vertex 8.090169943749475 -14.510565162951535 20
vertex 6.564344650402309 -14.876883405951379 20
endloop
endfacet
facet normal 0.07845909572784393 -0.9969173337331281 0
outer loop
vertex 5.000000000000001 -15 0
vertex 6.564344650402309 -14.876883405951379 0
vertex 6.564344650402309 -14.876883405951379 20
endloop
endfacet
facet normal 0.07845909572784393 -0.9969173337331281 0
outer loop
vertex 5.000000000000001 -15 0
vertex 6.564344650402309 -14.876883405951379 20
vertex 5.000000000000001 -15 20
endloop
endfacet
facet normal -0.07845909572784393 -0.9969173337331281 0
outer loop
vertex 3.435655349597694 -14.876883405951379 0
vertex 5.000000000000001 -15 0
vertex 5.000000000000001 -15 20
endloop
endfacet
facet normal -0.07845909572784393 -0.9969173337331281 0
outer loop
vertex 3.435655349597694 -14.876883405951379 0
vertex 5.000000000000001 -15 20
vertex 3.435655349597694 -14.876883405951379 20
endloop
endfacet
facet normal -0.23344536385590509 -0.9723699203976768 0
outer loop
vertex 1.9098300562505264 -14.510565162951535 0
vertex 3.435655349597694 -14.876883405951379 0
vertex 3.435655349597694 -14.876883405951379 20
endloop
endfacet
facet normal -0.23344536385590509 -0.9723699203976768 0
outer loop
vertex 1.9098300562505264 -14.510565162951535 0
vertex 3.435655349597694 -14.876883405951379 20
vertex 1.9098300562505264 -14.510565162951535 20
endloop
endfacet
facet normal -0.3826834323650896 -0.923879532511287 0
outer loop
vertex 0.4600950026045325 -13.910065241883679 0
vertex 1.9098300562505264 -14.510565162951535 0
vertex 1.9098300562505264 -14.510565162951535 20
endloop
endfacet
facet normal -0.3826834323650896 -0.923879532511287 0
outer loop
vertex 0.4600950026045325 -13.910065241883679 0
vertex 1.9098300562505264 -14.510565162951535 20
vertex 0.4600950026045325 -13.910065241883679 20
endloop
endfacet
facet normal -0.5224985647159491 -0.852640164354092 0
outer loop
vertex -0.87785252292473 -13.090169943749475 0
vertex 0.4600950026045325 -13.910065241883679 0
vertex 0.4600950026045325 -13.910065241883679 20
endloop
endfacet
facet normal -0.5224985647159491 -0.852640164354092 0
outer loop
vertex -0.87785252292473 -13.090169943749475 0
vertex 0.4600950026045325 -13.910065241883679 20
vertex -0.87785252292473 -13.090169943749475 20
endloop
endfacet
facet normal -0.6494480483301835 -0.7604059656000312 0
outer loop
vertex -2.0710678118654746 -12.071067811865476 0
vertex -0.87785252292473 -13.090169943749475 0
vertex -0.87785252292473 -13.090169943749475 20
endloop
endfacet
facet normal -0.6494480483301835 -0.7604059656000312 0
outer loop
vertex -2.0710678118654746 -12.071067811865476 0
vertex -0.87785252292473 -13.090169943749475 20
vertex -2.0710678118654746 -12.071067811865476 20
endloop
endfacet
facet normal -0.7604059656000299 -0.649448048330185 0
outer loop
vertex -3.0901699437494745 -10.877852522924732 0
vertex -2.0710678118654746 -12.071067811865476 0
vertex -2.0710678118654746 -12.071067811865476 20
endloop
endfacet
facet normal -0.7604059656000299 -0.649448048330185 0
outer loop
vertex -3.0901699437494745 -10.877852522924732 0
vertex -2.0710678118654746 -12.071067811865476 20
vertex -3.0901699437494745 -10.877852522924732 20
endloop
endfacet
facet normal -0.8526401643540927 -0.5224985647159481 0
outer loop
vertex -3.9100652418836788 -9.539904997395467 0
vertex -3.0901699437494745 -10.877852522924732 0
vertex -3.0901699437494745 -10.877852522924732 20
endloop
endfacet
facet normal -0.8526401643540927 -0.5224985647159481 0
outer loop
vertex -3.9100652418836788 -9.539904997395467 0
vertex -3.0901699437494745 -10.877852522924732 20
vertex -3.9100652418836788 -9.539904997395467 20
endloop
endfacet
facet normal -0.923879532511287 -0.3826834323650896 0
outer loop
vertex -4.510565162951535 -8.090169943749475 0
vertex -3.9100652418836788 -9.539904997395467 0
vertex -3.9100652418836788 -9.539904997395467 20
endloop
endfacet
facet normal -0.923879532511287 -0.3826834323650896 0
outer loop
vertex -4.510565162951535 -8.090169943749475 0
vertex -3.9100652418836788 -9.539904997395467 20
vertex -4.510565162951535 -8.090169943749475 20
endloop
endfacet
facet normal -0.9723699203976764 -0.233445363855906 0
outer loop
vertex -4.876883405951377 -6.564344650402308 0
vertex -4.510565162951535 -8.090169943749475 0
vertex -4.510565162951535 -8.090169943749475 20
endloop
endfacet
facet normal -0.9723699203976764 -0.233445363855906 0
outer loop
vertex -4.876883405951377 -6.564344650402308 0
vertex -4.510565162951535 -8.090169943749475 20
vertex -4.876883405951377 -6.564344650402308 20
endloop
endfacet
facet normal -0.996917333733128 -0.07845909572784483 0
outer loop
vertex -5 -4.999999999999997 0
vertex -4.876883405951377 -6.564344650402308 0
vertex -4.876883405951377 -6.564344650402308 20
endloop
endfacet
facet normal -0.996917333733128 -0.07845909572784483 0
outer loop
vertex -5 -4.999999999999997 0
vertex -4.876883405951377 -6.564344650402308 20
vertex -5 -5 20
endloop
endfacet
facet normal -0.9969173337331281 0.07845909572784393 0
outer loop
vertex -4.876883405951379 -3.4356553495976887 0
vertex -5 -4.999999999999997 0
vertex -5 -5 20
endloop
endfacet
facet normal -0.9969173337331281 0.07845909572784393 0
outer loop
vertex -4.876883405951379 -3.4356553495976887 0
vertex -5 -5 20
vertex -4.876883405951379 -3.4356553495976887 20
endloop
endfacet
facet normal -0.9723699203976766 0.23344536385590553 0
outer loop
vertex -4.510565162951538 -1.9098300562505237 0
vertex -4.876883405951379 -3.4356553495976887 0
vertex -4.876883405951379 -3.4356553495976887 20
endloop
endfacet
facet normal -0.9723699203976766 0.23344536385590553 0
outer loop
vertex -4.510565162951538 -1.9098300562505237 0
vertex -4.876883405951379 -3.4356553495976887 20
vertex -4.510565162951538 -1.9098300562505237 20
endloop
endfacet
facet normal -0.9238795325112866 0.38268343236509006 0
outer loop
vertex -3.9100652418836788 -0.46009500260453073 0
vertex -4.510565162951538 -1.9098300562505237 0
vertex -4.510565162951538 -1.9098300562505237 20
endloop
endfacet
facet normal -0.9238795325112866 0.38268343236509006 0
outer loop
vertex -3.9100652418836788 -0.46009500260453073 0
vertex -4.510565162951538 -1.9098300562505237 20
vertex -3.9100652418836788 -0.46009500260453073 20
endloop
endfacet
facet normal -0.8526401643540923 0.5224985647159488 0
outer loop
vertex -3.0901699437494745 0.87785252292473 0
vertex -3.9100652418836788 -0.46009500260453073 0
vertex -3.9100652418836788 -0.46009500260453073 20
endloop
endfacet
facet normal -0.8526401643540923 0.5224985647159488 0
outer loop
vertex -3.0901699437494745 0.87785252292473 0
vertex -3.9100652418836788 -0.46009500260453073 20
vertex -3.0901699437494745 0.87785252292473 20
endloop
endfacet
facet normal -0.7604059656000316 0.6494480483301828 0
outer loop
vertex -2.0710678118654773 2.0710678118654746 0
vertex -3.0901699437494745 0.87785252292473 0
vertex -3.0901699437494745 0.87785252292473 20
endloop
endfacet
facet normal -0.7604059656000316 0.6494480483301828 0
outer loop
vertex -2.0710678118654773 2.0710678118654746 0
vertex -3.0901699437494745 0.87785252292473 20
vertex -2.0710678118654773 2.0710678118654746 20
endloop
endfacet
facet normal -0.6494480483301832 0.7604059656000315 0
outer loop
vertex -0.8778525229247327 3.0901699437494727 0
vertex -2.0710678118654773 2.0710678118654746 0
vertex -2.0710678118654773 2.0710678118654746 20
endloop
endfacet
facet normal -0.6494480483301832 0.7604059656000315 0
outer loop
vertex -0.8778525229247327 3.0901699437494727 0
vertex -2.0710678118654773 2.0710678118654746 20
vertex -0.8778525229247327 3.0901699437494727 20
endloop
endfacet
facet normal -0.5224985647159498 0.8526401643540917 0
outer loop
vertex 0.46009500260453073 3.9100652418836788 0
vertex -0.8778525229247327 3.0901699437494727 0
vertex -0.8778525229247327 3.0901699437494727 20
endloop
endfacet
facet normal -0.5224985647159498 0.8526401643540917 0
outer loop
vertex 0.46009500260453073 3.9100652418836788 0
vertex -0.8778525229247327 3.0901699437494727 20
vertex 0.46009500260453073 3.9100652418836788 20
endloop
endfacet
facet normal -0.3826834323650893 0.9238795325112871 0
outer loop
vertex 1.9098300562505246 4.510565162951535 0
vertex 0.46009500260453073 3.9100652418836788 0
vertex 0.46009500260453073 3.9100652418836788 20
endloop
endfacet
facet normal -0.3826834323650893 0.9238795325112871 0
outer loop
vertex 1.9098300562505246 4.510565162951535 0
vertex 0.46009500260453073 3.9100652418836788 20
vertex 1.9098300562505246 4.510565162951535 20
endloop
endfacet
facet normal -0.23344536385590597 0.9723699203976764 0
outer loop
vertex 3.4356553495976896 4.876883405951377 0
vertex 1.9098300562505246 4.510565162951535 0
vertex 1.9098300562505246 4.510565162951535 20
endloop
endfacet
facet normal -0.23344536385590597 0.9723699203976764 0
outer loop
vertex 3.4356553495976896 4.876883405951377 0
vertex 1.9098300562505246 4.510565162951535 20
vertex 3.4356553495976896 4.876883405951377 20
endloop
endfacet
facet normal -0.07845909572784482 0.996917333733128 0
outer loop
vertex 4.999999999999998 5 0
vertex 3.4356553495976896 4.876883405951377 0
vertex 3.4356553495976896 4.876883405951377 20
endloop
endfacet
facet normal -0.07845909572784482 0.996917333733128 0
outer loop
vertex 4.999999999999998 5 0
vertex 3.4356553495976896 4.876883405951377 20
vertex 4.999999999999998 5 20
endloop
endfacet
facet normal 0.07845909572784393 0.9969173337331281 0
outer loop
vertex 6.564344650402306 4.876883405951377 0
vertex 4.999999999999998 5 0
vertex 4.999999999999998 5 20
endloop
endfacet
facet normal 0.07845909572784393 0.9969173337331281 0
outer loop
vertex 6.564344650402306 4.876883405951377 0
vertex 4.999999999999998 5 20
vertex 6.564344650402306 4.876883405951377 20
endloop
endfacet
facet normal 0.23344536385590597 0.9723699203976764 0
outer loop
vertex 8.090169943749473 4.510565162951535 0
vertex 6.564344650402306 4.876883405951377 0
vertex 6.564344650402306 4.876883405951377 20
endloop
endfacet
facet normal 0.23344536385590597 0.9723699203976764 0
outer loop
vertex 8.090169943749473 4.510565162951535 0
vertex 6.564344650402306 4.876883405951377 20
vertex 8.090169943749473 4.510565162951535 20
endloop
endfacet
facet normal 0.3826834323650888 0.9238795325112872 0
outer loop
vertex 9.539904997395467 3.9100652418836788 0
vertex 8.090169943749473 4.510565162951535 0
vertex 8.090169943749473 4.510565162951535 20
endloop
endfacet
facet normal 0.3826834323650888 0.9238795325112872 0
outer loop
vertex 9.539904997395467 3.9100652418836788 0
vertex 8.090169943749473 4.510565162951535 20
vertex 9.539904997395467 3.9100652418836788 20
endloop
endfacet
facet normal 0.5224985647159491 0.852640164354092 0
outer loop
vertex 10.87785252292473 3.0901699437494727 0
vertex 9.539904997395467 3.9100652418836788 0
vertex 9.539904997395467 3.9100652418836788 20
endloop
endfacet
facet normal 0.5224985647159491 0.852640164354092 0
outer loop
vertex 10.87785252292473 3.0901699437494727 0
vertex 9.539904997395467 3.9100652418836788 20
vertex 10.87785252292473 3.0901699437494727 20
endloop
endfacet
facet normal 0.649448048330184 0.7604059656000308 0
outer loop
vertex 12.071067811865474 2.0710678118654746 0
vertex 10.87785252292473 3.0901699437494727 0
vertex 10.87785252292473 3.0901699437494727 20
endloop
endfacet
facet normal 0.649448048330184 0.7604059656000308 0
outer loop
vertex 12.071067811865474 2.0710678118654746 0
vertex 10.87785252292473 3.0901699437494727 20
vertex 12.071067811865474 2.0710678118654746 20
endloop
endfacet
facet normal 0.7604059656000308 0.649448048330184 0
outer loop
vertex 13.090169943749473 0.87785252292473 0
vertex 12.071067811865474 2.0710678118654746 0
vertex 12.071067811865474 2.0710678118654746 20
endloop
endfacet
facet normal 0.7604059656000308 0.649448048330184 0
outer loop
vertex 13.090169943749473 0.87785252292473 0
vertex 12.071067811865474 2.0710678118654746 20
vertex 13.090169943749473 0.87785252292473 20
endloop
endfacet
facet normal 0.8526401643540921 0.5224985647159492 0
outer loop
vertex 13.910065241883679 -0.46009500260453073 0
vertex 13.090169943749473 0.87785252292473 0
vertex 13.090169943749473 0.87785252292473 20
endloop
endfacet
facet normal 0.8526401643540921 0.5224985647159492 0
outer loop
vertex 13.910065241883679 -0.46009500260453073 0
vertex 13.090169943749473 0.87785252292473 20
vertex 13.910065241883679 -0.46009500260453073 20
endloop
endfacet
facet normal 0.923879532511287 0.3826834323650896 0
outer loop
vertex 14.510565162951535 -1.9098300562505237 0
vertex 13.910065241883679 -0.46009500260453073 0
vertex 13.910065241883679 -0.46009500260453073 20
endloop
endfacet
facet normal 0.923879532511287 0.3826834323650896 0
outer loop
vertex 14.510565162951535 -1.9098300562505237 0
vertex 13.910065241883679 -0.46009500260453073 20
vertex 14.510565162951535 -1.9098300562505237 20
endloop
endfacet
facet normal 0.9723699203976767 0.23344536385590517 0
outer loop
vertex 14.876883405951377 -3.4356553495976887 0
vertex 14.510565162951535 -1.9098300562505237 0
vertex 14.510565162951535 -1.9098300562505237 20
endloop
endfacet
facet normal 0.9723699203976767 0.23344536385590517 0
outer loop
vertex 14.876883405951377 -3.4356553495976887 0
vertex 14.510565162951535 -1.9098300562505237 20
vertex 14.876883405951377 -3.4356553495976887 20
endloop
endfacet
facet normal 0.996917333733128 0.07845909572784572 0
outer loop
vertex 15 -4.999999999999997 0
vertex 14.876883405951377 -3.4356553495976887 0
vertex 14.876883405951377 -3.4356553495976887 20
endloop
endfacet
facet normal 0.996917333733128 0.07845909572784572 0
outer loop
vertex 15 -4.999999999999997 0
vertex 14.876883405951377 -3.4356553495976887 20
vertex 15 -5 20
endloop
endfacet
facet normal -0.9969173337331281 0.07845909572784393 0
outer loop
vertex 13 -4.999999999999997 0
vertex 12.901506724761102 -6.251475720321844 0
vertex 12.9015067247611 -6.251475720321846 20
endloop
endfacet
facet normal -0.9969173337331281 0.07845909572784393 0
outer loop
vertex 13 -4.999999999999997 0
vertex 12.9015067247611 -6.251475720321846 20
vertex 12.999999999999998 -5 20
endloop
endfacet
facet normal -0.9723699203976768 0.23344536385590497 0
outer loop
vertex 12.901506724761102 -6.251475720321844 0
vertex 12.60845213036123 -7.472135954999575 0
vertex 12.60845213036123 -7.472135954999575 20
endloop
endfacet
facet normal -0.9723699203976768 0.23344536385590497 0
outer loop
vertex 12.901506724761102 -6.251475720321844 0
vertex 12.60845213036123 -7.472135954999575 20
vertex 12.9015067247611 -6.251475720321846 20
endloop
endfacet
facet normal -0.9238795325112861 0.3826834323650914 0
outer loop
vertex 12.60845213036123 -7.472135954999575 0
vertex 12.128052193506935 -8.631923997916388 0
vertex 12.128052193506935 -8.631923997916388 20
endloop
endfacet
facet normal -0.9238795325112861 0.3826834323650914 0
outer loop
vertex 12.60845213036123 -7.472135954999575 0
vertex 12.128052193506935 -8.631923997916388 20
vertex 12.60845213036123 -7.472135954999575 20
endloop
endfacet
facet normal -0.8526401643540928 0.5224985647159479 0
outer loop
vertex 12.128052193506935 -8.631923997916388 0
vertex 11.472135954999592 -9.702282018339767 0
vertex 11.472135954999588 -9.702282018339773 20
endloop
endfacet
facet normal -0.8526401643540928 0.5224985647159479 0
outer loop
vertex 12.128052193506935 -8.631923997916388 0
vertex 11.472135954999588 -9.702282018339773 20
vertex 12.128052193506935 -8.631923997916388 20
endloop
endfacet
facet normal -0.7604059656000307 0.649448048330184 0
outer loop
vertex 11.472135954999592 -9.702282018339767 0
vertex 10.656854249492376 -10.656854249492383 0
vertex 10.656854249492374 -10.656854249492383 20
endloop
endfacet
facet normal -0.7604059656000307 0.649448048330184 0
outer loop
vertex 11.472135954999592 -9.702282018339767 0
vertex 10.656854249492374 -10.656854249492383 20
vertex 11.472135954999588 -9.702282018339773 20
endloop
endfacet
facet normal -0.649448048330184 0.7604059656000307 0
outer loop
vertex 10.656854249492376 -10.656854249492383 0
vertex 9.702282018339783 -11.472135954999581 0
vertex 9.70228201833978 -11.472135954999583 20
endloop
endfacet
facet normal -0.649448048330184 0.7604059656000307 0
outer loop
vertex 10.656854249492376 -10.656854249492383 0
vertex 9.70228201833978 -11.472135954999583 20
vertex 10.656854249492374 -10.656854249492383 20
endloop
endfacet
facet normal -0.5224985647159479 0.8526401643540928 0
outer loop
vertex 9.702282018339783 -11.472135954999581 0
vertex 8.631923997916381 -12.128052193506939 0
vertex 8.631923997916385 -12.128052193506935 20
endloop
endfacet
facet normal -0.5224985647159479 0.8526401643540928 0
outer loop
vertex 9.702282018339783 -11.472135954999581 0
vertex 8.631923997916385 -12.128052193506935 20
vertex 9.70228201833978 -11.472135954999583 20
endloop
endfacet
facet normal -0.3826834323650914 0.9238795325112861 0
outer loop
vertex 8.631923997916381 -12.128052193506939 0
vertex 7.472135954999576 -12.60845213036123 0
vertex 7.472135954999578 -12.608452130361227 20
endloop
endfacet
facet normal -0.3826834323650914 0.9238795325112861 0
outer loop
vertex 8.631923997916381 -12.128052193506939 0
vertex 7.472135954999578 -12.608452130361227 20
vertex 8.631923997916385 -12.128052193506935 20
endloop
endfacet
facet normal -0.23344536385590509 0.9723699203976768 0
outer loop
vertex 7.472135954999576 -12.60845213036123 0
vertex 6.251475720321851 -12.9015067247611 0
vertex 6.2514757203218325 -12.901506724761104 20
endloop
endfacet
facet normal -0.23344536385590509 0.9723699203976768 0
outer loop
vertex 7.472135954999576 -12.60845213036123 0
vertex 6.2514757203218325 -12.901506724761104 20
vertex 7.472135954999578 -12.608452130361227 20
endloop
endfacet
facet normal -0.07845909572784394 0.9969173337331281 0
outer loop
vertex 6.251475720321851 -12.9015067247611 0
vertex 4.999999999999994 -13 0
vertex 4.999999999999998 -13 20
endloop
endfacet
facet normal -0.07845909572784394 0.9969173337331281 0
outer loop
vertex 6.251475720321851 -12.9015067247611 0
vertex 4.999999999999998 -13 20
vertex 6.2514757203218325 -12.901506724761104 20
endloop
endfacet
facet normal 0.07845909572784393 0.9969173337331281 0
outer loop
vertex 4.999999999999994 -13 0
vertex 3.748524279678125 -12.9015067247611 0
vertex 3.7485242796781613 -12.901506724761104 20
endloop
endfacet
facet normal 0.07845909572784393 0.9969173337331281 0
outer loop
vertex 4.999999999999994 -13 0
vertex 3.7485242796781613 -12.901506724761104 20
vertex 4.999999999999998 -13 20
endloop
endfacet
facet normal 0.23344536385590509 0.9723699203976768 0
outer loop
vertex 3.748524279678125 -12.9015067247611 0
vertex 2.527864045000433 -12.60845213036123 0
vertex 2.5278640450004195 -12.608452130361227 20
endloop
endfacet
facet normal 0.23344536385590509 0.9723699203976768 0
outer loop
vertex 3.748524279678125 -12.9015067247611 0
vertex 2.5278640450004195 -12.608452130361227 20
vertex 3.7485242796781613 -12.901506724761104 20
endloop
endfacet
facet normal 0.3826834323650899 0.9238795325112867 0
outer loop
vertex 2.527864045000433 -12.60845213036123 0
vertex 1.3680760020836233 -12.128052193506939 0
vertex 1.3680760020836198 -12.128052193506935 20
endloop
endfacet
facet normal 0.3826834323650899 0.9238795325112867 0
outer loop
vertex 2.527864045000433 -12.60845213036123 0
vertex 1.3680760020836198 -12.128052193506935 20
vertex 2.5278640450004195 -12.608452130361227 20
endloop
endfacet
facet normal 0.5224985647159486 0.8526401643540925 0
outer loop
vertex 1.3680760020836233 -12.128052193506939 0
vertex 0.29771798166021735 -11.472135954999581 0
vertex 0.2977179816602149 -11.472135954999583 20
endloop
endfacet
facet normal 0.5224985647159486 0.8526401643540925 0
outer loop
vertex 1.3680760020836233 -12.128052193506939 0
vertex 0.2977179816602149 -11.472135954999583 20
vertex 1.3680760020836198 -12.128052193506935 20
endloop
endfacet
facet normal 0.649448048330184 0.7604059656000307 0
outer loop
vertex 0.29771798166021735 -11.472135954999581 0
vertex -0.6568542494923795 -10.656854249492383 0
vertex -0.6568542494923779 -10.656854249492383 20
endloop
endfacet
facet normal 0.649448048330184 0.7604059656000307 0
outer loop
vertex 0.29771798166021735 -11.472135954999581 0
vertex -0.6568542494923779 -10.656854249492383 20
vertex 0.2977179816602149 -11.472135954999583 20
endloop
endfacet
facet normal 0.7604059656000298 0.649448048330185 0
outer loop
vertex -0.6568542494923795 -10.656854249492383 0
vertex -1.4721359549995978 -9.702282018339767 0
vertex -1.4721359549995818 -9.702282018339773 20
endloop
endfacet
facet normal 0.7604059656000298 0.649448048330185 0
outer loop
vertex -0.6568542494923795 -10.656854249492383 0
vertex -1.4721359549995818 -9.702282018339773 20
vertex -0.6568542494923779 -10.656854249492383 20
endloop
endfacet
facet normal 0.8526401643540931 0.5224985647159475 0
outer loop
vertex -1.4721359549995978 -9.702282018339767 0
vertex -2.128052193506923 -8.631923997916388 0
vertex -2.1280521935069396 -8.631923997916388 20
endloop
endfacet
facet normal 0.8526401643540931 0.5224985647159475 0
outer loop
vertex -1.4721359549995978 -9.702282018339767 0
vertex -2.1280521935069396 -8.631923997916388 20
vertex -1.4721359549995818 -9.702282018339773 20
endloop
endfacet
facet normal 0.9238795325112865 0.3826834323650905 0
outer loop
vertex -2.128052193506923 -8.631923997916388 0
vertex -2.6084521303612327 -7.472135954999575 0
vertex -2.60845213036123 -7.472135954999575 20
endloop
endfacet
facet normal 0.9238795325112865 0.3826834323650905 0
outer loop
vertex -2.128052193506923 -8.631923997916388 0
vertex -2.60845213036123 -7.472135954999575 20
vertex -2.1280521935069396 -8.631923997916388 20
endloop
endfacet
facet normal 0.9723699203976767 0.2334453638559051 0
outer loop
vertex -2.6084521303612327 -7.472135954999575 0
vertex -2.901506724761102 -6.251475720321844 0
vertex -2.9015067247611013 -6.251475720321846 20
endloop
endfacet
facet normal 0.9723699203976767 0.2334453638559051 0
outer loop
vertex -2.6084521303612327 -7.472135954999575 0
vertex -2.9015067247611013 -6.251475720321846 20
vertex -2.60845213036123 -7.472135954999575 20
endloop
endfacet
facet normal 0.996917333733128 0.07845909572784526 0
outer loop
vertex -2.901506724761102 -6.251475720321844 0
vertex -2.9999999999999996 -4.999999999999997 0
vertex -3 -5 20
endloop
endfacet
facet normal 0.996917333733128 0.07845909572784526 0
outer loop
vertex -2.901506724761102 -6.251475720321844 0
vertex -3 -5 20
vertex -2.9015067247611013 -6.251475720321846 20
endloop
endfacet
facet normal 0.996917333733128 -0.07845909572784482 0
outer loop
vertex -2.9999999999999996 -4.999999999999997 0
vertex -2.9015067247611026 -3.7485242796781546 0
vertex -2.901506724761102 -3.748524279678155 20
endloop
endfacet
facet normal 0.996917333733128 -0.07845909572784482 0
outer loop
vertex -2.9999999999999996 -4.999999999999997 0
vertex -2.901506724761102 -3.748524279678155 20
vertex -3 -5 20
endloop
endfacet
facet normal 0.9723699203976768 -0.23344536385590509 0
outer loop
vertex -2.9015067247611026 -3.7485242796781546 0
vertex -2.6084521303612296 -2.527864045000423 0
vertex -2.60845213036123 -2.527864045000425 20
endloop
endfacet
facet normal 0.9723699203976768 -0.23344536385590509 0
outer loop
vertex -2.9015067247611026 -3.7485242796781546 0
vertex -2.60845213036123 -2.527864045000425 20
vertex -2.901506724761102 -3.748524279678155 20
endloop
endfacet
facet normal 0.923879532511287 -0.3826834323650896 0
outer loop
vertex -2.6084521303612296 -2.527864045000423 0
vertex -2.128052193506945 -1.3680760020836298 0
vertex -2.1280521935069436 -1.368076002083627 20
endloop
endfacet
facet normal 0.923879532511287 -0.3826834323650896 0
outer loop
vertex -2.6084521303612296 -2.527864045000423 0
vertex -2.1280521935069436 -1.368076002083627 20
vertex -2.60845213036123 -2.527864045000425 20
endloop
endfacet
facet normal 0.8526401643540922 -0.522498564715949 0
outer loop
vertex -2.128052193506945 -1.3680760020836298 0
vertex -1.4721359549995783 -0.2977179816602138 0
vertex -1.4721359549995792 -0.2977179816602149 20
endloop
endfacet
facet normal 0.8526401643540922 -0.522498564715949 0
outer loop
vertex -2.128052193506945 -1.3680760020836298 0
vertex -1.4721359549995792 -0.2977179816602149 20
vertex -2.1280521935069436 -1.368076002083627 20
endloop
endfacet
facet normal 0.7604059656000315 -0.6494480483301831 0
outer loop
vertex -1.4721359549995783 -0.2977179816602138 0
vertex -0.6568542494923837 0.6568542494923778 0
vertex -0.6568542494923815 0.6568542494923797 20
endloop
endfacet
facet normal 0.7604059656000315 -0.6494480483301831 0
outer loop
vertex -1.4721359549995783 -0.2977179816602138 0
vertex -0.6568542494923815 0.6568542494923797 20
vertex -1.4721359549995792 -0.2977179816602149 20
endloop
endfacet
facet normal 0.6494480483301834 -0.7604059656000312 0
outer loop
vertex -0.6568542494923837 0.6568542494923778 0
vertex 0.2977179816602147 1.4721359549995792 0
vertex 0.2977179816602158 1.47213595499958 20
endloop
endfacet
facet normal 0.6494480483301834 -0.7604059656000312 0
outer loop
vertex -0.6568542494923837 0.6568542494923778 0
vertex 0.2977179816602158 1.47213595499958 20
vertex -0.6568542494923815 0.6568542494923797 20
endloop
endfacet
facet normal 0.5224985647159489 -0.8526401643540922 0
outer loop
vertex 0.2977179816602147 1.4721359549995792 0
vertex 1.3680760020836238 2.128052193506942 0
vertex 1.3680760020836225 2.1280521935069414 20
endloop
endfacet
facet normal 0.5224985647159489 -0.8526401643540922 0
outer loop
vertex 0.2977179816602147 1.4721359549995792 0
vertex 1.3680760020836225 2.1280521935069414 20
vertex 0.2977179816602158 1.47213595499958 20
endloop
endfacet
facet normal 0.3826834323650901 -0.9238795325112867 0
outer loop
vertex 1.3680760020836238 2.128052193506942 0
vertex 2.5278640450004204 2.6084521303612287 0
vertex 2.527864045000422 2.608452130361229 20
endloop
endfacet
facet normal 0.3826834323650901 -0.9238795325112867 0
outer loop
vertex 1.3680760020836238 2.128052193506942 0
vertex 2.527864045000422 2.608452130361229 20
vertex 1.3680760020836225 2.1280521935069414 20
endloop
endfacet
facet normal 0.23344536385590553 -0.9723699203976766 0
outer loop
vertex 2.5278640450004204 2.6084521303612287 0
vertex 3.7485242796781506 2.9015067247611013 0
vertex 3.7485242796781515 2.9015067247611013 20
endloop
endfacet
facet normal 0.23344536385590553 -0.9723699203976766 0
outer loop
vertex 2.5278640450004204 2.6084521303612287 0
vertex 3.7485242796781515 2.9015067247611013 20
vertex 2.527864045000422 2.608452130361229 20
endloop
endfacet
facet normal 0.07845909572784526 -0.996917333733128 0
outer loop
vertex 3.7485242796781506 2.9015067247611013 0
vertex 4.9999999999999964 3 0
vertex 4.999999999999997 3 20
endloop
endfacet
facet normal 0.07845909572784526 -0.996917333733128 0
outer loop
vertex 3.7485242796781506 2.9015067247611013 0
vertex 4.999999999999997 3 20
vertex 3.7485242796781515 2.9015067247611013 20
endloop
endfacet
facet normal -0.07845909572784483 -0.996917333733128 0
outer loop
vertex 4.9999999999999964 3 0
vertex 6.25147572032185 2.9015067247611013 0
vertex 6.251475720321857 2.9015067247611013 20
endloop
endfacet
facet normal -0.07845909572784483 -0.996917333733128 0
outer loop
vertex 4.9999999999999964 3 0
vertex 6.251475720321857 2.9015067247611013 20
vertex 4.999999999999997 3 20
endloop
endfacet
facet normal -0.2334453638559055 -0.9723699203976766 0
outer loop
vertex 6.25147572032185 2.9015067247611013 0
vertex 7.472135954999574 2.6084521303612287 0
vertex 7.47213595499958 2.608452130361229 20
endloop
endfacet
facet normal -0.2334453638559055 -0.9723699203976766 0
outer loop
vertex 6.25147572032185 2.9015067247611013 0
vertex 7.47213595499958 2.608452130361229 20
vertex 6.251475720321857 2.9015067247611013 20
endloop
endfacet
facet normal -0.3826834323650888 -0.9238795325112872 0
outer loop
vertex 7.472135954999574 2.6084521303612287 0
vertex 8.631923997916376 2.128052193506942 0
vertex 8.631923997916376 2.1280521935069414 20
endloop
endfacet
facet normal -0.3826834323650888 -0.9238795325112872 0
outer loop
vertex 7.472135954999574 2.6084521303612287 0
vertex 8.631923997916376 2.1280521935069414 20
vertex 7.47213595499958 2.608452130361229 20
endloop
endfacet
facet normal -0.5224985647159494 -0.8526401643540918 0
outer loop
vertex 8.631923997916376 2.128052193506942 0
vertex 9.702282018339787 1.4721359549995792 0
vertex 9.702282018339782 1.47213595499958 20
endloop
endfacet
facet normal -0.5224985647159494 -0.8526401643540918 0
outer loop
vertex 8.631923997916376 2.128052193506942 0
vertex 9.702282018339782 1.47213595499958 20
vertex 8.631923997916376 2.1280521935069414 20
endloop
endfacet
facet normal -0.649448048330183 -0.7604059656000315 0
outer loop
vertex 9.702282018339787 1.4721359549995792 0
vertex 10.656854249492374 0.6568542494923778 0
vertex 10.65685424949238 0.6568542494923797 20
endloop
endfacet
facet normal -0.649448048330183 -0.7604059656000315 0
outer loop
vertex 9.702282018339787 1.4721359549995792 0
vertex 10.65685424949238 0.6568542494923797 20
vertex 9.702282018339782 1.47213595499958 20
endloop
endfacet
facet normal -0.7604059656000312 -0.6494480483301835 0
outer loop
vertex 10.656854249492374 0.6568542494923778 0
vertex 11.472135954999585 -0.2977179816602138 0
vertex 11.472135954999573 -0.2977179816602149 20
endloop
endfacet
facet normal -0.7604059656000312 -0.6494480483301835 0
outer loop
vertex 10.656854249492374 0.6568542494923778 0
vertex 11.472135954999573 -0.2977179816602149 20
vertex 10.65685424949238 0.6568542494923797 20
endloop
endfacet
facet normal -0.852640164354092 -0.5224985647159491 0
outer loop
vertex 11.472135954999585 -0.2977179816602138 0
vertex 12.128052193506939 -1.3680760020836298 0
vertex 12.128052193506948 -1.368076002083627 20
endloop
endfacet
facet normal -0.852640164354092 -0.5224985647159491 0
outer loop
vertex 11.472135954999585 -0.2977179816602138 0
vertex 12.128052193506948 -1.368076002083627 20
vertex 11.472135954999573 -0.2977179816602149 20
endloop
endfacet
facet normal -0.9238795325112861 -0.3826834323650912 0
outer loop
vertex 12.128052193506939 -1.3680760020836298 0
vertex 12.608452130361231 -2.527864045000423 0
vertex 12.608452130361227 -2.527864045000425 20
endloop
endfacet
facet normal -0.9238795325112861 -0.3826834323650912 0
outer loop
vertex 12.128052193506939 -1.3680760020836298 0
vertex 12.608452130361227 -2.527864045000425 20
vertex 12.128052193506948 -1.368076002083627 20
endloop
endfacet
facet normal -0.9723699203976767 -0.2334453638559051 0
outer loop
vertex 12.608452130361231 -2.527864045000423 0
vertex 12.901506724761104 -3.7485242796781546 0
vertex 12.901506724761104 -3.748524279678155 20
endloop
endfacet
facet normal -0.9723699203976767 -0.2334453638559051 0
outer loop
vertex 12.608452130361231 -2.527864045000423 0
vertex 12.901506724761104 -3.748524279678155 20
vertex 12.608452130361227 -2.527864045000425 20
endloop
endfacet
facet normal -0.9969173337331281 -0.07845909572784394 0
outer loop
vertex 12.901506724761104 -3.7485242796781546 0
vertex 13 -4.999999999999997 0
vertex 12.999999999999998 -5 20
endloop
endfacet
facet normal -0.9969173337331281 -0.07845909572784394 0
outer loop
vertex 12.901506724761104 -3.7485242796781546 0
vertex 12.999999999999998 -5 20
vertex 12.901506724761104 -3.748524279678155 20
endloop
endfacet
endsolid craftml
