solid csg.js
facet normal 0 0 -1
outer loop
vertex 15.727406610312546 -5.929447639179834 30
vertex 16 -8 30
vertex 13.000000000000004 -8 30
endloop
endfacet
facet normal 0 0 -1
outer loop
vertex 15.727406610312546 -5.929447639179834 30
vertex 13.000000000000004 -8 30
vertex 12.829629131445342 -6.705904774487395 30
endloop
endfacet
facet normal 0.9914448613738105 0.13052619222005118 0
outer loop
vertex 15.727406610312546 -5.929447639179834 35
vertex 16 -8 35
vertex 16 -8 30
endloop
endfacet
facet normal 0.9914448613738105 0.13052619222005118 0
outer loop
vertex 15.727406610312546 -5.929447639179834 35
vertex 16 -8 30
vertex 15.727406610312546 -5.929447639179834 30
endloop
endfacet
facet normal 0 0 1
outer loop
vertex 16 -8 35
vertex 15.727406610312546 -5.929447639179834 35
vertex 8 -8 35
endloop
endfacet
facet normal 0 0 -1
outer loop
vertex 14.92820323027551 -4 30
vertex 15.727406610312546 -5.929447639179834 30
vertex 12.829629131445344 -6.705904774487395 30
endloop
endfacet
facet normal 0 0 -1
outer loop
vertex 14.92820323027551 -4 30
vertex 12.829629131445344 -6.705904774487395 30
vertex 12.646798669017876 -5.317169537572536 30
endloop
endfacet
facet normal 0 0 -1
outer loop
vertex 12.829629131445344 -6.705904774487395 30
vertex 12.330127018922193 -5.500000000000002 30
vertex 12.646798669017876 -5.317169537572536 30
endloop
endfacet
facet normal 0.923879532511287 0.3826834323650896 0
outer loop
vertex 14.92820323027551 -4 35
vertex 15.727406610312546 -5.929447639179834 35
vertex 15.727406610312546 -5.929447639179834 30
endloop
endfacet
facet normal 0.923879532511287 0.3826834323650896 0
outer loop
vertex 14.92820323027551 -4 35
vertex 15.727406610312546 -5.929447639179834 30
vertex 14.92820323027551 -4 30
endloop
endfacet
facet normal 0 0 1
outer loop
vertex 15.727406610312546 -5.929447639179834 35
vertex 14.92820323027551 -4 35
vertex 8 -8 35
endloop
endfacet
facet normal 0 0 -1
outer loop
vertex 13.65685424949238 -2.3431457505076203 30
vertex 14.92820323027551 -4 30
vertex 12.646798669017876 -5.317169537572535 30
endloop
endfacet
facet normal 0 0 -1
outer loop
vertex 13.65685424949238 -2.3431457505076203 30
vertex 12.646798669017876 -5.317169537572535 30
vertex 12.4183174699474 -3.5816825300526007 30
endloop
endfacet
facet normal 0 0 -1
outer loop
vertex 12.646798669017876 -5.317169537572535 30
vertex 12.330127018922193 -5.500000000000001 30
vertex 11.794095225512606 -4.205904774487395 30
endloop
endfacet
facet normal 0 0 -1
outer loop
vertex 12.646798669017876 -5.317169537572535 30
vertex 11.794095225512606 -4.205904774487395 30
vertex 12.4183174699474 -3.5816825300526007 30
endloop
endfacet
facet normal 0 0 -1
outer loop
vertex 11.535533905932738 -4.464466094067264 30
vertex 11.794095225512606 -4.205904774487395 30
vertex 12.330127018922191 -5.499999999999999 30
endloop
endfacet
facet normal 0.7933533402912347 0.6087614290087212 0
outer loop
vertex 13.65685424949238 -2.3431457505076203 35
vertex 14.92820323027551 -4 35
vertex 14.92820323027551 -4 30
endloop
endfacet
facet normal 0.7933533402912347 0.6087614290087212 0
outer loop
vertex 13.65685424949238 -2.3431457505076203 35
vertex 14.92820323027551 -4 30
vertex 13.65685424949238 -2.3431457505076203 30
endloop
endfacet
facet normal 0 0 1
outer loop
vertex 14.92820323027551 -4 35
vertex 13.65685424949238 -2.3431457505076203 35
vertex 8 -8 35
endloop
endfacet
facet normal 0 0 -1
outer loop
vertex 12.097760563341211 -1.146811088336229 30
vertex 13.65685424949238 -2.3431457505076203 30
vertex 12.4183174699474 -3.5816825300526007 30
endloop
endfacet
facet normal 0 0 -1
outer loop
vertex 12 -1.0717967697244912 30
vertex 12.097760563341211 -1.146811088336229 30
vertex 12.4183174699474 -3.5816825300526007 30
endloop
endfacet
facet normal 0 0 -1
outer loop
vertex 12 -1.0717967697244912 30
vertex 12.4183174699474 -3.5816825300526007 30
vertex 11.794095225512605 -4.205904774487395 30
endloop
endfacet
facet normal 0 0 -1
outer loop
vertex 12 -1.0717967697244912 30
vertex 11.794095225512605 -4.205904774487395 30
vertex 11.124222244434801 -2.5886883385020543 30
endloop
endfacet
facet normal 0 0 -1
outer loop
vertex 11.794095225512605 -4.205904774487395 30
vertex 11.535533905932738 -4.464466094067263 30
vertex 10.682830462427464 -3.3532013309821256 30
endloop
endfacet
facet normal 0 0 -1
outer loop
vertex 11.794095225512605 -4.205904774487395 30
vertex 10.682830462427464 -3.3532013309821256 30
vertex 11.124222244434801 -2.5886883385020543 30
endloop
endfacet
facet normal 0 0 -1
outer loop
vertex 10.5 -3.6698729810778046 30
vertex 10.682830462427464 -3.3532013309821256 30
vertex 11.535533905932727 -4.46446609406725 30
endloop
endfacet
facet normal 0.6087614290087207 0.7933533402912352 0
outer loop
vertex 12 -1.0717967697244912 35
vertex 13.65685424949238 -2.3431457505076203 35
vertex 13.65685424949238 -2.3431457505076203 30
endloop
endfacet
facet normal 0.6087614290087207 0.7933533402912352 0
outer loop
vertex 12 -1.0717967697244912 35
vertex 13.65685424949238 -2.3431457505076203 30
vertex 12 -1.0717967697244912 30
endloop
endfacet
facet normal 0 0 1
outer loop
vertex 13.65685424949238 -2.3431457505076203 35
vertex 12 -1.0717967697244912 35
vertex 8 -8 35
endloop
endfacet
facet normal 0 0 -1
outer loop
vertex 10.18439694805614 -0.31974936172336055 30
vertex 12 -1.0717967697244912 30
vertex 11.124222244434801 -2.5886883385020534 30
endloop
endfacet
facet normal 0 0 -1
outer loop
vertex 10.070552360820166 -0.2725933896874535 30
vertex 10.18439694805614 -0.31974936172336055 30
vertex 11.124222244434801 -2.5886883385020534 30
endloop
endfacet
facet normal 0 0 -1
outer loop
vertex 10.070552360820166 -0.2725933896874535 30
vertex 11.124222244434801 -2.5886883385020534 30
vertex 10.682830462427464 -3.353201330982126 30
endloop
endfacet
facet normal 0 0 -1
outer loop
vertex 10.070552360820166 -0.2725933896874535 30
vertex 10.682830462427464 -3.353201330982126 30
vertex 9.617216435985336 -1.9644660940672658 30
endloop
endfacet
facet normal 0 0 -1
outer loop
vertex 10.682830462427464 -3.353201330982126 30
vertex 10.500000000000002 -3.669872981077804 30
vertex 9.388735236914862 -2.817169537572533 30
endloop
endfacet
facet normal 0 0 -1
outer loop
vertex 10.682830462427464 -3.353201330982126 30
vertex 9.388735236914862 -2.817169537572533 30
vertex 9.617216435985336 -1.9644660940672658 30
endloop
endfacet
facet normal 0 0 -1
outer loop
vertex 10.500000000000002 -3.669872981077804 30
vertex 9.294095225512603 -3.1703708685546577 30
vertex 9.388735236914862 -2.817169537572533 30
endloop
endfacet
facet normal 0.38268343236509006 0.9238795325112866 0
outer loop
vertex 10.070552360820166 -0.2725933896874535 35
vertex 12 -1.0717967697244912 35
vertex 12 -1.0717967697244912 30
endloop
endfacet
facet normal 0.38268343236509006 0.9238795325112866 0
outer loop
vertex 10.070552360820166 -0.2725933896874535 35
vertex 12 -1.0717967697244912 30
vertex 10.070552360820166 -0.2725933896874535 30
endloop
endfacet
facet normal 0 0 1
outer loop
vertex 12 -1.0717967697244912 35
vertex 10.070552360820166 -0.2725933896874535 35
vertex 8 -8 35
endloop
endfacet
facet normal 0 0 -1
outer loop
vertex 8.122170290647638 -0.01608402389473957 30
vertex 10.070552360820166 -0.2725933896874535 30
vertex 9.617216435985336 -1.9644660940672658 30
endloop
endfacet
facet normal 0 0 -1
outer loop
vertex 8 0 30
vertex 8.122170290647638 -0.01608402389473957 30
vertex 9.617216435985336 -1.9644660940672658 30
endloop
endfacet
facet normal 0 0 -1
outer loop
vertex 8 0 30
vertex 9.617216435985336 -1.9644660940672658 30
vertex 9.388735236914862 -2.817169537572533 30
endloop
endfacet
facet normal 0 0 -1
outer loop
vertex 8 0 30
vertex 9.388735236914862 -2.817169537572533 30
vertex 8 -1.7515555111304053 30
endloop
endfacet
facet normal 0 0 -1
outer loop
vertex 9.388735236914862 -2.817169537572533 30
vertex 9.294095225512603 -3.1703708685546585 30
vertex 8 -2.6343390751450677 30
endloop
endfacet
facet normal 0 0 -1
outer loop
vertex 9.388735236914862 -2.817169537572533 30
vertex 8 -2.6343390751450677 30
vertex 8 -1.7515555111304053 30
endloop
endfacet
facet normal 0 0 -1
outer loop
vertex 8 -3 30
vertex 8 -2.6343390751450677 30
vertex 9.294095225512603 -3.170370868554658 30
endloop
endfacet
facet normal 0.13052619222005157 0.9914448613738105 0
outer loop
vertex 8 0 35
vertex 10.070552360820166 -0.2725933896874535 35
vertex 10.070552360820166 -0.2725933896874535 30
endloop
endfacet
facet normal 0.13052619222005157 0.9914448613738105 0
outer loop
vertex 8 0 35
vertex 10.070552360820166 -0.2725933896874535 30
vertex 8 0 30
endloop
endfacet
facet normal 0 0 1
outer loop
vertex 10.070552360820166 -0.2725933896874535 35
vertex 8 0 35
vertex 8 -8 35
endloop
endfacet
facet normal 0 0 -1
outer loop
vertex 6.0516179298274775 -0.2565093657927131 30
vertex 8 0 30
vertex 8 -1.7515555111304046 30
endloop
endfacet
facet normal 0 0 -1
outer loop
vertex 5.929447639179833 -0.2725933896874535 30
vertex 6.0516179298274775 -0.2565093657927131 30
vertex 8 -1.7515555111304046 30
endloop
endfacet
facet normal 0 0 -1
outer loop
vertex 5.929447639179833 -0.2725933896874535 30
vertex 8 -1.7515555111304046 30
vertex 8 -2.634339075145068 30
endloop
endfacet
facet normal 0 0 -1
outer loop
vertex 5.929447639179833 -0.2725933896874535 30
vertex 8 -2.634339075145068 30
vertex 6.382783564014662 -1.9644660940672596 30
endloop
endfacet
facet normal 0 0 -1
outer loop
vertex 8 -2.634339075145068 30
vertex 8 -3 30
vertex 6.611264763085138 -2.8171695375725347 30
endloop
endfacet
facet normal 0 0 -1
outer loop
vertex 8 -2.634339075145068 30
vertex 6.611264763085138 -2.8171695375725347 30
vertex 6.382783564014662 -1.9644660940672596 30
endloop
endfacet
facet normal 0 0 -1
outer loop
vertex 8 -3 30
vertex 6.705904774487396 -3.1703708685546594 30
vertex 6.611264763085138 -2.8171695375725347 30
endloop
endfacet
facet normal -0.13052619222005157 0.9914448613738105 0
outer loop
vertex 5.929447639179833 -0.2725933896874535 35
vertex 8 0 35
vertex 8 0 30
endloop
endfacet
facet normal -0.13052619222005157 0.9914448613738105 0
outer loop
vertex 5.929447639179833 -0.2725933896874535 35
vertex 8 0 30
vertex 5.929447639179833 -0.2725933896874535 30
endloop
endfacet
facet normal 0 0 1
outer loop
vertex 8 0 35
vertex 5.929447639179833 -0.2725933896874535 35
vertex 8 -8 35
endloop
endfacet
facet normal 0 0 -1
outer loop
vertex 4.1138445872359615 -1.0246407976885887 30
vertex 5.929447639179833 -0.2725933896874535 30
vertex 6.382783564014662 -1.96446609406726 30
endloop
endfacet
facet normal 0 0 -1
outer loop
vertex 4.000000000000002 -1.0717967697244903 30
vertex 4.1138445872359615 -1.0246407976885887 30
vertex 6.382783564014662 -1.96446609406726 30
endloop
endfacet
facet normal 0 0 -1
outer loop
vertex 4.000000000000002 -1.0717967697244903 30
vertex 6.382783564014662 -1.96446609406726 30
vertex 6.611264763085138 -2.8171695375725343 30
endloop
endfacet
facet normal 0 0 -1
outer loop
vertex 4.000000000000002 -1.0717967697244903 30
vertex 6.611264763085138 -2.8171695375725343 30
vertex 4.875777755565204 -2.5886883385020587 30
endloop
endfacet
facet normal 0 0 -1
outer loop
vertex 6.611264763085138 -2.8171695375725343 30
vertex 6.705904774487396 -3.1703708685546585 30
vertex 5.3171695375725365 -3.3532013309821247 30
endloop
endfacet
facet normal 0 0 -1
outer loop
vertex 6.611264763085138 -2.8171695375725343 30
vertex 5.3171695375725365 -3.3532013309821247 30
vertex 4.875777755565204 -2.5886883385020587 30
endloop
endfacet
facet normal 0 0 -1
outer loop
vertex 5.5 -3.6698729810778055 30
vertex 5.3171695375725365 -3.3532013309821247 30
vertex 6.705904774487385 -3.17037086855466 30
endloop
endfacet
facet normal -0.3826834323650901 0.9238795325112866 0
outer loop
vertex 4.000000000000002 -1.0717967697244903 35
vertex 5.929447639179833 -0.2725933896874535 35
vertex 5.929447639179833 -0.2725933896874535 30
endloop
endfacet
facet normal -0.3826834323650901 0.9238795325112866 0
outer loop
vertex 4.000000000000002 -1.0717967697244903 35
vertex 5.929447639179833 -0.2725933896874535 30
vertex 4.000000000000002 -1.0717967697244903 30
endloop
endfacet
facet normal 0 0 1
outer loop
vertex 5.929447639179833 -0.2725933896874535 35
vertex 4.000000000000002 -1.0717967697244903 35
vertex 8 -8 35
endloop
endfacet
facet normal 0 0 -1
outer loop
vertex 2.440906313848838 -2.2681314318958767 30
vertex 4.000000000000002 -1.0717967697244903 30
vertex 4.875777755565204 -2.5886883385020596 30
endloop
endfacet
facet normal 0 0 -1
outer loop
vertex 2.3431457505076203 -2.3431457505076194 30
vertex 2.440906313848838 -2.2681314318958767 30
vertex 4.875777755565204 -2.5886883385020596 30
endloop
endfacet
facet normal 0 0 -1
outer loop
vertex 2.3431457505076203 -2.3431457505076194 30
vertex 4.875777755565204 -2.5886883385020596 30
vertex 5.317169537572536 -3.3532013309821243 30
endloop
endfacet
facet normal 0 0 -1
outer loop
vertex 2.3431457505076203 -2.3431457505076194 30
vertex 5.317169537572536 -3.3532013309821243 30
vertex 3.5816825300526007 -3.5816825300526 30
endloop
endfacet
facet normal 0 0 -1
outer loop
vertex 5.317169537572536 -3.3532013309821243 30
vertex 5.5 -3.669872981077805 30
vertex 4.205904774487396 -4.205904774487395 30
endloop
endfacet
facet normal 0 0 -1
outer loop
vertex 5.317169537572536 -3.3532013309821243 30
vertex 4.205904774487396 -4.205904774487395 30
vertex 3.5816825300526007 -3.5816825300526 30
endloop
endfacet
facet normal 0 0 -1
outer loop
vertex 5.5 -3.669872981077805 30
vertex 4.464466094067262 -4.4644660940672605 30
vertex 4.205904774487396 -4.205904774487395 30
endloop
endfacet
facet normal -0.6087614290087204 0.7933533402912354 0
outer loop
vertex 2.3431457505076203 -2.3431457505076194 35
vertex 4.000000000000002 -1.0717967697244903 35
vertex 4.000000000000002 -1.0717967697244903 30
endloop
endfacet
facet normal -0.6087614290087204 0.7933533402912354 0
outer loop
vertex 2.3431457505076203 -2.3431457505076194 35
vertex 4.000000000000002 -1.0717967697244903 30
vertex 2.3431457505076203 -2.3431457505076194 30
endloop
endfacet
facet normal 0 0 1
outer loop
vertex 4.000000000000002 -1.0717967697244903 35
vertex 2.3431457505076203 -2.3431457505076194 35
vertex 8 -8 35
endloop
endfacet
facet normal 0 0 -1
outer loop
vertex 1.1468110883362335 -3.9022394366587823 30
vertex 2.3431457505076203 -2.3431457505076194 30
vertex 3.5816825300526003 -3.5816825300526 30
endloop
endfacet
facet normal 0 0 -1
outer loop
vertex 1.0717967697244903 -4 30
vertex 1.1468110883362335 -3.9022394366587823 30
vertex 3.5816825300526003 -3.5816825300526 30
endloop
endfacet
facet normal 0 0 -1
outer loop
vertex 1.0717967697244903 -4 30
vertex 3.5816825300526003 -3.5816825300526 30
vertex 4.205904774487395 -4.205904774487395 30
endloop
endfacet
facet normal 0 0 -1
outer loop
vertex 1.0717967697244903 -4 30
vertex 4.205904774487395 -4.205904774487395 30
vertex 2.5886883385020605 -4.8757777555652035 30
endloop
endfacet
facet normal 0 0 -1
outer loop
vertex 4.205904774487395 -4.205904774487395 30
vertex 4.464466094067262 -4.464466094067262 30
vertex 3.353201330982124 -5.317169537572534 30
endloop
endfacet
facet normal 0 0 -1
outer loop
vertex 4.205904774487395 -4.205904774487395 30
vertex 3.353201330982124 -5.317169537572534 30
vertex 2.5886883385020605 -4.8757777555652035 30
endloop
endfacet
facet normal 0 0 -1
outer loop
vertex 4.464466094067262 -4.464466094067262 30
vertex 3.6698729810778072 -5.5 30
vertex 3.353201330982124 -5.317169537572534 30
endloop
endfacet
facet normal -0.7933533402912349 0.6087614290087209 0
outer loop
vertex 1.0717967697244903 -4 35
vertex 2.3431457505076203 -2.3431457505076194 35
vertex 2.3431457505076203 -2.3431457505076194 30
endloop
endfacet
facet normal -0.7933533402912349 0.6087614290087209 0
outer loop
vertex 1.0717967697244903 -4 35
vertex 2.3431457505076203 -2.3431457505076194 30
vertex 1.0717967697244903 -4 30
endloop
endfacet
facet normal 0 0 1
outer loop
vertex 2.3431457505076203 -2.3431457505076194 35
vertex 1.0717967697244903 -4 35
vertex 8 -8 35
endloop
endfacet
facet normal 0 0 -1
outer loop
vertex 0.31974936172335333 -5.815603051943879 30
vertex 1.0717967697244903 -4 30
vertex 2.5886883385020596 -4.8757777555652035 30
endloop
endfacet
facet normal 0 0 -1
outer loop
vertex 0.2725933896874544 -5.929447639179832 30
vertex 0.31974936172335333 -5.815603051943879 30
vertex 2.5886883385020596 -4.8757777555652035 30
endloop
endfacet
facet normal 0 0 -1
outer loop
vertex 0.2725933896874544 -5.929447639179832 30
vertex 2.5886883385020596 -4.8757777555652035 30
vertex 3.3532013309821243 -5.317169537572535 30
endloop
endfacet
facet normal 0 0 -1
outer loop
vertex 0.2725933896874544 -5.929447639179832 30
vertex 3.3532013309821243 -5.317169537572535 30
vertex 1.9644660940672631 -6.382783564014662 30
endloop
endfacet
facet normal 0 0 -1
outer loop
vertex 3.3532013309821243 -5.317169537572535 30
vertex 3.6698729810778072 -5.5 30
vertex 2.8171695375725365 -6.611264763085138 30
endloop
endfacet
facet normal 0 0 -1
outer loop
vertex 3.3532013309821243 -5.317169537572535 30
vertex 2.8171695375725365 -6.611264763085138 30
vertex 1.9644660940672631 -6.382783564014662 30
endloop
endfacet
facet normal 0 0 -1
outer loop
vertex 3.1703708685546585 -6.705904774487395 30
vertex 2.8171695375725365 -6.611264763085138 30
vertex 3.6698729810778046 -5.5000000000000036 30
endloop
endfacet
facet normal -0.9238795325112868 0.3826834323650896 0
outer loop
vertex 0.2725933896874544 -5.929447639179832 35
vertex 1.0717967697244903 -4 35
vertex 1.0717967697244903 -4 30
endloop
endfacet
facet normal -0.9238795325112868 0.3826834323650896 0
outer loop
vertex 0.2725933896874544 -5.929447639179832 35
vertex 1.0717967697244903 -4 30
vertex 0.2725933896874544 -5.929447639179832 30
endloop
endfacet
facet normal 0 0 1
outer loop
vertex 1.0717967697244903 -4 35
vertex 0.2725933896874544 -5.929447639179832 35
vertex 8 -8 35
endloop
endfacet
facet normal 0 0 -1
outer loop
vertex 0.01608402389473994 -7.877829709352359 30
vertex 0.2725933896874544 -5.929447639179832 30
vertex 1.9644660940672642 -6.382783564014662 30
endloop
endfacet
facet normal 0 0 -1
outer loop
vertex 0 -7.999999999999999 30
vertex 0.01608402389473994 -7.877829709352359 30
vertex 1.9644660940672642 -6.382783564014662 30
endloop
endfacet
facet normal 0 0 -1
outer loop
vertex 0 -7.999999999999999 30
vertex 1.9644660940672642 -6.382783564014662 30
vertex 2.8171695375725356 -6.6112647630851376 30
endloop
endfacet
facet normal 0 0 -1
outer loop
vertex 0 -7.999999999999999 30
vertex 2.8171695375725356 -6.6112647630851376 30
vertex 1.751555511130408 -7.999999999999999 30
endloop
endfacet
facet normal 0 0 -1
outer loop
vertex 2.8171695375725356 -6.6112647630851376 30
vertex 3.170370868554658 -6.705904774487395 30
vertex 2.6343390751450713 -7.999999999999999 30
endloop
endfacet
facet normal 0 0 -1
outer loop
vertex 2.8171695375725356 -6.6112647630851376 30
vertex 2.6343390751450713 -7.999999999999999 30
vertex 1.751555511130408 -7.999999999999999 30
endloop
endfacet
facet normal 0 0 -1
outer loop
vertex 3.170370868554658 -6.705904774487395 30
vertex 3 -7.999999999999999 30
vertex 2.6343390751450713 -7.999999999999999 30
endloop
endfacet
facet normal -0.9914448613738104 0.13052619222005193 0
outer loop
vertex 0 -7.999999999999999 35
vertex 0.2725933896874544 -5.929447639179832 35
vertex 0.2725933896874544 -5.929447639179832 30
endloop
endfacet
facet normal -0.9914448613738104 0.13052619222005193 0
outer loop
vertex 0 -7.999999999999999 35
vertex 0.2725933896874544 -5.929447639179832 30
vertex 0 -7.999999999999999 30
endloop
endfacet
facet normal 0 0 1
outer loop
vertex 0.2725933896874544 -5.929447639179832 35
vertex 0 -7.999999999999999 35
vertex 8 -8 35
endloop
endfacet
facet normal 0 0 -1
outer loop
vertex 0.2565093657927128 -9.948382070172523 30
vertex 0 -7.999999999999999 30
vertex 1.7515555111304069 -7.999999999999999 30
endloop
endfacet
facet normal 0 0 -1
outer loop
vertex 0.2725933896874526 -10.070552360820162 30
vertex 0.2565093657927128 -9.948382070172523 30
vertex 1.7515555111304069 -7.999999999999999 30
endloop
endfacet
facet normal 0 0 -1
outer loop
vertex 0.2725933896874526 -10.070552360820162 30
vertex 1.7515555111304069 -7.999999999999999 30
vertex 2.634339075145071 -7.999999999999999 30
endloop
endfacet
facet normal 0 0 -1
outer loop
vertex 0.2725933896874526 -10.070552360820162 30
vertex 2.634339075145071 -7.999999999999999 30
vertex 1.9644660940672676 -9.617216435985332 30
endloop
endfacet
facet normal 0 0 -1
outer loop
vertex 2.634339075145071 -7.999999999999999 30
vertex 2.999999999999999 -7.999999999999999 30
vertex 2.817169537572533 -9.38873523691486 30
endloop
endfacet
facet normal 0 0 -1
outer loop
vertex 2.634339075145071 -7.999999999999999 30
vertex 2.817169537572533 -9.38873523691486 30
vertex 1.9644660940672676 -9.617216435985332 30
endloop
endfacet
facet normal 0 0 -1
outer loop
vertex 3.170370868554656 -9.294095225512603 30
vertex 2.817169537572533 -9.38873523691486 30
vertex 2.999999999999999 -7.999999999999999 30
endloop
endfacet
facet normal -0.9914448613738105 -0.13052619222005124 0
outer loop
vertex 0.2725933896874526 -10.070552360820162 35
vertex 0 -7.999999999999999 35
vertex 0 -7.999999999999999 30
endloop
endfacet
facet normal -0.9914448613738105 -0.13052619222005124 0
outer loop
vertex 0.2725933896874526 -10.070552360820162 35
vertex 0 -7.999999999999999 30
vertex 0.2725933896874526 -10.070552360820162 30
endloop
endfacet
facet normal 0 0 1
outer loop
vertex 0 -7.999999999999999 35
vertex 0.2725933896874526 -10.070552360820162 35
vertex 8 -8 35
endloop
endfacet
facet normal 0 0 -1
outer loop
vertex 1.0246407976885923 -11.886155412764046 30
vertex 0.2725933896874526 -10.070552360820162 30
vertex 1.9644660940672662 -9.617216435985332 30
endloop
endfacet
facet normal 0 0 -1
outer loop
vertex 1.0717967697244912 -12 30
vertex 1.0246407976885923 -11.886155412764046 30
vertex 1.9644660940672662 -9.617216435985332 30
endloop
endfacet
facet normal 0 0 -1
outer loop
vertex 1.0717967697244912 -12 30
vertex 1.9644660940672662 -9.617216435985332 30
vertex 2.817169537572533 -9.38873523691486 30
endloop
endfacet
facet normal 0 0 -1
outer loop
vertex 1.0717967697244912 -12 30
vertex 2.817169537572533 -9.38873523691486 30
vertex 2.588688338502056 -11.1242222444348 30
endloop
endfacet
facet normal 0 0 -1
outer loop
vertex 2.817169537572533 -9.38873523691486 30
vertex 3.1703708685546563 -9.294095225512603 30
vertex 3.3532013309821203 -10.682830462427468 30
endloop
endfacet
facet normal 0 0 -1
outer loop
vertex 2.817169537572533 -9.38873523691486 30
vertex 3.3532013309821203 -10.682830462427468 30
vertex 2.588688338502056 -11.1242222444348 30
endloop
endfacet
facet normal 0 0 -1
outer loop
vertex 3.1703708685546563 -9.294095225512603 30
vertex 3.6698729810778055 -10.5 30
vertex 3.3532013309821203 -10.682830462427468 30
endloop
endfacet
facet normal -0.9238795325112868 -0.3826834323650897 0
outer loop
vertex 1.0717967697244912 -12 35
vertex 0.2725933896874526 -10.070552360820162 35
vertex 0.2725933896874526 -10.070552360820162 30
endloop
endfacet
facet normal -0.9238795325112868 -0.3826834323650897 0
outer loop
vertex 1.0717967697244912 -12 35
vertex 0.2725933896874526 -10.070552360820162 30
vertex 1.0717967697244912 -12 30
endloop
endfacet
facet normal 0 0 1
outer loop
vertex 0.2725933896874526 -10.070552360820162 35
vertex 1.0717967697244912 -12 35
vertex 8 -8 35
endloop
endfacet
facet normal 0 0 -1
outer loop
vertex 2.268131431895872 -13.559093686151156 30
vertex 1.0717967697244912 -12 30
vertex 2.588688338502056 -11.1242222444348 30
endloop
endfacet
facet normal 0 0 -1
outer loop
vertex 2.3431457505076185 -13.65685424949238 30
vertex 2.268131431895872 -13.559093686151156 30
vertex 2.588688338502056 -11.1242222444348 30
endloop
endfacet
facet normal 0 0 -1
outer loop
vertex 2.3431457505076185 -13.65685424949238 30
vertex 2.588688338502056 -11.1242222444348 30
vertex 3.353201330982121 -10.682830462427468 30
endloop
endfacet
facet normal 0 0 -1
outer loop
vertex 2.3431457505076185 -13.65685424949238 30
vertex 3.353201330982121 -10.682830462427468 30
vertex 3.5816825300525936 -12.418317469947404 30
endloop
endfacet
facet normal 0 0 -1
outer loop
vertex 3.353201330982121 -10.682830462427468 30
vertex 3.669872981077806 -10.500000000000002 30
vertex 4.2059047744873945 -11.794095225512603 30
endloop
endfacet
facet normal 0 0 -1
outer loop
vertex 3.353201330982121 -10.682830462427468 30
vertex 4.2059047744873945 -11.794095225512603 30
vertex 3.5816825300525936 -12.418317469947404 30
endloop
endfacet
facet normal 0 0 -1
outer loop
vertex 3.669872981077806 -10.500000000000002 30
vertex 4.464466094067259 -11.53553390593274 30
vertex 4.2059047744873945 -11.794095225512603 30
endloop
endfacet
facet normal -0.7933533402912354 -0.6087614290087204 0
outer loop
vertex 2.3431457505076185 -13.65685424949238 35
vertex 1.0717967697244912 -12 35
vertex 1.0717967697244912 -12 30
endloop
endfacet
facet normal -0.7933533402912354 -0.6087614290087204 0
outer loop
vertex 2.3431457505076185 -13.65685424949238 35
vertex 1.0717967697244912 -12 30
vertex 2.3431457505076185 -13.65685424949238 30
endloop
endfacet
facet normal 0 0 1
outer loop
vertex 1.0717967697244912 -12 35
vertex 2.3431457505076185 -13.65685424949238 35
vertex 8 -8 35
endloop
endfacet
facet normal 0 0 -1
outer loop
vertex 3.9022394366587743 -14.85318891166376 30
vertex 2.3431457505076185 -13.65685424949238 30
vertex 3.5816825300525945 -12.418317469947404 30
endloop
endfacet
facet normal 0 0 -1
outer loop
vertex 3.9999999999999964 -14.928203230275507 30
vertex 3.9022394366587743 -14.85318891166376 30
vertex 3.5816825300525945 -12.418317469947404 30
endloop
endfacet
facet normal 0 0 -1
outer loop
vertex 3.9999999999999964 -14.928203230275507 30
vertex 3.5816825300525945 -12.418317469947404 30
vertex 4.205904774487395 -11.794095225512603 30
endloop
endfacet
facet normal 0 0 -1
outer loop
vertex 3.9999999999999964 -14.928203230275507 30
vertex 4.205904774487395 -11.794095225512603 30
vertex 4.875777755565201 -13.411311661497937 30
endloop
endfacet
facet normal 0 0 -1
outer loop
vertex 4.205904774487395 -11.794095225512603 30
vertex 4.464466094067259 -11.53553390593274 30
vertex 5.317169537572529 -12.64679866901788 30
endloop
endfacet
facet normal 0 0 -1
outer loop
vertex 4.205904774487395 -11.794095225512603 30
vertex 5.317169537572529 -12.64679866901788 30
vertex 4.875777755565201 -13.411311661497937 30
endloop
endfacet
facet normal 0 0 -1
outer loop
vertex 4.464466094067259 -11.53553390593274 30
vertex 5.499999999999999 -12.330127018922191 30
vertex 5.317169537572529 -12.64679866901788 30
endloop
endfacet
facet normal -0.6087614290087212 -0.7933533402912347 0
outer loop
vertex 3.9999999999999964 -14.928203230275507 35
vertex 2.3431457505076185 -13.65685424949238 35
vertex 2.3431457505076185 -13.65685424949238 30
endloop
endfacet
facet normal -0.6087614290087212 -0.7933533402912347 0
outer loop
vertex 3.9999999999999964 -14.928203230275507 35
vertex 2.3431457505076185 -13.65685424949238 30
vertex 3.9999999999999964 -14.928203230275507 30
endloop
endfacet
facet normal 0 0 1
outer loop
vertex 2.3431457505076185 -13.65685424949238 35
vertex 3.9999999999999964 -14.928203230275507 35
vertex 8 -8 35
endloop
endfacet
facet normal 0 0 -1
outer loop
vertex 5.815603051943874 -15.680250638276643 30
vertex 3.9999999999999964 -14.928203230275507 30
vertex 4.875777755565201 -13.411311661497939 30
endloop
endfacet
facet normal 0 0 -1
outer loop
vertex 5.929447639179835 -15.727406610312546 30
vertex 5.815603051943874 -15.680250638276643 30
vertex 4.875777755565201 -13.411311661497939 30
endloop
endfacet
facet normal 0 0 -1
outer loop
vertex 5.929447639179835 -15.727406610312546 30
vertex 4.875777755565201 -13.411311661497939 30
vertex 5.317169537572529 -12.64679866901788 30
endloop
endfacet
facet normal 0 0 -1
outer loop
vertex 5.929447639179835 -15.727406610312546 30
vertex 5.317169537572529 -12.64679866901788 30
vertex 6.382783564014661 -14.035533905932748 30
endloop
endfacet
facet normal 0 0 -1
outer loop
vertex 5.317169537572529 -12.64679866901788 30
vertex 5.499999999999999 -12.33012701892219 30
vertex 6.611264763085139 -13.18283046242746 30
endloop
endfacet
facet normal 0 0 -1
outer loop
vertex 5.317169537572529 -12.64679866901788 30
vertex 6.611264763085139 -13.18283046242746 30
vertex 6.382783564014661 -14.035533905932748 30
endloop
endfacet
facet normal 0 0 -1
outer loop
vertex 6.705904774487394 -12.829629131445348 30
vertex 6.611264763085139 -13.18283046242746 30
vertex 5.500000000000024 -12.330127018922209 30
endloop
endfacet
facet normal -0.3826834323650896 -0.923879532511287 0
outer loop
vertex 5.929447639179835 -15.727406610312546 35
vertex 3.9999999999999964 -14.928203230275507 35
vertex 3.9999999999999964 -14.928203230275507 30
endloop
endfacet
facet normal -0.3826834323650896 -0.923879532511287 0
outer loop
vertex 5.929447639179835 -15.727406610312546 35
vertex 3.9999999999999964 -14.928203230275507 30
vertex 5.929447639179835 -15.727406610312546 30
endloop
endfacet
facet normal 0 0 1
outer loop
vertex 3.9999999999999964 -14.928203230275507 35
vertex 5.929447639179835 -15.727406610312546 35
vertex 8 -8 35
endloop
endfacet
facet normal 0 0 -1
outer loop
vertex 7.87782970935234 -15.983915976105257 30
vertex 5.929447639179835 -15.727406610312546 30
vertex 6.382783564014661 -14.035533905932748 30
endloop
endfacet
facet normal 0 0 -1
outer loop
vertex 7.999999999999998 -16 30
vertex 7.87782970935234 -15.983915976105257 30
vertex 6.382783564014661 -14.035533905932748 30
endloop
endfacet
facet normal 0 0 -1
outer loop
vertex 7.999999999999998 -16 30
vertex 6.382783564014661 -14.035533905932748 30
vertex 6.611264763085139 -13.18283046242746 30
endloop
endfacet
facet normal 0 0 -1
outer loop
vertex 7.999999999999998 -16 30
vertex 6.611264763085139 -13.18283046242746 30
vertex 7.999999999999998 -14.248444488869586 30
endloop
endfacet
facet normal 0 0 -1
outer loop
vertex 6.611264763085139 -13.18283046242746 30
vertex 6.7059047744873945 -12.829629131445348 30
vertex 7.999999999999998 -13.36566092485494 30
endloop
endfacet
facet normal 0 0 -1
outer loop
vertex 6.611264763085139 -13.18283046242746 30
vertex 7.999999999999998 -13.36566092485494 30
vertex 7.999999999999998 -14.248444488869586 30
endloop
endfacet
facet normal 0 0 -1
outer loop
vertex 6.7059047744873945 -12.829629131445348 30
vertex 7.999999999999998 -13.000000000000004 30
vertex 7.999999999999998 -13.36566092485494 30
endloop
endfacet
facet normal -0.1305261922200529 -0.9914448613738103 0
outer loop
vertex 7.999999999999998 -16 35
vertex 5.929447639179835 -15.727406610312546 35
vertex 5.929447639179835 -15.727406610312546 30
endloop
endfacet
facet normal -0.1305261922200529 -0.9914448613738103 0
outer loop
vertex 7.999999999999998 -16 35
vertex 5.929447639179835 -15.727406610312546 30
vertex 7.999999999999998 -16 30
endloop
endfacet
facet normal 0 0 1
outer loop
vertex 5.929447639179835 -15.727406610312546 35
vertex 7.999999999999998 -16 35
vertex 8 -8 35
endloop
endfacet
facet normal 0 0 -1
outer loop
vertex 9.948382070172535 -15.743490634207285 30
vertex 7.999999999999998 -16 30
vertex 7.999999999999998 -14.248444488869586 30
endloop
endfacet
facet normal 0 0 -1
outer loop
vertex 10.070552360820162 -15.727406610312547 30
vertex 9.948382070172535 -15.743490634207285 30
vertex 7.999999999999998 -14.248444488869586 30
endloop
endfacet
facet normal 0 0 -1
outer loop
vertex 10.070552360820162 -15.727406610312547 30
vertex 7.999999999999998 -14.248444488869586 30
vertex 7.999999999999998 -13.36566092485494 30
endloop
endfacet
facet normal 0 0 -1
outer loop
vertex 10.070552360820162 -15.727406610312547 30
vertex 7.999999999999998 -13.36566092485494 30
vertex 9.617216435985338 -14.03553390593275 30
endloop
endfacet
facet normal 0 0 -1
outer loop
vertex 7.999999999999998 -13.36566092485494 30
vertex 7.999999999999998 -13.000000000000004 30
vertex 9.388735236914862 -13.182830462427471 30
endloop
endfacet
facet normal 0 0 -1
outer loop
vertex 7.999999999999998 -13.36566092485494 30
vertex 9.388735236914862 -13.182830462427471 30
vertex 9.617216435985338 -14.03553390593275 30
endloop
endfacet
facet normal 0 0 -1
outer loop
vertex 7.999999999999998 -13.000000000000004 30
vertex 9.294095225512603 -12.829629131445344 30
vertex 9.388735236914862 -13.182830462427471 30
endloop
endfacet
facet normal 0.13052619222005288 -0.9914448613738103 0
outer loop
vertex 10.070552360820162 -15.727406610312547 35
vertex 7.999999999999998 -16 35
vertex 7.999999999999998 -16 30
endloop
endfacet
facet normal 0.13052619222005288 -0.9914448613738103 0
outer loop
vertex 10.070552360820162 -15.727406610312547 35
vertex 7.999999999999998 -16 30
vertex 10.070552360820162 -15.727406610312547 30
endloop
endfacet
facet normal 0 0 1
outer loop
vertex 7.999999999999998 -16 35
vertex 10.070552360820162 -15.727406610312547 35
vertex 8 -8 35
endloop
endfacet
facet normal 0 0 -1
outer loop
vertex 11.886155412764019 -14.975359202311418 30
vertex 10.070552360820162 -15.727406610312547 30
vertex 9.617216435985338 -14.035533905932752 30
endloop
endfacet
facet normal 0 0 -1
outer loop
vertex 12 -14.928203230275509 30
vertex 11.886155412764019 -14.975359202311418 30
vertex 9.617216435985338 -14.035533905932752 30
endloop
endfacet
facet normal 0 0 -1
outer loop
vertex 12 -14.928203230275509 30
vertex 9.617216435985338 -14.035533905932752 30
vertex 9.388735236914862 -13.182830462427471 30
endloop
endfacet
facet normal 0 0 -1
outer loop
vertex 12 -14.928203230275509 30
vertex 9.388735236914862 -13.182830462427471 30
vertex 11.124222244434801 -13.411311661497948 30
endloop
endfacet
facet normal 0 0 -1
outer loop
vertex 9.388735236914862 -13.182830462427471 30
vertex 9.294095225512603 -12.829629131445344 30
vertex 10.682830462427468 -12.64679866901788 30
endloop
endfacet
facet normal 0 0 -1
outer loop
vertex 9.388735236914862 -13.182830462427471 30
vertex 10.682830462427468 -12.64679866901788 30
vertex 11.124222244434801 -13.411311661497948 30
endloop
endfacet
facet normal 0 0 -1
outer loop
vertex 9.294095225512603 -12.829629131445344 30
vertex 10.5 -12.330127018922195 30
vertex 10.682830462427468 -12.64679866901788 30
endloop
endfacet
facet normal 0.38268343236509106 -0.9238795325112862 0
outer loop
vertex 12 -14.928203230275509 35
vertex 10.070552360820162 -15.727406610312547 35
vertex 10.070552360820162 -15.727406610312547 30
endloop
endfacet
facet normal 0.38268343236509106 -0.9238795325112862 0
outer loop
vertex 12 -14.928203230275509 35
vertex 10.070552360820162 -15.727406610312547 30
vertex 12 -14.928203230275509 30
endloop
endfacet
facet normal 0 0 1
outer loop
vertex 10.070552360820162 -15.727406610312547 35
vertex 12 -14.928203230275509 35
vertex 8 -8 35
endloop
endfacet
facet normal 0 0 -1
outer loop
vertex 13.55909368615115 -13.731868568104133 30
vertex 12 -14.928203230275509 30
vertex 11.124222244434803 -13.41131166149795 30
endloop
endfacet
facet normal 0 0 -1
outer loop
vertex 13.65685424949238 -13.656854249492381 30
vertex 13.55909368615115 -13.731868568104133 30
vertex 11.124222244434803 -13.41131166149795 30
endloop
endfacet
facet normal 0 0 -1
outer loop
vertex 13.65685424949238 -13.656854249492381 30
vertex 11.124222244434803 -13.41131166149795 30
vertex 10.682830462427466 -12.646798669017878 30
endloop
endfacet
facet normal 0 0 -1
outer loop
vertex 13.65685424949238 -13.656854249492381 30
vertex 10.682830462427466 -12.646798669017878 30
vertex 12.418317469947404 -12.418317469947404 30
endloop
endfacet
facet normal 0 0 -1
outer loop
vertex 10.682830462427466 -12.646798669017878 30
vertex 10.500000000000002 -12.330127018922196 30
vertex 11.794095225512606 -11.794095225512606 30
endloop
endfacet
facet normal 0 0 -1
outer loop
vertex 10.682830462427466 -12.646798669017878 30
vertex 11.794095225512606 -11.794095225512606 30
vertex 12.418317469947404 -12.418317469947404 30
endloop
endfacet
facet normal 0 0 -1
outer loop
vertex 10.500000000000002 -12.330127018922196 30
vertex 11.53553390593274 -11.53553390593274 30
vertex 11.794095225512606 -11.794095225512606 30
endloop
endfacet
facet normal 0.6087614290087201 -0.7933533402912356 0
outer loop
vertex 13.65685424949238 -13.656854249492381 35
vertex 12 -14.928203230275509 35
vertex 12 -14.928203230275509 30
endloop
endfacet
facet normal 0.6087614290087201 -0.7933533402912356 0
outer loop
vertex 13.65685424949238 -13.656854249492381 35
vertex 12 -14.928203230275509 30
vertex 13.65685424949238 -13.656854249492381 30
endloop
endfacet
facet normal 0 0 1
outer loop
vertex 12 -14.928203230275509 35
vertex 13.65685424949238 -13.656854249492381 35
vertex 8 -8 35
endloop
endfacet
facet normal 0 0 -1
outer loop
vertex 14.928203230275507 -12.000000000000004 30
vertex 13.731868568104133 -13.55909368615115 30
vertex 13.41131166149795 -11.124222244434806 30
endloop
endfacet
facet normal 0 0 -1
outer loop
vertex 13.731868568104133 -13.55909368615115 30
vertex 13.65685424949238 -13.656854249492381 30
vertex 12.418317469947402 -12.418317469947404 30
endloop
endfacet
facet normal 0 0 -1
outer loop
vertex 13.731868568104133 -13.55909368615115 30
vertex 12.418317469947402 -12.418317469947404 30
vertex 13.561862178478982 -12.267766952966372 30
endloop
endfacet
facet normal 0 0 -1
outer loop
vertex 12.418317469947402 -12.418317469947404 30
vertex 11.794095225512605 -11.794095225512606 30
vertex 13.41131166149794 -11.124222244434801 30
endloop
endfacet
facet normal 0 0 -1
outer loop
vertex 12.418317469947402 -12.418317469947404 30
vertex 13.41131166149794 -11.124222244434801 30
vertex 13.561862178478982 -12.267766952966372 30
endloop
endfacet
facet normal 0 0 -1
outer loop
vertex 11.794095225512605 -11.794095225512606 30
vertex 11.53553390593274 -11.535533905932741 30
vertex 12.646798669017876 -10.68283046242747 30
endloop
endfacet
facet normal 0 0 -1
outer loop
vertex 11.794095225512605 -11.794095225512606 30
vertex 12.646798669017876 -10.68283046242747 30
vertex 13.41131166149794 -11.124222244434801 30
endloop
endfacet
facet normal 0 0 -1
outer loop
vertex 11.53553390593274 -11.535533905932741 30
vertex 12.330127018922191 -10.500000000000004 30
vertex 12.646798669017876 -10.68283046242747 30
endloop
endfacet
facet normal 0.7933533402912347 -0.6087614290087212 0
outer loop
vertex 14.928203230275507 -12.000000000000004 35
vertex 13.65685424949238 -13.656854249492381 35
vertex 13.65685424949238 -13.656854249492381 30
endloop
endfacet
facet normal 0.7933533402912347 -0.6087614290087212 0
outer loop
vertex 14.928203230275507 -12.000000000000004 35
vertex 13.65685424949238 -13.656854249492381 30
vertex 14.928203230275507 -12.000000000000004 30
endloop
endfacet
facet normal 0 0 1
outer loop
vertex 13.65685424949238 -13.656854249492381 35
vertex 14.928203230275507 -12.000000000000004 35
vertex 8 -8 35
endloop
endfacet
facet normal 0 0 -1
outer loop
vertex 15.727406610312546 -10.070552360820166 30
vertex 14.928203230275507 -12.000000000000004 30
vertex 13.41131166149795 -11.124222244434806 30
endloop
endfacet
facet normal 0 0 -1
outer loop
vertex 15.727406610312546 -10.070552360820166 30
vertex 13.41131166149795 -11.124222244434806 30
vertex 13.182830462427471 -9.388735236914863 30
endloop
endfacet
facet normal 0 0 -1
outer loop
vertex 13.41131166149795 -11.124222244434806 30
vertex 12.646798669017878 -10.68283046242747 30
vertex 13.288387679126032 -10.190521899780775 30
endloop
endfacet
facet normal 0 0 -1
outer loop
vertex 12.646798669017878 -10.68283046242747 30
vertex 12.330127018922193 -10.500000000000004 30
vertex 13.182830462427463 -9.388735236914862 30
endloop
endfacet
facet normal 0 0 -1
outer loop
vertex 12.646798669017878 -10.68283046242747 30
vertex 13.182830462427463 -9.388735236914862 30
vertex 13.288387679126032 -10.190521899780775 30
endloop
endfacet
facet normal 0 0 -1
outer loop
vertex 12.330127018922193 -10.500000000000004 30
vertex 12.829629131445342 -9.294095225512605 30
vertex 13.182830462427463 -9.388735236914862 30
endloop
endfacet
facet normal 0.9238795325112862 -0.38268343236509106 0
outer loop
vertex 15.727406610312546 -10.070552360820166 35
vertex 14.928203230275507 -12.000000000000004 35
vertex 14.928203230275507 -12.000000000000004 30
endloop
endfacet
facet normal 0.9238795325112862 -0.38268343236509106 0
outer loop
vertex 15.727406610312546 -10.070552360820166 35
vertex 14.928203230275507 -12.000000000000004 30
vertex 15.727406610312546 -10.070552360820166 30
endloop
endfacet
facet normal 0 0 1
outer loop
vertex 14.928203230275507 -12.000000000000004 35
vertex 15.727406610312546 -10.070552360820166 35
vertex 8 -8 35
endloop
endfacet
facet normal 0 0 -1
outer loop
vertex 16 -8.000000000000002 30
vertex 15.727406610312546 -10.070552360820166 30
vertex 13.182830462427471 -9.388735236914863 30
endloop
endfacet
facet normal 0 0 -1
outer loop
vertex 16 -8.000000000000002 30
vertex 13.182830462427471 -9.388735236914863 30
vertex 13.000000000000004 -8.000000000000002 30
endloop
endfacet
facet normal 0 0 -1
outer loop
vertex 13.182830462427471 -9.388735236914863 30
vertex 12.829629131445342 -9.294095225512605 30
vertex 13.088190451025211 -8.669872981077797 30
endloop
endfacet
facet normal 0 0 -1
outer loop
vertex 12.829629131445342 -9.294095225512605 30
vertex 12.999999999999996 -8.000000000000002 30
vertex 13.088190451025211 -8.669872981077797 30
endloop
endfacet
facet normal 0.9914448613738103 -0.1305261922200529 0
outer loop
vertex 16 -8.000000000000002 35
vertex 15.727406610312546 -10.070552360820166 35
vertex 15.727406610312546 -10.070552360820166 30
endloop
endfacet
facet normal 0.9914448613738103 -0.1305261922200529 0
outer loop
vertex 16 -8.000000000000002 35
vertex 15.727406610312546 -10.070552360820166 30
vertex 16 -8.000000000000002 30
endloop
endfacet
facet normal 0 0 1
outer loop
vertex 15.727406610312546 -10.070552360820166 35
vertex 16 -8.000000000000002 35
vertex 8 -8 35
endloop
endfacet
facet normal 0 0 -1
outer loop
vertex 12.82962913144534 -6.705904774487396 0
vertex 13 -8 0
vertex 8 -8 0
endloop
endfacet
facet normal 0.9914448613738103 0.1305261922200529 0
outer loop
vertex 12.82962913144534 -6.705904774487396 30
vertex 13 -8 30
vertex 13 -8 0
endloop
endfacet
facet normal 0.9914448613738103 0.1305261922200529 0
outer loop
vertex 12.82962913144534 -6.705904774487396 30
vertex 13 -8 0
vertex 12.82962913144534 -6.705904774487396 0
endloop
endfacet
facet normal 0 0 -1
outer loop
vertex 12.330127018922195 -5.5 0
vertex 12.82962913144534 -6.705904774487396 0
vertex 8 -8 0
endloop
endfacet
facet normal 0.9238795325112876 0.38268343236508795 0
outer loop
vertex 12.330127018922195 -5.5 30
vertex 12.82962913144534 -6.705904774487396 30
vertex 12.82962913144534 -6.705904774487396 0
endloop
endfacet
facet normal 0.9238795325112876 0.38268343236508795 0
outer loop
vertex 12.330127018922195 -5.5 30
vertex 12.82962913144534 -6.705904774487396 0
vertex 12.330127018922195 -5.5 0
endloop
endfacet
facet normal 0 0 -1
outer loop
vertex 11.535533905932738 -4.464466094067262 0
vertex 12.330127018922195 -5.5 0
vertex 8 -8 0
endloop
endfacet
facet normal 0.7933533402912348 0.6087614290087212 0
outer loop
vertex 11.535533905932738 -4.464466094067262 30
vertex 12.330127018922195 -5.5 30
vertex 12.330127018922195 -5.5 0
endloop
endfacet
facet normal 0.7933533402912348 0.6087614290087212 0
outer loop
vertex 11.535533905932738 -4.464466094067262 30
vertex 12.330127018922195 -5.5 0
vertex 11.535533905932738 -4.464466094067262 0
endloop
endfacet
facet normal 0 0 -1
outer loop
vertex 10.5 -3.6698729810778072 0
vertex 11.535533905932738 -4.464466094067262 0
vertex 8 -8 0
endloop
endfacet
facet normal 0.6087614290087201 0.7933533402912355 0
outer loop
vertex 10.5 -3.6698729810778072 30
vertex 11.535533905932738 -4.464466094067262 30
vertex 11.535533905932738 -4.464466094067262 0
endloop
endfacet
facet normal 0.6087614290087201 0.7933533402912355 0
outer loop
vertex 10.5 -3.6698729810778072 30
vertex 11.535533905932738 -4.464466094067262 0
vertex 10.5 -3.6698729810778072 0
endloop
endfacet
facet normal 0 0 -1
outer loop
vertex 9.294095225512603 -3.1703708685546585 0
vertex 10.5 -3.6698729810778072 0
vertex 8 -8 0
endloop
endfacet
facet normal 0.38268343236509017 0.9238795325112867 0
outer loop
vertex 9.294095225512603 -3.1703708685546585 30
vertex 10.5 -3.6698729810778072 30
vertex 10.5 -3.6698729810778072 0
endloop
endfacet
facet normal 0.38268343236509017 0.9238795325112867 0
outer loop
vertex 9.294095225512603 -3.1703708685546585 30
vertex 10.5 -3.6698729810778072 0
vertex 9.294095225512603 -3.1703708685546585 0
endloop
endfacet
facet normal 0 0 -1
outer loop
vertex 8 -3 0
vertex 9.294095225512603 -3.1703708685546585 0
vertex 8 -8 0
endloop
endfacet
facet normal 0.13052619222005157 0.9914448613738105 0
outer loop
vertex 8 -3 30
vertex 9.294095225512603 -3.1703708685546585 30
vertex 9.294095225512603 -3.1703708685546585 0
endloop
endfacet
facet normal 0.13052619222005157 0.9914448613738105 0
outer loop
vertex 8 -3 30
vertex 9.294095225512603 -3.1703708685546585 0
vertex 8 -3 0
endloop
endfacet
facet normal 0 0 -1
outer loop
vertex 6.705904774487395 -3.1703708685546585 0
vertex 8 -3 0
vertex 8 -8 0
endloop
endfacet
facet normal -0.13052619222005157 0.9914448613738105 0
outer loop
vertex 6.705904774487395 -3.1703708685546585 30
vertex 8 -3 30
vertex 8 -3 0
endloop
endfacet
facet normal -0.13052619222005157 0.9914448613738105 0
outer loop
vertex 6.705904774487395 -3.1703708685546585 30
vertex 8 -3 0
vertex 6.705904774487395 -3.1703708685546585 0
endloop
endfacet
facet normal 0 0 -1
outer loop
vertex 5.500000000000001 -3.6698729810778064 0
vertex 6.705904774487395 -3.1703708685546585 0
vertex 8 -8 0
endloop
endfacet
facet normal -0.3826834323650905 0.9238795325112865 0
outer loop
vertex 5.500000000000001 -3.6698729810778064 30
vertex 6.705904774487395 -3.1703708685546585 30
vertex 6.705904774487395 -3.1703708685546585 0
endloop
endfacet
facet normal -0.3826834323650905 0.9238795325112865 0
outer loop
vertex 5.500000000000001 -3.6698729810778064 30
vertex 6.705904774487395 -3.1703708685546585 0
vertex 5.500000000000001 -3.6698729810778064 0
endloop
endfacet
facet normal 0 0 -1
outer loop
vertex 4.464466094067262 -4.464466094067262 0
vertex 5.500000000000001 -3.6698729810778064 0
vertex 8 -8 0
endloop
endfacet
facet normal -0.6087614290087211 0.793353340291235 0
outer loop
vertex 4.464466094067262 -4.464466094067262 30
vertex 5.500000000000001 -3.6698729810778064 30
vertex 5.500000000000001 -3.6698729810778064 0
endloop
endfacet
facet normal -0.6087614290087211 0.793353340291235 0
outer loop
vertex 4.464466094067262 -4.464466094067262 30
vertex 5.500000000000001 -3.6698729810778064 0
vertex 4.464466094067262 -4.464466094067262 0
endloop
endfacet
facet normal 0 0 -1
outer loop
vertex 3.6698729810778064 -5.5 0
vertex 4.464466094067262 -4.464466094067262 0
vertex 8 -8 0
endloop
endfacet
facet normal -0.7933533402912352 0.6087614290087208 0
outer loop
vertex 3.6698729810778064 -5.5 30
vertex 4.464466094067262 -4.464466094067262 30
vertex 4.464466094067262 -4.464466094067262 0
endloop
endfacet
facet normal -0.7933533402912352 0.6087614290087208 0
outer loop
vertex 3.6698729810778064 -5.5 30
vertex 4.464466094067262 -4.464466094067262 0
vertex 3.6698729810778064 -5.5 0
endloop
endfacet
facet normal 0 0 -1
outer loop
vertex 3.1703708685546594 -6.705904774487395 0
vertex 3.6698729810778064 -5.5 0
vertex 8 -8 0
endloop
endfacet
facet normal -0.9238795325112871 0.38268343236508917 0
outer loop
vertex 3.1703708685546594 -6.705904774487395 30
vertex 3.6698729810778064 -5.5 30
vertex 3.6698729810778064 -5.5 0
endloop
endfacet
facet normal -0.9238795325112871 0.38268343236508917 0
outer loop
vertex 3.1703708685546594 -6.705904774487395 30
vertex 3.6698729810778064 -5.5 0
vertex 3.1703708685546594 -6.705904774487395 0
endloop
endfacet
facet normal 0 0 -1
outer loop
vertex 3 -7.999999999999999 0
vertex 3.1703708685546594 -6.705904774487395 0
vertex 8 -8 0
endloop
endfacet
facet normal -0.9914448613738104 0.13052619222005243 0
outer loop
vertex 3 -7.999999999999999 30
vertex 3.1703708685546594 -6.705904774487395 30
vertex 3.1703708685546594 -6.705904774487395 0
endloop
endfacet
facet normal -0.9914448613738104 0.13052619222005243 0
outer loop
vertex 3 -7.999999999999999 30
vertex 3.1703708685546594 -6.705904774487395 0
vertex 3 -7.999999999999999 0
endloop
endfacet
facet normal 0 0 -1
outer loop
vertex 3.1703708685546577 -9.294095225512603 0
vertex 3 -7.999999999999999 0
vertex 8 -8 0
endloop
endfacet
facet normal -0.9914448613738106 -0.1305261922200507 0
outer loop
vertex 3.1703708685546577 -9.294095225512603 30
vertex 3 -7.999999999999999 30
vertex 3 -7.999999999999999 0
endloop
endfacet
facet normal -0.9914448613738106 -0.1305261922200507 0
outer loop
vertex 3.1703708685546577 -9.294095225512603 30
vertex 3 -7.999999999999999 0
vertex 3.1703708685546577 -9.294095225512603 0
endloop
endfacet
facet normal 0 0 -1
outer loop
vertex 3.6698729810778072 -10.5 0
vertex 3.1703708685546577 -9.294095225512603 0
vertex 8 -8 0
endloop
endfacet
facet normal -0.9238795325112867 -0.38268343236508995 0
outer loop
vertex 3.6698729810778072 -10.5 30
vertex 3.1703708685546577 -9.294095225512603 30
vertex 3.1703708685546577 -9.294095225512603 0
endloop
endfacet
facet normal -0.9238795325112867 -0.38268343236508995 0
outer loop
vertex 3.6698729810778072 -10.5 30
vertex 3.1703708685546577 -9.294095225512603 0
vertex 3.6698729810778072 -10.5 0
endloop
endfacet
facet normal 0 0 -1
outer loop
vertex 4.464466094067261 -11.535533905932738 0
vertex 3.6698729810778072 -10.5 0
vertex 8 -8 0
endloop
endfacet
facet normal -0.793353340291236 -0.6087614290087194 0
outer loop
vertex 4.464466094067261 -11.535533905932738 30
vertex 3.6698729810778072 -10.5 30
vertex 3.6698729810778072 -10.5 0
endloop
endfacet
facet normal -0.793353340291236 -0.6087614290087194 0
outer loop
vertex 4.464466094067261 -11.535533905932738 30
vertex 3.6698729810778072 -10.5 0
vertex 4.464466094067261 -11.535533905932738 0
endloop
endfacet
facet normal 0 0 -1
outer loop
vertex 5.499999999999998 -12.330127018922191 0
vertex 4.464466094067261 -11.535533905932738 0
vertex 8 -8 0
endloop
endfacet
facet normal -0.6087614290087197 -0.7933533402912359 0
outer loop
vertex 5.499999999999998 -12.330127018922191 30
vertex 4.464466094067261 -11.535533905932738 30
vertex 4.464466094067261 -11.535533905932738 0
endloop
endfacet
facet normal -0.6087614290087197 -0.7933533402912359 0
outer loop
vertex 5.499999999999998 -12.330127018922191 30
vertex 4.464466094067261 -11.535533905932738 0
vertex 5.499999999999998 -12.330127018922191 0
endloop
endfacet
facet normal 0 0 -1
outer loop
vertex 6.705904774487397 -12.82962913144534 0
vertex 5.499999999999998 -12.330127018922191 0
vertex 8 -8 0
endloop
endfacet
facet normal -0.38268343236509106 -0.9238795325112862 0
outer loop
vertex 6.705904774487397 -12.82962913144534 30
vertex 5.499999999999998 -12.330127018922191 30
vertex 5.499999999999998 -12.330127018922191 0
endloop
endfacet
facet normal -0.38268343236509106 -0.9238795325112862 0
outer loop
vertex 6.705904774487397 -12.82962913144534 30
vertex 5.499999999999998 -12.330127018922191 0
vertex 6.705904774487397 -12.82962913144534 0
endloop
endfacet
facet normal 0 0 -1
outer loop
vertex 7.999999999999999 -13 0
vertex 6.705904774487397 -12.82962913144534 0
vertex 8 -8 0
endloop
endfacet
facet normal -0.13052619222005293 -0.9914448613738103 0
outer loop
vertex 7.999999999999999 -13 30
vertex 6.705904774487397 -12.82962913144534 30
vertex 6.705904774487397 -12.82962913144534 0
endloop
endfacet
facet normal -0.13052619222005293 -0.9914448613738103 0
outer loop
vertex 7.999999999999999 -13 30
vertex 6.705904774487397 -12.82962913144534 0
vertex 7.999999999999999 -13 0
endloop
endfacet
facet normal 0 0 -1
outer loop
vertex 9.294095225512601 -12.829629131445342 0
vertex 7.999999999999999 -13 0
vertex 8 -8 0
endloop
endfacet
facet normal 0.13052619222005118 -0.9914448613738105 0
outer loop
vertex 9.294095225512601 -12.829629131445342 30
vertex 7.999999999999999 -13 30
vertex 7.999999999999999 -13 0
endloop
endfacet
facet normal 0.13052619222005118 -0.9914448613738105 0
outer loop
vertex 9.294095225512601 -12.829629131445342 30
vertex 7.999999999999999 -13 0
vertex 9.294095225512601 -12.829629131445342 0
endloop
endfacet
facet normal 0 0 -1
outer loop
vertex 10.5 -12.330127018922193 0
vertex 9.294095225512601 -12.829629131445342 0
vertex 8 -8 0
endloop
endfacet
facet normal 0.3826834323650896 -0.923879532511287 0
outer loop
vertex 10.5 -12.330127018922193 30
vertex 9.294095225512601 -12.829629131445342 30
vertex 9.294095225512601 -12.829629131445342 0
endloop
endfacet
facet normal 0.3826834323650896 -0.923879532511287 0
outer loop
vertex 10.5 -12.330127018922193 30
vertex 9.294095225512601 -12.829629131445342 0
vertex 10.5 -12.330127018922193 0
endloop
endfacet
facet normal 0 0 -1
outer loop
vertex 11.535533905932738 -11.535533905932738 0
vertex 10.5 -12.330127018922193 0
vertex 8 -8 0
endloop
endfacet
facet normal 0.6087614290087201 -0.7933533402912357 0
outer loop
vertex 11.535533905932738 -11.535533905932738 30
vertex 10.5 -12.330127018922193 30
vertex 10.5 -12.330127018922193 0
endloop
endfacet
facet normal 0.6087614290087201 -0.7933533402912357 0
outer loop
vertex 11.535533905932738 -11.535533905932738 30
vertex 10.5 -12.330127018922193 0
vertex 11.535533905932738 -11.535533905932738 0
endloop
endfacet
facet normal 0 0 -1
outer loop
vertex 12.330127018922191 -10.500000000000002 0
vertex 11.535533905932738 -11.535533905932738 0
vertex 8 -8 0
endloop
endfacet
facet normal 0.7933533402912364 -0.6087614290087193 0
outer loop
vertex 12.330127018922191 -10.500000000000002 30
vertex 11.535533905932738 -11.535533905932738 30
vertex 11.535533905932738 -11.535533905932738 0
endloop
endfacet
facet normal 0.7933533402912364 -0.6087614290087193 0
outer loop
vertex 12.330127018922191 -10.500000000000002 30
vertex 11.535533905932738 -11.535533905932738 0
vertex 12.330127018922191 -10.500000000000002 0
endloop
endfacet
facet normal 0 0 -1
outer loop
vertex 12.82962913144534 -9.294095225512603 0
vertex 12.330127018922191 -10.500000000000002 0
vertex 8 -8 0
endloop
endfacet
facet normal 0.9238795325112867 -0.3826834323650899 0
outer loop
vertex 12.82962913144534 -9.294095225512603 30
vertex 12.330127018922191 -10.500000000000002 30
vertex 12.330127018922191 -10.500000000000002 0
endloop
endfacet
facet normal 0.9238795325112867 -0.3826834323650899 0
outer loop
vertex 12.82962913144534 -9.294095225512603 30
vertex 12.330127018922191 -10.500000000000002 0
vertex 12.82962913144534 -9.294095225512603 0
endloop
endfacet
facet normal 0 0 -1
outer loop
vertex 13 -8 0
vertex 12.82962913144534 -9.294095225512603 0
vertex 8 -8 0
endloop
endfacet
facet normal 0.9914448613738104 -0.13052619222005288 0
outer loop
vertex 13 -8 30
vertex 12.82962913144534 -9.294095225512603 30
vertex 12.82962913144534 -9.294095225512603 0
endloop
endfacet
facet normal 0.9914448613738104 -0.13052619222005288 0
outer loop
vertex 13 -8 30
vertex 12.82962913144534 -9.294095225512603 0
vertex 13 -8 0
endloop
endfacet
endsolid csg.js
