solid craftml
facet normal -1 0 0
outer loop
vertex 0 -5 0
vertex 0 -5 5
vertex 0 0 5
endloop
endfacet
facet normal -1 0 0
outer loop
vertex 0 -5 0
vertex 0 0 5
vertex 0 0 0
endloop
endfacet
facet normal 1 0 0
outer loop
vertex 5 0 5
vertex 5 -5 5
vertex 5 -5 0
endloop
endfacet
facet normal 1 0 0
outer loop
vertex 5 0 5
vertex 5 -5 0
vertex 5 0 0
endloop
endfacet
facet normal 0 1 0
outer loop
vertex 0 0 5
vertex 5 0 5
vertex 5 0 0
endloop
endfacet
facet normal 0 1 0
outer loop
vertex 0 0 5
vertex 5 0 0
vertex 0 0 0
endloop
endfacet
facet normal 0 0 -1
outer loop
vertex 5 0 0
vertex 5 -5 0
vertex 0 -5 0
endloop
endfacet
facet normal 0 0 -1
outer loop
vertex 5 0 0
vertex 0 -5 0
vertex 0 0 0
endloop
endfacet
facet normal 0 0 1
outer loop
vertex 0 -5 5
vertex 5 -5 5
vertex 5 0 5
endloop
endfacet
facet normal 0 0 1
outer loop
vertex 0 -5 5
vertex 5 0 5
vertex 0 0 5
endloop
endfacet
facet normal -1 0 0
outer loop
vertex -2.5 -15 0
vertex -2.5 -15 10
vertex -2.5 -5 10
endloop
endfacet
facet normal -1 0 0
outer loop
vertex -2.5 -15 0
vertex -2.5 -5 10
vertex -2.5 -5 0
endloop
endfacet
facet normal 1 0 0
outer loop
vertex 7.5 -5 10
vertex 7.5 -15 10
vertex 7.5 -15 0
endloop
endfacet
facet normal 1 0 0
outer loop
vertex 7.5 -5 10
vertex 7.5 -15 0
vertex 7.5 -5 0
endloop
endfacet
facet normal 0 1 0
outer loop
vertex -2.5 -5 10
vertex 0 -5 10
vertex 0 -5 0
endloop
endfacet
facet normal 0 1 0
outer loop
vertex -2.5 -5 10
vertex 0 -5 0
vertex -2.5 -5 0
endloop
endfacet
facet normal 0 1 0
outer loop
vertex 5 -5 10
vertex 7.5 -5 10
vertex 7.5 -5 0
endloop
endfacet
facet normal 0 1 0
outer loop
vertex 5 -5 10
vertex 7.5 -5 0
vertex 5 -5 0
endloop
endfacet
facet normal 0 1 0
outer loop
vertex 0 -5 10
vertex 5 -5 10
vertex 5 -5 5
endloop
endfacet
facet normal 0 1 0
outer loop
vertex 0 -5 10
vertex 5 -5 5
vertex 0 -5 5
endloop
endfacet
facet normal 0 0 -1
outer loop
vertex 7.5 -5 0
vertex 7.5 -15 0
vertex -2.5 -15 0
endloop
endfacet
facet normal 0 0 -1
outer loop
vertex 7.5 -5 0
vertex -2.5 -15 0
vertex -2.5 -5 0
endloop
endfacet
facet normal 0 0 1
outer loop
vertex -2.5 -15 10
vertex 7.5 -15 10
vertex 7.5 -5 10
endloop
endfacet
facet normal 0 0 1
outer loop
vertex -2.5 -15 10
vertex 7.5 -5 10
vertex -2.5 -5 10
endloop
endfacet
facet normal -1 0 0
outer loop
vertex -2.5 -25 0
vertex -2.5 -25 10
vertex -2.5 -15 10
endloop
endfacet
facet normal -1 0 0
outer loop
vertex -2.5 -25 0
vertex -2.5 -15 10
vertex -2.5 -15 0
endloop
endfacet
facet normal 1 0 0
outer loop
vertex 7.5 -15 10
vertex 7.5 -25 10
vertex 7.5 -25 0
endloop
endfacet
facet normal 1 0 0
outer loop
vertex 7.5 -15 10
vertex 7.5 -25 0
vertex 7.5 -15 0
endloop
endfacet
facet normal 0 -1 0
outer loop
vertex -1.5 -25 10
vertex -2.5 -25 10
vertex -2.5 -25 0
endloop
endfacet
facet normal 0 -1 0
outer loop
vertex -1.5 -25 10
vertex -2.5 -25 0
vertex -1.5 -25 0
endloop
endfacet
facet normal 0 -1 0
outer loop
vertex 7.5 -25 0
vertex 7.5 -25 10
vertex 6.5 -25 10
endloop
endfacet
facet normal 0 -1 0
outer loop
vertex 7.5 -25 0
vertex 6.5 -25 10
vertex 6.5 -25 0
endloop
endfacet
facet normal 0 -1 0
outer loop
vertex 6.5 -25 10
vertex -1.5 -25 10
vertex -1.5 -25 8
endloop
endfacet
facet normal 0 -1 0
outer loop
vertex 6.5 -25 10
vertex -1.5 -25 8
vertex 6.5 -25 8
endloop
endfacet
facet normal 0 0 -1
outer loop
vertex 7.5 -15 0
vertex 7.5 -25 0
vertex -2.5 -25 0
endloop
endfacet
facet normal 0 0 -1
outer loop
vertex 7.5 -15 0
vertex -2.5 -25 0
vertex -2.5 -15 0
endloop
endfacet
facet normal 0 0 1
outer loop
vertex -2.5 -25 10
vertex 7.5 -25 10
vertex 7.5 -15 10
endloop
endfacet
facet normal 0 0 1
outer loop
vertex -2.5 -25 10
vertex 7.5 -15 10
vertex -2.5 -15 10
endloop
endfacet
facet normal -1 0 0
outer loop
vertex -1.5 -33 0
vertex -1.5 -33 8
vertex -1.5 -25 8
endloop
endfacet
facet normal -1 0 0
outer loop
vertex -1.5 -33 0
vertex -1.5 -25 8
vertex -1.5 -25 0
endloop
endfacet
facet normal 1 0 0
outer loop
vertex 6.5 -25 8
vertex 6.5 -33 8
vertex 6.5 -33 0
endloop
endfacet
facet normal 1 0 0
outer loop
vertex 6.5 -25 8
vertex 6.5 -33 0
vertex 6.5 -25 0
endloop
endfacet
facet normal 0 -1 0
outer loop
vertex 0 -33 8
vertex -1.5 -33 8
vertex -1.5 -33 0
endloop
endfacet
facet normal 0 -1 0
outer loop
vertex 0 -33 8
vertex -1.5 -33 0
vertex 0 -33 0
endloop
endfacet
facet normal 0 -1 0
outer loop
vertex 6.5 -33 0
vertex 6.5 -33 8
vertex 5 -33 8
endloop
endfacet
facet normal 0 -1 0
outer loop
vertex 6.5 -33 0
vertex 5 -33 8
vertex 5 -33 0
endloop
endfacet
facet normal 0 -1 0
outer loop
vertex 5 -33 8
vertex 0 -33 8
vertex 0 -33 5
endloop
endfacet
facet normal 0 -1 0
outer loop
vertex 5 -33 8
vertex 0 -33 5
vertex 5 -33 5
endloop
endfacet
facet normal 0 0 -1
outer loop
vertex 6.5 -25 0
vertex 6.5 -33 0
vertex -1.5 -33 0
endloop
endfacet
facet normal 0 0 -1
outer loop
vertex 6.5 -25 0
vertex -1.5 -33 0
vertex -1.5 -25 0
endloop
endfacet
facet normal 0 0 1
outer loop
vertex -1.5 -33 8
vertex 6.5 -33 8
vertex 6.5 -25 8
endloop
endfacet
facet normal 0 0 1
outer loop
vertex -1.5 -33 8
vertex 6.5 -25 8
vertex -1.5 -25 8
endloop
endfacet
facet normal -1 0 0
outer loop
vertex 0 -38 0
vertex 0 -38 5
vertex 0 -33 5
endloop
endfacet
facet normal -1 0 0
outer loop
vertex 0 -38 0
vertex 0 -33 5
vertex 0 -33 0
endloop
endfacet
facet normal 1 0 0
outer loop
vertex 5 -33 5
vertex 5 -38 5
vertex 5 -38 0
endloop
endfacet
facet normal 1 0 0
outer loop
vertex 5 -33 5
vertex 5 -38 0
vertex 5 -33 0
endloop
endfacet
facet normal 0 0 -1
outer loop
vertex 5 -33 0
vertex 5 -38 0
vertex 0 -38 0
endloop
endfacet
facet normal 0 0 -1
outer loop
vertex 5 -33 0
vertex 0 -38 0
vertex 0 -33 0
endloop
endfacet
facet normal 0 0 1
outer loop
vertex 0 -38 5
vertex 5 -38 5
vertex 5 -33 5
endloop
endfacet
facet normal 0 0 1
outer loop
vertex 0 -38 5
vertex 5 -33 5
vertex 0 -33 5
endloop
endfacet
facet normal -1 0 0
outer loop
vertex -2.5 -48 0
vertex -2.5 -48 10
vertex -2.5 -38 10
endloop
endfacet
facet normal -1 0 0
outer loop
vertex -2.5 -48 0
vertex -2.5 -38 10
vertex -2.5 -38 0
endloop
endfacet
facet normal 1 0 0
outer loop
vertex 7.5 -38 10
vertex 7.5 -48 10
vertex 7.5 -48 0
endloop
endfacet
facet normal 1 0 0
outer loop
vertex 7.5 -38 10
vertex 7.5 -48 0
vertex 7.5 -38 0
endloop
endfacet
facet normal 0 1 0
outer loop
vertex -2.5 -38 10
vertex 0 -38 10
vertex 0 -38 0
endloop
endfacet
facet normal 0 1 0
outer loop
vertex -2.5 -38 10
vertex 0 -38 0
vertex -2.5 -38 0
endloop
endfacet
facet normal 0 1 0
outer loop
vertex 5 -38 10
vertex 7.5 -38 10
vertex 7.5 -38 0
endloop
endfacet
facet normal 0 1 0
outer loop
vertex 5 -38 10
vertex 7.5 -38 0
vertex 5 -38 0
endloop
endfacet
facet normal 0 1 0
outer loop
vertex 0 -38 10
vertex 5 -38 10
vertex 5 -38 5
endloop
endfacet
facet normal 0 1 0
outer loop
vertex 0 -38 10
vertex 5 -38 5
vertex 0 -38 5
endloop
endfacet
facet normal 0 0 -1
outer loop
vertex 7.5 -38 0
vertex 7.5 -48 0
vertex -2.5 -48 0
endloop
endfacet
facet normal 0 0 -1
outer loop
vertex 7.5 -38 0
vertex -2.5 -48 0
vertex -2.5 -38 0
endloop
endfacet
facet normal 0 0 1
outer loop
vertex -2.5 -48 10
vertex 7.5 -48 10
vertex 7.5 -38 10
endloop
endfacet
facet normal 0 0 1
outer loop
vertex -2.5 -48 10
vertex 7.5 -38 10
vertex -2.5 -38 10
endloop
endfacet
facet normal -1 0 0
outer loop
vertex -2.5 -58 0
vertex -2.5 -58 10
vertex -2.5 -48 10
endloop
endfacet
facet normal -1 0 0
outer loop
vertex -2.5 -58 0
vertex -2.5 -48 10
vertex -2.5 -48 0
endloop
endfacet
facet normal 1 0 0
outer loop
vertex 7.5 -48 10
vertex 7.5 -58 10
vertex 7.5 -58 0
endloop
endfacet
facet normal 1 0 0
outer loop
vertex 7.5 -48 10
vertex 7.5 -58 0
vertex 7.5 -48 0
endloop
endfacet
facet normal 0 -1 0
outer loop
vertex -1.5 -58 10
vertex -2.5 -58 10
vertex -2.5 -58 0
endloop
endfacet
facet normal 0 -1 0
outer loop
vertex -1.5 -58 10
vertex -2.5 -58 0
vertex -1.5 -58 0
endloop
endfacet
facet normal 0 -1 0
outer loop
vertex 7.5 -58 0
vertex 7.5 -58 10
vertex 6.5 -58 10
endloop
endfacet
facet normal 0 -1 0
outer loop
vertex 7.5 -58 0
vertex 6.5 -58 10
vertex 6.5 -58 0
endloop
endfacet
facet normal 0 -1 0
outer loop
vertex 6.5 -58 10
vertex -1.5 -58 10
vertex -1.5 -58 8
endloop
endfacet
facet normal 0 -1 0
outer loop
vertex 6.5 -58 10
vertex -1.5 -58 8
vertex 6.5 -58 8
endloop
endfacet
facet normal 0 0 -1
outer loop
vertex 7.5 -48 0
vertex 7.5 -58 0
vertex -2.5 -58 0
endloop
endfacet
facet normal 0 0 -1
outer loop
vertex 7.5 -48 0
vertex -2.5 -58 0
vertex -2.5 -48 0
endloop
endfacet
facet normal 0 0 1
outer loop
vertex -2.5 -58 10
vertex 7.5 -58 10
vertex 7.5 -48 10
endloop
endfacet
facet normal 0 0 1
outer loop
vertex -2.5 -58 10
vertex 7.5 -48 10
vertex -2.5 -48 10
endloop
endfacet
facet normal -1 0 0
outer loop
vertex -1.5 -66 0
vertex -1.5 -66 8
vertex -1.5 -58 8
endloop
endfacet
facet normal -1 0 0
outer loop
vertex -1.5 -66 0
vertex -1.5 -58 8
vertex -1.5 -58 0
endloop
endfacet
facet normal 1 0 0
outer loop
vertex 6.5 -58 8
vertex 6.5 -66 8
vertex 6.5 -66 0
endloop
endfacet
facet normal 1 0 0
outer loop
vertex 6.5 -58 8
vertex 6.5 -66 0
vertex 6.5 -58 0
endloop
endfacet
facet normal 0 -1 0
outer loop
vertex 6.5 -66 0
vertex 6.5 -66 8
vertex -1.5 -66 8
endloop
endfacet
facet normal 0 -1 0
outer loop
vertex 6.5 -66 0
vertex -1.5 -66 8
vertex -1.5 -66 0
endloop
endfacet
facet normal 0 0 -1
outer loop
vertex 6.5 -58 0
vertex 6.5 -66 0
vertex -1.5 -66 0
endloop
endfacet
facet normal 0 0 -1
outer loop
vertex 6.5 -58 0
vertex -1.5 -66 0
vertex -1.5 -58 0
endloop
endfacet
facet normal 0 0 1
outer loop
vertex -1.5 -66 8
vertex 6.5 -66 8
vertex 6.5 -58 8
endloop
endfacet
facet normal 0 0 1
outer loop
vertex -1.5 -66 8
vertex 6.5 -58 8
vertex -1.5 -58 8
endloop
endfacet
endsolid craftml
