solid csg.js
facet normal -6.123233995736766e-17 -1 -6.123233995736766e-17
outer loop
vertex 0 3.061616997868383e-16 0
vertex 10 -3.061616997868383e-16 0
vertex 5.000000000000001 -3.0616169978683836e-16 5
endloop
endfacet
facet normal 0.7071067811865474 0 0.7071067811865478
outer loop
vertex 5.000000000000001 -3.0616169978683836e-16 5
vertex 10 -3.061616997868383e-16 0
vertex 10 10 3.061616997868383e-16
endloop
endfacet
facet normal 0.7071067811865474 0 0.7071067811865478
outer loop
vertex 5.000000000000001 -3.0616169978683836e-16 5
vertex 10 10 3.061616997868383e-16
vertex 5.000000000000001 10 5.000000000000001
endloop
endfacet
facet normal 0 1 0
outer loop
vertex 8.881784197001252e-16 10 6.123233995736766e-16
vertex 5.000000000000001 10 5.000000000000001
vertex 10 10 3.061616997868383e-16
endloop
endfacet
facet normal -0.7071067811865475 0 0.7071067811865475
outer loop
vertex 0 3.061616997868383e-16 0
vertex 5.000000000000001 -3.0616169978683836e-16 5
vertex 5.000000000000001 10 5.000000000000001
endloop
endfacet
facet normal -0.7071067811865475 0 0.7071067811865475
outer loop
vertex 0 3.061616997868383e-16 0
vertex 5.000000000000001 10 5.000000000000001
vertex 8.881784197001252e-16 10 6.123233995736766e-16
endloop
endfacet
facet normal 0 0 -1
outer loop
vertex 0 3.061616997868383e-16 0
vertex 8.881784197001252e-16 10 6.123233995736766e-16
vertex 10 10 3.061616997868383e-16
endloop
endfacet
facet normal 0 0 -1
outer loop
vertex 0 3.061616997868383e-16 0
vertex 10 10 3.061616997868383e-16
vertex 10 -3.061616997868383e-16 0
endloop
endfacet
facet normal -6.123233995736766e-17 -1 -6.123233995736766e-17
outer loop
vertex 10 1.1206295978780753e-16 2.499999999999999
vertex 10 2.651438096812267e-16 0
vertex 18.660254037844386 -2.6514380968122674e-16 0
endloop
endfacet
facet normal -6.123233995736766e-17 -1 -6.123233995736766e-17
outer loop
vertex 10 1.1206295978780753e-16 2.499999999999999
vertex 18.660254037844386 -2.6514380968122674e-16 0
vertex 18.660254037844386 -4.1822465957464587e-16 2.499999999999999
endloop
endfacet
facet normal -6.123233995736766e-17 -1 -6.123233995736766e-17
outer loop
vertex 10 1.1206295978780753e-16 2.499999999999999
vertex 18.660254037844386 -4.1822465957464587e-16 2.499999999999999
vertex 14.330127018922193 -3.0616169978683836e-16 5
endloop
endfacet
facet normal 1 0 0
outer loop
vertex 18.660254037844386 -4.1822465957464587e-16 2.499999999999999
vertex 18.660254037844386 -2.6514380968122674e-16 0
vertex 18.66025403784439 10 0
endloop
endfacet
facet normal 1 0 0
outer loop
vertex 18.660254037844386 -4.1822465957464587e-16 2.499999999999999
vertex 18.66025403784439 10 0
vertex 18.66025403784439 10 2.4999999999999996
endloop
endfacet
facet normal 0 1 0
outer loop
vertex 10 10 6.123233995736766e-16
vertex 10.000000000000002 10 2.4999999999999996
vertex 14.330127018922195 10 5.000000000000001
endloop
endfacet
facet normal 0 1 0
outer loop
vertex 10 10 6.123233995736766e-16
vertex 14.330127018922195 10 5.000000000000001
vertex 18.66025403784439 10 2.4999999999999996
endloop
endfacet
facet normal 0 1 0
outer loop
vertex 10 10 6.123233995736766e-16
vertex 18.66025403784439 10 2.4999999999999996
vertex 18.66025403784439 10 0
endloop
endfacet
facet normal 0.5000000000000001 0 0.8660254037844387
outer loop
vertex 14.330127018922193 -3.0616169978683836e-16 5
vertex 18.660254037844386 -4.1822465957464587e-16 2.499999999999999
vertex 18.66025403784439 10 2.4999999999999996
endloop
endfacet
facet normal 0.5000000000000001 0 0.8660254037844387
outer loop
vertex 14.330127018922193 -3.0616169978683836e-16 5
vertex 18.66025403784439 10 2.4999999999999996
vertex 14.330127018922195 10 5.000000000000001
endloop
endfacet
facet normal -0.5000000000000006 0 0.8660254037844384
outer loop
vertex 10 1.1206295978780753e-16 2.499999999999999
vertex 14.330127018922193 -3.0616169978683836e-16 5
vertex 14.330127018922195 10 5.000000000000001
endloop
endfacet
facet normal -0.5000000000000006 0 0.8660254037844384
outer loop
vertex 10 1.1206295978780753e-16 2.499999999999999
vertex 14.330127018922195 10 5.000000000000001
vertex 10.000000000000002 10 2.4999999999999996
endloop
endfacet
facet normal -1 0 0
outer loop
vertex 10 2.651438096812267e-16 0
vertex 10 1.1206295978780753e-16 2.499999999999999
vertex 10.000000000000002 10 2.4999999999999996
endloop
endfacet
facet normal -1 0 0
outer loop
vertex 10 2.651438096812267e-16 0
vertex 10.000000000000002 10 2.4999999999999996
vertex 10 10 6.123233995736766e-16
endloop
endfacet
facet normal 0 0 -1
outer loop
vertex 18.660254037844386 -2.6514380968122674e-16 0
vertex 10 2.651438096812267e-16 0
vertex 10 10 6.123233995736766e-16
endloop
endfacet
facet normal 0 0 -1
outer loop
vertex 18.660254037844386 -2.6514380968122674e-16 0
vertex 10 10 6.123233995736766e-16
vertex 18.66025403784439 10 0
endloop
endfacet
facet normal -6.123233995736766e-17 -1 -6.123233995736766e-17
outer loop
vertex 21.721097791909404 -1.829844216150378e-16 4.84923155196477
vertex 19.101071489615556 1.1206295978780753e-16 2.6507684480352283
vertex 18.66025403784439 2.9213609374721913e-16 0.15076844803522915
endloop
endfacet
facet normal -6.123233995736766e-17 -1 -6.123233995736766e-17
outer loop
vertex 21.721097791909404 -1.829844216150378e-16 4.84923155196477
vertex 18.66025403784439 2.9213609374721913e-16 0.15076844803522915
vertex 28.202142979231102 -2.9213609374721903e-16 0.15076844803522915
endloop
endfacet
facet normal -6.123233995736766e-17 -1 -6.123233995736766e-17
outer loop
vertex 21.721097791909404 -1.829844216150378e-16 4.84923155196477
vertex 28.202142979231102 -2.9213609374721903e-16 0.15076844803522915
vertex 27.76132552745994 -4.1822465957464587e-16 2.6507684480352283
endloop
endfacet
facet normal -6.123233995736766e-17 -1 -6.123233995736766e-17
outer loop
vertex 21.721097791909404 -1.829844216150378e-16 4.84923155196477
vertex 27.76132552745994 -4.1822465957464587e-16 2.6507684480352283
vertex 25.14129922516609 -3.924113584988874e-16 4.84923155196477
endloop
endfacet
facet normal 0.9848077530122081 0 0.1736481776669301
outer loop
vertex 27.76132552745994 -4.1822465957464587e-16 2.6507684480352283
vertex 28.202142979231102 -2.9213609374721903e-16 0.15076844803522915
vertex 28.202142979231105 10 0.15076844803522915
endloop
endfacet
facet normal 0.9848077530122081 0 0.1736481776669301
outer loop
vertex 27.76132552745994 -4.1822465957464587e-16 2.6507684480352283
vertex 28.202142979231105 10 0.15076844803522915
vertex 27.76132552745994 10 2.6507684480352287
endloop
endfacet
facet normal 0 1 0
outer loop
vertex 18.660254037844393 10 0.15076844803522976
vertex 19.101071489615556 10 2.6507684480352287
vertex 21.721097791909404 10 4.849231551964772
endloop
endfacet
facet normal 0 1 0
outer loop
vertex 18.660254037844393 10 0.15076844803522976
vertex 21.721097791909404 10 4.849231551964772
vertex 25.141299225166094 10 4.849231551964772
endloop
endfacet
facet normal 0 1 0
outer loop
vertex 18.660254037844393 10 0.15076844803522976
vertex 25.141299225166094 10 4.849231551964772
vertex 27.76132552745994 10 2.6507684480352287
endloop
endfacet
facet normal 0 1 0
outer loop
vertex 18.660254037844393 10 0.15076844803522976
vertex 27.76132552745994 10 2.6507684480352287
vertex 28.202142979231105 10 0.15076844803522915
endloop
endfacet
facet normal 0.6427876096865389 0 0.7660444431189785
outer loop
vertex 25.14129922516609 -3.924113584988874e-16 4.84923155196477
vertex 27.76132552745994 -4.1822465957464587e-16 2.6507684480352283
vertex 27.76132552745994 10 2.6507684480352287
endloop
endfacet
facet normal 0.6427876096865389 0 0.7660444431189785
outer loop
vertex 25.14129922516609 -3.924113584988874e-16 4.84923155196477
vertex 27.76132552745994 10 2.6507684480352287
vertex 25.141299225166094 10 4.849231551964772
endloop
endfacet
facet normal 0 0 1
outer loop
vertex 21.721097791909404 -1.829844216150378e-16 4.84923155196477
vertex 25.14129922516609 -3.924113584988874e-16 4.84923155196477
vertex 25.141299225166094 10 4.849231551964772
endloop
endfacet
facet normal 0 0 1
outer loop
vertex 21.721097791909404 -1.829844216150378e-16 4.84923155196477
vertex 25.141299225166094 10 4.849231551964772
vertex 21.721097791909404 10 4.849231551964772
endloop
endfacet
facet normal -0.6427876096865407 0 0.7660444431189769
outer loop
vertex 19.101071489615556 1.1206295978780753e-16 2.6507684480352283
vertex 21.721097791909404 -1.829844216150378e-16 4.84923155196477
vertex 21.721097791909404 10 4.849231551964772
endloop
endfacet
facet normal -0.6427876096865407 0 0.7660444431189769
outer loop
vertex 19.101071489615556 1.1206295978780753e-16 2.6507684480352283
vertex 21.721097791909404 10 4.849231551964772
vertex 19.101071489615556 10 2.6507684480352287
endloop
endfacet
facet normal -0.9848077530122082 0 0.1736481776669301
outer loop
vertex 18.66025403784439 2.9213609374721913e-16 0.15076844803522915
vertex 19.101071489615556 1.1206295978780753e-16 2.6507684480352283
vertex 19.101071489615556 10 2.6507684480352287
endloop
endfacet
facet normal -0.9848077530122082 0 0.1736481776669301
outer loop
vertex 18.66025403784439 2.9213609374721913e-16 0.15076844803522915
vertex 19.101071489615556 10 2.6507684480352287
vertex 18.660254037844393 10 0.15076844803522976
endloop
endfacet
facet normal 0 0 -1
outer loop
vertex 28.202142979231102 -2.9213609374721903e-16 0.15076844803522915
vertex 18.66025403784439 2.9213609374721913e-16 0.15076844803522915
vertex 18.660254037844393 10 0.15076844803522976
endloop
endfacet
facet normal 0 0 -1
outer loop
vertex 28.202142979231102 -2.9213609374721903e-16 0.15076844803522915
vertex 18.660254037844393 10 0.15076844803522976
vertex 28.202142979231105 10 0.15076844803522915
endloop
endfacet
facet normal -6.123233995736757e-17 -1 -6.123233995736767e-17
outer loop
vertex 28.2021429792311 1.5005018192738018e-15 -2.4999999999999996
vertex 48.2021429792311 2.758550201264486e-16 -2.4999999999999996
vertex 38.2021429792311 2.758550201264485e-16 7.5
endloop
endfacet
facet normal 0.7071067811865485 0 0.7071067811865467
outer loop
vertex 38.2021429792311 2.758550201264485e-16 7.5
vertex 48.2021429792311 2.758550201264486e-16 -2.4999999999999996
vertex 48.2021429792311 10 -2.4999999999999996
endloop
endfacet
facet normal 0.7071067811865485 0 0.7071067811865467
outer loop
vertex 38.2021429792311 2.758550201264485e-16 7.5
vertex 48.2021429792311 10 -2.4999999999999996
vertex 38.2021429792311 10 7.5
endloop
endfacet
facet normal 0 1 0
outer loop
vertex 28.2021429792311 10 -2.499999999999999
vertex 38.2021429792311 10 7.5
vertex 48.2021429792311 10 -2.4999999999999996
endloop
endfacet
facet normal -0.7071067811865479 0 0.707106781186547
outer loop
vertex 28.2021429792311 1.5005018192738018e-15 -2.4999999999999996
vertex 38.2021429792311 2.758550201264485e-16 7.5
vertex 38.2021429792311 10 7.5
endloop
endfacet
facet normal -0.7071067811865479 0 0.707106781186547
outer loop
vertex 28.2021429792311 1.5005018192738018e-15 -2.4999999999999996
vertex 38.2021429792311 10 7.5
vertex 28.2021429792311 10 -2.499999999999999
endloop
endfacet
facet normal 0 0 -1
outer loop
vertex 28.2021429792311 1.5005018192738018e-15 -2.4999999999999996
vertex 28.2021429792311 10 -2.499999999999999
vertex 48.2021429792311 10 -2.4999999999999996
endloop
endfacet
facet normal 0 0 -1
outer loop
vertex 28.2021429792311 1.5005018192738018e-15 -2.4999999999999996
vertex 48.2021429792311 10 -2.4999999999999996
vertex 48.2021429792311 2.758550201264486e-16 -2.4999999999999996
endloop
endfacet
facet normal 0 -1 0
outer loop
vertex 48.2021429792311 -5 0
vertex 58.2021429792311 -5 0
vertex 53.2021429792311 -5 5
endloop
endfacet
facet normal 0.7071067811865482 0 0.7071067811865469
outer loop
vertex 53.2021429792311 -5 5
vertex 58.2021429792311 -5 0
vertex 58.2021429792311 15 9.18485099360515e-16
endloop
endfacet
facet normal 0.7071067811865482 0 0.7071067811865469
outer loop
vertex 53.2021429792311 -5 5
vertex 58.2021429792311 15 9.18485099360515e-16
vertex 53.2021429792311 15 5.000000000000001
endloop
endfacet
facet normal 0 1 0
outer loop
vertex 48.2021429792311 15 1.2246467991473533e-15
vertex 53.2021429792311 15 5.000000000000001
vertex 58.2021429792311 15 9.18485099360515e-16
endloop
endfacet
facet normal -0.7071067811865482 0 0.7071067811865469
outer loop
vertex 48.2021429792311 -5 0
vertex 53.2021429792311 -5 5
vertex 53.2021429792311 15 5.000000000000001
endloop
endfacet
facet normal -0.7071067811865482 0 0.7071067811865469
outer loop
vertex 48.2021429792311 -5 0
vertex 53.2021429792311 15 5.000000000000001
vertex 48.2021429792311 15 1.2246467991473533e-15
endloop
endfacet
facet normal 0 0 -1
outer loop
vertex 48.2021429792311 -5 0
vertex 48.2021429792311 15 1.2246467991473533e-15
vertex 58.2021429792311 15 9.18485099360515e-16
endloop
endfacet
facet normal 0 0 -1
outer loop
vertex 48.2021429792311 -5 0
vertex 58.2021429792311 15 9.18485099360515e-16
vertex 58.2021429792311 -5 0
endloop
endfacet
endsolid csg.js
