solid csg.js
facet normal -6.123233995736767e-17 -1 -6.123233995736767e-17
outer loop
vertex 0 6.123233995736767e-16 0
vertex 10 4.930380657631324e-32 0
vertex 5.000000000000001 0 5
endloop
endfacet
facet normal 0.7071067811865474 0 0.7071067811865478
outer loop
vertex 5.000000000000001 0 5
vertex 10 4.930380657631324e-32 0
vertex 10 10 3.061616997868383e-16
endloop
endfacet
facet normal 0.7071067811865474 0 0.7071067811865478
outer loop
vertex 5.000000000000001 0 5
vertex 10 10 3.061616997868383e-16
vertex 5.000000000000001 10 5.000000000000001
endloop
endfacet
facet normal 0 1 0
outer loop
vertex 8.881784197001252e-16 10 6.123233995736766e-16
vertex 5.000000000000001 10 5.000000000000001
vertex 10 10 3.061616997868383e-16
endloop
endfacet
facet normal -0.7071067811865475 0 0.7071067811865475
outer loop
vertex 0 6.123233995736767e-16 0
vertex 5.000000000000001 0 5
vertex 5.000000000000001 10 5.000000000000001
endloop
endfacet
facet normal -0.7071067811865475 0 0.7071067811865475
outer loop
vertex 0 6.123233995736767e-16 0
vertex 5.000000000000001 10 5.000000000000001
vertex 8.881784197001252e-16 10 6.123233995736766e-16
endloop
endfacet
facet normal 0 0 -1
outer loop
vertex 0 6.123233995736767e-16 0
vertex 8.881784197001252e-16 10 6.123233995736766e-16
vertex 10 10 3.061616997868383e-16
endloop
endfacet
facet normal 0 0 -1
outer loop
vertex 0 6.123233995736767e-16 0
vertex 10 10 3.061616997868383e-16
vertex 10 4.930380657631324e-32 0
endloop
endfacet
facet normal -6.123233995736767e-17 -1 -6.123233995736767e-17
outer loop
vertex 10 5.302876193624534e-16 2.499999999999999
vertex 10 6.833684692558726e-16 0
vertex 18.660254037844386 1.5308084989341913e-16 0
endloop
endfacet
facet normal -6.123233995736767e-17 -1 -6.123233995736767e-17
outer loop
vertex 10 5.302876193624534e-16 2.499999999999999
vertex 18.660254037844386 1.5308084989341913e-16 0
vertex 18.660254037844386 0 2.499999999999999
endloop
endfacet
facet normal -6.123233995736767e-17 -1 -6.123233995736767e-17
outer loop
vertex 10 5.302876193624534e-16 2.499999999999999
vertex 18.660254037844386 0 2.499999999999999
vertex 14.330127018922193 1.120629597878075e-16 5
endloop
endfacet
facet normal 1 0 0
outer loop
vertex 18.660254037844386 0 2.499999999999999
vertex 18.660254037844386 1.5308084989341913e-16 0
vertex 18.66025403784439 10 0
endloop
endfacet
facet normal 1 0 0
outer loop
vertex 18.660254037844386 0 2.499999999999999
vertex 18.66025403784439 10 0
vertex 18.66025403784439 10 2.4999999999999996
endloop
endfacet
facet normal 0 1 0
outer loop
vertex 10 10 6.123233995736766e-16
vertex 10.000000000000002 10 2.4999999999999996
vertex 14.330127018922195 10 5.000000000000001
endloop
endfacet
facet normal 0 1 0
outer loop
vertex 10 10 6.123233995736766e-16
vertex 14.330127018922195 10 5.000000000000001
vertex 18.66025403784439 10 2.4999999999999996
endloop
endfacet
facet normal 0 1 0
outer loop
vertex 10 10 6.123233995736766e-16
vertex 18.66025403784439 10 2.4999999999999996
vertex 18.66025403784439 10 0
endloop
endfacet
facet normal 0.5000000000000001 0 0.8660254037844387
outer loop
vertex 14.330127018922193 1.120629597878075e-16 5
vertex 18.660254037844386 0 2.499999999999999
vertex 18.66025403784439 10 2.4999999999999996
endloop
endfacet
facet normal 0.5000000000000001 0 0.8660254037844387
outer loop
vertex 14.330127018922193 1.120629597878075e-16 5
vertex 18.66025403784439 10 2.4999999999999996
vertex 14.330127018922195 10 5.000000000000001
endloop
endfacet
facet normal -0.5000000000000006 0 0.8660254037844384
outer loop
vertex 10 5.302876193624534e-16 2.499999999999999
vertex 14.330127018922193 1.120629597878075e-16 5
vertex 14.330127018922195 10 5.000000000000001
endloop
endfacet
facet normal -0.5000000000000006 0 0.8660254037844384
outer loop
vertex 10 5.302876193624534e-16 2.499999999999999
vertex 14.330127018922195 10 5.000000000000001
vertex 10.000000000000002 10 2.4999999999999996
endloop
endfacet
facet normal -1 0 0
outer loop
vertex 10 6.833684692558726e-16 0
vertex 10 5.302876193624534e-16 2.499999999999999
vertex 10.000000000000002 10 2.4999999999999996
endloop
endfacet
facet normal -1 0 0
outer loop
vertex 10 6.833684692558726e-16 0
vertex 10.000000000000002 10 2.4999999999999996
vertex 10 10 6.123233995736766e-16
endloop
endfacet
facet normal 0 0 -1
outer loop
vertex 18.660254037844386 1.5308084989341913e-16 0
vertex 10 6.833684692558726e-16 0
vertex 10 10 6.123233995736766e-16
endloop
endfacet
facet normal 0 0 -1
outer loop
vertex 18.660254037844386 1.5308084989341913e-16 0
vertex 10 10 6.123233995736766e-16
vertex 18.66025403784439 10 0
endloop
endfacet
facet normal -6.123233995736767e-17 -1 -6.123233995736767e-17
outer loop
vertex 21.721097791909404 2.3524023795960807e-16 4.698463103929542
vertex 19.101071489615556 5.302876193624534e-16 2.499999999999999
vertex 18.66025403784439 7.10360753321865e-16 0
endloop
endfacet
facet normal -6.123233995736767e-17 -1 -6.123233995736767e-17
outer loop
vertex 21.721097791909404 2.3524023795960807e-16 4.698463103929542
vertex 18.66025403784439 7.10360753321865e-16 0
vertex 28.202142979231102 1.2608856582742684e-16 0
endloop
endfacet
facet normal -6.123233995736767e-17 -1 -6.123233995736767e-17
outer loop
vertex 21.721097791909404 2.3524023795960807e-16 4.698463103929542
vertex 28.202142979231102 1.2608856582742684e-16 0
vertex 27.76132552745994 0 2.499999999999999
endloop
endfacet
facet normal -6.123233995736767e-17 -1 -6.123233995736767e-17
outer loop
vertex 21.721097791909404 2.3524023795960807e-16 4.698463103929542
vertex 27.76132552745994 0 2.499999999999999
vertex 25.14129922516609 2.581330107575849e-17 4.698463103929542
endloop
endfacet
facet normal 0.9848077530122081 0 0.1736481776669301
outer loop
vertex 27.76132552745994 0 2.499999999999999
vertex 28.202142979231102 1.2608856582742684e-16 0
vertex 28.202142979231105 10 0
endloop
endfacet
facet normal 0.9848077530122081 0 0.1736481776669301
outer loop
vertex 27.76132552745994 0 2.499999999999999
vertex 28.202142979231105 10 0
vertex 27.76132552745994 10 2.4999999999999996
endloop
endfacet
facet normal 0 1 0
outer loop
vertex 18.660254037844393 10 6.123233995736766e-16
vertex 19.101071489615556 10 2.4999999999999996
vertex 21.721097791909404 10 4.698463103929543
endloop
endfacet
facet normal 0 1 0
outer loop
vertex 18.660254037844393 10 6.123233995736766e-16
vertex 21.721097791909404 10 4.698463103929543
vertex 25.141299225166094 10 4.698463103929543
endloop
endfacet
facet normal 0 1 0
outer loop
vertex 18.660254037844393 10 6.123233995736766e-16
vertex 25.141299225166094 10 4.698463103929543
vertex 27.76132552745994 10 2.4999999999999996
endloop
endfacet
facet normal 0 1 0
outer loop
vertex 18.660254037844393 10 6.123233995736766e-16
vertex 27.76132552745994 10 2.4999999999999996
vertex 28.202142979231105 10 0
endloop
endfacet
facet normal 0.6427876096865391 0 0.7660444431189781
outer loop
vertex 25.14129922516609 2.581330107575849e-17 4.698463103929542
vertex 27.76132552745994 0 2.499999999999999
vertex 27.76132552745994 10 2.4999999999999996
endloop
endfacet
facet normal 0.6427876096865391 0 0.7660444431189781
outer loop
vertex 25.14129922516609 2.581330107575849e-17 4.698463103929542
vertex 27.76132552745994 10 2.4999999999999996
vertex 25.141299225166094 10 4.698463103929543
endloop
endfacet
facet normal 0 0 1
outer loop
vertex 21.721097791909404 2.3524023795960807e-16 4.698463103929542
vertex 25.14129922516609 2.581330107575849e-17 4.698463103929542
vertex 25.141299225166094 10 4.698463103929543
endloop
endfacet
facet normal 0 0 1
outer loop
vertex 21.721097791909404 2.3524023795960807e-16 4.698463103929542
vertex 25.141299225166094 10 4.698463103929543
vertex 21.721097791909404 10 4.698463103929543
endloop
endfacet
facet normal -0.6427876096865407 0 0.7660444431189769
outer loop
vertex 19.101071489615556 5.302876193624534e-16 2.499999999999999
vertex 21.721097791909404 2.3524023795960807e-16 4.698463103929542
vertex 21.721097791909404 10 4.698463103929543
endloop
endfacet
facet normal -0.6427876096865407 0 0.7660444431189769
outer loop
vertex 19.101071489615556 5.302876193624534e-16 2.499999999999999
vertex 21.721097791909404 10 4.698463103929543
vertex 19.101071489615556 10 2.4999999999999996
endloop
endfacet
facet normal -0.9848077530122082 0 0.1736481776669301
outer loop
vertex 18.66025403784439 7.10360753321865e-16 0
vertex 19.101071489615556 5.302876193624534e-16 2.499999999999999
vertex 19.101071489615556 10 2.4999999999999996
endloop
endfacet
facet normal -0.9848077530122082 0 0.1736481776669301
outer loop
vertex 18.66025403784439 7.10360753321865e-16 0
vertex 19.101071489615556 10 2.4999999999999996
vertex 18.660254037844393 10 6.123233995736766e-16
endloop
endfacet
facet normal 0 0 -1
outer loop
vertex 28.202142979231102 1.2608856582742684e-16 0
vertex 18.66025403784439 7.10360753321865e-16 0
vertex 18.660254037844393 10 6.123233995736766e-16
endloop
endfacet
facet normal 0 0 -1
outer loop
vertex 28.202142979231102 1.2608856582742684e-16 0
vertex 18.660254037844393 10 6.123233995736766e-16
vertex 28.202142979231105 10 0
endloop
endfacet
facet normal -6.123233995736767e-17 -1 -6.123233995736767e-17
outer loop
vertex 28.2021429792311 1.2246467991473535e-15 0
vertex 48.2021429792311 9.860761315262648e-32 0
vertex 38.2021429792311 0 10
endloop
endfacet
facet normal 0.7071067811865485 0 0.7071067811865467
outer loop
vertex 38.2021429792311 0 10
vertex 48.2021429792311 9.860761315262648e-32 0
vertex 48.2021429792311 10 0
endloop
endfacet
facet normal 0.7071067811865485 0 0.7071067811865467
outer loop
vertex 38.2021429792311 0 10
vertex 48.2021429792311 10 0
vertex 38.2021429792311 10 10
endloop
endfacet
facet normal 0 1 0
outer loop
vertex 28.2021429792311 10 6.123233995736766e-16
vertex 38.2021429792311 10 10
vertex 48.2021429792311 10 0
endloop
endfacet
facet normal -0.7071067811865479 0 0.707106781186547
outer loop
vertex 28.2021429792311 1.2246467991473535e-15 0
vertex 38.2021429792311 0 10
vertex 38.2021429792311 10 10
endloop
endfacet
facet normal -0.7071067811865479 0 0.707106781186547
outer loop
vertex 28.2021429792311 1.2246467991473535e-15 0
vertex 38.2021429792311 10 10
vertex 28.2021429792311 10 6.123233995736766e-16
endloop
endfacet
facet normal 0 0 -1
outer loop
vertex 28.2021429792311 1.2246467991473535e-15 0
vertex 28.2021429792311 10 6.123233995736766e-16
vertex 48.2021429792311 10 0
endloop
endfacet
facet normal 0 0 -1
outer loop
vertex 28.2021429792311 1.2246467991473535e-15 0
vertex 48.2021429792311 10 0
vertex 48.2021429792311 9.860761315262648e-32 0
endloop
endfacet
facet normal -6.123233995736767e-17 -1 -6.123233995736767e-17
outer loop
vertex 48.2021429792311 6.123233995736767e-16 0
vertex 58.2021429792311 4.930380657631324e-32 0
vertex 53.2021429792311 0 5
endloop
endfacet
facet normal 0.7071067811865482 0 0.7071067811865469
outer loop
vertex 53.2021429792311 0 5
vertex 58.2021429792311 4.930380657631324e-32 0
vertex 58.2021429792311 20 9.18485099360515e-16
endloop
endfacet
facet normal 0.7071067811865482 0 0.7071067811865469
outer loop
vertex 53.2021429792311 0 5
vertex 58.2021429792311 20 9.18485099360515e-16
vertex 53.2021429792311 20 5.000000000000001
endloop
endfacet
facet normal 0 1 0
outer loop
vertex 48.2021429792311 20 1.2246467991473533e-15
vertex 53.2021429792311 20 5.000000000000001
vertex 58.2021429792311 20 9.18485099360515e-16
endloop
endfacet
facet normal -0.7071067811865482 0 0.7071067811865469
outer loop
vertex 48.2021429792311 6.123233995736767e-16 0
vertex 53.2021429792311 0 5
vertex 53.2021429792311 20 5.000000000000001
endloop
endfacet
facet normal -0.7071067811865482 0 0.7071067811865469
outer loop
vertex 48.2021429792311 6.123233995736767e-16 0
vertex 53.2021429792311 20 5.000000000000001
vertex 48.2021429792311 20 1.2246467991473533e-15
endloop
endfacet
facet normal 0 0 -1
outer loop
vertex 48.2021429792311 6.123233995736767e-16 0
vertex 48.2021429792311 20 1.2246467991473533e-15
vertex 58.2021429792311 20 9.18485099360515e-16
endloop
endfacet
facet normal 0 0 -1
outer loop
vertex 48.2021429792311 6.123233995736767e-16 0
vertex 58.2021429792311 20 9.18485099360515e-16
vertex 58.2021429792311 4.930380657631324e-32 0
endloop
endfacet
endsolid csg.js
