solid craftml
facet normal 0.707106781186548 -0.7071067811865471 0
outer loop
vertex -18.991378028648445 -36.06244584051391 19
vertex 9.292893218813454 -7.778174593052007 19
vertex 9.292893218813454 -7.778174593052007 29.000000000000004
endloop
endfacet
facet normal 0.707106781186548 -0.7071067811865471 0
outer loop
vertex -18.991378028648445 -36.06244584051391 19
vertex 9.292893218813454 -7.778174593052007 29.000000000000004
vertex -18.991378028648445 -36.06244584051391 29
endloop
endfacet
facet normal -0.7071067811865479 0.707106781186547 0
outer loop
vertex -4.849242404917497 6.363961030678944 29.000000000000004
vertex -4.849242404917497 6.363961030678944 19
vertex -33.13351365237939 -21.92031021678296 19
endloop
endfacet
facet normal -0.7071067811865479 0.707106781186547 0
outer loop
vertex -4.849242404917497 6.363961030678944 29.000000000000004
vertex -33.13351365237939 -21.92031021678296 19
vertex -33.13351365237939 -21.92031021678296 29
endloop
endfacet
facet normal 0 0 1
outer loop
vertex 9.292893218813454 -7.778174593052007 29.000000000000004
vertex -4.849242404917497 6.363961030678944 29.000000000000004
vertex -33.13351365237939 -21.92031021678296 29
endloop
endfacet
facet normal 0 0 1
outer loop
vertex 9.292893218813454 -7.778174593052007 29.000000000000004
vertex -33.13351365237939 -21.92031021678296 29
vertex -18.991378028648445 -36.06244584051391 29
endloop
endfacet
facet normal 0 0 -1
outer loop
vertex -33.13351365237939 -21.92031021678296 19
vertex -4.849242404917497 6.363961030678944 19
vertex 9.292893218813454 -7.778174593052007 19
endloop
endfacet
facet normal 0 0 -1
outer loop
vertex -33.13351365237939 -21.92031021678296 19
vertex 9.292893218813454 -7.778174593052007 19
vertex -18.991378028648445 -36.06244584051391 19
endloop
endfacet
facet normal -0.7071067811865467 -0.7071067811865485 0
outer loop
vertex -22.526911934581182 -32.52691193458117 19
vertex -18.991378028648445 -36.06244584051391 19
vertex -18.991378028648445 -36.06244584051391 29
endloop
endfacet
facet normal -0.7071067811865467 -0.7071067811865485 0
outer loop
vertex -22.526911934581182 -32.52691193458117 19
vertex -18.991378028648445 -36.06244584051391 29
vertex -22.526911934581182 -32.52691193458117 29
endloop
endfacet
facet normal -0.7071067811865467 -0.7071067811865485 0
outer loop
vertex -33.13351365237939 -21.92031021678296 29
vertex -33.13351365237939 -21.92031021678296 19
vertex -29.597979746446658 -25.455844122715696 19
endloop
endfacet
facet normal -0.7071067811865467 -0.7071067811865485 0
outer loop
vertex -33.13351365237939 -21.92031021678296 29
vertex -29.597979746446658 -25.455844122715696 19
vertex -29.597979746446654 -25.455844122715696 29
endloop
endfacet
facet normal -0.7071067811865467 -0.7071067811865485 0
outer loop
vertex -22.526911934581182 -32.52691193458117 26.5
vertex -22.526911934581182 -32.52691193458117 29
vertex -29.597979746446654 -25.455844122715696 29
endloop
endfacet
facet normal -0.7071067811865467 -0.7071067811865485 0
outer loop
vertex -22.526911934581182 -32.52691193458117 26.5
vertex -29.597979746446654 -25.455844122715696 29
vertex -29.597979746446654 -25.455844122715696 26.5
endloop
endfacet
facet normal -0.7071067811865467 -0.7071067811865485 0
outer loop
vertex -29.597979746446658 -25.455844122715696 19
vertex -22.526911934581182 -32.52691193458117 19
vertex -22.526911934581182 -32.52691193458117 21.5
endloop
endfacet
facet normal -0.7071067811865467 -0.7071067811865485 0
outer loop
vertex -29.597979746446658 -25.455844122715696 19
vertex -22.526911934581182 -32.52691193458117 21.5
vertex -29.597979746446658 -25.455844122715696 21.5
endloop
endfacet
facet normal 0.7071067811865476 0.7071067811865476 0
outer loop
vertex 9.292893218813454 -7.778174593052007 19
vertex -4.849242404917497 6.363961030678944 19
vertex -4.849242404917497 6.363961030678944 29.000000000000004
endloop
endfacet
facet normal 0.7071067811865476 0.7071067811865476 0
outer loop
vertex 9.292893218813454 -7.778174593052007 19
vertex -4.849242404917497 6.363961030678944 29.000000000000004
vertex 9.292893218813454 -7.778174593052007 29.000000000000004
endloop
endfacet
facet normal 0.7071067811865476 -0.7071067811865476 0
outer loop
vertex -28.183766184073562 -38.183766184073555 21.5
vertex -22.526911934581182 -32.52691193458117 21.5
vertex -22.526911934581182 -32.52691193458117 26.5
endloop
endfacet
facet normal 0.7071067811865476 -0.7071067811865476 0
outer loop
vertex -28.183766184073562 -38.183766184073555 21.5
vertex -22.526911934581182 -32.52691193458117 26.5
vertex -28.183766184073562 -38.183766184073555 26.5
endloop
endfacet
facet normal -0.7071067811865476 0.7071067811865476 0
outer loop
vertex -29.597979746446658 -25.4558441227157 26.5
vertex -29.597979746446658 -25.4558441227157 21.5
vertex -35.25483399593904 -31.11269837220808 21.5
endloop
endfacet
facet normal -0.7071067811865476 0.7071067811865476 0
outer loop
vertex -29.597979746446658 -25.4558441227157 26.5
vertex -35.25483399593904 -31.11269837220808 21.5
vertex -35.25483399593904 -31.11269837220808 26.5
endloop
endfacet
facet normal 0 0 1
outer loop
vertex -22.526911934581182 -32.52691193458117 26.5
vertex -29.597979746446658 -25.4558441227157 26.5
vertex -35.25483399593904 -31.11269837220808 26.5
endloop
endfacet
facet normal 0 0 1
outer loop
vertex -22.526911934581182 -32.52691193458117 26.5
vertex -35.25483399593904 -31.11269837220808 26.5
vertex -28.183766184073562 -38.183766184073555 26.5
endloop
endfacet
facet normal 0 0 -1
outer loop
vertex -35.25483399593904 -31.11269837220808 21.5
vertex -29.597979746446658 -25.4558441227157 21.5
vertex -22.526911934581182 -32.52691193458117 21.5
endloop
endfacet
facet normal 0 0 -1
outer loop
vertex -35.25483399593904 -31.11269837220808 21.5
vertex -22.526911934581182 -32.52691193458117 21.5
vertex -28.183766184073562 -38.183766184073555 21.5
endloop
endfacet
facet normal -0.7071067811865467 -0.7071067811865485 0
outer loop
vertex -35.25483399593904 -31.11269837220808 26.5
vertex -35.25483399593904 -31.11269837220808 21.5
vertex -28.183766184073562 -38.183766184073555 21.5
endloop
endfacet
facet normal -0.7071067811865467 -0.7071067811865485 0
outer loop
vertex -35.25483399593904 -31.11269837220808 26.5
vertex -28.183766184073562 -38.183766184073555 21.5
vertex -28.183766184073562 -38.183766184073555 26.5
endloop
endfacet
endsolid craftml
