solid craftml
facet normal 0 1 0
outer loop
vertex -5 10 25
vertex 15 10 25
vertex 15 10 -15
endloop
endfacet
facet normal 0 1 0
outer loop
vertex -5 10 25
vertex 15 10 -15
vertex -5 10 -15
endloop
endfacet
facet normal 0 -1 0
outer loop
vertex 5 -20 25
vertex -5 -20 25
vertex -5 -20 -15
endloop
endfacet
facet normal 0 -1 0
outer loop
vertex 5 -20 25
vertex -5 -20 -15
vertex 5 -20 -15
endloop
endfacet
facet normal 0 -1 0
outer loop
vertex 15 -20 -15
vertex 15 -20 5
vertex 5 -20 5
endloop
endfacet
facet normal 0 -1 0
outer loop
vertex 15 -20 -15
vertex 5 -20 5
vertex 5 -20 -15
endloop
endfacet
facet normal 0 0 -1
outer loop
vertex 15 10 -15
vertex 15 -20 -15
vertex -5 -20 -15
endloop
endfacet
facet normal 0 0 -1
outer loop
vertex 15 10 -15
vertex -5 -20 -15
vertex -5 10 -15
endloop
endfacet
facet normal 0 0 1
outer loop
vertex -5 -20 25
vertex 15 -20 25
vertex 15 10 25
endloop
endfacet
facet normal 0 0 1
outer loop
vertex -5 -20 25
vertex 15 10 25
vertex -5 10 25
endloop
endfacet
facet normal 1 0 0
outer loop
vertex 25 10 25
vertex 25 -20 25
vertex 25 -20 -15
endloop
endfacet
facet normal 1 0 0
outer loop
vertex 25 10 25
vertex 25 -20 -15
vertex 25 10 -15
endloop
endfacet
facet normal 0 1 0
outer loop
vertex 15 10 25
vertex 25 10 25
vertex 25 10 -15
endloop
endfacet
facet normal 0 1 0
outer loop
vertex 15 10 25
vertex 25 10 -15
vertex 15 10 -15
endloop
endfacet
facet normal 0 -1 0
outer loop
vertex 25 -20 -15
vertex 25 -20 5
vertex 15 -20 5
endloop
endfacet
facet normal 0 -1 0
outer loop
vertex 25 -20 -15
vertex 15 -20 5
vertex 15 -20 -15
endloop
endfacet
facet normal 0 0 -1
outer loop
vertex 25 10 -15
vertex 25 -20 -15
vertex 15 -20 -15
endloop
endfacet
facet normal 0 0 -1
outer loop
vertex 25 10 -15
vertex 15 -20 -15
vertex 15 10 -15
endloop
endfacet
facet normal 0 0 1
outer loop
vertex 15 -20 25
vertex 25 -20 25
vertex 25 10 25
endloop
endfacet
facet normal 0 0 1
outer loop
vertex 15 -20 25
vertex 25 10 25
vertex 15 10 25
endloop
endfacet
facet normal -1 0 0
outer loop
vertex -15 -20 -15
vertex -15 -20 25
vertex -15 10 25
endloop
endfacet
facet normal -1 0 0
outer loop
vertex -15 -20 -15
vertex -15 10 25
vertex -15 10 -15
endloop
endfacet
facet normal 0 1 0
outer loop
vertex -15 10 25
vertex -5 10 25
vertex -5 10 -15
endloop
endfacet
facet normal 0 1 0
outer loop
vertex -15 10 25
vertex -5 10 -15
vertex -15 10 -15
endloop
endfacet
facet normal 0 -1 0
outer loop
vertex -5 -20 25
vertex -15 -20 25
vertex -15 -20 -15
endloop
endfacet
facet normal 0 -1 0
outer loop
vertex -5 -20 25
vertex -15 -20 -15
vertex -5 -20 -15
endloop
endfacet
facet normal 0 0 -1
outer loop
vertex -5 -20 -15
vertex -15 -20 -15
vertex -15 10 -15
endloop
endfacet
facet normal 0 0 -1
outer loop
vertex -5 -20 -15
vertex -15 10 -15
vertex -5 10 -15
endloop
endfacet
facet normal 0 0 1
outer loop
vertex -15 -20 25
vertex -5 -20 25
vertex -5 10 25
endloop
endfacet
facet normal 0 0 1
outer loop
vertex -15 -20 25
vertex -5 10 25
vertex -15 10 25
endloop
endfacet
facet normal -1 0 0
outer loop
vertex 5 -25 5
vertex 5 -25 25
vertex 5 -20 25
endloop
endfacet
facet normal -1 0 0
outer loop
vertex 5 -25 5
vertex 5 -20 25
vertex 5 -20 5
endloop
endfacet
facet normal 1 0 0
outer loop
vertex 25 -20 25
vertex 25 -25 25
vertex 25 -25 5
endloop
endfacet
facet normal 1 0 0
outer loop
vertex 25 -20 25
vertex 25 -25 5
vertex 25 -20 5
endloop
endfacet
facet normal 0 -1 0
outer loop
vertex 25 -25 5
vertex 25 -25 25
vertex 5 -25 25
endloop
endfacet
facet normal 0 -1 0
outer loop
vertex 25 -25 5
vertex 5 -25 25
vertex 5 -25 5
endloop
endfacet
facet normal 0 0 -1
outer loop
vertex 25 -20 5
vertex 25 -25 5
vertex 15 -25 5
endloop
endfacet
facet normal 0 0 -1
outer loop
vertex 25 -20 5
vertex 15 -25 5
vertex 15 -20 5
endloop
endfacet
facet normal 0 0 -1
outer loop
vertex 15 -25 5
vertex 5 -25 5
vertex 5 -20 5
endloop
endfacet
facet normal 0 0 -1
outer loop
vertex 15 -25 5
vertex 5 -20 5
vertex 15 -20 5
endloop
endfacet
facet normal 0 0 1
outer loop
vertex 15 -25 25
vertex 25 -25 25
vertex 25 -20 25
endloop
endfacet
facet normal 0 0 1
outer loop
vertex 15 -25 25
vertex 25 -20 25
vertex 15 -20 25
endloop
endfacet
facet normal 0 0 1
outer loop
vertex 5 -25 25
vertex 15 -25 25
vertex 15 -20 25
endloop
endfacet
facet normal 0 0 1
outer loop
vertex 5 -25 25
vertex 15 -20 25
vertex 5 -20 25
endloop
endfacet
endsolid craftml
