solid craftml
facet normal 0 1 0
outer loop
vertex 20 20 0
vertex 20 20 10
vertex 30 20 10
endloop
endfacet
facet normal 0 1 0
outer loop
vertex 20 20 0
vertex 30 20 10
vertex 30 20 0
endloop
endfacet
facet normal 0 -1 0
outer loop
vertex 30.000000000000004 -30 10
vertex 20.000000000000004 -30 10
vertex 20.000000000000004 -30 0
endloop
endfacet
facet normal 0 -1 0
outer loop
vertex 30.000000000000004 -30 10
vertex 20.000000000000004 -30 0
vertex 30.000000000000004 -30 0
endloop
endfacet
facet normal 1 0 0
outer loop
vertex 30 20 10
vertex 30 0 10
vertex 30 0 0
endloop
endfacet
facet normal 1 0 0
outer loop
vertex 30 20 10
vertex 30 0 0
vertex 30 20 0
endloop
endfacet
facet normal 1 0 0
outer loop
vertex 30 -10 10
vertex 30.000000000000004 -30 10
vertex 30.000000000000004 -30 0
endloop
endfacet
facet normal 1 0 0
outer loop
vertex 30 -10 10
vertex 30.000000000000004 -30 0
vertex 30 -10 0
endloop
endfacet
facet normal -1 0 0
outer loop
vertex 20 0 10
vertex 20 20 10
vertex 20 20 0
endloop
endfacet
facet normal -1 0 0
outer loop
vertex 20 0 10
vertex 20 20 0
vertex 20 0 0
endloop
endfacet
facet normal -1 0 0
outer loop
vertex 20.000000000000004 -30 0
vertex 20.000000000000004 -30 10
vertex 20 -10 10
endloop
endfacet
facet normal -1 0 0
outer loop
vertex 20.000000000000004 -30 0
vertex 20 -10 10
vertex 20 -10 0
endloop
endfacet
facet normal 0 0 -1
outer loop
vertex 20 0 0
vertex 20 20 0
vertex 30 20 0
endloop
endfacet
facet normal 0 0 -1
outer loop
vertex 20 0 0
vertex 30 20 0
vertex 30 0 0
endloop
endfacet
facet normal 0 0 -1
outer loop
vertex 30.000000000000004 -30 0
vertex 20.000000000000004 -30 0
vertex 20 -10 0
endloop
endfacet
facet normal 0 0 -1
outer loop
vertex 30.000000000000004 -30 0
vertex 20 -10 0
vertex 30 -10 0
endloop
endfacet
facet normal 0 0 1
outer loop
vertex 20 20 10
vertex 20 0 10
vertex 30 0 10
endloop
endfacet
facet normal 0 0 1
outer loop
vertex 20 20 10
vertex 30 0 10
vertex 30 20 10
endloop
endfacet
facet normal 0 0 1
outer loop
vertex 20 -10 10
vertex 20.000000000000004 -30 10
vertex 30.000000000000004 -30 10
endloop
endfacet
facet normal 0 0 1
outer loop
vertex 20 -10 10
vertex 30.000000000000004 -30 10
vertex 30 -10 10
endloop
endfacet
facet normal 0 0 1
outer loop
vertex 20 -10 30
vertex 30 -10 30
vertex 30 0 30
endloop
endfacet
facet normal 0 0 1
outer loop
vertex 20 -10 30
vertex 30 0 30
vertex 20 0 30
endloop
endfacet
facet normal 0 0 -1
outer loop
vertex 30.000000000000004 0 -20
vertex 30.000000000000004 -10 -20
vertex 20.000000000000004 -10 -20
endloop
endfacet
facet normal 0 0 -1
outer loop
vertex 30.000000000000004 0 -20
vertex 20.000000000000004 -10 -20
vertex 20.000000000000004 0 -20
endloop
endfacet
facet normal 0 1 0
outer loop
vertex 30.000000000000004 0 0
vertex 30.000000000000004 0 -20
vertex 20.000000000000004 0 -20
endloop
endfacet
facet normal 0 1 0
outer loop
vertex 30.000000000000004 0 0
vertex 20.000000000000004 0 -20
vertex 20.000000000000004 0 0
endloop
endfacet
facet normal 0 1 0
outer loop
vertex 30 0 30
vertex 30.000000000000004 0 10
vertex 20.000000000000004 0 10
endloop
endfacet
facet normal 0 1 0
outer loop
vertex 30 0 30
vertex 20.000000000000004 0 10
vertex 20 0 30
endloop
endfacet
facet normal 0 -1 0
outer loop
vertex 20.000000000000004 -10 -20
vertex 30.000000000000004 -10 -20
vertex 30.000000000000004 -10 0
endloop
endfacet
facet normal 0 -1 0
outer loop
vertex 20.000000000000004 -10 -20
vertex 30.000000000000004 -10 0
vertex 20.000000000000004 -10 0
endloop
endfacet
facet normal 0 -1 0
outer loop
vertex 30.000000000000004 -10 10
vertex 30 -10 30
vertex 20 -10 30
endloop
endfacet
facet normal 0 -1 0
outer loop
vertex 30.000000000000004 -10 10
vertex 20 -10 30
vertex 20.000000000000004 -10 10
endloop
endfacet
facet normal -1 0 0
outer loop
vertex 20.000000000000004 0 0
vertex 20.000000000000004 0 -20
vertex 20.000000000000004 -10 -20
endloop
endfacet
facet normal -1 0 0
outer loop
vertex 20.000000000000004 0 0
vertex 20.000000000000004 -10 -20
vertex 20.000000000000004 -10 0
endloop
endfacet
facet normal -1 0 0
outer loop
vertex 20.000000000000004 0 10
vertex 20.000000000000004 -10 10
vertex 20 -10 30
endloop
endfacet
facet normal -1 0 0
outer loop
vertex 20.000000000000004 0 10
vertex 20 -10 30
vertex 20 0 30
endloop
endfacet
facet normal 1 0 0
outer loop
vertex 30.000000000000004 -10 0
vertex 30.000000000000004 -10 -20
vertex 30.000000000000004 0 -20
endloop
endfacet
facet normal 1 0 0
outer loop
vertex 30.000000000000004 -10 0
vertex 30.000000000000004 0 -20
vertex 30.000000000000004 0 0
endloop
endfacet
facet normal 1 0 0
outer loop
vertex 30 -10 30
vertex 30.000000000000004 -10 10
vertex 30.000000000000004 0 10
endloop
endfacet
facet normal 1 0 0
outer loop
vertex 30 -10 30
vertex 30.000000000000004 0 10
vertex 30 0 30
endloop
endfacet
facet normal -1 0 0
outer loop
vertex 0 -6.123233995736766e-16 0
vertex 0 -10 0
vertex 0 -10 10
endloop
endfacet
facet normal -1 0 0
outer loop
vertex 0 -6.123233995736766e-16 0
vertex 0 -10 10
vertex 0 0 10
endloop
endfacet
facet normal 1 0 0
outer loop
vertex 50 -10 10
vertex 50 -10 0
vertex 50 -6.123233995736766e-16 0
endloop
endfacet
facet normal 1 0 0
outer loop
vertex 50 -10 10
vertex 50 -6.123233995736766e-16 0
vertex 50 0 10
endloop
endfacet
facet normal 0 0 1
outer loop
vertex 30 -10 10
vertex 50 -10 10
vertex 50 0 10
endloop
endfacet
facet normal 0 0 1
outer loop
vertex 30 -10 10
vertex 50 0 10
vertex 30 0 10
endloop
endfacet
facet normal 0 0 1
outer loop
vertex 0 -10 10
vertex 20 -10 10
vertex 20 0 10
endloop
endfacet
facet normal 0 0 1
outer loop
vertex 0 -10 10
vertex 20 0 10
vertex 0 0 10
endloop
endfacet
facet normal 0 0 -1
outer loop
vertex 50 -6.123233995736766e-16 0
vertex 50 -10 0
vertex 30 -10 0
endloop
endfacet
facet normal 0 0 -1
outer loop
vertex 50 -6.123233995736766e-16 0
vertex 30 -10 0
vertex 30 -6.123233995736766e-16 0
endloop
endfacet
facet normal 0 0 -1
outer loop
vertex 20 -10 0
vertex 0 -10 0
vertex 0 -6.123233995736766e-16 0
endloop
endfacet
facet normal 0 0 -1
outer loop
vertex 20 -10 0
vertex 0 -6.123233995736766e-16 0
vertex 20 -6.123233995736766e-16 0
endloop
endfacet
facet normal 0 1 -6.123233995736766e-17
outer loop
vertex 50 0 10
vertex 50 -6.123233995736766e-16 0
vertex 30 -6.123233995736766e-16 0
endloop
endfacet
facet normal 0 1 -6.123233995736766e-17
outer loop
vertex 50 0 10
vertex 30 -6.123233995736766e-16 0
vertex 30 0 10
endloop
endfacet
facet normal 0 1 -6.123233995736766e-17
outer loop
vertex 20 -6.123233995736766e-16 0
vertex 0 -6.123233995736766e-16 0
vertex 0 0 10
endloop
endfacet
facet normal 0 1 -6.123233995736766e-17
outer loop
vertex 20 -6.123233995736766e-16 0
vertex 0 0 10
vertex 20 0 10
endloop
endfacet
facet normal 0 -1 0
outer loop
vertex 30 -10 0
vertex 50 -10 0
vertex 50 -10 10
endloop
endfacet
facet normal 0 -1 0
outer loop
vertex 30 -10 0
vertex 50 -10 10
vertex 30 -10 10
endloop
endfacet
facet normal 0 -1 0
outer loop
vertex 0 -10 0
vertex 20 -10 0
vertex 20 -10 10
endloop
endfacet
facet normal 0 -1 0
outer loop
vertex 0 -10 0
vertex 20 -10 10
vertex 0 -10 10
endloop
endfacet
endsolid craftml
