solid craftml
facet normal -1 0 0
outer loop
vertex 0 0 40
vertex 0 0 35
vertex 0 -20 35
endloop
endfacet
facet normal -1 0 0
outer loop
vertex 0 0 40
vertex 0 -20 35
vertex 0 -20 40
endloop
endfacet
facet normal -1 0 0
outer loop
vertex 0 0 35
vertex 0 0 25
vertex 0 -5 25
endloop
endfacet
facet normal -1 0 0
outer loop
vertex 0 0 35
vertex 0 -5 25
vertex 0 -5 35
endloop
endfacet
facet normal -1 0 0
outer loop
vertex 0 -15 35
vertex 0 -15 25
vertex 0 -20 25
endloop
endfacet
facet normal -1 0 0
outer loop
vertex 0 -15 35
vertex 0 -20 25
vertex 0 -20 35
endloop
endfacet
facet normal -1 0 0
outer loop
vertex 0 0 25
vertex 0 0 20
vertex 0 -20 20
endloop
endfacet
facet normal -1 0 0
outer loop
vertex 0 0 25
vertex 0 -20 20
vertex 0 -20 25
endloop
endfacet
facet normal 1 0 0
outer loop
vertex 20 0 20
vertex 20 0 25
vertex 20 -20 25
endloop
endfacet
facet normal 1 0 0
outer loop
vertex 20 0 20
vertex 20 -20 25
vertex 20 -20 20
endloop
endfacet
facet normal 1 0 0
outer loop
vertex 20 0 25
vertex 20 0 35
vertex 20 -5 35
endloop
endfacet
facet normal 1 0 0
outer loop
vertex 20 0 25
vertex 20 -5 35
vertex 20 -5 25
endloop
endfacet
facet normal 1 0 0
outer loop
vertex 20 -15 25
vertex 20 -15 35
vertex 20 -20 35
endloop
endfacet
facet normal 1 0 0
outer loop
vertex 20 -15 25
vertex 20 -20 35
vertex 20 -20 25
endloop
endfacet
facet normal 1 0 0
outer loop
vertex 20 0 35
vertex 20 0 40
vertex 20 -20 40
endloop
endfacet
facet normal 1 0 0
outer loop
vertex 20 0 35
vertex 20 -20 40
vertex 20 -20 35
endloop
endfacet
facet normal 0 1 0
outer loop
vertex 0 0 20
vertex 0 0 25
vertex 20 0 25
endloop
endfacet
facet normal 0 1 0
outer loop
vertex 0 0 20
vertex 20 0 25
vertex 20 0 20
endloop
endfacet
facet normal 0 1 0
outer loop
vertex 0 0 25
vertex 0 0 35
vertex 5 0 35
endloop
endfacet
facet normal 0 1 0
outer loop
vertex 0 0 25
vertex 5 0 35
vertex 5 0 25
endloop
endfacet
facet normal 0 1 0
outer loop
vertex 15 0 25
vertex 15 0 35
vertex 20 0 35
endloop
endfacet
facet normal 0 1 0
outer loop
vertex 15 0 25
vertex 20 0 35
vertex 20 0 25
endloop
endfacet
facet normal 0 1 0
outer loop
vertex 0 0 35
vertex 0 0 40
vertex 20 0 40
endloop
endfacet
facet normal 0 1 0
outer loop
vertex 0 0 35
vertex 20 0 40
vertex 20 0 35
endloop
endfacet
facet normal 0 -1 0
outer loop
vertex 0 -20 40
vertex 0 -20 35
vertex 20 -20 35
endloop
endfacet
facet normal 0 -1 0
outer loop
vertex 0 -20 40
vertex 20 -20 35
vertex 20 -20 40
endloop
endfacet
facet normal 0 -1 0
outer loop
vertex 0 -20 35
vertex 0 -20 25
vertex 5 -20 25
endloop
endfacet
facet normal 0 -1 0
outer loop
vertex 0 -20 35
vertex 5 -20 25
vertex 5 -20 35
endloop
endfacet
facet normal 0 -1 0
outer loop
vertex 15 -20 35
vertex 15 -20 25
vertex 20 -20 25
endloop
endfacet
facet normal 0 -1 0
outer loop
vertex 15 -20 35
vertex 20 -20 25
vertex 20 -20 35
endloop
endfacet
facet normal 0 -1 0
outer loop
vertex 0 -20 25
vertex 0 -20 20
vertex 20 -20 20
endloop
endfacet
facet normal 0 -1 0
outer loop
vertex 0 -20 25
vertex 20 -20 20
vertex 20 -20 25
endloop
endfacet
facet normal 0 0 1
outer loop
vertex 0 0 40
vertex 0 -5 40
vertex 20 -5 40
endloop
endfacet
facet normal 0 0 1
outer loop
vertex 0 0 40
vertex 20 -5 40
vertex 20 0 40
endloop
endfacet
facet normal 0 0 1
outer loop
vertex 0 -5 40
vertex 0 -15 40
vertex 5 -15 40
endloop
endfacet
facet normal 0 0 1
outer loop
vertex 0 -5 40
vertex 5 -15 40
vertex 5 -5 40
endloop
endfacet
facet normal 0 0 1
outer loop
vertex 15 -5 40
vertex 15 -15 40
vertex 20 -15 40
endloop
endfacet
facet normal 0 0 1
outer loop
vertex 15 -5 40
vertex 20 -15 40
vertex 20 -5 40
endloop
endfacet
facet normal 0 0 1
outer loop
vertex 0 -15 40
vertex 0 -20 40
vertex 20 -20 40
endloop
endfacet
facet normal 0 0 1
outer loop
vertex 0 -15 40
vertex 20 -20 40
vertex 20 -15 40
endloop
endfacet
facet normal 1 0 0
outer loop
vertex 5 -5 20
vertex 5 -5 25
vertex 5 -15 25
endloop
endfacet
facet normal 1 0 0
outer loop
vertex 5 -5 20
vertex 5 -15 25
vertex 5 -15 20
endloop
endfacet
facet normal 1 0 0
outer loop
vertex 5 0 25
vertex 5 0 35
vertex 5 -5 35
endloop
endfacet
facet normal 1 0 0
outer loop
vertex 5 0 25
vertex 5 -5 35
vertex 5 -5 25
endloop
endfacet
facet normal 1 0 0
outer loop
vertex 5 -15 25
vertex 5 -15 35
vertex 5 -20 35
endloop
endfacet
facet normal 1 0 0
outer loop
vertex 5 -15 25
vertex 5 -20 35
vertex 5 -20 25
endloop
endfacet
facet normal 1 0 0
outer loop
vertex 5 -5 35
vertex 5 -5 40
vertex 5 -15 40
endloop
endfacet
facet normal 1 0 0
outer loop
vertex 5 -5 35
vertex 5 -15 40
vertex 5 -15 35
endloop
endfacet
facet normal -1 0 0
outer loop
vertex 15 -5 40
vertex 15 -5 35
vertex 15 -15 35
endloop
endfacet
facet normal -1 0 0
outer loop
vertex 15 -5 40
vertex 15 -15 35
vertex 15 -15 40
endloop
endfacet
facet normal -1 0 0
outer loop
vertex 15 0 35
vertex 15 0 25
vertex 15 -5 25
endloop
endfacet
facet normal -1 0 0
outer loop
vertex 15 0 35
vertex 15 -5 25
vertex 15 -5 35
endloop
endfacet
facet normal -1 0 0
outer loop
vertex 15 -15 35
vertex 15 -15 25
vertex 15 -20 25
endloop
endfacet
facet normal -1 0 0
outer loop
vertex 15 -15 35
vertex 15 -20 25
vertex 15 -20 35
endloop
endfacet
facet normal -1 0 0
outer loop
vertex 15 -5 25
vertex 15 -5 20
vertex 15 -15 20
endloop
endfacet
facet normal -1 0 0
outer loop
vertex 15 -5 25
vertex 15 -15 20
vertex 15 -15 25
endloop
endfacet
facet normal 0 -1 0
outer loop
vertex 5 -5 40
vertex 5 -5 35
vertex 15 -5 35
endloop
endfacet
facet normal 0 -1 0
outer loop
vertex 5 -5 40
vertex 15 -5 35
vertex 15 -5 40
endloop
endfacet
facet normal 0 -1 0
outer loop
vertex 0 -5 35
vertex 0 -5 25
vertex 5 -5 25
endloop
endfacet
facet normal 0 -1 0
outer loop
vertex 0 -5 35
vertex 5 -5 25
vertex 5 -5 35
endloop
endfacet
facet normal 0 -1 0
outer loop
vertex 15 -5 35
vertex 15 -5 25
vertex 20 -5 25
endloop
endfacet
facet normal 0 -1 0
outer loop
vertex 15 -5 35
vertex 20 -5 25
vertex 20 -5 35
endloop
endfacet
facet normal 0 -1 0
outer loop
vertex 5 -5 25
vertex 5 -5 20
vertex 15 -5 20
endloop
endfacet
facet normal 0 -1 0
outer loop
vertex 5 -5 25
vertex 15 -5 20
vertex 15 -5 25
endloop
endfacet
facet normal 0 1 0
outer loop
vertex 5 -15 20
vertex 5 -15 25
vertex 15 -15 25
endloop
endfacet
facet normal 0 1 0
outer loop
vertex 5 -15 20
vertex 15 -15 25
vertex 15 -15 20
endloop
endfacet
facet normal 0 1 0
outer loop
vertex 0 -15 25
vertex 0 -15 35
vertex 5 -15 35
endloop
endfacet
facet normal 0 1 0
outer loop
vertex 0 -15 25
vertex 5 -15 35
vertex 5 -15 25
endloop
endfacet
facet normal 0 1 0
outer loop
vertex 15 -15 25
vertex 15 -15 35
vertex 20 -15 35
endloop
endfacet
facet normal 0 1 0
outer loop
vertex 15 -15 25
vertex 20 -15 35
vertex 20 -15 25
endloop
endfacet
facet normal 0 1 0
outer loop
vertex 5 -15 35
vertex 5 -15 40
vertex 15 -15 40
endloop
endfacet
facet normal 0 1 0
outer loop
vertex 5 -15 35
vertex 15 -15 40
vertex 15 -15 35
endloop
endfacet
facet normal 0 0 1
outer loop
vertex 5 0 25
vertex 5 -5 25
vertex 15 -5 25
endloop
endfacet
facet normal 0 0 1
outer loop
vertex 5 0 25
vertex 15 -5 25
vertex 15 0 25
endloop
endfacet
facet normal 0 0 1
outer loop
vertex 0 -5 25
vertex 0 -15 25
vertex 5 -15 25
endloop
endfacet
facet normal 0 0 1
outer loop
vertex 0 -5 25
vertex 5 -15 25
vertex 5 -5 25
endloop
endfacet
facet normal 0 0 1
outer loop
vertex 15 -5 25
vertex 15 -15 25
vertex 20 -15 25
endloop
endfacet
facet normal 0 0 1
outer loop
vertex 15 -5 25
vertex 20 -15 25
vertex 20 -5 25
endloop
endfacet
facet normal 0 0 1
outer loop
vertex 5 -15 25
vertex 5 -20 25
vertex 15 -20 25
endloop
endfacet
facet normal 0 0 1
outer loop
vertex 5 -15 25
vertex 15 -20 25
vertex 15 -15 25
endloop
endfacet
facet normal 0 0 -1
outer loop
vertex 5 -20 35
vertex 5 -15 35
vertex 15 -15 35
endloop
endfacet
facet normal 0 0 -1
outer loop
vertex 5 -20 35
vertex 15 -15 35
vertex 15 -20 35
endloop
endfacet
facet normal 0 0 -1
outer loop
vertex 0 -15 35
vertex 0 -5 35
vertex 5 -5 35
endloop
endfacet
facet normal 0 0 -1
outer loop
vertex 0 -15 35
vertex 5 -5 35
vertex 5 -15 35
endloop
endfacet
facet normal 0 0 -1
outer loop
vertex 15 -15 35
vertex 15 -5 35
vertex 20 -5 35
endloop
endfacet
facet normal 0 0 -1
outer loop
vertex 15 -15 35
vertex 20 -5 35
vertex 20 -15 35
endloop
endfacet
facet normal 0 0 -1
outer loop
vertex 5 -5 35
vertex 5 0 35
vertex 15 0 35
endloop
endfacet
facet normal 0 0 -1
outer loop
vertex 5 -5 35
vertex 15 0 35
vertex 15 -5 35
endloop
endfacet
facet normal -1 0 0
outer loop
vertex 0 0 20
vertex 0 0 15
vertex 0 -20 15
endloop
endfacet
facet normal -1 0 0
outer loop
vertex 0 0 20
vertex 0 -20 15
vertex 0 -20 20
endloop
endfacet
facet normal -1 0 0
outer loop
vertex 0 0 15
vertex 0 0 5
vertex 0 -5 5
endloop
endfacet
facet normal -1 0 0
outer loop
vertex 0 0 15
vertex 0 -5 5
vertex 0 -5 15
endloop
endfacet
facet normal -1 0 0
outer loop
vertex 0 -15 15
vertex 0 -15 5
vertex 0 -20 5
endloop
endfacet
facet normal -1 0 0
outer loop
vertex 0 -15 15
vertex 0 -20 5
vertex 0 -20 15
endloop
endfacet
facet normal -1 0 0
outer loop
vertex 0 0 5
vertex 0 0 0
vertex 0 -20 0
endloop
endfacet
facet normal -1 0 0
outer loop
vertex 0 0 5
vertex 0 -20 0
vertex 0 -20 5
endloop
endfacet
facet normal 1 0 0
outer loop
vertex 20 0 0
vertex 20 0 5
vertex 20 -20 5
endloop
endfacet
facet normal 1 0 0
outer loop
vertex 20 0 0
vertex 20 -20 5
vertex 20 -20 0
endloop
endfacet
facet normal 1 0 0
outer loop
vertex 20 0 5
vertex 20 0 15
vertex 20 -5 15
endloop
endfacet
facet normal 1 0 0
outer loop
vertex 20 0 5
vertex 20 -5 15
vertex 20 -5 5
endloop
endfacet
facet normal 1 0 0
outer loop
vertex 20 -15 5
vertex 20 -15 15
vertex 20 -20 15
endloop
endfacet
facet normal 1 0 0
outer loop
vertex 20 -15 5
vertex 20 -20 15
vertex 20 -20 5
endloop
endfacet
facet normal 1 0 0
outer loop
vertex 20 0 15
vertex 20 0 20
vertex 20 -20 20
endloop
endfacet
facet normal 1 0 0
outer loop
vertex 20 0 15
vertex 20 -20 20
vertex 20 -20 15
endloop
endfacet
facet normal 0 1 0
outer loop
vertex 0 0 0
vertex 0 0 5
vertex 20 0 5
endloop
endfacet
facet normal 0 1 0
outer loop
vertex 0 0 0
vertex 20 0 5
vertex 20 0 0
endloop
endfacet
facet normal 0 1 0
outer loop
vertex 0 0 5
vertex 0 0 15
vertex 5 0 15
endloop
endfacet
facet normal 0 1 0
outer loop
vertex 0 0 5
vertex 5 0 15
vertex 5 0 5
endloop
endfacet
facet normal 0 1 0
outer loop
vertex 15 0 5
vertex 15 0 15
vertex 20 0 15
endloop
endfacet
facet normal 0 1 0
outer loop
vertex 15 0 5
vertex 20 0 15
vertex 20 0 5
endloop
endfacet
facet normal 0 1 0
outer loop
vertex 0 0 15
vertex 0 0 20
vertex 20 0 20
endloop
endfacet
facet normal 0 1 0
outer loop
vertex 0 0 15
vertex 20 0 20
vertex 20 0 15
endloop
endfacet
facet normal 0 -1 0
outer loop
vertex 0 -20 20
vertex 0 -20 15
vertex 20 -20 15
endloop
endfacet
facet normal 0 -1 0
outer loop
vertex 0 -20 20
vertex 20 -20 15
vertex 20 -20 20
endloop
endfacet
facet normal 0 -1 0
outer loop
vertex 0 -20 15
vertex 0 -20 5
vertex 5 -20 5
endloop
endfacet
facet normal 0 -1 0
outer loop
vertex 0 -20 15
vertex 5 -20 5
vertex 5 -20 15
endloop
endfacet
facet normal 0 -1 0
outer loop
vertex 15 -20 15
vertex 15 -20 5
vertex 20 -20 5
endloop
endfacet
facet normal 0 -1 0
outer loop
vertex 15 -20 15
vertex 20 -20 5
vertex 20 -20 15
endloop
endfacet
facet normal 0 -1 0
outer loop
vertex 0 -20 5
vertex 0 -20 0
vertex 20 -20 0
endloop
endfacet
facet normal 0 -1 0
outer loop
vertex 0 -20 5
vertex 20 -20 0
vertex 20 -20 5
endloop
endfacet
facet normal 0 0 -1
outer loop
vertex 0 -20 0
vertex 0 -15 0
vertex 20 -15 0
endloop
endfacet
facet normal 0 0 -1
outer loop
vertex 0 -20 0
vertex 20 -15 0
vertex 20 -20 0
endloop
endfacet
facet normal 0 0 -1
outer loop
vertex 0 -15 0
vertex 0 -5 0
vertex 5 -5 0
endloop
endfacet
facet normal 0 0 -1
outer loop
vertex 0 -15 0
vertex 5 -5 0
vertex 5 -15 0
endloop
endfacet
facet normal 0 0 -1
outer loop
vertex 15 -15 0
vertex 15 -5 0
vertex 20 -5 0
endloop
endfacet
facet normal 0 0 -1
outer loop
vertex 15 -15 0
vertex 20 -5 0
vertex 20 -15 0
endloop
endfacet
facet normal 0 0 -1
outer loop
vertex 0 -5 0
vertex 0 0 0
vertex 20 0 0
endloop
endfacet
facet normal 0 0 -1
outer loop
vertex 0 -5 0
vertex 20 0 0
vertex 20 -5 0
endloop
endfacet
facet normal 1 0 0
outer loop
vertex 5 -5 0
vertex 5 -5 5
vertex 5 -15 5
endloop
endfacet
facet normal 1 0 0
outer loop
vertex 5 -5 0
vertex 5 -15 5
vertex 5 -15 0
endloop
endfacet
facet normal 1 0 0
outer loop
vertex 5 0 5
vertex 5 0 15
vertex 5 -5 15
endloop
endfacet
facet normal 1 0 0
outer loop
vertex 5 0 5
vertex 5 -5 15
vertex 5 -5 5
endloop
endfacet
facet normal 1 0 0
outer loop
vertex 5 -15 5
vertex 5 -15 15
vertex 5 -20 15
endloop
endfacet
facet normal 1 0 0
outer loop
vertex 5 -15 5
vertex 5 -20 15
vertex 5 -20 5
endloop
endfacet
facet normal 1 0 0
outer loop
vertex 5 -5 15
vertex 5 -5 20
vertex 5 -15 20
endloop
endfacet
facet normal 1 0 0
outer loop
vertex 5 -5 15
vertex 5 -15 20
vertex 5 -15 15
endloop
endfacet
facet normal -1 0 0
outer loop
vertex 15 -5 20
vertex 15 -5 15
vertex 15 -15 15
endloop
endfacet
facet normal -1 0 0
outer loop
vertex 15 -5 20
vertex 15 -15 15
vertex 15 -15 20
endloop
endfacet
facet normal -1 0 0
outer loop
vertex 15 0 15
vertex 15 0 5
vertex 15 -5 5
endloop
endfacet
facet normal -1 0 0
outer loop
vertex 15 0 15
vertex 15 -5 5
vertex 15 -5 15
endloop
endfacet
facet normal -1 0 0
outer loop
vertex 15 -15 15
vertex 15 -15 5
vertex 15 -20 5
endloop
endfacet
facet normal -1 0 0
outer loop
vertex 15 -15 15
vertex 15 -20 5
vertex 15 -20 15
endloop
endfacet
facet normal -1 0 0
outer loop
vertex 15 -5 5
vertex 15 -5 0
vertex 15 -15 0
endloop
endfacet
facet normal -1 0 0
outer loop
vertex 15 -5 5
vertex 15 -15 0
vertex 15 -15 5
endloop
endfacet
facet normal 0 -1 0
outer loop
vertex 5 -5 20
vertex 5 -5 15
vertex 15 -5 15
endloop
endfacet
facet normal 0 -1 0
outer loop
vertex 5 -5 20
vertex 15 -5 15
vertex 15 -5 20
endloop
endfacet
facet normal 0 -1 0
outer loop
vertex 0 -5 15
vertex 0 -5 5
vertex 5 -5 5
endloop
endfacet
facet normal 0 -1 0
outer loop
vertex 0 -5 15
vertex 5 -5 5
vertex 5 -5 15
endloop
endfacet
facet normal 0 -1 0
outer loop
vertex 15 -5 15
vertex 15 -5 5
vertex 20 -5 5
endloop
endfacet
facet normal 0 -1 0
outer loop
vertex 15 -5 15
vertex 20 -5 5
vertex 20 -5 15
endloop
endfacet
facet normal 0 -1 0
outer loop
vertex 5 -5 5
vertex 5 -5 0
vertex 15 -5 0
endloop
endfacet
facet normal 0 -1 0
outer loop
vertex 5 -5 5
vertex 15 -5 0
vertex 15 -5 5
endloop
endfacet
facet normal 0 1 0
outer loop
vertex 5 -15 0
vertex 5 -15 5
vertex 15 -15 5
endloop
endfacet
facet normal 0 1 0
outer loop
vertex 5 -15 0
vertex 15 -15 5
vertex 15 -15 0
endloop
endfacet
facet normal 0 1 0
outer loop
vertex 0 -15 5
vertex 0 -15 15
vertex 5 -15 15
endloop
endfacet
facet normal 0 1 0
outer loop
vertex 0 -15 5
vertex 5 -15 15
vertex 5 -15 5
endloop
endfacet
facet normal 0 1 0
outer loop
vertex 15 -15 5
vertex 15 -15 15
vertex 20 -15 15
endloop
endfacet
facet normal 0 1 0
outer loop
vertex 15 -15 5
vertex 20 -15 15
vertex 20 -15 5
endloop
endfacet
facet normal 0 1 0
outer loop
vertex 5 -15 15
vertex 5 -15 20
vertex 15 -15 20
endloop
endfacet
facet normal 0 1 0
outer loop
vertex 5 -15 15
vertex 15 -15 20
vertex 15 -15 15
endloop
endfacet
facet normal 0 0 1
outer loop
vertex 5 0 5
vertex 5 -5 5
vertex 15 -5 5
endloop
endfacet
facet normal 0 0 1
outer loop
vertex 5 0 5
vertex 15 -5 5
vertex 15 0 5
endloop
endfacet
facet normal 0 0 1
outer loop
vertex 0 -5 5
vertex 0 -15 5
vertex 5 -15 5
endloop
endfacet
facet normal 0 0 1
outer loop
vertex 0 -5 5
vertex 5 -15 5
vertex 5 -5 5
endloop
endfacet
facet normal 0 0 1
outer loop
vertex 15 -5 5
vertex 15 -15 5
vertex 20 -15 5
endloop
endfacet
facet normal 0 0 1
outer loop
vertex 15 -5 5
vertex 20 -15 5
vertex 20 -5 5
endloop
endfacet
facet normal 0 0 1
outer loop
vertex 5 -15 5
vertex 5 -20 5
vertex 15 -20 5
endloop
endfacet
facet normal 0 0 1
outer loop
vertex 5 -15 5
vertex 15 -20 5
vertex 15 -15 5
endloop
endfacet
facet normal 0 0 -1
outer loop
vertex 5 -20 15
vertex 5 -15 15
vertex 15 -15 15
endloop
endfacet
facet normal 0 0 -1
outer loop
vertex 5 -20 15
vertex 15 -15 15
vertex 15 -20 15
endloop
endfacet
facet normal 0 0 -1
outer loop
vertex 0 -15 15
vertex 0 -5 15
vertex 5 -5 15
endloop
endfacet
facet normal 0 0 -1
outer loop
vertex 0 -15 15
vertex 5 -5 15
vertex 5 -15 15
endloop
endfacet
facet normal 0 0 -1
outer loop
vertex 15 -15 15
vertex 15 -5 15
vertex 20 -5 15
endloop
endfacet
facet normal 0 0 -1
outer loop
vertex 15 -15 15
vertex 20 -5 15
vertex 20 -15 15
endloop
endfacet
facet normal 0 0 -1
outer loop
vertex 5 -5 15
vertex 5 0 15
vertex 15 0 15
endloop
endfacet
facet normal 0 0 -1
outer loop
vertex 5 -5 15
vertex 15 0 15
vertex 15 -5 15
endloop
endfacet
endsolid craftml
