solid craftml
facet normal -1 0 0
outer loop
vertex 1 -1 8
vertex 1 -1 1
vertex 1 -8 1
endloop
endfacet
facet normal -1 0 0
outer loop
vertex 1 -1 8
vertex 1 -8 1
vertex 1 -8 8
endloop
endfacet
facet normal 1 0 0
outer loop
vertex 8 -8 8
vertex 8 -8 1
vertex 8 -1 1
endloop
endfacet
facet normal 1 0 0
outer loop
vertex 8 -8 8
vertex 8 -1 1
vertex 8 -1 8
endloop
endfacet
facet normal 0 -1 0
outer loop
vertex 8 -8 1
vertex 8 -8 8
vertex 1 -8 8
endloop
endfacet
facet normal 0 -1 0
outer loop
vertex 8 -8 1
vertex 1 -8 8
vertex 1 -8 1
endloop
endfacet
facet normal 0 1 0
outer loop
vertex 1 -1 1
vertex 1 -1 8
vertex 8 -1 8
endloop
endfacet
facet normal 0 1 0
outer loop
vertex 1 -1 1
vertex 8 -1 8
vertex 8 -1 1
endloop
endfacet
facet normal 0 0 -1
outer loop
vertex 8 -1 1
vertex 8 -8 1
vertex 1 -8 1
endloop
endfacet
facet normal 0 0 -1
outer loop
vertex 8 -1 1
vertex 1 -8 1
vertex 1 -1 1
endloop
endfacet
facet normal 0 0 1
outer loop
vertex 1 -1 8
vertex 1 -8 8
vertex 8 -8 8
endloop
endfacet
facet normal 0 0 1
outer loop
vertex 1 -1 8
vertex 8 -8 8
vertex 8 -1 8
endloop
endfacet
endsolid craftml
