solid craftml
facet normal 1 0 0
outer loop
vertex 15 -5 10
vertex 15 -15 10
vertex 15 -15 0
endloop
endfacet
facet normal 1 0 0
outer loop
vertex 15 -5 10
vertex 15 -15 0
vertex 15 -5 0
endloop
endfacet
facet normal 0 1 0
outer loop
vertex 10 -5 10
vertex 15 -5 10
vertex 15 -5 0
endloop
endfacet
facet normal 0 1 0
outer loop
vertex 10 -5 10
vertex 15 -5 0
vertex 10 -5 0
endloop
endfacet
facet normal 0 -1 0
outer loop
vertex 15 -15 0
vertex 15 -15 10
vertex 10 -15 10
endloop
endfacet
facet normal 0 -1 0
outer loop
vertex 15 -15 0
vertex 10 -15 10
vertex 10 -15 0
endloop
endfacet
facet normal 0 0 -1
outer loop
vertex 15 -5 0
vertex 15 -15 0
vertex 10 -15 0
endloop
endfacet
facet normal 0 0 -1
outer loop
vertex 15 -5 0
vertex 10 -15 0
vertex 10 -5 0
endloop
endfacet
facet normal 0 0 1
outer loop
vertex 10 -15 10
vertex 15 -15 10
vertex 15 -5 10
endloop
endfacet
facet normal 0 0 1
outer loop
vertex 10 -15 10
vertex 15 -5 10
vertex 10 -5 10
endloop
endfacet
facet normal -1 0 0
outer loop
vertex 10 -15 0
vertex 10 -15 10
vertex 10 -5 10
endloop
endfacet
facet normal -1 0 0
outer loop
vertex 10 -15 0
vertex 10 -5 10
vertex 10 -5 0
endloop
endfacet
endsolid craftml
