solid craftml
facet normal 0 0 -1
outer loop
vertex 9.890738003669028 -3.9330510227525703 0
vertex 10 -4.972609476841367 0
vertex 5 -4.972609476841367 0
endloop
endfacet
facet normal 0.890500936492484 0.09359541993341156 0.44525046824624154
outer loop
vertex 9.890738003669028 -3.9330510227525703 0
vertex 5 -4.972609476841367 10
vertex 10 -4.972609476841367 0
endloop
endfacet
facet normal 0 0 -1
outer loop
vertex 9.567727288213003 -2.938926261462366 0
vertex 9.890738003669028 -3.9330510227525703 0
vertex 5 -4.972609476841367 0
endloop
endfacet
facet normal 0.8515817724701764 0.27669569082849 0.44525046824624165
outer loop
vertex 9.567727288213003 -2.938926261462366 0
vertex 5 -4.972609476841367 10
vertex 9.890738003669028 -3.9330510227525703 0
endloop
endfacet
facet normal 0 0 -1
outer loop
vertex 9.045084971874736 -2.0336832153790008 0
vertex 9.567727288213003 -2.938926261462366 0
vertex 5 -4.972609476841367 0
endloop
endfacet
facet normal 0.7754443986482059 0.4477030323011278 0.44525046824624187
outer loop
vertex 9.045084971874736 -2.0336832153790008 0
vertex 5 -4.972609476841367 10
vertex 9.567727288213003 -2.938926261462366 0
endloop
endfacet
facet normal 0 0 -1
outer loop
vertex 8.345653031794292 -1.2568853494543957 0
vertex 9.045084971874736 -2.0336832153790008 0
vertex 5 -4.972609476841367 0
endloop
endfacet
facet normal 0.6654163836102451 0.5991436029447075 0.44525046824624215
outer loop
vertex 8.345653031794292 -1.2568853494543957 0
vertex 5 -4.972609476841367 10
vertex 9.045084971874736 -2.0336832153790008 0
endloop
endfacet
facet normal 0 0 -1
outer loop
vertex 7.5 -0.6424824579191739 0
vertex 8.345653031794292 -1.2568853494543957 0
vertex 5 -4.972609476841367 0
endloop
endfacet
facet normal 0.5263064795864485 0.7243987231296185 0.4452504682462417
outer loop
vertex 7.5 -0.6424824579191739 0
vertex 5 -4.972609476841367 10
vertex 8.345653031794292 -1.2568853494543957 0
endloop
endfacet
facet normal 0 0 -1
outer loop
vertex 6.545084971874737 -0.21732689536559935 0
vertex 7.5 -0.6424824579191739 0
vertex 5 -4.972609476841367 0
endloop
endfacet
facet normal 0.364194456906035 0.8179941430630299 0.44525046824624187
outer loop
vertex 6.545084971874737 -0.21732689536559935 0
vertex 5 -4.972609476841367 10
vertex 7.5 -0.6424824579191739 0
endloop
endfacet
facet normal 0 0 -1
outer loop
vertex 5.522642316338267 0 0
vertex 6.545084971874737 -0.21732689536559935 0
vertex 5 -4.972609476841367 0
endloop
endfacet
facet normal 0.18616538885993186 0.8758392937731971 0.4452504682462418
outer loop
vertex 5.522642316338267 0 0
vertex 5 -4.972609476841367 10
vertex 6.545084971874737 -0.21732689536559935 0
endloop
endfacet
facet normal 0 0 -1
outer loop
vertex 4.477357683661733 0 0
vertex 5.522642316338267 0 0
vertex 5 -4.972609476841367 0
endloop
endfacet
facet normal 0 0.8954060646022576 0.445250468246242
outer loop
vertex 4.477357683661733 0 0
vertex 5 -4.972609476841367 10
vertex 5.522642316338267 0 0
endloop
endfacet
facet normal 0 0 -1
outer loop
vertex 3.454915028125263 -0.21732689536559846 0
vertex 4.477357683661733 0 0
vertex 5 -4.972609476841367 0
endloop
endfacet
facet normal -0.18616538885993075 0.8758392937731974 0.445250468246242
outer loop
vertex 3.454915028125263 -0.21732689536559846 0
vertex 5 -4.972609476841367 10
vertex 4.477357683661733 0 0
endloop
endfacet
facet normal 0 0 -1
outer loop
vertex 2.500000000000001 -0.642482457919173 0
vertex 3.454915028125263 -0.21732689536559846 0
vertex 5 -4.972609476841367 0
endloop
endfacet
facet normal -0.36419445690603564 0.8179941430630295 0.4452504682462419
outer loop
vertex 2.500000000000001 -0.642482457919173 0
vertex 5 -4.972609476841367 10
vertex 3.454915028125263 -0.21732689536559846 0
endloop
endfacet
facet normal 0 0 -1
outer loop
vertex 1.6543469682057106 -1.2568853494543943 0
vertex 2.500000000000001 -0.642482457919173 0
vertex 5 -4.972609476841367 0
endloop
endfacet
facet normal -0.5263064795864485 0.7243987231296186 0.4452504682462419
outer loop
vertex 1.6543469682057106 -1.2568853494543943 0
vertex 5 -4.972609476841367 10
vertex 2.500000000000001 -0.642482457919173 0
endloop
endfacet
facet normal 0 0 -1
outer loop
vertex 0.9549150281252627 -2.0336832153790003 0
vertex 1.6543469682057106 -1.2568853494543943 0
vertex 5 -4.972609476841367 0
endloop
endfacet
facet normal -0.6654163836102445 0.5991436029447083 0.445250468246242
outer loop
vertex 0.9549150281252627 -2.0336832153790003 0
vertex 5 -4.972609476841367 10
vertex 1.6543469682057106 -1.2568853494543943 0
endloop
endfacet
facet normal 0 0 -1
outer loop
vertex 0.4322727117869949 -2.9389262614623664 0
vertex 0.9549150281252627 -2.0336832153790003 0
vertex 5 -4.972609476841367 0
endloop
endfacet
facet normal -0.7754443986482054 0.4477030323011286 0.4452504682462418
outer loop
vertex 0.4322727117869949 -2.9389262614623664 0
vertex 5 -4.972609476841367 10
vertex 0.9549150281252627 -2.0336832153790003 0
endloop
endfacet
facet normal 0 0 -1
outer loop
vertex 0.10926199633097156 -3.9330510227525703 0
vertex 0.4322727117869949 -2.9389262614623664 0
vertex 5 -4.972609476841367 0
endloop
endfacet
facet normal -0.8515817724701762 0.2766956908284894 0.44525046824624226
outer loop
vertex 0.10926199633097156 -3.9330510227525703 0
vertex 5 -4.972609476841367 10
vertex 0.4322727117869949 -2.9389262614623664 0
endloop
endfacet
facet normal 0 0 -1
outer loop
vertex 0 -4.972609476841366 0
vertex 0.10926199633097156 -3.9330510227525703 0
vertex 5 -4.972609476841367 0
endloop
endfacet
facet normal -0.890500936492484 0.09359541993341113 0.445250468246242
outer loop
vertex 0 -4.972609476841366 0
vertex 5 -4.972609476841367 10
vertex 0.10926199633097156 -3.9330510227525703 0
endloop
endfacet
facet normal 0 0 -1
outer loop
vertex 0.10926199633097156 -6.012167930930162 0
vertex 0 -4.972609476841366 0
vertex 5 -4.972609476841367 0
endloop
endfacet
facet normal -0.8905009364924839 -0.09359541993341115 0.4452504682462419
outer loop
vertex 0.10926199633097156 -6.012167930930162 0
vertex 5 -4.972609476841367 10
vertex 0 -4.972609476841366 0
endloop
endfacet
facet normal 0 0 -1
outer loop
vertex 0.4322727117869949 -7.006292692220366 0
vertex 0.10926199633097156 -6.012167930930162 0
vertex 5 -4.972609476841367 0
endloop
endfacet
facet normal -0.8515817724701764 -0.2766956908284898 0.4452504682462415
outer loop
vertex 0.4322727117869949 -7.006292692220366 0
vertex 5 -4.972609476841367 10
vertex 0.10926199633097156 -6.012167930930162 0
endloop
endfacet
facet normal 0 0 -1
outer loop
vertex 0.9549150281252627 -7.911535738303732 0
vertex 0.4322727117869949 -7.006292692220366 0
vertex 5 -4.972609476841367 0
endloop
endfacet
facet normal -0.7754443986482054 -0.4477030323011286 0.4452504682462418
outer loop
vertex 0.9549150281252627 -7.911535738303732 0
vertex 5 -4.972609476841367 10
vertex 0.4322727117869949 -7.006292692220366 0
endloop
endfacet
facet normal 0 0 -1
outer loop
vertex 1.654346968205708 -8.688333604228337 0
vertex 0.9549150281252627 -7.911535738303732 0
vertex 5 -4.972609476841367 0
endloop
endfacet
facet normal -0.6654163836102455 -0.599143602944707 0.44525046824624215
outer loop
vertex 1.654346968205708 -8.688333604228337 0
vertex 5 -4.972609476841367 10
vertex 0.9549150281252627 -7.911535738303732 0
endloop
endfacet
facet normal 0 0 -1
outer loop
vertex 2.499999999999998 -9.302736495763558 0
vertex 1.654346968205708 -8.688333604228337 0
vertex 5 -4.972609476841367 0
endloop
endfacet
facet normal -0.5263064795864487 -0.7243987231296183 0.44525046824624187
outer loop
vertex 2.499999999999998 -9.302736495763558 0
vertex 5 -4.972609476841367 10
vertex 1.654346968205708 -8.688333604228337 0
endloop
endfacet
facet normal 0 0 -1
outer loop
vertex 3.4549150281252623 -9.727892058317135 0
vertex 2.499999999999998 -9.302736495763558 0
vertex 5 -4.972609476841367 0
endloop
endfacet
facet normal -0.36419445690603486 -0.8179941430630301 0.44525046824624165
outer loop
vertex 3.4549150281252623 -9.727892058317135 0
vertex 5 -4.972609476841367 10
vertex 2.499999999999998 -9.302736495763558 0
endloop
endfacet
facet normal 0 0 -1
outer loop
vertex 4.477357683661729 -9.945218953682733 0
vertex 3.4549150281252623 -9.727892058317135 0
vertex 5 -4.972609476841367 0
endloop
endfacet
facet normal -0.18616538885993247 -0.8758392937731972 0.44525046824624154
outer loop
vertex 4.477357683661729 -9.945218953682733 0
vertex 5 -4.972609476841367 10
vertex 3.4549150281252623 -9.727892058317135 0
endloop
endfacet
facet normal 0 0 -1
outer loop
vertex 5.52264231633827 -9.945218953682733 0
vertex 4.477357683661729 -9.945218953682733 0
vertex 5 -4.972609476841367 0
endloop
endfacet
facet normal 0 -0.8954060646022585 0.4452504682462401
outer loop
vertex 5.52264231633827 -9.945218953682733 0
vertex 5 -4.972609476841367 10
vertex 4.477357683661729 -9.945218953682733 0
endloop
endfacet
facet normal 0 0 -1
outer loop
vertex 6.545084971874736 -9.727892058317135 0
vertex 5.52264231633827 -9.945218953682733 0
vertex 5 -4.972609476841367 0
endloop
endfacet
facet normal 0.186165388859931 -0.8758392937731968 0.44525046824624304
outer loop
vertex 6.545084971874736 -9.727892058317135 0
vertex 5 -4.972609476841367 10
vertex 5.52264231633827 -9.945218953682733 0
endloop
endfacet
facet normal 0 0 -1
outer loop
vertex 7.5 -9.30273649576356 0
vertex 6.545084971874736 -9.727892058317135 0
vertex 5 -4.972609476841367 0
endloop
endfacet
facet normal 0.3641944569060347 -0.8179941430630302 0.4452504682462418
outer loop
vertex 7.5 -9.30273649576356 0
vertex 5 -4.972609476841367 10
vertex 6.545084971874736 -9.727892058317135 0
endloop
endfacet
facet normal 0 0 -1
outer loop
vertex 8.345653031794292 -8.688333604228337 0
vertex 7.5 -9.30273649576356 0
vertex 5 -4.972609476841367 0
endloop
endfacet
facet normal 0.5263064795864492 -0.7243987231296181 0.4452504682462416
outer loop
vertex 8.345653031794292 -8.688333604228337 0
vertex 5 -4.972609476841367 10
vertex 7.5 -9.30273649576356 0
endloop
endfacet
facet normal 0 0 -1
outer loop
vertex 9.045084971874736 -7.9115357383037335 0
vertex 8.345653031794292 -8.688333604228337 0
vertex 5 -4.972609476841367 0
endloop
endfacet
facet normal 0.6654163836102454 -0.5991436029447073 0.4452504682462419
outer loop
vertex 9.045084971874736 -7.9115357383037335 0
vertex 5 -4.972609476841367 10
vertex 8.345653031794292 -8.688333604228337 0
endloop
endfacet
facet normal 0 0 -1
outer loop
vertex 9.567727288213005 -7.006292692220367 0
vertex 9.045084971874736 -7.9115357383037335 0
vertex 5 -4.972609476841367 0
endloop
endfacet
facet normal 0.775444398648205 -0.44770303230112923 0.44525046824624176
outer loop
vertex 9.567727288213005 -7.006292692220367 0
vertex 5 -4.972609476841367 10
vertex 9.045084971874736 -7.9115357383037335 0
endloop
endfacet
facet normal 0 0 -1
outer loop
vertex 9.890738003669028 -6.0121679309301665 0
vertex 9.567727288213005 -7.006292692220367 0
vertex 5 -4.972609476841367 0
endloop
endfacet
facet normal 0.8515817724701766 -0.27669569082848977 0.4452504682462414
outer loop
vertex 9.890738003669028 -6.0121679309301665 0
vertex 5 -4.972609476841367 10
vertex 9.567727288213005 -7.006292692220367 0
endloop
endfacet
facet normal 0 0 -1
outer loop
vertex 10 -4.972609476841368 0
vertex 9.890738003669028 -6.0121679309301665 0
vertex 5 -4.972609476841367 0
endloop
endfacet
facet normal 0.890500936492484 -0.09359541993341165 0.44525046824624154
outer loop
vertex 10 -4.972609476841368 0
vertex 5 -4.972609476841367 10
vertex 9.890738003669028 -6.0121679309301665 0
endloop
endfacet
endsolid craftml
