solid craftml
facet normal 0 0 -1
outer loop
vertex 15 -5 0
vertex 14.84807753012208 -6.7364817766693035 0
vertex 14.396926207859085 -8.420201433256686 0
endloop
endfacet
facet normal 0 0 -1
outer loop
vertex 15 -5 0
vertex 14.396926207859085 -8.420201433256686 0
vertex 13.660254037844387 -10 0
endloop
endfacet
facet normal 0 0 -1
outer loop
vertex 15 -5 0
vertex 13.660254037844387 -10 0
vertex 12.66044443118978 -11.427876096865393 0
endloop
endfacet
facet normal 0 0 -1
outer loop
vertex 15 -5 0
vertex 12.66044443118978 -11.427876096865393 0
vertex 11.427876096865393 -12.66044443118978 0
endloop
endfacet
facet normal 0 0 -1
outer loop
vertex 15 -5 0
vertex 11.427876096865393 -12.66044443118978 0
vertex 10 -13.660254037844386 0
endloop
endfacet
facet normal 0 0 -1
outer loop
vertex 15 -5 0
vertex 10 -13.660254037844386 0
vertex 8.420201433256688 -14.396926207859083 0
endloop
endfacet
facet normal 0 0 -1
outer loop
vertex 15 -5 0
vertex 8.420201433256688 -14.396926207859083 0
vertex 6.736481776669304 -14.84807753012208 0
endloop
endfacet
facet normal 0 0 -1
outer loop
vertex 15 -5 0
vertex 6.736481776669304 -14.84807753012208 0
vertex 5.000000000000001 -15 0
endloop
endfacet
facet normal 0 0 -1
outer loop
vertex 15 -5 0
vertex 5.000000000000001 -15 0
vertex 3.263518223330697 -14.84807753012208 0
endloop
endfacet
facet normal 0 0 -1
outer loop
vertex 15 -5 0
vertex 3.263518223330697 -14.84807753012208 0
vertex 1.5797985667433152 -14.396926207859085 0
endloop
endfacet
facet normal 0 0 -1
outer loop
vertex 15 -5 0
vertex 1.5797985667433152 -14.396926207859085 0
vertex 1.7763568394002505e-15 -13.660254037844387 0
endloop
endfacet
facet normal 0 0 -1
outer loop
vertex 15 -5 0
vertex 1.7763568394002505e-15 -13.660254037844387 0
vertex -1.4278760968653934 -12.66044443118978 0
endloop
endfacet
facet normal 0 0 -1
outer loop
vertex 15 -5 0
vertex -1.4278760968653934 -12.66044443118978 0
vertex -2.660444431189779 -11.427876096865395 0
endloop
endfacet
facet normal 0 0 -1
outer loop
vertex 15 -5 0
vertex -2.660444431189779 -11.427876096865395 0
vertex -3.6602540378443855 -10.000000000000004 0
endloop
endfacet
facet normal 0 0 -1
outer loop
vertex 15 -5 0
vertex -3.6602540378443855 -10.000000000000004 0
vertex -4.396926207859083 -8.42020143325669 0
endloop
endfacet
facet normal 0 0 -1
outer loop
vertex 15 -5 0
vertex -4.396926207859083 -8.42020143325669 0
vertex -4.8480775301220795 -6.736481776669303 0
endloop
endfacet
facet normal 0 0 -1
outer loop
vertex 15 -5 0
vertex -4.8480775301220795 -6.736481776669303 0
vertex -5 -5.000000000000001 0
endloop
endfacet
facet normal 0 0 -1
outer loop
vertex 15 -5 0
vertex -5 -5.000000000000001 0
vertex -4.848077530122081 -3.2635182233306996 0
endloop
endfacet
facet normal 0 0 -1
outer loop
vertex 15 -5 0
vertex -4.848077530122081 -3.2635182233306996 0
vertex -4.396926207859085 -1.5797985667433134 0
endloop
endfacet
facet normal 0 0 -1
outer loop
vertex 15 -5 0
vertex -4.396926207859085 -1.5797985667433134 0
vertex -3.6602540378443855 8.881784197001252e-16 0
endloop
endfacet
facet normal 0 0 -1
outer loop
vertex 15 -5 0
vertex -3.6602540378443855 8.881784197001252e-16 0
vertex -2.6604444311897835 1.427876096865389 0
endloop
endfacet
facet normal 0 0 -1
outer loop
vertex 15 -5 0
vertex -2.6604444311897835 1.427876096865389 0
vertex -1.4278760968653952 2.660444431189779 0
endloop
endfacet
facet normal 0 0 -1
outer loop
vertex 15 -5 0
vertex -1.4278760968653952 2.660444431189779 0
vertex -4.440892098500626e-15 3.6602540378443837 0
endloop
endfacet
facet normal 0 0 -1
outer loop
vertex 15 -5 0
vertex -4.440892098500626e-15 3.6602540378443837 0
vertex 1.5797985667433148 4.396926207859085 0
endloop
endfacet
facet normal 0 0 -1
outer loop
vertex 15 -5 0
vertex 1.5797985667433148 4.396926207859085 0
vertex 3.2635182233306965 4.8480775301220795 0
endloop
endfacet
facet normal 0 0 -1
outer loop
vertex 15 -5 0
vertex 3.2635182233306965 4.8480775301220795 0
vertex 4.999999999999998 5 0
endloop
endfacet
facet normal 0 0 -1
outer loop
vertex 15 -5 0
vertex 4.999999999999998 5 0
vertex 6.7364817766693 4.848077530122081 0
endloop
endfacet
facet normal 0 0 -1
outer loop
vertex 15 -5 0
vertex 6.7364817766693 4.848077530122081 0
vertex 8.42020143325669 4.396926207859083 0
endloop
endfacet
facet normal 0 0 -1
outer loop
vertex 15 -5 0
vertex 8.42020143325669 4.396926207859083 0
vertex 9.999999999999993 3.660254037844391 0
endloop
endfacet
facet normal 0 0 -1
outer loop
vertex 15 -5 0
vertex 9.999999999999993 3.660254037844391 0
vertex 11.427876096865393 2.660444431189781 0
endloop
endfacet
facet normal 0 0 -1
outer loop
vertex 15 -5 0
vertex 11.427876096865393 2.660444431189781 0
vertex 12.660444431189779 1.427876096865396 0
endloop
endfacet
facet normal 0 0 -1
outer loop
vertex 15 -5 0
vertex 12.660444431189779 1.427876096865396 0
vertex 13.660254037844389 -3.552713678800501e-15 0
endloop
endfacet
facet normal 0 0 -1
outer loop
vertex 15 -5 0
vertex 13.660254037844389 -3.552713678800501e-15 0
vertex 14.396926207859085 -1.5797985667433139 0
endloop
endfacet
facet normal 0 0 -1
outer loop
vertex 15 -5 0
vertex 14.396926207859085 -1.5797985667433139 0
vertex 14.84807753012208 -3.263518223330696 0
endloop
endfacet
facet normal 0 0 -1
outer loop
vertex 15 -5 0
vertex 14.84807753012208 -3.263518223330696 0
vertex 15 -4.999999999999997 0
endloop
endfacet
facet normal 0 0 1
outer loop
vertex 10 -4.999999999999999 10
vertex 9.92403876506104 -4.131759111665348 10
vertex 9.698463103929543 -3.289899283371657 10
endloop
endfacet
facet normal 0 0 1
outer loop
vertex 10 -4.999999999999999 10
vertex 9.698463103929543 -3.289899283371657 10
vertex 9.330127018922195 -2.5000000000000018 10
endloop
endfacet
facet normal 0 0 1
outer loop
vertex 10 -4.999999999999999 10
vertex 9.330127018922195 -2.5000000000000018 10
vertex 8.83022221559489 -1.786061951567302 10
endloop
endfacet
facet normal 0 0 1
outer loop
vertex 10 -4.999999999999999 10
vertex 8.83022221559489 -1.786061951567302 10
vertex 8.213938048432697 -1.1697777844051096 10
endloop
endfacet
facet normal 0 0 1
outer loop
vertex 10 -4.999999999999999 10
vertex 8.213938048432697 -1.1697777844051096 10
vertex 7.4999999999999964 -0.6698729810778046 10
endloop
endfacet
facet normal 0 0 1
outer loop
vertex 10 -4.999999999999999 10
vertex 7.4999999999999964 -0.6698729810778046 10
vertex 6.710100716628345 -0.3015368960704583 10
endloop
endfacet
facet normal 0 0 1
outer loop
vertex 10 -4.999999999999999 10
vertex 6.710100716628345 -0.3015368960704583 10
vertex 5.8682408883346495 -0.07596123493895934 10
endloop
endfacet
facet normal 0 0 1
outer loop
vertex 10 -4.999999999999999 10
vertex 5.8682408883346495 -0.07596123493895934 10
vertex 4.999999999999999 0 10
endloop
endfacet
facet normal 0 0 1
outer loop
vertex 10 -4.999999999999999 10
vertex 4.999999999999999 0 10
vertex 4.131759111665349 -0.07596123493896023 10
endloop
endfacet
facet normal 0 0 1
outer loop
vertex 10 -4.999999999999999 10
vertex 4.131759111665349 -0.07596123493896023 10
vertex 3.2898992833716574 -0.3015368960704574 10
endloop
endfacet
facet normal 0 0 1
outer loop
vertex 10 -4.999999999999999 10
vertex 3.2898992833716574 -0.3015368960704574 10
vertex 2.499999999999998 -0.6698729810778081 10
endloop
endfacet
facet normal 0 0 1
outer loop
vertex 10 -4.999999999999999 10
vertex 2.499999999999998 -0.6698729810778081 10
vertex 1.7860619515673024 -1.1697777844051105 10
endloop
endfacet
facet normal 0 0 1
outer loop
vertex 10 -4.999999999999999 10
vertex 1.7860619515673024 -1.1697777844051105 10
vertex 1.1697777844051083 -1.7860619515673055 10
endloop
endfacet
facet normal 0 0 1
outer loop
vertex 10 -4.999999999999999 10
vertex 1.1697777844051083 -1.7860619515673055 10
vertex 0.6698729810778072 -2.4999999999999996 10
endloop
endfacet
facet normal 0 0 1
outer loop
vertex 10 -4.999999999999999 10
vertex 0.6698729810778072 -2.4999999999999996 10
vertex 0.3015368960704574 -3.289899283371657 10
endloop
endfacet
facet normal 0 0 1
outer loop
vertex 10 -4.999999999999999 10
vertex 0.3015368960704574 -3.289899283371657 10
vertex 0.07596123493895934 -4.13175911166535 10
endloop
endfacet
facet normal 0 0 1
outer loop
vertex 10 -4.999999999999999 10
vertex 0.07596123493895934 -4.13175911166535 10
vertex 0 -5.000000000000001 10
endloop
endfacet
facet normal 0 0 1
outer loop
vertex 10 -4.999999999999999 10
vertex 0 -5.000000000000001 10
vertex 0.07596123493896023 -5.868240888334651 10
endloop
endfacet
facet normal 0 0 1
outer loop
vertex 10 -4.999999999999999 10
vertex 0.07596123493896023 -5.868240888334651 10
vertex 0.3015368960704583 -6.710100716628345 10
endloop
endfacet
facet normal 0 0 1
outer loop
vertex 10 -4.999999999999999 10
vertex 0.3015368960704583 -6.710100716628345 10
vertex 0.6698729810778072 -7.500000000000002 10
endloop
endfacet
facet normal 0 0 1
outer loop
vertex 10 -4.999999999999999 10
vertex 0.6698729810778072 -7.500000000000002 10
vertex 1.1697777844051105 -8.213938048432698 10
endloop
endfacet
facet normal 0 0 1
outer loop
vertex 10 -4.999999999999999 10
vertex 1.1697777844051105 -8.213938048432698 10
vertex 1.7860619515673033 -8.83022221559489 10
endloop
endfacet
facet normal 0 0 1
outer loop
vertex 10 -4.999999999999999 10
vertex 1.7860619515673033 -8.83022221559489 10
vertex 2.500000000000001 -9.330127018922195 10
endloop
endfacet
facet normal 0 0 1
outer loop
vertex 10 -4.999999999999999 10
vertex 2.500000000000001 -9.330127018922195 10
vertex 3.289899283371658 -9.698463103929543 10
endloop
endfacet
facet normal 0 0 1
outer loop
vertex 10 -4.999999999999999 10
vertex 3.289899283371658 -9.698463103929543 10
vertex 4.131759111665349 -9.92403876506104 10
endloop
endfacet
facet normal 0 0 1
outer loop
vertex 10 -4.999999999999999 10
vertex 4.131759111665349 -9.92403876506104 10
vertex 5 -10 10
endloop
endfacet
facet normal 0 0 1
outer loop
vertex 10 -4.999999999999999 10
vertex 5 -10 10
vertex 5.868240888334652 -9.92403876506104 10
endloop
endfacet
facet normal 0 0 1
outer loop
vertex 10 -4.999999999999999 10
vertex 5.868240888334652 -9.92403876506104 10
vertex 6.710100716628344 -9.69846310392954 10
endloop
endfacet
facet normal 0 0 1
outer loop
vertex 10 -4.999999999999999 10
vertex 6.710100716628344 -9.69846310392954 10
vertex 7.5 -9.330127018922193 10
endloop
endfacet
facet normal 0 0 1
outer loop
vertex 10 -4.999999999999999 10
vertex 7.5 -9.330127018922193 10
vertex 8.213938048432697 -8.83022221559489 10
endloop
endfacet
facet normal 0 0 1
outer loop
vertex 10 -4.999999999999999 10
vertex 8.213938048432697 -8.83022221559489 10
vertex 8.83022221559489 -8.213938048432697 10
endloop
endfacet
facet normal 0 0 1
outer loop
vertex 10 -4.999999999999999 10
vertex 8.83022221559489 -8.213938048432697 10
vertex 9.330127018922195 -7.5 10
endloop
endfacet
facet normal 0 0 1
outer loop
vertex 10 -4.999999999999999 10
vertex 9.330127018922195 -7.5 10
vertex 9.698463103929543 -6.710100716628343 10
endloop
endfacet
facet normal 0 0 1
outer loop
vertex 10 -4.999999999999999 10
vertex 9.698463103929543 -6.710100716628343 10
vertex 9.92403876506104 -5.868240888334651 10
endloop
endfacet
facet normal 0 0 1
outer loop
vertex 10 -4.999999999999999 10
vertex 9.92403876506104 -5.868240888334651 10
vertex 10 -5 10
endloop
endfacet
facet normal 0.8917012302259328 -0.0780137488968889 0.44585061511296686
outer loop
vertex 15 -5 0
vertex 10 -5 10
vertex 9.92403876506104 -5.868240888334651 10
endloop
endfacet
facet normal 0.891701230225933 -0.07801374889688888 0.4458506151129669
outer loop
vertex 14.84807753012208 -6.7364817766693035 0
vertex 15 -5 0
vertex 9.92403876506104 -5.868240888334651 10
endloop
endfacet
facet normal 0.8646073395681126 -0.2316708384072957 0.4458506151129669
outer loop
vertex 14.84807753012208 -6.7364817766693035 0
vertex 9.92403876506104 -5.868240888334651 10
vertex 9.698463103929543 -6.710100716628343 10
endloop
endfacet
facet normal 0.8646073395681128 -0.2316708384072958 0.4458506151129669
outer loop
vertex 14.396926207859085 -8.420201433256686 0
vertex 14.84807753012208 -6.7364817766693035 0
vertex 9.698463103929543 -6.710100716628343 10
endloop
endfacet
facet normal 0.8112427924099392 -0.37828872672379943 0.44585061511296675
outer loop
vertex 14.396926207859085 -8.420201433256686 0
vertex 9.698463103929543 -6.710100716628343 10
vertex 9.330127018922195 -7.5 10
endloop
endfacet
facet normal 0.8112427924099389 -0.37828872672379976 0.44585061511296703
outer loop
vertex 13.660254037844387 -10 0
vertex 14.396926207859085 -8.420201433256686 0
vertex 9.330127018922195 -7.5 10
endloop
endfacet
facet normal 0.7332290435130501 -0.5134125035021333 0.44585061511296575
outer loop
vertex 13.660254037844387 -10 0
vertex 9.330127018922195 -7.5 10
vertex 8.83022221559489 -8.213938048432697 10
endloop
endfacet
facet normal 0.7332290435130495 -0.513412503502133 0.44585061511296703
outer loop
vertex 12.66044443118978 -11.427876096865393 0
vertex 13.660254037844387 -10 0
vertex 8.83022221559489 -8.213938048432697 10
endloop
endfacet
facet normal 0.6329365011608151 -0.6329365011608151 0.445850615112967
outer loop
vertex 12.66044443118978 -11.427876096865393 0
vertex 8.83022221559489 -8.213938048432697 10
vertex 8.213938048432697 -8.83022221559489 10
endloop
endfacet
facet normal 0.6329365011608151 -0.6329365011608151 0.445850615112967
outer loop
vertex 11.427876096865393 -12.66044443118978 0
vertex 12.66044443118978 -11.427876096865393 0
vertex 8.213938048432697 -8.83022221559489 10
endloop
endfacet
facet normal 0.5134125035021312 -0.7332290435130505 0.4458506151129675
outer loop
vertex 11.427876096865393 -12.66044443118978 0
vertex 8.213938048432697 -8.83022221559489 10
vertex 7.5 -9.330127018922193 10
endloop
endfacet
facet normal 0.5134125035021323 -0.7332290435130495 0.4458506151129674
outer loop
vertex 10 -13.660254037844386 0
vertex 11.427876096865393 -12.66044443118978 0
vertex 7.5 -9.330127018922193 10
endloop
endfacet
facet normal 0.37828872672379943 -0.8112427924099392 0.44585061511296675
outer loop
vertex 10 -13.660254037844386 0
vertex 7.5 -9.330127018922193 10
vertex 6.710100716628344 -9.69846310392954 10
endloop
endfacet
facet normal 0.37828872672380015 -0.8112427924099388 0.445850615112967
outer loop
vertex 8.420201433256688 -14.396926207859083 0
vertex 10 -13.660254037844386 0
vertex 6.710100716628344 -9.69846310392954 10
endloop
endfacet
facet normal 0.2316708384072978 -0.8646073395681122 0.4458506151129666
outer loop
vertex 8.420201433256688 -14.396926207859083 0
vertex 6.710100716628344 -9.69846310392954 10
vertex 5.868240888334652 -9.92403876506104 10
endloop
endfacet
facet normal 0.2316708384072978 -0.8646073395681122 0.4458506151129666
outer loop
vertex 6.736481776669304 -14.84807753012208 0
vertex 8.420201433256688 -14.396926207859083 0
vertex 5.868240888334652 -9.92403876506104 10
endloop
endfacet
facet normal 0.07801374889689086 -0.8917012302259327 0.44585061511296675
outer loop
vertex 6.736481776669304 -14.84807753012208 0
vertex 5.868240888334652 -9.92403876506104 10
vertex 5 -10 10
endloop
endfacet
facet normal 0.07801374889688889 -0.891701230225933 0.4458506151129669
outer loop
vertex 5.000000000000001 -15 0
vertex 6.736481776669304 -14.84807753012208 0
vertex 5 -10 10
endloop
endfacet
facet normal -0.0780137488968889 -0.8917012302259328 0.44585061511296686
outer loop
vertex 5.000000000000001 -15 0
vertex 5 -10 10
vertex 4.131759111665349 -9.92403876506104 10
endloop
endfacet
facet normal -0.0780137488968889 -0.8917012302259328 0.44585061511296686
outer loop
vertex 3.263518223330697 -14.84807753012208 0
vertex 5.000000000000001 -15 0
vertex 4.131759111665349 -9.92403876506104 10
endloop
endfacet
facet normal -0.2316708384072957 -0.8646073395681126 0.4458506151129669
outer loop
vertex 3.263518223330697 -14.84807753012208 0
vertex 4.131759111665349 -9.92403876506104 10
vertex 3.289899283371658 -9.698463103929543 10
endloop
endfacet
facet normal -0.2316708384072958 -0.8646073395681128 0.4458506151129669
outer loop
vertex 1.5797985667433152 -14.396926207859085 0
vertex 3.263518223330697 -14.84807753012208 0
vertex 3.289899283371658 -9.698463103929543 10
endloop
endfacet
facet normal -0.37828872672379943 -0.8112427924099392 0.44585061511296675
outer loop
vertex 1.5797985667433152 -14.396926207859085 0
vertex 3.289899283371658 -9.698463103929543 10
vertex 2.500000000000001 -9.330127018922195 10
endloop
endfacet
facet normal -0.37828872672379943 -0.8112427924099392 0.44585061511296675
outer loop
vertex 1.7763568394002505e-15 -13.660254037844387 0
vertex 1.5797985667433152 -14.396926207859085 0
vertex 2.500000000000001 -9.330127018922195 10
endloop
endfacet
facet normal -0.5134125035021331 -0.7332290435130497 0.4458506151129664
outer loop
vertex 1.7763568394002505e-15 -13.660254037844387 0
vertex 2.500000000000001 -9.330127018922195 10
vertex 1.7860619515673033 -8.83022221559489 10
endloop
endfacet
facet normal -0.5134125035021324 -0.73322904351305 0.4458506151129668
outer loop
vertex -1.4278760968653934 -12.66044443118978 0
vertex 1.7763568394002505e-15 -13.660254037844387 0
vertex 1.7860619515673033 -8.83022221559489 10
endloop
endfacet
facet normal -0.6329365011608147 -0.6329365011608157 0.44585061511296653
outer loop
vertex -1.4278760968653934 -12.66044443118978 0
vertex 1.7860619515673033 -8.83022221559489 10
vertex 1.1697777844051105 -8.213938048432698 10
endloop
endfacet
facet normal -0.6329365011608155 -0.6329365011608155 0.44585061511296575
outer loop
vertex -2.660444431189779 -11.427876096865395 0
vertex -1.4278760968653934 -12.66044443118978 0
vertex 1.1697777844051105 -8.213938048432698 10
endloop
endfacet
facet normal -0.7332290435130497 -0.5134125035021331 0.4458506151129664
outer loop
vertex -2.660444431189779 -11.427876096865395 0
vertex 1.1697777844051105 -8.213938048432698 10
vertex 0.6698729810778072 -7.500000000000002 10
endloop
endfacet
facet normal -0.7332290435130496 -0.5134125035021331 0.4458506151129666
outer loop
vertex -3.6602540378443855 -10.000000000000004 0
vertex -2.660444431189779 -11.427876096865395 0
vertex 0.6698729810778072 -7.500000000000002 10
endloop
endfacet
facet normal -0.8112427924099397 -0.37828872672379954 0.4458506151129661
outer loop
vertex -3.6602540378443855 -10.000000000000004 0
vertex 0.6698729810778072 -7.500000000000002 10
vertex 0.3015368960704583 -6.710100716628345 10
endloop
endfacet
facet normal -0.8112427924099387 -0.3782887267238006 0.4458506151129667
outer loop
vertex -4.396926207859083 -8.42020143325669 0
vertex -3.6602540378443855 -10.000000000000004 0
vertex 0.3015368960704583 -6.710100716628345 10
endloop
endfacet
facet normal -0.8646073395681124 -0.23167083840729666 0.44585061511296675
outer loop
vertex -4.396926207859083 -8.42020143325669 0
vertex 0.3015368960704583 -6.710100716628345 10
vertex 0.07596123493896023 -5.868240888334651 10
endloop
endfacet
facet normal -0.8646073395681124 -0.23167083840729666 0.44585061511296675
outer loop
vertex -4.8480775301220795 -6.736481776669303 0
vertex -4.396926207859083 -8.42020143325669 0
vertex 0.07596123493896023 -5.868240888334651 10
endloop
endfacet
facet normal -0.8917012302259328 -0.07801374889688988 0.44585061511296675
outer loop
vertex -4.8480775301220795 -6.736481776669303 0
vertex 0.07596123493896023 -5.868240888334651 10
vertex 0 -5.000000000000001 10
endloop
endfacet
facet normal -0.8917012302259328 -0.07801374889688988 0.44585061511296675
outer loop
vertex -5 -5.000000000000001 0
vertex -4.8480775301220795 -6.736481776669303 0
vertex 0 -5.000000000000001 10
endloop
endfacet
facet normal -0.8917012302259332 0.07801374889688886 0.4458506151129664
outer loop
vertex -5 -5.000000000000001 0
vertex 0 -5.000000000000001 10
vertex 0.07596123493895934 -4.13175911166535 10
endloop
endfacet
facet normal -0.891701230225933 0.07801374889688889 0.4458506151129668
outer loop
vertex -4.848077530122081 -3.2635182233306996 0
vertex -5 -5.000000000000001 0
vertex 0.07596123493895934 -4.13175911166535 10
endloop
endfacet
facet normal -0.8646073395681125 0.2316708384072967 0.44585061511296636
outer loop
vertex -4.848077530122081 -3.2635182233306996 0
vertex 0.07596123493895934 -4.13175911166535 10
vertex 0.3015368960704574 -3.289899283371657 10
endloop
endfacet
facet normal -0.8646073395681126 0.23167083840729677 0.4458506151129665
outer loop
vertex -4.396926207859085 -1.5797985667433134 0
vertex -4.848077530122081 -3.2635182233306996 0
vertex 0.3015368960704574 -3.289899283371657 10
endloop
endfacet
facet normal -0.8112427924099388 0.37828872672380076 0.4458506151129665
outer loop
vertex -4.396926207859085 -1.5797985667433134 0
vertex 0.3015368960704574 -3.289899283371657 10
vertex 0.6698729810778072 -2.4999999999999996 10
endloop
endfacet
facet normal -0.8112427924099387 0.37828872672380087 0.44585061511296653
outer loop
vertex -3.6602540378443855 8.881784197001252e-16 0
vertex -4.396926207859085 -1.5797985667433134 0
vertex 0.6698729810778072 -2.4999999999999996 10
endloop
endfacet
facet normal -0.7332290435130497 0.5134125035021329 0.4458506151129664
outer loop
vertex -3.6602540378443855 8.881784197001252e-16 0
vertex 0.6698729810778072 -2.4999999999999996 10
vertex 1.1697777844051083 -1.7860619515673055 10
endloop
endfacet
facet normal -0.7332290435130498 0.5134125035021324 0.4458506151129666
outer loop
vertex -2.6604444311897835 1.427876096865389 0
vertex -3.6602540378443855 8.881784197001252e-16 0
vertex 1.1697777844051083 -1.7860619515673055 10
endloop
endfacet
facet normal -0.6329365011608153 0.6329365011608149 0.44585061511296675
outer loop
vertex -2.6604444311897835 1.427876096865389 0
vertex 1.1697777844051083 -1.7860619515673055 10
vertex 1.7860619515673024 -1.1697777844051105 10
endloop
endfacet
facet normal -0.6329365011608156 0.6329365011608149 0.4458506151129665
outer loop
vertex -1.4278760968653952 2.660444431189779 0
vertex -2.6604444311897835 1.427876096865389 0
vertex 1.7860619515673024 -1.1697777844051105 10
endloop
endfacet
facet normal -0.5134125035021333 0.7332290435130495 0.4458506151129665
outer loop
vertex -1.4278760968653952 2.660444431189779 0
vertex 1.7860619515673024 -1.1697777844051105 10
vertex 2.499999999999998 -0.6698729810778081 10
endloop
endfacet
facet normal -0.5134125035021326 0.7332290435130497 0.4458506151129666
outer loop
vertex -4.440892098500626e-15 3.6602540378443837 0
vertex -1.4278760968653952 2.660444431189779 0
vertex 2.499999999999998 -0.6698729810778081 10
endloop
endfacet
facet normal -0.37828872672380065 0.8112427924099388 0.4458506151129664
outer loop
vertex -4.440892098500626e-15 3.6602540378443837 0
vertex 2.499999999999998 -0.6698729810778081 10
vertex 3.2898992833716574 -0.3015368960704574 10
endloop
endfacet
facet normal -0.3782887267238007 0.8112427924099388 0.44585061511296664
outer loop
vertex 1.5797985667433148 4.396926207859085 0
vertex -4.440892098500626e-15 3.6602540378443837 0
vertex 3.2898992833716574 -0.3015368960704574 10
endloop
endfacet
facet normal -0.23167083840729571 0.8646073395681128 0.4458506151129667
outer loop
vertex 1.5797985667433148 4.396926207859085 0
vertex 3.2898992833716574 -0.3015368960704574 10
vertex 4.131759111665349 -0.07596123493896023 10
endloop
endfacet
facet normal -0.23167083840729627 0.8646073395681128 0.44585061511296636
outer loop
vertex 3.2635182233306965 4.8480775301220795 0
vertex 1.5797985667433148 4.396926207859085 0
vertex 4.131759111665349 -0.07596123493896023 10
endloop
endfacet
facet normal -0.07801374889689036 0.8917012302259331 0.4458506151129664
outer loop
vertex 3.2635182233306965 4.8480775301220795 0
vertex 4.131759111665349 -0.07596123493896023 10
vertex 4.999999999999999 0 10
endloop
endfacet
facet normal -0.07801374889688986 0.8917012302259331 0.4458506151129664
outer loop
vertex 4.999999999999998 5 0
vertex 3.2635182233306965 4.8480775301220795 0
vertex 4.999999999999999 0 10
endloop
endfacet
facet normal 0.07801374889688886 0.8917012302259332 0.44585061511296636
outer loop
vertex 4.999999999999998 5 0
vertex 4.999999999999999 0 10
vertex 5.8682408883346495 -0.07596123493895934 10
endloop
endfacet
facet normal 0.07801374889688889 0.8917012302259331 0.44585061511296653
outer loop
vertex 6.7364817766693 4.848077530122081 0
vertex 4.999999999999998 5 0
vertex 5.8682408883346495 -0.07596123493895934 10
endloop
endfacet
facet normal 0.23167083840729671 0.8646073395681124 0.4458506151129668
outer loop
vertex 6.7364817766693 4.848077530122081 0
vertex 5.8682408883346495 -0.07596123493895934 10
vertex 6.710100716628345 -0.3015368960704583 10
endloop
endfacet
facet normal 0.23167083840729683 0.8646073395681125 0.44585061511296675
outer loop
vertex 8.42020143325669 4.396926207859083 0
vertex 6.7364817766693 4.848077530122081 0
vertex 6.710100716628345 -0.3015368960704583 10
endloop
endfacet
facet normal 0.3782887267238005 0.8112427924099387 0.44585061511296664
outer loop
vertex 8.42020143325669 4.396926207859083 0
vertex 6.710100716628345 -0.3015368960704583 10
vertex 7.4999999999999964 -0.6698729810778046 10
endloop
endfacet
facet normal 0.3782887267238005 0.8112427924099387 0.44585061511296664
outer loop
vertex 9.999999999999993 3.660254037844391 0
vertex 8.42020143325669 4.396926207859083 0
vertex 7.4999999999999964 -0.6698729810778046 10
endloop
endfacet
facet normal 0.5134125035021331 0.7332290435130496 0.4458506151129666
outer loop
vertex 9.999999999999993 3.660254037844391 0
vertex 7.4999999999999964 -0.6698729810778046 10
vertex 8.213938048432697 -1.1697777844051096 10
endloop
endfacet
facet normal 0.5134125035021322 0.7332290435130501 0.4458506151129666
outer loop
vertex 11.427876096865393 2.660444431189781 0
vertex 9.999999999999993 3.660254037844391 0
vertex 8.213938048432697 -1.1697777844051096 10
endloop
endfacet
facet normal 0.6329365011608147 0.6329365011608157 0.44585061511296653
outer loop
vertex 11.427876096865393 2.660444431189781 0
vertex 8.213938048432697 -1.1697777844051096 10
vertex 8.83022221559489 -1.786061951567302 10
endloop
endfacet
facet normal 0.6329365011608147 0.6329365011608157 0.44585061511296653
outer loop
vertex 12.660444431189779 1.427876096865396 0
vertex 11.427876096865393 2.660444431189781 0
vertex 8.83022221559489 -1.786061951567302 10
endloop
endfacet
facet normal 0.7332290435130506 0.5134125035021321 0.44585061511296586
outer loop
vertex 12.660444431189779 1.427876096865396 0
vertex 8.83022221559489 -1.786061951567302 10
vertex 9.330127018922195 -2.5000000000000018 10
endloop
endfacet
facet normal 0.73322904351305 0.5134125035021324 0.4458506151129668
outer loop
vertex 13.660254037844389 -3.552713678800501e-15 0
vertex 12.660444431189779 1.427876096865396 0
vertex 9.330127018922195 -2.5000000000000018 10
endloop
endfacet
facet normal 0.8112427924099392 0.37828872672379943 0.44585061511296675
outer loop
vertex 13.660254037844389 -3.552713678800501e-15 0
vertex 9.330127018922195 -2.5000000000000018 10
vertex 9.698463103929543 -3.289899283371657 10
endloop
endfacet
facet normal 0.8112427924099392 0.37828872672379943 0.44585061511296675
outer loop
vertex 14.396926207859085 -1.5797985667433139 0
vertex 13.660254037844389 -3.552713678800501e-15 0
vertex 9.698463103929543 -3.289899283371657 10
endloop
endfacet
facet normal 0.8646073395681126 0.2316708384072957 0.4458506151129669
outer loop
vertex 14.396926207859085 -1.5797985667433139 0
vertex 9.698463103929543 -3.289899283371657 10
vertex 9.92403876506104 -4.131759111665348 10
endloop
endfacet
facet normal 0.8646073395681128 0.2316708384072958 0.4458506151129669
outer loop
vertex 14.84807753012208 -3.263518223330696 0
vertex 14.396926207859085 -1.5797985667433139 0
vertex 9.92403876506104 -4.131759111665348 10
endloop
endfacet
facet normal 0.8917012302259328 0.07801374889689086 0.44585061511296686
outer loop
vertex 14.84807753012208 -3.263518223330696 0
vertex 9.92403876506104 -4.131759111665348 10
vertex 10 -4.999999999999999 10
endloop
endfacet
facet normal 0.8917012302259328 0.0780137488968889 0.44585061511296686
outer loop
vertex 15 -4.999999999999997 0
vertex 14.84807753012208 -3.263518223330696 0
vertex 10 -4.999999999999999 10
endloop
endfacet
endsolid craftml
