solid craftml
facet normal 0 0 -1
outer loop
vertex 11.79555495773441 -4.136502875261852 0
vertex 12 -6 0
vertex 6 -6 0
endloop
endfacet
facet normal 0 0 1
outer loop
vertex 12 -6 5
vertex 11.79555495773441 -4.136502875261852 5
vertex 6 -6 5
endloop
endfacet
facet normal 0 0 -1
outer loop
vertex 11.196152422706632 -2.4000000000000012 0
vertex 11.79555495773441 -4.136502875261852 0
vertex 6 -6 0
endloop
endfacet
facet normal 0 0 1
outer loop
vertex 11.79555495773441 -4.136502875261852 5
vertex 11.196152422706632 -2.4000000000000012 5
vertex 6 -6 5
endloop
endfacet
facet normal 0 0 -1
outer loop
vertex 10.242640687119286 -0.908831175456859 0
vertex 11.196152422706632 -2.4000000000000012 0
vertex 6 -6 0
endloop
endfacet
facet normal 0.8424858640827876 0.5387184504179143 0
outer loop
vertex 10.242640687119286 -0.908831175456859 5
vertex 10.352469272157197 -1.080588853878445 5
vertex 10.352469272157197 -1.0805888538784454 0
endloop
endfacet
facet normal 0.8424858640827876 0.5387184504179143 0
outer loop
vertex 10.242640687119286 -0.908831175456859 5
vertex 10.352469272157197 -1.0805888538784454 0
vertex 10.242640687119286 -0.908831175456859 0
endloop
endfacet
facet normal 0.8424858640827876 0.5387184504179143 0
outer loop
vertex 10.352469272157197 -1.080588853878445 5
vertex 10.803980985840711 -1.7866946795672891 5
vertex 10.803980985840711 -1.7866946795672891 0
endloop
endfacet
facet normal 0.8424858640827876 0.5387184504179143 0
outer loop
vertex 10.352469272157197 -1.080588853878445 5
vertex 10.803980985840711 -1.7866946795672891 0
vertex 10.352469272157197 -1.0805888538784454 0
endloop
endfacet
facet normal 0.8424858640827876 0.5387184504179143 0
outer loop
vertex 10.803980985840711 -1.7866946795672891 5
vertex 11 -2.0932430229413326 5
vertex 10.999999999999998 -2.0932430229413312 0
endloop
endfacet
facet normal 0.8424858640827876 0.5387184504179143 0
outer loop
vertex 10.803980985840711 -1.7866946795672891 5
vertex 10.999999999999998 -2.0932430229413312 0
vertex 10.803980985840711 -1.7866946795672891 0
endloop
endfacet
facet normal 0 0 1
outer loop
vertex 11.196152422706632 -2.4000000000000012 5
vertex 10.242640687119286 -0.908831175456859 5
vertex 6 -6 5
endloop
endfacet
facet normal 0 0 -1
outer loop
vertex 9 0.23538290724795774 0
vertex 10.242640687119286 -0.908831175456859 0
vertex 6 -6 0
endloop
endfacet
facet normal 0.677372169844171 0.7356404988311883 0
outer loop
vertex 9 0.23538290724795774 5
vertex 10.242640687119286 -0.908831175456859 5
vertex 10.242640687119286 -0.908831175456859 0
endloop
endfacet
facet normal 0.677372169844171 0.7356404988311883 0
outer loop
vertex 9 0.23538290724795774 5
vertex 10.242640687119286 -0.908831175456859 0
vertex 9 0.23538290724795774 0
endloop
endfacet
facet normal 0 0 1
outer loop
vertex 10.242640687119286 -0.908831175456859 5
vertex 9 0.23538290724795774 5
vertex 6 -6 5
endloop
endfacet
facet normal 0 0 -1
outer loop
vertex 7.552914270615124 0.9546659492812914 0
vertex 9 0.23538290724795774 0
vertex 6 -6 0
endloop
endfacet
facet normal 0.44510351693809486 0.8954791227099264 0
outer loop
vertex 7.552914270615124 0.9546659492812914 5
vertex 9 0.23538290724795774 5
vertex 9 0.23538290724795774 0
endloop
endfacet
facet normal 0.44510351693809486 0.8954791227099264 0
outer loop
vertex 7.552914270615124 0.9546659492812914 5
vertex 9 0.23538290724795774 0
vertex 7.552914270615124 0.9546659492812914 0
endloop
endfacet
facet normal 0 0 1
outer loop
vertex 9 0.23538290724795774 5
vertex 7.552914270615124 0.9546659492812914 5
vertex 6 -6 5
endloop
endfacet
facet normal 0 0 -1
outer loop
vertex 6 1.1999999999999993 0
vertex 7.552914270615124 0.9546659492812914 0
vertex 6 -6 0
endloop
endfacet
facet normal 0.15604763135686747 0.987749531383291 0
outer loop
vertex 6 1.1999999999999993 5
vertex 7.552914270615124 0.9546659492812914 5
vertex 7.552914270615124 0.9546659492812914 0
endloop
endfacet
facet normal 0.15604763135686747 0.987749531383291 0
outer loop
vertex 6 1.1999999999999993 5
vertex 7.552914270615124 0.9546659492812914 0
vertex 6 1.1999999999999993 0
endloop
endfacet
facet normal 0 0 1
outer loop
vertex 7.552914270615124 0.9546659492812914 5
vertex 6 1.1999999999999993 5
vertex 6 -6 5
endloop
endfacet
facet normal 0 0 -1
outer loop
vertex 4.447085729384875 0.9546659492812914 0
vertex 6 1.1999999999999993 0
vertex 6 -6 0
endloop
endfacet
facet normal -0.1560476313568677 0.987749531383291 0
outer loop
vertex 4.447085729384875 0.9546659492812914 5
vertex 6 1.1999999999999993 5
vertex 6 1.1999999999999993 0
endloop
endfacet
facet normal -0.1560476313568677 0.987749531383291 0
outer loop
vertex 4.447085729384875 0.9546659492812914 5
vertex 6 1.1999999999999993 0
vertex 4.447085729384875 0.9546659492812914 0
endloop
endfacet
facet normal 0 0 1
outer loop
vertex 6 1.1999999999999993 5
vertex 4.447085729384875 0.9546659492812914 5
vertex 6 -6 5
endloop
endfacet
facet normal 0 0 -1
outer loop
vertex 3.0000000000000013 0.23538290724795774 0
vertex 4.447085729384875 0.9546659492812914 0
vertex 6 -6 0
endloop
endfacet
facet normal -0.44510351693809563 0.8954791227099259 0
outer loop
vertex 3.0000000000000013 0.23538290724795774 5
vertex 4.447085729384875 0.9546659492812914 5
vertex 4.447085729384875 0.9546659492812914 0
endloop
endfacet
facet normal -0.44510351693809563 0.8954791227099259 0
outer loop
vertex 3.0000000000000013 0.23538290724795774 5
vertex 4.447085729384875 0.9546659492812914 0
vertex 3.0000000000000013 0.23538290724795774 0
endloop
endfacet
facet normal 0 0 1
outer loop
vertex 4.447085729384875 0.9546659492812914 5
vertex 3.0000000000000013 0.23538290724795774 5
vertex 6 -6 5
endloop
endfacet
facet normal 0 0 -1
outer loop
vertex 1.7573593128807152 -0.9088311754568577 0
vertex 3.0000000000000013 0.23538290724795774 0
vertex 6 -6 0
endloop
endfacet
facet normal -0.6773721698441705 0.7356404988311888 0
outer loop
vertex 1.7573593128807152 -0.9088311754568577 5
vertex 3.0000000000000013 0.23538290724795774 5
vertex 3.0000000000000013 0.23538290724795774 0
endloop
endfacet
facet normal -0.6773721698441705 0.7356404988311888 0
outer loop
vertex 1.7573593128807152 -0.9088311754568577 5
vertex 3.0000000000000013 0.23538290724795774 0
vertex 1.7573593128807152 -0.9088311754568577 0
endloop
endfacet
facet normal 0 0 1
outer loop
vertex 3.0000000000000013 0.23538290724795774 5
vertex 1.7573593128807152 -0.9088311754568577 5
vertex 6 -6 5
endloop
endfacet
facet normal 0 0 -1
outer loop
vertex 0.803847577293368 -2.4000000000000012 0
vertex 1.7573593128807152 -0.9088311754568577 0
vertex 6 -6 0
endloop
endfacet
facet normal -0.8424858640827876 0.5387184504179141 0
outer loop
vertex 0.803847577293368 -2.4000000000000012 5
vertex 1.7573593128807152 -0.9088311754568577 5
vertex 1.7573593128807152 -0.9088311754568577 0
endloop
endfacet
facet normal -0.8424858640827876 0.5387184504179141 0
outer loop
vertex 0.803847577293368 -2.4000000000000012 5
vertex 1.7573593128807152 -0.9088311754568577 0
vertex 0.803847577293368 -2.4000000000000012 0
endloop
endfacet
facet normal 0 0 1
outer loop
vertex 1.7573593128807152 -0.9088311754568577 5
vertex 0.803847577293368 -2.4000000000000012 5
vertex 6 -6 5
endloop
endfacet
facet normal 0 0 -1
outer loop
vertex 0.2044450422655908 -4.136502875261849 0
vertex 0.803847577293368 -2.4000000000000012 0
vertex 6 -6 0
endloop
endfacet
facet normal -0.945270863201581 0.32628667637851466 0
outer loop
vertex 0.2044450422655908 -4.136502875261849 5
vertex 0.803847577293368 -2.4000000000000012 5
vertex 0.803847577293368 -2.4000000000000012 0
endloop
endfacet
facet normal -0.945270863201581 0.32628667637851466 0
outer loop
vertex 0.2044450422655908 -4.136502875261849 5
vertex 0.803847577293368 -2.4000000000000012 0
vertex 0.2044450422655908 -4.136502875261849 0
endloop
endfacet
facet normal 0 0 1
outer loop
vertex 0.803847577293368 -2.4000000000000012 5
vertex 0.2044450422655908 -4.136502875261849 5
vertex 6 -6 5
endloop
endfacet
facet normal 0 0 -1
outer loop
vertex 0 -5.999999999999999 0
vertex 0.2044450422655908 -4.136502875261849 0
vertex 6 -6 0
endloop
endfacet
facet normal -0.9940356010819564 0.10905605797769016 0
outer loop
vertex 0 -5.999999999999999 5
vertex 0.2044450422655908 -4.136502875261849 5
vertex 0.2044450422655908 -4.136502875261849 0
endloop
endfacet
facet normal -0.9940356010819564 0.10905605797769016 0
outer loop
vertex 0 -5.999999999999999 5
vertex 0.2044450422655908 -4.136502875261849 0
vertex 0 -5.999999999999999 0
endloop
endfacet
facet normal 0 0 1
outer loop
vertex 0.2044450422655908 -4.136502875261849 5
vertex 0 -5.999999999999999 5
vertex 6 -6 5
endloop
endfacet
facet normal 0 0 -1
outer loop
vertex 0.2044450422655899 -7.8634971247381475 0
vertex 0 -5.999999999999999 0
vertex 6 -6 0
endloop
endfacet
facet normal -0.9940356010819564 -0.10905605797768976 0
outer loop
vertex 0.2044450422655899 -7.8634971247381475 5
vertex 0 -5.999999999999999 5
vertex 0 -5.999999999999999 0
endloop
endfacet
facet normal -0.9940356010819564 -0.10905605797768976 0
outer loop
vertex 0.2044450422655899 -7.8634971247381475 5
vertex 0 -5.999999999999999 0
vertex 0.2044450422655899 -7.8634971247381475 0
endloop
endfacet
facet normal 0 0 1
outer loop
vertex 0 -5.999999999999999 5
vertex 0.2044450422655899 -7.8634971247381475 5
vertex 6 -6 5
endloop
endfacet
facet normal 0 0 -1
outer loop
vertex 0.803847577293368 -9.6 0
vertex 0.2044450422655899 -7.8634971247381475 0
vertex 6 -6 0
endloop
endfacet
facet normal -0.9452708632015813 -0.3262866763785145 0
outer loop
vertex 0.803847577293368 -9.6 5
vertex 0.2044450422655899 -7.8634971247381475 5
vertex 0.2044450422655899 -7.8634971247381475 0
endloop
endfacet
facet normal -0.9452708632015813 -0.3262866763785145 0
outer loop
vertex 0.803847577293368 -9.6 5
vertex 0.2044450422655899 -7.8634971247381475 0
vertex 0.803847577293368 -9.6 0
endloop
endfacet
facet normal 0 0 1
outer loop
vertex 0.2044450422655899 -7.8634971247381475 5
vertex 0.803847577293368 -9.6 5
vertex 6 -6 5
endloop
endfacet
facet normal 0 0 -1
outer loop
vertex 1.7573593128807143 -11.091168824543141 0
vertex 0.803847577293368 -9.6 0
vertex 6 -6 0
endloop
endfacet
facet normal -0.8424858640827874 -0.5387184504179147 0
outer loop
vertex 1.7573593128807143 -11.091168824543141 5
vertex 0.803847577293368 -9.6 5
vertex 0.803847577293368 -9.6 0
endloop
endfacet
facet normal -0.8424858640827874 -0.5387184504179147 0
outer loop
vertex 1.7573593128807143 -11.091168824543141 5
vertex 0.803847577293368 -9.6 0
vertex 1.7573593128807143 -11.091168824543141 0
endloop
endfacet
facet normal 0 0 1
outer loop
vertex 0.803847577293368 -9.6 5
vertex 1.7573593128807143 -11.091168824543141 5
vertex 6 -6 5
endloop
endfacet
facet normal 0 0 -1
outer loop
vertex 2.9999999999999973 -12.235382907247956 0
vertex 1.7573593128807143 -11.091168824543141 0
vertex 6 -6 0
endloop
endfacet
facet normal -0.6773721698441713 -0.7356404988311882 0
outer loop
vertex 2.617146073271262 -11.882853926728743 5
vertex 1.7573593128807143 -11.091168824543141 5
vertex 1.7573593128807143 -11.091168824543141 0
endloop
endfacet
facet normal -0.6773721698441713 -0.7356404988311882 0
outer loop
vertex 2.617146073271262 -11.882853926728743 5
vertex 1.7573593128807143 -11.091168824543141 0
vertex 2.6171460732712633 -11.882853926728743 0
endloop
endfacet
facet normal 0 0 1
outer loop
vertex 1.7573593128807143 -11.091168824543141 5
vertex 2.9999999999999973 -12.235382907247956 5
vertex 6 -6 5
endloop
endfacet
facet normal 0 0 -1
outer loop
vertex 4.4470857293848765 -12.954665949281292 0
vertex 2.9999999999999973 -12.235382907247956 0
vertex 6 -6 0
endloop
endfacet
facet normal 0 0 1
outer loop
vertex 2.9999999999999973 -12.235382907247956 5
vertex 4.4470857293848765 -12.954665949281292 5
vertex 6 -6 5
endloop
endfacet
facet normal 0 0 -1
outer loop
vertex 5.999999999999999 -13.2 0
vertex 4.4470857293848765 -12.954665949281292 0
vertex 6 -6 0
endloop
endfacet
facet normal 0 0 1
outer loop
vertex 4.4470857293848765 -12.954665949281292 5
vertex 5.999999999999999 -13.2 5
vertex 6 -6 5
endloop
endfacet
facet normal 0 0 -1
outer loop
vertex 7.552914270615122 -12.954665949281292 0
vertex 5.999999999999999 -13.2 0
vertex 6 -6 0
endloop
endfacet
facet normal 0 0 1
outer loop
vertex 5.999999999999999 -13.2 5
vertex 7.552914270615122 -12.954665949281292 5
vertex 6 -6 5
endloop
endfacet
facet normal 0 0 -1
outer loop
vertex 9 -12.235382907247958 0
vertex 7.552914270615122 -12.954665949281292 0
vertex 6 -6 0
endloop
endfacet
facet normal 0 0 1
outer loop
vertex 7.552914270615122 -12.954665949281292 5
vertex 9 -12.235382907247958 5
vertex 6 -6 5
endloop
endfacet
facet normal 0 0 -1
outer loop
vertex 10.242640687119284 -11.091168824543143 0
vertex 9 -12.235382907247958 0
vertex 6 -6 0
endloop
endfacet
facet normal 0 0 1
outer loop
vertex 9 -12.235382907247958 5
vertex 10.242640687119284 -11.091168824543143 5
vertex 6 -6 5
endloop
endfacet
facet normal 0 0 -1
outer loop
vertex 11.19615242270663 -9.600000000000005 0
vertex 10.242640687119284 -11.091168824543143 0
vertex 6 -6 0
endloop
endfacet
facet normal 0 0 1
outer loop
vertex 10.242640687119284 -11.091168824543143 5
vertex 11.19615242270663 -9.600000000000005 5
vertex 6 -6 5
endloop
endfacet
facet normal 0 0 -1
outer loop
vertex 11.79555495773441 -7.863497124738149 0
vertex 11.19615242270663 -9.600000000000005 0
vertex 6 -6 0
endloop
endfacet
facet normal 0 0 1
outer loop
vertex 11.19615242270663 -9.600000000000005 5
vertex 11.79555495773441 -7.863497124738149 5
vertex 6 -6 5
endloop
endfacet
facet normal 0 0 -1
outer loop
vertex 12 -6.000000000000003 0
vertex 11.79555495773441 -7.863497124738149 0
vertex 6 -6 0
endloop
endfacet
facet normal 0 0 1
outer loop
vertex 11.79555495773441 -7.863497124738149 5
vertex 12 -6.000000000000003 5
vertex 6 -6 5
endloop
endfacet
facet normal 0 0 -1
outer loop
vertex 21.79555495773441 -4.136502875261852 0
vertex 22 -6 0
vertex 16 -6 0
endloop
endfacet
facet normal 0.9940356010819564 0.109056057977691 0
outer loop
vertex 21.79555495773441 -4.136502875261852 5
vertex 22 -6 5
vertex 22 -6 0
endloop
endfacet
facet normal 0.9940356010819564 0.109056057977691 0
outer loop
vertex 21.79555495773441 -4.136502875261852 5
vertex 22 -6 0
vertex 21.79555495773441 -4.136502875261852 0
endloop
endfacet
facet normal 0 0 1
outer loop
vertex 22 -6 5
vertex 21.79555495773441 -4.136502875261852 5
vertex 16 -6 5
endloop
endfacet
facet normal 0 0 -1
outer loop
vertex 21.196152422706632 -2.4000000000000012 0
vertex 21.79555495773441 -4.136502875261852 0
vertex 16 -6 0
endloop
endfacet
facet normal 0.9452708632015818 0.32628667637851316 0
outer loop
vertex 21.196152422706632 -2.4000000000000012 5
vertex 21.79555495773441 -4.136502875261852 5
vertex 21.79555495773441 -4.136502875261852 0
endloop
endfacet
facet normal 0.9452708632015818 0.32628667637851316 0
outer loop
vertex 21.196152422706632 -2.4000000000000012 5
vertex 21.79555495773441 -4.136502875261852 0
vertex 21.196152422706632 -2.4000000000000012 0
endloop
endfacet
facet normal 0 0 1
outer loop
vertex 21.79555495773441 -4.136502875261852 5
vertex 21.196152422706632 -2.4000000000000012 5
vertex 16 -6 5
endloop
endfacet
facet normal 0 0 -1
outer loop
vertex 20.242640687119284 -0.908831175456859 0
vertex 21.196152422706632 -2.4000000000000012 0
vertex 16 -6 0
endloop
endfacet
facet normal 0.8424858640827879 0.5387184504179138 0
outer loop
vertex 20.242640687119284 -0.908831175456859 5
vertex 21.196152422706632 -2.4000000000000012 5
vertex 21.196152422706632 -2.4000000000000012 0
endloop
endfacet
facet normal 0.8424858640827879 0.5387184504179138 0
outer loop
vertex 20.242640687119284 -0.908831175456859 5
vertex 21.196152422706632 -2.4000000000000012 0
vertex 20.242640687119284 -0.908831175456859 0
endloop
endfacet
facet normal 0 0 1
outer loop
vertex 21.196152422706632 -2.4000000000000012 5
vertex 20.242640687119284 -0.908831175456859 5
vertex 16 -6 5
endloop
endfacet
facet normal 0 0 -1
outer loop
vertex 19 0.23538290724795774 0
vertex 20.242640687119284 -0.908831175456859 0
vertex 16 -6 0
endloop
endfacet
facet normal 0.6773721698441713 0.7356404988311882 0
outer loop
vertex 19 0.23538290724795774 5
vertex 20.242640687119284 -0.908831175456859 5
vertex 20.242640687119284 -0.908831175456859 0
endloop
endfacet
facet normal 0.6773721698441713 0.7356404988311882 0
outer loop
vertex 19 0.23538290724795774 5
vertex 20.242640687119284 -0.908831175456859 0
vertex 19 0.23538290724795774 0
endloop
endfacet
facet normal 0 0 1
outer loop
vertex 20.242640687119284 -0.908831175456859 5
vertex 19 0.23538290724795774 5
vertex 16 -6 5
endloop
endfacet
facet normal 0 0 -1
outer loop
vertex 17.552914270615126 0.9546659492812914 0
vertex 19 0.23538290724795774 0
vertex 16 -6 0
endloop
endfacet
facet normal 0.4451035169380951 0.8954791227099261 0
outer loop
vertex 17.552914270615126 0.9546659492812914 5
vertex 19 0.23538290724795774 5
vertex 19 0.23538290724795774 0
endloop
endfacet
facet normal 0.4451035169380951 0.8954791227099261 0
outer loop
vertex 17.552914270615126 0.9546659492812914 5
vertex 19 0.23538290724795774 0
vertex 17.552914270615126 0.9546659492812914 0
endloop
endfacet
facet normal 0 0 1
outer loop
vertex 19 0.23538290724795774 5
vertex 17.552914270615126 0.9546659492812914 5
vertex 16 -6 5
endloop
endfacet
facet normal 0 0 -1
outer loop
vertex 16 1.1999999999999993 0
vertex 17.552914270615126 0.9546659492812914 0
vertex 16 -6 0
endloop
endfacet
facet normal 0.1560476313568674 0.987749531383291 0
outer loop
vertex 16 1.1999999999999993 5
vertex 17.552914270615126 0.9546659492812914 5
vertex 17.552914270615126 0.9546659492812914 0
endloop
endfacet
facet normal 0.1560476313568674 0.987749531383291 0
outer loop
vertex 16 1.1999999999999993 5
vertex 17.552914270615126 0.9546659492812914 0
vertex 16 1.1999999999999993 0
endloop
endfacet
facet normal 0 0 1
outer loop
vertex 17.552914270615126 0.9546659492812914 5
vertex 16 1.1999999999999993 5
vertex 16 -6 5
endloop
endfacet
facet normal 0 0 -1
outer loop
vertex 14.447085729384874 0.9546659492812914 0
vertex 16 1.1999999999999993 0
vertex 16 -6 0
endloop
endfacet
facet normal -0.15604763135686764 0.987749531383291 0
outer loop
vertex 14.447085729384874 0.9546659492812914 5
vertex 16 1.1999999999999993 5
vertex 16 1.1999999999999993 0
endloop
endfacet
facet normal -0.15604763135686764 0.987749531383291 0
outer loop
vertex 14.447085729384874 0.9546659492812914 5
vertex 16 1.1999999999999993 0
vertex 14.447085729384874 0.9546659492812914 0
endloop
endfacet
facet normal 0 0 1
outer loop
vertex 16 1.1999999999999993 5
vertex 14.447085729384874 0.9546659492812914 5
vertex 16 -6 5
endloop
endfacet
facet normal 0 0 -1
outer loop
vertex 13.000000000000002 0.23538290724795774 0
vertex 14.447085729384874 0.9546659492812914 0
vertex 16 -6 0
endloop
endfacet
facet normal -0.44510351693809574 0.8954791227099258 0
outer loop
vertex 13.000000000000002 0.23538290724795774 5
vertex 14.447085729384874 0.9546659492812914 5
vertex 14.447085729384874 0.9546659492812914 0
endloop
endfacet
facet normal -0.44510351693809574 0.8954791227099258 0
outer loop
vertex 13.000000000000002 0.23538290724795774 5
vertex 14.447085729384874 0.9546659492812914 0
vertex 13.000000000000002 0.23538290724795774 0
endloop
endfacet
facet normal 0 0 1
outer loop
vertex 14.447085729384874 0.9546659492812914 5
vertex 13.000000000000002 0.23538290724795774 5
vertex 16 -6 5
endloop
endfacet
facet normal 0 0 -1
outer loop
vertex 11.757359312880716 -0.9088311754568577 0
vertex 13.000000000000002 0.23538290724795774 0
vertex 16 -6 0
endloop
endfacet
facet normal -0.6773721698441707 0.7356404988311885 0
outer loop
vertex 11.757359312880716 -0.9088311754568577 5
vertex 13.000000000000002 0.23538290724795774 5
vertex 13.000000000000002 0.23538290724795774 0
endloop
endfacet
facet normal -0.6773721698441707 0.7356404988311885 0
outer loop
vertex 11.757359312880716 -0.9088311754568577 5
vertex 13.000000000000002 0.23538290724795774 0
vertex 11.757359312880716 -0.9088311754568577 0
endloop
endfacet
facet normal 0 0 1
outer loop
vertex 13.000000000000002 0.23538290724795774 5
vertex 11.757359312880716 -0.9088311754568577 5
vertex 16 -6 5
endloop
endfacet
facet normal 0 0 -1
outer loop
vertex 11.670950670801648 -3.000746645342596 0
vertex 11.48771022627359 -1.3305274131726936 0
vertex 11.757359312880716 -0.9088311754568577 0
endloop
endfacet
facet normal 0 0 -1
outer loop
vertex 11.670950670801648 -3.000746645342596 0
vertex 11.757359312880716 -0.9088311754568577 0
vertex 16 -6 0
endloop
endfacet
facet normal 0 0 -1
outer loop
vertex 11.670950670801648 -3.000746645342596 0
vertex 11.319458990454084 -2.7572260658227 0
vertex 11.0586218170017 -2.0015660957589314 0
endloop
endfacet
facet normal 0 0 -1
outer loop
vertex 11.670950670801648 -3.000746645342596 0
vertex 11.0586218170017 -2.0015660957589314 0
vertex 11.48771022627359 -1.3305274131726936 0
endloop
endfacet
facet normal 0 0 -1
outer loop
vertex 11.196152422706623 -2.3999999999999817 0
vertex 11.000000000000002 -2.0932430229413326 0
vertex 11.0586218170017 -2.0015660957589314 0
endloop
endfacet
facet normal -0.8424858640827874 0.5387184504179146 0
outer loop
vertex 11.48771022627359 -1.330527413172693 5
vertex 11.757359312880716 -0.9088311754568577 5
vertex 11.757359312880716 -0.9088311754568577 0
endloop
endfacet
facet normal -0.8424858640827874 0.5387184504179146 0
outer loop
vertex 11.48771022627359 -1.330527413172693 5
vertex 11.757359312880716 -0.9088311754568577 0
vertex 11.48771022627359 -1.3305274131726936 0
endloop
endfacet
facet normal -0.8424858640827874 0.5387184504179146 0
outer loop
vertex 11.0586218170017 -2.001566095758931 5
vertex 11.48771022627359 -1.330527413172693 5
vertex 11.48771022627359 -1.3305274131726936 0
endloop
endfacet
facet normal -0.8424858640827874 0.5387184504179146 0
outer loop
vertex 11.0586218170017 -2.001566095758931 5
vertex 11.48771022627359 -1.3305274131726936 0
vertex 11.0586218170017 -2.0015660957589314 0
endloop
endfacet
facet normal -0.8424858640827874 0.5387184504179146 0
outer loop
vertex 11.000000000000002 -2.093243022941331 5
vertex 11.0586218170017 -2.001566095758931 5
vertex 11.0586218170017 -2.0015660957589314 0
endloop
endfacet
facet normal -0.8424858640827874 0.5387184504179146 0
outer loop
vertex 11.000000000000002 -2.093243022941331 5
vertex 11.0586218170017 -2.0015660957589314 0
vertex 11.000000000000002 -2.0932430229413326 0
endloop
endfacet
facet normal 0 0 1
outer loop
vertex 11.757359312880716 -0.9088311754568577 5
vertex 11.48771022627359 -1.3305274131726936 5
vertex 11.670950670801648 -3.000746645342596 5
endloop
endfacet
facet normal 0 0 1
outer loop
vertex 11.757359312880716 -0.9088311754568577 5
vertex 11.670950670801648 -3.000746645342596 5
vertex 16 -6 5
endloop
endfacet
facet normal 0 0 1
outer loop
vertex 11.48771022627359 -1.3305274131726936 5
vertex 11.0586218170017 -2.001566095758931 5
vertex 11.319458990454084 -2.7572260658227 5
endloop
endfacet
facet normal 0 0 1
outer loop
vertex 11.48771022627359 -1.3305274131726936 5
vertex 11.319458990454084 -2.7572260658227 5
vertex 11.670950670801648 -3.000746645342596 5
endloop
endfacet
facet normal 0 0 1
outer loop
vertex 11.196152422706623 -2.3999999999999826 5
vertex 11.0586218170017 -2.001566095758931 5
vertex 11.000000000000002 -2.093243022941331 5
endloop
endfacet
facet normal 0 0 -1
outer loop
vertex 11.853735630058027 -4.666814172561732 0
vertex 11.670950670801648 -3.000746645342596 0
vertex 16 -6 0
endloop
endfacet
facet normal 0 0 -1
outer loop
vertex 11.795554957734412 -4.136502875261872 0
vertex 11.319458990454084 -2.7572260658227 0
vertex 11.670950670801648 -3.000746645342596 0
endloop
endfacet
facet normal 0 0 1
outer loop
vertex 11.853735630058027 -4.666814172561732 5
vertex 16 -6 5
vertex 11.670950670801648 -3.000746645342596 5
endloop
endfacet
facet normal 0 0 1
outer loop
vertex 11.319458990454084 -2.7572260658227 5
vertex 11.795554957734412 -4.136502875261867 5
vertex 11.670950670801648 -3.000746645342596 5
endloop
endfacet
facet normal 0 0 -1
outer loop
vertex 11.999999999999998 -5.999999999999999 0
vertex 11.853735630058026 -4.666814172561732 0
vertex 16 -6 0
endloop
endfacet
facet normal 0 0 1
outer loop
vertex 11.999999999999998 -5.999999999999999 5
vertex 16 -6 5
vertex 11.853735630058026 -4.666814172561732 5
endloop
endfacet
facet normal 0 0 -1
outer loop
vertex 12.136296694843725 -7.242331416492099 0
vertex 12 -5.999999999999999 0
vertex 16 -6 0
endloop
endfacet
facet normal 0 0 -1
outer loop
vertex 12.105828541230249 -6.9646170927520465 0
vertex 12.136296694843725 -7.242331416492099 0
vertex 11.994196198249693 -7.288022272459818 0
endloop
endfacet
facet normal 0 0 -1
outer loop
vertex 12 -6 0
vertex 12.105828541230249 -6.9646170927520465 0
vertex 11.994196198249693 -7.288022272459818 0
endloop
endfacet
facet normal 0 0 -1
outer loop
vertex 12 -6 0
vertex 11.994196198249693 -7.288022272459818 0
vertex 11.85373563005803 -7.333185827438266 0
endloop
endfacet
facet normal 0 0 1
outer loop
vertex 12.136296694843725 -7.242331416492099 5
vertex 16 -6 5
vertex 12 -5.999999999999999 5
endloop
endfacet
facet normal 0 0 1
outer loop
vertex 11.994196198249693 -7.288022272459818 5
vertex 12.136296694843725 -7.242331416492099 5
vertex 12.105828541230249 -6.964617092752043 5
endloop
endfacet
facet normal 0 0 1
outer loop
vertex 11.85373563005803 -7.333185827438266 5
vertex 11.994196198249693 -7.288022272459818 5
vertex 12.105828541230249 -6.964617092752043 5
endloop
endfacet
facet normal 0 0 1
outer loop
vertex 11.85373563005803 -7.333185827438266 5
vertex 12.105828541230249 -6.964617092752043 5
vertex 12.000000000000002 -6.000000000000007 5
endloop
endfacet
facet normal 0 0 -1
outer loop
vertex 12.282561064785698 -8.575517243930367 0
vertex 12.136296694843725 -7.242331416492099 0
vertex 16 -6 0
endloop
endfacet
facet normal 0 0 -1
outer loop
vertex 12.219396554912958 -7.999778741157404 0
vertex 12.282561064785698 -8.575517243930367 0
vertex 11.508185866152111 -9.112020119192213 0
endloop
endfacet
facet normal 0 0 -1
outer loop
vertex 12.219396554912958 -7.999778741157404 0
vertex 11.508185866152111 -9.112020119192213 0
vertex 11.319458990454088 -9.242773934177297 0
endloop
endfacet
facet normal 0 0 -1
outer loop
vertex 12.219396554912958 -7.999778741157404 0
vertex 11.319458990454088 -9.242773934177297 0
vertex 11.994196198249693 -7.288022272459818 0
endloop
endfacet
facet normal 0 0 -1
outer loop
vertex 12.219396554912958 -7.999778741157404 0
vertex 11.994196198249693 -7.288022272459818 0
vertex 12.136296694843725 -7.242331416492099 0
endloop
endfacet
facet normal 0 0 -1
outer loop
vertex 11.79555495773441 -7.863497124738152 0
vertex 11.85373563005803 -7.333185827438266 0
vertex 11.994196198249693 -7.288022272459818 0
endloop
endfacet
facet normal 0 0 1
outer loop
vertex 12.282561064785698 -8.575517243930367 5
vertex 16 -6 5
vertex 12.136296694843725 -7.242331416492099 5
endloop
endfacet
facet normal 0 0 1
outer loop
vertex 11.508185866152107 -9.112020119192215 5
vertex 12.282561064785698 -8.575517243930367 5
vertex 12.219396554912958 -7.9997787411574075 5
endloop
endfacet
facet normal 0 0 1
outer loop
vertex 11.994196198249693 -7.288022272459818 5
vertex 11.31945899045409 -9.242773934177295 5
vertex 11.508185866152107 -9.112020119192215 5
endloop
endfacet
facet normal 0 0 1
outer loop
vertex 11.994196198249693 -7.288022272459818 5
vertex 11.508185866152107 -9.112020119192215 5
vertex 12.219396554912958 -7.9997787411574075 5
endloop
endfacet
facet normal 0 0 1
outer loop
vertex 11.994196198249693 -7.288022272459818 5
vertex 12.219396554912958 -7.9997787411574075 5
vertex 12.136296694843725 -7.242331416492099 5
endloop
endfacet
facet normal 0 0 1
outer loop
vertex 11.795554957734412 -7.863497124738146 5
vertex 11.994196198249693 -7.288022272459818 5
vertex 11.85373563005803 -7.333185827438266 5
endloop
endfacet
facet normal 0 0 -1
outer loop
vertex 12.465346024042077 -10.241584771149506 0
vertex 12.282561064785696 -8.575517243930367 0
vertex 16 -6 0
endloop
endfacet
facet normal 0 0 -1
outer loop
vertex 12.079360431424444 -10.704767482290666 0
vertex 11.757359312880714 -11.091168824543141 0
vertex 11.647530727842799 -10.91941114612155 0
endloop
endfacet
facet normal 0 0 -1
outer loop
vertex 12.34606521495123 -9.154351535684317 0
vertex 12.465346024042077 -10.241584771149506 0
vertex 12.079360431424444 -10.704767482290666 0
endloop
endfacet
facet normal 0 0 -1
outer loop
vertex 12.34606521495123 -9.154351535684317 0
vertex 12.079360431424444 -10.704767482290666 0
vertex 11.647530727842799 -10.91941114612155 0
endloop
endfacet
facet normal 0 0 -1
outer loop
vertex 12.34606521495123 -9.154351535684317 0
vertex 11.647530727842799 -10.91941114612155 0
vertex 11.196019014159287 -10.21330532043271 0
endloop
endfacet
facet normal 0 0 -1
outer loop
vertex 12.34606521495123 -9.154351535684317 0
vertex 11.196019014159287 -10.21330532043271 0
vertex 11.000000000000002 -9.90675697705867 0
endloop
endfacet
facet normal 0 0 -1
outer loop
vertex 12.34606521495123 -9.154351535684317 0
vertex 11.000000000000002 -9.90675697705867 0
vertex 11.508185866152113 -9.112020119192211 0
endloop
endfacet
facet normal 0 0 -1
outer loop
vertex 12.34606521495123 -9.154351535684317 0
vertex 11.508185866152113 -9.112020119192211 0
vertex 12.282561064785696 -8.575517243930367 0
endloop
endfacet
facet normal 0 0 -1
outer loop
vertex 11.196152422706632 -9.600000000000005 0
vertex 11.31945899045409 -9.242773934177295 0
vertex 11.508185866152113 -9.112020119192211 0
endloop
endfacet
facet normal 0 0 1
outer loop
vertex 12.465346024042077 -10.241584771149506 5
vertex 16 -6 5
vertex 12.282561064785696 -8.575517243930367 5
endloop
endfacet
facet normal 0 0 1
outer loop
vertex 11.647530727842799 -10.91941114612155 5
vertex 11.757359312880714 -11.091168824543141 5
vertex 12.079360431424442 -10.704767482290668 5
endloop
endfacet
facet normal 0 0 1
outer loop
vertex 11.196019014159287 -10.213305320432712 5
vertex 11.647530727842799 -10.91941114612155 5
vertex 12.079360431424442 -10.704767482290668 5
endloop
endfacet
facet normal 0 0 1
outer loop
vertex 11.196019014159287 -10.213305320432712 5
vertex 12.079360431424442 -10.704767482290668 5
vertex 12.465346024042077 -10.241584771149506 5
endloop
endfacet
facet normal 0 0 1
outer loop
vertex 11.196019014159287 -10.213305320432712 5
vertex 12.465346024042077 -10.241584771149506 5
vertex 12.34606521495123 -9.154351535684317 5
endloop
endfacet
facet normal 0 0 1
outer loop
vertex 11.508185866152113 -9.112020119192211 5
vertex 11 -9.906756977058668 5
vertex 11.196019014159287 -10.213305320432712 5
endloop
endfacet
facet normal 0 0 1
outer loop
vertex 11.508185866152113 -9.112020119192211 5
vertex 11.196019014159287 -10.213305320432712 5
vertex 12.34606521495123 -9.154351535684317 5
endloop
endfacet
facet normal 0 0 1
outer loop
vertex 11.508185866152113 -9.112020119192211 5
vertex 12.34606521495123 -9.154351535684317 5
vertex 12.282561064785696 -8.575517243930367 5
endloop
endfacet
facet normal 0 0 1
outer loop
vertex 11.196152422706634 -9.600000000000001 5
vertex 11.508185866152113 -9.112020119192211 5
vertex 11.31945899045409 -9.242773934177297 5
endloop
endfacet
facet normal 0 0 -1
outer loop
vertex 12.999999999999996 -12.235382907247956 0
vertex 11.757359312880714 -11.091168824543141 0
vertex 16 -6 0
endloop
endfacet
facet normal 0 0 1
outer loop
vertex 11.757359312880714 -11.091168824543141 5
vertex 12.999999999999996 -12.235382907247956 5
vertex 16 -6 5
endloop
endfacet
facet normal 0 0 -1
outer loop
vertex 14.447085729384877 -12.954665949281292 0
vertex 12.999999999999996 -12.235382907247956 0
vertex 16 -6 0
endloop
endfacet
facet normal 0 0 1
outer loop
vertex 12.999999999999996 -12.235382907247956 5
vertex 14.447085729384877 -12.954665949281292 5
vertex 16 -6 5
endloop
endfacet
facet normal 0 0 -1
outer loop
vertex 16 -13.2 0
vertex 14.447085729384877 -12.954665949281292 0
vertex 16 -6 0
endloop
endfacet
facet normal 0 0 1
outer loop
vertex 14.447085729384877 -12.954665949281292 5
vertex 16 -13.2 5
vertex 16 -6 5
endloop
endfacet
facet normal 0 0 -1
outer loop
vertex 17.552914270615123 -12.954665949281292 0
vertex 16 -13.2 0
vertex 16 -6 0
endloop
endfacet
facet normal 0 0 1
outer loop
vertex 16 -13.2 5
vertex 17.552914270615123 -12.954665949281292 5
vertex 16 -6 5
endloop
endfacet
facet normal 0 0 -1
outer loop
vertex 19 -12.235382907247958 0
vertex 17.552914270615123 -12.954665949281292 0
vertex 16 -6 0
endloop
endfacet
facet normal 0 0 1
outer loop
vertex 17.552914270615123 -12.954665949281292 5
vertex 19 -12.235382907247958 5
vertex 16 -6 5
endloop
endfacet
facet normal 0 0 -1
outer loop
vertex 20.242640687119284 -11.091168824543143 0
vertex 19 -12.235382907247958 0
vertex 16 -6 0
endloop
endfacet
facet normal 0.6773721698441719 -0.7356404988311873 0
outer loop
vertex 20.242640687119284 -11.091168824543143 5
vertex 19.382853926728732 -11.882853926728748 5
vertex 19.382853926728732 -11.882853926728748 0
endloop
endfacet
facet normal 0.6773721698441719 -0.7356404988311873 0
outer loop
vertex 20.242640687119284 -11.091168824543143 5
vertex 19.382853926728732 -11.882853926728748 0
vertex 20.242640687119284 -11.091168824543143 0
endloop
endfacet
facet normal 0 0 1
outer loop
vertex 19 -12.235382907247958 5
vertex 20.242640687119284 -11.091168824543143 5
vertex 16 -6 5
endloop
endfacet
facet normal 0 0 -1
outer loop
vertex 21.196152422706632 -9.600000000000005 0
vertex 20.242640687119284 -11.091168824543143 0
vertex 16 -6 0
endloop
endfacet
facet normal 0.8424858640827881 -0.5387184504179134 0
outer loop
vertex 21.196152422706632 -9.600000000000005 5
vertex 20.242640687119284 -11.091168824543143 5
vertex 20.242640687119284 -11.091168824543143 0
endloop
endfacet
facet normal 0.8424858640827881 -0.5387184504179134 0
outer loop
vertex 21.196152422706632 -9.600000000000005 5
vertex 20.242640687119284 -11.091168824543143 0
vertex 21.196152422706632 -9.600000000000005 0
endloop
endfacet
facet normal 0 0 1
outer loop
vertex 20.242640687119284 -11.091168824543143 5
vertex 21.196152422706632 -9.600000000000005 5
vertex 16 -6 5
endloop
endfacet
facet normal 0 0 -1
outer loop
vertex 21.79555495773441 -7.863497124738149 0
vertex 21.196152422706632 -9.600000000000005 0
vertex 16 -6 0
endloop
endfacet
facet normal 0.9452708632015809 -0.3262866763785159 0
outer loop
vertex 21.79555495773441 -7.863497124738149 5
vertex 21.196152422706632 -9.600000000000005 5
vertex 21.196152422706632 -9.600000000000005 0
endloop
endfacet
facet normal 0.9452708632015809 -0.3262866763785159 0
outer loop
vertex 21.79555495773441 -7.863497124738149 5
vertex 21.196152422706632 -9.600000000000005 0
vertex 21.79555495773441 -7.863497124738149 0
endloop
endfacet
facet normal 0 0 1
outer loop
vertex 21.196152422706632 -9.600000000000005 5
vertex 21.79555495773441 -7.863497124738149 5
vertex 16 -6 5
endloop
endfacet
facet normal 0 0 -1
outer loop
vertex 22 -6.000000000000003 0
vertex 21.79555495773441 -7.863497124738149 0
vertex 16 -6 0
endloop
endfacet
facet normal 0.9940356010819564 -0.109056057977691 0
outer loop
vertex 22 -6.000000000000003 5
vertex 21.79555495773441 -7.863497124738149 5
vertex 21.79555495773441 -7.863497124738149 0
endloop
endfacet
facet normal 0.9940356010819564 -0.109056057977691 0
outer loop
vertex 22 -6.000000000000003 5
vertex 21.79555495773441 -7.863497124738149 0
vertex 22 -6.000000000000003 0
endloop
endfacet
facet normal 0 0 1
outer loop
vertex 21.79555495773441 -7.863497124738149 5
vertex 22 -6.000000000000003 5
vertex 16 -6 5
endloop
endfacet
facet normal 0 0 -1
outer loop
vertex 19.38285392672874 -11.882853926728743 0
vertex 19.4 -11.9 0
vertex 19.364232928618993 -11.9 0
endloop
endfacet
facet normal 0 0 -1
outer loop
vertex 11 -11.241270357552523 0
vertex 11.316137351019778 -11.084132303514409 0
vertex 11.597756905175133 -11.9 0
endloop
endfacet
facet normal 0 0 -1
outer loop
vertex 11 -11.241270357552523 0
vertex 11.597756905175133 -11.9 0
vertex 11 -11.9 0
endloop
endfacet
facet normal 0 0 -1
outer loop
vertex 11.316137351019778 -11.084132303514409 0
vertex 11.647530727842797 -10.919411146121552 0
vertex 12.274557637586373 -11.9 0
endloop
endfacet
facet normal 0 0 -1
outer loop
vertex 11.316137351019778 -11.084132303514409 0
vertex 12.274557637586373 -11.9 0
vertex 11.597756905175133 -11.9 0
endloop
endfacet
facet normal 0 0 -1
outer loop
vertex 11.757359312880705 -11.091168824543132 0
vertex 12.63576707138101 -11.9 0
vertex 12.274557637586373 -11.9 0
endloop
endfacet
facet normal 0 0 -1
outer loop
vertex 11.316137351019778 -11.084132303514407 0
vertex 11 -11.241270357552523 0
vertex 11 -10.393798136098454 0
endloop
endfacet
facet normal 0 0 -1
outer loop
vertex 11.316137351019778 -11.084132303514407 0
vertex 11 -10.393798136098454 0
vertex 11.059073459722908 -10.339403744196042 0
endloop
endfacet
facet normal 0 0 -1
outer loop
vertex 11.647530727842797 -10.919411146121552 0
vertex 11.316137351019778 -11.084132303514407 0
vertex 11.059073459722908 -10.339403744196042 0
endloop
endfacet
facet normal 0 0 -1
outer loop
vertex 11.647530727842797 -10.919411146121552 0
vertex 11.059073459722908 -10.339403744196042 0
vertex 11.196019014159287 -10.213305320432713 0
endloop
endfacet
facet normal 0 0 -1
outer loop
vertex 11.059073459722908 -10.339403744196042 0
vertex 11 -10.393798136098454 0
vertex 11 -10.168264607028826 0
endloop
endfacet
facet normal 0 0 -1
outer loop
vertex 11.196019014159285 -10.213305320432713 0
vertex 11.059073459722908 -10.339403744196042 0
vertex 11 -10.168264607028826 0
endloop
endfacet
facet normal 0 0 -1
outer loop
vertex 11.196019014159285 -10.213305320432713 0
vertex 11 -10.168264607028826 0
vertex 11 -9.906756977058674 0
endloop
endfacet
facet normal 0.7071067811865478 0.7071067811865471 0
outer loop
vertex 19.382853926728743 -11.882853926728743 5
vertex 19.4 -11.9 5
vertex 19.4 -11.9 0
endloop
endfacet
facet normal 0.7071067811865478 0.7071067811865471 0
outer loop
vertex 19.382853926728743 -11.882853926728743 5
vertex 19.4 -11.9 0
vertex 19.38285392672874 -11.882853926728743 0
endloop
endfacet
facet normal 0 0 1
outer loop
vertex 19.364232928618993 -11.9 5
vertex 19.4 -11.9 5
vertex 19.38285392672874 -11.88285392672874 5
endloop
endfacet
facet normal 0 0 1
outer loop
vertex 11.316137351019778 -11.084132303514409 5
vertex 11 -11.241270357552523 5
vertex 11 -11.9 5
endloop
endfacet
facet normal 0 0 1
outer loop
vertex 11.316137351019778 -11.084132303514409 5
vertex 11 -11.9 5
vertex 11.597756905175133 -11.9 5
endloop
endfacet
facet normal 0 0 1
outer loop
vertex 11.647530727842797 -10.919411146121554 5
vertex 11.316137351019778 -11.084132303514409 5
vertex 11.597756905175133 -11.9 5
endloop
endfacet
facet normal 0 0 1
outer loop
vertex 11.647530727842797 -10.919411146121554 5
vertex 11.597756905175133 -11.9 5
vertex 12.274557637586373 -11.9 5
endloop
endfacet
facet normal 0 0 1
outer loop
vertex 11.757359312880702 -11.091168824543129 5
vertex 12.274557637586373 -11.9 5
vertex 12.63576707138101 -11.9 5
endloop
endfacet
facet normal 0 0 1
outer loop
vertex 11.316137351019776 -11.084132303514409 5
vertex 11.059073459722908 -10.33940374419604 5
vertex 11 -10.393798136098452 5
endloop
endfacet
facet normal 0 0 1
outer loop
vertex 11.316137351019776 -11.084132303514409 5
vertex 11 -10.393798136098452 5
vertex 11 -11.241270357552523 5
endloop
endfacet
facet normal 0 0 1
outer loop
vertex 11.316137351019776 -11.084132303514409 5
vertex 11.647530727842797 -10.919411146121552 5
vertex 11.196019014159285 -10.213305320432713 5
endloop
endfacet
facet normal 0 0 1
outer loop
vertex 11.316137351019776 -11.084132303514409 5
vertex 11.196019014159285 -10.213305320432713 5
vertex 11.059073459722908 -10.33940374419604 5
endloop
endfacet
facet normal 0 0 1
outer loop
vertex 11.059073459722908 -10.33940374419604 5
vertex 11 -10.168264607028826 5
vertex 11 -10.393798136098452 5
endloop
endfacet
facet normal 0 0 1
outer loop
vertex 11.059073459722908 -10.33940374419604 5
vertex 11.196019014159285 -10.213305320432712 5
vertex 11 -9.906756977058674 5
endloop
endfacet
facet normal 0 0 1
outer loop
vertex 11.059073459722908 -10.33940374419604 5
vertex 11 -9.906756977058674 5
vertex 11 -10.168264607028826 5
endloop
endfacet
facet normal 0 0 -1
outer loop
vertex 2.6357670713810086 -11.899999999999999 0
vertex 2.5999999999999996 -11.899999999999999 0
vertex 2.617146073271261 -11.882853926728737 0
endloop
endfacet
facet normal 0 0 -1
outer loop
vertex 9.674738302721769 -11.9 0
vertex 11 -11.241270357552523 0
vertex 11 -11.9 0
endloop
endfacet
facet normal 0 0 -1
outer loop
vertex 9.674738302721769 -11.9 0
vertex 9.364232928618991 -11.9 0
vertex 11 -10.393798136098452 0
endloop
endfacet
facet normal 0 0 -1
outer loop
vertex 9.674738302721769 -11.9 0
vertex 11 -10.393798136098452 0
vertex 11 -11.241270357552523 0
endloop
endfacet
facet normal 0 0 -1
outer loop
vertex 10.242640687119287 -11.091168824543141 0
vertex 11 -9.906756977058672 0
vertex 11 -10.393798136098452 0
endloop
endfacet
facet normal -0.707106781186548 0.7071067811865472 0
outer loop
vertex 2.5999999999999996 -11.899999999999999 5
vertex 2.617146073271259 -11.882853926728739 5
vertex 2.617146073271261 -11.882853926728737 0
endloop
endfacet
facet normal -0.707106781186548 0.7071067811865472 0
outer loop
vertex 2.5999999999999996 -11.899999999999999 5
vertex 2.617146073271261 -11.882853926728737 0
vertex 2.5999999999999996 -11.899999999999999 0
endloop
endfacet
facet normal 0 0 1
outer loop
vertex 2.617146073271259 -11.882853926728739 5
vertex 2.5999999999999996 -11.899999999999999 5
vertex 2.635767071381009 -11.899999999999999 5
endloop
endfacet
facet normal 0 0 1
outer loop
vertex 11 -11.241270357552523 5
vertex 9.674738302721767 -11.9 5
vertex 11 -11.9 5
endloop
endfacet
facet normal 0 0 1
outer loop
vertex 11 -11.241270357552523 5
vertex 11 -10.393798136098454 5
vertex 9.36423292861899 -11.9 5
endloop
endfacet
facet normal 0 0 1
outer loop
vertex 11 -11.241270357552523 5
vertex 9.36423292861899 -11.9 5
vertex 9.674738302721767 -11.9 5
endloop
endfacet
facet normal 0 0 1
outer loop
vertex 10.242640687119293 -11.091168824543136 5
vertex 11 -10.393798136098454 5
vertex 11 -9.906756977058672 5
endloop
endfacet
facet normal 0 0 -1
outer loop
vertex 10.999999999999998 -19.601721991845984 0
vertex 10.999999999999998 -20.3 0
vertex 2.5999999999999996 -11.899999999999999 0
endloop
endfacet
facet normal 0 0 -1
outer loop
vertex 10.999999999999998 -19.601721991845984 0
vertex 2.5999999999999996 -11.899999999999999 0
vertex 2.635767071381009 -11.899999999999999 0
endloop
endfacet
facet normal 0 0 -1
outer loop
vertex 10.999999999999998 -16.21183310602966 0
vertex 10.999999999999998 -19.601721991845984 0
vertex 2.9999999999999822 -12.235382907247942 0
endloop
endfacet
facet normal 0 0 -1
outer loop
vertex 11 -13.98991498552435 0
vertex 10.999999999999998 -16.21183310602966 0
vertex 4.447085729384863 -12.954665949281278 0
endloop
endfacet
facet normal 0 0 -1
outer loop
vertex 11 -12.41008501447564 0
vertex 11 -13.98991498552435 0
vertex 6.000000000000066 -13.199999999999996 0
endloop
endfacet
facet normal 0 0 -1
outer loop
vertex 11 -12.41008501447564 0
vertex 7.552914270615072 -12.95466594928131 0
vertex 9.674738302721767 -11.9 0
endloop
endfacet
facet normal 0 0 -1
outer loop
vertex 11 -12.41008501447564 0
vertex 9.674738302721767 -11.9 0
vertex 11 -11.9 0
endloop
endfacet
facet normal 0 0 -1
outer loop
vertex 9.00000000000002 -12.23538290724794 0
vertex 9.36423292861899 -11.9 0
vertex 9.674738302721767 -11.9 0
endloop
endfacet
facet normal -0.7071067811865481 -0.707106781186547 0
outer loop
vertex 10.999999999999998 -20.3 5
vertex 2.5999999999999996 -11.899999999999999 5
vertex 2.5999999999999996 -11.899999999999999 0
endloop
endfacet
facet normal -0.7071067811865481 -0.707106781186547 0
outer loop
vertex 10.999999999999998 -20.3 5
vertex 2.5999999999999996 -11.899999999999999 0
vertex 10.999999999999998 -20.3 0
endloop
endfacet
facet normal 0 0 1
outer loop
vertex 2.6357670713810086 -11.899999999999999 5
vertex 2.5999999999999996 -11.899999999999999 5
vertex 10.999999999999998 -20.3 5
endloop
endfacet
facet normal 0 0 1
outer loop
vertex 2.6357670713810086 -11.899999999999999 5
vertex 10.999999999999998 -20.3 5
vertex 10.999999999999998 -19.601721991845984 5
endloop
endfacet
facet normal 0 0 1
outer loop
vertex 2.9999999999999787 -12.235382907247939 5
vertex 10.999999999999998 -19.601721991845984 5
vertex 10.999999999999998 -16.211833106029662 5
endloop
endfacet
facet normal 0 0 1
outer loop
vertex 4.447085729384868 -12.954665949281278 5
vertex 10.999999999999998 -16.211833106029662 5
vertex 11 -13.98991498552435 5
endloop
endfacet
facet normal 0 0 1
outer loop
vertex 6.000000000000065 -13.199999999999996 5
vertex 11 -13.98991498552435 5
vertex 11 -12.41008501447564 5
endloop
endfacet
facet normal 0 0 1
outer loop
vertex 9.674738302721769 -11.9 5
vertex 7.552914270615078 -12.954665949281308 5
vertex 11 -12.41008501447564 5
endloop
endfacet
facet normal 0 0 1
outer loop
vertex 9.674738302721769 -11.9 5
vertex 11 -12.41008501447564 5
vertex 11 -11.9 5
endloop
endfacet
facet normal 0 0 1
outer loop
vertex 9.000000000000014 -12.235382907247944 5
vertex 9.674738302721769 -11.9 5
vertex 9.364232928618991 -11.9 5
endloop
endfacet
facet normal 0 0 -1
outer loop
vertex 13.136296694843722 -16.35723635176227 0
vertex 13.599843235101112 -17.70015676489889 0
vertex 13.314891250596286 -17.985108749403715 0
endloop
endfacet
facet normal 0 0 -1
outer loop
vertex 13.136296694843722 -16.35723635176227 0
vertex 12.724487145868935 -12.603631461420564 0
vertex 15.053731745082025 -16.246268254917975 0
endloop
endfacet
facet normal 0 0 -1
outer loop
vertex 13.136296694843722 -16.35723635176227 0
vertex 15.053731745082025 -16.246268254917975 0
vertex 13.599843235101112 -17.70015676489889 0
endloop
endfacet
facet normal 0 0 -1
outer loop
vertex 12.724487145868935 -12.603631461420564 0
vertex 12.648586468570139 -11.911804003319407 0
vertex 16.15735169417456 -15.142648305825439 0
endloop
endfacet
facet normal 0 0 -1
outer loop
vertex 12.724487145868935 -12.603631461420564 0
vertex 16.15735169417456 -15.142648305825439 0
vertex 15.053731745082025 -16.246268254917975 0
endloop
endfacet
facet normal 0 0 -1
outer loop
vertex 12.999999999999984 -12.235382907247942 0
vertex 17.051028137448583 -14.248971862551416 0
vertex 16.15735169417456 -15.142648305825439 0
endloop
endfacet
facet normal 0 0 -1
outer loop
vertex 14.447085729384868 -12.95466594928128 0
vertex 17.813498130154173 -13.486501869845826 0
vertex 17.051028137448583 -14.248971862551416 0
endloop
endfacet
facet normal 0 0 -1
outer loop
vertex 16.00000000000007 -13.199999999999998 0
vertex 18.49401139499501 -12.80598860500499 0
vertex 17.813498130154173 -13.486501869845826 0
endloop
endfacet
facet normal 0 0 -1
outer loop
vertex 17.552914270615066 -12.954665949281312 0
vertex 19.128477778965202 -12.171522221034797 0
vertex 18.49401139499501 -12.80598860500499 0
endloop
endfacet
facet normal 0 0 -1
outer loop
vertex 19.000000000000018 -12.23538290724794 0
vertex 19.364232928618986 -11.900000000000002 0
vertex 19.4 -11.900000000000002 0
endloop
endfacet
facet normal 0 0 -1
outer loop
vertex 19.000000000000018 -12.23538290724794 0
vertex 19.4 -11.900000000000002 0
vertex 19.128477778965202 -12.171522221034797 0
endloop
endfacet
facet normal 0 0 -1
outer loop
vertex 11.36353643079706 -19.93646356920294 0
vertex 10.999999999999998 -20.3 0
vertex 10.999999999999998 -19.601721991845984 0
endloop
endfacet
facet normal 0 0 -1
outer loop
vertex 13.24264068711928 -17.32655173179109 0
vertex 13.314891250596286 -17.985108749403715 0
vertex 11.36353643079706 -19.93646356920294 0
endloop
endfacet
facet normal 0 0 -1
outer loop
vertex 13.24264068711928 -17.32655173179109 0
vertex 11.36353643079706 -19.93646356920294 0
vertex 10.999999999999998 -19.601721991845984 0
endloop
endfacet
facet normal 0 0 -1
outer loop
vertex 13.24264068711928 -17.32655173179109 0
vertex 10.999999999999998 -19.601721991845984 0
vertex 10.999999999999998 -16.211833106029662 0
endloop
endfacet
facet normal 0 0 -1
outer loop
vertex 12.909676118523613 -14.291611342228313 0
vertex 13.24264068711928 -17.32655173179109 0
vertex 10.999999999999998 -16.211833106029662 0
endloop
endfacet
facet normal 0 0 -1
outer loop
vertex 12.909676118523613 -14.291611342228313 0
vertex 10.999999999999998 -16.211833106029662 0
vertex 11 -13.98991498552435 0
endloop
endfacet
facet normal 0 0 -1
outer loop
vertex 12.67423461417477 -12.14558441227159 0
vertex 12.909676118523613 -14.291611342228313 0
vertex 11 -13.98991498552435 0
endloop
endfacet
facet normal 0 0 -1
outer loop
vertex 12.67423461417477 -12.14558441227159 0
vertex 11 -13.98991498552435 0
vertex 11 -12.41008501447564 0
endloop
endfacet
facet normal 0 0 -1
outer loop
vertex 11.597756905175133 -11.9 0
vertex 11.733810667518517 -12.294155405913537 0
vertex 11 -12.41008501447564 0
endloop
endfacet
facet normal 0 0 -1
outer loop
vertex 11.597756905175133 -11.9 0
vertex 11 -12.41008501447564 0
vertex 11 -11.9 0
endloop
endfacet
facet normal 0 0 -1
outer loop
vertex 11.597756905175133 -11.9 0
vertex 12.274557637586373 -11.9 0
vertex 12.453856624901707 -12.180400387512893 0
endloop
endfacet
facet normal 0 0 -1
outer loop
vertex 11.597756905175133 -11.9 0
vertex 12.453856624901707 -12.180400387512893 0
vertex 11.733810667518517 -12.294155405913537 0
endloop
endfacet
facet normal 0 0 -1
outer loop
vertex 12.274557637586373 -11.9 0
vertex 12.635767071381013 -11.9 0
vertex 12.648586468570139 -11.911804003319407 0
endloop
endfacet
facet normal 0 0 -1
outer loop
vertex 12.274557637586373 -11.9 0
vertex 12.648586468570139 -11.911804003319407 0
vertex 12.67423461417477 -12.14558441227159 0
endloop
endfacet
facet normal 0 0 -1
outer loop
vertex 12.274557637586373 -11.9 0
vertex 12.67423461417477 -12.14558441227159 0
vertex 12.453856624901707 -12.180400387512893 0
endloop
endfacet
facet normal 0.7071067811865468 -0.7071067811865482 0
outer loop
vertex 19.4 -11.900000000000002 5
vertex 10.999999999999998 -20.3 5
vertex 10.999999999999998 -20.3 0
endloop
endfacet
facet normal 0.7071067811865468 -0.7071067811865482 0
outer loop
vertex 19.4 -11.900000000000002 5
vertex 10.999999999999998 -20.3 0
vertex 19.4 -11.900000000000002 0
endloop
endfacet
facet normal 0 0 1
outer loop
vertex 13.136296694843722 -16.357236351762268 5
vertex 13.314891250596286 -17.985108749403715 5
vertex 13.599843235101114 -17.700156764898885 5
endloop
endfacet
facet normal 0 0 1
outer loop
vertex 12.724487145868936 -12.603631461420566 5
vertex 13.136296694843722 -16.357236351762268 5
vertex 13.599843235101114 -17.700156764898885 5
endloop
endfacet
facet normal 0 0 1
outer loop
vertex 12.724487145868936 -12.603631461420566 5
vertex 13.599843235101114 -17.700156764898885 5
vertex 15.053731745082024 -16.246268254917975 5
endloop
endfacet
facet normal 0 0 1
outer loop
vertex 12.648586468570139 -11.911804003319407 5
vertex 12.724487145868936 -12.603631461420566 5
vertex 15.053731745082024 -16.246268254917975 5
endloop
endfacet
facet normal 0 0 1
outer loop
vertex 12.648586468570139 -11.911804003319407 5
vertex 15.053731745082024 -16.246268254917975 5
vertex 16.15735169417456 -15.142648305825439 5
endloop
endfacet
facet normal 0 0 1
outer loop
vertex 12.999999999999986 -12.235382907247944 5
vertex 16.15735169417456 -15.142648305825439 5
vertex 17.051028137448586 -14.248971862551416 5
endloop
endfacet
facet normal 0 0 1
outer loop
vertex 14.447085729384867 -12.95466594928128 5
vertex 17.051028137448586 -14.248971862551416 5
vertex 17.813498130154173 -13.486501869845828 5
endloop
endfacet
facet normal 0 0 1
outer loop
vertex 16.000000000000064 -13.199999999999998 5
vertex 17.813498130154173 -13.486501869845828 5
vertex 18.49401139499501 -12.805988605004991 5
endloop
endfacet
facet normal 0 0 1
outer loop
vertex 17.55291427061506 -12.954665949281313 5
vertex 18.49401139499501 -12.805988605004991 5
vertex 19.128477778965213 -12.17152222103479 5
endloop
endfacet
facet normal 0 0 1
outer loop
vertex 19.000000000000025 -12.235382907247933 5
vertex 19.128477778965213 -12.17152222103479 5
vertex 19.4 -11.900000000000002 5
endloop
endfacet
facet normal 0 0 1
outer loop
vertex 19.000000000000025 -12.235382907247933 5
vertex 19.4 -11.900000000000002 5
vertex 19.364232928618982 -11.900000000000002 5
endloop
endfacet
facet normal 0 0 1
outer loop
vertex 10.999999999999998 -19.601721991845984 5
vertex 10.999999999999998 -20.3 5
vertex 11.36353643079706 -19.93646356920294 5
endloop
endfacet
facet normal 0 0 1
outer loop
vertex 10.999999999999998 -16.21183310602966 5
vertex 10.999999999999998 -19.601721991845984 5
vertex 11.36353643079706 -19.93646356920294 5
endloop
endfacet
facet normal 0 0 1
outer loop
vertex 10.999999999999998 -16.21183310602966 5
vertex 11.36353643079706 -19.93646356920294 5
vertex 13.314891250596286 -17.985108749403715 5
endloop
endfacet
facet normal 0 0 1
outer loop
vertex 10.999999999999998 -16.21183310602966 5
vertex 13.314891250596286 -17.985108749403715 5
vertex 13.24264068711928 -17.32655173179109 5
endloop
endfacet
facet normal 0 0 1
outer loop
vertex 11 -13.98991498552435 5
vertex 10.999999999999998 -16.21183310602966 5
vertex 13.24264068711928 -17.32655173179109 5
endloop
endfacet
facet normal 0 0 1
outer loop
vertex 11 -13.98991498552435 5
vertex 13.24264068711928 -17.32655173179109 5
vertex 12.909676118523613 -14.291611342228313 5
endloop
endfacet
facet normal 0 0 1
outer loop
vertex 11 -12.41008501447564 5
vertex 11 -13.98991498552435 5
vertex 12.909676118523613 -14.291611342228313 5
endloop
endfacet
facet normal 0 0 1
outer loop
vertex 11 -12.41008501447564 5
vertex 12.909676118523613 -14.291611342228313 5
vertex 12.67423461417477 -12.14558441227159 5
endloop
endfacet
facet normal 0 0 1
outer loop
vertex 11 -12.41008501447564 5
vertex 11.733810667518517 -12.29415540591354 5
vertex 11.597756905175133 -11.9 5
endloop
endfacet
facet normal 0 0 1
outer loop
vertex 11 -12.41008501447564 5
vertex 11.597756905175133 -11.9 5
vertex 11 -11.9 5
endloop
endfacet
facet normal 0 0 1
outer loop
vertex 11.733810667518517 -12.29415540591354 5
vertex 12.453856624901707 -12.180400387512895 5
vertex 12.274557637586373 -11.9 5
endloop
endfacet
facet normal 0 0 1
outer loop
vertex 11.733810667518517 -12.29415540591354 5
vertex 12.274557637586373 -11.9 5
vertex 11.597756905175133 -11.9 5
endloop
endfacet
facet normal 0 0 1
outer loop
vertex 12.453856624901707 -12.180400387512895 5
vertex 12.67423461417477 -12.14558441227159 5
vertex 12.648586468570139 -11.911804003319407 5
endloop
endfacet
facet normal 0 0 1
outer loop
vertex 12.453856624901707 -12.180400387512895 5
vertex 12.648586468570139 -11.911804003319407 5
vertex 12.635767071381013 -11.9 5
endloop
endfacet
facet normal 0 0 1
outer loop
vertex 12.453856624901707 -12.180400387512895 5
vertex 12.635767071381013 -11.9 5
vertex 12.274557637586373 -11.9 5
endloop
endfacet
endsolid craftml
