solid craftml
facet normal -1 0 0
outer loop
vertex -5 5 15
vertex -5 5 10
vertex -5 -15 10
endloop
endfacet
facet normal -1 0 0
outer loop
vertex -5 5 15
vertex -5 -15 10
vertex -5 -15 15
endloop
endfacet
facet normal -1 0 0
outer loop
vertex -5 5 10
vertex -5 5 0
vertex -5 0 0
endloop
endfacet
facet normal -1 0 0
outer loop
vertex -5 5 10
vertex -5 0 0
vertex -5 0 10
endloop
endfacet
facet normal -1 0 0
outer loop
vertex -5 -10 10
vertex -5 -10 0
vertex -5 -15 0
endloop
endfacet
facet normal -1 0 0
outer loop
vertex -5 -10 10
vertex -5 -15 0
vertex -5 -15 10
endloop
endfacet
facet normal -1 0 0
outer loop
vertex -5 5 0
vertex -5 5 -5
vertex -5 -15 -5
endloop
endfacet
facet normal -1 0 0
outer loop
vertex -5 5 0
vertex -5 -15 -5
vertex -5 -15 0
endloop
endfacet
facet normal 0 1 0
outer loop
vertex -5 5 -5
vertex -5 5 0
vertex 15 5 0
endloop
endfacet
facet normal 0 1 0
outer loop
vertex -5 5 -5
vertex 15 5 0
vertex 15 5 -5
endloop
endfacet
facet normal 0 1 0
outer loop
vertex -5 5 0
vertex -5 5 10
vertex 0 5 10
endloop
endfacet
facet normal 0 1 0
outer loop
vertex -5 5 0
vertex 0 5 10
vertex 0 5 0
endloop
endfacet
facet normal 0 1 0
outer loop
vertex 10 5 0
vertex 10 5 10
vertex 15 5 10
endloop
endfacet
facet normal 0 1 0
outer loop
vertex 10 5 0
vertex 15 5 10
vertex 15 5 0
endloop
endfacet
facet normal 0 1 0
outer loop
vertex -5 5 10
vertex -5 5 15
vertex 15 5 15
endloop
endfacet
facet normal 0 1 0
outer loop
vertex -5 5 10
vertex 15 5 15
vertex 15 5 10
endloop
endfacet
facet normal 0 -1 0
outer loop
vertex -5 -15 15
vertex -5 -15 10
vertex 15 -15 10
endloop
endfacet
facet normal 0 -1 0
outer loop
vertex -5 -15 15
vertex 15 -15 10
vertex 15 -15 15
endloop
endfacet
facet normal 0 -1 0
outer loop
vertex -5 -15 10
vertex -5 -15 0
vertex 0 -15 0
endloop
endfacet
facet normal 0 -1 0
outer loop
vertex -5 -15 10
vertex 0 -15 0
vertex 0 -15 10
endloop
endfacet
facet normal 0 -1 0
outer loop
vertex 10 -15 10
vertex 10 -15 0
vertex 15 -15 0
endloop
endfacet
facet normal 0 -1 0
outer loop
vertex 10 -15 10
vertex 15 -15 0
vertex 15 -15 10
endloop
endfacet
facet normal 0 -1 0
outer loop
vertex -5 -15 0
vertex -5 -15 -5
vertex 15 -15 -5
endloop
endfacet
facet normal 0 -1 0
outer loop
vertex -5 -15 0
vertex 15 -15 -5
vertex 15 -15 0
endloop
endfacet
facet normal 0 0 -1
outer loop
vertex -5 -15 -5
vertex -5 -10 -5
vertex 15 -10 -5
endloop
endfacet
facet normal 0 0 -1
outer loop
vertex -5 -15 -5
vertex 15 -10 -5
vertex 15 -15 -5
endloop
endfacet
facet normal 0 0 -1
outer loop
vertex -5 -10 -5
vertex -5 0 -5
vertex 0 0 -5
endloop
endfacet
facet normal 0 0 -1
outer loop
vertex -5 -10 -5
vertex 0 0 -5
vertex 0 -10 -5
endloop
endfacet
facet normal 0 0 -1
outer loop
vertex 10 -10 -5
vertex 10 0 -5
vertex 15 0 -5
endloop
endfacet
facet normal 0 0 -1
outer loop
vertex 10 -10 -5
vertex 15 0 -5
vertex 15 -10 -5
endloop
endfacet
facet normal 0 0 -1
outer loop
vertex -5 0 -5
vertex -5 5 -5
vertex 15 5 -5
endloop
endfacet
facet normal 0 0 -1
outer loop
vertex -5 0 -5
vertex 15 5 -5
vertex 15 0 -5
endloop
endfacet
facet normal 0 0 1
outer loop
vertex -5 5 15
vertex -5 0 15
vertex 15 0 15
endloop
endfacet
facet normal 0 0 1
outer loop
vertex -5 5 15
vertex 15 0 15
vertex 15 5 15
endloop
endfacet
facet normal 0 0 1
outer loop
vertex -5 0 15
vertex -5 -10 15
vertex 0 -10 15
endloop
endfacet
facet normal 0 0 1
outer loop
vertex -5 0 15
vertex 0 -10 15
vertex 0 0 15
endloop
endfacet
facet normal 0 0 1
outer loop
vertex 10 0 15
vertex 10 -10 15
vertex 15 -10 15
endloop
endfacet
facet normal 0 0 1
outer loop
vertex 10 0 15
vertex 15 -10 15
vertex 15 0 15
endloop
endfacet
facet normal 0 0 1
outer loop
vertex -5 -10 15
vertex -5 -15 15
vertex 15 -15 15
endloop
endfacet
facet normal 0 0 1
outer loop
vertex -5 -10 15
vertex 15 -15 15
vertex 15 -10 15
endloop
endfacet
facet normal 1 0 0
outer loop
vertex 0 0 -5
vertex 0 0 0
vertex 0 -10 0
endloop
endfacet
facet normal 1 0 0
outer loop
vertex 0 0 -5
vertex 0 -10 0
vertex 0 -10 -5
endloop
endfacet
facet normal 1 0 0
outer loop
vertex 0 5 0
vertex 0 5 10
vertex 0 0 10
endloop
endfacet
facet normal 1 0 0
outer loop
vertex 0 5 0
vertex 0 0 10
vertex 0 0 0
endloop
endfacet
facet normal 1 0 0
outer loop
vertex 0 -10 0
vertex 0 -10 10
vertex 0 -15 10
endloop
endfacet
facet normal 1 0 0
outer loop
vertex 0 -10 0
vertex 0 -15 10
vertex 0 -15 0
endloop
endfacet
facet normal 1 0 0
outer loop
vertex 0 0 10
vertex 0 0 15
vertex 0 -10 15
endloop
endfacet
facet normal 1 0 0
outer loop
vertex 0 0 10
vertex 0 -10 15
vertex 0 -10 10
endloop
endfacet
facet normal -1 0 0
outer loop
vertex 10 0 15
vertex 10 0 10
vertex 10 -10 10
endloop
endfacet
facet normal -1 0 0
outer loop
vertex 10 0 15
vertex 10 -10 10
vertex 10 -10 15
endloop
endfacet
facet normal -1 0 0
outer loop
vertex 10 5 10
vertex 10 5 0
vertex 10 0 0
endloop
endfacet
facet normal -1 0 0
outer loop
vertex 10 5 10
vertex 10 0 0
vertex 10 0 10
endloop
endfacet
facet normal -1 0 0
outer loop
vertex 10 -10 10
vertex 10 -10 0
vertex 10 -15 0
endloop
endfacet
facet normal -1 0 0
outer loop
vertex 10 -10 10
vertex 10 -15 0
vertex 10 -15 10
endloop
endfacet
facet normal -1 0 0
outer loop
vertex 10 0 0
vertex 10 0 -5
vertex 10 -10 -5
endloop
endfacet
facet normal -1 0 0
outer loop
vertex 10 0 0
vertex 10 -10 -5
vertex 10 -10 0
endloop
endfacet
facet normal 0 -1 0
outer loop
vertex 0 0 15
vertex 0 0 10
vertex 10 0 10
endloop
endfacet
facet normal 0 -1 0
outer loop
vertex 0 0 15
vertex 10 0 10
vertex 10 0 15
endloop
endfacet
facet normal 0 -1 0
outer loop
vertex -5 0 10
vertex -5 0 0
vertex 0 0 0
endloop
endfacet
facet normal 0 -1 0
outer loop
vertex -5 0 10
vertex 0 0 0
vertex 0 0 10
endloop
endfacet
facet normal 0 -1 0
outer loop
vertex 10 0 10
vertex 10 0 0
vertex 15 0 0
endloop
endfacet
facet normal 0 -1 0
outer loop
vertex 10 0 10
vertex 15 0 0
vertex 15 0 10
endloop
endfacet
facet normal 0 -1 0
outer loop
vertex 0 0 0
vertex 0 0 -5
vertex 10 0 -5
endloop
endfacet
facet normal 0 -1 0
outer loop
vertex 0 0 0
vertex 10 0 -5
vertex 10 0 0
endloop
endfacet
facet normal 0 1 0
outer loop
vertex 0 -10 -5
vertex 0 -10 0
vertex 10 -10 0
endloop
endfacet
facet normal 0 1 0
outer loop
vertex 0 -10 -5
vertex 10 -10 0
vertex 10 -10 -5
endloop
endfacet
facet normal 0 1 0
outer loop
vertex -5 -10 0
vertex -5 -10 10
vertex 0 -10 10
endloop
endfacet
facet normal 0 1 0
outer loop
vertex -5 -10 0
vertex 0 -10 10
vertex 0 -10 0
endloop
endfacet
facet normal 0 1 0
outer loop
vertex 10 -10 0
vertex 10 -10 10
vertex 15 -10 10
endloop
endfacet
facet normal 0 1 0
outer loop
vertex 10 -10 0
vertex 15 -10 10
vertex 15 -10 0
endloop
endfacet
facet normal 0 1 0
outer loop
vertex 0 -10 10
vertex 0 -10 15
vertex 10 -10 15
endloop
endfacet
facet normal 0 1 0
outer loop
vertex 0 -10 10
vertex 10 -10 15
vertex 10 -10 10
endloop
endfacet
facet normal 0 0 1
outer loop
vertex 0 5 0
vertex 0 0 0
vertex 10 0 0
endloop
endfacet
facet normal 0 0 1
outer loop
vertex 0 5 0
vertex 10 0 0
vertex 10 5 0
endloop
endfacet
facet normal 0 0 1
outer loop
vertex -5 0 0
vertex -5 -10 0
vertex 0 -10 0
endloop
endfacet
facet normal 0 0 1
outer loop
vertex -5 0 0
vertex 0 -10 0
vertex 0 0 0
endloop
endfacet
facet normal 0 0 1
outer loop
vertex 10 0 0
vertex 10 -10 0
vertex 15 -10 0
endloop
endfacet
facet normal 0 0 1
outer loop
vertex 10 0 0
vertex 15 -10 0
vertex 15 0 0
endloop
endfacet
facet normal 0 0 1
outer loop
vertex 0 -10 0
vertex 0 -15 0
vertex 10 -15 0
endloop
endfacet
facet normal 0 0 1
outer loop
vertex 0 -10 0
vertex 10 -15 0
vertex 10 -10 0
endloop
endfacet
facet normal 0 0 -1
outer loop
vertex 0 -15 10
vertex 0 -10 10
vertex 10 -10 10
endloop
endfacet
facet normal 0 0 -1
outer loop
vertex 0 -15 10
vertex 10 -10 10
vertex 10 -15 10
endloop
endfacet
facet normal 0 0 -1
outer loop
vertex -5 -10 10
vertex -5 0 10
vertex 0 0 10
endloop
endfacet
facet normal 0 0 -1
outer loop
vertex -5 -10 10
vertex 0 0 10
vertex 0 -10 10
endloop
endfacet
facet normal 0 0 -1
outer loop
vertex 10 -10 10
vertex 10 0 10
vertex 15 0 10
endloop
endfacet
facet normal 0 0 -1
outer loop
vertex 10 -10 10
vertex 15 0 10
vertex 15 -10 10
endloop
endfacet
facet normal 0 0 -1
outer loop
vertex 0 0 10
vertex 0 5 10
vertex 10 5 10
endloop
endfacet
facet normal 0 0 -1
outer loop
vertex 0 0 10
vertex 10 5 10
vertex 10 0 10
endloop
endfacet
facet normal 0 1 0
outer loop
vertex 15 5 -5
vertex 15 5 0
vertex 35 5 0
endloop
endfacet
facet normal 0 1 0
outer loop
vertex 15 5 -5
vertex 35 5 0
vertex 35 5 -5
endloop
endfacet
facet normal 0 1 0
outer loop
vertex 15 5 0
vertex 15 5 10
vertex 20 5 10
endloop
endfacet
facet normal 0 1 0
outer loop
vertex 15 5 0
vertex 20 5 10
vertex 20 5 0
endloop
endfacet
facet normal 0 1 0
outer loop
vertex 30 5 0
vertex 30 5 10
vertex 35 5 10
endloop
endfacet
facet normal 0 1 0
outer loop
vertex 30 5 0
vertex 35 5 10
vertex 35 5 0
endloop
endfacet
facet normal 0 1 0
outer loop
vertex 15 5 10
vertex 15 5 15
vertex 35 5 15
endloop
endfacet
facet normal 0 1 0
outer loop
vertex 15 5 10
vertex 35 5 15
vertex 35 5 10
endloop
endfacet
facet normal 0 -1 0
outer loop
vertex 15 -15 15
vertex 15 -15 10
vertex 35 -15 10
endloop
endfacet
facet normal 0 -1 0
outer loop
vertex 15 -15 15
vertex 35 -15 10
vertex 35 -15 15
endloop
endfacet
facet normal 0 -1 0
outer loop
vertex 15 -15 10
vertex 15 -15 0
vertex 20 -15 0
endloop
endfacet
facet normal 0 -1 0
outer loop
vertex 15 -15 10
vertex 20 -15 0
vertex 20 -15 10
endloop
endfacet
facet normal 0 -1 0
outer loop
vertex 30 -15 10
vertex 30 -15 0
vertex 35 -15 0
endloop
endfacet
facet normal 0 -1 0
outer loop
vertex 30 -15 10
vertex 35 -15 0
vertex 35 -15 10
endloop
endfacet
facet normal 0 -1 0
outer loop
vertex 15 -15 0
vertex 15 -15 -5
vertex 35 -15 -5
endloop
endfacet
facet normal 0 -1 0
outer loop
vertex 15 -15 0
vertex 35 -15 -5
vertex 35 -15 0
endloop
endfacet
facet normal 0 0 -1
outer loop
vertex 15 -15 -5
vertex 15 -10 -5
vertex 35 -10 -5
endloop
endfacet
facet normal 0 0 -1
outer loop
vertex 15 -15 -5
vertex 35 -10 -5
vertex 35 -15 -5
endloop
endfacet
facet normal 0 0 -1
outer loop
vertex 15 -10 -5
vertex 15 0 -5
vertex 20 0 -5
endloop
endfacet
facet normal 0 0 -1
outer loop
vertex 15 -10 -5
vertex 20 0 -5
vertex 20 -10 -5
endloop
endfacet
facet normal 0 0 -1
outer loop
vertex 30 -10 -5
vertex 30 0 -5
vertex 35 0 -5
endloop
endfacet
facet normal 0 0 -1
outer loop
vertex 30 -10 -5
vertex 35 0 -5
vertex 35 -10 -5
endloop
endfacet
facet normal 0 0 -1
outer loop
vertex 15 0 -5
vertex 15 5 -5
vertex 35 5 -5
endloop
endfacet
facet normal 0 0 -1
outer loop
vertex 15 0 -5
vertex 35 5 -5
vertex 35 0 -5
endloop
endfacet
facet normal 0 0 1
outer loop
vertex 15 5 15
vertex 15 0 15
vertex 35 0 15
endloop
endfacet
facet normal 0 0 1
outer loop
vertex 15 5 15
vertex 35 0 15
vertex 35 5 15
endloop
endfacet
facet normal 0 0 1
outer loop
vertex 15 0 15
vertex 15 -10 15
vertex 20 -10 15
endloop
endfacet
facet normal 0 0 1
outer loop
vertex 15 0 15
vertex 20 -10 15
vertex 20 0 15
endloop
endfacet
facet normal 0 0 1
outer loop
vertex 30 0 15
vertex 30 -10 15
vertex 35 -10 15
endloop
endfacet
facet normal 0 0 1
outer loop
vertex 30 0 15
vertex 35 -10 15
vertex 35 0 15
endloop
endfacet
facet normal 0 0 1
outer loop
vertex 15 -10 15
vertex 15 -15 15
vertex 35 -15 15
endloop
endfacet
facet normal 0 0 1
outer loop
vertex 15 -10 15
vertex 35 -15 15
vertex 35 -10 15
endloop
endfacet
facet normal 1 0 0
outer loop
vertex 20 0 -5
vertex 20 0 0
vertex 20 -10 0
endloop
endfacet
facet normal 1 0 0
outer loop
vertex 20 0 -5
vertex 20 -10 0
vertex 20 -10 -5
endloop
endfacet
facet normal 1 0 0
outer loop
vertex 20 5 0
vertex 20 5 10
vertex 20 0 10
endloop
endfacet
facet normal 1 0 0
outer loop
vertex 20 5 0
vertex 20 0 10
vertex 20 0 0
endloop
endfacet
facet normal 1 0 0
outer loop
vertex 20 -10 0
vertex 20 -10 10
vertex 20 -15 10
endloop
endfacet
facet normal 1 0 0
outer loop
vertex 20 -10 0
vertex 20 -15 10
vertex 20 -15 0
endloop
endfacet
facet normal 1 0 0
outer loop
vertex 20 0 10
vertex 20 0 15
vertex 20 -10 15
endloop
endfacet
facet normal 1 0 0
outer loop
vertex 20 0 10
vertex 20 -10 15
vertex 20 -10 10
endloop
endfacet
facet normal -1 0 0
outer loop
vertex 30 0 15
vertex 30 0 10
vertex 30 -10 10
endloop
endfacet
facet normal -1 0 0
outer loop
vertex 30 0 15
vertex 30 -10 10
vertex 30 -10 15
endloop
endfacet
facet normal -1 0 0
outer loop
vertex 30 5 10
vertex 30 5 0
vertex 30 0 0
endloop
endfacet
facet normal -1 0 0
outer loop
vertex 30 5 10
vertex 30 0 0
vertex 30 0 10
endloop
endfacet
facet normal -1 0 0
outer loop
vertex 30 -10 10
vertex 30 -10 0
vertex 30 -15 0
endloop
endfacet
facet normal -1 0 0
outer loop
vertex 30 -10 10
vertex 30 -15 0
vertex 30 -15 10
endloop
endfacet
facet normal -1 0 0
outer loop
vertex 30 0 0
vertex 30 0 -5
vertex 30 -10 -5
endloop
endfacet
facet normal -1 0 0
outer loop
vertex 30 0 0
vertex 30 -10 -5
vertex 30 -10 0
endloop
endfacet
facet normal 0 -1 0
outer loop
vertex 20 0 15
vertex 20 0 10
vertex 30 0 10
endloop
endfacet
facet normal 0 -1 0
outer loop
vertex 20 0 15
vertex 30 0 10
vertex 30 0 15
endloop
endfacet
facet normal 0 -1 0
outer loop
vertex 15 0 10
vertex 15 0 0
vertex 20 0 0
endloop
endfacet
facet normal 0 -1 0
outer loop
vertex 15 0 10
vertex 20 0 0
vertex 20 0 10
endloop
endfacet
facet normal 0 -1 0
outer loop
vertex 30 0 10
vertex 30 0 0
vertex 35 0 0
endloop
endfacet
facet normal 0 -1 0
outer loop
vertex 30 0 10
vertex 35 0 0
vertex 35 0 10
endloop
endfacet
facet normal 0 -1 0
outer loop
vertex 20 0 0
vertex 20 0 -5
vertex 30 0 -5
endloop
endfacet
facet normal 0 -1 0
outer loop
vertex 20 0 0
vertex 30 0 -5
vertex 30 0 0
endloop
endfacet
facet normal 0 1 0
outer loop
vertex 20 -10 -5
vertex 20 -10 0
vertex 30 -10 0
endloop
endfacet
facet normal 0 1 0
outer loop
vertex 20 -10 -5
vertex 30 -10 0
vertex 30 -10 -5
endloop
endfacet
facet normal 0 1 0
outer loop
vertex 15 -10 0
vertex 15 -10 10
vertex 20 -10 10
endloop
endfacet
facet normal 0 1 0
outer loop
vertex 15 -10 0
vertex 20 -10 10
vertex 20 -10 0
endloop
endfacet
facet normal 0 1 0
outer loop
vertex 30 -10 0
vertex 30 -10 10
vertex 35 -10 10
endloop
endfacet
facet normal 0 1 0
outer loop
vertex 30 -10 0
vertex 35 -10 10
vertex 35 -10 0
endloop
endfacet
facet normal 0 1 0
outer loop
vertex 20 -10 10
vertex 20 -10 15
vertex 30 -10 15
endloop
endfacet
facet normal 0 1 0
outer loop
vertex 20 -10 10
vertex 30 -10 15
vertex 30 -10 10
endloop
endfacet
facet normal 0 0 1
outer loop
vertex 20 5 0
vertex 20 0 0
vertex 30 0 0
endloop
endfacet
facet normal 0 0 1
outer loop
vertex 20 5 0
vertex 30 0 0
vertex 30 5 0
endloop
endfacet
facet normal 0 0 1
outer loop
vertex 15 0 0
vertex 15 -10 0
vertex 20 -10 0
endloop
endfacet
facet normal 0 0 1
outer loop
vertex 15 0 0
vertex 20 -10 0
vertex 20 0 0
endloop
endfacet
facet normal 0 0 1
outer loop
vertex 30 0 0
vertex 30 -10 0
vertex 35 -10 0
endloop
endfacet
facet normal 0 0 1
outer loop
vertex 30 0 0
vertex 35 -10 0
vertex 35 0 0
endloop
endfacet
facet normal 0 0 1
outer loop
vertex 20 -10 0
vertex 20 -15 0
vertex 30 -15 0
endloop
endfacet
facet normal 0 0 1
outer loop
vertex 20 -10 0
vertex 30 -15 0
vertex 30 -10 0
endloop
endfacet
facet normal 0 0 -1
outer loop
vertex 20 -15 10
vertex 20 -10 10
vertex 30 -10 10
endloop
endfacet
facet normal 0 0 -1
outer loop
vertex 20 -15 10
vertex 30 -10 10
vertex 30 -15 10
endloop
endfacet
facet normal 0 0 -1
outer loop
vertex 15 -10 10
vertex 15 0 10
vertex 20 0 10
endloop
endfacet
facet normal 0 0 -1
outer loop
vertex 15 -10 10
vertex 20 0 10
vertex 20 -10 10
endloop
endfacet
facet normal 0 0 -1
outer loop
vertex 30 -10 10
vertex 30 0 10
vertex 35 0 10
endloop
endfacet
facet normal 0 0 -1
outer loop
vertex 30 -10 10
vertex 35 0 10
vertex 35 -10 10
endloop
endfacet
facet normal 0 0 -1
outer loop
vertex 20 0 10
vertex 20 5 10
vertex 30 5 10
endloop
endfacet
facet normal 0 0 -1
outer loop
vertex 20 0 10
vertex 30 5 10
vertex 30 0 10
endloop
endfacet
facet normal 0 1 0
outer loop
vertex 35 5 -5
vertex 35 5 0
vertex 55 5 0
endloop
endfacet
facet normal 0 1 0
outer loop
vertex 35 5 -5
vertex 55 5 0
vertex 55 5 -5
endloop
endfacet
facet normal 0 1 0
outer loop
vertex 35 5 0
vertex 35 5 10
vertex 40 5 10
endloop
endfacet
facet normal 0 1 0
outer loop
vertex 35 5 0
vertex 40 5 10
vertex 40 5 0
endloop
endfacet
facet normal 0 1 0
outer loop
vertex 50 5 0
vertex 50 5 10
vertex 55 5 10
endloop
endfacet
facet normal 0 1 0
outer loop
vertex 50 5 0
vertex 55 5 10
vertex 55 5 0
endloop
endfacet
facet normal 0 1 0
outer loop
vertex 35 5 10
vertex 35 5 15
vertex 55 5 15
endloop
endfacet
facet normal 0 1 0
outer loop
vertex 35 5 10
vertex 55 5 15
vertex 55 5 10
endloop
endfacet
facet normal 0 -1 0
outer loop
vertex 35 -15 15
vertex 35 -15 10
vertex 55 -15 10
endloop
endfacet
facet normal 0 -1 0
outer loop
vertex 35 -15 15
vertex 55 -15 10
vertex 55 -15 15
endloop
endfacet
facet normal 0 -1 0
outer loop
vertex 35 -15 10
vertex 35 -15 0
vertex 40 -15 0
endloop
endfacet
facet normal 0 -1 0
outer loop
vertex 35 -15 10
vertex 40 -15 0
vertex 40 -15 10
endloop
endfacet
facet normal 0 -1 0
outer loop
vertex 50 -15 10
vertex 50 -15 0
vertex 55 -15 0
endloop
endfacet
facet normal 0 -1 0
outer loop
vertex 50 -15 10
vertex 55 -15 0
vertex 55 -15 10
endloop
endfacet
facet normal 0 -1 0
outer loop
vertex 35 -15 0
vertex 35 -15 -5
vertex 55 -15 -5
endloop
endfacet
facet normal 0 -1 0
outer loop
vertex 35 -15 0
vertex 55 -15 -5
vertex 55 -15 0
endloop
endfacet
facet normal 0 0 -1
outer loop
vertex 35 -15 -5
vertex 35 -10 -5
vertex 55 -10 -5
endloop
endfacet
facet normal 0 0 -1
outer loop
vertex 35 -15 -5
vertex 55 -10 -5
vertex 55 -15 -5
endloop
endfacet
facet normal 0 0 -1
outer loop
vertex 35 -10 -5
vertex 35 0 -5
vertex 40 0 -5
endloop
endfacet
facet normal 0 0 -1
outer loop
vertex 35 -10 -5
vertex 40 0 -5
vertex 40 -10 -5
endloop
endfacet
facet normal 0 0 -1
outer loop
vertex 50 -10 -5
vertex 50 0 -5
vertex 55 0 -5
endloop
endfacet
facet normal 0 0 -1
outer loop
vertex 50 -10 -5
vertex 55 0 -5
vertex 55 -10 -5
endloop
endfacet
facet normal 0 0 -1
outer loop
vertex 35 0 -5
vertex 35 5 -5
vertex 55 5 -5
endloop
endfacet
facet normal 0 0 -1
outer loop
vertex 35 0 -5
vertex 55 5 -5
vertex 55 0 -5
endloop
endfacet
facet normal 0 0 1
outer loop
vertex 35 5 15
vertex 35 0 15
vertex 55 0 15
endloop
endfacet
facet normal 0 0 1
outer loop
vertex 35 5 15
vertex 55 0 15
vertex 55 5 15
endloop
endfacet
facet normal 0 0 1
outer loop
vertex 35 0 15
vertex 35 -10 15
vertex 40 -10 15
endloop
endfacet
facet normal 0 0 1
outer loop
vertex 35 0 15
vertex 40 -10 15
vertex 40 0 15
endloop
endfacet
facet normal 0 0 1
outer loop
vertex 50 0 15
vertex 50 -10 15
vertex 55 -10 15
endloop
endfacet
facet normal 0 0 1
outer loop
vertex 50 0 15
vertex 55 -10 15
vertex 55 0 15
endloop
endfacet
facet normal 0 0 1
outer loop
vertex 35 -10 15
vertex 35 -15 15
vertex 55 -15 15
endloop
endfacet
facet normal 0 0 1
outer loop
vertex 35 -10 15
vertex 55 -15 15
vertex 55 -10 15
endloop
endfacet
facet normal 1 0 0
outer loop
vertex 40 0 -5
vertex 40 0 0
vertex 40 -10 0
endloop
endfacet
facet normal 1 0 0
outer loop
vertex 40 0 -5
vertex 40 -10 0
vertex 40 -10 -5
endloop
endfacet
facet normal 1 0 0
outer loop
vertex 40 5 0
vertex 40 5 10
vertex 40 0 10
endloop
endfacet
facet normal 1 0 0
outer loop
vertex 40 5 0
vertex 40 0 10
vertex 40 0 0
endloop
endfacet
facet normal 1 0 0
outer loop
vertex 40 -10 0
vertex 40 -10 10
vertex 40 -15 10
endloop
endfacet
facet normal 1 0 0
outer loop
vertex 40 -10 0
vertex 40 -15 10
vertex 40 -15 0
endloop
endfacet
facet normal 1 0 0
outer loop
vertex 40 0 10
vertex 40 0 15
vertex 40 -10 15
endloop
endfacet
facet normal 1 0 0
outer loop
vertex 40 0 10
vertex 40 -10 15
vertex 40 -10 10
endloop
endfacet
facet normal -1 0 0
outer loop
vertex 50 0 15
vertex 50 0 10
vertex 50 -10 10
endloop
endfacet
facet normal -1 0 0
outer loop
vertex 50 0 15
vertex 50 -10 10
vertex 50 -10 15
endloop
endfacet
facet normal -1 0 0
outer loop
vertex 50 5 10
vertex 50 5 0
vertex 50 0 0
endloop
endfacet
facet normal -1 0 0
outer loop
vertex 50 5 10
vertex 50 0 0
vertex 50 0 10
endloop
endfacet
facet normal -1 0 0
outer loop
vertex 50 -10 10
vertex 50 -10 0
vertex 50 -15 0
endloop
endfacet
facet normal -1 0 0
outer loop
vertex 50 -10 10
vertex 50 -15 0
vertex 50 -15 10
endloop
endfacet
facet normal -1 0 0
outer loop
vertex 50 0 0
vertex 50 0 -5
vertex 50 -10 -5
endloop
endfacet
facet normal -1 0 0
outer loop
vertex 50 0 0
vertex 50 -10 -5
vertex 50 -10 0
endloop
endfacet
facet normal 0 -1 0
outer loop
vertex 40 0 15
vertex 40 0 10
vertex 50 0 10
endloop
endfacet
facet normal 0 -1 0
outer loop
vertex 40 0 15
vertex 50 0 10
vertex 50 0 15
endloop
endfacet
facet normal 0 -1 0
outer loop
vertex 35 0 10
vertex 35 0 0
vertex 40 0 0
endloop
endfacet
facet normal 0 -1 0
outer loop
vertex 35 0 10
vertex 40 0 0
vertex 40 0 10
endloop
endfacet
facet normal 0 -1 0
outer loop
vertex 50 0 10
vertex 50 0 0
vertex 55 0 0
endloop
endfacet
facet normal 0 -1 0
outer loop
vertex 50 0 10
vertex 55 0 0
vertex 55 0 10
endloop
endfacet
facet normal 0 -1 0
outer loop
vertex 40 0 0
vertex 40 0 -5
vertex 50 0 -5
endloop
endfacet
facet normal 0 -1 0
outer loop
vertex 40 0 0
vertex 50 0 -5
vertex 50 0 0
endloop
endfacet
facet normal 0 1 0
outer loop
vertex 40 -10 -5
vertex 40 -10 0
vertex 50 -10 0
endloop
endfacet
facet normal 0 1 0
outer loop
vertex 40 -10 -5
vertex 50 -10 0
vertex 50 -10 -5
endloop
endfacet
facet normal 0 1 0
outer loop
vertex 35 -10 0
vertex 35 -10 10
vertex 40 -10 10
endloop
endfacet
facet normal 0 1 0
outer loop
vertex 35 -10 0
vertex 40 -10 10
vertex 40 -10 0
endloop
endfacet
facet normal 0 1 0
outer loop
vertex 50 -10 0
vertex 50 -10 10
vertex 55 -10 10
endloop
endfacet
facet normal 0 1 0
outer loop
vertex 50 -10 0
vertex 55 -10 10
vertex 55 -10 0
endloop
endfacet
facet normal 0 1 0
outer loop
vertex 40 -10 10
vertex 40 -10 15
vertex 50 -10 15
endloop
endfacet
facet normal 0 1 0
outer loop
vertex 40 -10 10
vertex 50 -10 15
vertex 50 -10 10
endloop
endfacet
facet normal 0 0 1
outer loop
vertex 40 5 0
vertex 40 0 0
vertex 50 0 0
endloop
endfacet
facet normal 0 0 1
outer loop
vertex 40 5 0
vertex 50 0 0
vertex 50 5 0
endloop
endfacet
facet normal 0 0 1
outer loop
vertex 35 0 0
vertex 35 -10 0
vertex 40 -10 0
endloop
endfacet
facet normal 0 0 1
outer loop
vertex 35 0 0
vertex 40 -10 0
vertex 40 0 0
endloop
endfacet
facet normal 0 0 1
outer loop
vertex 50 0 0
vertex 50 -10 0
vertex 55 -10 0
endloop
endfacet
facet normal 0 0 1
outer loop
vertex 50 0 0
vertex 55 -10 0
vertex 55 0 0
endloop
endfacet
facet normal 0 0 1
outer loop
vertex 40 -10 0
vertex 40 -15 0
vertex 50 -15 0
endloop
endfacet
facet normal 0 0 1
outer loop
vertex 40 -10 0
vertex 50 -15 0
vertex 50 -10 0
endloop
endfacet
facet normal 0 0 -1
outer loop
vertex 40 -15 10
vertex 40 -10 10
vertex 50 -10 10
endloop
endfacet
facet normal 0 0 -1
outer loop
vertex 40 -15 10
vertex 50 -10 10
vertex 50 -15 10
endloop
endfacet
facet normal 0 0 -1
outer loop
vertex 35 -10 10
vertex 35 0 10
vertex 40 0 10
endloop
endfacet
facet normal 0 0 -1
outer loop
vertex 35 -10 10
vertex 40 0 10
vertex 40 -10 10
endloop
endfacet
facet normal 0 0 -1
outer loop
vertex 50 -10 10
vertex 50 0 10
vertex 55 0 10
endloop
endfacet
facet normal 0 0 -1
outer loop
vertex 50 -10 10
vertex 55 0 10
vertex 55 -10 10
endloop
endfacet
facet normal 0 0 -1
outer loop
vertex 40 0 10
vertex 40 5 10
vertex 50 5 10
endloop
endfacet
facet normal 0 0 -1
outer loop
vertex 40 0 10
vertex 50 5 10
vertex 50 0 10
endloop
endfacet
facet normal 0 1 0
outer loop
vertex 55 5 -5
vertex 55 5 0
vertex 75 5 0
endloop
endfacet
facet normal 0 1 0
outer loop
vertex 55 5 -5
vertex 75 5 0
vertex 75 5 -5
endloop
endfacet
facet normal 0 1 0
outer loop
vertex 55 5 0
vertex 55 5 10
vertex 60 5 10
endloop
endfacet
facet normal 0 1 0
outer loop
vertex 55 5 0
vertex 60 5 10
vertex 60 5 0
endloop
endfacet
facet normal 0 1 0
outer loop
vertex 70 5 0
vertex 70 5 10
vertex 75 5 10
endloop
endfacet
facet normal 0 1 0
outer loop
vertex 70 5 0
vertex 75 5 10
vertex 75 5 0
endloop
endfacet
facet normal 0 1 0
outer loop
vertex 55 5 10
vertex 55 5 15
vertex 75 5 15
endloop
endfacet
facet normal 0 1 0
outer loop
vertex 55 5 10
vertex 75 5 15
vertex 75 5 10
endloop
endfacet
facet normal 0 -1 0
outer loop
vertex 55 -15 15
vertex 55 -15 10
vertex 75 -15 10
endloop
endfacet
facet normal 0 -1 0
outer loop
vertex 55 -15 15
vertex 75 -15 10
vertex 75 -15 15
endloop
endfacet
facet normal 0 -1 0
outer loop
vertex 55 -15 10
vertex 55 -15 0
vertex 60 -15 0
endloop
endfacet
facet normal 0 -1 0
outer loop
vertex 55 -15 10
vertex 60 -15 0
vertex 60 -15 10
endloop
endfacet
facet normal 0 -1 0
outer loop
vertex 70 -15 10
vertex 70 -15 0
vertex 75 -15 0
endloop
endfacet
facet normal 0 -1 0
outer loop
vertex 70 -15 10
vertex 75 -15 0
vertex 75 -15 10
endloop
endfacet
facet normal 0 -1 0
outer loop
vertex 55 -15 0
vertex 55 -15 -5
vertex 75 -15 -5
endloop
endfacet
facet normal 0 -1 0
outer loop
vertex 55 -15 0
vertex 75 -15 -5
vertex 75 -15 0
endloop
endfacet
facet normal 0 0 -1
outer loop
vertex 55 -15 -5
vertex 55 -10 -5
vertex 75 -10 -5
endloop
endfacet
facet normal 0 0 -1
outer loop
vertex 55 -15 -5
vertex 75 -10 -5
vertex 75 -15 -5
endloop
endfacet
facet normal 0 0 -1
outer loop
vertex 55 -10 -5
vertex 55 0 -5
vertex 60 0 -5
endloop
endfacet
facet normal 0 0 -1
outer loop
vertex 55 -10 -5
vertex 60 0 -5
vertex 60 -10 -5
endloop
endfacet
facet normal 0 0 -1
outer loop
vertex 70 -10 -5
vertex 70 0 -5
vertex 75 0 -5
endloop
endfacet
facet normal 0 0 -1
outer loop
vertex 70 -10 -5
vertex 75 0 -5
vertex 75 -10 -5
endloop
endfacet
facet normal 0 0 -1
outer loop
vertex 55 0 -5
vertex 55 5 -5
vertex 75 5 -5
endloop
endfacet
facet normal 0 0 -1
outer loop
vertex 55 0 -5
vertex 75 5 -5
vertex 75 0 -5
endloop
endfacet
facet normal 0 0 1
outer loop
vertex 55 5 15
vertex 55 0 15
vertex 75 0 15
endloop
endfacet
facet normal 0 0 1
outer loop
vertex 55 5 15
vertex 75 0 15
vertex 75 5 15
endloop
endfacet
facet normal 0 0 1
outer loop
vertex 55 0 15
vertex 55 -10 15
vertex 60 -10 15
endloop
endfacet
facet normal 0 0 1
outer loop
vertex 55 0 15
vertex 60 -10 15
vertex 60 0 15
endloop
endfacet
facet normal 0 0 1
outer loop
vertex 70 0 15
vertex 70 -10 15
vertex 75 -10 15
endloop
endfacet
facet normal 0 0 1
outer loop
vertex 70 0 15
vertex 75 -10 15
vertex 75 0 15
endloop
endfacet
facet normal 0 0 1
outer loop
vertex 55 -10 15
vertex 55 -15 15
vertex 75 -15 15
endloop
endfacet
facet normal 0 0 1
outer loop
vertex 55 -10 15
vertex 75 -15 15
vertex 75 -10 15
endloop
endfacet
facet normal 1 0 0
outer loop
vertex 60 0 -5
vertex 60 0 0
vertex 60 -10 0
endloop
endfacet
facet normal 1 0 0
outer loop
vertex 60 0 -5
vertex 60 -10 0
vertex 60 -10 -5
endloop
endfacet
facet normal 1 0 0
outer loop
vertex 60 5 0
vertex 60 5 10
vertex 60 0 10
endloop
endfacet
facet normal 1 0 0
outer loop
vertex 60 5 0
vertex 60 0 10
vertex 60 0 0
endloop
endfacet
facet normal 1 0 0
outer loop
vertex 60 -10 0
vertex 60 -10 10
vertex 60 -15 10
endloop
endfacet
facet normal 1 0 0
outer loop
vertex 60 -10 0
vertex 60 -15 10
vertex 60 -15 0
endloop
endfacet
facet normal 1 0 0
outer loop
vertex 60 0 10
vertex 60 0 15
vertex 60 -10 15
endloop
endfacet
facet normal 1 0 0
outer loop
vertex 60 0 10
vertex 60 -10 15
vertex 60 -10 10
endloop
endfacet
facet normal -1 0 0
outer loop
vertex 70 0 15
vertex 70 0 10
vertex 70 -10 10
endloop
endfacet
facet normal -1 0 0
outer loop
vertex 70 0 15
vertex 70 -10 10
vertex 70 -10 15
endloop
endfacet
facet normal -1 0 0
outer loop
vertex 70 5 10
vertex 70 5 0
vertex 70 0 0
endloop
endfacet
facet normal -1 0 0
outer loop
vertex 70 5 10
vertex 70 0 0
vertex 70 0 10
endloop
endfacet
facet normal -1 0 0
outer loop
vertex 70 -10 10
vertex 70 -10 0
vertex 70 -15 0
endloop
endfacet
facet normal -1 0 0
outer loop
vertex 70 -10 10
vertex 70 -15 0
vertex 70 -15 10
endloop
endfacet
facet normal -1 0 0
outer loop
vertex 70 0 0
vertex 70 0 -5
vertex 70 -10 -5
endloop
endfacet
facet normal -1 0 0
outer loop
vertex 70 0 0
vertex 70 -10 -5
vertex 70 -10 0
endloop
endfacet
facet normal 0 -1 0
outer loop
vertex 60 0 15
vertex 60 0 10
vertex 70 0 10
endloop
endfacet
facet normal 0 -1 0
outer loop
vertex 60 0 15
vertex 70 0 10
vertex 70 0 15
endloop
endfacet
facet normal 0 -1 0
outer loop
vertex 55 0 10
vertex 55 0 0
vertex 60 0 0
endloop
endfacet
facet normal 0 -1 0
outer loop
vertex 55 0 10
vertex 60 0 0
vertex 60 0 10
endloop
endfacet
facet normal 0 -1 0
outer loop
vertex 70 0 10
vertex 70 0 0
vertex 75 0 0
endloop
endfacet
facet normal 0 -1 0
outer loop
vertex 70 0 10
vertex 75 0 0
vertex 75 0 10
endloop
endfacet
facet normal 0 -1 0
outer loop
vertex 60 0 0
vertex 60 0 -5
vertex 70 0 -5
endloop
endfacet
facet normal 0 -1 0
outer loop
vertex 60 0 0
vertex 70 0 -5
vertex 70 0 0
endloop
endfacet
facet normal 0 1 0
outer loop
vertex 60 -10 -5
vertex 60 -10 0
vertex 70 -10 0
endloop
endfacet
facet normal 0 1 0
outer loop
vertex 60 -10 -5
vertex 70 -10 0
vertex 70 -10 -5
endloop
endfacet
facet normal 0 1 0
outer loop
vertex 55 -10 0
vertex 55 -10 10
vertex 60 -10 10
endloop
endfacet
facet normal 0 1 0
outer loop
vertex 55 -10 0
vertex 60 -10 10
vertex 60 -10 0
endloop
endfacet
facet normal 0 1 0
outer loop
vertex 70 -10 0
vertex 70 -10 10
vertex 75 -10 10
endloop
endfacet
facet normal 0 1 0
outer loop
vertex 70 -10 0
vertex 75 -10 10
vertex 75 -10 0
endloop
endfacet
facet normal 0 1 0
outer loop
vertex 60 -10 10
vertex 60 -10 15
vertex 70 -10 15
endloop
endfacet
facet normal 0 1 0
outer loop
vertex 60 -10 10
vertex 70 -10 15
vertex 70 -10 10
endloop
endfacet
facet normal 0 0 1
outer loop
vertex 60 5 0
vertex 60 0 0
vertex 70 0 0
endloop
endfacet
facet normal 0 0 1
outer loop
vertex 60 5 0
vertex 70 0 0
vertex 70 5 0
endloop
endfacet
facet normal 0 0 1
outer loop
vertex 55 0 0
vertex 55 -10 0
vertex 60 -10 0
endloop
endfacet
facet normal 0 0 1
outer loop
vertex 55 0 0
vertex 60 -10 0
vertex 60 0 0
endloop
endfacet
facet normal 0 0 1
outer loop
vertex 70 0 0
vertex 70 -10 0
vertex 75 -10 0
endloop
endfacet
facet normal 0 0 1
outer loop
vertex 70 0 0
vertex 75 -10 0
vertex 75 0 0
endloop
endfacet
facet normal 0 0 1
outer loop
vertex 60 -10 0
vertex 60 -15 0
vertex 70 -15 0
endloop
endfacet
facet normal 0 0 1
outer loop
vertex 60 -10 0
vertex 70 -15 0
vertex 70 -10 0
endloop
endfacet
facet normal 0 0 -1
outer loop
vertex 60 -15 10
vertex 60 -10 10
vertex 70 -10 10
endloop
endfacet
facet normal 0 0 -1
outer loop
vertex 60 -15 10
vertex 70 -10 10
vertex 70 -15 10
endloop
endfacet
facet normal 0 0 -1
outer loop
vertex 55 -10 10
vertex 55 0 10
vertex 60 0 10
endloop
endfacet
facet normal 0 0 -1
outer loop
vertex 55 -10 10
vertex 60 0 10
vertex 60 -10 10
endloop
endfacet
facet normal 0 0 -1
outer loop
vertex 70 -10 10
vertex 70 0 10
vertex 75 0 10
endloop
endfacet
facet normal 0 0 -1
outer loop
vertex 70 -10 10
vertex 75 0 10
vertex 75 -10 10
endloop
endfacet
facet normal 0 0 -1
outer loop
vertex 60 0 10
vertex 60 5 10
vertex 70 5 10
endloop
endfacet
facet normal 0 0 -1
outer loop
vertex 60 0 10
vertex 70 5 10
vertex 70 0 10
endloop
endfacet
facet normal 1 0 0
outer loop
vertex 95 5 -5
vertex 95 5 0
vertex 95 -15 0
endloop
endfacet
facet normal 1 0 0
outer loop
vertex 95 5 -5
vertex 95 -15 0
vertex 95 -15 -5
endloop
endfacet
facet normal 1 0 0
outer loop
vertex 95 5 0
vertex 95 5 10
vertex 95 0 10
endloop
endfacet
facet normal 1 0 0
outer loop
vertex 95 5 0
vertex 95 0 10
vertex 95 0 0
endloop
endfacet
facet normal 1 0 0
outer loop
vertex 95 -10 0
vertex 95 -10 10
vertex 95 -15 10
endloop
endfacet
facet normal 1 0 0
outer loop
vertex 95 -10 0
vertex 95 -15 10
vertex 95 -15 0
endloop
endfacet
facet normal 1 0 0
outer loop
vertex 95 5 10
vertex 95 5 15
vertex 95 -15 15
endloop
endfacet
facet normal 1 0 0
outer loop
vertex 95 5 10
vertex 95 -15 15
vertex 95 -15 10
endloop
endfacet
facet normal 0 1 0
outer loop
vertex 75 5 -5
vertex 75 5 0
vertex 95 5 0
endloop
endfacet
facet normal 0 1 0
outer loop
vertex 75 5 -5
vertex 95 5 0
vertex 95 5 -5
endloop
endfacet
facet normal 0 1 0
outer loop
vertex 75 5 0
vertex 75 5 10
vertex 80 5 10
endloop
endfacet
facet normal 0 1 0
outer loop
vertex 75 5 0
vertex 80 5 10
vertex 80 5 0
endloop
endfacet
facet normal 0 1 0
outer loop
vertex 90 5 0
vertex 90 5 10
vertex 95 5 10
endloop
endfacet
facet normal 0 1 0
outer loop
vertex 90 5 0
vertex 95 5 10
vertex 95 5 0
endloop
endfacet
facet normal 0 1 0
outer loop
vertex 75 5 10
vertex 75 5 15
vertex 95 5 15
endloop
endfacet
facet normal 0 1 0
outer loop
vertex 75 5 10
vertex 95 5 15
vertex 95 5 10
endloop
endfacet
facet normal 0 -1 0
outer loop
vertex 75 -15 15
vertex 75 -15 10
vertex 95 -15 10
endloop
endfacet
facet normal 0 -1 0
outer loop
vertex 75 -15 15
vertex 95 -15 10
vertex 95 -15 15
endloop
endfacet
facet normal 0 -1 0
outer loop
vertex 75 -15 10
vertex 75 -15 0
vertex 80 -15 0
endloop
endfacet
facet normal 0 -1 0
outer loop
vertex 75 -15 10
vertex 80 -15 0
vertex 80 -15 10
endloop
endfacet
facet normal 0 -1 0
outer loop
vertex 90 -15 10
vertex 90 -15 0
vertex 95 -15 0
endloop
endfacet
facet normal 0 -1 0
outer loop
vertex 90 -15 10
vertex 95 -15 0
vertex 95 -15 10
endloop
endfacet
facet normal 0 -1 0
outer loop
vertex 75 -15 0
vertex 75 -15 -5
vertex 95 -15 -5
endloop
endfacet
facet normal 0 -1 0
outer loop
vertex 75 -15 0
vertex 95 -15 -5
vertex 95 -15 0
endloop
endfacet
facet normal 0 0 -1
outer loop
vertex 75 -15 -5
vertex 75 -10 -5
vertex 95 -10 -5
endloop
endfacet
facet normal 0 0 -1
outer loop
vertex 75 -15 -5
vertex 95 -10 -5
vertex 95 -15 -5
endloop
endfacet
facet normal 0 0 -1
outer loop
vertex 75 -10 -5
vertex 75 0 -5
vertex 80 0 -5
endloop
endfacet
facet normal 0 0 -1
outer loop
vertex 75 -10 -5
vertex 80 0 -5
vertex 80 -10 -5
endloop
endfacet
facet normal 0 0 -1
outer loop
vertex 90 -10 -5
vertex 90 0 -5
vertex 95 0 -5
endloop
endfacet
facet normal 0 0 -1
outer loop
vertex 90 -10 -5
vertex 95 0 -5
vertex 95 -10 -5
endloop
endfacet
facet normal 0 0 -1
outer loop
vertex 75 0 -5
vertex 75 5 -5
vertex 95 5 -5
endloop
endfacet
facet normal 0 0 -1
outer loop
vertex 75 0 -5
vertex 95 5 -5
vertex 95 0 -5
endloop
endfacet
facet normal 0 0 1
outer loop
vertex 75 5 15
vertex 75 0 15
vertex 95 0 15
endloop
endfacet
facet normal 0 0 1
outer loop
vertex 75 5 15
vertex 95 0 15
vertex 95 5 15
endloop
endfacet
facet normal 0 0 1
outer loop
vertex 75 0 15
vertex 75 -10 15
vertex 80 -10 15
endloop
endfacet
facet normal 0 0 1
outer loop
vertex 75 0 15
vertex 80 -10 15
vertex 80 0 15
endloop
endfacet
facet normal 0 0 1
outer loop
vertex 90 0 15
vertex 90 -10 15
vertex 95 -10 15
endloop
endfacet
facet normal 0 0 1
outer loop
vertex 90 0 15
vertex 95 -10 15
vertex 95 0 15
endloop
endfacet
facet normal 0 0 1
outer loop
vertex 75 -10 15
vertex 75 -15 15
vertex 95 -15 15
endloop
endfacet
facet normal 0 0 1
outer loop
vertex 75 -10 15
vertex 95 -15 15
vertex 95 -10 15
endloop
endfacet
facet normal 1 0 0
outer loop
vertex 80 0 -5
vertex 80 0 0
vertex 80 -10 0
endloop
endfacet
facet normal 1 0 0
outer loop
vertex 80 0 -5
vertex 80 -10 0
vertex 80 -10 -5
endloop
endfacet
facet normal 1 0 0
outer loop
vertex 80 5 0
vertex 80 5 10
vertex 80 0 10
endloop
endfacet
facet normal 1 0 0
outer loop
vertex 80 5 0
vertex 80 0 10
vertex 80 0 0
endloop
endfacet
facet normal 1 0 0
outer loop
vertex 80 -10 0
vertex 80 -10 10
vertex 80 -15 10
endloop
endfacet
facet normal 1 0 0
outer loop
vertex 80 -10 0
vertex 80 -15 10
vertex 80 -15 0
endloop
endfacet
facet normal 1 0 0
outer loop
vertex 80 0 10
vertex 80 0 15
vertex 80 -10 15
endloop
endfacet
facet normal 1 0 0
outer loop
vertex 80 0 10
vertex 80 -10 15
vertex 80 -10 10
endloop
endfacet
facet normal -1 0 0
outer loop
vertex 90 0 15
vertex 90 0 10
vertex 90 -10 10
endloop
endfacet
facet normal -1 0 0
outer loop
vertex 90 0 15
vertex 90 -10 10
vertex 90 -10 15
endloop
endfacet
facet normal -1 0 0
outer loop
vertex 90 5 10
vertex 90 5 0
vertex 90 0 0
endloop
endfacet
facet normal -1 0 0
outer loop
vertex 90 5 10
vertex 90 0 0
vertex 90 0 10
endloop
endfacet
facet normal -1 0 0
outer loop
vertex 90 -10 10
vertex 90 -10 0
vertex 90 -15 0
endloop
endfacet
facet normal -1 0 0
outer loop
vertex 90 -10 10
vertex 90 -15 0
vertex 90 -15 10
endloop
endfacet
facet normal -1 0 0
outer loop
vertex 90 0 0
vertex 90 0 -5
vertex 90 -10 -5
endloop
endfacet
facet normal -1 0 0
outer loop
vertex 90 0 0
vertex 90 -10 -5
vertex 90 -10 0
endloop
endfacet
facet normal 0 -1 0
outer loop
vertex 80 0 15
vertex 80 0 10
vertex 90 0 10
endloop
endfacet
facet normal 0 -1 0
outer loop
vertex 80 0 15
vertex 90 0 10
vertex 90 0 15
endloop
endfacet
facet normal 0 -1 0
outer loop
vertex 75 0 10
vertex 75 0 0
vertex 80 0 0
endloop
endfacet
facet normal 0 -1 0
outer loop
vertex 75 0 10
vertex 80 0 0
vertex 80 0 10
endloop
endfacet
facet normal 0 -1 0
outer loop
vertex 90 0 10
vertex 90 0 0
vertex 95 0 0
endloop
endfacet
facet normal 0 -1 0
outer loop
vertex 90 0 10
vertex 95 0 0
vertex 95 0 10
endloop
endfacet
facet normal 0 -1 0
outer loop
vertex 80 0 0
vertex 80 0 -5
vertex 90 0 -5
endloop
endfacet
facet normal 0 -1 0
outer loop
vertex 80 0 0
vertex 90 0 -5
vertex 90 0 0
endloop
endfacet
facet normal 0 1 0
outer loop
vertex 80 -10 -5
vertex 80 -10 0
vertex 90 -10 0
endloop
endfacet
facet normal 0 1 0
outer loop
vertex 80 -10 -5
vertex 90 -10 0
vertex 90 -10 -5
endloop
endfacet
facet normal 0 1 0
outer loop
vertex 75 -10 0
vertex 75 -10 10
vertex 80 -10 10
endloop
endfacet
facet normal 0 1 0
outer loop
vertex 75 -10 0
vertex 80 -10 10
vertex 80 -10 0
endloop
endfacet
facet normal 0 1 0
outer loop
vertex 90 -10 0
vertex 90 -10 10
vertex 95 -10 10
endloop
endfacet
facet normal 0 1 0
outer loop
vertex 90 -10 0
vertex 95 -10 10
vertex 95 -10 0
endloop
endfacet
facet normal 0 1 0
outer loop
vertex 80 -10 10
vertex 80 -10 15
vertex 90 -10 15
endloop
endfacet
facet normal 0 1 0
outer loop
vertex 80 -10 10
vertex 90 -10 15
vertex 90 -10 10
endloop
endfacet
facet normal 0 0 1
outer loop
vertex 80 5 0
vertex 80 0 0
vertex 90 0 0
endloop
endfacet
facet normal 0 0 1
outer loop
vertex 80 5 0
vertex 90 0 0
vertex 90 5 0
endloop
endfacet
facet normal 0 0 1
outer loop
vertex 75 0 0
vertex 75 -10 0
vertex 80 -10 0
endloop
endfacet
facet normal 0 0 1
outer loop
vertex 75 0 0
vertex 80 -10 0
vertex 80 0 0
endloop
endfacet
facet normal 0 0 1
outer loop
vertex 90 0 0
vertex 90 -10 0
vertex 95 -10 0
endloop
endfacet
facet normal 0 0 1
outer loop
vertex 90 0 0
vertex 95 -10 0
vertex 95 0 0
endloop
endfacet
facet normal 0 0 1
outer loop
vertex 80 -10 0
vertex 80 -15 0
vertex 90 -15 0
endloop
endfacet
facet normal 0 0 1
outer loop
vertex 80 -10 0
vertex 90 -15 0
vertex 90 -10 0
endloop
endfacet
facet normal 0 0 -1
outer loop
vertex 80 -15 10
vertex 80 -10 10
vertex 90 -10 10
endloop
endfacet
facet normal 0 0 -1
outer loop
vertex 80 -15 10
vertex 90 -10 10
vertex 90 -15 10
endloop
endfacet
facet normal 0 0 -1
outer loop
vertex 75 -10 10
vertex 75 0 10
vertex 80 0 10
endloop
endfacet
facet normal 0 0 -1
outer loop
vertex 75 -10 10
vertex 80 0 10
vertex 80 -10 10
endloop
endfacet
facet normal 0 0 -1
outer loop
vertex 90 -10 10
vertex 90 0 10
vertex 95 0 10
endloop
endfacet
facet normal 0 0 -1
outer loop
vertex 90 -10 10
vertex 95 0 10
vertex 95 -10 10
endloop
endfacet
facet normal 0 0 -1
outer loop
vertex 80 0 10
vertex 80 5 10
vertex 90 5 10
endloop
endfacet
facet normal 0 0 -1
outer loop
vertex 80 0 10
vertex 90 5 10
vertex 90 0 10
endloop
endfacet
endsolid craftml
