solid craftml
facet normal -1 0 0
outer loop
vertex 2.5 -10 0
vertex 2.5 -10 5
vertex 2.5 0 5
endloop
endfacet
facet normal -1 0 0
outer loop
vertex 2.5 -10 0
vertex 2.5 0 5
vertex 2.5 0 0
endloop
endfacet
facet normal 1 0 0
outer loop
vertex 12.5 -7.60322436830474 5
vertex 12.5 -10 5
vertex 12.5 -10 0
endloop
endfacet
facet normal 1 0 0
outer loop
vertex 12.5 -7.60322436830474 5
vertex 12.5 -10 0
vertex 12.5 -7.6032243683047405 0
endloop
endfacet
facet normal 1 0 0
outer loop
vertex 12.5 -2.5923719929742446 5
vertex 12.5 -7.60322436830474 5
vertex 12.5 -7.6032243683047405 0
endloop
endfacet
facet normal 1 0 0
outer loop
vertex 12.5 -2.5923719929742446 5
vertex 12.5 -7.6032243683047405 0
vertex 12.5 -2.592371992974246 0
endloop
endfacet
facet normal 1 0 0
outer loop
vertex 12.5 -1.628969708402502 5
vertex 12.5 -2.5923719929742446 5
vertex 12.5 -2.592371992974246 0
endloop
endfacet
facet normal 1 0 0
outer loop
vertex 12.5 -1.628969708402502 5
vertex 12.5 -2.592371992974246 0
vertex 12.5 -1.6289697084025012 0
endloop
endfacet
facet normal 1 0 0
outer loop
vertex 12.5 -1.2494253756903848 5
vertex 12.5 -1.628969708402502 5
vertex 12.5 -1.6289697084025012 0
endloop
endfacet
facet normal 1 0 0
outer loop
vertex 12.5 -1.2494253756903848 5
vertex 12.5 -1.6289697084025012 0
vertex 12.5 -1.2494253756903853 0
endloop
endfacet
facet normal 1 0 0
outer loop
vertex 12.5 -1.0724687317358703 5
vertex 12.5 -1.2494253756903848 5
vertex 12.5 -1.2494253756903853 0
endloop
endfacet
facet normal 1 0 0
outer loop
vertex 12.5 -1.0724687317358703 5
vertex 12.5 -1.2494253756903853 0
vertex 12.5 -1.0724687317358705 0
endloop
endfacet
facet normal 1 0 0
outer loop
vertex 12.5 -0.9990165221953352 5
vertex 12.5 -1.0724687317358703 5
vertex 12.5 -1.0724687317358705 0
endloop
endfacet
facet normal 1 0 0
outer loop
vertex 12.5 -0.9990165221953352 5
vertex 12.5 -1.0724687317358705 0
vertex 12.5 -0.9990165221953352 0
endloop
endfacet
facet normal 1 0 0
outer loop
vertex 12.5 -0.9987183067713351 5
vertex 12.5 -0.9990165221953352 5
vertex 12.5 -0.9990165221953352 0
endloop
endfacet
facet normal 1 0 0
outer loop
vertex 12.5 -0.9987183067713351 5
vertex 12.5 -0.9990165221953352 0
vertex 12.5 -0.9987183067713352 0
endloop
endfacet
facet normal 0 1 0
outer loop
vertex 2.5 0 5
vertex 4.894510460661967 0 5
vertex 4.894510460661968 0 0
endloop
endfacet
facet normal 0 1 0
outer loop
vertex 2.5 0 5
vertex 4.894510460661968 0 0
vertex 2.5 0 0
endloop
endfacet
facet normal 0 1 0
outer loop
vertex 4.894510460661967 0 5
vertex 9.905362835992431 0 5
vertex 9.905362835992431 0 0
endloop
endfacet
facet normal 0 1 0
outer loop
vertex 4.894510460661967 0 5
vertex 9.905362835992431 0 0
vertex 4.894510460661968 0 0
endloop
endfacet
facet normal 0 1 0
outer loop
vertex 9.905362835992431 0 5
vertex 10.868765120564174 0 5
vertex 10.868765120564174 0 0
endloop
endfacet
facet normal 0 1 0
outer loop
vertex 9.905362835992431 0 5
vertex 10.868765120564174 0 0
vertex 9.905362835992431 0 0
endloop
endfacet
facet normal 0 1 0
outer loop
vertex 10.868765120564174 0 5
vertex 11.248309453276285 0 5
vertex 11.248309453276285 0 0
endloop
endfacet
facet normal 0 1 0
outer loop
vertex 10.868765120564174 0 5
vertex 11.248309453276285 0 0
vertex 10.868765120564174 0 0
endloop
endfacet
facet normal 0 1 0
outer loop
vertex 11.248309453276285 0 5
vertex 11.4252660972308 0 5
vertex 11.4252660972308 0 0
endloop
endfacet
facet normal 0 1 0
outer loop
vertex 11.248309453276285 0 5
vertex 11.4252660972308 0 0
vertex 11.248309453276285 0 0
endloop
endfacet
facet normal 0 1 0
outer loop
vertex 11.4252660972308 0 5
vertex 11.498718306771336 0 5
vertex 11.498718306771336 0 0
endloop
endfacet
facet normal 0 1 0
outer loop
vertex 11.4252660972308 0 5
vertex 11.498718306771336 0 0
vertex 11.4252660972308 0 0
endloop
endfacet
facet normal 0 1 0
outer loop
vertex 11.498718306771336 0 5
vertex 11.499016522195333 0 5
vertex 11.499016522195333 0 0
endloop
endfacet
facet normal 0 1 0
outer loop
vertex 11.498718306771336 0 5
vertex 11.499016522195333 0 0
vertex 11.498718306771336 0 0
endloop
endfacet
facet normal 0 -1 0
outer loop
vertex 12.5 -10 0
vertex 12.5 -10 5
vertex 12.498489885977783 -10 5
endloop
endfacet
facet normal 0 -1 0
outer loop
vertex 12.5 -10 0
vertex 12.498489885977783 -10 5
vertex 12.498489885977783 -10 0
endloop
endfacet
facet normal 0 -1 0
outer loop
vertex 2.500755057011114 -10 5
vertex 2.5 -10 5
vertex 2.5 -10 0
endloop
endfacet
facet normal 0 -1 0
outer loop
vertex 2.500755057011114 -10 5
vertex 2.5 -10 0
vertex 2.5007550570111126 -10 0
endloop
endfacet
facet normal 0 0 -1
outer loop
vertex 2.5 -0.31524328264529267 0
vertex 2.5 0 0
vertex 4.894510460661968 0 0
endloop
endfacet
facet normal 0 0 -1
outer loop
vertex 2.5 -3.0674017209617572 0
vertex 2.5 -0.31524328264529267 0
vertex 4.894510460661968 0 0
endloop
endfacet
facet normal 0 0 -1
outer loop
vertex 2.5 -3.0674017209617572 0
vertex 4.894510460661968 0 0
vertex 9.905362835992431 0 0
endloop
endfacet
facet normal 0 0 -1
outer loop
vertex 2.5 -6.421579333065889 0
vertex 2.5 -3.0674017209617572 0
vertex 9.905362835992431 0 0
endloop
endfacet
facet normal 0 0 -1
outer loop
vertex 2.5 -6.421579333065889 0
vertex 9.905362835992431 0 0
vertex 10.868765120564174 0 0
endloop
endfacet
facet normal 0 0 -1
outer loop
vertex 3.575039573486672 -10 0
vertex 2.5 -10 0
vertex 2.5 -6.421579333065889 0
endloop
endfacet
facet normal 0 0 -1
outer loop
vertex 3.575039573486672 -10 0
vertex 2.5 -6.421579333065889 0
vertex 10.868765120564174 0 0
endloop
endfacet
facet normal 0 0 -1
outer loop
vertex 3.575039573486672 -10 0
vertex 10.868765120564174 0 0
vertex 11.248309453276285 0 0
endloop
endfacet
facet normal 0 0 -1
outer loop
vertex 7.2831304734998525 -10 0
vertex 3.575039573486672 -10 0
vertex 11.248309453276285 0 0
endloop
endfacet
facet normal 0 0 -1
outer loop
vertex 7.2831304734998525 -10 0
vertex 11.248309453276285 0 0
vertex 11.4252660972308 0 0
endloop
endfacet
facet normal 0 0 -1
outer loop
vertex 10.182193330897382 -10 0
vertex 7.2831304734998525 -10 0
vertex 11.4252660972308 0 0
endloop
endfacet
facet normal 0 0 -1
outer loop
vertex 10.182193330897382 -10 0
vertex 11.4252660972308 0 0
vertex 11.498718306771336 0 0
endloop
endfacet
facet normal 0 0 -1
outer loop
vertex 12.5 -7.60322436830474 0
vertex 12.5 -10 0
vertex 10.182193330897382 -10 0
endloop
endfacet
facet normal 0 0 -1
outer loop
vertex 12.5 -7.60322436830474 0
vertex 10.182193330897382 -10 0
vertex 11.498718306771336 0 0
endloop
endfacet
facet normal 0 0 -1
outer loop
vertex 12.5 -7.60322436830474 0
vertex 11.498718306771336 0 0
vertex 11.499016522195333 0 0
endloop
endfacet
facet normal 0 0 -1
outer loop
vertex 12.5 -2.5923719929742446 0
vertex 12.5 -7.60322436830474 0
vertex 11.532941588194264 -0.2576864595858517 0
endloop
endfacet
facet normal 0 0 -1
outer loop
vertex 12.5 -1.628969708402502 0
vertex 12.5 -2.5923719929742446 0
vertex 11.632842010698898 -0.49886741448334115 0
endloop
endfacet
facet normal 0 0 -1
outer loop
vertex 12.5 -1.2494253756903848 0
vertex 12.5 -1.628969708402502 0
vertex 11.791760633296779 -0.7059741956698756 0
endloop
endfacet
facet normal 0 0 -1
outer loop
vertex 12.5 -1.0724687317358703 0
vertex 12.5 -1.2494253756903848 0
vertex 11.998867414483334 -0.8648928182677729 0
endloop
endfacet
facet normal 0 0 -1
outer loop
vertex 12.5 -0.9990165221953352 0
vertex 12.5 -1.0724687317358703 0
vertex 12.240048369380816 -0.9647932407724034 0
endloop
endfacet
facet normal 0 0 -1
outer loop
vertex 12.5 -0.9987183067713351 0
vertex 12.5 -0.9990165221953352 0
vertex 12.498867414483337 -0.9988674144833353 0
endloop
endfacet
facet normal 0 0 1
outer loop
vertex 12.498489885977783 -10 5
vertex 12.5 -10 5
vertex 12.5 -7.6032243683047405 5
endloop
endfacet
facet normal 0 0 1
outer loop
vertex 12.498489885977783 -10 5
vertex 12.5 -7.6032243683047405 5
vertex 12.498489885977783 -7.5917539135098036 5
endloop
endfacet
facet normal 0 0 1
outer loop
vertex 12.5 -7.6032243683047405 5
vertex 12.5 -2.592371992974246 5
vertex 12.498489885977783 -2.5887262552210752 5
endloop
endfacet
facet normal 0 0 1
outer loop
vertex 12.5 -7.6032243683047405 5
vertex 12.498489885977783 -2.5887262552210752 5
vertex 12.498489885977783 -7.5917539135098036 5
endloop
endfacet
facet normal 0 0 1
outer loop
vertex 12.5 -2.592371992974246 5
vertex 12.5 -1.6289697084025012 5
vertex 12.498489885977783 -1.6270016894928634 5
endloop
endfacet
facet normal 0 0 1
outer loop
vertex 12.5 -2.592371992974246 5
vertex 12.498489885977783 -1.6270016894928634 5
vertex 12.498489885977783 -2.5887262552210752 5
endloop
endfacet
facet normal 0 0 1
outer loop
vertex 12.5 -1.6289697084025012 5
vertex 12.5 -1.2494253756903853 5
vertex 12.498489885977783 -1.2482666244462122 5
endloop
endfacet
facet normal 0 0 1
outer loop
vertex 12.5 -1.6289697084025012 5
vertex 12.498489885977783 -1.2482666244462122 5
vertex 12.498489885977783 -1.6270016894928634 5
endloop
endfacet
facet normal 0 0 1
outer loop
vertex 12.5 -1.2494253756903853 5
vertex 12.5 -1.0724687317358705 5
vertex 12.498489885977783 -1.071843222027139 5
endloop
endfacet
facet normal 0 0 1
outer loop
vertex 12.5 -1.2494253756903853 5
vertex 12.498489885977783 -1.071843222027139 5
vertex 12.498489885977783 -1.2482666244462122 5
endloop
endfacet
facet normal 0 0 1
outer loop
vertex 12.5 -1.0724687317358705 5
vertex 12.5 -0.9990165221953352 5
vertex 12.498489885977783 -0.9988177119126687 5
endloop
endfacet
facet normal 0 0 1
outer loop
vertex 12.5 -1.0724687317358705 5
vertex 12.498489885977783 -0.9988177119126687 5
vertex 12.498489885977783 -1.071843222027139 5
endloop
endfacet
facet normal 0 0 1
outer loop
vertex 12.5 -0.9990165221953352 5
vertex 12.5 -0.9987183067713352 5
vertex 12.498867414483337 -0.9988674144833353 5
endloop
endfacet
facet normal 0 0 1
outer loop
vertex 4.894510460661968 0 5
vertex 2.5 0 5
vertex 2.5 -0.31524328264529383 5
endloop
endfacet
facet normal 0 0 1
outer loop
vertex 9.905362835992431 0 5
vertex 4.894510460661968 0 5
vertex 2.5 -0.31524328264529383 5
endloop
endfacet
facet normal 0 0 1
outer loop
vertex 9.905362835992431 0 5
vertex 2.5 -0.31524328264529383 5
vertex 2.5 -3.0674017209617563 5
endloop
endfacet
facet normal 0 0 1
outer loop
vertex 10.868765120564174 0 5
vertex 9.905362835992431 0 5
vertex 2.5 -3.0674017209617563 5
endloop
endfacet
facet normal 0 0 1
outer loop
vertex 10.868765120564174 0 5
vertex 2.5 -3.0674017209617563 5
vertex 2.5 -6.421579333065889 5
endloop
endfacet
facet normal 0 0 1
outer loop
vertex 2.5 -10 5
vertex 3.575039573486672 -10 5
vertex 11.248309453276285 0 5
endloop
endfacet
facet normal 0 0 1
outer loop
vertex 2.5 -10 5
vertex 11.248309453276285 0 5
vertex 10.868765120564174 0 5
endloop
endfacet
facet normal 0 0 1
outer loop
vertex 2.5 -10 5
vertex 10.868765120564174 0 5
vertex 2.5 -6.421579333065889 5
endloop
endfacet
facet normal 0 0 1
outer loop
vertex 3.575039573486672 -10 5
vertex 7.283130473499852 -10 5
vertex 11.4252660972308 0 5
endloop
endfacet
facet normal 0 0 1
outer loop
vertex 3.575039573486672 -10 5
vertex 11.4252660972308 0 5
vertex 11.248309453276285 0 5
endloop
endfacet
facet normal 0 0 1
outer loop
vertex 7.283130473499852 -10 5
vertex 10.182193330897382 -10 5
vertex 11.498718306771336 0 5
endloop
endfacet
facet normal 0 0 1
outer loop
vertex 7.283130473499852 -10 5
vertex 11.498718306771336 0 5
vertex 11.4252660972308 0 5
endloop
endfacet
facet normal 0 0 1
outer loop
vertex 10.182193330897382 -10 5
vertex 12.498489885977783 -10 5
vertex 12.498489885977783 -7.591753913509805 5
endloop
endfacet
facet normal 0 0 1
outer loop
vertex 10.182193330897382 -10 5
vertex 12.498489885977783 -7.591753913509805 5
vertex 11.499016522195333 0 5
endloop
endfacet
facet normal 0 0 1
outer loop
vertex 10.182193330897382 -10 5
vertex 11.499016522195333 0 5
vertex 11.498718306771336 0 5
endloop
endfacet
facet normal 0 0 1
outer loop
vertex 12.498489885977783 -7.591753913509805 5
vertex 12.498489885977783 -2.5887262552210766 5
vertex 11.532941588194264 -0.25768645958584874 5
endloop
endfacet
facet normal 0 0 1
outer loop
vertex 12.498489885977783 -2.5887262552210766 5
vertex 12.498489885977783 -1.6270016894928632 5
vertex 11.632842010698901 -0.4988674144833458 5
endloop
endfacet
facet normal 0 0 1
outer loop
vertex 12.498489885977783 -1.6270016894928632 5
vertex 12.498489885977783 -1.2482666244462117 5
vertex 11.791760633296779 -0.7059741956698755 5
endloop
endfacet
facet normal 0 0 1
outer loop
vertex 12.498489885977783 -1.2482666244462117 5
vertex 12.498489885977783 -1.0718432220271388 5
vertex 11.998867414483335 -0.8648928182677734 5
endloop
endfacet
facet normal 0 0 1
outer loop
vertex 12.498489885977783 -1.0718432220271388 5
vertex 12.498489885977783 -0.9988177119126687 5
vertex 12.240048369380816 -0.9647932407724034 5
endloop
endfacet
facet normal -4.3297802811774646e-17 4.3297802811774646e-17 -1
outer loop
vertex 12.498489885977783 -10 4.440565175404838e-16
vertex 12.498489885977783 -19.99773482896667 1.1176566351473242e-17
vertex 2.500755057011112 -10 8.769364687294944e-16
endloop
endfacet
facet normal 1 0 0
outer loop
vertex 12.498489885977783 -10 5
vertex 12.498489885977783 -19.99773482896667 5
vertex 12.498489885977783 -19.99773482896667 1.1176566351473242e-17
endloop
endfacet
facet normal 1 0 0
outer loop
vertex 12.498489885977783 -10 5
vertex 12.498489885977783 -19.99773482896667 1.1176566351473242e-17
vertex 12.498489885977783 -10 4.440565175404838e-16
endloop
endfacet
facet normal 0 0 1
outer loop
vertex 12.498489885977783 -19.99773482896667 5
vertex 12.498489885977783 -10 5
vertex 2.500755057011112 -10 5
endloop
endfacet
facet normal -0.7071067811865476 -0.7071067811865476 0
outer loop
vertex 12.498489885977783 -19.99773482896667 1.1176566351473242e-17
vertex 12.498489885977783 -19.99773482896667 5
vertex 2.500755057011112 -10 5
endloop
endfacet
facet normal -0.7071067811865476 -0.7071067811865476 0
outer loop
vertex 12.498489885977783 -19.99773482896667 1.1176566351473242e-17
vertex 2.500755057011112 -10 5
vertex 2.500755057011112 -10 8.769364687294944e-16
endloop
endfacet
facet normal 0 1 0
outer loop
vertex 2.4977348289666708 10.000000000000002 0
vertex 2.4977348289666708 10.000000000000002 5
vertex 12.49773482896667 10.000000000000002 5
endloop
endfacet
facet normal 0 1 0
outer loop
vertex 2.4977348289666708 10.000000000000002 0
vertex 12.49773482896667 10.000000000000002 5
vertex 12.49773482896667 10.000000000000002 0
endloop
endfacet
facet normal 0 -1 0
outer loop
vertex 4.89451046066198 1.7763568394002505e-15 5
vertex 2.4977348289666708 1.7763568394002505e-15 5
vertex 2.4977348289666708 1.7763568394002505e-15 0
endloop
endfacet
facet normal 0 -1 0
outer loop
vertex 4.89451046066198 1.7763568394002505e-15 5
vertex 2.4977348289666708 1.7763568394002505e-15 0
vertex 4.89451046066198 1.7763568394002505e-15 0
endloop
endfacet
facet normal 0 -1 0
outer loop
vertex 9.905362835992438 1.7763568394002505e-15 5
vertex 4.89451046066198 1.7763568394002505e-15 5
vertex 4.89451046066198 1.7763568394002505e-15 0
endloop
endfacet
facet normal 0 -1 0
outer loop
vertex 9.905362835992438 1.7763568394002505e-15 5
vertex 4.89451046066198 1.7763568394002505e-15 0
vertex 9.905362835992435 1.7763568394002505e-15 0
endloop
endfacet
facet normal 0 -1 0
outer loop
vertex 10.868765120564177 1.7763568394002505e-15 5
vertex 9.905362835992438 1.7763568394002505e-15 5
vertex 9.905362835992435 1.7763568394002505e-15 0
endloop
endfacet
facet normal 0 -1 0
outer loop
vertex 10.868765120564177 1.7763568394002505e-15 5
vertex 9.905362835992435 1.7763568394002505e-15 0
vertex 10.868765120564177 1.7763568394002505e-15 0
endloop
endfacet
facet normal 0 -1 0
outer loop
vertex 11.248309453276287 1.7763568394002505e-15 5
vertex 10.868765120564177 1.7763568394002505e-15 5
vertex 10.868765120564177 1.7763568394002505e-15 0
endloop
endfacet
facet normal 0 -1 0
outer loop
vertex 11.248309453276287 1.7763568394002505e-15 5
vertex 10.868765120564177 1.7763568394002505e-15 0
vertex 11.248309453276287 1.7763568394002505e-15 0
endloop
endfacet
facet normal 0 -1 0
outer loop
vertex 11.4252660972308 1.7763568394002505e-15 5
vertex 11.248309453276287 1.7763568394002505e-15 5
vertex 11.248309453276287 1.7763568394002505e-15 0
endloop
endfacet
facet normal 0 -1 0
outer loop
vertex 11.4252660972308 1.7763568394002505e-15 5
vertex 11.248309453276287 1.7763568394002505e-15 0
vertex 11.4252660972308 1.7763568394002505e-15 0
endloop
endfacet
facet normal 0 -1 0
outer loop
vertex 11.498718306771337 1.7763568394002505e-15 5
vertex 11.4252660972308 1.7763568394002505e-15 5
vertex 11.4252660972308 1.7763568394002505e-15 0
endloop
endfacet
facet normal 0 -1 0
outer loop
vertex 11.498718306771337 1.7763568394002505e-15 5
vertex 11.4252660972308 1.7763568394002505e-15 0
vertex 11.498718306771336 1.7763568394002505e-15 0
endloop
endfacet
facet normal 0 -1 0
outer loop
vertex 11.499016522195335 1.7763568394002505e-15 5
vertex 11.498718306771337 1.7763568394002505e-15 5
vertex 11.498718306771336 1.7763568394002505e-15 0
endloop
endfacet
facet normal 0 -1 0
outer loop
vertex 11.499016522195335 1.7763568394002505e-15 5
vertex 11.498718306771336 1.7763568394002505e-15 0
vertex 11.499016522195333 1.7763568394002505e-15 0
endloop
endfacet
facet normal 1 0 0
outer loop
vertex 12.49773482896667 10.000000000000002 5
vertex 12.49773482896667 7.6054895393380555 5
vertex 12.49773482896667 7.605489539338049 0
endloop
endfacet
facet normal 1 0 0
outer loop
vertex 12.49773482896667 10.000000000000002 5
vertex 12.49773482896667 7.605489539338049 0
vertex 12.49773482896667 10.000000000000002 0
endloop
endfacet
facet normal 1 0 0
outer loop
vertex 12.49773482896667 7.6054895393380555 5
vertex 12.49773482896667 2.5946371640075796 5
vertex 12.49773482896667 2.5946371640075787 0
endloop
endfacet
facet normal 1 0 0
outer loop
vertex 12.49773482896667 7.6054895393380555 5
vertex 12.49773482896667 2.5946371640075787 0
vertex 12.49773482896667 7.605489539338049 0
endloop
endfacet
facet normal 1 0 0
outer loop
vertex 12.49773482896667 2.5946371640075796 5
vertex 12.49773482896667 1.6312348794358285 5
vertex 12.49773482896667 1.6312348794358278 0
endloop
endfacet
facet normal 1 0 0
outer loop
vertex 12.49773482896667 2.5946371640075796 5
vertex 12.49773482896667 1.6312348794358278 0
vertex 12.49773482896667 2.5946371640075787 0
endloop
endfacet
facet normal 1 0 0
outer loop
vertex 12.49773482896667 1.6312348794358285 5
vertex 12.49773482896667 1.251690546723717 5
vertex 12.49773482896667 1.2516905467237154 0
endloop
endfacet
facet normal 1 0 0
outer loop
vertex 12.49773482896667 1.6312348794358285 5
vertex 12.49773482896667 1.2516905467237154 0
vertex 12.49773482896667 1.6312348794358278 0
endloop
endfacet
facet normal 1 0 0
outer loop
vertex 12.49773482896667 1.251690546723717 5
vertex 12.49773482896667 1.074733902769201 5
vertex 12.49773482896667 1.0747339027692007 0
endloop
endfacet
facet normal 1 0 0
outer loop
vertex 12.49773482896667 1.251690546723717 5
vertex 12.49773482896667 1.0747339027692007 0
vertex 12.49773482896667 1.2516905467237154 0
endloop
endfacet
facet normal 1 0 0
outer loop
vertex 12.49773482896667 1.074733902769201 5
vertex 12.49773482896667 1.001281693228665 5
vertex 12.49773482896667 1.0012816932286648 0
endloop
endfacet
facet normal 1 0 0
outer loop
vertex 12.49773482896667 1.074733902769201 5
vertex 12.49773482896667 1.0012816932286648 0
vertex 12.49773482896667 1.0747339027692007 0
endloop
endfacet
facet normal 1 0 0
outer loop
vertex 12.49773482896667 1.001281693228665 5
vertex 12.49773482896667 1.0009834778046647 5
vertex 12.49773482896667 1.000983477804665 0
endloop
endfacet
facet normal 1 0 0
outer loop
vertex 12.49773482896667 1.001281693228665 5
vertex 12.49773482896667 1.000983477804665 0
vertex 12.49773482896667 1.0012816932286648 0
endloop
endfacet
facet normal -1 0 0
outer loop
vertex 2.4977348289666708 1.7763568394002505e-15 0
vertex 2.4977348289666708 1.7763568394002505e-15 5
vertex 2.4977348289666708 0.001510114022218012 5
endloop
endfacet
facet normal -1 0 0
outer loop
vertex 2.4977348289666708 1.7763568394002505e-15 0
vertex 2.4977348289666708 0.001510114022218012 5
vertex 2.4977348289666708 0.0015101140222189002 0
endloop
endfacet
facet normal -1 0 0
outer loop
vertex 2.4977348289666708 9.999244942988891 5
vertex 2.4977348289666708 10.000000000000002 5
vertex 2.4977348289666708 10.000000000000002 0
endloop
endfacet
facet normal -1 0 0
outer loop
vertex 2.4977348289666708 9.999244942988891 5
vertex 2.4977348289666708 10.000000000000002 0
vertex 2.4977348289666708 9.999244942988891 0
endloop
endfacet
facet normal 0 0 -1
outer loop
vertex 12.182491546321378 10.000000000000002 0
vertex 12.49773482896667 10.000000000000002 0
vertex 12.49773482896667 7.6054895393380555 0
endloop
endfacet
facet normal 0 0 -1
outer loop
vertex 9.430333108004923 10.000000000000002 0
vertex 12.182491546321378 10.000000000000002 0
vertex 12.49773482896667 7.6054895393380555 0
endloop
endfacet
facet normal 0 0 -1
outer loop
vertex 9.430333108004923 10.000000000000002 0
vertex 12.49773482896667 7.6054895393380555 0
vertex 12.49773482896667 2.5946371640075805 0
endloop
endfacet
facet normal 0 0 -1
outer loop
vertex 6.076155495900772 10.000000000000002 0
vertex 9.430333108004923 10.000000000000002 0
vertex 12.49773482896667 2.5946371640075805 0
endloop
endfacet
facet normal 0 0 -1
outer loop
vertex 6.076155495900772 10.000000000000002 0
vertex 12.49773482896667 2.5946371640075805 0
vertex 12.49773482896667 1.6312348794358291 0
endloop
endfacet
facet normal 0 0 -1
outer loop
vertex 2.4977348289666708 8.924960426513321 0
vertex 2.4977348289666708 10.000000000000002 0
vertex 6.076155495900772 10.000000000000002 0
endloop
endfacet
facet normal 0 0 -1
outer loop
vertex 2.4977348289666708 8.924960426513321 0
vertex 6.076155495900772 10.000000000000002 0
vertex 12.49773482896667 1.6312348794358291 0
endloop
endfacet
facet normal 0 0 -1
outer loop
vertex 2.4977348289666708 8.924960426513321 0
vertex 12.49773482896667 1.6312348794358291 0
vertex 12.49773482896667 1.2516905467237154 0
endloop
endfacet
facet normal 0 0 -1
outer loop
vertex 2.4977348289666708 5.216869526500151 0
vertex 2.4977348289666708 8.924960426513321 0
vertex 12.49773482896667 1.2516905467237154 0
endloop
endfacet
facet normal 0 0 -1
outer loop
vertex 2.4977348289666708 5.216869526500151 0
vertex 12.49773482896667 1.2516905467237154 0
vertex 12.49773482896667 1.0747339027692016 0
endloop
endfacet
facet normal 0 0 -1
outer loop
vertex 2.4977348289666708 2.317806669102625 0
vertex 2.4977348289666708 5.216869526500151 0
vertex 12.49773482896667 1.0747339027692016 0
endloop
endfacet
facet normal 0 0 -1
outer loop
vertex 2.4977348289666708 2.317806669102625 0
vertex 12.49773482896667 1.0747339027692016 0
vertex 12.49773482896667 1.0012816932286646 0
endloop
endfacet
facet normal 0 0 -1
outer loop
vertex 4.89451046066198 1.7763568394002505e-15 0
vertex 2.4977348289666708 1.7763568394002505e-15 0
vertex 2.4977348289666708 2.317806669102625 0
endloop
endfacet
facet normal 0 0 -1
outer loop
vertex 4.89451046066198 1.7763568394002505e-15 0
vertex 2.4977348289666708 2.317806669102625 0
vertex 12.49773482896667 1.0012816932286646 0
endloop
endfacet
facet normal 0 0 -1
outer loop
vertex 4.89451046066198 1.7763568394002505e-15 0
vertex 12.49773482896667 1.0012816932286646 0
vertex 12.49773482896667 1.0009834778046647 0
endloop
endfacet
facet normal 0 0 -1
outer loop
vertex 9.905362835992438 1.7763568394002505e-15 0
vertex 4.89451046066198 1.7763568394002505e-15 0
vertex 12.240048369380816 0.9670584118057332 0
endloop
endfacet
facet normal 0 0 -1
outer loop
vertex 10.868765120564177 1.7763568394002505e-15 0
vertex 9.905362835992438 1.7763568394002505e-15 0
vertex 11.998867414483335 0.8671579893011028 0
endloop
endfacet
facet normal 0 0 -1
outer loop
vertex 11.248309453276287 1.7763568394002505e-15 0
vertex 10.868765120564177 1.7763568394002505e-15 0
vertex 11.791760633296787 0.7082393667032113 0
endloop
endfacet
facet normal 0 0 -1
outer loop
vertex 11.4252660972308 1.7763568394002505e-15 0
vertex 11.248309453276287 1.7763568394002505e-15 0
vertex 11.632842010698896 0.5011325855166626 0
endloop
endfacet
facet normal 0 0 -1
outer loop
vertex 11.498718306771337 1.7763568394002505e-15 0
vertex 11.4252660972308 1.7763568394002505e-15 0
vertex 11.532941588194268 0.2599516306191876 0
endloop
endfacet
facet normal 0 0 -1
outer loop
vertex 11.499016522195335 1.7763568394002505e-15 0
vertex 11.498718306771337 1.7763568394002505e-15 0
vertex 11.498867414483335 0.001132585516651053 0
endloop
endfacet
facet normal 0 0 1
outer loop
vertex 2.4977348289666708 0.0015101140222189002 5
vertex 2.4977348289666708 1.7763568394002505e-15 5
vertex 4.89451046066198 1.7763568394002505e-15 5
endloop
endfacet
facet normal 0 0 1
outer loop
vertex 2.4977348289666708 0.0015101140222189002 5
vertex 4.89451046066198 1.7763568394002505e-15 5
vertex 4.905980915456917 0.0015101140222186864 5
endloop
endfacet
facet normal 0 0 1
outer loop
vertex 4.89451046066198 1.7763568394002505e-15 5
vertex 9.905362835992435 1.7763568394002505e-15 5
vertex 9.909008573745602 0.001510114022218242 5
endloop
endfacet
facet normal 0 0 1
outer loop
vertex 4.89451046066198 1.7763568394002505e-15 5
vertex 9.909008573745602 0.001510114022218242 5
vertex 4.905980915456917 0.0015101140222186864 5
endloop
endfacet
facet normal 0 0 1
outer loop
vertex 9.905362835992435 1.7763568394002505e-15 5
vertex 10.868765120564177 1.7763568394002505e-15 5
vertex 10.870733139473813 0.0015101140222181565 5
endloop
endfacet
facet normal 0 0 1
outer loop
vertex 9.905362835992435 1.7763568394002505e-15 5
vertex 10.870733139473813 0.0015101140222181565 5
vertex 9.909008573745602 0.001510114022218242 5
endloop
endfacet
facet normal 0 0 1
outer loop
vertex 10.868765120564177 1.7763568394002505e-15 5
vertex 11.248309453276287 1.7763568394002505e-15 5
vertex 11.249468204520458 0.0015101140222181229 5
endloop
endfacet
facet normal 0 0 1
outer loop
vertex 10.868765120564177 1.7763568394002505e-15 5
vertex 11.249468204520458 0.0015101140222181229 5
vertex 10.870733139473813 0.0015101140222181565 5
endloop
endfacet
facet normal 0 0 1
outer loop
vertex 11.248309453276287 1.7763568394002505e-15 5
vertex 11.4252660972308 1.7763568394002505e-15 5
vertex 11.425891606939532 0.0015101140222181072 5
endloop
endfacet
facet normal 0 0 1
outer loop
vertex 11.248309453276287 1.7763568394002505e-15 5
vertex 11.425891606939532 0.0015101140222181072 5
vertex 11.249468204520458 0.0015101140222181229 5
endloop
endfacet
facet normal 0 0 1
outer loop
vertex 11.4252660972308 1.7763568394002505e-15 5
vertex 11.498718306771336 1.7763568394002505e-15 5
vertex 11.498917117054004 0.0015101140222181007 5
endloop
endfacet
facet normal 0 0 1
outer loop
vertex 11.4252660972308 1.7763568394002505e-15 5
vertex 11.498917117054004 0.0015101140222181007 5
vertex 11.425891606939532 0.0015101140222181072 5
endloop
endfacet
facet normal 0 0 1
outer loop
vertex 11.498718306771336 1.7763568394002505e-15 5
vertex 11.499016522195333 1.7763568394002505e-15 5
vertex 11.498867414483335 0.001132585516652231 5
endloop
endfacet
facet normal 0 0 1
outer loop
vertex 12.49773482896667 7.605489539338049 5
vertex 12.49773482896667 10.000000000000002 5
vertex 12.18249154632138 10.000000000000002 5
endloop
endfacet
facet normal 0 0 1
outer loop
vertex 12.49773482896667 2.5946371640075787 5
vertex 12.49773482896667 7.605489539338049 5
vertex 12.18249154632138 10.000000000000002 5
endloop
endfacet
facet normal 0 0 1
outer loop
vertex 12.49773482896667 2.5946371640075787 5
vertex 12.18249154632138 10.000000000000002 5
vertex 9.430333108004923 10.000000000000002 5
endloop
endfacet
facet normal 0 0 1
outer loop
vertex 12.49773482896667 1.6312348794358278 5
vertex 12.49773482896667 2.5946371640075787 5
vertex 9.430333108004923 10.000000000000002 5
endloop
endfacet
facet normal 0 0 1
outer loop
vertex 12.49773482896667 1.6312348794358278 5
vertex 9.430333108004923 10.000000000000002 5
vertex 6.076155495900773 10.000000000000002 5
endloop
endfacet
facet normal 0 0 1
outer loop
vertex 2.4977348289666708 10.000000000000002 5
vertex 2.4977348289666708 8.924960426513321 5
vertex 12.49773482896667 1.2516905467237154 5
endloop
endfacet
facet normal 0 0 1
outer loop
vertex 2.4977348289666708 10.000000000000002 5
vertex 12.49773482896667 1.2516905467237154 5
vertex 12.49773482896667 1.6312348794358278 5
endloop
endfacet
facet normal 0 0 1
outer loop
vertex 2.4977348289666708 10.000000000000002 5
vertex 12.49773482896667 1.6312348794358278 5
vertex 6.076155495900773 10.000000000000002 5
endloop
endfacet
facet normal 0 0 1
outer loop
vertex 2.4977348289666708 8.924960426513321 5
vertex 2.4977348289666708 5.216869526500149 5
vertex 12.49773482896667 1.0747339027692007 5
endloop
endfacet
facet normal 0 0 1
outer loop
vertex 2.4977348289666708 8.924960426513321 5
vertex 12.49773482896667 1.0747339027692007 5
vertex 12.49773482896667 1.2516905467237154 5
endloop
endfacet
facet normal 0 0 1
outer loop
vertex 2.4977348289666708 5.216869526500149 5
vertex 2.4977348289666708 2.3178066691026253 5
vertex 12.49773482896667 1.0012816932286648 5
endloop
endfacet
facet normal 0 0 1
outer loop
vertex 2.4977348289666708 5.216869526500149 5
vertex 12.49773482896667 1.0012816932286648 5
vertex 12.49773482896667 1.0747339027692007 5
endloop
endfacet
facet normal 0 0 1
outer loop
vertex 2.4977348289666708 2.3178066691026253 5
vertex 2.4977348289666708 0.0015101140222189002 5
vertex 4.905980915456919 0.0015101140222186864 5
endloop
endfacet
facet normal 0 0 1
outer loop
vertex 2.4977348289666708 2.3178066691026253 5
vertex 4.905980915456919 0.0015101140222186864 5
vertex 12.49773482896667 1.000983477804665 5
endloop
endfacet
facet normal 0 0 1
outer loop
vertex 2.4977348289666708 2.3178066691026253 5
vertex 12.49773482896667 1.000983477804665 5
vertex 12.49773482896667 1.0012816932286648 5
endloop
endfacet
facet normal 0 0 1
outer loop
vertex 4.905980915456919 0.0015101140222186864 5
vertex 9.9090085737456 0.001510114022218242 5
vertex 12.240048369380817 0.9670584118057337 5
endloop
endfacet
facet normal 0 0 1
outer loop
vertex 9.9090085737456 0.001510114022218242 5
vertex 10.870733139473812 0.0015101140222181565 5
vertex 11.998867414483337 0.8671579893011034 5
endloop
endfacet
facet normal 0 0 1
outer loop
vertex 10.870733139473812 0.0015101140222181565 5
vertex 11.249468204520458 0.0015101140222181229 5
vertex 11.791760633296786 0.7082393667032101 5
endloop
endfacet
facet normal 0 0 1
outer loop
vertex 11.249468204520458 0.0015101140222181229 5
vertex 11.425891606939533 0.0015101140222181072 5
vertex 11.632842010698896 0.5011325855166652 5
endloop
endfacet
facet normal 0 0 1
outer loop
vertex 11.425891606939533 0.0015101140222181072 5
vertex 11.498917117054003 0.0015101140222181007 5
vertex 11.53294158819427 0.2599516306191908 5
endloop
endfacet
facet normal 4.329780281177465e-17 4.329780281177468e-17 -1
outer loop
vertex 2.4977348289666708 0.001510114022218012 4.4405651754048385e-16
vertex -7.499999999999999 0.001510114022218012 1.1176566351473242e-17
vertex 2.4977348289666716 9.999244942988891 8.769364687294946e-16
endloop
endfacet
facet normal 0 -1 0
outer loop
vertex 2.4977348289666708 0.001510114022218012 5
vertex -7.499999999999999 0.001510114022218012 5
vertex -7.499999999999999 0.001510114022218012 1.1176566351473242e-17
endloop
endfacet
facet normal 0 -1 0
outer loop
vertex 2.4977348289666708 0.001510114022218012 5
vertex -7.499999999999999 0.001510114022218012 1.1176566351473242e-17
vertex 2.4977348289666716 0.001510114022218012 4.440565175404839e-16
endloop
endfacet
facet normal 0 0 1
outer loop
vertex -7.499999999999999 0.001510114022218012 5
vertex 2.4977348289666716 0.001510114022218012 5
vertex 2.4977348289666708 9.999244942988888 5
endloop
endfacet
facet normal -0.7071067811865478 0.7071067811865474 0
outer loop
vertex -7.499999999999999 0.001510114022218012 1.1176566351473242e-17
vertex -7.499999999999999 0.001510114022218012 5
vertex 2.4977348289666716 9.999244942988891 5
endloop
endfacet
facet normal -0.7071067811865478 0.7071067811865474 0
outer loop
vertex -7.499999999999999 0.001510114022218012 1.1176566351473242e-17
vertex 2.4977348289666716 9.999244942988891 5
vertex 2.4977348289666708 9.999244942988888 8.769364687294945e-16
endloop
endfacet
facet normal 1 0 0
outer loop
vertex 22.497734828966674 10.00226517103333 0
vertex 22.497734828966674 10.00226517103333 5
vertex 22.497734828966674 0.0022651710333292385 5
endloop
endfacet
facet normal 1 0 0
outer loop
vertex 22.497734828966674 10.00226517103333 0
vertex 22.497734828966674 0.0022651710333292385 5
vertex 22.497734828966674 0.0022651710333292385 0
endloop
endfacet
facet normal -1 0 0
outer loop
vertex 12.497734828966673 7.605489539338036 5
vertex 12.497734828966673 10.002265171033327 5
vertex 12.497734828966673 10.002265171033327 0
endloop
endfacet
facet normal -1 0 0
outer loop
vertex 12.497734828966673 7.605489539338036 5
vertex 12.497734828966673 10.002265171033327 0
vertex 12.497734828966673 7.605489539338025 0
endloop
endfacet
facet normal -1 0 0
outer loop
vertex 12.497734828966674 2.59463716400757 5
vertex 12.497734828966673 7.605489539338036 5
vertex 12.497734828966673 7.605489539338025 0
endloop
endfacet
facet normal -1 0 0
outer loop
vertex 12.497734828966674 2.59463716400757 5
vertex 12.497734828966673 7.605489539338025 0
vertex 12.497734828966674 2.5946371640075707 0
endloop
endfacet
facet normal -1 0 0
outer loop
vertex 12.497734828966674 1.631234879435823 5
vertex 12.497734828966674 2.59463716400757 5
vertex 12.497734828966674 2.5946371640075707 0
endloop
endfacet
facet normal -1 0 0
outer loop
vertex 12.497734828966674 1.631234879435823 5
vertex 12.497734828966674 2.5946371640075707 0
vertex 12.497734828966674 1.6312348794358225 0
endloop
endfacet
facet normal -1 0 0
outer loop
vertex 12.497734828966674 1.2516905467237127 5
vertex 12.497734828966674 1.631234879435823 5
vertex 12.497734828966674 1.6312348794358225 0
endloop
endfacet
facet normal -1 0 0
outer loop
vertex 12.497734828966674 1.2516905467237127 5
vertex 12.497734828966674 1.6312348794358225 0
vertex 12.497734828966674 1.2516905467237132 0
endloop
endfacet
facet normal -1 0 0
outer loop
vertex 12.497734828966674 1.0747339027692007 5
vertex 12.497734828966674 1.2516905467237127 5
vertex 12.497734828966674 1.2516905467237132 0
endloop
endfacet
facet normal -1 0 0
outer loop
vertex 12.497734828966674 1.0747339027692007 5
vertex 12.497734828966674 1.2516905467237132 0
vertex 12.497734828966674 1.0747339027692002 0
endloop
endfacet
facet normal -1 0 0
outer loop
vertex 12.497734828966674 1.0012816932286643 5
vertex 12.497734828966674 1.0747339027692007 5
vertex 12.497734828966674 1.0747339027692002 0
endloop
endfacet
facet normal -1 0 0
outer loop
vertex 12.497734828966674 1.0012816932286643 5
vertex 12.497734828966674 1.0747339027692002 0
vertex 12.497734828966674 1.0012816932286641 0
endloop
endfacet
facet normal -1 0 0
outer loop
vertex 12.497734828966674 1.000983477804665 5
vertex 12.497734828966674 1.0012816932286643 5
vertex 12.497734828966674 1.0012816932286641 0
endloop
endfacet
facet normal -1 0 0
outer loop
vertex 12.497734828966674 1.000983477804665 5
vertex 12.497734828966674 1.0012816932286641 0
vertex 12.497734828966674 1.0009834778046651 0
endloop
endfacet
facet normal 1.222980050563649e-16 -1 0
outer loop
vertex 22.497734828966674 0.0022651710333292385 5
vertex 13.498718306771334 0.002265171033328136 5
vertex 13.498718306771334 0.002265171033328136 0
endloop
endfacet
facet normal 1.222980050563649e-16 -1 0
outer loop
vertex 22.497734828966674 0.0022651710333292385 5
vertex 13.498718306771334 0.002265171033328136 0
vertex 22.497734828966674 0.0022651710333292385 0
endloop
endfacet
facet normal 0 1 0
outer loop
vertex 12.497734828966673 10.002265171033327 0
vertex 12.497734828966673 10.002265171033327 5
vertex 12.499244942988891 10.002265171033327 5
endloop
endfacet
facet normal 0 1 0
outer loop
vertex 12.497734828966673 10.002265171033327 0
vertex 12.499244942988891 10.002265171033327 5
vertex 12.499244942988891 10.002265171033327 0
endloop
endfacet
facet normal 0 1 0
outer loop
vertex 22.49697977195555 10.00226517103333 5
vertex 22.497734828966674 10.00226517103333 5
vertex 22.497734828966674 10.00226517103333 0
endloop
endfacet
facet normal 0 1 0
outer loop
vertex 22.49697977195555 10.00226517103333 5
vertex 22.497734828966674 10.00226517103333 0
vertex 22.49697977195555 10.00226517103333 0
endloop
endfacet
facet normal 0 0 -1
outer loop
vertex 12.497734828966673 7.605489539338036 0
vertex 12.497734828966673 10.002265171033327 0
vertex 22.497734828966674 10.00226517103333 0
endloop
endfacet
facet normal 0 0 -1
outer loop
vertex 12.497734828966673 7.605489539338036 0
vertex 22.497734828966674 10.00226517103333 0
vertex 22.497734828966674 0.0022651710333292385 0
endloop
endfacet
facet normal 0 0 -1
outer loop
vertex 12.497734828966673 7.605489539338036 0
vertex 22.497734828966674 0.0022651710333292385 0
vertex 13.498718306771334 0.0022651710333281365 0
endloop
endfacet
facet normal 0 0 -1
outer loop
vertex 12.497734828966674 2.59463716400757 0
vertex 12.497734828966673 7.605489539338036 0
vertex 13.464793240772401 0.2599516306191987 0
endloop
endfacet
facet normal 0 0 -1
outer loop
vertex 12.497734828966674 1.631234879435823 0
vertex 12.497734828966674 2.59463716400757 0
vertex 13.364892818267778 0.501132585516662 0
endloop
endfacet
facet normal 0 0 -1
outer loop
vertex 12.497734828966674 1.2516905467237127 0
vertex 12.497734828966674 1.631234879435823 0
vertex 13.205974195669885 0.708239366703213 0
endloop
endfacet
facet normal 0 0 -1
outer loop
vertex 12.497734828966674 1.0747339027692007 0
vertex 12.497734828966674 1.2516905467237127 0
vertex 12.998867414483339 0.8671579893011024 0
endloop
endfacet
facet normal 0 0 -1
outer loop
vertex 12.497734828966674 1.0012816932286643 0
vertex 12.497734828966674 1.0747339027692007 0
vertex 12.75768645958586 0.9670584118057325 0
endloop
endfacet
facet normal 0 0 -1
outer loop
vertex 12.497734828966674 1.000983477804665 0
vertex 12.497734828966674 1.0012816932286643 0
vertex 12.498867414483335 1.0011325855166646 0
endloop
endfacet
facet normal 0 0 1
outer loop
vertex 12.499244942988891 10.002265171033327 5
vertex 12.497734828966673 10.002265171033327 5
vertex 12.497734828966673 7.605489539338025 5
endloop
endfacet
facet normal 0 0 1
outer loop
vertex 12.499244942988891 10.002265171033327 5
vertex 12.497734828966673 7.605489539338025 5
vertex 12.499244942988891 7.594019084543076 5
endloop
endfacet
facet normal 0 0 1
outer loop
vertex 12.497734828966673 7.605489539338025 5
vertex 12.497734828966674 2.5946371640075707 5
vertex 12.499244942988891 2.5909914262543983 5
endloop
endfacet
facet normal 0 0 1
outer loop
vertex 12.497734828966673 7.605489539338025 5
vertex 12.499244942988891 2.5909914262543983 5
vertex 12.499244942988891 7.594019084543076 5
endloop
endfacet
facet normal 0 0 1
outer loop
vertex 12.497734828966674 2.5946371640075707 5
vertex 12.497734828966674 1.6312348794358225 5
vertex 12.499244942988891 1.629266860526187 5
endloop
endfacet
facet normal 0 0 1
outer loop
vertex 12.497734828966674 2.5946371640075707 5
vertex 12.499244942988891 1.629266860526187 5
vertex 12.499244942988891 2.5909914262543983 5
endloop
endfacet
facet normal 0 0 1
outer loop
vertex 12.497734828966674 1.6312348794358225 5
vertex 12.497734828966674 1.2516905467237132 5
vertex 12.499244942988891 1.25053179547954 5
endloop
endfacet
facet normal 0 0 1
outer loop
vertex 12.497734828966674 1.6312348794358225 5
vertex 12.499244942988891 1.25053179547954 5
vertex 12.499244942988891 1.629266860526187 5
endloop
endfacet
facet normal 0 0 1
outer loop
vertex 12.497734828966674 1.2516905467237132 5
vertex 12.497734828966674 1.0747339027692002 5
vertex 12.499244942988891 1.074108393060468 5
endloop
endfacet
facet normal 0 0 1
outer loop
vertex 12.497734828966674 1.2516905467237132 5
vertex 12.499244942988891 1.074108393060468 5
vertex 12.499244942988891 1.25053179547954 5
endloop
endfacet
facet normal 0 0 1
outer loop
vertex 12.497734828966674 1.0747339027692002 5
vertex 12.497734828966674 1.0012816932286641 5
vertex 12.499244942988891 1.0010828829459977 5
endloop
endfacet
facet normal 0 0 1
outer loop
vertex 12.497734828966674 1.0747339027692002 5
vertex 12.499244942988891 1.0010828829459977 5
vertex 12.499244942988891 1.074108393060468 5
endloop
endfacet
facet normal 0 0 1
outer loop
vertex 12.497734828966674 1.0012816932286641 5
vertex 12.497734828966674 1.0009834778046651 5
vertex 12.498867414483334 1.0011325855166646 5
endloop
endfacet
facet normal 0 0 1
outer loop
vertex 22.497734828966674 10.00226517103333 5
vertex 12.499244942988891 10.002265171033327 5
vertex 12.499244942988891 7.594019084543065 5
endloop
endfacet
facet normal 0 0 1
outer loop
vertex 22.497734828966674 10.00226517103333 5
vertex 12.499244942988891 7.594019084543065 5
vertex 13.498718306771334 0.002265171033328136 5
endloop
endfacet
facet normal 0 0 1
outer loop
vertex 22.497734828966674 10.00226517103333 5
vertex 13.498718306771334 0.002265171033328136 5
vertex 22.497734828966674 0.0022651710333292385 5
endloop
endfacet
facet normal 0 0 1
outer loop
vertex 12.499244942988891 7.594019084543065 5
vertex 12.499244942988891 2.590991426254398 5
vertex 13.464793240772401 0.25995163061919746 5
endloop
endfacet
facet normal 0 0 1
outer loop
vertex 12.499244942988891 2.590991426254398 5
vertex 12.499244942988891 1.6292668605261869 5
vertex 13.364892818267775 0.5011325855166682 5
endloop
endfacet
facet normal 0 0 1
outer loop
vertex 12.499244942988891 1.6292668605261869 5
vertex 12.499244942988891 1.2505317954795387 5
vertex 13.205974195669889 0.708239366703209 5
endloop
endfacet
facet normal 0 0 1
outer loop
vertex 12.499244942988891 1.2505317954795387 5
vertex 12.499244942988891 1.0741083930604678 5
vertex 12.998867414483334 0.8671579893011054 5
endloop
endfacet
facet normal 0 0 1
outer loop
vertex 12.499244942988891 1.0741083930604678 5
vertex 12.499244942988891 1.001082882945998 5
vertex 12.757686459585862 0.9670584118057318 5
endloop
endfacet
facet normal 4.3297802811774757e-17 -4.329780281177465e-17 -1
outer loop
vertex 12.499244942988891 10.00226517103333 4.440565175404838e-16
vertex 12.499244942988891 20 1.1176566351473242e-17
vertex 22.496979771955566 10.00226517103333 8.769364687294946e-16
endloop
endfacet
facet normal -1 0 0
outer loop
vertex 12.499244942988891 10.00226517103333 5
vertex 12.499244942988891 20 5
vertex 12.499244942988891 20 1.1176566351473242e-17
endloop
endfacet
facet normal -1 0 0
outer loop
vertex 12.499244942988891 10.00226517103333 5
vertex 12.499244942988891 20 1.1176566351473242e-17
vertex 12.499244942988891 10.00226517103333 4.440565175404838e-16
endloop
endfacet
facet normal 0 0 1
outer loop
vertex 12.499244942988891 20 5
vertex 12.499244942988891 10.00226517103333 5
vertex 22.496979771955562 10.00226517103333 5
endloop
endfacet
facet normal 0.7071067811865485 0.7071067811865467 0
outer loop
vertex 12.499244942988891 20 1.1176566351473242e-17
vertex 12.499244942988891 20 5
vertex 22.496979771955566 10.00226517103333 5
endloop
endfacet
facet normal 0.7071067811865485 0.7071067811865467 0
outer loop
vertex 12.499244942988891 20 1.1176566351473242e-17
vertex 22.496979771955566 10.00226517103333 5
vertex 22.496979771955562 10.00226517103333 8.769364687294945e-16
endloop
endfacet
facet normal 0 -1 0
outer loop
vertex 22.500000000000004 -9.997734828966673 0
vertex 22.500000000000004 -9.997734828966673 5
vertex 12.500000000000004 -9.997734828966674 5
endloop
endfacet
facet normal 0 -1 0
outer loop
vertex 22.500000000000004 -9.997734828966673 0
vertex 12.500000000000004 -9.997734828966674 5
vertex 12.500000000000004 -9.997734828966674 0
endloop
endfacet
facet normal 0 1 0
outer loop
vertex 13.498718306771334 0.002265171033325863 5
vertex 22.5 0.002265171033327462 5
vertex 22.5 0.002265171033327462 0
endloop
endfacet
facet normal 0 1 0
outer loop
vertex 13.498718306771334 0.002265171033325863 5
vertex 22.5 0.002265171033327462 0
vertex 13.498718306771334 0.002265171033325863 0
endloop
endfacet
facet normal -1 0 0
outer loop
vertex 12.500000000000004 -9.997734828966674 5
vertex 12.500000000000004 -7.603224368304765 5
vertex 12.500000000000004 -7.603224368304761 0
endloop
endfacet
facet normal -1 0 0
outer loop
vertex 12.500000000000004 -9.997734828966674 5
vertex 12.500000000000004 -7.603224368304761 0
vertex 12.500000000000004 -9.997734828966674 0
endloop
endfacet
facet normal -1 0 0
outer loop
vertex 12.500000000000004 -7.603224368304765 5
vertex 12.500000000000002 -2.5923719929742504 5
vertex 12.500000000000002 -2.5923719929742512 0
endloop
endfacet
facet normal -1 0 0
outer loop
vertex 12.500000000000004 -7.603224368304765 5
vertex 12.500000000000002 -2.5923719929742512 0
vertex 12.500000000000004 -7.603224368304761 0
endloop
endfacet
facet normal -1 0 0
outer loop
vertex 12.500000000000002 -2.5923719929742504 5
vertex 12.500000000000002 -1.6289697084025057 5
vertex 12.500000000000002 -1.6289697084025059 0
endloop
endfacet
facet normal -1 0 0
outer loop
vertex 12.500000000000002 -2.5923719929742504 5
vertex 12.500000000000002 -1.6289697084025059 0
vertex 12.500000000000002 -2.5923719929742512 0
endloop
endfacet
facet normal -1 0 0
outer loop
vertex 12.500000000000002 -1.6289697084025057 5
vertex 12.500000000000002 -1.2494253756903864 5
vertex 12.500000000000002 -1.2494253756903861 0
endloop
endfacet
facet normal -1 0 0
outer loop
vertex 12.500000000000002 -1.6289697084025057 5
vertex 12.500000000000002 -1.2494253756903861 0
vertex 12.500000000000002 -1.6289697084025059 0
endloop
endfacet
facet normal -1 0 0
outer loop
vertex 12.500000000000002 -1.2494253756903864 5
vertex 12.500000000000002 -1.0724687317358714 5
vertex 12.500000000000002 -1.0724687317358714 0
endloop
endfacet
facet normal -1 0 0
outer loop
vertex 12.500000000000002 -1.2494253756903864 5
vertex 12.500000000000002 -1.0724687317358714 0
vertex 12.500000000000002 -1.2494253756903861 0
endloop
endfacet
facet normal -1 0 0
outer loop
vertex 12.500000000000002 -1.0724687317358714 5
vertex 12.500000000000002 -0.9990165221953354 5
vertex 12.500000000000002 -0.9990165221953355 0
endloop
endfacet
facet normal -1 0 0
outer loop
vertex 12.500000000000002 -1.0724687317358714 5
vertex 12.500000000000002 -0.9990165221953355 0
vertex 12.500000000000002 -1.0724687317358714 0
endloop
endfacet
facet normal -1 0 0
outer loop
vertex 12.500000000000002 -0.9990165221953354 5
vertex 12.500000000000002 -0.998718306771335 5
vertex 12.500000000000002 -0.998718306771335 0
endloop
endfacet
facet normal -1 0 0
outer loop
vertex 12.500000000000002 -0.9990165221953354 5
vertex 12.500000000000002 -0.998718306771335 0
vertex 12.500000000000002 -0.9990165221953355 0
endloop
endfacet
facet normal 1 0 0
outer loop
vertex 22.5 0.002265171033327462 0
vertex 22.5 0.002265171033327462 5
vertex 22.5 0.0007550570111112265 5
endloop
endfacet
facet normal 1 0 0
outer loop
vertex 22.5 0.002265171033327462 0
vertex 22.5 0.0007550570111112265 5
vertex 22.5 0.0007550570111103383 0
endloop
endfacet
facet normal 1 0 0
outer loop
vertex 22.500000000000004 -9.99697977195557 5
vertex 22.500000000000004 -9.997734828966673 5
vertex 22.500000000000004 -9.997734828966673 0
endloop
endfacet
facet normal 1 0 0
outer loop
vertex 22.500000000000004 -9.99697977195557 5
vertex 22.500000000000004 -9.997734828966673 0
vertex 22.500000000000004 -9.99697977195557 0
endloop
endfacet
facet normal 0 0 -1
outer loop
vertex 13.498718306771334 0.002265171033325863 0
vertex 22.5 0.002265171033327462 0
vertex 22.500000000000004 -9.997734828966673 0
endloop
endfacet
facet normal 0 0 -1
outer loop
vertex 13.498718306771334 0.002265171033325863 0
vertex 22.500000000000004 -9.997734828966673 0
vertex 14.815243282645287 -9.997734828966674 0
endloop
endfacet
facet normal 0 0 -1
outer loop
vertex 12.815243282645287 -9.997734828966674 0
vertex 12.500000000000004 -9.997734828966674 0
vertex 12.500000000000004 -7.603224368304765 0
endloop
endfacet
facet normal 0 0 -1
outer loop
vertex 14.464793240772396 -7.335802482105951 0
vertex 14.815243282645287 -9.997734828966674 0
vertex 12.815243282645287 -9.997734828966674 0
endloop
endfacet
facet normal 0 0 -1
outer loop
vertex 14.464793240772396 -7.335802482105951 0
vertex 12.815243282645287 -9.997734828966674 0
vertex 12.500000000000004 -7.603224368304765 0
endloop
endfacet
facet normal 0 0 -1
outer loop
vertex 14.464793240772396 -7.335802482105951 0
vertex 12.500000000000004 -7.603224368304765 0
vertex 12.500000000000002 -2.5923719929742495 0
endloop
endfacet
facet normal 0 0 -1
outer loop
vertex 13.964793240772401 -3.5379254257433947 0
vertex 14.464793240772396 -7.335802482105951 0
vertex 12.500000000000002 -2.5923719929742495 0
endloop
endfacet
facet normal 0 0 -1
outer loop
vertex 13.964793240772401 -3.5379254257433947 0
vertex 12.500000000000002 -2.5923719929742495 0
vertex 12.500000000000002 -1.6289697084025048 0
endloop
endfacet
facet normal 0 0 -1
outer loop
vertex 13.794252552071347 -2.2425402881553733 0
vertex 13.964793240772401 -3.5379254257433947 0
vertex 12.500000000000002 -1.6289697084025048 0
endloop
endfacet
facet normal 0 0 -1
outer loop
vertex 13.794252552071347 -2.2425402881553733 0
vertex 12.500000000000002 -1.6289697084025048 0
vertex 12.500000000000002 -1.2494253756903866 0
endloop
endfacet
facet normal 0 0 -1
outer loop
vertex 13.705974195669882 -1.5719995994543188 0
vertex 13.794252552071347 -2.2425402881553733 0
vertex 12.500000000000002 -1.2494253756903866 0
endloop
endfacet
facet normal 0 0 -1
outer loop
vertex 13.705974195669882 -1.5719995994543188 0
vertex 12.500000000000002 -1.2494253756903866 0
vertex 12.500000000000002 -1.0724687317358716 0
endloop
endfacet
facet normal 0 0 -1
outer loop
vertex 13.650480100903938 -1.150480100903938 0
vertex 13.705974195669882 -1.5719995994543188 0
vertex 12.500000000000002 -1.0724687317358716 0
endloop
endfacet
facet normal 0 0 -1
outer loop
vertex 13.650480100903938 -1.150480100903938 0
vertex 12.500000000000002 -1.0724687317358716 0
vertex 12.500000000000002 -0.9990165221953354 0
endloop
endfacet
facet normal 0 0 -1
outer loop
vertex 13.611239850179128 -0.8524208050766098 0
vertex 13.650480100903938 -1.150480100903938 0
vertex 12.500000000000002 -0.9990165221953354 0
endloop
endfacet
facet normal 0 0 -1
outer loop
vertex 13.611239850179128 -0.8524208050766098 0
vertex 12.500000000000002 -0.9990165221953354 0
vertex 12.500000000000002 -0.998718306771335 0
endloop
endfacet
facet normal 0 0 -1
outer loop
vertex 13.581129746782922 -0.6237118633702952 0
vertex 13.611239850179128 -0.8524208050766098 0
vertex 12.757686459585855 -0.964793240772404 0
endloop
endfacet
facet normal 0 0 -1
outer loop
vertex 13.55654495030854 -0.43697179443949125 0
vertex 13.581129746782922 -0.6237118633702952 0
vertex 12.998867414483328 -0.8648928182677766 0
endloop
endfacet
facet normal 0 0 -1
outer loop
vertex 13.535433506968827 -0.2766144618663098 0
vertex 13.55654495030854 -0.43697179443949125 0
vertex 13.205974195669894 -0.7059741956698729 0
endloop
endfacet
facet normal 0 0 -1
outer loop
vertex 13.516505504688375 -0.1328420106988964 0
vertex 13.535433506968827 -0.2766144618663098 0
vertex 13.364892818267771 -0.4988674144833414 0
endloop
endfacet
facet normal 0 0 -1
outer loop
vertex 13.498867414483335 0.0011325855166562009 0
vertex 13.516505504688375 -0.1328420106988964 0
vertex 13.464793240772407 -0.2576864595858448 0
endloop
endfacet
facet normal 0 0 1
outer loop
vertex 22.5 0.0007550570111103383 5
vertex 22.5 0.002265171033327462 5
vertex 13.498718306771334 0.002265171033325863 5
endloop
endfacet
facet normal 0 0 1
outer loop
vertex 22.5 0.0007550570111103383 5
vertex 13.498718306771334 0.002265171033325863 5
vertex 13.498917117054 0.0007550570111111378 5
endloop
endfacet
facet normal 0 0 1
outer loop
vertex 13.498817711912668 0.0007550570111111378 5
vertex 13.498917117054 0.0007550570111111378 5
vertex 13.498867414483335 0.0011325855166580804 5
endloop
endfacet
facet normal 0 0 1
outer loop
vertex 22.500000000000004 -9.997734828966673 5
vertex 22.5 0.0007550570111103383 5
vertex 13.498917117054 0.0007550570111111378 5
endloop
endfacet
facet normal 0 0 1
outer loop
vertex 22.500000000000004 -9.997734828966673 5
vertex 13.498917117054 0.0007550570111111378 5
vertex 14.815243282645287 -9.997734828966674 5
endloop
endfacet
facet normal 0 0 1
outer loop
vertex 12.500000000000004 -7.603224368304761 5
vertex 12.500000000000004 -9.997734828966674 5
vertex 12.815243282645287 -9.997734828966674 5
endloop
endfacet
facet normal 0 0 1
outer loop
vertex 12.500000000000002 -2.5923719929742512 5
vertex 12.500000000000004 -7.603224368304761 5
vertex 12.815243282645287 -9.997734828966674 5
endloop
endfacet
facet normal 0 0 1
outer loop
vertex 12.500000000000002 -2.5923719929742512 5
vertex 12.815243282645287 -9.997734828966674 5
vertex 14.815243282645287 -9.997734828966674 5
endloop
endfacet
facet normal 0 0 1
outer loop
vertex 12.500000000000002 -2.5923719929742512 5
vertex 14.815243282645287 -9.997734828966674 5
vertex 14.464793240772396 -7.335802482105951 5
endloop
endfacet
facet normal 0 0 1
outer loop
vertex 12.500000000000002 -1.6289697084025059 5
vertex 12.500000000000002 -2.5923719929742512 5
vertex 14.464793240772396 -7.335802482105951 5
endloop
endfacet
facet normal 0 0 1
outer loop
vertex 12.500000000000002 -1.6289697084025059 5
vertex 14.464793240772396 -7.335802482105951 5
vertex 13.964793240772401 -3.5379254257433974 5
endloop
endfacet
facet normal 0 0 1
outer loop
vertex 12.500000000000002 -1.2494253756903861 5
vertex 12.500000000000002 -1.6289697084025059 5
vertex 13.964793240772401 -3.5379254257433974 5
endloop
endfacet
facet normal 0 0 1
outer loop
vertex 12.500000000000002 -1.2494253756903861 5
vertex 13.964793240772401 -3.5379254257433974 5
vertex 13.794252552071347 -2.242540288155375 5
endloop
endfacet
facet normal 0 0 1
outer loop
vertex 12.500000000000002 -1.0724687317358714 5
vertex 12.500000000000002 -1.2494253756903861 5
vertex 13.794252552071347 -2.242540288155375 5
endloop
endfacet
facet normal 0 0 1
outer loop
vertex 12.500000000000002 -1.0724687317358714 5
vertex 13.794252552071347 -2.242540288155375 5
vertex 13.705974195669882 -1.5719995994543188 5
endloop
endfacet
facet normal 0 0 1
outer loop
vertex 12.500000000000002 -0.9990165221953355 5
vertex 12.500000000000002 -1.0724687317358714 5
vertex 13.705974195669882 -1.5719995994543188 5
endloop
endfacet
facet normal 0 0 1
outer loop
vertex 12.500000000000002 -0.9990165221953355 5
vertex 13.705974195669882 -1.5719995994543188 5
vertex 13.650480100903938 -1.1504801009039385 5
endloop
endfacet
facet normal 0 0 1
outer loop
vertex 12.500000000000002 -0.998718306771335 5
vertex 12.500000000000002 -0.9990165221953355 5
vertex 13.650480100903938 -1.1504801009039385 5
endloop
endfacet
facet normal 0 0 1
outer loop
vertex 12.500000000000002 -0.998718306771335 5
vertex 13.650480100903938 -1.1504801009039385 5
vertex 13.61123985017913 -0.85242080507661 5
endloop
endfacet
facet normal 0 0 1
outer loop
vertex 12.757686459585857 -0.9647932407724038 5
vertex 13.61123985017913 -0.85242080507661 5
vertex 13.581129746782922 -0.6237118633702949 5
endloop
endfacet
facet normal 0 0 1
outer loop
vertex 12.998867414483335 -0.864892818267774 5
vertex 13.581129746782922 -0.6237118633702949 5
vertex 13.55654495030854 -0.4369717944394921 5
endloop
endfacet
facet normal 0 0 1
outer loop
vertex 13.205974195669885 -0.7059741956698815 5
vertex 13.55654495030854 -0.4369717944394921 5
vertex 13.535433506968827 -0.2766144618663099 5
endloop
endfacet
facet normal 0 0 1
outer loop
vertex 13.364892818267775 -0.49886741448333494 5
vertex 13.535433506968827 -0.2766144618663099 5
vertex 13.516505504688375 -0.13284201069889875 5
endloop
endfacet
facet normal 0 0 1
outer loop
vertex 13.498917117054 0.0007550570111111378 5
vertex 13.49881771191267 0.0007550570111111378 5
vertex 13.464793240772407 -0.2576864595858485 5
endloop
endfacet
facet normal 0 0 1
outer loop
vertex 13.498917117054 0.0007550570111111378 5
vertex 13.464793240772407 -0.2576864595858485 5
vertex 13.516505504688375 -0.13284201069889875 5
endloop
endfacet
facet normal -4.3297802811774726e-17 -4.3297802811774677e-17 -1
outer loop
vertex 22.500000000000004 0.0007550570111103384 4.440565175404838e-16
vertex 32.49773482896667 0.0007550570111121147 1.1176566351473242e-17
vertex 22.500000000000004 -9.996979771955564 8.769364687294946e-16
endloop
endfacet
facet normal 0 1 0
outer loop
vertex 22.500000000000004 0.0007550570111103384 5
vertex 32.49773482896667 0.0007550570111121147 5
vertex 32.49773482896667 0.0007550570111121147 1.1176566351473242e-17
endloop
endfacet
facet normal 0 1 0
outer loop
vertex 22.500000000000004 0.0007550570111103384 5
vertex 32.49773482896667 0.0007550570111121147 1.1176566351473242e-17
vertex 22.500000000000004 0.0007550570111103384 4.440565175404838e-16
endloop
endfacet
facet normal 0 0 1
outer loop
vertex 32.49773482896667 0.0007550570111121147 5
vertex 22.500000000000004 0.0007550570111103384 5
vertex 22.500000000000004 -9.996979771955564 5
endloop
endfacet
facet normal 0.7071067811865485 -0.7071067811865467 0
outer loop
vertex 32.49773482896667 0.0007550570111121147 1.1176566351473242e-17
vertex 32.49773482896667 0.0007550570111121147 5
vertex 22.500000000000004 -9.996979771955564 5
endloop
endfacet
facet normal 0.7071067811865485 -0.7071067811865467 0
outer loop
vertex 32.49773482896667 0.0007550570111121147 1.1176566351473242e-17
vertex 22.500000000000004 -9.996979771955564 5
vertex 22.500000000000004 -9.996979771955564 8.769364687294947e-16
endloop
endfacet
facet normal 0 0 -1
outer loop
vertex 13.464793240772403 0.25995163061918536 -0.5
vertex 13.498867414483335 0.0011325855166646193 -0.5
vertex 12.498867414483335 0.0011325855166646193 -0.5
endloop
endfacet
facet normal 0.9914448613738105 0.13052619222005118 0
outer loop
vertex 13.498867414483335 0.0011325855166646193 0
vertex 13.498867414483335 0.0011325855166646193 -0.5
vertex 13.498718306771336 0.002265171033328138 -0.5
endloop
endfacet
facet normal 0.9914448613738105 0.13052619222005118 0
outer loop
vertex 13.498867414483335 0.0011325855166646193 0
vertex 13.498718306771336 0.002265171033328138 -0.5
vertex 13.498718306771336 0.002265171033328137 0
endloop
endfacet
facet normal 0.9914448613738105 0.13052619222005118 0
outer loop
vertex 13.498718306771336 0.0022651710333281283 5.5
vertex 13.498867414483335 0.0011325855166646193 5.5
vertex 13.498867414483335 0.0011325855166646193 5
endloop
endfacet
facet normal 0.9914448613738105 0.13052619222005118 0
outer loop
vertex 13.498718306771336 0.0022651710333281283 5.5
vertex 13.498867414483335 0.0011325855166646193 5
vertex 13.498718306771336 0.002265171033328129 5
endloop
endfacet
facet normal 0.9914448613738105 0.13052619222005118 0
outer loop
vertex 13.498718306771336 0.002265171033328137 0
vertex 13.498718306771336 0.002265171033328138 -0.5
vertex 13.464793240772403 0.25995163061918536 -0.5
endloop
endfacet
facet normal 0.9914448613738105 0.13052619222005118 0
outer loop
vertex 13.498718306771336 0.002265171033328137 0
vertex 13.464793240772403 0.25995163061918536 -0.5
vertex 13.464793240772403 0.25995163061918536 0
endloop
endfacet
facet normal 0.9914448613738105 0.13052619222005118 0
outer loop
vertex 13.464793240772403 0.25995163061918536 5.5
vertex 13.498718306771336 0.0022651710333281283 5.5
vertex 13.498718306771336 0.002265171033328129 5
endloop
endfacet
facet normal 0.9914448613738105 0.13052619222005118 0
outer loop
vertex 13.464793240772403 0.25995163061918536 5.5
vertex 13.498718306771336 0.002265171033328129 5
vertex 13.464793240772403 0.25995163061918536 5
endloop
endfacet
facet normal 0 0 1
outer loop
vertex 13.498867414483335 0.0011325855166646193 5.5
vertex 13.464793240772403 0.25995163061918536 5.5
vertex 12.498867414483335 0.0011325855166646193 5.5
endloop
endfacet
facet normal 0 0 -1
outer loop
vertex 13.364892818267775 0.5011325855166646 -0.5
vertex 13.464793240772403 0.25995163061918536 -0.5
vertex 12.498867414483335 0.0011325855166646193 -0.5
endloop
endfacet
facet normal 0.923879532511287 0.3826834323650896 0
outer loop
vertex 13.464793240772403 0.25995163061918536 0
vertex 13.464793240772403 0.25995163061918536 -0.5
vertex 13.364892818267775 0.5011325855166646 -0.5
endloop
endfacet
facet normal 0.923879532511287 0.3826834323650896 0
outer loop
vertex 13.464793240772403 0.25995163061918536 0
vertex 13.364892818267775 0.5011325855166646 -0.5
vertex 13.364892818267775 0.5011325855166646 0
endloop
endfacet
facet normal 0.923879532511287 0.3826834323650896 0
outer loop
vertex 13.364892818267775 0.5011325855166646 5.5
vertex 13.464793240772403 0.25995163061918536 5.5
vertex 13.464793240772403 0.25995163061918536 5
endloop
endfacet
facet normal 0.923879532511287 0.3826834323650896 0
outer loop
vertex 13.364892818267775 0.5011325855166646 5.5
vertex 13.464793240772403 0.25995163061918536 5
vertex 13.364892818267775 0.5011325855166646 5
endloop
endfacet
facet normal 0 0 1
outer loop
vertex 13.464793240772403 0.25995163061918536 5.5
vertex 13.364892818267775 0.5011325855166646 5.5
vertex 12.498867414483335 0.0011325855166646193 5.5
endloop
endfacet
facet normal 0 0 -1
outer loop
vertex 13.205974195669883 0.7082393667032121 -0.5
vertex 13.364892818267775 0.5011325855166646 -0.5
vertex 12.498867414483335 0.0011325855166646193 -0.5
endloop
endfacet
facet normal 0.7933533402912347 0.6087614290087213 0
outer loop
vertex 13.364892818267775 0.5011325855166646 0
vertex 13.364892818267775 0.5011325855166646 -0.5
vertex 13.205974195669883 0.7082393667032121 -0.5
endloop
endfacet
facet normal 0.7933533402912347 0.6087614290087213 0
outer loop
vertex 13.364892818267775 0.5011325855166646 0
vertex 13.205974195669883 0.7082393667032121 -0.5
vertex 13.205974195669883 0.7082393667032121 0
endloop
endfacet
facet normal 0.7933533402912347 0.6087614290087213 0
outer loop
vertex 13.205974195669883 0.7082393667032121 5.5
vertex 13.364892818267775 0.5011325855166646 5.5
vertex 13.364892818267775 0.5011325855166646 5
endloop
endfacet
facet normal 0.7933533402912347 0.6087614290087213 0
outer loop
vertex 13.205974195669883 0.7082393667032121 5.5
vertex 13.364892818267775 0.5011325855166646 5
vertex 13.205974195669883 0.7082393667032121 5
endloop
endfacet
facet normal 0 0 1
outer loop
vertex 13.364892818267775 0.5011325855166646 5.5
vertex 13.205974195669883 0.7082393667032121 5.5
vertex 12.498867414483335 0.0011325855166646193 5.5
endloop
endfacet
facet normal 0 0 -1
outer loop
vertex 12.998867414483335 0.8671579893011032 -0.5
vertex 13.205974195669883 0.7082393667032121 -0.5
vertex 12.498867414483335 0.0011325855166646193 -0.5
endloop
endfacet
facet normal 0.6087614290087208 0.7933533402912352 0
outer loop
vertex 13.205974195669883 0.7082393667032121 0
vertex 13.205974195669883 0.7082393667032121 -0.5
vertex 12.998867414483335 0.8671579893011032 -0.5
endloop
endfacet
facet normal 0.6087614290087208 0.7933533402912352 0
outer loop
vertex 13.205974195669883 0.7082393667032121 0
vertex 12.998867414483335 0.8671579893011032 -0.5
vertex 12.998867414483335 0.8671579893011032 0
endloop
endfacet
facet normal 0.6087614290087208 0.7933533402912352 0
outer loop
vertex 12.998867414483335 0.8671579893011032 5.5
vertex 13.205974195669883 0.7082393667032121 5.5
vertex 13.205974195669883 0.7082393667032121 5
endloop
endfacet
facet normal 0.6087614290087208 0.7933533402912352 0
outer loop
vertex 12.998867414483335 0.8671579893011032 5.5
vertex 13.205974195669883 0.7082393667032121 5
vertex 12.998867414483335 0.8671579893011032 5
endloop
endfacet
facet normal 0 0 1
outer loop
vertex 13.205974195669883 0.7082393667032121 5.5
vertex 12.998867414483335 0.8671579893011032 5.5
vertex 12.498867414483335 0.0011325855166646193 5.5
endloop
endfacet
facet normal 0 0 -1
outer loop
vertex 12.757686459585855 0.9670584118057329 -0.5
vertex 12.998867414483335 0.8671579893011032 -0.5
vertex 12.498867414483335 0.0011325855166646193 -0.5
endloop
endfacet
facet normal 0.38268343236508967 0.9238795325112868 0
outer loop
vertex 12.998867414483335 0.8671579893011032 0
vertex 12.998867414483335 0.8671579893011032 -0.5
vertex 12.757686459585855 0.9670584118057329 -0.5
endloop
endfacet
facet normal 0.38268343236508967 0.9238795325112868 0
outer loop
vertex 12.998867414483335 0.8671579893011032 0
vertex 12.757686459585855 0.9670584118057329 -0.5
vertex 12.757686459585855 0.9670584118057329 0
endloop
endfacet
facet normal 0.38268343236508967 0.9238795325112868 0
outer loop
vertex 12.757686459585855 0.9670584118057329 5.5
vertex 12.998867414483335 0.8671579893011032 5.5
vertex 12.998867414483335 0.8671579893011032 5
endloop
endfacet
facet normal 0.38268343236508967 0.9238795325112868 0
outer loop
vertex 12.757686459585855 0.9670584118057329 5.5
vertex 12.998867414483335 0.8671579893011032 5
vertex 12.757686459585855 0.9670584118057329 5
endloop
endfacet
facet normal 0 0 1
outer loop
vertex 12.998867414483335 0.8671579893011032 5.5
vertex 12.757686459585855 0.9670584118057329 5.5
vertex 12.498867414483335 0.0011325855166646193 5.5
endloop
endfacet
facet normal 0 0 -1
outer loop
vertex 12.498867414483335 1.0011325855166646 -0.5
vertex 12.757686459585855 0.9670584118057329 -0.5
vertex 12.498867414483335 0.0011325855166646193 -0.5
endloop
endfacet
facet normal 0.13052619222005174 0.9914448613738104 0
outer loop
vertex 12.757686459585855 0.9670584118057329 0
vertex 12.757686459585855 0.9670584118057329 -0.5
vertex 12.5 1.0009834778046645 -0.5
endloop
endfacet
facet normal 0.13052619222005174 0.9914448613738104 0
outer loop
vertex 12.757686459585855 0.9670584118057329 0
vertex 12.5 1.0009834778046645 -0.5
vertex 12.5 1.0009834778046645 0
endloop
endfacet
facet normal 0.13052619222005174 0.9914448613738104 0
outer loop
vertex 12.5 1.0009834778046645 5.5
vertex 12.757686459585855 0.9670584118057329 5.5
vertex 12.757686459585855 0.9670584118057329 5
endloop
endfacet
facet normal 0.13052619222005174 0.9914448613738104 0
outer loop
vertex 12.5 1.0009834778046645 5.5
vertex 12.757686459585855 0.9670584118057329 5
vertex 12.5 1.0009834778046645 5
endloop
endfacet
facet normal 0.13052619222005174 0.9914448613738104 0
outer loop
vertex 12.5 1.0009834778046645 0
vertex 12.5 1.0009834778046645 -0.5
vertex 12.498867414483335 1.0011325855166646 -0.5
endloop
endfacet
facet normal 0.13052619222005174 0.9914448613738104 0
outer loop
vertex 12.5 1.0009834778046645 0
vertex 12.498867414483335 1.0011325855166646 -0.5
vertex 12.498867414483335 1.0011325855166646 0
endloop
endfacet
facet normal 0.13052619222005174 0.9914448613738104 0
outer loop
vertex 12.498867414483335 1.0011325855166646 5.5
vertex 12.5 1.0009834778046645 5.5
vertex 12.5 1.0009834778046645 5
endloop
endfacet
facet normal 0.13052619222005174 0.9914448613738104 0
outer loop
vertex 12.498867414483335 1.0011325855166646 5.5
vertex 12.5 1.0009834778046645 5
vertex 12.498867414483335 1.0011325855166646 5
endloop
endfacet
facet normal 0 0 1
outer loop
vertex 12.757686459585855 0.9670584118057329 5.5
vertex 12.498867414483335 1.0011325855166646 5.5
vertex 12.498867414483335 0.0011325855166646193 5.5
endloop
endfacet
facet normal 0 0 -1
outer loop
vertex 12.240048369380814 0.9670584118057329 -0.5
vertex 12.498867414483335 1.0011325855166646 -0.5
vertex 12.498867414483335 0.0011325855166646193 -0.5
endloop
endfacet
facet normal -0.13052619222005163 0.9914448613738105 0
outer loop
vertex 12.498867414483335 1.0011325855166646 0
vertex 12.498867414483335 1.0011325855166646 -0.5
vertex 12.49773482896667 1.0009834778046645 -0.5
endloop
endfacet
facet normal -0.13052619222005163 0.9914448613738105 0
outer loop
vertex 12.498867414483335 1.0011325855166646 0
vertex 12.49773482896667 1.0009834778046645 -0.5
vertex 12.49773482896667 1.0009834778046645 0
endloop
endfacet
facet normal -0.13052619222005163 0.9914448613738105 0
outer loop
vertex 12.49773482896667 1.0009834778046645 5.5
vertex 12.498867414483335 1.0011325855166646 5.5
vertex 12.498867414483335 1.0011325855166646 5
endloop
endfacet
facet normal -0.13052619222005163 0.9914448613738105 0
outer loop
vertex 12.49773482896667 1.0009834778046645 5.5
vertex 12.498867414483335 1.0011325855166646 5
vertex 12.49773482896667 1.0009834778046645 5
endloop
endfacet
facet normal -0.13052619222005163 0.9914448613738105 0
outer loop
vertex 12.49773482896667 1.0009834778046645 0
vertex 12.49773482896667 1.0009834778046645 -0.5
vertex 12.240048369380814 0.9670584118057329 -0.5
endloop
endfacet
facet normal -0.13052619222005163 0.9914448613738105 0
outer loop
vertex 12.49773482896667 1.0009834778046645 0
vertex 12.240048369380814 0.9670584118057329 -0.5
vertex 12.240048369380814 0.9670584118057329 0
endloop
endfacet
facet normal -0.13052619222005163 0.9914448613738105 0
outer loop
vertex 12.240048369380814 0.9670584118057329 5.5
vertex 12.49773482896667 1.0009834778046645 5.5
vertex 12.49773482896667 1.0009834778046645 5
endloop
endfacet
facet normal -0.13052619222005163 0.9914448613738105 0
outer loop
vertex 12.240048369380814 0.9670584118057329 5.5
vertex 12.49773482896667 1.0009834778046645 5
vertex 12.240048369380814 0.9670584118057329 5
endloop
endfacet
facet normal 0 0 1
outer loop
vertex 12.498867414483335 1.0011325855166646 5.5
vertex 12.240048369380814 0.9670584118057329 5.5
vertex 12.498867414483335 0.0011325855166646193 5.5
endloop
endfacet
facet normal 0 0 -1
outer loop
vertex 11.998867414483335 0.8671579893011033 -0.5
vertex 12.240048369380814 0.9670584118057329 -0.5
vertex 12.498867414483335 0.0011325855166646193 -0.5
endloop
endfacet
facet normal -0.3826834323650903 0.9238795325112866 0
outer loop
vertex 12.240048369380814 0.9670584118057329 0
vertex 12.240048369380814 0.9670584118057329 -0.5
vertex 11.998867414483335 0.8671579893011033 -0.5
endloop
endfacet
facet normal -0.3826834323650903 0.9238795325112866 0
outer loop
vertex 12.240048369380814 0.9670584118057329 0
vertex 11.998867414483335 0.8671579893011033 -0.5
vertex 11.998867414483335 0.8671579893011033 0
endloop
endfacet
facet normal -0.3826834323650903 0.9238795325112866 0
outer loop
vertex 11.998867414483335 0.8671579893011033 5.5
vertex 12.240048369380814 0.9670584118057329 5.5
vertex 12.240048369380814 0.9670584118057329 5
endloop
endfacet
facet normal -0.3826834323650903 0.9238795325112866 0
outer loop
vertex 11.998867414483335 0.8671579893011033 5.5
vertex 12.240048369380814 0.9670584118057329 5
vertex 11.998867414483335 0.8671579893011033 5
endloop
endfacet
facet normal 0 0 1
outer loop
vertex 12.240048369380814 0.9670584118057329 5.5
vertex 11.998867414483335 0.8671579893011033 5.5
vertex 12.498867414483335 0.0011325855166646193 5.5
endloop
endfacet
facet normal 0 0 -1
outer loop
vertex 11.791760633296787 0.7082393667032122 -0.5
vertex 11.998867414483335 0.8671579893011033 -0.5
vertex 12.498867414483335 0.0011325855166646193 -0.5
endloop
endfacet
facet normal -0.6087614290087207 0.7933533402912353 0
outer loop
vertex 11.998867414483335 0.8671579893011033 0
vertex 11.998867414483335 0.8671579893011033 -0.5
vertex 11.791760633296787 0.7082393667032122 -0.5
endloop
endfacet
facet normal -0.6087614290087207 0.7933533402912353 0
outer loop
vertex 11.998867414483335 0.8671579893011033 0
vertex 11.791760633296787 0.7082393667032122 -0.5
vertex 11.791760633296787 0.7082393667032122 0
endloop
endfacet
facet normal -0.6087614290087207 0.7933533402912353 0
outer loop
vertex 11.791760633296787 0.7082393667032122 5.5
vertex 11.998867414483335 0.8671579893011033 5.5
vertex 11.998867414483335 0.8671579893011033 5
endloop
endfacet
facet normal -0.6087614290087207 0.7933533402912353 0
outer loop
vertex 11.791760633296787 0.7082393667032122 5.5
vertex 11.998867414483335 0.8671579893011033 5
vertex 11.791760633296787 0.7082393667032122 5
endloop
endfacet
facet normal 0 0 1
outer loop
vertex 11.998867414483335 0.8671579893011033 5.5
vertex 11.791760633296787 0.7082393667032122 5.5
vertex 12.498867414483335 0.0011325855166646193 5.5
endloop
endfacet
facet normal 0 0 -1
outer loop
vertex 11.632842010698896 0.5011325855166646 -0.5
vertex 11.791760633296787 0.7082393667032122 -0.5
vertex 12.498867414483335 0.0011325855166646193 -0.5
endloop
endfacet
facet normal -0.7933533402912349 0.6087614290087212 0
outer loop
vertex 11.791760633296787 0.7082393667032122 0
vertex 11.791760633296787 0.7082393667032122 -0.5
vertex 11.632842010698896 0.5011325855166646 -0.5
endloop
endfacet
facet normal -0.7933533402912349 0.6087614290087212 0
outer loop
vertex 11.791760633296787 0.7082393667032122 0
vertex 11.632842010698896 0.5011325855166646 -0.5
vertex 11.632842010698896 0.5011325855166646 0
endloop
endfacet
facet normal -0.7933533402912349 0.6087614290087212 0
outer loop
vertex 11.632842010698896 0.5011325855166646 5.5
vertex 11.791760633296787 0.7082393667032122 5.5
vertex 11.791760633296787 0.7082393667032122 5
endloop
endfacet
facet normal -0.7933533402912349 0.6087614290087212 0
outer loop
vertex 11.632842010698896 0.5011325855166646 5.5
vertex 11.791760633296787 0.7082393667032122 5
vertex 11.632842010698896 0.5011325855166646 5
endloop
endfacet
facet normal 0 0 1
outer loop
vertex 11.791760633296787 0.7082393667032122 5.5
vertex 11.632842010698896 0.5011325855166646 5.5
vertex 12.498867414483335 0.0011325855166646193 5.5
endloop
endfacet
facet normal 0 0 -1
outer loop
vertex 11.532941588194268 0.2599516306191856 -0.5
vertex 11.632842010698896 0.5011325855166646 -0.5
vertex 12.498867414483335 0.0011325855166646193 -0.5
endloop
endfacet
facet normal -0.9238795325112868 0.38268343236508967 0
outer loop
vertex 11.632842010698896 0.5011325855166646 0
vertex 11.632842010698896 0.5011325855166646 -0.5
vertex 11.532941588194268 0.2599516306191856 -0.5
endloop
endfacet
facet normal -0.9238795325112868 0.38268343236508967 0
outer loop
vertex 11.632842010698896 0.5011325855166646 0
vertex 11.532941588194268 0.2599516306191856 -0.5
vertex 11.532941588194268 0.2599516306191856 0
endloop
endfacet
facet normal -0.9238795325112868 0.38268343236508967 0
outer loop
vertex 11.532941588194268 0.2599516306191856 5.5
vertex 11.632842010698896 0.5011325855166646 5.5
vertex 11.632842010698896 0.5011325855166646 5
endloop
endfacet
facet normal -0.9238795325112868 0.38268343236508967 0
outer loop
vertex 11.532941588194268 0.2599516306191856 5.5
vertex 11.632842010698896 0.5011325855166646 5
vertex 11.532941588194268 0.2599516306191856 5
endloop
endfacet
facet normal 0 0 1
outer loop
vertex 11.632842010698896 0.5011325855166646 5.5
vertex 11.532941588194268 0.2599516306191856 5.5
vertex 12.498867414483335 0.0011325855166646193 5.5
endloop
endfacet
facet normal 0 0 -1
outer loop
vertex 11.498867414483335 0.0011325855166647303 -0.5
vertex 11.532941588194268 0.2599516306191856 -0.5
vertex 12.498867414483335 0.0011325855166646193 -0.5
endloop
endfacet
facet normal -0.9914448613738105 0.13052619222005116 0
outer loop
vertex 11.532941588194268 0.2599516306191856 0
vertex 11.532941588194268 0.2599516306191856 -0.5
vertex 11.498867414483335 0.0011325855166647303 -0.5
endloop
endfacet
facet normal -0.9914448613738105 0.13052619222005116 0
outer loop
vertex 11.532941588194268 0.2599516306191856 0
vertex 11.498867414483335 0.0011325855166647303 -0.5
vertex 11.498867414483335 0.0011325855166647303 0
endloop
endfacet
facet normal -0.9914448613738105 0.13052619222005116 0
outer loop
vertex 11.498867414483335 0.0011325855166647303 5.5
vertex 11.532941588194268 0.2599516306191856 5.5
vertex 11.532941588194268 0.2599516306191856 5
endloop
endfacet
facet normal -0.9914448613738105 0.13052619222005116 0
outer loop
vertex 11.498867414483335 0.0011325855166647303 5.5
vertex 11.532941588194268 0.2599516306191856 5
vertex 11.498867414483335 0.0011325855166647303 5
endloop
endfacet
facet normal 0 0 1
outer loop
vertex 11.532941588194268 0.2599516306191856 5.5
vertex 11.498867414483335 0.0011325855166647303 5.5
vertex 12.498867414483335 0.0011325855166646193 5.5
endloop
endfacet
facet normal 0 0 -1
outer loop
vertex 11.532941588194268 -0.2576864595858557 -0.5
vertex 11.498867414483335 0.0011325855166647303 -0.5
vertex 12.498867414483335 0.0011325855166646193 -0.5
endloop
endfacet
facet normal -0.9914448613738105 -0.13052619222005116 0
outer loop
vertex 11.498867414483335 0.0011325855166647303 0
vertex 11.498867414483335 0.0011325855166647303 -0.5
vertex 11.499016522195335 0 -0.5
endloop
endfacet
facet normal -0.9914448613738105 -0.13052619222005116 0
outer loop
vertex 11.498867414483335 0.0011325855166647303 0
vertex 11.499016522195335 0 -0.5
vertex 11.499016522195335 0 0
endloop
endfacet
facet normal -0.9914448613738105 -0.13052619222005116 0
outer loop
vertex 11.499016522195335 0 5.5
vertex 11.498867414483335 0.0011325855166647303 5.5
vertex 11.498867414483335 0.0011325855166647303 5
endloop
endfacet
facet normal -0.9914448613738105 -0.13052619222005116 0
outer loop
vertex 11.499016522195335 0 5.5
vertex 11.498867414483335 0.0011325855166647303 5
vertex 11.499016522195335 0 5
endloop
endfacet
facet normal -0.9914448613738105 -0.13052619222005116 0
outer loop
vertex 11.499016522195335 0 0
vertex 11.499016522195335 0 -0.5
vertex 11.532941588194268 -0.2576864595858557 -0.5
endloop
endfacet
facet normal -0.9914448613738105 -0.13052619222005116 0
outer loop
vertex 11.499016522195335 0 0
vertex 11.532941588194268 -0.2576864595858557 -0.5
vertex 11.532941588194268 -0.2576864595858557 0
endloop
endfacet
facet normal -0.9914448613738105 -0.13052619222005116 0
outer loop
vertex 11.532941588194268 -0.2576864595858557 5.5
vertex 11.499016522195335 0 5.5
vertex 11.499016522195335 0 5
endloop
endfacet
facet normal -0.9914448613738105 -0.13052619222005116 0
outer loop
vertex 11.532941588194268 -0.2576864595858557 5.5
vertex 11.499016522195335 0 5
vertex 11.532941588194268 -0.2576864595858557 5
endloop
endfacet
facet normal 0 0 1
outer loop
vertex 11.498867414483335 0.0011325855166647303 5.5
vertex 11.532941588194268 -0.2576864595858557 5.5
vertex 12.498867414483335 0.0011325855166646193 5.5
endloop
endfacet
facet normal 0 0 -1
outer loop
vertex 11.632842010698896 -0.4988674144833354 -0.5
vertex 11.532941588194268 -0.2576864595858557 -0.5
vertex 12.498867414483335 0.0011325855166646193 -0.5
endloop
endfacet
facet normal -0.9238795325112867 -0.3826834323650896 0
outer loop
vertex 11.532941588194268 -0.2576864595858557 0
vertex 11.532941588194268 -0.2576864595858557 -0.5
vertex 11.632842010698896 -0.4988674144833354 -0.5
endloop
endfacet
facet normal -0.9238795325112867 -0.3826834323650896 0
outer loop
vertex 11.532941588194268 -0.2576864595858557 0
vertex 11.632842010698896 -0.4988674144833354 -0.5
vertex 11.632842010698896 -0.4988674144833354 0
endloop
endfacet
facet normal -0.9238795325112867 -0.3826834323650896 0
outer loop
vertex 11.632842010698896 -0.4988674144833354 5.5
vertex 11.532941588194268 -0.2576864595858557 5.5
vertex 11.532941588194268 -0.2576864595858557 5
endloop
endfacet
facet normal -0.9238795325112867 -0.3826834323650896 0
outer loop
vertex 11.632842010698896 -0.4988674144833354 5.5
vertex 11.532941588194268 -0.2576864595858557 5
vertex 11.632842010698896 -0.4988674144833354 5
endloop
endfacet
facet normal 0 0 1
outer loop
vertex 11.532941588194268 -0.2576864595858557 5.5
vertex 11.632842010698896 -0.4988674144833354 5.5
vertex 12.498867414483335 0.0011325855166646193 5.5
endloop
endfacet
facet normal 0 0 -1
outer loop
vertex 11.791760633296787 -0.7059741956698828 -0.5
vertex 11.632842010698896 -0.4988674144833354 -0.5
vertex 12.498867414483335 0.0011325855166646193 -0.5
endloop
endfacet
facet normal -0.7933533402912358 -0.6087614290087198 0
outer loop
vertex 11.632842010698896 -0.4988674144833354 0
vertex 11.632842010698896 -0.4988674144833354 -0.5
vertex 11.791760633296787 -0.7059741956698828 -0.5
endloop
endfacet
facet normal -0.7933533402912358 -0.6087614290087198 0
outer loop
vertex 11.632842010698896 -0.4988674144833354 0
vertex 11.791760633296787 -0.7059741956698828 -0.5
vertex 11.791760633296787 -0.7059741956698828 0
endloop
endfacet
facet normal -0.7933533402912358 -0.6087614290087198 0
outer loop
vertex 11.791760633296787 -0.7059741956698828 5.5
vertex 11.632842010698896 -0.4988674144833354 5.5
vertex 11.632842010698896 -0.4988674144833354 5
endloop
endfacet
facet normal -0.7933533402912358 -0.6087614290087198 0
outer loop
vertex 11.791760633296787 -0.7059741956698828 5.5
vertex 11.632842010698896 -0.4988674144833354 5
vertex 11.791760633296787 -0.7059741956698828 5
endloop
endfacet
facet normal 0 0 1
outer loop
vertex 11.632842010698896 -0.4988674144833354 5.5
vertex 11.791760633296787 -0.7059741956698828 5.5
vertex 12.498867414483335 0.0011325855166646193 5.5
endloop
endfacet
facet normal 0 0 -1
outer loop
vertex 11.998867414483335 -0.8648928182677738 -0.5
vertex 11.791760633296787 -0.7059741956698828 -0.5
vertex 12.498867414483335 0.0011325855166646193 -0.5
endloop
endfacet
facet normal -0.6087614290087208 -0.7933533402912352 0
outer loop
vertex 11.791760633296787 -0.7059741956698828 0
vertex 11.791760633296787 -0.7059741956698828 -0.5
vertex 11.998867414483335 -0.8648928182677738 -0.5
endloop
endfacet
facet normal -0.6087614290087208 -0.7933533402912352 0
outer loop
vertex 11.791760633296787 -0.7059741956698828 0
vertex 11.998867414483335 -0.8648928182677738 -0.5
vertex 11.998867414483335 -0.8648928182677738 0
endloop
endfacet
facet normal -0.6087614290087208 -0.7933533402912352 0
outer loop
vertex 11.998867414483335 -0.8648928182677738 5.5
vertex 11.791760633296787 -0.7059741956698828 5.5
vertex 11.791760633296787 -0.7059741956698828 5
endloop
endfacet
facet normal -0.6087614290087208 -0.7933533402912352 0
outer loop
vertex 11.998867414483335 -0.8648928182677738 5.5
vertex 11.791760633296787 -0.7059741956698828 5
vertex 11.998867414483335 -0.8648928182677738 5
endloop
endfacet
facet normal 0 0 1
outer loop
vertex 11.791760633296787 -0.7059741956698828 5.5
vertex 11.998867414483335 -0.8648928182677738 5.5
vertex 12.498867414483335 0.0011325855166646193 5.5
endloop
endfacet
facet normal 0 0 -1
outer loop
vertex 12.240048369380816 -0.9647932407724036 -0.5
vertex 11.998867414483335 -0.8648928182677738 -0.5
vertex 12.498867414483335 0.0011325855166646193 -0.5
endloop
endfacet
facet normal -0.3826834323650893 -0.9238795325112871 0
outer loop
vertex 11.998867414483335 -0.8648928182677738 0
vertex 11.998867414483335 -0.8648928182677738 -0.5
vertex 12.240048369380816 -0.9647932407724036 -0.5
endloop
endfacet
facet normal -0.3826834323650893 -0.9238795325112871 0
outer loop
vertex 11.998867414483335 -0.8648928182677738 0
vertex 12.240048369380816 -0.9647932407724036 -0.5
vertex 12.240048369380816 -0.9647932407724036 0
endloop
endfacet
facet normal -0.3826834323650893 -0.9238795325112871 0
outer loop
vertex 12.240048369380816 -0.9647932407724036 5.5
vertex 11.998867414483335 -0.8648928182677738 5.5
vertex 11.998867414483335 -0.8648928182677738 5
endloop
endfacet
facet normal -0.3826834323650893 -0.9238795325112871 0
outer loop
vertex 12.240048369380816 -0.9647932407724036 5.5
vertex 11.998867414483335 -0.8648928182677738 5
vertex 12.240048369380816 -0.9647932407724036 5
endloop
endfacet
facet normal 0 0 1
outer loop
vertex 11.998867414483335 -0.8648928182677738 5.5
vertex 12.240048369380816 -0.9647932407724036 5.5
vertex 12.498867414483335 0.0011325855166646193 5.5
endloop
endfacet
facet normal 0 0 -1
outer loop
vertex 12.498867414483335 -0.9988674144833354 -0.5
vertex 12.240048369380816 -0.9647932407724036 -0.5
vertex 12.498867414483335 0.0011325855166646193 -0.5
endloop
endfacet
facet normal -0.13052619222005196 -0.9914448613738105 0
outer loop
vertex 12.240048369380816 -0.9647932407724036 0
vertex 12.240048369380816 -0.9647932407724036 -0.5
vertex 12.498867414483335 -0.9988674144833354 -0.5
endloop
endfacet
facet normal -0.13052619222005196 -0.9914448613738105 0
outer loop
vertex 12.240048369380816 -0.9647932407724036 0
vertex 12.498867414483335 -0.9988674144833354 -0.5
vertex 12.498867414483335 -0.9988674144833354 0
endloop
endfacet
facet normal -0.13052619222005196 -0.9914448613738105 0
outer loop
vertex 12.498867414483335 -0.9988674144833354 5.5
vertex 12.240048369380816 -0.9647932407724036 5.5
vertex 12.240048369380816 -0.9647932407724036 5
endloop
endfacet
facet normal -0.13052619222005196 -0.9914448613738105 0
outer loop
vertex 12.498867414483335 -0.9988674144833354 5.5
vertex 12.240048369380816 -0.9647932407724036 5
vertex 12.498867414483335 -0.9988674144833354 5
endloop
endfacet
facet normal 0 0 1
outer loop
vertex 12.240048369380816 -0.9647932407724036 5.5
vertex 12.498867414483335 -0.9988674144833354 5.5
vertex 12.498867414483335 0.0011325855166646193 5.5
endloop
endfacet
facet normal 0 0 -1
outer loop
vertex 12.757686459585855 -0.9647932407724038 -0.5
vertex 12.498867414483335 -0.9988674144833354 -0.5
vertex 12.498867414483335 0.0011325855166646193 -0.5
endloop
endfacet
facet normal 0.13052619222005107 -0.9914448613738105 0
outer loop
vertex 12.5 -0.9987183067713352 0
vertex 12.5 -0.9987183067713352 -0.5
vertex 12.757686459585855 -0.9647932407724038 -0.5
endloop
endfacet
facet normal 0.13052619222005107 -0.9914448613738105 0
outer loop
vertex 12.5 -0.9987183067713352 0
vertex 12.757686459585855 -0.9647932407724038 -0.5
vertex 12.757686459585855 -0.9647932407724038 0
endloop
endfacet
facet normal 0.13052619222005107 -0.9914448613738105 0
outer loop
vertex 12.757686459585855 -0.9647932407724038 5.5
vertex 12.5 -0.9987183067713352 5.5
vertex 12.5 -0.9987183067713352 5
endloop
endfacet
facet normal 0.13052619222005107 -0.9914448613738105 0
outer loop
vertex 12.757686459585855 -0.9647932407724038 5.5
vertex 12.5 -0.9987183067713352 5
vertex 12.757686459585855 -0.9647932407724038 5
endloop
endfacet
facet normal 0.13052619222005107 -0.9914448613738105 0
outer loop
vertex 12.498867414483335 -0.9988674144833354 0
vertex 12.498867414483335 -0.9988674144833354 -0.5
vertex 12.5 -0.9987183067713352 -0.5
endloop
endfacet
facet normal 0.13052619222005107 -0.9914448613738105 0
outer loop
vertex 12.498867414483335 -0.9988674144833354 0
vertex 12.5 -0.9987183067713352 -0.5
vertex 12.5 -0.9987183067713352 0
endloop
endfacet
facet normal 0.13052619222005107 -0.9914448613738105 0
outer loop
vertex 12.5 -0.9987183067713352 5.5
vertex 12.498867414483335 -0.9988674144833354 5.5
vertex 12.498867414483335 -0.9988674144833354 5
endloop
endfacet
facet normal 0.13052619222005107 -0.9914448613738105 0
outer loop
vertex 12.5 -0.9987183067713352 5.5
vertex 12.498867414483335 -0.9988674144833354 5
vertex 12.5 -0.9987183067713352 5
endloop
endfacet
facet normal 0 0 1
outer loop
vertex 12.498867414483335 -0.9988674144833354 5.5
vertex 12.757686459585855 -0.9647932407724038 5.5
vertex 12.498867414483335 0.0011325855166646193 5.5
endloop
endfacet
facet normal 0 0 -1
outer loop
vertex 12.998867414483335 -0.864892818267774 -0.5
vertex 12.757686459585855 -0.9647932407724038 -0.5
vertex 12.498867414483335 0.0011325855166646193 -0.5
endloop
endfacet
facet normal 0.38268343236508945 -0.9238795325112868 0
outer loop
vertex 12.757686459585855 -0.9647932407724038 0
vertex 12.757686459585855 -0.9647932407724038 -0.5
vertex 12.998867414483335 -0.864892818267774 -0.5
endloop
endfacet
facet normal 0.38268343236508945 -0.9238795325112868 0
outer loop
vertex 12.757686459585855 -0.9647932407724038 0
vertex 12.998867414483335 -0.864892818267774 -0.5
vertex 12.998867414483335 -0.864892818267774 0
endloop
endfacet
facet normal 0.38268343236508945 -0.9238795325112868 0
outer loop
vertex 12.998867414483335 -0.864892818267774 5.5
vertex 12.757686459585855 -0.9647932407724038 5.5
vertex 12.757686459585855 -0.9647932407724038 5
endloop
endfacet
facet normal 0.38268343236508945 -0.9238795325112868 0
outer loop
vertex 12.998867414483335 -0.864892818267774 5.5
vertex 12.757686459585855 -0.9647932407724038 5
vertex 12.998867414483335 -0.864892818267774 5
endloop
endfacet
facet normal 0 0 1
outer loop
vertex 12.757686459585855 -0.9647932407724038 5.5
vertex 12.998867414483335 -0.864892818267774 5.5
vertex 12.498867414483335 0.0011325855166646193 5.5
endloop
endfacet
facet normal 0 0 -1
outer loop
vertex 13.205974195669883 -0.7059741956698831 -0.5
vertex 12.998867414483335 -0.864892818267774 -0.5
vertex 12.498867414483335 0.0011325855166646193 -0.5
endloop
endfacet
facet normal 0.6087614290087197 -0.793353340291236 0
outer loop
vertex 12.998867414483335 -0.864892818267774 0
vertex 12.998867414483335 -0.864892818267774 -0.5
vertex 13.205974195669883 -0.7059741956698831 -0.5
endloop
endfacet
facet normal 0.6087614290087197 -0.793353340291236 0
outer loop
vertex 12.998867414483335 -0.864892818267774 0
vertex 13.205974195669883 -0.7059741956698831 -0.5
vertex 13.205974195669883 -0.7059741956698831 0
endloop
endfacet
facet normal 0.6087614290087197 -0.793353340291236 0
outer loop
vertex 13.205974195669883 -0.7059741956698831 5.5
vertex 12.998867414483335 -0.864892818267774 5.5
vertex 12.998867414483335 -0.864892818267774 5
endloop
endfacet
facet normal 0.6087614290087197 -0.793353340291236 0
outer loop
vertex 13.205974195669883 -0.7059741956698831 5.5
vertex 12.998867414483335 -0.864892818267774 5
vertex 13.205974195669883 -0.7059741956698831 5
endloop
endfacet
facet normal 0 0 1
outer loop
vertex 12.998867414483335 -0.864892818267774 5.5
vertex 13.205974195669883 -0.7059741956698831 5.5
vertex 12.498867414483335 0.0011325855166646193 5.5
endloop
endfacet
facet normal 0 0 -1
outer loop
vertex 13.364892818267773 -0.4988674144833358 -0.5
vertex 13.205974195669883 -0.7059741956698831 -0.5
vertex 12.498867414483335 0.0011325855166646193 -0.5
endloop
endfacet
facet normal 0.7933533402912357 -0.60876142900872 0
outer loop
vertex 13.205974195669883 -0.7059741956698831 0
vertex 13.205974195669883 -0.7059741956698831 -0.5
vertex 13.364892818267773 -0.4988674144833358 -0.5
endloop
endfacet
facet normal 0.7933533402912357 -0.60876142900872 0
outer loop
vertex 13.205974195669883 -0.7059741956698831 0
vertex 13.364892818267773 -0.4988674144833358 -0.5
vertex 13.364892818267773 -0.4988674144833358 0
endloop
endfacet
facet normal 0.7933533402912357 -0.60876142900872 0
outer loop
vertex 13.364892818267773 -0.4988674144833358 5.5
vertex 13.205974195669883 -0.7059741956698831 5.5
vertex 13.205974195669883 -0.7059741956698831 5
endloop
endfacet
facet normal 0.7933533402912357 -0.60876142900872 0
outer loop
vertex 13.364892818267773 -0.4988674144833358 5.5
vertex 13.205974195669883 -0.7059741956698831 5
vertex 13.364892818267773 -0.4988674144833358 5
endloop
endfacet
facet normal 0 0 1
outer loop
vertex 13.205974195669883 -0.7059741956698831 5.5
vertex 13.364892818267773 -0.4988674144833358 5.5
vertex 12.498867414483335 0.0011325855166646193 5.5
endloop
endfacet
facet normal 0 0 -1
outer loop
vertex 13.464793240772403 -0.2576864595858561 -0.5
vertex 13.364892818267773 -0.4988674144833358 -0.5
vertex 12.498867414483335 0.0011325855166646193 -0.5
endloop
endfacet
facet normal 0.9238795325112868 -0.3826834323650896 0
outer loop
vertex 13.364892818267773 -0.4988674144833358 0
vertex 13.364892818267773 -0.4988674144833358 -0.5
vertex 13.464793240772403 -0.2576864595858561 -0.5
endloop
endfacet
facet normal 0.9238795325112868 -0.3826834323650896 0
outer loop
vertex 13.364892818267773 -0.4988674144833358 0
vertex 13.464793240772403 -0.2576864595858561 -0.5
vertex 13.464793240772403 -0.2576864595858561 0
endloop
endfacet
facet normal 0.9238795325112868 -0.3826834323650896 0
outer loop
vertex 13.464793240772403 -0.2576864595858561 5.5
vertex 13.364892818267773 -0.4988674144833358 5.5
vertex 13.364892818267773 -0.4988674144833358 5
endloop
endfacet
facet normal 0.9238795325112868 -0.3826834323650896 0
outer loop
vertex 13.464793240772403 -0.2576864595858561 5.5
vertex 13.364892818267773 -0.4988674144833358 5
vertex 13.464793240772403 -0.2576864595858561 5
endloop
endfacet
facet normal 0 0 1
outer loop
vertex 13.364892818267773 -0.4988674144833358 5.5
vertex 13.464793240772403 -0.2576864595858561 5.5
vertex 12.498867414483335 0.0011325855166646193 5.5
endloop
endfacet
facet normal 0 0 -1
outer loop
vertex 13.498867414483335 0.0011325855166643972 -0.5
vertex 13.464793240772403 -0.2576864595858561 -0.5
vertex 12.498867414483335 0.0011325855166646193 -0.5
endloop
endfacet
facet normal 0.9914448613738105 -0.13052619222005116 0
outer loop
vertex 13.464793240772403 -0.2576864595858561 0
vertex 13.464793240772403 -0.2576864595858561 -0.5
vertex 13.498718306771336 1.7763568394002505e-15 -0.5
endloop
endfacet
facet normal 0.9914448613738105 -0.13052619222005116 0
outer loop
vertex 13.464793240772403 -0.2576864595858561 0
vertex 13.498718306771336 1.7763568394002505e-15 -0.5
vertex 13.498718306771336 1.7763568394002505e-15 0
endloop
endfacet
facet normal 0.9914448613738105 -0.13052619222005116 0
outer loop
vertex 13.498718306771336 1.7763568394002505e-15 5.5
vertex 13.464793240772403 -0.2576864595858561 5.5
vertex 13.464793240772403 -0.2576864595858561 5
endloop
endfacet
facet normal 0.9914448613738105 -0.13052619222005116 0
outer loop
vertex 13.498718306771336 1.7763568394002505e-15 5.5
vertex 13.464793240772403 -0.2576864595858561 5
vertex 13.498718306771336 1.7763568394002505e-15 5
endloop
endfacet
facet normal 0.9914448613738105 -0.13052619222005116 0
outer loop
vertex 13.498718306771336 1.7763568394002505e-15 0
vertex 13.498718306771336 1.7763568394002505e-15 -0.5
vertex 13.498867414483335 0.0011325855166643972 -0.5
endloop
endfacet
facet normal 0.9914448613738105 -0.13052619222005116 0
outer loop
vertex 13.498718306771336 1.7763568394002505e-15 0
vertex 13.498867414483335 0.0011325855166643972 -0.5
vertex 13.498867414483335 0.0011325855166643972 0
endloop
endfacet
facet normal 0.9914448613738105 -0.13052619222005116 0
outer loop
vertex 13.498867414483335 0.0011325855166643972 5.5
vertex 13.498718306771336 1.7763568394002505e-15 5.5
vertex 13.498718306771336 1.7763568394002505e-15 5
endloop
endfacet
facet normal 0.9914448613738105 -0.13052619222005116 0
outer loop
vertex 13.498867414483335 0.0011325855166643972 5.5
vertex 13.498718306771336 1.7763568394002505e-15 5
vertex 13.498867414483335 0.0011325855166643972 5
endloop
endfacet
facet normal 0 0 1
outer loop
vertex 13.464793240772403 -0.2576864595858561 5.5
vertex 13.498867414483335 0.0011325855166643972 5.5
vertex 12.498867414483335 0.0011325855166646193 5.5
endloop
endfacet
endsolid craftml
