solid craftml
facet normal 0 0 1
outer loop
vertex 4.9999999999999964 15 35
vertex 1.8713106991953792 14.753766811902754 35
vertex -1.1803398874989508 14.02113032590307 35
endloop
endfacet
facet normal 0 0 1
outer loop
vertex 4.9999999999999964 15 35
vertex -1.1803398874989508 14.02113032590307 35
vertex -4.0798099947909385 12.820130483767358 35
endloop
endfacet
facet normal 0 0 1
outer loop
vertex 4.9999999999999964 15 35
vertex -4.0798099947909385 12.820130483767358 35
vertex -4.532278963951125 12.542857142857132 35
endloop
endfacet
facet normal 0 0 1
outer loop
vertex 4.9999999999999964 15 35
vertex -4.532278963951125 12.542857142857132 35
vertex 14.532278963951123 12.542857142857132 35
endloop
endfacet
facet normal 0 0 1
outer loop
vertex 4.9999999999999964 15 35
vertex 14.532278963951123 12.542857142857132 35
vertex 14.079809994790933 12.820130483767358 35
endloop
endfacet
facet normal 0 0 1
outer loop
vertex 4.9999999999999964 15 35
vertex 14.079809994790933 12.820130483767358 35
vertex 11.180339887498945 14.02113032590307 35
endloop
endfacet
facet normal 0 0 1
outer loop
vertex 4.9999999999999964 15 35
vertex 11.180339887498945 14.02113032590307 35
vertex 8.128689300804613 14.753766811902754 35
endloop
endfacet
facet normal 0 0 1
outer loop
vertex -4.532278963951125 12.542857142857132 35
vertex -4.884729036325536 12.326875460726116 35
vertex 2.2556925275799085 12.326875460726116 35
endloop
endfacet
facet normal 0 0 1
outer loop
vertex -4.532278963951125 12.542857142857132 35
vertex 2.2556925275799085 12.326875460726116 35
vertex 5.000000000000023 12.542857142857132 35
endloop
endfacet
facet normal 0 0 1
outer loop
vertex 5.000000000000023 12.542857142857132 35
vertex 7.744307472420148 12.326875460726116 35
vertex 14.884729036325536 12.326875460726116 35
endloop
endfacet
facet normal 0 0 1
outer loop
vertex 5.000000000000023 12.542857142857132 35
vertex 14.884729036325536 12.326875460726116 35
vertex 14.532278963951123 12.542857142857132 35
endloop
endfacet
facet normal 0 0 1
outer loop
vertex -4.884729036325536 12.326875460726116 35
vertex -5.933400762952145 11.684248600149266 35
vertex -0.42104098703477 11.684248600149266 35
endloop
endfacet
facet normal 0 0 1
outer loop
vertex -4.884729036325536 12.326875460726116 35
vertex -0.42104098703477 11.684248600149266 35
vertex 2.2556925275799085 12.326875460726116 35
endloop
endfacet
facet normal 0 0 1
outer loop
vertex 7.744307472420148 12.326875460726116 35
vertex 10.421040987034779 11.684248600149266 35
vertex 15.933400762952152 11.684248600149266 35
endloop
endfacet
facet normal 0 0 1
outer loop
vertex 7.744307472420148 12.326875460726116 35
vertex 15.933400762952152 11.684248600149266 35
vertex 14.884729036325536 12.326875460726116 35
endloop
endfacet
facet normal 0 0 1
outer loop
vertex -5.933400762952145 11.684248600149266 35
vertex -6.755705045849465 11.180339887498945 35
vertex -7.399133388934577 10.630800167190191 35
endloop
endfacet
facet normal 0 0 1
outer loop
vertex -5.933400762952145 11.684248600149266 35
vertex -7.399133388934577 10.630800167190191 35
vertex -2.9642904811452553 10.630800167190191 35
endloop
endfacet
facet normal 0 0 1
outer loop
vertex -5.933400762952145 11.684248600149266 35
vertex -2.9642904811452553 10.630800167190191 35
vertex -0.42104098703477 11.684248600149266 35
endloop
endfacet
facet normal 0 0 1
outer loop
vertex 10.421040987034779 11.684248600149266 35
vertex 12.964290481145259 10.630800167190191 35
vertex 17.399133388934576 10.630800167190191 35
endloop
endfacet
facet normal 0 0 1
outer loop
vertex 10.421040987034779 11.684248600149266 35
vertex 17.399133388934576 10.630800167190191 35
vertex 16.75570504584946 11.180339887498945 35
endloop
endfacet
facet normal 0 0 1
outer loop
vertex 10.421040987034779 11.684248600149266 35
vertex 16.75570504584946 11.180339887498945 35
vertex 15.933400762952152 11.684248600149266 35
endloop
endfacet
facet normal 0 0 1
outer loop
vertex -7.399133388934577 10.630800167190191 35
vertex -9.083202158088758 9.192469558463374 35
vertex -5.311432711645086 9.192469558463374 35
endloop
endfacet
facet normal 0 0 1
outer loop
vertex -7.399133388934577 10.630800167190191 35
vertex -5.311432711645086 9.192469558463374 35
vertex -2.9642904811452553 10.630800167190191 35
endloop
endfacet
facet normal 0 0 1
outer loop
vertex 12.964290481145259 10.630800167190191 35
vertex 15.311432711645006 9.192469558463374 35
vertex 19.083202158088753 9.192469558463374 35
endloop
endfacet
facet normal 0 0 1
outer loop
vertex 12.964290481145259 10.630800167190191 35
vertex 19.083202158088753 9.192469558463374 35
vertex 17.399133388934576 10.630800167190191 35
endloop
endfacet
facet normal 0 0 1
outer loop
vertex -9.083202158088758 9.192469558463374 35
vertex -9.142135623730955 9.14213562373095 35
vertex -10.626068681329908 7.404673247101158 35
endloop
endfacet
facet normal 0 0 1
outer loop
vertex -9.083202158088758 9.192469558463374 35
vertex -10.626068681329908 7.404673247101158 35
vertex -7.404673247101139 7.404673247101158 35
endloop
endfacet
facet normal 0 0 1
outer loop
vertex -9.083202158088758 9.192469558463374 35
vertex -7.404673247101139 7.404673247101158 35
vertex -5.311432711645086 9.192469558463374 35
endloop
endfacet
facet normal 0 0 1
outer loop
vertex 15.311432711645006 9.192469558463374 35
vertex 17.404673247101183 7.404673247101158 35
vertex 20.626068681329908 7.404673247101158 35
endloop
endfacet
facet normal 0 0 1
outer loop
vertex 15.311432711645006 9.192469558463374 35
vertex 20.626068681329908 7.404673247101158 35
vertex 19.142135623730947 9.14213562373095 35
endloop
endfacet
facet normal 0 0 1
outer loop
vertex 15.311432711645006 9.192469558463374 35
vertex 19.142135623730947 9.14213562373095 35
vertex 19.083202158088753 9.192469558463374 35
endloop
endfacet
facet normal 0 0 1
outer loop
vertex -10.626068681329908 7.404673247101158 35
vertex -11.180339887498949 6.75570504584946 35
vertex -12.065391112188077 5.311432711645105 35
endloop
endfacet
facet normal 0 0 1
outer loop
vertex -10.626068681329908 7.404673247101158 35
vertex -12.065391112188077 5.311432711645105 35
vertex -9.192469558463356 5.311432711645105 35
endloop
endfacet
facet normal 0 0 1
outer loop
vertex -10.626068681329908 7.404673247101158 35
vertex -9.192469558463356 5.311432711645105 35
vertex -7.404673247101139 7.404673247101158 35
endloop
endfacet
facet normal 0 0 1
outer loop
vertex 17.404673247101183 7.404673247101158 35
vertex 19.192469558463333 5.311432711645105 35
vertex 22.065391112188077 5.311432711645105 35
endloop
endfacet
facet normal 0 0 1
outer loop
vertex 17.404673247101183 7.404673247101158 35
vertex 22.065391112188077 5.311432711645105 35
vertex 21.180339887498945 6.75570504584946 35
endloop
endfacet
facet normal 0 0 1
outer loop
vertex 17.404673247101183 7.404673247101158 35
vertex 21.180339887498945 6.75570504584946 35
vertex 20.626068681329908 7.404673247101158 35
endloop
endfacet
facet normal 0 0 1
outer loop
vertex -12.065391112188077 5.311432711645105 35
vertex -12.820130483767358 4.079809994790933 35
vertex -13.282193795411244 2.9642904811451727 35
endloop
endfacet
facet normal 0 0 1
outer loop
vertex -12.065391112188077 5.311432711645105 35
vertex -13.282193795411244 2.9642904811451727 35
vertex -10.630800167190234 2.9642904811451727 35
endloop
endfacet
facet normal 0 0 1
outer loop
vertex -12.065391112188077 5.311432711645105 35
vertex -10.630800167190234 2.9642904811451727 35
vertex -9.192469558463356 5.311432711645105 35
endloop
endfacet
facet normal 0 0 1
outer loop
vertex 19.192469558463333 5.311432711645105 35
vertex 20.630800167190262 2.9642904811451727 35
vertex 23.28219379541127 2.9642904811451727 35
endloop
endfacet
facet normal 0 0 1
outer loop
vertex 19.192469558463333 5.311432711645105 35
vertex 23.28219379541127 2.9642904811451727 35
vertex 22.820130483767358 4.079809994790933 35
endloop
endfacet
facet normal 0 0 1
outer loop
vertex 19.192469558463333 5.311432711645105 35
vertex 22.820130483767358 4.079809994790933 35
vertex 22.065391112188077 5.311432711645105 35
endloop
endfacet
facet normal 0 0 1
outer loop
vertex -13.282193795411244 2.9642904811451727 35
vertex -14.021130325903076 1.1803398874989526 35
vertex -14.203421863697393 0.4210409870348433 35
endloop
endfacet
facet normal 0 0 1
outer loop
vertex -13.282193795411244 2.9642904811451727 35
vertex -14.203421863697393 0.4210409870348433 35
vertex -11.684248600149248 0.4210409870348433 35
endloop
endfacet
facet normal 0 0 1
outer loop
vertex -13.282193795411244 2.9642904811451727 35
vertex -11.684248600149248 0.4210409870348433 35
vertex -10.630800167190234 2.9642904811451727 35
endloop
endfacet
facet normal 0 0 1
outer loop
vertex 20.630800167190262 2.9642904811451727 35
vertex 21.684248600149218 0.4210409870348433 35
vertex 24.20342186369739 0.4210409870348433 35
endloop
endfacet
facet normal 0 0 1
outer loop
vertex 20.630800167190262 2.9642904811451727 35
vertex 24.20342186369739 0.4210409870348433 35
vertex 24.02113032590307 1.1803398874989526 35
endloop
endfacet
facet normal 0 0 1
outer loop
vertex 20.630800167190262 2.9642904811451727 35
vertex 24.02113032590307 1.1803398874989526 35
vertex 23.28219379541127 2.9642904811451727 35
endloop
endfacet
facet normal 0 0 1
outer loop
vertex -14.203421863697393 0.4210409870348433 35
vertex -14.753766811902757 -1.8713106991953774 35
vertex -14.784018317868988 -2.2556925275799182 35
endloop
endfacet
facet normal 0 0 1
outer loop
vertex -14.203421863697393 0.4210409870348433 35
vertex -14.784018317868988 -2.2556925275799182 35
vertex -12.326875460726118 -2.2556925275799182 35
endloop
endfacet
facet normal 0 0 1
outer loop
vertex -14.203421863697393 0.4210409870348433 35
vertex -12.326875460726118 -2.2556925275799182 35
vertex -11.684248600149248 0.4210409870348433 35
endloop
endfacet
facet normal 0 0 1
outer loop
vertex 21.684248600149218 0.4210409870348433 35
vertex 22.32687546072612 -2.2556925275799182 35
vertex 24.784018317868984 -2.2556925275799182 35
endloop
endfacet
facet normal 0 0 1
outer loop
vertex 21.684248600149218 0.4210409870348433 35
vertex 24.784018317868984 -2.2556925275799182 35
vertex 24.753766811902754 -1.8713106991953774 35
endloop
endfacet
facet normal 0 0 1
outer loop
vertex 21.684248600149218 0.4210409870348433 35
vertex 24.753766811902754 -1.8713106991953774 35
vertex 24.20342186369739 0.4210409870348433 35
endloop
endfacet
facet normal 0 0 1
outer loop
vertex -14.784018317868988 -2.2556925275799182 35
vertex -15 -4.999999999999995 35
vertex -12.54285714285713 -4.999999999999995 35
endloop
endfacet
facet normal 0 0 1
outer loop
vertex -14.784018317868988 -2.2556925275799182 35
vertex -12.54285714285713 -4.999999999999995 35
vertex -12.326875460726118 -2.2556925275799182 35
endloop
endfacet
facet normal 0 0 1
outer loop
vertex 22.32687546072612 -2.2556925275799182 35
vertex 22.542857142857166 -4.999999999999995 35
vertex 25 -4.999999999999995 35
endloop
endfacet
facet normal 0 0 1
outer loop
vertex 22.32687546072612 -2.2556925275799182 35
vertex 25 -4.999999999999995 35
vertex 24.784018317868984 -2.2556925275799182 35
endloop
endfacet
facet normal 0 0 1
outer loop
vertex -15 -4.999999999999995 35
vertex -14.784018317868997 -7.744307472419929 35
vertex -12.326875460726113 -7.744307472419929 35
endloop
endfacet
facet normal 0 0 1
outer loop
vertex -15 -4.999999999999995 35
vertex -12.326875460726113 -7.744307472419929 35
vertex -12.54285714285713 -4.999999999999995 35
endloop
endfacet
facet normal 0 0 1
outer loop
vertex 22.542857142857166 -4.999999999999995 35
vertex 22.32687546072616 -7.744307472419929 35
vertex 24.784018317869 -7.744307472419929 35
endloop
endfacet
facet normal 0 0 1
outer loop
vertex 22.542857142857166 -4.999999999999995 35
vertex 24.784018317869 -7.744307472419929 35
vertex 25 -4.999999999999995 35
endloop
endfacet
facet normal 0 0 1
outer loop
vertex -14.784018317868997 -7.744307472419929 35
vertex -14.753766811902754 -8.128689300804616 35
vertex -14.203421863697407 -10.421040987034768 35
endloop
endfacet
facet normal 0 0 1
outer loop
vertex -14.784018317868997 -7.744307472419929 35
vertex -14.203421863697407 -10.421040987034768 35
vertex -11.68424860014926 -10.421040987034768 35
endloop
endfacet
facet normal 0 0 1
outer loop
vertex -14.784018317868997 -7.744307472419929 35
vertex -11.68424860014926 -10.421040987034768 35
vertex -12.326875460726113 -7.744307472419929 35
endloop
endfacet
facet normal 0 0 1
outer loop
vertex 22.32687546072616 -7.744307472419929 35
vertex 21.684248600149267 -10.421040987034768 35
vertex 24.203421863697407 -10.421040987034768 35
endloop
endfacet
facet normal 0 0 1
outer loop
vertex 22.32687546072616 -7.744307472419929 35
vertex 24.203421863697407 -10.421040987034768 35
vertex 24.753766811902757 -8.128689300804616 35
endloop
endfacet
facet normal 0 0 1
outer loop
vertex 22.32687546072616 -7.744307472419929 35
vertex 24.753766811902757 -8.128689300804616 35
vertex 24.784018317869 -7.744307472419929 35
endloop
endfacet
facet normal 0 0 1
outer loop
vertex -14.203421863697407 -10.421040987034768 35
vertex -14.02113032590307 -11.180339887498949 35
vertex -13.282193795411283 -12.964290481145143 35
endloop
endfacet
facet normal 0 0 1
outer loop
vertex -14.203421863697407 -10.421040987034768 35
vertex -13.282193795411283 -12.964290481145143 35
vertex -10.630800167190237 -12.964290481145143 35
endloop
endfacet
facet normal 0 0 1
outer loop
vertex -14.203421863697407 -10.421040987034768 35
vertex -10.630800167190237 -12.964290481145143 35
vertex -11.68424860014926 -10.421040987034768 35
endloop
endfacet
facet normal 0 0 1
outer loop
vertex 21.684248600149267 -10.421040987034768 35
vertex 20.63080016719024 -12.964290481145143 35
vertex 23.28219379541128 -12.964290481145143 35
endloop
endfacet
facet normal 0 0 1
outer loop
vertex 21.684248600149267 -10.421040987034768 35
vertex 23.28219379541128 -12.964290481145143 35
vertex 24.02113032590307 -11.180339887498949 35
endloop
endfacet
facet normal 0 0 1
outer loop
vertex 21.684248600149267 -10.421040987034768 35
vertex 24.02113032590307 -11.180339887498949 35
vertex 24.203421863697407 -10.421040987034768 35
endloop
endfacet
facet normal 0 0 1
outer loop
vertex -13.282193795411283 -12.964290481145143 35
vertex -12.820130483767358 -14.079809994790935 35
vertex -12.065391112188058 -15.31143271164514 35
endloop
endfacet
facet normal 0 0 1
outer loop
vertex -13.282193795411283 -12.964290481145143 35
vertex -12.065391112188058 -15.31143271164514 35
vertex -9.192469558463358 -15.31143271164514 35
endloop
endfacet
facet normal 0 0 1
outer loop
vertex -13.282193795411283 -12.964290481145143 35
vertex -9.192469558463358 -15.31143271164514 35
vertex -10.630800167190237 -12.964290481145143 35
endloop
endfacet
facet normal 0 0 1
outer loop
vertex 20.63080016719024 -12.964290481145143 35
vertex 19.192469558463326 -15.31143271164514 35
vertex 22.06539111218806 -15.31143271164514 35
endloop
endfacet
facet normal 0 0 1
outer loop
vertex 20.63080016719024 -12.964290481145143 35
vertex 22.06539111218806 -15.31143271164514 35
vertex 22.820130483767358 -14.079809994790935 35
endloop
endfacet
facet normal 0 0 1
outer loop
vertex 20.63080016719024 -12.964290481145143 35
vertex 22.820130483767358 -14.079809994790935 35
vertex 23.28219379541128 -12.964290481145143 35
endloop
endfacet
facet normal 0 0 1
outer loop
vertex -12.065391112188058 -15.31143271164514 35
vertex -11.180339887498949 -16.755705045849464 35
vertex -10.626068681329922 -17.404673247101144 35
endloop
endfacet
facet normal 0 0 1
outer loop
vertex -12.065391112188058 -15.31143271164514 35
vertex -10.626068681329922 -17.404673247101144 35
vertex -7.404673247101117 -17.404673247101144 35
endloop
endfacet
facet normal 0 0 1
outer loop
vertex -12.065391112188058 -15.31143271164514 35
vertex -7.404673247101117 -17.404673247101144 35
vertex -9.192469558463358 -15.31143271164514 35
endloop
endfacet
facet normal 0 0 1
outer loop
vertex 19.192469558463326 -15.31143271164514 35
vertex 17.404673247101147 -17.404673247101144 35
vertex 20.626068681329922 -17.404673247101144 35
endloop
endfacet
facet normal 0 0 1
outer loop
vertex 19.192469558463326 -15.31143271164514 35
vertex 20.626068681329922 -17.404673247101144 35
vertex 21.18033988749895 -16.755705045849464 35
endloop
endfacet
facet normal 0 0 1
outer loop
vertex 19.192469558463326 -15.31143271164514 35
vertex 21.18033988749895 -16.755705045849464 35
vertex 22.06539111218806 -15.31143271164514 35
endloop
endfacet
facet normal 0 0 1
outer loop
vertex -10.626068681329922 -17.404673247101144 35
vertex -9.14213562373095 -19.14213562373095 35
vertex -9.083202158088765 -19.192469558463365 35
endloop
endfacet
facet normal 0 0 1
outer loop
vertex -10.626068681329922 -17.404673247101144 35
vertex -9.083202158088765 -19.192469558463365 35
vertex -5.311432711645148 -19.192469558463365 35
endloop
endfacet
facet normal 0 0 1
outer loop
vertex -10.626068681329922 -17.404673247101144 35
vertex -5.311432711645148 -19.192469558463365 35
vertex -7.404673247101117 -17.404673247101144 35
endloop
endfacet
facet normal 0 0 1
outer loop
vertex 17.404673247101147 -17.404673247101144 35
vertex 15.311432711645091 -19.192469558463365 35
vertex 19.083202158088767 -19.192469558463365 35
endloop
endfacet
facet normal 0 0 1
outer loop
vertex 17.404673247101147 -17.404673247101144 35
vertex 19.083202158088767 -19.192469558463365 35
vertex 19.14213562373095 -19.14213562373095 35
endloop
endfacet
facet normal 0 0 1
outer loop
vertex 17.404673247101147 -17.404673247101144 35
vertex 19.14213562373095 -19.14213562373095 35
vertex 20.626068681329922 -17.404673247101144 35
endloop
endfacet
facet normal 0 0 1
outer loop
vertex -9.083202158088765 -19.192469558463365 35
vertex -7.399133388934533 -20.630800167190227 35
vertex -2.964290481145154 -20.630800167190227 35
endloop
endfacet
facet normal 0 0 1
outer loop
vertex -9.083202158088765 -19.192469558463365 35
vertex -2.964290481145154 -20.630800167190227 35
vertex -5.311432711645148 -19.192469558463365 35
endloop
endfacet
facet normal 0 0 1
outer loop
vertex 15.311432711645091 -19.192469558463365 35
vertex 12.964290481145184 -20.630800167190227 35
vertex 17.399133388934537 -20.630800167190227 35
endloop
endfacet
facet normal 0 0 1
outer loop
vertex 15.311432711645091 -19.192469558463365 35
vertex 17.399133388934537 -20.630800167190227 35
vertex 19.083202158088767 -19.192469558463365 35
endloop
endfacet
facet normal 0 0 1
outer loop
vertex -7.399133388934533 -20.630800167190227 35
vertex -6.75570504584946 -21.18033988749895 35
vertex -5.933400762952145 -21.684248600149267 35
endloop
endfacet
facet normal 0 0 1
outer loop
vertex -7.399133388934533 -20.630800167190227 35
vertex -5.933400762952145 -21.684248600149267 35
vertex -0.42104098703475223 -21.684248600149267 35
endloop
endfacet
facet normal 0 0 1
outer loop
vertex -7.399133388934533 -20.630800167190227 35
vertex -0.42104098703475223 -21.684248600149267 35
vertex -2.964290481145154 -20.630800167190227 35
endloop
endfacet
facet normal 0 0 1
outer loop
vertex 12.964290481145184 -20.630800167190227 35
vertex 10.42104098703477 -21.684248600149267 35
vertex 15.933400762952145 -21.684248600149267 35
endloop
endfacet
facet normal 0 0 1
outer loop
vertex 12.964290481145184 -20.630800167190227 35
vertex 15.933400762952145 -21.684248600149267 35
vertex 16.755705045849464 -21.18033988749895 35
endloop
endfacet
facet normal 0 0 1
outer loop
vertex 12.964290481145184 -20.630800167190227 35
vertex 16.755705045849464 -21.18033988749895 35
vertex 17.399133388934537 -20.630800167190227 35
endloop
endfacet
facet normal 0 0 1
outer loop
vertex -5.933400762952145 -21.684248600149267 35
vertex -4.884729036325434 -22.32687546072618 35
vertex 2.2556925275801216 -22.32687546072618 35
endloop
endfacet
facet normal 0 0 1
outer loop
vertex -5.933400762952145 -21.684248600149267 35
vertex 2.2556925275801216 -22.32687546072618 35
vertex -0.42104098703475223 -21.684248600149267 35
endloop
endfacet
facet normal 0 0 1
outer loop
vertex 10.42104098703477 -21.684248600149267 35
vertex 7.744307472419861 -22.32687546072618 35
vertex 14.884729036325435 -22.32687546072618 35
endloop
endfacet
facet normal 0 0 1
outer loop
vertex 10.42104098703477 -21.684248600149267 35
vertex 14.884729036325435 -22.32687546072618 35
vertex 15.933400762952145 -21.684248600149267 35
endloop
endfacet
facet normal 0 0 1
outer loop
vertex -4.884729036325434 -22.32687546072618 35
vertex -4.532278963951057 -22.542857142857173 35
vertex 4.999999999999988 -22.542857142857173 35
endloop
endfacet
facet normal 0 0 1
outer loop
vertex -4.884729036325434 -22.32687546072618 35
vertex 4.999999999999988 -22.542857142857173 35
vertex 2.2556925275801216 -22.32687546072618 35
endloop
endfacet
facet normal 0 0 1
outer loop
vertex 7.744307472419861 -22.32687546072618 35
vertex 4.999999999999988 -22.542857142857173 35
vertex 14.532278963951057 -22.542857142857173 35
endloop
endfacet
facet normal 0 0 1
outer loop
vertex 7.744307472419861 -22.32687546072618 35
vertex 14.532278963951057 -22.542857142857173 35
vertex 14.884729036325435 -22.32687546072618 35
endloop
endfacet
facet normal 0 0 1
outer loop
vertex -4.532278963951057 -22.542857142857173 35
vertex -4.079809994790935 -22.820130483767358 35
vertex -1.1803398874989472 -24.02113032590307 35
endloop
endfacet
facet normal 0 0 1
outer loop
vertex -4.532278963951057 -22.542857142857173 35
vertex -1.1803398874989472 -24.02113032590307 35
vertex 1.871310699195388 -24.753766811902757 35
endloop
endfacet
facet normal 0 0 1
outer loop
vertex -4.532278963951057 -22.542857142857173 35
vertex 1.871310699195388 -24.753766811902757 35
vertex 5.000000000000001 -25 35
endloop
endfacet
facet normal 0 0 1
outer loop
vertex -4.532278963951057 -22.542857142857173 35
vertex 5.000000000000001 -25 35
vertex 8.128689300804618 -24.753766811902757 35
endloop
endfacet
facet normal 0 0 1
outer loop
vertex -4.532278963951057 -22.542857142857173 35
vertex 8.128689300804618 -24.753766811902757 35
vertex 11.180339887498949 -24.02113032590307 35
endloop
endfacet
facet normal 0 0 1
outer loop
vertex -4.532278963951057 -22.542857142857173 35
vertex 11.180339887498949 -24.02113032590307 35
vertex 14.079809994790937 -22.820130483767358 35
endloop
endfacet
facet normal 0 0 1
outer loop
vertex -4.532278963951057 -22.542857142857173 35
vertex 14.079809994790937 -22.820130483767358 35
vertex 14.532278963951057 -22.542857142857173 35
endloop
endfacet
facet normal 0 0 -1
outer loop
vertex 17 -4.999999999999997 0
vertex 16.85226008714165 -6.8772135804827705 0
vertex 16.412678195541844 -8.70820393249937 0
endloop
endfacet
facet normal 0 0 -1
outer loop
vertex 17 -4.999999999999997 0
vertex 16.412678195541844 -8.70820393249937 0
vertex 15.692078290260415 -10.447885996874561 0
endloop
endfacet
facet normal 0 0 -1
outer loop
vertex 17 -4.999999999999997 0
vertex 15.692078290260415 -10.447885996874561 0
vertex 14.70820393249937 -12.053423027509677 0
endloop
endfacet
facet normal 0 0 -1
outer loop
vertex 17 -4.999999999999997 0
vertex 14.70820393249937 -12.053423027509677 0
vertex 13.485281374238571 -13.48528137423857 0
endloop
endfacet
facet normal 0 0 -1
outer loop
vertex 17 -4.999999999999997 0
vertex 13.485281374238571 -13.48528137423857 0
vertex 12.053423027509677 -14.70820393249937 0
endloop
endfacet
facet normal 0 0 -1
outer loop
vertex 17 -4.999999999999997 0
vertex 12.053423027509677 -14.70820393249937 0
vertex 10.447885996874563 -15.692078290260413 0
endloop
endfacet
facet normal 0 0 -1
outer loop
vertex 17 -4.999999999999997 0
vertex 10.447885996874563 -15.692078290260413 0
vertex 8.70820393249937 -16.412678195541844 0
endloop
endfacet
facet normal 0 0 -1
outer loop
vertex 17 -4.999999999999997 0
vertex 8.70820393249937 -16.412678195541844 0
vertex 6.8772135804827705 -16.85226008714165 0
endloop
endfacet
facet normal 0 0 -1
outer loop
vertex 17 -4.999999999999997 0
vertex 6.8772135804827705 -16.85226008714165 0
vertex 5.000000000000001 -17 0
endloop
endfacet
facet normal 0 0 -1
outer loop
vertex 17 -4.999999999999997 0
vertex 5.000000000000001 -17 0
vertex 3.122786419517233 -16.85226008714165 0
endloop
endfacet
facet normal 0 0 -1
outer loop
vertex 17 -4.999999999999997 0
vertex 3.122786419517233 -16.85226008714165 0
vertex 1.291796067500632 -16.412678195541844 0
endloop
endfacet
facet normal 0 0 -1
outer loop
vertex 17 -4.999999999999997 0
vertex 1.291796067500632 -16.412678195541844 0
vertex -0.447885996874561 -15.692078290260415 0
endloop
endfacet
facet normal 0 0 -1
outer loop
vertex 17 -4.999999999999997 0
vertex -0.447885996874561 -15.692078290260415 0
vertex -2.0534230275096768 -14.70820393249937 0
endloop
endfacet
facet normal 0 0 -1
outer loop
vertex 17 -4.999999999999997 0
vertex -2.0534230275096768 -14.70820393249937 0
vertex -3.4852813742385695 -13.485281374238571 0
endloop
endfacet
facet normal 0 0 -1
outer loop
vertex 17 -4.999999999999997 0
vertex -3.4852813742385695 -13.485281374238571 0
vertex -4.708203932499369 -12.053423027509679 0
endloop
endfacet
facet normal 0 0 -1
outer loop
vertex 17 -4.999999999999997 0
vertex -4.708203932499369 -12.053423027509679 0
vertex -5.6920782902604135 -10.447885996874563 0
endloop
endfacet
facet normal 0 0 -1
outer loop
vertex 17 -4.999999999999997 0
vertex -5.6920782902604135 -10.447885996874563 0
vertex -6.412678195541842 -8.70820393249937 0
endloop
endfacet
facet normal 0 0 -1
outer loop
vertex 17 -4.999999999999997 0
vertex -6.412678195541842 -8.70820393249937 0
vertex -6.8522600871416515 -6.877213580482772 0
endloop
endfacet
facet normal 0 0 -1
outer loop
vertex 17 -4.999999999999997 0
vertex -6.8522600871416515 -6.877213580482772 0
vertex -7 -5.000000000000002 0
endloop
endfacet
facet normal 0 0 -1
outer loop
vertex 17 -4.999999999999997 0
vertex -7 -5.000000000000002 0
vertex -6.852260087141653 -3.1227864195172312 0
endloop
endfacet
facet normal 0 0 -1
outer loop
vertex 17 -4.999999999999997 0
vertex -6.852260087141653 -3.1227864195172312 0
vertex -6.4126781955418455 -1.2917960675006372 0
endloop
endfacet
facet normal 0 0 -1
outer loop
vertex 17 -4.999999999999997 0
vertex -6.4126781955418455 -1.2917960675006372 0
vertex -5.692078290260415 0.4478859968745601 0
endloop
endfacet
facet normal 0 0 -1
outer loop
vertex 17 -4.999999999999997 0
vertex -5.692078290260415 0.4478859968745601 0
vertex -4.708203932499369 2.0534230275096768 0
endloop
endfacet
facet normal 0 0 -1
outer loop
vertex 17 -4.999999999999997 0
vertex -4.708203932499369 2.0534230275096768 0
vertex -3.4852813742385713 3.4852813742385695 0
endloop
endfacet
facet normal 0 0 -1
outer loop
vertex 17 -4.999999999999997 0
vertex -3.4852813742385713 3.4852813742385695 0
vertex -2.0534230275096785 4.708203932499368 0
endloop
endfacet
facet normal 0 0 -1
outer loop
vertex 17 -4.999999999999997 0
vertex -2.0534230275096785 4.708203932499368 0
vertex -0.44788599687456276 5.6920782902604135 0
endloop
endfacet
facet normal 0 0 -1
outer loop
vertex 17 -4.999999999999997 0
vertex -0.44788599687456276 5.6920782902604135 0
vertex 1.2917960675006293 6.412678195541842 0
endloop
endfacet
facet normal 0 0 -1
outer loop
vertex 17 -4.999999999999997 0
vertex 1.2917960675006293 6.412678195541842 0
vertex 3.1227864195172277 6.8522600871416515 0
endloop
endfacet
facet normal 0 0 -1
outer loop
vertex 17 -4.999999999999997 0
vertex 3.1227864195172277 6.8522600871416515 0
vertex 4.999999999999998 7 0
endloop
endfacet
facet normal 0 0 -1
outer loop
vertex 17 -4.999999999999997 0
vertex 4.999999999999998 7 0
vertex 6.877213580482768 6.852260087141653 0
endloop
endfacet
facet normal 0 0 -1
outer loop
vertex 17 -4.999999999999997 0
vertex 6.877213580482768 6.852260087141653 0
vertex 8.708203932499366 6.412678195541844 0
endloop
endfacet
facet normal 0 0 -1
outer loop
vertex 17 -4.999999999999997 0
vertex 8.708203932499366 6.412678195541844 0
vertex 10.44788599687456 5.692078290260415 0
endloop
endfacet
facet normal 0 0 -1
outer loop
vertex 17 -4.999999999999997 0
vertex 10.44788599687456 5.692078290260415 0
vertex 12.053423027509675 4.708203932499371 0
endloop
endfacet
facet normal 0 0 -1
outer loop
vertex 17 -4.999999999999997 0
vertex 12.053423027509675 4.708203932499371 0
vertex 13.485281374238568 3.4852813742385713 0
endloop
endfacet
facet normal 0 0 -1
outer loop
vertex 17 -4.999999999999997 0
vertex 13.485281374238568 3.4852813742385713 0
vertex 14.708203932499366 2.0534230275096803 0
endloop
endfacet
facet normal 0 0 -1
outer loop
vertex 17 -4.999999999999997 0
vertex 14.708203932499366 2.0534230275096803 0
vertex 15.692078290260413 0.44788599687456365 0
endloop
endfacet
facet normal 0 0 -1
outer loop
vertex 17 -4.999999999999997 0
vertex 15.692078290260413 0.44788599687456365 0
vertex 16.412678195541844 -1.2917960675006288 0
endloop
endfacet
facet normal 0 0 -1
outer loop
vertex 17 -4.999999999999997 0
vertex 16.412678195541844 -1.2917960675006288 0
vertex 16.85226008714165 -3.122786419517227 0
endloop
endfacet
facet normal 0 0 -1
outer loop
vertex 17 -4.999999999999997 0
vertex 16.85226008714165 -3.122786419517227 0
vertex 17 -4.999999999999997 0
endloop
endfacet
facet normal 0.9720018970048011 -0.076498208331045 -0.2221718621725266
outer loop
vertex 16.85226008714165 -6.8772135804827705 0
vertex 17 -4.999999999999997 0
vertex 25 -4.999999999999995 35
endloop
endfacet
facet normal 0.9720018970048011 -0.076498208331045 -0.2221718621725266
outer loop
vertex 16.85226008714165 -6.8772135804827705 0
vertex 25 -4.999999999999995 35
vertex 24.753766811902757 -8.128689300804616 35
endloop
endfacet
facet normal 0.9480679844111944 -0.22761098522102677 -0.22217186217252752
outer loop
vertex 24.02113032590307 -11.180339887498949 35
vertex 16.412678195541844 -8.70820393249937 0
vertex 16.85226008714165 -6.8772135804827705 0
endloop
endfacet
facet normal 0.9480679844111944 -0.22761098522102677 -0.22217186217252752
outer loop
vertex 24.02113032590307 -11.180339887498949 35
vertex 16.85226008714165 -6.8772135804827705 0
vertex 24.753766811902757 -8.128689300804616 35
endloop
endfacet
facet normal 0.9007894915841388 -0.37311922425731564 -0.22217186217252582
outer loop
vertex 22.820130483767358 -14.079809994790935 35
vertex 15.692078290260415 -10.447885996874561 0
vertex 16.412678195541844 -8.70820393249937 0
endloop
endfacet
facet normal 0.9007894915841388 -0.37311922425731564 -0.22217186217252582
outer loop
vertex 22.820130483767358 -14.079809994790935 35
vertex 16.412678195541844 -8.70820393249937 0
vertex 24.02113032590307 -11.180339887498949 35
endloop
endfacet
facet normal 0.8313305719253569 -0.5094400296806793 -0.2221718621725259
outer loop
vertex 21.18033988749895 -16.755705045849464 35
vertex 14.70820393249937 -12.053423027509677 0
vertex 15.692078290260415 -10.447885996874561 0
endloop
endfacet
facet normal 0.8313305719253569 -0.5094400296806793 -0.2221718621725259
outer loop
vertex 21.18033988749895 -16.755705045849464 35
vertex 15.692078290260415 -10.447885996874561 0
vertex 22.820130483767358 -14.079809994790935 35
endloop
endfacet
facet normal 0.7414015345577868 -0.6332167308387793 -0.22217186217252596
outer loop
vertex 19.14213562373095 -19.14213562373095 35
vertex 13.485281374238571 -13.48528137423857 0
vertex 14.70820393249937 -12.053423027509677 0
endloop
endfacet
facet normal 0.7414015345577868 -0.6332167308387793 -0.22217186217252596
outer loop
vertex 19.14213562373095 -19.14213562373095 35
vertex 14.70820393249937 -12.053423027509677 0
vertex 21.18033988749895 -16.755705045849464 35
endloop
endfacet
facet normal 0.6332167308387804 -0.741401534557786 -0.22217186217252596
outer loop
vertex 16.755705045849464 -21.18033988749895 35
vertex 12.053423027509677 -14.70820393249937 0
vertex 13.485281374238571 -13.48528137423857 0
endloop
endfacet
facet normal 0.6332167308387804 -0.741401534557786 -0.22217186217252596
outer loop
vertex 16.755705045849464 -21.18033988749895 35
vertex 13.485281374238571 -13.48528137423857 0
vertex 19.14213562373095 -19.14213562373095 35
endloop
endfacet
facet normal 0.5094400296806793 -0.8313305719253569 -0.22217186217252569
outer loop
vertex 14.079809994790937 -22.820130483767358 35
vertex 10.447885996874563 -15.692078290260413 0
vertex 12.053423027509677 -14.70820393249937 0
endloop
endfacet
facet normal 0.5094400296806793 -0.8313305719253569 -0.22217186217252569
outer loop
vertex 14.079809994790937 -22.820130483767358 35
vertex 12.053423027509677 -14.70820393249937 0
vertex 16.755705045849464 -21.18033988749895 35
endloop
endfacet
facet normal 0.37311922425731564 -0.9007894915841388 -0.22217186217252582
outer loop
vertex 11.180339887498949 -24.02113032590307 35
vertex 8.70820393249937 -16.412678195541844 0
vertex 10.447885996874563 -15.692078290260413 0
endloop
endfacet
facet normal 0.37311922425731564 -0.9007894915841388 -0.22217186217252582
outer loop
vertex 11.180339887498949 -24.02113032590307 35
vertex 10.447885996874563 -15.692078290260413 0
vertex 14.079809994790937 -22.820130483767358 35
endloop
endfacet
facet normal 0.22761098522102657 -0.9480679844111946 -0.22217186217252755
outer loop
vertex 8.128689300804618 -24.753766811902757 35
vertex 6.8772135804827705 -16.85226008714165 0
vertex 8.70820393249937 -16.412678195541844 0
endloop
endfacet
facet normal 0.22761098522102657 -0.9480679844111946 -0.22217186217252755
outer loop
vertex 8.128689300804618 -24.753766811902757 35
vertex 8.70820393249937 -16.412678195541844 0
vertex 11.180339887498949 -24.02113032590307 35
endloop
endfacet
facet normal 0.07649820833104498 -0.9720018970048011 -0.22217186217252657
outer loop
vertex 5.000000000000001 -25 35
vertex 5.000000000000001 -17 0
vertex 6.8772135804827705 -16.85226008714165 0
endloop
endfacet
facet normal 0.07649820833104498 -0.9720018970048011 -0.22217186217252657
outer loop
vertex 5.000000000000001 -25 35
vertex 6.8772135804827705 -16.85226008714165 0
vertex 8.128689300804618 -24.753766811902757 35
endloop
endfacet
facet normal -0.07649820833104501 -0.972001897004801 -0.22217186217252666
outer loop
vertex 5.000000000000001 -25 35
vertex 1.871310699195388 -24.753766811902757 35
vertex 3.122786419517233 -16.85226008714165 0
endloop
endfacet
facet normal -0.07649820833104501 -0.972001897004801 -0.22217186217252666
outer loop
vertex 5.000000000000001 -25 35
vertex 3.122786419517233 -16.85226008714165 0
vertex 5.000000000000001 -17 0
endloop
endfacet
facet normal -0.22761098522102508 -0.9480679844111952 -0.22217186217252594
outer loop
vertex -1.1803398874989472 -24.02113032590307 35
vertex 1.291796067500632 -16.412678195541844 0
vertex 3.122786419517233 -16.85226008714165 0
endloop
endfacet
facet normal -0.22761098522102508 -0.9480679844111952 -0.22217186217252594
outer loop
vertex -1.1803398874989472 -24.02113032590307 35
vertex 3.122786419517233 -16.85226008714165 0
vertex 1.871310699195388 -24.753766811902757 35
endloop
endfacet
facet normal -0.3731192242573156 -0.9007894915841387 -0.222171862172526
outer loop
vertex -4.079809994790935 -22.820130483767358 35
vertex -0.447885996874561 -15.692078290260415 0
vertex 1.291796067500632 -16.412678195541844 0
endloop
endfacet
facet normal -0.3731192242573156 -0.9007894915841387 -0.222171862172526
outer loop
vertex -4.079809994790935 -22.820130483767358 35
vertex 1.291796067500632 -16.412678195541844 0
vertex -1.1803398874989472 -24.02113032590307 35
endloop
endfacet
facet normal -0.5094400296806791 -0.8313305719253569 -0.22217186217252577
outer loop
vertex -6.75570504584946 -21.18033988749895 35
vertex -2.0534230275096768 -14.70820393249937 0
vertex -0.447885996874561 -15.692078290260415 0
endloop
endfacet
facet normal -0.5094400296806791 -0.8313305719253569 -0.22217186217252577
outer loop
vertex -6.75570504584946 -21.18033988749895 35
vertex -0.447885996874561 -15.692078290260415 0
vertex -4.079809994790935 -22.820130483767358 35
endloop
endfacet
facet normal -0.6332167308387793 -0.7414015345577868 -0.22217186217252574
outer loop
vertex -9.14213562373095 -19.14213562373095 35
vertex -3.4852813742385695 -13.485281374238571 0
vertex -2.0534230275096768 -14.70820393249937 0
endloop
endfacet
facet normal -0.6332167308387793 -0.7414015345577868 -0.22217186217252574
outer loop
vertex -9.14213562373095 -19.14213562373095 35
vertex -2.0534230275096768 -14.70820393249937 0
vertex -6.75570504584946 -21.18033988749895 35
endloop
endfacet
facet normal -0.7414015345577859 -0.6332167308387803 -0.22217186217252582
outer loop
vertex -11.180339887498949 -16.755705045849464 35
vertex -4.708203932499369 -12.053423027509679 0
vertex -3.4852813742385695 -13.485281374238571 0
endloop
endfacet
facet normal -0.7414015345577859 -0.6332167308387803 -0.22217186217252582
outer loop
vertex -11.180339887498949 -16.755705045849464 35
vertex -3.4852813742385695 -13.485281374238571 0
vertex -9.14213562373095 -19.14213562373095 35
endloop
endfacet
facet normal -0.8313305719253571 -0.5094400296806788 -0.2221718621725258
outer loop
vertex -12.820130483767358 -14.079809994790935 35
vertex -5.6920782902604135 -10.447885996874563 0
vertex -4.708203932499369 -12.053423027509679 0
endloop
endfacet
facet normal -0.8313305719253571 -0.5094400296806788 -0.2221718621725258
outer loop
vertex -12.820130483767358 -14.079809994790935 35
vertex -4.708203932499369 -12.053423027509679 0
vertex -11.180339887498949 -16.755705045849464 35
endloop
endfacet
facet normal -0.900789491584139 -0.373119224257315 -0.22217186217252602
outer loop
vertex -14.02113032590307 -11.180339887498949 35
vertex -6.412678195541842 -8.70820393249937 0
vertex -5.6920782902604135 -10.447885996874563 0
endloop
endfacet
facet normal -0.900789491584139 -0.373119224257315 -0.22217186217252602
outer loop
vertex -14.02113032590307 -11.180339887498949 35
vertex -5.6920782902604135 -10.447885996874563 0
vertex -12.820130483767358 -14.079809994790935 35
endloop
endfacet
facet normal -0.9480679844111949 -0.22761098522102677 -0.22217186217252585
outer loop
vertex -14.753766811902754 -8.128689300804616 35
vertex -6.8522600871416515 -6.877213580482772 0
vertex -6.412678195541842 -8.70820393249937 0
endloop
endfacet
facet normal -0.9480679844111949 -0.22761098522102677 -0.22217186217252585
outer loop
vertex -14.753766811902754 -8.128689300804616 35
vertex -6.412678195541842 -8.70820393249937 0
vertex -14.02113032590307 -11.180339887498949 35
endloop
endfacet
facet normal -0.9720018970048013 -0.076498208331045 -0.22217186217252574
outer loop
vertex -15 -4.999999999999995 35
vertex -7 -5.000000000000002 0
vertex -6.8522600871416515 -6.877213580482772 0
endloop
endfacet
facet normal -0.9720018970048013 -0.076498208331045 -0.22217186217252574
outer loop
vertex -15 -4.999999999999995 35
vertex -6.8522600871416515 -6.877213580482772 0
vertex -14.753766811902754 -8.128689300804616 35
endloop
endfacet
facet normal -0.9720018970048012 0.076498208331045 -0.2221718621725258
outer loop
vertex -15 -4.999999999999995 35
vertex -14.753766811902757 -1.8713106991953774 35
vertex -6.852260087141653 -3.1227864195172312 0
endloop
endfacet
facet normal -0.9720018970048012 0.076498208331045 -0.2221718621725258
outer loop
vertex -15 -4.999999999999995 35
vertex -6.852260087141653 -3.1227864195172312 0
vertex -7 -5.000000000000002 0
endloop
endfacet
facet normal -0.9480679844111949 0.22761098522102685 -0.2221718621725259
outer loop
vertex -14.021130325903076 1.1803398874989526 35
vertex -6.4126781955418455 -1.2917960675006372 0
vertex -6.852260087141653 -3.1227864195172312 0
endloop
endfacet
facet normal -0.9480679844111949 0.22761098522102685 -0.2221718621725259
outer loop
vertex -14.021130325903076 1.1803398874989526 35
vertex -6.852260087141653 -3.1227864195172312 0
vertex -14.753766811902757 -1.8713106991953774 35
endloop
endfacet
facet normal -0.900789491584139 0.37311922425731486 -0.22217186217252585
outer loop
vertex -12.820130483767358 4.079809994790933 35
vertex -5.692078290260415 0.4478859968745601 0
vertex -6.4126781955418455 -1.2917960675006372 0
endloop
endfacet
facet normal -0.900789491584139 0.37311922425731486 -0.22217186217252585
outer loop
vertex -12.820130483767358 4.079809994790933 35
vertex -6.4126781955418455 -1.2917960675006372 0
vertex -14.021130325903076 1.1803398874989526 35
endloop
endfacet
facet normal -0.831330571925357 0.509440029680679 -0.2221718621725258
outer loop
vertex -11.180339887498949 6.75570504584946 35
vertex -4.708203932499369 2.0534230275096768 0
vertex -5.692078290260415 0.4478859968745601 0
endloop
endfacet
facet normal -0.831330571925357 0.509440029680679 -0.2221718621725258
outer loop
vertex -11.180339887498949 6.75570504584946 35
vertex -5.692078290260415 0.4478859968745601 0
vertex -12.820130483767358 4.079809994790933 35
endloop
endfacet
facet normal -0.7414015345577865 0.6332167308387796 -0.22217186217252577
outer loop
vertex -9.142135623730955 9.14213562373095 35
vertex -3.4852813742385713 3.4852813742385695 0
vertex -4.708203932499369 2.0534230275096768 0
endloop
endfacet
facet normal -0.7414015345577865 0.6332167308387796 -0.22217186217252577
outer loop
vertex -9.142135623730955 9.14213562373095 35
vertex -4.708203932499369 2.0534230275096768 0
vertex -11.180339887498949 6.75570504584946 35
endloop
endfacet
facet normal -0.63321673083878 0.7414015345577861 -0.22217186217252574
outer loop
vertex -6.755705045849465 11.180339887498945 35
vertex -2.0534230275096785 4.708203932499368 0
vertex -3.4852813742385713 3.4852813742385695 0
endloop
endfacet
facet normal -0.63321673083878 0.7414015345577861 -0.22217186217252574
outer loop
vertex -6.755705045849465 11.180339887498945 35
vertex -3.4852813742385713 3.4852813742385695 0
vertex -9.142135623730955 9.14213562373095 35
endloop
endfacet
facet normal -0.5094400296806794 0.8313305719253568 -0.22217186217252582
outer loop
vertex -4.0798099947909385 12.820130483767358 35
vertex -0.44788599687456276 5.6920782902604135 0
vertex -2.0534230275096785 4.708203932499368 0
endloop
endfacet
facet normal -0.5094400296806794 0.8313305719253568 -0.22217186217252582
outer loop
vertex -4.0798099947909385 12.820130483767358 35
vertex -2.0534230275096785 4.708203932499368 0
vertex -6.755705045849465 11.180339887498945 35
endloop
endfacet
facet normal -0.373119224257315 0.9007894915841391 -0.22217186217252594
outer loop
vertex -1.1803398874989508 14.02113032590307 35
vertex 1.2917960675006293 6.412678195541842 0
vertex -0.44788599687456276 5.6920782902604135 0
endloop
endfacet
facet normal -0.373119224257315 0.9007894915841391 -0.22217186217252594
outer loop
vertex -1.1803398874989508 14.02113032590307 35
vertex -0.44788599687456276 5.6920782902604135 0
vertex -4.0798099947909385 12.820130483767358 35
endloop
endfacet
facet normal -0.22761098522102682 0.9480679844111949 -0.2221718621725259
outer loop
vertex 1.8713106991953792 14.753766811902754 35
vertex 3.1227864195172277 6.8522600871416515 0
vertex 1.2917960675006293 6.412678195541842 0
endloop
endfacet
facet normal -0.22761098522102682 0.9480679844111949 -0.2221718621725259
outer loop
vertex 1.8713106991953792 14.753766811902754 35
vertex 1.2917960675006293 6.412678195541842 0
vertex -1.1803398874989508 14.02113032590307 35
endloop
endfacet
facet normal -0.076498208331045 0.9720018970048013 -0.22217186217252574
outer loop
vertex 3.1227864195172277 6.8522600871416515 0
vertex 1.8713106991953792 14.753766811902754 35
vertex 4.9999999999999964 15 35
endloop
endfacet
facet normal -0.076498208331045 0.9720018970048013 -0.22217186217252574
outer loop
vertex 3.1227864195172277 6.8522600871416515 0
vertex 4.9999999999999964 15 35
vertex 4.999999999999998 7 0
endloop
endfacet
facet normal 0.076498208331045 0.9720018970048013 -0.22217186217252574
outer loop
vertex 6.877213580482768 6.852260087141653 0
vertex 4.999999999999998 7 0
vertex 4.9999999999999964 15 35
endloop
endfacet
facet normal 0.076498208331045 0.9720018970048013 -0.22217186217252574
outer loop
vertex 6.877213580482768 6.852260087141653 0
vertex 4.9999999999999964 15 35
vertex 8.128689300804613 14.753766811902754 35
endloop
endfacet
facet normal 0.22761098522102688 0.9480679844111949 -0.22217186217252596
outer loop
vertex 11.180339887498945 14.02113032590307 35
vertex 8.708203932499366 6.412678195541844 0
vertex 6.877213580482768 6.852260087141653 0
endloop
endfacet
facet normal 0.22761098522102688 0.9480679844111949 -0.22217186217252596
outer loop
vertex 11.180339887498945 14.02113032590307 35
vertex 6.877213580482768 6.852260087141653 0
vertex 8.128689300804613 14.753766811902754 35
endloop
endfacet
facet normal 0.37311922425731425 0.9007894915841393 -0.2221718621725259
outer loop
vertex 14.079809994790933 12.820130483767358 35
vertex 10.44788599687456 5.692078290260415 0
vertex 8.708203932499366 6.412678195541844 0
endloop
endfacet
facet normal 0.37311922425731425 0.9007894915841393 -0.2221718621725259
outer loop
vertex 14.079809994790933 12.820130483767358 35
vertex 8.708203932499366 6.412678195541844 0
vertex 11.180339887498945 14.02113032590307 35
endloop
endfacet
facet normal 0.5094400296806788 0.8313305719253571 -0.2221718621725258
outer loop
vertex 16.75570504584946 11.180339887498945 35
vertex 12.053423027509675 4.708203932499371 0
vertex 10.44788599687456 5.692078290260415 0
endloop
endfacet
facet normal 0.5094400296806788 0.8313305719253571 -0.2221718621725258
outer loop
vertex 16.75570504584946 11.180339887498945 35
vertex 10.44788599687456 5.692078290260415 0
vertex 14.079809994790933 12.820130483767358 35
endloop
endfacet
facet normal 0.6332167308387804 0.741401534557786 -0.22217186217252596
outer loop
vertex 19.142135623730947 9.14213562373095 35
vertex 13.485281374238568 3.4852813742385713 0
vertex 12.053423027509675 4.708203932499371 0
endloop
endfacet
facet normal 0.6332167308387804 0.741401534557786 -0.22217186217252596
outer loop
vertex 19.142135623730947 9.14213562373095 35
vertex 12.053423027509675 4.708203932499371 0
vertex 16.75570504584946 11.180339887498945 35
endloop
endfacet
facet normal 0.7414015345577859 0.6332167308387803 -0.22217186217252582
outer loop
vertex 21.180339887498945 6.75570504584946 35
vertex 14.708203932499366 2.0534230275096803 0
vertex 13.485281374238568 3.4852813742385713 0
endloop
endfacet
facet normal 0.7414015345577859 0.6332167308387803 -0.22217186217252582
outer loop
vertex 21.180339887498945 6.75570504584946 35
vertex 13.485281374238568 3.4852813742385713 0
vertex 19.142135623730947 9.14213562373095 35
endloop
endfacet
facet normal 0.8313305719253561 0.5094400296806806 -0.2221718621725259
outer loop
vertex 22.820130483767358 4.079809994790933 35
vertex 15.692078290260413 0.44788599687456365 0
vertex 14.708203932499366 2.0534230275096803 0
endloop
endfacet
facet normal 0.8313305719253561 0.5094400296806806 -0.2221718621725259
outer loop
vertex 22.820130483767358 4.079809994790933 35
vertex 14.708203932499366 2.0534230275096803 0
vertex 21.180339887498945 6.75570504584946 35
endloop
endfacet
facet normal 0.9007894915841387 0.3731192242573159 -0.22217186217252588
outer loop
vertex 24.02113032590307 1.1803398874989526 35
vertex 16.412678195541844 -1.2917960675006288 0
vertex 15.692078290260413 0.44788599687456365 0
endloop
endfacet
facet normal 0.9007894915841387 0.3731192242573159 -0.22217186217252588
outer loop
vertex 24.02113032590307 1.1803398874989526 35
vertex 15.692078290260413 0.44788599687456365 0
vertex 22.820130483767358 4.079809994790933 35
endloop
endfacet
facet normal 0.9480679844111953 0.227610985221025 -0.22217186217252574
outer loop
vertex 24.753766811902754 -1.8713106991953774 35
vertex 16.85226008714165 -3.122786419517227 0
vertex 16.412678195541844 -1.2917960675006288 0
endloop
endfacet
facet normal 0.9480679844111953 0.227610985221025 -0.22217186217252574
outer loop
vertex 24.753766811902754 -1.8713106991953774 35
vertex 16.412678195541844 -1.2917960675006288 0
vertex 24.02113032590307 1.1803398874989526 35
endloop
endfacet
facet normal 0.9720018970048011 0.07649820833104498 -0.22217186217252657
outer loop
vertex 16.85226008714165 -3.122786419517227 0
vertex 24.753766811902754 -1.8713106991953774 35
vertex 25 -4.999999999999995 35
endloop
endfacet
facet normal 0.9720018970048011 0.07649820833104498 -0.22217186217252657
outer loop
vertex 16.85226008714165 -3.122786419517227 0
vertex 25 -4.999999999999995 35
vertex 17 -4.999999999999997 0
endloop
endfacet
facet normal 0 0 1
outer loop
vertex 15 -5 2
vertex 14.876883405951377 -3.4356553495976887 2
vertex 14.510565162951535 -1.9098300562505237 2
endloop
endfacet
facet normal 0 0 1
outer loop
vertex 15 -5 2
vertex 14.510565162951535 -1.9098300562505237 2
vertex 13.910065241883679 -0.46009500260453073 2
endloop
endfacet
facet normal 0 0 1
outer loop
vertex 15 -5 2
vertex 13.910065241883679 -0.46009500260453073 2
vertex 13.090169943749473 0.8778525229247336 2
endloop
endfacet
facet normal 0 0 1
outer loop
vertex 15 -5 2
vertex 13.090169943749473 0.8778525229247336 2
vertex 12.071067811865474 2.0710678118654773 2
endloop
endfacet
facet normal 0 0 1
outer loop
vertex 15 -5 2
vertex 12.071067811865474 2.0710678118654773 2
vertex 10.87785252292473 3.0901699437494763 2
endloop
endfacet
facet normal 0 0 1
outer loop
vertex 15 -5 2
vertex 10.87785252292473 3.0901699437494763 2
vertex 9.539904997395467 3.9100652418836805 2
endloop
endfacet
facet normal 0 0 1
outer loop
vertex 15 -5 2
vertex 9.539904997395467 3.9100652418836805 2
vertex 8.090169943749473 4.510565162951536 2
endloop
endfacet
facet normal 0 0 1
outer loop
vertex 15 -5 2
vertex 8.090169943749473 4.510565162951536 2
vertex 6.564344650402306 4.876883405951379 2
endloop
endfacet
facet normal 0 0 1
outer loop
vertex 15 -5 2
vertex 6.564344650402306 4.876883405951379 2
vertex 4.999999999999998 5 2
endloop
endfacet
facet normal 0 0 1
outer loop
vertex 15 -5 2
vertex 4.999999999999998 5 2
vertex 3.4356553495976896 4.876883405951377 2
endloop
endfacet
facet normal 0 0 1
outer loop
vertex 15 -5 2
vertex 3.4356553495976896 4.876883405951377 2
vertex 1.9098300562505246 4.510565162951535 2
endloop
endfacet
facet normal 0 0 1
outer loop
vertex 15 -5 2
vertex 1.9098300562505246 4.510565162951535 2
vertex 0.46009500260453073 3.9100652418836788 2
endloop
endfacet
facet normal 0 0 1
outer loop
vertex 15 -5 2
vertex 0.46009500260453073 3.9100652418836788 2
vertex -0.8778525229247327 3.0901699437494727 2
endloop
endfacet
facet normal 0 0 1
outer loop
vertex 15 -5 2
vertex -0.8778525229247327 3.0901699437494727 2
vertex -2.0710678118654773 2.0710678118654746 2
endloop
endfacet
facet normal 0 0 1
outer loop
vertex 15 -5 2
vertex -2.0710678118654773 2.0710678118654746 2
vertex -3.0901699437494745 0.87785252292473 2
endloop
endfacet
facet normal 0 0 1
outer loop
vertex 15 -5 2
vertex -3.0901699437494745 0.87785252292473 2
vertex -3.9100652418836788 -0.4600950026045334 2
endloop
endfacet
facet normal 0 0 1
outer loop
vertex 15 -5 2
vertex -3.9100652418836788 -0.4600950026045334 2
vertex -4.510565162951538 -1.9098300562505308 2
endloop
endfacet
facet normal 0 0 1
outer loop
vertex 15 -5 2
vertex -4.510565162951538 -1.9098300562505308 2
vertex -4.876883405951379 -3.4356553495976927 2
endloop
endfacet
facet normal 0 0 1
outer loop
vertex 15 -5 2
vertex -4.876883405951379 -3.4356553495976927 2
vertex -5 -5.000000000000001 2
endloop
endfacet
facet normal 0 0 1
outer loop
vertex 15 -5 2
vertex -5 -5.000000000000001 2
vertex -4.876883405951377 -6.56434465040231 2
endloop
endfacet
facet normal 0 0 1
outer loop
vertex 15 -5 2
vertex -4.876883405951377 -6.56434465040231 2
vertex -4.510565162951535 -8.090169943749475 2
endloop
endfacet
facet normal 0 0 1
outer loop
vertex 15 -5 2
vertex -4.510565162951535 -8.090169943749475 2
vertex -3.9100652418836788 -9.539904997395467 2
endloop
endfacet
facet normal 0 0 1
outer loop
vertex 15 -5 2
vertex -3.9100652418836788 -9.539904997395467 2
vertex -3.0901699437494745 -10.877852522924734 2
endloop
endfacet
facet normal 0 0 1
outer loop
vertex 15 -5 2
vertex -3.0901699437494745 -10.877852522924734 2
vertex -2.0710678118654746 -12.071067811865476 2
endloop
endfacet
facet normal 0 0 1
outer loop
vertex 15 -5 2
vertex -2.0710678118654746 -12.071067811865476 2
vertex -0.87785252292473 -13.090169943749475 2
endloop
endfacet
facet normal 0 0 1
outer loop
vertex 15 -5 2
vertex -0.87785252292473 -13.090169943749475 2
vertex 0.4600950026045325 -13.910065241883679 2
endloop
endfacet
facet normal 0 0 1
outer loop
vertex 15 -5 2
vertex 0.4600950026045325 -13.910065241883679 2
vertex 1.9098300562505264 -14.510565162951536 2
endloop
endfacet
facet normal 0 0 1
outer loop
vertex 15 -5 2
vertex 1.9098300562505264 -14.510565162951536 2
vertex 3.435655349597694 -14.876883405951379 2
endloop
endfacet
facet normal 0 0 1
outer loop
vertex 15 -5 2
vertex 3.435655349597694 -14.876883405951379 2
vertex 5.000000000000001 -15 2
endloop
endfacet
facet normal 0 0 1
outer loop
vertex 15 -5 2
vertex 5.000000000000001 -15 2
vertex 6.564344650402309 -14.876883405951379 2
endloop
endfacet
facet normal 0 0 1
outer loop
vertex 15 -5 2
vertex 6.564344650402309 -14.876883405951379 2
vertex 8.090169943749475 -14.510565162951535 2
endloop
endfacet
facet normal 0 0 1
outer loop
vertex 15 -5 2
vertex 8.090169943749475 -14.510565162951535 2
vertex 9.539904997395467 -13.910065241883679 2
endloop
endfacet
facet normal 0 0 1
outer loop
vertex 15 -5 2
vertex 9.539904997395467 -13.910065241883679 2
vertex 10.877852522924732 -13.090169943749475 2
endloop
endfacet
facet normal 0 0 1
outer loop
vertex 15 -5 2
vertex 10.877852522924732 -13.090169943749475 2
vertex 12.071067811865476 -12.071067811865476 2
endloop
endfacet
facet normal 0 0 1
outer loop
vertex 15 -5 2
vertex 12.071067811865476 -12.071067811865476 2
vertex 13.090169943749475 -10.877852522924732 2
endloop
endfacet
facet normal 0 0 1
outer loop
vertex 15 -5 2
vertex 13.090169943749475 -10.877852522924732 2
vertex 13.910065241883679 -9.539904997395467 2
endloop
endfacet
facet normal 0 0 1
outer loop
vertex 15 -5 2
vertex 13.910065241883679 -9.539904997395467 2
vertex 14.510565162951535 -8.090169943749475 2
endloop
endfacet
facet normal 0 0 1
outer loop
vertex 15 -5 2
vertex 14.510565162951535 -8.090169943749475 2
vertex 14.876883405951379 -6.564344650402308 2
endloop
endfacet
facet normal 0 0 1
outer loop
vertex 15 -5 2
vertex 14.876883405951379 -6.564344650402308 2
vertex 15 -5 2
endloop
endfacet
facet normal -0.9720018970048011 0.07649820833104498 0.22217186217252657
outer loop
vertex 22.542857142857166 -4.999999999999995 35
vertex 15 -5 2
vertex 14.876883405951379 -6.564344650402308 2
endloop
endfacet
facet normal -0.9720018970048011 0.07649820833104498 0.22217186217252657
outer loop
vertex 22.542857142857166 -4.999999999999995 35
vertex 14.876883405951379 -6.564344650402308 2
vertex 22.32687546072616 -7.744307472419929 35
endloop
endfacet
facet normal -0.9480679844111944 0.22761098522102866 0.22217186217252607
outer loop
vertex 22.32687546072616 -7.744307472419929 35
vertex 14.876883405951379 -6.564344650402308 2
vertex 14.510565162951535 -8.090169943749475 2
endloop
endfacet
facet normal -0.9480679844111944 0.22761098522102866 0.22217186217252607
outer loop
vertex 22.32687546072616 -7.744307472419929 35
vertex 14.510565162951535 -8.090169943749475 2
vertex 21.684248600149267 -10.421040987034768 35
endloop
endfacet
facet normal -0.9007894915841393 0.3731192242573141 0.2221718621725259
outer loop
vertex 21.684248600149267 -10.421040987034768 35
vertex 14.510565162951535 -8.090169943749475 2
vertex 13.910065241883679 -9.539904997395467 2
endloop
endfacet
facet normal -0.9007894915841393 0.3731192242573141 0.2221718621725259
outer loop
vertex 21.684248600149267 -10.421040987034768 35
vertex 13.910065241883679 -9.539904997395467 2
vertex 20.63080016719024 -12.964290481145143 35
endloop
endfacet
facet normal -0.8313305719253569 0.5094400296806793 0.22217186217252569
outer loop
vertex 20.63080016719024 -12.964290481145143 35
vertex 13.910065241883679 -9.539904997395467 2
vertex 13.090169943749475 -10.877852522924732 2
endloop
endfacet
facet normal -0.8313305719253569 0.5094400296806793 0.22217186217252569
outer loop
vertex 20.63080016719024 -12.964290481145143 35
vertex 13.090169943749475 -10.877852522924732 2
vertex 19.192469558463326 -15.31143271164514 35
endloop
endfacet
facet normal -0.7414015345577859 0.6332167308387803 0.22217186217252582
outer loop
vertex 19.192469558463326 -15.31143271164514 35
vertex 13.090169943749475 -10.877852522924732 2
vertex 12.071067811865476 -12.071067811865476 2
endloop
endfacet
facet normal -0.7414015345577859 0.6332167308387803 0.22217186217252582
outer loop
vertex 19.192469558463326 -15.31143271164514 35
vertex 12.071067811865476 -12.071067811865476 2
vertex 17.404673247101147 -17.404673247101144 35
endloop
endfacet
facet normal -0.6332167308387803 0.7414015345577859 0.22217186217252582
outer loop
vertex 17.404673247101147 -17.404673247101144 35
vertex 12.071067811865476 -12.071067811865476 2
vertex 10.877852522924732 -13.090169943749475 2
endloop
endfacet
facet normal -0.6332167308387803 0.7414015345577859 0.22217186217252582
outer loop
vertex 17.404673247101147 -17.404673247101144 35
vertex 10.877852522924732 -13.090169943749475 2
vertex 15.311432711645091 -19.192469558463365 35
endloop
endfacet
facet normal -0.5094400296806788 0.8313305719253571 0.22217186217252566
outer loop
vertex 15.311432711645091 -19.192469558463365 35
vertex 10.877852522924732 -13.090169943749475 2
vertex 9.539904997395467 -13.910065241883679 2
endloop
endfacet
facet normal -0.5094400296806788 0.8313305719253571 0.22217186217252566
outer loop
vertex 15.311432711645091 -19.192469558463365 35
vertex 9.539904997395467 -13.910065241883679 2
vertex 12.964290481145184 -20.630800167190227 35
endloop
endfacet
facet normal -0.37311922425731414 0.9007894915841395 0.22217186217252582
outer loop
vertex 12.964290481145184 -20.630800167190227 35
vertex 9.539904997395467 -13.910065241883679 2
vertex 8.090169943749475 -14.510565162951535 2
endloop
endfacet
facet normal -0.37311922425731414 0.9007894915841395 0.22217186217252582
outer loop
vertex 12.964290481145184 -20.630800167190227 35
vertex 8.090169943749475 -14.510565162951535 2
vertex 10.42104098703477 -21.684248600149267 35
endloop
endfacet
facet normal -0.22761098522102866 0.9480679844111944 0.22217186217252607
outer loop
vertex 10.42104098703477 -21.684248600149267 35
vertex 8.090169943749475 -14.510565162951535 2
vertex 6.564344650402309 -14.876883405951379 2
endloop
endfacet
facet normal -0.22761098522102866 0.9480679844111944 0.22217186217252607
outer loop
vertex 10.42104098703477 -21.684248600149267 35
vertex 6.564344650402309 -14.876883405951379 2
vertex 7.744307472419861 -22.32687546072618 35
endloop
endfacet
facet normal -0.07649820833104314 0.9720018970048012 0.2221718621725266
outer loop
vertex 6.564344650402309 -14.876883405951379 2
vertex 5.000000000000001 -15 2
vertex 4.999999999999988 -22.542857142857173 35
endloop
endfacet
facet normal -0.07649820833104314 0.9720018970048012 0.2221718621725266
outer loop
vertex 6.564344650402309 -14.876883405951379 2
vertex 4.999999999999988 -22.542857142857173 35
vertex 7.744307472419861 -22.32687546072618 35
endloop
endfacet
facet normal 0.076498208331045 0.9720018970048011 0.2221718621725266
outer loop
vertex 3.435655349597694 -14.876883405951379 2
vertex 2.2556925275801216 -22.32687546072618 35
vertex 4.999999999999988 -22.542857142857173 35
endloop
endfacet
facet normal 0.076498208331045 0.9720018970048011 0.2221718621725266
outer loop
vertex 3.435655349597694 -14.876883405951379 2
vertex 4.999999999999988 -22.542857142857173 35
vertex 5.000000000000001 -15 2
endloop
endfacet
facet normal 0.22761098522102688 0.9480679844111949 0.22217186217252596
outer loop
vertex 2.2556925275801216 -22.32687546072618 35
vertex 3.435655349597694 -14.876883405951379 2
vertex 1.9098300562505264 -14.510565162951536 2
endloop
endfacet
facet normal 0.22761098522102688 0.9480679844111949 0.22217186217252596
outer loop
vertex 2.2556925275801216 -22.32687546072618 35
vertex 1.9098300562505264 -14.510565162951536 2
vertex -0.42104098703475223 -21.684248600149267 35
endloop
endfacet
facet normal 0.3731192242573159 0.9007894915841387 0.22217186217252588
outer loop
vertex -0.42104098703475223 -21.684248600149267 35
vertex 1.9098300562505264 -14.510565162951536 2
vertex 0.4600950026045325 -13.910065241883679 2
endloop
endfacet
facet normal 0.3731192242573159 0.9007894915841387 0.22217186217252588
outer loop
vertex -0.42104098703475223 -21.684248600149267 35
vertex 0.4600950026045325 -13.910065241883679 2
vertex -2.964290481145154 -20.630800167190227 35
endloop
endfacet
facet normal 0.5094400296806788 0.8313305719253571 0.2221718621725258
outer loop
vertex -2.964290481145154 -20.630800167190227 35
vertex 0.4600950026045325 -13.910065241883679 2
vertex -0.87785252292473 -13.090169943749475 2
endloop
endfacet
facet normal 0.5094400296806788 0.8313305719253571 0.2221718621725258
outer loop
vertex -2.964290481145154 -20.630800167190227 35
vertex -0.87785252292473 -13.090169943749475 2
vertex -5.311432711645148 -19.192469558463365 35
endloop
endfacet
facet normal 0.6332167308387803 0.7414015345577859 0.22217186217252582
outer loop
vertex -5.311432711645148 -19.192469558463365 35
vertex -0.87785252292473 -13.090169943749475 2
vertex -2.0710678118654746 -12.071067811865476 2
endloop
endfacet
facet normal 0.6332167308387803 0.7414015345577859 0.22217186217252582
outer loop
vertex -5.311432711645148 -19.192469558463365 35
vertex -2.0710678118654746 -12.071067811865476 2
vertex -7.404673247101117 -17.404673247101144 35
endloop
endfacet
facet normal 0.7414015345577851 0.6332167308387813 0.2221718621725258
outer loop
vertex -7.404673247101117 -17.404673247101144 35
vertex -2.0710678118654746 -12.071067811865476 2
vertex -3.0901699437494745 -10.877852522924734 2
endloop
endfacet
facet normal 0.7414015345577851 0.6332167308387813 0.2221718621725258
outer loop
vertex -7.404673247101117 -17.404673247101144 35
vertex -3.0901699437494745 -10.877852522924734 2
vertex -9.192469558463358 -15.31143271164514 35
endloop
endfacet
facet normal 0.8313305719253576 0.509440029680678 0.22217186217252582
outer loop
vertex -9.192469558463358 -15.31143271164514 35
vertex -3.0901699437494745 -10.877852522924734 2
vertex -3.9100652418836788 -9.539904997395467 2
endloop
endfacet
facet normal 0.8313305719253576 0.509440029680678 0.22217186217252582
outer loop
vertex -9.192469558463358 -15.31143271164514 35
vertex -3.9100652418836788 -9.539904997395467 2
vertex -10.630800167190237 -12.964290481145143 35
endloop
endfacet
facet normal 0.900789491584139 0.3731192242573149 0.22217186217252585
outer loop
vertex -10.630800167190237 -12.964290481145143 35
vertex -3.9100652418836788 -9.539904997395467 2
vertex -4.510565162951535 -8.090169943749475 2
endloop
endfacet
facet normal 0.900789491584139 0.3731192242573149 0.22217186217252585
outer loop
vertex -10.630800167190237 -12.964290481145143 35
vertex -4.510565162951535 -8.090169943749475 2
vertex -11.68424860014926 -10.421040987034768 35
endloop
endfacet
facet normal 0.9480679844111949 0.22761098522102685 0.2221718621725259
outer loop
vertex -11.68424860014926 -10.421040987034768 35
vertex -4.510565162951535 -8.090169943749475 2
vertex -4.876883405951377 -6.56434465040231 2
endloop
endfacet
facet normal 0.9480679844111949 0.22761098522102685 0.2221718621725259
outer loop
vertex -11.68424860014926 -10.421040987034768 35
vertex -4.876883405951377 -6.56434465040231 2
vertex -12.326875460726113 -7.744307472419929 35
endloop
endfacet
facet normal 0.9720018970048013 0.07649820833104407 0.2221718621725257
outer loop
vertex -4.876883405951377 -6.56434465040231 2
vertex -5 -5.000000000000001 2
vertex -12.54285714285713 -4.999999999999995 35
endloop
endfacet
facet normal 0.9720018970048013 0.07649820833104407 0.2221718621725257
outer loop
vertex -4.876883405951377 -6.56434465040231 2
vertex -12.54285714285713 -4.999999999999995 35
vertex -12.326875460726113 -7.744307472419929 35
endloop
endfacet
facet normal 0.9720018970048012 -0.07649820833104407 0.22217186217252613
outer loop
vertex -4.876883405951379 -3.4356553495976927 2
vertex -12.326875460726118 -2.2556925275799182 35
vertex -12.54285714285713 -4.999999999999995 35
endloop
endfacet
facet normal 0.9720018970048012 -0.07649820833104407 0.22217186217252613
outer loop
vertex -4.876883405951379 -3.4356553495976927 2
vertex -12.54285714285713 -4.999999999999995 35
vertex -5 -5.000000000000001 2
endloop
endfacet
facet normal 0.9480679844111949 -0.22761098522102682 0.2221718621725259
outer loop
vertex -12.326875460726118 -2.2556925275799182 35
vertex -4.876883405951379 -3.4356553495976927 2
vertex -4.510565162951538 -1.9098300562505308 2
endloop
endfacet
facet normal 0.9480679844111949 -0.22761098522102682 0.2221718621725259
outer loop
vertex -12.326875460726118 -2.2556925275799182 35
vertex -4.510565162951538 -1.9098300562505308 2
vertex -11.684248600149248 0.4210409870348433 35
endloop
endfacet
facet normal 0.9007894915841386 -0.3731192242573158 0.22217186217252602
outer loop
vertex -11.684248600149248 0.4210409870348433 35
vertex -4.510565162951538 -1.9098300562505308 2
vertex -3.9100652418836788 -0.4600950026045334 2
endloop
endfacet
facet normal 0.9007894915841386 -0.3731192242573158 0.22217186217252602
outer loop
vertex -11.684248600149248 0.4210409870348433 35
vertex -3.9100652418836788 -0.4600950026045334 2
vertex -10.630800167190234 2.9642904811451727 35
endloop
endfacet
facet normal 0.8313305719253566 -0.5094400296806795 0.22217186217252588
outer loop
vertex -10.630800167190234 2.9642904811451727 35
vertex -3.9100652418836788 -0.4600950026045334 2
vertex -3.0901699437494745 0.87785252292473 2
endloop
endfacet
facet normal 0.8313305719253566 -0.5094400296806795 0.22217186217252588
outer loop
vertex -10.630800167190234 2.9642904811451727 35
vertex -3.0901699437494745 0.87785252292473 2
vertex -9.192469558463356 5.311432711645105 35
endloop
endfacet
facet normal 0.7414015345577868 -0.6332167308387794 0.22217186217252588
outer loop
vertex -9.192469558463356 5.311432711645105 35
vertex -3.0901699437494745 0.87785252292473 2
vertex -2.0710678118654773 2.0710678118654746 2
endloop
endfacet
facet normal 0.7414015345577868 -0.6332167308387794 0.22217186217252588
outer loop
vertex -9.192469558463356 5.311432711645105 35
vertex -2.0710678118654773 2.0710678118654746 2
vertex -7.404673247101139 7.404673247101158 35
endloop
endfacet
facet normal 0.6332167308387792 -0.7414015345577868 0.22217186217252596
outer loop
vertex -7.404673247101139 7.404673247101158 35
vertex -2.0710678118654773 2.0710678118654746 2
vertex -0.8778525229247327 3.0901699437494727 2
endloop
endfacet
facet normal 0.6332167308387792 -0.7414015345577868 0.22217186217252596
outer loop
vertex -7.404673247101139 7.404673247101158 35
vertex -0.8778525229247327 3.0901699437494727 2
vertex -5.311432711645086 9.192469558463374 35
endloop
endfacet
facet normal 0.5094400296806803 -0.8313305719253562 0.22217186217252585
outer loop
vertex -5.311432711645086 9.192469558463374 35
vertex -0.8778525229247327 3.0901699437494727 2
vertex 0.46009500260453073 3.9100652418836788 2
endloop
endfacet
facet normal 0.5094400296806803 -0.8313305719253562 0.22217186217252585
outer loop
vertex -5.311432711645086 9.192469558463374 35
vertex 0.46009500260453073 3.9100652418836788 2
vertex -2.9642904811452553 10.630800167190191 35
endloop
endfacet
facet normal 0.3731192242573144 -0.9007894915841393 0.22217186217252582
outer loop
vertex -2.9642904811452553 10.630800167190191 35
vertex 0.46009500260453073 3.9100652418836788 2
vertex 1.9098300562505246 4.510565162951535 2
endloop
endfacet
facet normal 0.3731192242573144 -0.9007894915841393 0.22217186217252582
outer loop
vertex -2.9642904811452553 10.630800167190191 35
vertex 1.9098300562505246 4.510565162951535 2
vertex -0.42104098703477 11.684248600149266 35
endloop
endfacet
facet normal 0.22761098522102685 -0.9480679844111949 0.22217186217252594
outer loop
vertex -0.42104098703477 11.684248600149266 35
vertex 1.9098300562505246 4.510565162951535 2
vertex 3.4356553495976896 4.876883405951377 2
endloop
endfacet
facet normal 0.22761098522102685 -0.9480679844111949 0.22217186217252594
outer loop
vertex -0.42104098703477 11.684248600149266 35
vertex 3.4356553495976896 4.876883405951377 2
vertex 2.2556925275799085 12.326875460726116 35
endloop
endfacet
facet normal 0.07649820833104408 -0.9720018970048013 0.22217186217252574
outer loop
vertex 5.000000000000023 12.542857142857132 35
vertex 2.2556925275799085 12.326875460726116 35
vertex 3.4356553495976896 4.876883405951377 2
endloop
endfacet
facet normal 0.07649820833104408 -0.9720018970048013 0.22217186217252574
outer loop
vertex 5.000000000000023 12.542857142857132 35
vertex 3.4356553495976896 4.876883405951377 2
vertex 4.999999999999998 5 2
endloop
endfacet
facet normal -0.07649820833104407 -0.9720018970048013 0.22217186217252569
outer loop
vertex 5.000000000000023 12.542857142857132 35
vertex 4.999999999999998 5 2
vertex 6.564344650402306 4.876883405951379 2
endloop
endfacet
facet normal -0.07649820833104407 -0.9720018970048013 0.22217186217252569
outer loop
vertex 5.000000000000023 12.542857142857132 35
vertex 6.564344650402306 4.876883405951379 2
vertex 7.744307472420148 12.326875460726116 35
endloop
endfacet
facet normal -0.22761098522102688 -0.9480679844111949 0.2221718621725259
outer loop
vertex 7.744307472420148 12.326875460726116 35
vertex 6.564344650402306 4.876883405951379 2
vertex 8.090169943749473 4.510565162951536 2
endloop
endfacet
facet normal -0.22761098522102688 -0.9480679844111949 0.2221718621725259
outer loop
vertex 7.744307472420148 12.326875460726116 35
vertex 8.090169943749473 4.510565162951536 2
vertex 10.421040987034779 11.684248600149266 35
endloop
endfacet
facet normal -0.37311922425731486 -0.900789491584139 0.22217186217252596
outer loop
vertex 10.421040987034779 11.684248600149266 35
vertex 8.090169943749473 4.510565162951536 2
vertex 9.539904997395467 3.9100652418836805 2
endloop
endfacet
facet normal -0.37311922425731486 -0.900789491584139 0.22217186217252596
outer loop
vertex 10.421040987034779 11.684248600149266 35
vertex 9.539904997395467 3.9100652418836805 2
vertex 12.964290481145259 10.630800167190191 35
endloop
endfacet
facet normal -0.5094400296806799 -0.8313305719253564 0.22217186217252577
outer loop
vertex 12.964290481145259 10.630800167190191 35
vertex 9.539904997395467 3.9100652418836805 2
vertex 10.87785252292473 3.0901699437494763 2
endloop
endfacet
facet normal -0.5094400296806799 -0.8313305719253564 0.22217186217252577
outer loop
vertex 12.964290481145259 10.630800167190191 35
vertex 10.87785252292473 3.0901699437494763 2
vertex 15.311432711645006 9.192469558463374 35
endloop
endfacet
facet normal -0.6332167308387798 -0.7414015345577863 0.22217186217252585
outer loop
vertex 15.311432711645006 9.192469558463374 35
vertex 10.87785252292473 3.0901699437494763 2
vertex 12.071067811865474 2.0710678118654773 2
endloop
endfacet
facet normal -0.6332167308387798 -0.7414015345577863 0.22217186217252585
outer loop
vertex 15.311432711645006 9.192469558463374 35
vertex 12.071067811865474 2.0710678118654773 2
vertex 17.404673247101183 7.404673247101158 35
endloop
endfacet
facet normal -0.7414015345577863 -0.6332167308387798 0.22217186217252585
outer loop
vertex 17.404673247101183 7.404673247101158 35
vertex 12.071067811865474 2.0710678118654773 2
vertex 13.090169943749473 0.8778525229247336 2
endloop
endfacet
facet normal -0.7414015345577863 -0.6332167308387798 0.22217186217252585
outer loop
vertex 17.404673247101183 7.404673247101158 35
vertex 13.090169943749473 0.8778525229247336 2
vertex 19.192469558463333 5.311432711645105 35
endloop
endfacet
facet normal -0.831330571925356 -0.5094400296806805 0.22217186217252574
outer loop
vertex 19.192469558463333 5.311432711645105 35
vertex 13.090169943749473 0.8778525229247336 2
vertex 13.910065241883679 -0.46009500260453073 2
endloop
endfacet
facet normal -0.831330571925356 -0.5094400296806805 0.22217186217252574
outer loop
vertex 19.192469558463333 5.311432711645105 35
vertex 13.910065241883679 -0.46009500260453073 2
vertex 20.630800167190262 2.9642904811451727 35
endloop
endfacet
facet normal -0.9007894915841393 -0.3731192242573141 0.2221718621725259
outer loop
vertex 20.630800167190262 2.9642904811451727 35
vertex 13.910065241883679 -0.46009500260453073 2
vertex 14.510565162951535 -1.9098300562505237 2
endloop
endfacet
facet normal -0.9007894915841393 -0.3731192242573141 0.2221718621725259
outer loop
vertex 20.630800167190262 2.9642904811451727 35
vertex 14.510565162951535 -1.9098300562505237 2
vertex 21.684248600149218 0.4210409870348433 35
endloop
endfacet
facet normal -0.9480679844111949 -0.22761098522102688 0.22217186217252596
outer loop
vertex 21.684248600149218 0.4210409870348433 35
vertex 14.510565162951535 -1.9098300562505237 2
vertex 14.876883405951377 -3.4356553495976887 2
endloop
endfacet
facet normal -0.9480679844111949 -0.22761098522102688 0.22217186217252596
outer loop
vertex 21.684248600149218 0.4210409870348433 35
vertex 14.876883405951377 -3.4356553495976887 2
vertex 22.32687546072612 -2.2556925275799182 35
endloop
endfacet
facet normal -0.972001897004801 -0.07649820833104498 0.22217186217252669
outer loop
vertex 22.542857142857166 -4.999999999999995 35
vertex 22.32687546072612 -2.2556925275799182 35
vertex 14.876883405951377 -3.4356553495976887 2
endloop
endfacet
facet normal -0.972001897004801 -0.07649820833104498 0.22217186217252669
outer loop
vertex 22.542857142857166 -4.999999999999995 35
vertex 14.876883405951377 -3.4356553495976887 2
vertex 15 -5 2
endloop
endfacet
endsolid craftml
