solid craftml
facet normal -1 0 0
outer loop
vertex 0 -1 0
vertex 0 -1 42
vertex 0 0 42
endloop
endfacet
facet normal -1 0 0
outer loop
vertex 0 -1 0
vertex 0 0 42
vertex 0 0 0
endloop
endfacet
facet normal 1 0 0
outer loop
vertex 50 0 42
vertex 50 -1 42
vertex 50 -1 0
endloop
endfacet
facet normal 1 0 0
outer loop
vertex 50 0 42
vertex 50 -1 0
vertex 50 0 0
endloop
endfacet
facet normal 0 1 0
outer loop
vertex 0 0 42
vertex 50 0 42
vertex 50 0 0
endloop
endfacet
facet normal 0 1 0
outer loop
vertex 0 0 42
vertex 50 0 0
vertex 0 0 0
endloop
endfacet
facet normal 0 -1 0
outer loop
vertex 2 -1 13
vertex 2 -1 3
vertex 48 -1 3
endloop
endfacet
facet normal 0 -1 0
outer loop
vertex 2 -1 13
vertex 48 -1 3
vertex 48 -1 13
endloop
endfacet
facet normal 0 -1 0
outer loop
vertex 2 -1 26
vertex 2 -1 16
vertex 48 -1 16
endloop
endfacet
facet normal 0 -1 0
outer loop
vertex 2 -1 26
vertex 48 -1 16
vertex 48 -1 26
endloop
endfacet
facet normal 0 -1 0
outer loop
vertex 2 -1 39
vertex 2 -1 29
vertex 48 -1 29
endloop
endfacet
facet normal 0 -1 0
outer loop
vertex 2 -1 39
vertex 48 -1 29
vertex 48 -1 39
endloop
endfacet
facet normal 0 0 -1
outer loop
vertex 50 0 0
vertex 50 -1 0
vertex 0 -1 0
endloop
endfacet
facet normal 0 0 -1
outer loop
vertex 50 0 0
vertex 0 -1 0
vertex 0 0 0
endloop
endfacet
facet normal 0 0 1
outer loop
vertex 0 -1 42
vertex 50 -1 42
vertex 50 0 42
endloop
endfacet
facet normal 0 0 1
outer loop
vertex 0 -1 42
vertex 50 0 42
vertex 0 0 42
endloop
endfacet
facet normal -1 0 0
outer loop
vertex 0 -1 0
vertex 0 -15 0
vertex 0 -15 42
endloop
endfacet
facet normal -1 0 0
outer loop
vertex 0 -1 0
vertex 0 -15 42
vertex 0 -1 42
endloop
endfacet
facet normal 1 0 0
outer loop
vertex 2 -15 13
vertex 2 -15 3
vertex 2 -1 3
endloop
endfacet
facet normal 1 0 0
outer loop
vertex 2 -15 13
vertex 2 -1 3
vertex 2 -1 13
endloop
endfacet
facet normal 1 0 0
outer loop
vertex 2 -15 26
vertex 2 -15 16
vertex 2 -1 16
endloop
endfacet
facet normal 1 0 0
outer loop
vertex 2 -15 26
vertex 2 -1 16
vertex 2 -1 26
endloop
endfacet
facet normal 1 0 0
outer loop
vertex 2 -15 39
vertex 2 -15 29
vertex 2 -1 29
endloop
endfacet
facet normal 1 0 0
outer loop
vertex 2 -15 39
vertex 2 -1 29
vertex 2 -1 39
endloop
endfacet
facet normal 0 -1 0
outer loop
vertex 2 -15 0
vertex 2 -15 42
vertex 0 -15 42
endloop
endfacet
facet normal 0 -1 0
outer loop
vertex 2 -15 0
vertex 0 -15 42
vertex 0 -15 0
endloop
endfacet
facet normal 0 0 -1
outer loop
vertex 2 -1 0
vertex 2 -15 0
vertex 0 -15 0
endloop
endfacet
facet normal 0 0 -1
outer loop
vertex 2 -1 0
vertex 0 -15 0
vertex 0 -1 0
endloop
endfacet
facet normal 0 0 1
outer loop
vertex 0 -15 42
vertex 2 -15 42
vertex 2 -1 42
endloop
endfacet
facet normal 0 0 1
outer loop
vertex 0 -15 42
vertex 2 -1 42
vertex 0 -1 42
endloop
endfacet
facet normal -1 0 0
outer loop
vertex 48 -15 3
vertex 48 -15 13
vertex 48 -1 13
endloop
endfacet
facet normal -1 0 0
outer loop
vertex 48 -15 3
vertex 48 -1 13
vertex 48 -1 3
endloop
endfacet
facet normal -1 0 0
outer loop
vertex 48 -15 16
vertex 48 -15 26
vertex 48 -1 26
endloop
endfacet
facet normal -1 0 0
outer loop
vertex 48 -15 16
vertex 48 -1 26
vertex 48 -1 16
endloop
endfacet
facet normal -1 0 0
outer loop
vertex 48 -15 29
vertex 48 -15 39
vertex 48 -1 39
endloop
endfacet
facet normal -1 0 0
outer loop
vertex 48 -15 29
vertex 48 -1 39
vertex 48 -1 29
endloop
endfacet
facet normal 1 0 0
outer loop
vertex 50 -1 42
vertex 50 -15 42
vertex 50 -15 0
endloop
endfacet
facet normal 1 0 0
outer loop
vertex 50 -1 42
vertex 50 -15 0
vertex 50 -1 0
endloop
endfacet
facet normal 0 -1 0
outer loop
vertex 50 -15 0
vertex 50 -15 42
vertex 48 -15 42
endloop
endfacet
facet normal 0 -1 0
outer loop
vertex 50 -15 0
vertex 48 -15 42
vertex 48 -15 0
endloop
endfacet
facet normal 0 0 -1
outer loop
vertex 50 -1 0
vertex 50 -15 0
vertex 48 -15 0
endloop
endfacet
facet normal 0 0 -1
outer loop
vertex 50 -1 0
vertex 48 -15 0
vertex 48 -1 0
endloop
endfacet
facet normal 0 0 1
outer loop
vertex 48 -15 42
vertex 50 -15 42
vertex 50 -1 42
endloop
endfacet
facet normal 0 0 1
outer loop
vertex 48 -15 42
vertex 50 -1 42
vertex 48 -1 42
endloop
endfacet
facet normal 0 -1 0
outer loop
vertex 48 -15 42
vertex 2 -15 42
vertex 2 -15 39
endloop
endfacet
facet normal 0 -1 0
outer loop
vertex 48 -15 42
vertex 2 -15 39
vertex 48 -15 39
endloop
endfacet
facet normal 0 0 -1
outer loop
vertex 48 -15 39
vertex 2 -15 39
vertex 2 -1 39
endloop
endfacet
facet normal 0 0 -1
outer loop
vertex 48 -15 39
vertex 2 -1 39
vertex 48 -1 39
endloop
endfacet
facet normal 0 0 1
outer loop
vertex 2 -15 42
vertex 48 -15 42
vertex 48 -1 42
endloop
endfacet
facet normal 0 0 1
outer loop
vertex 2 -15 42
vertex 48 -1 42
vertex 2 -1 42
endloop
endfacet
facet normal 0 -1 0
outer loop
vertex 48 -15 29
vertex 2 -15 29
vertex 2 -15 26
endloop
endfacet
facet normal 0 -1 0
outer loop
vertex 48 -15 29
vertex 2 -15 26
vertex 48 -15 26
endloop
endfacet
facet normal 0 0 -1
outer loop
vertex 48 -15 26
vertex 2 -15 26
vertex 2 -1 26
endloop
endfacet
facet normal 0 0 -1
outer loop
vertex 48 -15 26
vertex 2 -1 26
vertex 48 -1 26
endloop
endfacet
facet normal 0 0 1
outer loop
vertex 2 -15 29
vertex 48 -15 29
vertex 48 -1 29
endloop
endfacet
facet normal 0 0 1
outer loop
vertex 2 -15 29
vertex 48 -1 29
vertex 2 -1 29
endloop
endfacet
facet normal 0 -1 0
outer loop
vertex 48 -15 16
vertex 2 -15 16
vertex 2 -15 13
endloop
endfacet
facet normal 0 -1 0
outer loop
vertex 48 -15 16
vertex 2 -15 13
vertex 48 -15 13
endloop
endfacet
facet normal 0 0 -1
outer loop
vertex 48 -15 13
vertex 2 -15 13
vertex 2 -1 13
endloop
endfacet
facet normal 0 0 -1
outer loop
vertex 48 -15 13
vertex 2 -1 13
vertex 48 -1 13
endloop
endfacet
facet normal 0 0 1
outer loop
vertex 2 -15 16
vertex 48 -15 16
vertex 48 -1 16
endloop
endfacet
facet normal 0 0 1
outer loop
vertex 2 -15 16
vertex 48 -1 16
vertex 2 -1 16
endloop
endfacet
facet normal 0 -1 0
outer loop
vertex 48 -15 3
vertex 2 -15 3
vertex 2 -15 0
endloop
endfacet
facet normal 0 -1 0
outer loop
vertex 48 -15 3
vertex 2 -15 0
vertex 48 -15 0
endloop
endfacet
facet normal 0 0 -1
outer loop
vertex 48 -15 0
vertex 2 -15 0
vertex 2 -1 0
endloop
endfacet
facet normal 0 0 -1
outer loop
vertex 48 -15 0
vertex 2 -1 0
vertex 48 -1 0
endloop
endfacet
facet normal 0 0 1
outer loop
vertex 2 -15 3
vertex 48 -15 3
vertex 48 -1 3
endloop
endfacet
facet normal 0 0 1
outer loop
vertex 2 -15 3
vertex 48 -1 3
vertex 2 -1 3
endloop
endfacet
endsolid craftml
