solid craftml
facet normal -1 0 0
outer loop
vertex 12 -19.73669500482521 5
vertex 12 -19.73669500482521 0
vertex 12 -21 0
endloop
endfacet
facet normal -1 0 0
outer loop
vertex 12 -19.73669500482521 5
vertex 12 -21 0
vertex 12 -21 5
endloop
endfacet
facet normal 1 0 0
outer loop
vertex 27 -19.736695004825208 0
vertex 27 -19.736695004825208 5
vertex 27 -21 5
endloop
endfacet
facet normal 1 0 0
outer loop
vertex 27 -19.736695004825208 0
vertex 27 -21 5
vertex 27 -21 0
endloop
endfacet
facet normal 0 -1 0
outer loop
vertex 27 -21 0
vertex 27 -21 5
vertex 12 -21 5
endloop
endfacet
facet normal 0 -1 0
outer loop
vertex 27 -21 0
vertex 12 -21 5
vertex 12 -21 0
endloop
endfacet
facet normal 0 0 -1
outer loop
vertex 12 -21 0
vertex 12 -19.73669500482521 0
vertex 12.588190451025195 -19.659258262890685 0
endloop
endfacet
facet normal 0 0 -1
outer loop
vertex 12 -21 0
vertex 12.588190451025195 -19.659258262890685 0
vertex 26.411809548974812 -19.659258262890685 0
endloop
endfacet
facet normal 0 0 -1
outer loop
vertex 12 -21 0
vertex 26.411809548974812 -19.659258262890685 0
vertex 27 -19.736695004825208 0
endloop
endfacet
facet normal 0 0 -1
outer loop
vertex 12 -21 0
vertex 27 -19.736695004825208 0
vertex 27 -21 0
endloop
endfacet
facet normal 0 0 -1
outer loop
vertex 12.588190451025195 -19.659258262890685 0
vertex 15.000000000000055 -18.660254037844368 0
vertex 23.999999999999968 -18.660254037844368 0
endloop
endfacet
facet normal 0 0 -1
outer loop
vertex 12.588190451025195 -19.659258262890685 0
vertex 23.999999999999968 -18.660254037844368 0
vertex 26.411809548974812 -19.659258262890685 0
endloop
endfacet
facet normal 0 0 -1
outer loop
vertex 15.000000000000055 -18.660254037844368 0
vertex 17.071067811865454 -17.071067811865472 0
vertex 21.928932188134514 -17.071067811865472 0
endloop
endfacet
facet normal 0 0 -1
outer loop
vertex 15.000000000000055 -18.660254037844368 0
vertex 21.928932188134514 -17.071067811865472 0
vertex 23.999999999999968 -18.660254037844368 0
endloop
endfacet
facet normal 0 0 -1
outer loop
vertex 17.071067811865454 -17.071067811865472 0
vertex 18.660254037844396 -14.99999999999999 0
vertex 20.3397459621556 -14.99999999999999 0
endloop
endfacet
facet normal 0 0 -1
outer loop
vertex 17.071067811865454 -17.071067811865472 0
vertex 20.3397459621556 -14.99999999999999 0
vertex 21.928932188134514 -17.071067811865472 0
endloop
endfacet
facet normal 0 0 -1
outer loop
vertex 18.660254037844396 -14.99999999999999 0
vertex 19.499999999999996 -12.972673909215882 0
vertex 20.3397459621556 -14.99999999999999 0
endloop
endfacet
facet normal 0 0 1
outer loop
vertex 19.499999999999993 -12.972673909215878 5
vertex 18.66025403784438 -14.999999999999988 5
vertex 20.3397459621556 -14.999999999999988 5
endloop
endfacet
facet normal 0 0 1
outer loop
vertex 18.66025403784438 -14.999999999999988 5
vertex 17.071067811865465 -17.07106781186547 5
vertex 21.92893218813451 -17.07106781186547 5
endloop
endfacet
facet normal 0 0 1
outer loop
vertex 18.66025403784438 -14.999999999999988 5
vertex 21.92893218813451 -17.07106781186547 5
vertex 20.3397459621556 -14.999999999999988 5
endloop
endfacet
facet normal 0 0 1
outer loop
vertex 17.071067811865465 -17.07106781186547 5
vertex 14.999999999999984 -18.660254037844368 5
vertex 23.99999999999997 -18.660254037844368 5
endloop
endfacet
facet normal 0 0 1
outer loop
vertex 17.071067811865465 -17.07106781186547 5
vertex 23.99999999999997 -18.660254037844368 5
vertex 21.92893218813451 -17.07106781186547 5
endloop
endfacet
facet normal 0 0 1
outer loop
vertex 14.999999999999984 -18.660254037844368 5
vertex 12.588190451025206 -19.659258262890685 5
vertex 26.41180954897482 -19.659258262890685 5
endloop
endfacet
facet normal 0 0 1
outer loop
vertex 14.999999999999984 -18.660254037844368 5
vertex 26.41180954897482 -19.659258262890685 5
vertex 23.99999999999997 -18.660254037844368 5
endloop
endfacet
facet normal 0 0 1
outer loop
vertex 12.588190451025206 -19.659258262890685 5
vertex 12 -19.73669500482521 5
vertex 12 -21 5
endloop
endfacet
facet normal 0 0 1
outer loop
vertex 12.588190451025206 -19.659258262890685 5
vertex 12 -21 5
vertex 27 -21 5
endloop
endfacet
facet normal 0 0 1
outer loop
vertex 12.588190451025206 -19.659258262890685 5
vertex 27 -21 5
vertex 27 -19.736695004825208 5
endloop
endfacet
facet normal 0 0 1
outer loop
vertex 12.588190451025206 -19.659258262890685 5
vertex 27 -19.736695004825208 5
vertex 26.41180954897482 -19.659258262890685 5
endloop
endfacet
facet normal -0.13052619222004938 0.9914448613738107 0
outer loop
vertex 12.588190451025195 -19.659258262890685 0
vertex 12 -19.73669500482521 0
vertex 12 -19.73669500482521 5
endloop
endfacet
facet normal -0.13052619222004938 0.9914448613738107 0
outer loop
vertex 12.588190451025195 -19.659258262890685 0
vertex 12 -19.73669500482521 5
vertex 12.588190451025206 -19.659258262890685 5
endloop
endfacet
facet normal -0.3826834323650911 0.9238795325112863 0
outer loop
vertex 15.000000000000055 -18.660254037844368 0
vertex 12.588190451025195 -19.659258262890685 0
vertex 12.588190451025206 -19.659258262890685 5
endloop
endfacet
facet normal -0.3826834323650911 0.9238795325112863 0
outer loop
vertex 15.000000000000055 -18.660254037844368 0
vertex 12.588190451025206 -19.659258262890685 5
vertex 14.999999999999984 -18.660254037844368 5
endloop
endfacet
facet normal -0.6087614290087201 0.7933533402912356 0
outer loop
vertex 17.071067811865454 -17.071067811865472 0
vertex 15.000000000000055 -18.660254037844368 0
vertex 14.999999999999984 -18.660254037844368 5
endloop
endfacet
facet normal -0.6087614290087201 0.7933533402912356 0
outer loop
vertex 17.071067811865454 -17.071067811865472 0
vertex 14.999999999999984 -18.660254037844368 5
vertex 17.071067811865465 -17.07106781186547 5
endloop
endfacet
facet normal -0.7933533402912356 0.60876142900872 0
outer loop
vertex 18.660254037844396 -14.99999999999999 0
vertex 17.071067811865454 -17.071067811865472 0
vertex 17.071067811865465 -17.07106781186547 5
endloop
endfacet
facet normal -0.7933533402912356 0.60876142900872 0
outer loop
vertex 18.660254037844396 -14.99999999999999 0
vertex 17.071067811865465 -17.07106781186547 5
vertex 18.66025403784438 -14.999999999999988 5
endloop
endfacet
facet normal -0.9238795325112861 0.3826834323650914 0
outer loop
vertex 19.499999999999996 -12.972673909215882 0
vertex 18.660254037844396 -14.99999999999999 0
vertex 18.66025403784438 -14.999999999999988 5
endloop
endfacet
facet normal -0.9238795325112861 0.3826834323650914 0
outer loop
vertex 19.499999999999996 -12.972673909215882 0
vertex 18.66025403784438 -14.999999999999988 5
vertex 19.499999999999993 -12.972673909215878 5
endloop
endfacet
facet normal 0.923879532511287 0.3826834323650896 0
outer loop
vertex 20.3397459621556 -14.99999999999999 0
vertex 19.499999999999996 -12.972673909215882 0
vertex 19.499999999999993 -12.972673909215878 5
endloop
endfacet
facet normal 0.923879532511287 0.3826834323650896 0
outer loop
vertex 20.3397459621556 -14.99999999999999 0
vertex 19.499999999999993 -12.972673909215878 5
vertex 20.3397459621556 -14.999999999999988 5
endloop
endfacet
facet normal 0.7933533402912359 0.6087614290087197 0
outer loop
vertex 21.928932188134514 -17.071067811865472 0
vertex 20.3397459621556 -14.99999999999999 0
vertex 20.3397459621556 -14.999999999999988 5
endloop
endfacet
facet normal 0.7933533402912359 0.6087614290087197 0
outer loop
vertex 21.928932188134514 -17.071067811865472 0
vertex 20.3397459621556 -14.999999999999988 5
vertex 21.92893218813451 -17.07106781186547 5
endloop
endfacet
facet normal 0.6087614290087201 0.7933533402912356 0
outer loop
vertex 23.999999999999968 -18.660254037844368 0
vertex 21.928932188134514 -17.071067811865472 0
vertex 21.92893218813451 -17.07106781186547 5
endloop
endfacet
facet normal 0.6087614290087201 0.7933533402912356 0
outer loop
vertex 23.999999999999968 -18.660254037844368 0
vertex 21.92893218813451 -17.07106781186547 5
vertex 23.99999999999997 -18.660254037844368 5
endloop
endfacet
facet normal 0.3826834323650896 0.923879532511287 0
outer loop
vertex 26.411809548974812 -19.659258262890685 0
vertex 23.999999999999968 -18.660254037844368 0
vertex 23.99999999999997 -18.660254037844368 5
endloop
endfacet
facet normal 0.3826834323650896 0.923879532511287 0
outer loop
vertex 26.411809548974812 -19.659258262890685 0
vertex 23.99999999999997 -18.660254037844368 5
vertex 26.41180954897482 -19.659258262890685 5
endloop
endfacet
facet normal 0.13052619222005288 0.9914448613738103 0
outer loop
vertex 27 -19.736695004825208 0
vertex 26.411809548974812 -19.659258262890685 0
vertex 26.41180954897482 -19.659258262890685 5
endloop
endfacet
facet normal 0.13052619222005288 0.9914448613738103 0
outer loop
vertex 27 -19.736695004825208 0
vertex 26.41180954897482 -19.659258262890685 5
vertex 27 -19.736695004825208 5
endloop
endfacet
endsolid craftml
