solid craftml
facet normal 0 0 1
outer loop
vertex 161.679 -189 45
vertex 159 -213.641 45
vertex 179 -199 45
endloop
endfacet
facet normal 0 0 1
outer loop
vertex 161.679 -169 45
vertex 139 -179 45
vertex 161.679 -189 45
endloop
endfacet
facet normal 0 0 1
outer loop
vertex 179 -159 45
vertex 159 -144.359 45
vertex 161.679 -169 45
endloop
endfacet
facet normal 0 0 1
outer loop
vertex 196.321 -169 45
vertex 199 -144.359 45
vertex 179 -159 45
endloop
endfacet
facet normal 0 0 1
outer loop
vertex 196.321 -189 45
vertex 219 -179 45
vertex 196.321 -169 45
endloop
endfacet
facet normal 0 0 1
outer loop
vertex 179 -199 45
vertex 199 -213.641 45
vertex 196.321 -189 45
endloop
endfacet
facet normal 0 0 1
outer loop
vertex 161.679 -169 45
vertex 161.679 -189 45
vertex 179 -199 45
endloop
endfacet
facet normal 0 0 1
outer loop
vertex 196.321 -169 45
vertex 179 -159 45
vertex 161.679 -169 45
endloop
endfacet
facet normal 0 0 1
outer loop
vertex 179 -199 45
vertex 196.321 -189 45
vertex 196.321 -169 45
endloop
endfacet
facet normal 0 0 1
outer loop
vertex 196.321 -169 45
vertex 161.679 -169 45
vertex 179 -199 45
endloop
endfacet
facet normal 0 0 -1
outer loop
vertex 159 -179 0
vertex 144.359 -159 0
vertex 169 -161.679 0
endloop
endfacet
facet normal 0 0 -1
outer loop
vertex 169 -161.679 0
vertex 179 -139 0
vertex 189 -161.679 0
endloop
endfacet
facet normal 0 0 -1
outer loop
vertex 189 -161.679 0
vertex 213.641 -159 0
vertex 199 -179 0
endloop
endfacet
facet normal 0 0 -1
outer loop
vertex 199 -179 0
vertex 213.641 -199 0
vertex 189 -196.321 0
endloop
endfacet
facet normal 0 0 -1
outer loop
vertex 189 -196.321 0
vertex 179 -219 0
vertex 169 -196.321 0
endloop
endfacet
facet normal 0 0 -1
outer loop
vertex 169 -196.321 0
vertex 144.359 -199 0
vertex 159 -179 0
endloop
endfacet
facet normal 0 0 -1
outer loop
vertex 159 -179 0
vertex 169 -161.679 0
vertex 189 -161.679 0
endloop
endfacet
facet normal 0 0 -1
outer loop
vertex 189 -161.679 0
vertex 199 -179 0
vertex 189 -196.321 0
endloop
endfacet
facet normal 0 0 -1
outer loop
vertex 189 -196.321 0
vertex 169 -196.321 0
vertex 159 -179 0
endloop
endfacet
facet normal 0 0 -1
outer loop
vertex 159 -179 0
vertex 189 -161.679 0
vertex 189 -196.321 0
endloop
endfacet
facet normal -0.5798293279006249 0.16850973013885193 0.797121334148598
outer loop
vertex 160.20566313340623 -185.84031744475317 40
vertex 153.28849841719568 -209.64176181875726 40
vertex 159 -213.641 45
endloop
endfacet
facet normal -0.9350043137783213 0.1016548255595261 0.33975466097817264
outer loop
vertex 160.20566313340623 -185.84031744475317 40
vertex 159 -213.641 45
vertex 161.679 -189 45
endloop
endfacet
facet normal -0.5231243521677046 -0.7815980178077789 -0.33977264564421644
outer loop
vertex 139.60768987951167 -172.05407289332277 40
vertex 160.20566313340623 -185.84031744475317 40
vertex 161.679 -189 45
endloop
endfacet
facet normal -0.2436140486691006 -0.5524923009766562 -0.7971226082934602
outer loop
vertex 139.60768987951167 -172.05407289332277 40
vertex 161.679 -189 45
vertex 139 -179 45
endloop
endfacet
facet normal -0.14397372263242114 0.5864018370868114 0.7971226082934642
outer loop
vertex 163.67862668674485 -166.144162384509 40
vertex 139.60768987951167 -172.05407289332277 40
vertex 139 -179 45
endloop
endfacet
facet normal -0.37945384634383633 0.8605633781231902 0.3397726456442182
outer loop
vertex 163.67862668674485 -166.144162384509 40
vertex 139 -179 45
vertex 161.679 -169 45
endloop
endfacet
facet normal -0.9384516725182108 0.06225133485621114 -0.33975466097817214
outer loop
vertex 165.31919146231596 -141.4123110745655 40
vertex 163.67862668674485 -166.144162384509 40
vertex 161.679 -169 45
endloop
endfacet
facet normal -0.6002818250981503 -0.06526338255095 -0.7971213341485989
outer loop
vertex 165.31919146231596 -141.4123110745655 40
vertex 161.679 -169 45
vertex 159 -144.359 45
endloop
endfacet
facet normal 0.4358545255113877 0.4178819575670623 0.7971232665850138
outer loop
vertex 182.47296355333862 -159.3038449397558 40
vertex 165.31919146231596 -141.4123110745655 40
vertex 159 -144.359 45
endloop
endfacet
facet normal 0.555550377528082 0.7588967659696497 0.33976385421232247
outer loop
vertex 182.47296355333862 -159.3038449397558 40
vertex 159 -144.359 45
vertex 179 -159 45
endloop
endfacet
facet normal -0.4153292785305499 0.8438377295227333 -0.33976385421232086
outer loop
vertex 204.7115015828043 -148.3582381812427 40
vertex 182.47296355333862 -159.3038449397558 40
vertex 179 -159 45
endloop
endfacet
facet normal -0.35666847549766795 0.48721873573890134 -0.7971232665850095
outer loop
vertex 204.7115015828043 -148.3582381812427 40
vertex 179 -159 45
vertex 199 -144.359 45
endloop
endfacet
facet normal 0.5798293279006254 -0.16850973013884782 0.7971213341485985
outer loop
vertex 197.79433686659377 -172.1596825552468 40
vertex 204.7115015828043 -148.3582381812427 40
vertex 199 -144.359 45
endloop
endfacet
facet normal 0.9350043137783213 -0.10165482555952592 0.3397546609781726
outer loop
vertex 197.79433686659377 -172.1596825552468 40
vertex 199 -144.359 45
vertex 196.321 -169 45
endloop
endfacet
facet normal 0.5231243521677051 0.7815980178077798 -0.33977264564421333
outer loop
vertex 218.39231012048833 -185.9459271066772 40
vertex 197.79433686659377 -172.1596825552468 40
vertex 196.321 -169 45
endloop
endfacet
facet normal 0.2436140486691046 0.5524923009766548 -0.7971226082934598
outer loop
vertex 218.39231012048833 -185.9459271066772 40
vertex 196.321 -169 45
vertex 219 -179 45
endloop
endfacet
facet normal 0.14397372263240954 -0.5864018370868124 0.7971226082934655
outer loop
vertex 194.32137331325515 -191.85583761549097 40
vertex 218.39231012048833 -185.9459271066772 40
vertex 219 -179 45
endloop
endfacet
facet normal 0.37945384634383633 -0.8605633781231902 0.3397726456442182
outer loop
vertex 194.32137331325515 -191.85583761549097 40
vertex 219 -179 45
vertex 196.321 -189 45
endloop
endfacet
facet normal 0.9384516725182108 -0.06225133485621114 -0.33975466097817214
outer loop
vertex 192.68080853768402 -216.5876889254345 40
vertex 194.32137331325515 -191.85583761549097 40
vertex 196.321 -189 45
endloop
endfacet
facet normal 0.6002818250981503 0.06526338255094856 -0.7971213341485989
outer loop
vertex 192.68080853768402 -216.5876889254345 40
vertex 196.321 -189 45
vertex 199 -213.641 45
endloop
endfacet
facet normal -0.43585452551138554 -0.41788195756706004 0.7971232665850162
outer loop
vertex 175.52703644666138 -198.69615506024414 40
vertex 192.68080853768402 -216.5876889254345 40
vertex 199 -213.641 45
endloop
endfacet
facet normal -0.555550377528085 -0.7588967659696516 0.33976385421231337
outer loop
vertex 175.52703644666138 -198.69615506024414 40
vertex 199 -213.641 45
vertex 179 -199 45
endloop
endfacet
facet normal 0.41532927853054896 -0.8438377295227314 -0.3397638542123268
outer loop
vertex 153.28849841719568 -209.64176181875726 40
vertex 175.52703644666138 -198.69615506024414 40
vertex 179 -199 45
endloop
endfacet
facet normal 0.3566684754976532 -0.48721873573889396 -0.7971232665850206
outer loop
vertex 153.28849841719568 -209.64176181875726 40
vertex 179 -199 45
vertex 159 -213.641 45
endloop
endfacet
facet normal -0.541759009982638 0.26663599484652595 0.7971213341485945
outer loop
vertex 159.30338268211057 -182.47279530531517 35
vertex 148.35822779933733 -204.71148921013125 35
vertex 153.28849841719568 -209.64176181875726 40
endloop
endfacet
facet normal -0.903147322099291 0.2624722555404384 0.3397546609781744
outer loop
vertex 159.30338268211057 -182.47279530531517 35
vertex 153.28849841719568 -209.64176181875726 40
vertex 160.20566313340623 -185.84031744475317 40
endloop
endfacet
facet normal -0.6508999892646506 -0.6788841972289604 -0.33977264564421245
outer loop
vertex 141.41229516856365 -165.31919426697326 35
vertex 159.30338268211057 -182.47279530531517 35
vertex 160.20566313340623 -185.84031744475317 40
endloop
endfacet
facet normal -0.335852285111631 -0.5017955658759139 -0.7971226082934589
outer loop
vertex 141.41229516856365 -165.31919426697326 35
vertex 160.20566313340623 -185.84031744475317 40
vertex 139.60768987951167 -172.05407289332277 40
endloop
endfacet
facet normal -0.03995882788777475 0.6024938501107473 0.7971226082934566
outer loop
vertex 166.14378554862395 -163.67894288959698 35
vertex 141.41229516856365 -165.31919426697326 35
vertex 139.60768987951167 -172.05407289332277 40
endloop
endfacet
facet normal -0.22425382741173283 0.9133809556604069 0.33977264564421683
outer loop
vertex 166.14378554862395 -163.67894288959698 35
vertex 139.60768987951167 -172.05407289332277 40
vertex 163.67862668674485 -166.144162384509 40
endloop
endfacet
facet normal -0.9133846520680908 0.22426601996303247 -0.3397546609781734
outer loop
vertex 172.0540673692263 -139.60770505684198 35
vertex 166.14378554862395 -163.67894288959698 35
vertex 163.67862668674485 -166.144162384509 40
endloop
endfacet
facet normal -0.6024950627973302 0.03996595989089251 -0.797121334148598
outer loop
vertex 172.0540673692263 -139.60770505684198 35
vertex 163.67862668674485 -166.144162384509 40
vertex 165.31919146231596 -141.4123110745655 40
endloop
endfacet
facet normal 0.5017973563204792 0.3358480475730233 0.7971232665850159
outer loop
vertex 185.8404028665134 -160.2061475842818 35
vertex 172.0540673692263 -139.60770505684198 35
vertex 165.31919146231596 -141.4123110745655 40
endloop
endfacet
facet normal 0.678891359426471 0.6508971082028785 0.3397638542123168
outer loop
vertex 185.8404028665134 -160.2061475842818 35
vertex 165.31919146231596 -141.4123110745655 40
vertex 182.47296355333862 -159.3038449397558 40
endloop
endfacet
facet normal -0.2624886095716302 0.9031391106667568 -0.33976385421232175
outer loop
vertex 209.64177220066264 -153.2885107898687 35
vertex 185.8404028665134 -160.2061475842818 35
vertex 182.47296355333862 -159.3038449397558 40
endloop
endfacet
facet normal -0.2666452343389039 0.5417516191698731 -0.7971232665850193
outer loop
vertex 209.64177220066264 -153.2885107898687 35
vertex 182.47296355333862 -159.3038449397558 40
vertex 204.7115015828043 -148.3582381812427 40
endloop
endfacet
facet normal 0.5417590099826289 -0.2666359948465221 0.7971213341486021
outer loop
vertex 198.6966173178894 -175.5272046946848 35
vertex 209.64177220066264 -153.2885107898687 35
vertex 204.7115015828043 -148.3582381812427 40
endloop
endfacet
facet normal 0.9031473220992916 -0.26247225554043596 0.33975466097817464
outer loop
vertex 198.6966173178894 -175.5272046946848 35
vertex 204.7115015828043 -148.3582381812427 40
vertex 197.79433686659377 -172.1596825552468 40
endloop
endfacet
facet normal 0.6508999892646505 0.6788841972289593 -0.33977264564421505
outer loop
vertex 216.58770483143633 -192.68080573302674 35
vertex 198.6966173178894 -175.5272046946848 35
vertex 197.79433686659377 -172.1596825552468 40
endloop
endfacet
facet normal 0.33585228511163023 0.5017955658759102 -0.7971226082934615
outer loop
vertex 216.58770483143633 -192.68080573302674 35
vertex 197.79433686659377 -172.1596825552468 40
vertex 218.39231012048833 -185.9459271066772 40
endloop
endfacet
facet normal 0.03995882788776908 -0.6024938501107441 0.7971226082934595
outer loop
vertex 191.85621445137602 -194.321057110403 35
vertex 216.58770483143633 -192.68080573302674 35
vertex 218.39231012048833 -185.9459271066772 40
endloop
endfacet
facet normal 0.2242538274117328 -0.9133809556604078 0.3397726456442145
outer loop
vertex 191.85621445137602 -194.321057110403 35
vertex 218.39231012048833 -185.9459271066772 40
vertex 194.32137331325515 -191.85583761549097 40
endloop
endfacet
facet normal 0.9133846520680908 -0.22426601996303247 -0.3397546609781734
outer loop
vertex 185.94593263077365 -218.39229494315802 35
vertex 191.85621445137602 -194.321057110403 35
vertex 194.32137331325515 -191.85583761549097 40
endloop
endfacet
facet normal 0.6024950627973302 -0.03996595989089251 -0.797121334148598
outer loop
vertex 185.94593263077365 -218.39229494315802 35
vertex 194.32137331325515 -191.85583761549097 40
vertex 192.68080853768402 -216.5876889254345 40
endloop
endfacet
facet normal -0.5017973563204787 -0.3358480475730232 0.7971232665850163
outer loop
vertex 172.1595971334866 -197.79385241571816 35
vertex 185.94593263077365 -218.39229494315802 35
vertex 192.68080853768402 -216.5876889254345 40
endloop
endfacet
facet normal -0.678891359426471 -0.6508971082028766 0.33976385421232047
outer loop
vertex 172.1595971334866 -197.79385241571816 35
vertex 192.68080853768402 -216.5876889254345 40
vertex 175.52703644666138 -198.69615506024414 40
endloop
endfacet
facet normal 0.2624886095716302 -0.9031391106667568 -0.33976385421232175
outer loop
vertex 148.35822779933733 -204.71148921013125 35
vertex 172.1595971334866 -197.79385241571816 35
vertex 175.52703644666138 -198.69615506024414 40
endloop
endfacet
facet normal 0.2666452343388926 -0.5417516191698847 -0.7971232665850153
outer loop
vertex 148.35822779933733 -204.71148921013125 35
vertex 175.52703644666138 -198.69615506024414 40
vertex 153.28849841719568 -209.64176181875726 40
endloop
endfacet
facet normal -0.4872276186896171 0.35666065977510125 0.7971213341485942
outer loop
vertex 158.99957398104976 -178.99975403784438 30
vertex 144.35899192431123 -198.99998601249675 30
vertex 148.35822779933733 -204.71148921013125 35
endloop
endfacet
facet normal -0.8438486560528691 0.4153145988541377 0.3397546609781732
outer loop
vertex 158.99957398104976 -178.99975403784438 30
vertex 148.35822779933733 -204.71148921013125 35
vertex 159.30338268211057 -182.47279530531517 35
endloop
endfacet
facet normal -0.7588983595590736 -0.5555428238493157 -0.33977264564422377
outer loop
vertex 144.35898384862247 -159.00000000000003 30
vertex 158.99957398104976 -178.99975403784438 30
vertex 159.30338268211057 -182.47279530531517 35
endloop
endfacet
facet normal -0.4178858198204979 -0.4358520264268383 -0.7971226082934602
outer loop
vertex 144.35898384862247 -159.00000000000003 30
vertex 159.30338268211057 -182.47279530531517 35
vertex 141.41229516856365 -165.31919426697326 35
endloop
endfacet
facet normal 0.06527019562210896 0.6002793923756554 0.7971226082934579
outer loop
vertex 168.99957398104976 -161.67924596215562 30
vertex 144.35898384862247 -159.00000000000003 30
vertex 141.41229516856365 -165.31919426697326 35
endloop
endfacet
facet normal -0.062239969411618565 0.9384459150529509 0.3397726456442167
outer loop
vertex 168.99957398104976 -161.67924596215562 30
vertex 141.41229516856365 -165.31919426697326 35
vertex 166.14378554862395 -163.67894288959698 35
endloop
endfacet
facet normal -0.8605649011598144 0.37946649553734146 -0.33975466097819396
outer loop
vertex 178.99999192431122 -139.00001398750325 30
vertex 168.99957398104976 -161.67924596215562 30
vertex 166.14378554862395 -163.67894288959698 35
endloop
endfacet
facet normal -0.5864017928906251 0.14398095686520698 -0.7971213341485974
outer loop
vertex 178.99999192431122 -139.00001398750325 30
vertex 166.14378554862395 -163.67894288959698 35
vertex 172.0540673692263 -139.60770505684198 35
endloop
endfacet
facet normal 0.5524933283794843 0.243609564600793 0.797123266585019
outer loop
vertex 189 -161.67949192431124 30
vertex 178.99999192431122 -139.00001398750325 30
vertex 172.0540673692263 -139.60770505684198 35
endloop
endfacet
facet normal 0.7816045709042915 0.5231202711731904 0.3397638542123136
outer loop
vertex 189 -161.67949192431124 30
vertex 172.0540673692263 -139.60770505684198 35
vertex 185.8404028665134 -160.2061475842818 35
endloop
endfacet
facet normal -0.10167235703653615 0.934999066943611 -0.3397638542123218
outer loop
vertex 213.64100807568877 -159.00001398750325 30
vertex 189 -161.67949192431124 30
vertex 185.8404028665134 -160.2061475842818 35
endloop
endfacet
facet normal -0.168520112663735 0.5798236537919348 -0.7971232665850198
outer loop
vertex 213.64100807568877 -159.00001398750325 30
vertex 185.8404028665134 -160.2061475842818 35
vertex 209.64177220066264 -153.2885107898687 35
endloop
endfacet
facet normal 0.48722761868961567 -0.35666065977509237 0.7971213341485989
outer loop
vertex 199.00042601895024 -179.00024596215562 30
vertex 213.64100807568877 -159.00001398750325 30
vertex 209.64177220066264 -153.2885107898687 35
endloop
endfacet
facet normal 0.8438486560528691 -0.4153145988541377 0.3397546609781732
outer loop
vertex 199.00042601895024 -179.00024596215562 30
vertex 209.64177220066264 -153.2885107898687 35
vertex 198.6966173178894 -175.5272046946848 35
endloop
endfacet
facet normal 0.7588983595590738 0.5555428238493159 -0.33977264564422316
outer loop
vertex 213.64101615137753 -199.00000000000003 30
vertex 199.00042601895024 -179.00024596215562 30
vertex 198.6966173178894 -175.5272046946848 35
endloop
endfacet
facet normal 0.4178858198204989 0.4358520264268359 -0.7971226082934609
outer loop
vertex 213.64101615137753 -199.00000000000003 30
vertex 198.6966173178894 -175.5272046946848 35
vertex 216.58770483143633 -192.68080573302674 35
endloop
endfacet
facet normal -0.06527019562210891 -0.600279392375652 0.7971226082934606
outer loop
vertex 189.00042601895024 -196.3207540378444 30
vertex 213.64101615137753 -199.00000000000003 30
vertex 216.58770483143633 -192.68080573302674 35
endloop
endfacet
facet normal 0.06223996941161615 -0.938445915052951 0.3397726456442167
outer loop
vertex 189.00042601895024 -196.3207540378444 30
vertex 216.58770483143633 -192.68080573302674 35
vertex 191.85621445137602 -194.321057110403 35
endloop
endfacet
facet normal 0.8605649011598242 -0.3794664955373458 -0.33975466097816465
outer loop
vertex 179.00000807568878 -218.99998601249675 30
vertex 189.00042601895024 -196.3207540378444 30
vertex 191.85621445137602 -194.321057110403 35
endloop
endfacet
facet normal 0.5864017928906244 -0.14398095686521534 -0.7971213341485965
outer loop
vertex 179.00000807568878 -218.99998601249675 30
vertex 191.85621445137602 -194.321057110403 35
vertex 185.94593263077365 -218.39229494315802 35
endloop
endfacet
facet normal -0.5524933283794909 -0.24360956460079258 0.7971232665850145
outer loop
vertex 169 -196.32050807568876 30
vertex 179.00000807568878 -218.99998601249675 30
vertex 185.94593263077365 -218.39229494315802 35
endloop
endfacet
facet normal -0.7816045709042926 -0.5231202711731875 0.3397638542123151
outer loop
vertex 169 -196.32050807568876 30
vertex 185.94593263077365 -218.39229494315802 35
vertex 172.1595971334866 -197.79385241571816 35
endloop
endfacet
facet normal 0.10167235703653375 -0.9349990669436121 -0.33976385421231964
outer loop
vertex 144.35899192431123 -198.99998601249675 30
vertex 169 -196.32050807568876 30
vertex 172.1595971334866 -197.79385241571816 35
endloop
endfacet
facet normal 0.16852011266373504 -0.5798236537919442 -0.797123266585013
outer loop
vertex 144.35899192431123 -198.99998601249675 30
vertex 172.1595971334866 -197.79385241571816 35
vertex 148.35822779933733 -204.71148921013125 35
endloop
endfacet
facet normal -0.4178920627517741 0.43584837103542123 0.7971213341485957
outer loop
vertex 159.30346810387078 -175.52672024380922 25
vertex 141.41230555046906 -192.68079336035373 25
vertex 144.35899192431123 -198.99998601249675 30
endloop
endfacet
facet normal -0.7589100756002892 0.5555378182409862 0.33975466097819496
outer loop
vertex 159.30346810387078 -175.52672024380922 25
vertex 144.35899192431123 -198.99998601249675 30
vertex 158.99957398104976 -178.99975403784438 30
endloop
endfacet
facet normal -0.8438379872194016 -0.4153215628852463 -0.33977264564420934
outer loop
vertex 148.3582222752409 -153.28849561253844 25
vertex 159.30346810387078 -175.52672024380922 25
vertex 158.99957398104976 -178.99975403784438 30
endloop
endfacet
facet normal -0.4872221053545476 -0.3566653437065516 -0.7971226082934603
outer loop
vertex 148.3582222752409 -153.28849561253844 25
vertex 158.99957398104976 -178.99975403784438 30
vertex 144.35898384862247 -159.00000000000003 30
endloop
endfacet
facet normal 0.16851601726632245 0.5798257490592543 0.7971226082934614
outer loop
vertex 172.15922029760156 -160.20583138142968 25
vertex 148.3582222752409 -153.28849561253844 25
vertex 144.35898384862247 -159.00000000000003 30
endloop
endfacet
facet normal 0.10166501856411157 0.9349966701931557 0.33977264564421644
outer loop
vertex 172.15922029760156 -160.20583138142968 25
vertex 144.35898384862247 -159.00000000000003 30
vertex 168.99957398104976 -161.67924596215562 30
endloop
endfacet
facet normal -0.781597321196664 0.5231370736640649 -0.3397546609781794
outer loop
vertex 185.94591672477185 -139.6077022521847 25
vertex 172.15922029760156 -160.20583138142968 25
vertex 168.99957398104976 -161.67924596215562 30
endloop
endfacet
facet normal -0.5524910012405658 0.2436211653230491 -0.7971213341485954
outer loop
vertex 185.94591672477185 -139.6077022521847 25
vertex 168.99957398104976 -161.67924596215562 30
vertex 178.99999192431122 -139.00001398750325 30
endloop
endfacet
facet normal 0.5864020702308029 0.14396912828054725 0.7971232665850168
outer loop
vertex 191.85575219373078 -163.67911113762045 25
vertex 185.94591672477185 -139.6077022521847 25
vertex 178.99999192431122 -139.00001398750325 30
endloop
endfacet
facet normal 0.8605691230061852 0.3794486894155281 0.3397638542123093
outer loop
vertex 191.85575219373078 -163.67911113762045 25
vertex 178.99999192431122 -139.00001398750325 30
vertex 189 -161.67949192431124 30
endloop
endfacet
facet normal 0.062233158618426314 0.9384495497037454 -0.3397638542123209
outer loop
vertex 216.58769444953094 -165.31920663964627 25
vertex 191.85575219373078 -163.67911113762045 25
vertex 189 -161.67949192431124 30
endloop
endfacet
facet normal -0.06527459264058862 0.6002780400984464 -0.7971232665850202
outer loop
vertex 216.58769444953094 -165.31920663964627 25
vertex 189 -161.67949192431124 30
vertex 213.64100807568877 -159.00001398750325 30
endloop
endfacet
facet normal 0.4178920627517741 -0.43584837103540736 0.7971213341486033
outer loop
vertex 198.69653189612922 -182.47327975619078 25
vertex 216.58769444953094 -165.31920663964627 25
vertex 213.64100807568877 -159.00001398750325 30
endloop
endfacet
facet normal 0.7589100756002942 -0.5555378182409794 0.33975466097819496
outer loop
vertex 198.69653189612922 -182.47327975619078 25
vertex 213.64100807568877 -159.00001398750325 30
vertex 199.00042601895024 -179.00024596215562 30
endloop
endfacet
facet normal 0.8438379872193964 0.41532156288525085 -0.3397726456442168
outer loop
vertex 209.64177772475915 -204.71150438746156 25
vertex 198.69653189612922 -182.47327975619078 25
vertex 199.00042601895024 -179.00024596215562 30
endloop
endfacet
facet normal 0.48722210535455174 0.35666534370655284 -0.7971226082934574
outer loop
vertex 209.64177772475915 -204.71150438746156 25
vertex 199.00042601895024 -179.00024596215562 30
vertex 213.64101615137753 -199.00000000000003 30
endloop
endfacet
facet normal -0.16851601726632023 -0.5798257490592655 0.7971226082934536
outer loop
vertex 185.84077970239844 -197.79416861857032 25
vertex 209.64177772475915 -204.71150438746156 25
vertex 213.64101615137753 -199.00000000000003 30
endloop
endfacet
facet normal -0.10166501856411174 -0.9349966701931556 0.3397726456442164
outer loop
vertex 185.84077970239844 -197.79416861857032 25
vertex 213.64101615137753 -199.00000000000003 30
vertex 189.00042601895024 -196.3207540378444 30
endloop
endfacet
facet normal 0.781597321196664 -0.5231370736640649 -0.3397546609781794
outer loop
vertex 172.05408327522815 -218.3922977478153 25
vertex 185.84077970239844 -197.79416861857032 25
vertex 189.00042601895024 -196.3207540378444 30
endloop
endfacet
facet normal 0.5524910012405658 -0.2436211653230491 -0.7971213341485954
outer loop
vertex 172.05408327522815 -218.3922977478153 25
vertex 189.00042601895024 -196.3207540378444 30
vertex 179.00000807568878 -218.99998601249675 30
endloop
endfacet
facet normal -0.5864020702308042 -0.14396912828055278 0.7971232665850149
outer loop
vertex 166.14424780626922 -194.32088886237955 25
vertex 172.05408327522815 -218.3922977478153 25
vertex 179.00000807568878 -218.99998601249675 30
endloop
endfacet
facet normal -0.8605691230061808 -0.3794486894155317 0.33976385421231675
outer loop
vertex 166.14424780626922 -194.32088886237955 25
vertex 179.00000807568878 -218.99998601249675 30
vertex 169 -196.32050807568876 30
endloop
endfacet
facet normal -0.062233158618426314 -0.9384495497037454 -0.3397638542123209
outer loop
vertex 141.41230555046906 -192.68079336035373 25
vertex 166.14424780626922 -194.32088886237955 25
vertex 169 -196.32050807568876 30
endloop
endfacet
facet normal 0.06527459264058862 -0.6002780400984464 -0.7971232665850202
outer loop
vertex 141.41230555046906 -192.68079336035373 25
vertex 169 -196.32050807568876 30
vertex 144.35899192431123 -198.99998601249675 30
endloop
endfacet
facet normal -0.33585906795081827 0.5017930500917341 0.7971213341485986
outer loop
vertex 160.20583138142968 -172.15922029760156 20
vertex 139.6077022521847 -185.94591672477185 20
vertex 141.41230555046906 -192.68079336035373 25
endloop
endfacet
facet normal -0.6509123965276516 0.6788813021362688 0.33975466097817286
outer loop
vertex 160.20583138142968 -172.15922029760156 20
vertex 141.41230555046906 -192.68079336035373 25
vertex 159.30346810387078 -175.52672024380922 25
endloop
endfacet
facet normal -0.9031380246406847 -0.2624809663957576 -0.3397726456442179
outer loop
vertex 153.2884956125384 -148.35822227524085 20
vertex 160.20583138142968 -172.15922029760156 20
vertex 159.30346810387078 -175.52672024380922 25
endloop
endfacet
facet normal -0.5417543937636838 -0.26664156499911307 -0.7971226082934589
outer loop
vertex 153.2884956125384 -148.35822227524085 20
vertex 159.30346810387078 -175.52672024380922 25
vertex 148.3582222752409 -153.28849561253844 25
endloop
endfacet
facet normal 0.2666415649991133 0.5417543937636822 0.7971226082934599
outer loop
vertex 175.52672024380925 -159.30346810387078 20
vertex 153.2884956125384 -148.35822227524085 20
vertex 148.3582222752409 -153.28849561253844 25
endloop
endfacet
facet normal 0.2624809663957588 0.9031380246406844 0.3397726456442178
outer loop
vertex 175.52672024380925 -159.30346810387078 20
vertex 148.3582222752409 -153.28849561253844 25
vertex 172.15922029760156 -160.20583138142968 25
endloop
endfacet
facet normal -0.6788813021362688 0.6509123965276516 -0.33975466097817286
outer loop
vertex 192.68079336035373 -141.41230555046906 20
vertex 175.52672024380925 -159.30346810387078 20
vertex 172.15922029760156 -160.20583138142968 25
endloop
endfacet
facet normal -0.5017930500917349 0.33585906795081477 -0.7971213341485999
outer loop
vertex 192.68079336035373 -141.41230555046906 20
vertex 172.15922029760156 -160.20583138142968 25
vertex 185.94591672477185 -139.6077022521847 25
endloop
endfacet
facet normal 0.6024932819119175 0.03995426284940249 0.7971232665850166
outer loop
vertex 194.32088886237955 -166.14424780626922 20
vertex 192.68079336035373 -141.41230555046906 20
vertex 185.94591672477185 -139.6077022521847 25
endloop
endfacet
facet normal 0.9133857177745139 0.22424775124028526 0.33976385421232064
outer loop
vertex 194.32088886237955 -166.14424780626922 20
vertex 185.94591672477185 -139.6077022521847 25
vertex 191.85575219373078 -163.67911113762045 25
endloop
endfacet
facet normal 0.22424775124028526 0.9133857177745139 -0.33976385421232064
outer loop
vertex 218.3922977478153 -172.05408327522815 20
vertex 194.32088886237955 -166.14424780626922 20
vertex 191.85575219373078 -163.67911113762045 25
endloop
endfacet
facet normal 0.03995426284940249 0.6024932819119175 -0.7971232665850166
outer loop
vertex 218.3922977478153 -172.05408327522815 20
vertex 191.85575219373078 -163.67911113762045 25
vertex 216.58769444953094 -165.31920663964627 25
endloop
endfacet
facet normal 0.3358590679508034 -0.5017930500917471 0.7971213341485968
outer loop
vertex 197.79416861857032 -185.84077970239844 20
vertex 218.3922977478153 -172.05408327522815 20
vertex 216.58769444953094 -165.31920663964627 25
endloop
endfacet
facet normal 0.6509123965276516 -0.6788813021362688 0.33975466097817286
outer loop
vertex 197.79416861857032 -185.84077970239844 20
vertex 216.58769444953094 -165.31920663964627 25
vertex 198.69653189612922 -182.47327975619078 25
endloop
endfacet
facet normal 0.9031380246406849 0.26248096639575663 -0.339772645644218
outer loop
vertex 204.71150438746156 -209.64177772475915 20
vertex 197.79416861857032 -185.84077970239844 20
vertex 198.69653189612922 -182.47327975619078 25
endloop
endfacet
facet normal 0.5417543937636782 0.26664156499911307 -0.7971226082934628
outer loop
vertex 204.71150438746156 -209.64177772475915 20
vertex 198.69653189612922 -182.47327975619078 25
vertex 209.64177772475915 -204.71150438746156 25
endloop
endfacet
facet normal -0.26664156499911307 -0.5417543937636806 0.7971226082934612
outer loop
vertex 182.47327975619078 -198.69653189612922 20
vertex 204.71150438746156 -209.64177772475915 20
vertex 209.64177772475915 -204.71150438746156 25
endloop
endfacet
facet normal -0.26248096639575663 -0.9031380246406849 0.339772645644218
outer loop
vertex 182.47327975619078 -198.69653189612922 20
vertex 209.64177772475915 -204.71150438746156 25
vertex 185.84077970239844 -197.79416861857032 25
endloop
endfacet
facet normal 0.6788813021362688 -0.6509123965276516 -0.33975466097817286
outer loop
vertex 165.31920663964627 -216.58769444953094 20
vertex 182.47327975619078 -198.69653189612922 20
vertex 185.84077970239844 -197.79416861857032 25
endloop
endfacet
facet normal 0.5017930500917349 -0.33585906795081477 -0.7971213341485999
outer loop
vertex 165.31920663964627 -216.58769444953094 20
vertex 185.84077970239844 -197.79416861857032 25
vertex 172.05408327522815 -218.3922977478153 25
endloop
endfacet
facet normal -0.6024932819119174 -0.03995426284940677 0.7971232665850164
outer loop
vertex 163.67911113762045 -191.85575219373078 20
vertex 165.31920663964627 -216.58769444953094 20
vertex 172.05408327522815 -218.3922977478153 25
endloop
endfacet
facet normal -0.9133857177745139 -0.22424775124028526 0.33976385421232064
outer loop
vertex 163.67911113762045 -191.85575219373078 20
vertex 172.05408327522815 -218.3922977478153 25
vertex 166.14424780626922 -194.32088886237955 25
endloop
endfacet
facet normal -0.22424775124028526 -0.9133857177745139 -0.33976385421232064
outer loop
vertex 139.6077022521847 -185.94591672477185 20
vertex 163.67911113762045 -191.85575219373078 20
vertex 166.14424780626922 -194.32088886237955 25
endloop
endfacet
facet normal -0.03995426284940679 -0.6024932819119174 -0.7971232665850164
outer loop
vertex 139.6077022521847 -185.94591672477185 20
vertex 166.14424780626922 -194.32088886237955 25
vertex 141.41230555046906 -192.68079336035373 25
endloop
endfacet
facet normal -0.24362116532306127 0.552491001240564 0.7971213341485929
outer loop
vertex 161.6792459621556 -168.99957398104974 15
vertex 139.00001398750328 -178.99999192431127 15
vertex 139.6077022521847 -185.94591672477185 20
endloop
endfacet
facet normal -0.5231370736640649 0.781597321196664 0.3397546609781794
outer loop
vertex 161.6792459621556 -168.99957398104974 15
vertex 139.6077022521847 -185.94591672477185 20
vertex 160.20583138142968 -172.15922029760156 20
endloop
endfacet
facet normal -0.9349966701931557 -0.10166501856411157 -0.33977264564421644
outer loop
vertex 159 -144.35898384862247 15
vertex 161.6792459621556 -168.99957398104974 15
vertex 160.20583138142968 -172.15922029760156 20
endloop
endfacet
facet normal -0.5798257490592575 -0.16851601726632026 -0.7971226082934595
outer loop
vertex 159 -144.35898384862247 15
vertex 160.20583138142968 -172.15922029760156 20
vertex 153.2884956125384 -148.35822227524085 20
endloop
endfacet
facet normal 0.35666534370655206 0.4872221053545504 0.7971226082934585
outer loop
vertex 178.99975403784438 -158.99957398104974 15
vertex 159 -144.35898384862247 15
vertex 153.2884956125384 -148.35822227524085 20
endloop
endfacet
facet normal 0.4153215628852465 0.8438379872193985 0.3397726456442168
outer loop
vertex 178.99975403784438 -158.99957398104974 15
vertex 153.2884956125384 -148.35822227524085 20
vertex 175.52672024380925 -159.30346810387078 20
endloop
endfacet
facet normal -0.5555378182409936 0.7589100756002992 -0.3397546609781607
outer loop
vertex 198.99998601249672 -144.35899192431125 15
vertex 178.99975403784438 -158.99957398104974 15
vertex 175.52672024380925 -159.30346810387078 20
endloop
endfacet
facet normal -0.43584837103541824 0.41789206275177404 -0.7971213341485973
outer loop
vertex 198.99998601249672 -144.35899192431125 15
vertex 175.52672024380925 -159.30346810387078 20
vertex 192.68079336035373 -141.41230555046906 20
endloop
endfacet
facet normal 0.6002780400984555 -0.06527459264058862 0.7971232665850134
outer loop
vertex 196.32050807568874 -169.00000000000003 15
vertex 198.99998601249672 -144.35899192431125 15
vertex 192.68079336035373 -141.41230555046906 20
endloop
endfacet
facet normal 0.9384495497037454 0.062233158618426314 0.3397638542123209
outer loop
vertex 196.32050807568874 -169.00000000000003 15
vertex 192.68079336035373 -141.41230555046906 20
vertex 194.32088886237955 -166.14424780626922 20
endloop
endfacet
facet normal 0.379448689415526 0.8605691230061804 -0.33976385421232397
outer loop
vertex 218.99998601249672 -179.00000807568878 15
vertex 196.32050807568874 -169.00000000000003 15
vertex 194.32088886237955 -166.14424780626922 20
endloop
endfacet
facet normal 0.14396912828054698 0.5864020702308029 -0.7971232665850168
outer loop
vertex 218.99998601249672 -179.00000807568878 15
vertex 194.32088886237955 -166.14424780626922 20
vertex 218.3922977478153 -172.05408327522815 20
endloop
endfacet
facet normal 0.2436211653230491 -0.5524910012405562 0.7971213341486021
outer loop
vertex 196.32075403784438 -189.00042601895026 15
vertex 218.99998601249672 -179.00000807568878 15
vertex 218.3922977478153 -172.05408327522815 20
endloop
endfacet
facet normal 0.5231370736640584 -0.7815973211966685 0.3397546609781794
outer loop
vertex 196.32075403784438 -189.00042601895026 15
vertex 218.3922977478153 -172.05408327522815 20
vertex 197.79416861857032 -185.84077970239844 20
endloop
endfacet
facet normal 0.9349966701931556 0.10166501856411174 -0.3397726456442164
outer loop
vertex 199 -213.64101615137756 15
vertex 196.32075403784438 -189.00042601895026 15
vertex 197.79416861857032 -185.84077970239844 20
endloop
endfacet
facet normal 0.579825749059261 0.16851601726632023 -0.797122608293457
outer loop
vertex 199 -213.64101615137756 15
vertex 197.79416861857032 -185.84077970239844 20
vertex 204.71150438746156 -209.64177772475915 20
endloop
endfacet
facet normal -0.3566653437065516 -0.4872221053545476 0.7971226082934603
outer loop
vertex 179.0002459621556 -199.00042601895026 15
vertex 199 -213.64101615137756 15
vertex 204.71150438746156 -209.64177772475915 20
endloop
endfacet
facet normal -0.41532156288525324 -0.8438379872193942 0.3397726456442191
outer loop
vertex 179.0002459621556 -199.00042601895026 15
vertex 204.71150438746156 -209.64177772475915 20
vertex 182.47327975619078 -198.69653189612922 20
endloop
endfacet
facet normal 0.555537818240984 -0.7589100756003005 -0.3397546609781734
outer loop
vertex 159.00001398750328 -213.6410080756888 15
vertex 179.0002459621556 -199.00042601895026 15
vertex 182.47327975619078 -198.69653189612922 20
endloop
endfacet
facet normal 0.43584837103542196 -0.417892062751771 -0.797121334148597
outer loop
vertex 159.00001398750328 -213.6410080756888 15
vertex 182.47327975619078 -198.69653189612922 20
vertex 165.31920663964627 -216.58769444953094 20
endloop
endfacet
facet normal -0.6002780400984589 0.06527459264058862 0.7971232665850108
outer loop
vertex 161.6794919243112 -189.00000000000003 15
vertex 159.00001398750328 -213.6410080756888 15
vertex 165.31920663964627 -216.58769444953094 20
endloop
endfacet
facet normal -0.9384495497037438 -0.06223315861843965 0.33976385421232297
outer loop
vertex 161.6794919243112 -189.00000000000003 15
vertex 165.31920663964627 -216.58769444953094 20
vertex 163.67911113762045 -191.85575219373078 20
endloop
endfacet
facet normal -0.37944868941552545 -0.8605691230061863 -0.3397638542123093
outer loop
vertex 139.00001398750328 -178.99999192431127 15
vertex 161.6794919243112 -189.00000000000003 15
vertex 163.67911113762045 -191.85575219373078 20
endloop
endfacet
facet normal -0.14396912828055264 -0.5864020702308059 -0.7971232665850136
outer loop
vertex 139.00001398750328 -178.99999192431127 15
vertex 163.67911113762045 -191.85575219373078 20
vertex 139.6077022521847 -185.94591672477185 20
endloop
endfacet
facet normal -0.14398095686520698 0.5864017928906251 0.7971213341485974
outer loop
vertex 163.67894288959704 -166.14378554862398 10
vertex 139.607705056842 -172.05406736922632 10
vertex 139.00001398750328 -178.99999192431127 15
endloop
endfacet
facet normal -0.3794664955373458 0.8605649011598242 0.33975466097816465
outer loop
vertex 163.67894288959704 -166.14378554862398 10
vertex 139.00001398750328 -178.99999192431127 15
vertex 161.6792459621556 -168.99957398104974 15
endloop
endfacet
facet normal -0.93844591505295 0.062239969411618676 -0.33977264564421894
outer loop
vertex 165.31919426697328 -141.41229516856367 10
vertex 163.67894288959704 -166.14378554862398 10
vertex 161.6792459621556 -168.99957398104974 15
endloop
endfacet
facet normal -0.600279392375652 -0.06527019562210896 -0.7971226082934605
outer loop
vertex 165.31919426697328 -141.41229516856367 10
vertex 161.6792459621556 -168.99957398104974 15
vertex 159 -144.35898384862247 15
endloop
endfacet
facet normal 0.4358520264268365 0.41788581982049605 0.797122608293462
outer loop
vertex 182.4727953053152 -159.3033826821106 10
vertex 165.31919426697328 -141.41229516856367 10
vertex 159 -144.35898384862247 15
endloop
endfacet
facet normal 0.5555428238493164 0.7588983595590757 0.33977264564421783
outer loop
vertex 182.4727953053152 -159.3033826821106 10
vertex 159 -144.35898384862247 15
vertex 178.99975403784438 -158.99957398104974 15
endloop
endfacet
facet normal -0.4153145988541377 0.8438486560528691 -0.3397546609781732
outer loop
vertex 204.71148921013128 -148.35822779933736 10
vertex 182.4727953053152 -159.3033826821106 10
vertex 178.99975403784438 -158.99957398104974 15
endloop
endfacet
facet normal -0.35666065977510125 0.4872276186896139 -0.797121334148596
outer loop
vertex 204.71148921013128 -148.35822779933736 10
vertex 178.99975403784438 -158.99957398104974 15
vertex 198.99998601249672 -144.35899192431125 15
endloop
endfacet
facet normal 0.5798236537919348 -0.168520112663735 0.7971232665850198
outer loop
vertex 197.7938524157182 -172.1595971334866 10
vertex 204.71148921013128 -148.35822779933736 10
vertex 198.99998601249672 -144.35899192431125 15
endloop
endfacet
facet normal 0.9349990669436105 -0.10167235703653374 0.3397638542123242
outer loop
vertex 197.7938524157182 -172.1595971334866 10
vertex 198.99998601249672 -144.35899192431125 15
vertex 196.32050807568874 -169.00000000000003 15
endloop
endfacet
facet normal 0.5231202711731906 0.7816045709042954 -0.3397638542123044
outer loop
vertex 218.39229494315805 -185.94593263077368 10
vertex 197.7938524157182 -172.1595971334866 10
vertex 196.32050807568874 -169.00000000000003 15
endloop
endfacet
facet normal 0.24360956460079541 0.5524933283794905 -0.797123266585014
outer loop
vertex 218.39229494315805 -185.94593263077368 10
vertex 196.32050807568874 -169.00000000000003 15
vertex 218.99998601249672 -179.00000807568878 15
endloop
endfacet
facet normal 0.14398095686520698 -0.5864017928906251 0.7971213341485974
outer loop
vertex 194.32105711040302 -191.85621445137602 10
vertex 218.39229494315805 -185.94593263077368 10
vertex 218.99998601249672 -179.00000807568878 15
endloop
endfacet
facet normal 0.3794664955373458 -0.8605649011598242 0.33975466097816465
outer loop
vertex 194.32105711040302 -191.85621445137602 10
vertex 218.99998601249672 -179.00000807568878 15
vertex 196.32075403784438 -189.00042601895026 15
endloop
endfacet
facet normal 0.938445915052951 -0.06223996941161626 -0.3397726456442167
outer loop
vertex 192.68080573302677 -216.5877048314363 10
vertex 194.32105711040302 -191.85621445137602 10
vertex 196.32075403784438 -189.00042601895026 15
endloop
endfacet
facet normal 0.6002793923756554 0.06527019562210896 -0.7971226082934579
outer loop
vertex 192.68080573302677 -216.5877048314363 10
vertex 196.32075403784438 -189.00042601895026 15
vertex 199 -213.64101615137756 15
endloop
endfacet
facet normal -0.43585202642683996 -0.41788581982050155 0.7971226082934573
outer loop
vertex 175.52720469468485 -198.6966173178894 10
vertex 192.68080573302677 -216.5877048314363 10
vertex 199 -213.64101615137756 15
endloop
endfacet
facet normal -0.5555428238493157 -0.7588983595590807 0.33977264564420806
outer loop
vertex 175.52720469468485 -198.6966173178894 10
vertex 199 -213.64101615137756 15
vertex 179.0002459621556 -199.00042601895026 15
endloop
endfacet
facet normal 0.4153145988541377 -0.8438486560528691 -0.3397546609781732
outer loop
vertex 153.28851078986878 -209.64177220066264 10
vertex 175.52720469468485 -198.6966173178894 10
vertex 179.0002459621556 -199.00042601895026 15
endloop
endfacet
facet normal 0.35666065977510125 -0.4872276186896139 -0.797121334148596
outer loop
vertex 153.28851078986878 -209.64177220066264 10
vertex 179.0002459621556 -199.00042601895026 15
vertex 159.00001398750328 -213.6410080756888 15
endloop
endfacet
facet normal -0.5798236537919348 0.168520112663735 0.7971232665850198
outer loop
vertex 160.20614758428187 -185.84040286651336 10
vertex 153.28851078986878 -209.64177220066264 10
vertex 159.00001398750328 -213.6410080756888 15
endloop
endfacet
facet normal -0.9349990669436121 0.10167235703653375 0.33976385421231964
outer loop
vertex 160.20614758428187 -185.84040286651336 10
vertex 159.00001398750328 -213.6410080756888 15
vertex 161.6794919243112 -189.00000000000003 15
endloop
endfacet
facet normal -0.5231202711731845 -0.7816045709042897 -0.3397638542123264
outer loop
vertex 139.607705056842 -172.05406736922632 10
vertex 160.20614758428187 -185.84040286651336 10
vertex 161.6794919243112 -189.00000000000003 15
endloop
endfacet
facet normal -0.243609564600793 -0.5524933283794843 -0.797123266585019
outer loop
vertex 139.607705056842 -172.05406736922632 10
vertex 161.6794919243112 -189.00000000000003 15
vertex 139.00001398750328 -178.99999192431127 15
endloop
endfacet
facet normal -0.03996595989089251 0.6024950627973302 0.797121334148598
outer loop
vertex 166.14416238450903 -163.67862668674482 5
vertex 141.4123110745655 -165.31919146231596 5
vertex 139.607705056842 -172.05406736922632 10
endloop
endfacet
facet normal -0.2242660199630065 0.9133846520680964 0.33975466097817547
outer loop
vertex 166.14416238450903 -163.67862668674482 5
vertex 139.607705056842 -172.05406736922632 10
vertex 163.67894288959704 -166.14378554862398 10
endloop
endfacet
facet normal -0.9133809556604069 0.22425382741173283 -0.33977264564421683
outer loop
vertex 172.0540728933228 -139.60768987951167 5
vertex 166.14416238450903 -163.67862668674482 5
vertex 163.67894288959704 -166.14378554862398 10
endloop
endfacet
facet normal -0.6024938501107441 0.03995882788776908 -0.7971226082934595
outer loop
vertex 172.0540728933228 -139.60768987951167 5
vertex 163.67894288959704 -166.14378554862398 10
vertex 165.31919426697328 -141.41229516856367 10
endloop
endfacet
facet normal 0.5017955658759152 0.3358522851116308 0.7971226082934582
outer loop
vertex 185.8403174447532 -160.20566313340623 5
vertex 172.0540728933228 -139.60768987951167 5
vertex 165.31919426697328 -141.41229516856367 10
endloop
endfacet
facet normal 0.6788841972289593 0.6508999892646504 0.339772645644215
outer loop
vertex 185.8403174447532 -160.20566313340623 5
vertex 165.31919426697328 -141.41229516856367 10
vertex 182.4727953053152 -159.3033826821106 10
endloop
endfacet
facet normal -0.2624722555404408 0.9031473220992904 -0.3397546609781742
outer loop
vertex 209.6417618187573 -153.28849841719568 5
vertex 185.8403174447532 -160.20566313340623 5
vertex 182.4727953053152 -159.3033826821106 10
endloop
endfacet
facet normal -0.2666359948465221 0.5417590099826386 -0.7971213341485953
outer loop
vertex 209.6417618187573 -153.28849841719568 5
vertex 182.4727953053152 -159.3033826821106 10
vertex 204.71148921013128 -148.35822779933736 10
endloop
endfacet
facet normal 0.5417516191698847 -0.2666452343388926 0.7971232665850153
outer loop
vertex 198.6961550602442 -175.52703644666138 5
vertex 209.6417618187573 -153.28849841719568 5
vertex 204.71148921013128 -148.35822779933736 10
endloop
endfacet
facet normal 0.9031391106667568 -0.2624886095716302 0.33976385421232175
outer loop
vertex 198.6961550602442 -175.52703644666138 5
vertex 204.71148921013128 -148.35822779933736 10
vertex 197.7938524157182 -172.1595971334866 10
endloop
endfacet
facet normal 0.6508971082028778 0.6788913594264723 -0.3397638542123158
outer loop
vertex 216.58768892543452 -192.68080853768402 5
vertex 198.6961550602442 -175.52703644666138 5
vertex 197.7938524157182 -172.1595971334866 10
endloop
endfacet
facet normal 0.33584804757302417 0.5017973563204806 -0.7971232665850146
outer loop
vertex 216.58768892543452 -192.68080853768402 5
vertex 197.7938524157182 -172.1595971334866 10
vertex 218.39229494315805 -185.94593263077368 10
endloop
endfacet
facet normal 0.03996595989089251 -0.6024950627973302 0.797121334148598
outer loop
vertex 191.855837615491 -194.32137331325515 5
vertex 216.58768892543452 -192.68080853768402 5
vertex 218.39229494315805 -185.94593263077368 10
endloop
endfacet
facet normal 0.22426601996303247 -0.9133846520680908 0.3397546609781734
outer loop
vertex 191.855837615491 -194.32137331325515 5
vertex 218.39229494315805 -185.94593263077368 10
vertex 194.32105711040302 -191.85621445137602 10
endloop
endfacet
facet normal 0.9133809556604078 -0.2242538274117328 -0.3397726456442145
outer loop
vertex 185.94592710667723 -218.39231012048833 5
vertex 191.855837615491 -194.32137331325515 5
vertex 194.32105711040302 -191.85621445137602 10
endloop
endfacet
facet normal 0.6024938501107441 -0.0399588278877691 -0.7971226082934594
outer loop
vertex 185.94592710667723 -218.39231012048833 5
vertex 194.32105711040302 -191.85621445137602 10
vertex 192.68080573302677 -216.5877048314363 10
endloop
endfacet
facet normal -0.501795565875911 -0.33585228511162885 0.7971226082934617
outer loop
vertex 172.15968255524683 -197.79433686659374 5
vertex 185.94592710667723 -218.39231012048833 5
vertex 192.68080573302677 -216.5877048314363 10
endloop
endfacet
facet normal -0.6788841972289585 -0.6508999892646514 0.33977264564421494
outer loop
vertex 172.15968255524683 -197.79433686659374 5
vertex 192.68080573302677 -216.5877048314363 10
vertex 175.52720469468485 -198.6966173178894 10
endloop
endfacet
facet normal 0.2624722555404408 -0.9031473220992904 -0.3397546609781742
outer loop
vertex 148.3582381812427 -204.7115015828043 5
vertex 172.15968255524683 -197.79433686659374 5
vertex 175.52720469468485 -198.6966173178894 10
endloop
endfacet
facet normal 0.2666359948465221 -0.5417590099826386 -0.7971213341485953
outer loop
vertex 148.3582381812427 -204.7115015828043 5
vertex 175.52720469468485 -198.6966173178894 10
vertex 153.28851078986878 -209.64177220066264 10
endloop
endfacet
facet normal -0.5417516191698847 0.2666452343388926 0.7971232665850153
outer loop
vertex 159.30384493975586 -182.4729635533386 5
vertex 148.3582381812427 -204.7115015828043 5
vertex 153.28851078986878 -209.64177220066264 10
endloop
endfacet
facet normal -0.9031391106667568 0.2624886095716302 0.33976385421232175
outer loop
vertex 159.30384493975586 -182.4729635533386 5
vertex 153.28851078986878 -209.64177220066264 10
vertex 160.20614758428187 -185.84040286651336 10
endloop
endfacet
facet normal -0.6508971082028768 -0.678891359426473 -0.3397638542123159
outer loop
vertex 141.4123110745655 -165.31919146231596 5
vertex 159.30384493975586 -182.4729635533386 5
vertex 160.20614758428187 -185.84040286651336 10
endloop
endfacet
facet normal -0.33584804757302356 -0.5017973563204807 -0.7971232665850149
outer loop
vertex 141.4123110745655 -165.31919146231596 5
vertex 160.20614758428187 -185.84040286651336 10
vertex 139.607705056842 -172.05406736922632 10
endloop
endfacet
facet normal 0.06526338255095424 0.6002818250981535 0.7971213341485961
outer loop
vertex 169 -161.679 0
vertex 144.359 -159 0
vertex 141.4123110745655 -165.31919146231596 5
endloop
endfacet
facet normal -0.06225133485621114 0.9384516725182108 0.33975466097817214
outer loop
vertex 169 -161.679 0
vertex 141.4123110745655 -165.31919146231596 5
vertex 166.14416238450903 -163.67862668674482 5
endloop
endfacet
facet normal -0.8605633781231902 0.37945384634383633 -0.3397726456442182
outer loop
vertex 179 -139 0
vertex 169 -161.679 0
vertex 166.14416238450903 -163.67862668674482 5
endloop
endfacet
facet normal -0.5864018370868206 0.14397372263242084 -0.7971226082934573
outer loop
vertex 179 -139 0
vertex 166.14416238450903 -163.67862668674482 5
vertex 172.0540728933228 -139.60768987951167 5
endloop
endfacet
facet normal 0.5524923009766597 0.2436140486691042 0.7971226082934565
outer loop
vertex 189 -161.679 0
vertex 179 -139 0
vertex 172.0540728933228 -139.60768987951167 5
endloop
endfacet
facet normal 0.7815980178077794 0.5231243521677048 0.3397726456442153
outer loop
vertex 189 -161.679 0
vertex 172.0540728933228 -139.60768987951167 5
vertex 185.8403174447532 -160.20566313340623 5
endloop
endfacet
facet normal -0.10165482555952592 0.9350043137783213 -0.3397546609781726
outer loop
vertex 213.641 -159 0
vertex 189 -161.679 0
vertex 185.8403174447532 -160.20566313340623 5
endloop
endfacet
facet normal -0.16850973013884782 0.5798293279006254 -0.7971213341485985
outer loop
vertex 213.641 -159 0
vertex 185.8403174447532 -160.20566313340623 5
vertex 209.6417618187573 -153.28849841719568 5
endloop
endfacet
facet normal 0.48721873573890134 -0.35666847549766795 0.7971232665850095
outer loop
vertex 199 -179 0
vertex 213.641 -159 0
vertex 209.6417618187573 -153.28849841719568 5
endloop
endfacet
facet normal 0.8438377295227333 -0.4153292785305499 0.33976385421232086
outer loop
vertex 199 -179 0
vertex 209.6417618187573 -153.28849841719568 5
vertex 198.6961550602442 -175.52703644666138 5
endloop
endfacet
facet normal 0.7588967659696509 0.55555037752808 -0.33976385421232314
outer loop
vertex 213.641 -199 0
vertex 199 -179 0
vertex 198.6961550602442 -175.52703644666138 5
endloop
endfacet
facet normal 0.41788195756706104 0.4358545255113841 -0.7971232665850164
outer loop
vertex 213.641 -199 0
vertex 198.6961550602442 -175.52703644666138 5
vertex 216.58768892543452 -192.68080853768402 5
endloop
endfacet
facet normal -0.06526338255095424 -0.6002818250981535 0.7971213341485961
outer loop
vertex 189 -196.321 0
vertex 213.641 -199 0
vertex 216.58768892543452 -192.68080853768402 5
endloop
endfacet
facet normal 0.06225133485620873 -0.9384516725182109 0.3397546609781722
outer loop
vertex 189 -196.321 0
vertex 216.58768892543452 -192.68080853768402 5
vertex 191.855837615491 -194.32137331325515 5
endloop
endfacet
facet normal 0.8605633781231902 -0.37945384634383633 -0.3397726456442182
outer loop
vertex 179 -219 0
vertex 189 -196.321 0
vertex 191.855837615491 -194.32137331325515 5
endloop
endfacet
facet normal 0.5864018370868114 -0.14397372263242086 -0.7971226082934642
outer loop
vertex 179 -219 0
vertex 191.855837615491 -194.32137331325515 5
vertex 185.94592710667723 -218.39231012048833 5
endloop
endfacet
facet normal -0.5524923009766533 -0.24361404866910422 0.797122608293461
outer loop
vertex 169 -196.321 0
vertex 179 -219 0
vertex 185.94592710667723 -218.39231012048833 5
endloop
endfacet
facet normal -0.7815980178077793 -0.5231243521677024 0.3397726456442192
outer loop
vertex 169 -196.321 0
vertex 185.94592710667723 -218.39231012048833 5
vertex 172.15968255524683 -197.79433686659374 5
endloop
endfacet
facet normal 0.10165482555952592 -0.9350043137783213 -0.3397546609781726
outer loop
vertex 144.359 -199 0
vertex 169 -196.321 0
vertex 172.15968255524683 -197.79433686659374 5
endloop
endfacet
facet normal 0.16850973013884782 -0.5798293279006254 -0.7971213341485985
outer loop
vertex 144.359 -199 0
vertex 172.15968255524683 -197.79433686659374 5
vertex 148.3582381812427 -204.7115015828043 5
endloop
endfacet
facet normal -0.4872187357388932 0.3566684754976566 0.7971232665850194
outer loop
vertex 159 -179 0
vertex 144.359 -199 0
vertex 148.3582381812427 -204.7115015828043 5
endloop
endfacet
facet normal -0.8438377295227314 0.41532927853054896 0.3397638542123268
outer loop
vertex 159 -179 0
vertex 148.3582381812427 -204.7115015828043 5
vertex 159.30384493975586 -182.4729635533386 5
endloop
endfacet
facet normal -0.758896765969652 -0.5555503775280853 -0.33976385421231203
outer loop
vertex 144.359 -159 0
vertex 159 -179 0
vertex 159.30384493975586 -182.4729635533386 5
endloop
endfacet
facet normal -0.4178819575670617 -0.43585452551138637 -0.797123266585015
outer loop
vertex 144.359 -159 0
vertex 159.30384493975586 -182.4729635533386 5
vertex 141.4123110745655 -165.31919146231596 5
endloop
endfacet
endsolid craftml
