solid csg.js
facet normal -1 0 0
outer loop
vertex 0 0 0
vertex 0 0 50
vertex 0 50 50
endloop
endfacet
facet normal -1 0 0
outer loop
vertex 0 0 0
vertex 0 50 50
vertex 0 50 0
endloop
endfacet
facet normal 1 0 0
outer loop
vertex 50 0 0
vertex 50 50 0
vertex 50 50 50
endloop
endfacet
facet normal 1 0 0
outer loop
vertex 50 0 0
vertex 50 50 50
vertex 50 0 50
endloop
endfacet
facet normal 0 -1 0
outer loop
vertex 0 0 0
vertex 50 0 0
vertex 50 0 50
endloop
endfacet
facet normal 0 -1 0
outer loop
vertex 0 0 0
vertex 50 0 50
vertex 0 0 50
endloop
endfacet
facet normal 0 1 0
outer loop
vertex 0 50 0
vertex 0 50 50
vertex 50 50 50
endloop
endfacet
facet normal 0 1 0
outer loop
vertex 0 50 0
vertex 50 50 50
vertex 50 50 0
endloop
endfacet
facet normal 0 0 -1
outer loop
vertex 0 0 0
vertex 0 50 0
vertex 50 50 0
endloop
endfacet
facet normal 0 0 -1
outer loop
vertex 0 0 0
vertex 50 50 0
vertex 50 0 0
endloop
endfacet
facet normal 0 0 1
outer loop
vertex 0 0 50
vertex 50 0 50
vertex 50 50 50
endloop
endfacet
facet normal 0 0 1
outer loop
vertex 0 0 50
vertex 50 50 50
vertex 0 50 50
endloop
endfacet
facet normal -1 0 0
outer loop
vertex 80 0 0
vertex 80 0 50
vertex 80 50 50
endloop
endfacet
facet normal -1 0 0
outer loop
vertex 80 0 0
vertex 80 50 50
vertex 80 50 0
endloop
endfacet
facet normal 1 0 0
outer loop
vertex 130 0 0
vertex 130 50 0
vertex 130 50 50
endloop
endfacet
facet normal 1 0 0
outer loop
vertex 130 0 0
vertex 130 50 50
vertex 130 0 50
endloop
endfacet
facet normal 0 -1 0
outer loop
vertex 80 0 0
vertex 130 0 0
vertex 130 0 50
endloop
endfacet
facet normal 0 -1 0
outer loop
vertex 80 0 0
vertex 130 0 50
vertex 80 0 50
endloop
endfacet
facet normal 0 1 0
outer loop
vertex 80 50 0
vertex 80 50 50
vertex 130 50 50
endloop
endfacet
facet normal 0 1 0
outer loop
vertex 80 50 0
vertex 130 50 50
vertex 130 50 0
endloop
endfacet
facet normal 0 0 -1
outer loop
vertex 80 0 0
vertex 80 50 0
vertex 130 50 0
endloop
endfacet
facet normal 0 0 -1
outer loop
vertex 80 0 0
vertex 130 50 0
vertex 130 0 0
endloop
endfacet
facet normal 0 0 1
outer loop
vertex 80 0 50
vertex 130 0 50
vertex 130 50 50
endloop
endfacet
facet normal 0 0 1
outer loop
vertex 80 0 50
vertex 130 50 50
vertex 80 50 50
endloop
endfacet
endsolid csg.js
