solid csg.js
facet normal -1 0 0
outer loop
vertex 0 20 80
vertex 0 20 50
vertex 0 0 50
endloop
endfacet
facet normal -1 0 0
outer loop
vertex 0 20 80
vertex 0 0 50
vertex 0 0 80
endloop
endfacet
facet normal -1 0 0
outer loop
vertex 0 50 50
vertex 0 50 0
vertex 0 0 0
endloop
endfacet
facet normal -1 0 0
outer loop
vertex 0 50 50
vertex 0 0 0
vertex 0 0 50
endloop
endfacet
facet normal 0 -1 0
outer loop
vertex 120 0 0
vertex 120 0 20
vertex 0 0 20
endloop
endfacet
facet normal 0 -1 0
outer loop
vertex 120 0 0
vertex 0 0 20
vertex 0 0 0
endloop
endfacet
facet normal 0 -1 0
outer loop
vertex 100 0 20
vertex 100 0 50
vertex 0 0 50
endloop
endfacet
facet normal 0 -1 0
outer loop
vertex 100 0 20
vertex 0 0 50
vertex 0 0 20
endloop
endfacet
facet normal 0 -1 0
outer loop
vertex 20 0 50
vertex 20 0 80
vertex 0 0 80
endloop
endfacet
facet normal 0 -1 0
outer loop
vertex 20 0 50
vertex 0 0 80
vertex 0 0 50
endloop
endfacet
facet normal 0 1 0
outer loop
vertex 100 50 50
vertex 100 50 0
vertex 0 50 0
endloop
endfacet
facet normal 0 1 0
outer loop
vertex 100 50 50
vertex 0 50 0
vertex 0 50 50
endloop
endfacet
facet normal 0 0 -1
outer loop
vertex 100 50 0
vertex 100 20 0
vertex 0 20 0
endloop
endfacet
facet normal 0 0 -1
outer loop
vertex 100 50 0
vertex 0 20 0
vertex 0 50 0
endloop
endfacet
facet normal 0 0 -1
outer loop
vertex 120 20 0
vertex 120 0 0
vertex 0 0 0
endloop
endfacet
facet normal 0 0 -1
outer loop
vertex 120 20 0
vertex 0 0 0
vertex 0 20 0
endloop
endfacet
facet normal 0 0 1
outer loop
vertex 100 0 50
vertex 100 20 50
vertex 20 20 50
endloop
endfacet
facet normal 0 0 1
outer loop
vertex 100 0 50
vertex 20 20 50
vertex 20 0 50
endloop
endfacet
facet normal 0 0 1
outer loop
vertex 100 20 50
vertex 100 50 50
vertex 0 50 50
endloop
endfacet
facet normal 0 0 1
outer loop
vertex 100 20 50
vertex 0 50 50
vertex 0 20 50
endloop
endfacet
facet normal 1 0 0
outer loop
vertex 100 50 0
vertex 100 50 20
vertex 100 20 20
endloop
endfacet
facet normal 1 0 0
outer loop
vertex 100 50 0
vertex 100 20 20
vertex 100 20 0
endloop
endfacet
facet normal 1 0 0
outer loop
vertex 100 50 20
vertex 100 50 50
vertex 100 0 50
endloop
endfacet
facet normal 1 0 0
outer loop
vertex 100 50 20
vertex 100 0 50
vertex 100 0 20
endloop
endfacet
facet normal 1 0 0
outer loop
vertex 120 0 0
vertex 120 20 0
vertex 120 20 20
endloop
endfacet
facet normal 1 0 0
outer loop
vertex 120 0 0
vertex 120 20 20
vertex 120 0 20
endloop
endfacet
facet normal 0 1 0
outer loop
vertex 20 20 80
vertex 20 20 50
vertex 0 20 50
endloop
endfacet
facet normal 0 1 0
outer loop
vertex 20 20 80
vertex 0 20 50
vertex 0 20 80
endloop
endfacet
facet normal 0 1 0
outer loop
vertex 120 20 20
vertex 120 20 0
vertex 100 20 0
endloop
endfacet
facet normal 0 1 0
outer loop
vertex 120 20 20
vertex 100 20 0
vertex 100 20 20
endloop
endfacet
facet normal 0 0 1
outer loop
vertex 100 0 20
vertex 120 0 20
vertex 120 20 20
endloop
endfacet
facet normal 0 0 1
outer loop
vertex 100 0 20
vertex 120 20 20
vertex 100 20 20
endloop
endfacet
facet normal 1 0 0
outer loop
vertex 20 0 50
vertex 20 20 50
vertex 20 20 80
endloop
endfacet
facet normal 1 0 0
outer loop
vertex 20 0 50
vertex 20 20 80
vertex 20 0 80
endloop
endfacet
facet normal 0 0 1
outer loop
vertex 0 0 80
vertex 20 0 80
vertex 20 20 80
endloop
endfacet
facet normal 0 0 1
outer loop
vertex 0 0 80
vertex 20 20 80
vertex 0 20 80
endloop
endfacet
endsolid csg.js
