solid csg.js
facet normal -1 0 0
outer loop
vertex 0 50 200
vertex 0 50 0
vertex 0 0 0
endloop
endfacet
facet normal -1 0 0
outer loop
vertex 0 50 200
vertex 0 0 0
vertex 0 0 200
endloop
endfacet
facet normal 0 -1 0
outer loop
vertex 100 0 0
vertex 100 0 50
vertex 0 0 50
endloop
endfacet
facet normal 0 -1 0
outer loop
vertex 100 0 0
vertex 0 0 50
vertex 0 0 0
endloop
endfacet
facet normal 0 -1 0
outer loop
vertex 50 0 50
vertex 50 0 200
vertex 0 0 200
endloop
endfacet
facet normal 0 -1 0
outer loop
vertex 50 0 50
vertex 0 0 200
vertex 0 0 50
endloop
endfacet
facet normal 0 1 0
outer loop
vertex 50 50 200
vertex 50 50 50
vertex 0 50 50
endloop
endfacet
facet normal 0 1 0
outer loop
vertex 50 50 200
vertex 0 50 50
vertex 0 50 200
endloop
endfacet
facet normal 0 1 0
outer loop
vertex 100 50 50
vertex 100 50 0
vertex 0 50 0
endloop
endfacet
facet normal 0 1 0
outer loop
vertex 100 50 50
vertex 0 50 0
vertex 0 50 50
endloop
endfacet
facet normal 0 0 -1
outer loop
vertex 100 50 0
vertex 100 0 0
vertex 0 0 0
endloop
endfacet
facet normal 0 0 -1
outer loop
vertex 100 50 0
vertex 0 0 0
vertex 0 50 0
endloop
endfacet
facet normal 0 0 1
outer loop
vertex 100 0 50
vertex 100 50 50
vertex 50 50 50
endloop
endfacet
facet normal 0 0 1
outer loop
vertex 100 0 50
vertex 50 50 50
vertex 50 0 50
endloop
endfacet
facet normal 1 0 0
outer loop
vertex 100 0 0
vertex 100 50 0
vertex 100 50 50
endloop
endfacet
facet normal 1 0 0
outer loop
vertex 100 0 0
vertex 100 50 50
vertex 100 0 50
endloop
endfacet
facet normal 1 0 0
outer loop
vertex 50 50 50
vertex 50 50 200
vertex 50 0 200
endloop
endfacet
facet normal 1 0 0
outer loop
vertex 50 50 50
vertex 50 0 200
vertex 50 0 50
endloop
endfacet
facet normal 0 0 1
outer loop
vertex 0 0 200
vertex 50 0 200
vertex 50 50 200
endloop
endfacet
facet normal 0 0 1
outer loop
vertex 0 0 200
vertex 50 50 200
vertex 0 50 200
endloop
endfacet
endsolid csg.js
