solid craftml
facet normal -1 0 0
outer loop
vertex 0 -5 45
vertex 0 -5 50
vertex 0 0 50
endloop
endfacet
facet normal -1 0 0
outer loop
vertex 0 -5 45
vertex 0 0 50
vertex 0 0 45
endloop
endfacet
facet normal 1 0 0
outer loop
vertex 5 0 50
vertex 5 -5 50
vertex 5 -5 45
endloop
endfacet
facet normal 1 0 0
outer loop
vertex 5 0 50
vertex 5 -5 45
vertex 5 0 45
endloop
endfacet
facet normal 0 1 0
outer loop
vertex 0 0 50
vertex 5 0 50
vertex 5 0 45
endloop
endfacet
facet normal 0 1 0
outer loop
vertex 0 0 50
vertex 5 0 45
vertex 0 0 45
endloop
endfacet
facet normal 0 -1 0
outer loop
vertex 5 -5 45
vertex 5 -5 50
vertex 0 -5 50
endloop
endfacet
facet normal 0 -1 0
outer loop
vertex 5 -5 45
vertex 0 -5 50
vertex 0 -5 45
endloop
endfacet
facet normal 0 0 1
outer loop
vertex 0 -5 50
vertex 5 -5 50
vertex 5 0 50
endloop
endfacet
facet normal 0 0 1
outer loop
vertex 0 -5 50
vertex 5 0 50
vertex 0 0 50
endloop
endfacet
facet normal -1 0 0
outer loop
vertex -2.5 -7.5 40
vertex -2.5 -7.5 45
vertex -2.5 2.5 45
endloop
endfacet
facet normal -1 0 0
outer loop
vertex -2.5 -7.5 40
vertex -2.5 2.5 45
vertex -2.5 2.5 40
endloop
endfacet
facet normal 1 0 0
outer loop
vertex 7.5 2.5 45
vertex 7.5 -7.5 45
vertex 7.5 -7.5 40
endloop
endfacet
facet normal 1 0 0
outer loop
vertex 7.5 2.5 45
vertex 7.5 -7.5 40
vertex 7.5 2.5 40
endloop
endfacet
facet normal 0 1 0
outer loop
vertex -2.5 2.5 45
vertex 7.5 2.5 45
vertex 7.5 2.5 40
endloop
endfacet
facet normal 0 1 0
outer loop
vertex -2.5 2.5 45
vertex 7.5 2.5 40
vertex -2.5 2.5 40
endloop
endfacet
facet normal 0 -1 0
outer loop
vertex 7.5 -7.5 40
vertex 7.5 -7.5 45
vertex -2.5 -7.5 45
endloop
endfacet
facet normal 0 -1 0
outer loop
vertex 7.5 -7.5 40
vertex -2.5 -7.5 45
vertex -2.5 -7.5 40
endloop
endfacet
facet normal 0 0 1
outer loop
vertex -2.5 -7.5 45
vertex 0 -7.5 45
vertex 0 2.5 45
endloop
endfacet
facet normal 0 0 1
outer loop
vertex -2.5 -7.5 45
vertex 0 2.5 45
vertex -2.5 2.5 45
endloop
endfacet
facet normal 0 0 1
outer loop
vertex 5 -7.5 45
vertex 7.5 -7.5 45
vertex 7.5 2.5 45
endloop
endfacet
facet normal 0 0 1
outer loop
vertex 5 -7.5 45
vertex 7.5 2.5 45
vertex 5 2.5 45
endloop
endfacet
facet normal 0 0 1
outer loop
vertex 5 0 45
vertex 5 2.5 45
vertex 0 2.5 45
endloop
endfacet
facet normal 0 0 1
outer loop
vertex 5 0 45
vertex 0 2.5 45
vertex 0 0 45
endloop
endfacet
facet normal 0 0 1
outer loop
vertex 0 -7.5 45
vertex 5 -7.5 45
vertex 5 -5 45
endloop
endfacet
facet normal 0 0 1
outer loop
vertex 0 -7.5 45
vertex 5 -5 45
vertex 0 -5 45
endloop
endfacet
facet normal -1 0 0
outer loop
vertex -5 -10 35
vertex -5 -10 40
vertex -5 5 40
endloop
endfacet
facet normal -1 0 0
outer loop
vertex -5 -10 35
vertex -5 5 40
vertex -5 5 35
endloop
endfacet
facet normal 1 0 0
outer loop
vertex 10 5 40
vertex 10 -10 40
vertex 10 -10 35
endloop
endfacet
facet normal 1 0 0
outer loop
vertex 10 5 40
vertex 10 -10 35
vertex 10 5 35
endloop
endfacet
facet normal 0 1 0
outer loop
vertex -5 5 40
vertex 10 5 40
vertex 10 5 35
endloop
endfacet
facet normal 0 1 0
outer loop
vertex -5 5 40
vertex 10 5 35
vertex -5 5 35
endloop
endfacet
facet normal 0 -1 0
outer loop
vertex 10 -10 35
vertex 10 -10 40
vertex -5 -10 40
endloop
endfacet
facet normal 0 -1 0
outer loop
vertex 10 -10 35
vertex -5 -10 40
vertex -5 -10 35
endloop
endfacet
facet normal 0 0 1
outer loop
vertex -5 -10 40
vertex -2.5 -10 40
vertex -2.5 5 40
endloop
endfacet
facet normal 0 0 1
outer loop
vertex -5 -10 40
vertex -2.5 5 40
vertex -5 5 40
endloop
endfacet
facet normal 0 0 1
outer loop
vertex 7.5 -10 40
vertex 10 -10 40
vertex 10 5 40
endloop
endfacet
facet normal 0 0 1
outer loop
vertex 7.5 -10 40
vertex 10 5 40
vertex 7.5 5 40
endloop
endfacet
facet normal 0 0 1
outer loop
vertex 7.5 2.5 40
vertex 7.5 5 40
vertex -2.5 5 40
endloop
endfacet
facet normal 0 0 1
outer loop
vertex 7.5 2.5 40
vertex -2.5 5 40
vertex -2.5 2.5 40
endloop
endfacet
facet normal 0 0 1
outer loop
vertex -2.5 -10 40
vertex 7.5 -10 40
vertex 7.5 -7.5 40
endloop
endfacet
facet normal 0 0 1
outer loop
vertex -2.5 -10 40
vertex 7.5 -7.5 40
vertex -2.5 -7.5 40
endloop
endfacet
facet normal -1 0 0
outer loop
vertex -7.5 -12.5 30
vertex -7.5 -12.5 35
vertex -7.5 7.5 35
endloop
endfacet
facet normal -1 0 0
outer loop
vertex -7.5 -12.5 30
vertex -7.5 7.5 35
vertex -7.5 7.5 30
endloop
endfacet
facet normal 1 0 0
outer loop
vertex 12.5 7.5 35
vertex 12.5 -12.5 35
vertex 12.5 -12.5 30
endloop
endfacet
facet normal 1 0 0
outer loop
vertex 12.5 7.5 35
vertex 12.5 -12.5 30
vertex 12.5 7.5 30
endloop
endfacet
facet normal 0 1 0
outer loop
vertex -7.5 7.5 35
vertex 12.5 7.5 35
vertex 12.5 7.5 30
endloop
endfacet
facet normal 0 1 0
outer loop
vertex -7.5 7.5 35
vertex 12.5 7.5 30
vertex -7.5 7.5 30
endloop
endfacet
facet normal 0 -1 0
outer loop
vertex 12.5 -12.5 30
vertex 12.5 -12.5 35
vertex -7.5 -12.5 35
endloop
endfacet
facet normal 0 -1 0
outer loop
vertex 12.5 -12.5 30
vertex -7.5 -12.5 35
vertex -7.5 -12.5 30
endloop
endfacet
facet normal 0 0 1
outer loop
vertex -7.5 -12.5 35
vertex -5 -12.5 35
vertex -5 7.5 35
endloop
endfacet
facet normal 0 0 1
outer loop
vertex -7.5 -12.5 35
vertex -5 7.5 35
vertex -7.5 7.5 35
endloop
endfacet
facet normal 0 0 1
outer loop
vertex 10 -12.5 35
vertex 12.5 -12.5 35
vertex 12.5 7.5 35
endloop
endfacet
facet normal 0 0 1
outer loop
vertex 10 -12.5 35
vertex 12.5 7.5 35
vertex 10 7.5 35
endloop
endfacet
facet normal 0 0 1
outer loop
vertex 10 5 35
vertex 10 7.5 35
vertex -5 7.5 35
endloop
endfacet
facet normal 0 0 1
outer loop
vertex 10 5 35
vertex -5 7.5 35
vertex -5 5 35
endloop
endfacet
facet normal 0 0 1
outer loop
vertex -5 -12.5 35
vertex 10 -12.5 35
vertex 10 -10 35
endloop
endfacet
facet normal 0 0 1
outer loop
vertex -5 -12.5 35
vertex 10 -10 35
vertex -5 -10 35
endloop
endfacet
facet normal -1 0 0
outer loop
vertex -10 -15 25
vertex -10 -15 30
vertex -10 10 30
endloop
endfacet
facet normal -1 0 0
outer loop
vertex -10 -15 25
vertex -10 10 30
vertex -10 10 25
endloop
endfacet
facet normal 1 0 0
outer loop
vertex 15 10 30
vertex 15 -15 30
vertex 15 -15 25
endloop
endfacet
facet normal 1 0 0
outer loop
vertex 15 10 30
vertex 15 -15 25
vertex 15 10 25
endloop
endfacet
facet normal 0 1 0
outer loop
vertex -10 10 30
vertex 15 10 30
vertex 15 10 25
endloop
endfacet
facet normal 0 1 0
outer loop
vertex -10 10 30
vertex 15 10 25
vertex -10 10 25
endloop
endfacet
facet normal 0 -1 0
outer loop
vertex 15 -15 25
vertex 15 -15 30
vertex -10 -15 30
endloop
endfacet
facet normal 0 -1 0
outer loop
vertex 15 -15 25
vertex -10 -15 30
vertex -10 -15 25
endloop
endfacet
facet normal 0 0 1
outer loop
vertex -10 -15 30
vertex -7.5 -15 30
vertex -7.5 10 30
endloop
endfacet
facet normal 0 0 1
outer loop
vertex -10 -15 30
vertex -7.5 10 30
vertex -10 10 30
endloop
endfacet
facet normal 0 0 1
outer loop
vertex 12.5 -15 30
vertex 15 -15 30
vertex 15 10 30
endloop
endfacet
facet normal 0 0 1
outer loop
vertex 12.5 -15 30
vertex 15 10 30
vertex 12.5 10 30
endloop
endfacet
facet normal 0 0 1
outer loop
vertex 12.5 7.5 30
vertex 12.5 10 30
vertex -7.5 10 30
endloop
endfacet
facet normal 0 0 1
outer loop
vertex 12.5 7.5 30
vertex -7.5 10 30
vertex -7.5 7.5 30
endloop
endfacet
facet normal 0 0 1
outer loop
vertex -7.5 -15 30
vertex 12.5 -15 30
vertex 12.5 -12.5 30
endloop
endfacet
facet normal 0 0 1
outer loop
vertex -7.5 -15 30
vertex 12.5 -12.5 30
vertex -7.5 -12.5 30
endloop
endfacet
facet normal -1 0 0
outer loop
vertex -12.5 -17.5 20
vertex -12.5 -17.5 25
vertex -12.5 12.5 25
endloop
endfacet
facet normal -1 0 0
outer loop
vertex -12.5 -17.5 20
vertex -12.5 12.5 25
vertex -12.5 12.5 20
endloop
endfacet
facet normal 1 0 0
outer loop
vertex 17.5 12.5 25
vertex 17.5 -17.5 25
vertex 17.5 -17.5 20
endloop
endfacet
facet normal 1 0 0
outer loop
vertex 17.5 12.5 25
vertex 17.5 -17.5 20
vertex 17.5 12.5 20
endloop
endfacet
facet normal 0 1 0
outer loop
vertex -12.5 12.5 25
vertex 17.5 12.5 25
vertex 17.5 12.5 20
endloop
endfacet
facet normal 0 1 0
outer loop
vertex -12.5 12.5 25
vertex 17.5 12.5 20
vertex -12.5 12.5 20
endloop
endfacet
facet normal 0 -1 0
outer loop
vertex 17.5 -17.5 20
vertex 17.5 -17.5 25
vertex -12.5 -17.5 25
endloop
endfacet
facet normal 0 -1 0
outer loop
vertex 17.5 -17.5 20
vertex -12.5 -17.5 25
vertex -12.5 -17.5 20
endloop
endfacet
facet normal 0 0 1
outer loop
vertex -12.5 -17.5 25
vertex -10 -17.5 25
vertex -10 12.5 25
endloop
endfacet
facet normal 0 0 1
outer loop
vertex -12.5 -17.5 25
vertex -10 12.5 25
vertex -12.5 12.5 25
endloop
endfacet
facet normal 0 0 1
outer loop
vertex 15 -17.5 25
vertex 17.5 -17.5 25
vertex 17.5 12.5 25
endloop
endfacet
facet normal 0 0 1
outer loop
vertex 15 -17.5 25
vertex 17.5 12.5 25
vertex 15 12.5 25
endloop
endfacet
facet normal 0 0 1
outer loop
vertex 15 10 25
vertex 15 12.5 25
vertex -10 12.5 25
endloop
endfacet
facet normal 0 0 1
outer loop
vertex 15 10 25
vertex -10 12.5 25
vertex -10 10 25
endloop
endfacet
facet normal 0 0 1
outer loop
vertex -10 -17.5 25
vertex 15 -17.5 25
vertex 15 -15 25
endloop
endfacet
facet normal 0 0 1
outer loop
vertex -10 -17.5 25
vertex 15 -15 25
vertex -10 -15 25
endloop
endfacet
facet normal -1 0 0
outer loop
vertex -15 -20 15
vertex -15 -20 20
vertex -15 15 20
endloop
endfacet
facet normal -1 0 0
outer loop
vertex -15 -20 15
vertex -15 15 20
vertex -15 15 15
endloop
endfacet
facet normal 1 0 0
outer loop
vertex 20 15 20
vertex 20 -20 20
vertex 20 -20 15
endloop
endfacet
facet normal 1 0 0
outer loop
vertex 20 15 20
vertex 20 -20 15
vertex 20 15 15
endloop
endfacet
facet normal 0 1 0
outer loop
vertex -15 15 20
vertex 20 15 20
vertex 20 15 15
endloop
endfacet
facet normal 0 1 0
outer loop
vertex -15 15 20
vertex 20 15 15
vertex -15 15 15
endloop
endfacet
facet normal 0 -1 0
outer loop
vertex 20 -20 15
vertex 20 -20 20
vertex -15 -20 20
endloop
endfacet
facet normal 0 -1 0
outer loop
vertex 20 -20 15
vertex -15 -20 20
vertex -15 -20 15
endloop
endfacet
facet normal 0 0 1
outer loop
vertex -15 -20 20
vertex -12.5 -20 20
vertex -12.5 15 20
endloop
endfacet
facet normal 0 0 1
outer loop
vertex -15 -20 20
vertex -12.5 15 20
vertex -15 15 20
endloop
endfacet
facet normal 0 0 1
outer loop
vertex 17.5 -20 20
vertex 20 -20 20
vertex 20 15 20
endloop
endfacet
facet normal 0 0 1
outer loop
vertex 17.5 -20 20
vertex 20 15 20
vertex 17.5 15 20
endloop
endfacet
facet normal 0 0 1
outer loop
vertex 17.5 12.5 20
vertex 17.5 15 20
vertex -12.5 15 20
endloop
endfacet
facet normal 0 0 1
outer loop
vertex 17.5 12.5 20
vertex -12.5 15 20
vertex -12.5 12.5 20
endloop
endfacet
facet normal 0 0 1
outer loop
vertex -12.5 -20 20
vertex 17.5 -20 20
vertex 17.5 -17.5 20
endloop
endfacet
facet normal 0 0 1
outer loop
vertex -12.5 -20 20
vertex 17.5 -17.5 20
vertex -12.5 -17.5 20
endloop
endfacet
facet normal -1 0 0
outer loop
vertex -17.5 -22.5 10
vertex -17.5 -22.5 15
vertex -17.5 17.5 15
endloop
endfacet
facet normal -1 0 0
outer loop
vertex -17.5 -22.5 10
vertex -17.5 17.5 15
vertex -17.5 17.5 10
endloop
endfacet
facet normal 1 0 0
outer loop
vertex 22.5 17.5 15
vertex 22.5 -22.5 15
vertex 22.5 -22.5 10
endloop
endfacet
facet normal 1 0 0
outer loop
vertex 22.5 17.5 15
vertex 22.5 -22.5 10
vertex 22.5 17.5 10
endloop
endfacet
facet normal 0 1 0
outer loop
vertex -17.5 17.5 15
vertex 22.5 17.5 15
vertex 22.5 17.5 10
endloop
endfacet
facet normal 0 1 0
outer loop
vertex -17.5 17.5 15
vertex 22.5 17.5 10
vertex -17.5 17.5 10
endloop
endfacet
facet normal 0 -1 0
outer loop
vertex 22.5 -22.5 10
vertex 22.5 -22.5 15
vertex -17.5 -22.5 15
endloop
endfacet
facet normal 0 -1 0
outer loop
vertex 22.5 -22.5 10
vertex -17.5 -22.5 15
vertex -17.5 -22.5 10
endloop
endfacet
facet normal 0 0 1
outer loop
vertex -17.5 -22.5 15
vertex -15 -22.5 15
vertex -15 17.5 15
endloop
endfacet
facet normal 0 0 1
outer loop
vertex -17.5 -22.5 15
vertex -15 17.5 15
vertex -17.5 17.5 15
endloop
endfacet
facet normal 0 0 1
outer loop
vertex 20 -22.5 15
vertex 22.5 -22.5 15
vertex 22.5 17.5 15
endloop
endfacet
facet normal 0 0 1
outer loop
vertex 20 -22.5 15
vertex 22.5 17.5 15
vertex 20 17.5 15
endloop
endfacet
facet normal 0 0 1
outer loop
vertex 20 15 15
vertex 20 17.5 15
vertex -15 17.5 15
endloop
endfacet
facet normal 0 0 1
outer loop
vertex 20 15 15
vertex -15 17.5 15
vertex -15 15 15
endloop
endfacet
facet normal 0 0 1
outer loop
vertex -15 -22.5 15
vertex 20 -22.5 15
vertex 20 -20 15
endloop
endfacet
facet normal 0 0 1
outer loop
vertex -15 -22.5 15
vertex 20 -20 15
vertex -15 -20 15
endloop
endfacet
facet normal -1 0 0
outer loop
vertex -20 -25 5
vertex -20 -25 10
vertex -20 20 10
endloop
endfacet
facet normal -1 0 0
outer loop
vertex -20 -25 5
vertex -20 20 10
vertex -20 20 5
endloop
endfacet
facet normal 1 0 0
outer loop
vertex 25 20 10
vertex 25 -25 10
vertex 25 -25 5
endloop
endfacet
facet normal 1 0 0
outer loop
vertex 25 20 10
vertex 25 -25 5
vertex 25 20 5
endloop
endfacet
facet normal 0 1 0
outer loop
vertex -20 20 10
vertex 25 20 10
vertex 25 20 5
endloop
endfacet
facet normal 0 1 0
outer loop
vertex -20 20 10
vertex 25 20 5
vertex -20 20 5
endloop
endfacet
facet normal 0 -1 0
outer loop
vertex 25 -25 5
vertex 25 -25 10
vertex -20 -25 10
endloop
endfacet
facet normal 0 -1 0
outer loop
vertex 25 -25 5
vertex -20 -25 10
vertex -20 -25 5
endloop
endfacet
facet normal 0 0 1
outer loop
vertex -20 -25 10
vertex -17.5 -25 10
vertex -17.5 20 10
endloop
endfacet
facet normal 0 0 1
outer loop
vertex -20 -25 10
vertex -17.5 20 10
vertex -20 20 10
endloop
endfacet
facet normal 0 0 1
outer loop
vertex 22.5 -25 10
vertex 25 -25 10
vertex 25 20 10
endloop
endfacet
facet normal 0 0 1
outer loop
vertex 22.5 -25 10
vertex 25 20 10
vertex 22.5 20 10
endloop
endfacet
facet normal 0 0 1
outer loop
vertex 22.5 17.5 10
vertex 22.5 20 10
vertex -17.5 20 10
endloop
endfacet
facet normal 0 0 1
outer loop
vertex 22.5 17.5 10
vertex -17.5 20 10
vertex -17.5 17.5 10
endloop
endfacet
facet normal 0 0 1
outer loop
vertex -17.5 -25 10
vertex 22.5 -25 10
vertex 22.5 -22.5 10
endloop
endfacet
facet normal 0 0 1
outer loop
vertex -17.5 -25 10
vertex 22.5 -22.5 10
vertex -17.5 -22.5 10
endloop
endfacet
facet normal -1 0 0
outer loop
vertex -22.5 -27.5 0
vertex -22.5 -27.5 5
vertex -22.5 22.5 5
endloop
endfacet
facet normal -1 0 0
outer loop
vertex -22.5 -27.5 0
vertex -22.5 22.5 5
vertex -22.5 22.5 0
endloop
endfacet
facet normal 1 0 0
outer loop
vertex 27.5 22.5 5
vertex 27.5 -27.5 5
vertex 27.5 -27.5 0
endloop
endfacet
facet normal 1 0 0
outer loop
vertex 27.5 22.5 5
vertex 27.5 -27.5 0
vertex 27.5 22.5 0
endloop
endfacet
facet normal 0 1 0
outer loop
vertex -22.5 22.5 5
vertex 27.5 22.5 5
vertex 27.5 22.5 0
endloop
endfacet
facet normal 0 1 0
outer loop
vertex -22.5 22.5 5
vertex 27.5 22.5 0
vertex -22.5 22.5 0
endloop
endfacet
facet normal 0 -1 0
outer loop
vertex 27.5 -27.5 0
vertex 27.5 -27.5 5
vertex -22.5 -27.5 5
endloop
endfacet
facet normal 0 -1 0
outer loop
vertex 27.5 -27.5 0
vertex -22.5 -27.5 5
vertex -22.5 -27.5 0
endloop
endfacet
facet normal 0 0 -1
outer loop
vertex 27.5 22.5 0
vertex 27.5 -27.5 0
vertex -22.5 -27.5 0
endloop
endfacet
facet normal 0 0 -1
outer loop
vertex 27.5 22.5 0
vertex -22.5 -27.5 0
vertex -22.5 22.5 0
endloop
endfacet
facet normal 0 0 1
outer loop
vertex -22.5 -27.5 5
vertex -20 -27.5 5
vertex -20 22.5 5
endloop
endfacet
facet normal 0 0 1
outer loop
vertex -22.5 -27.5 5
vertex -20 22.5 5
vertex -22.5 22.5 5
endloop
endfacet
facet normal 0 0 1
outer loop
vertex 25 -27.5 5
vertex 27.5 -27.5 5
vertex 27.5 22.5 5
endloop
endfacet
facet normal 0 0 1
outer loop
vertex 25 -27.5 5
vertex 27.5 22.5 5
vertex 25 22.5 5
endloop
endfacet
facet normal 0 0 1
outer loop
vertex 25 20 5
vertex 25 22.5 5
vertex -20 22.5 5
endloop
endfacet
facet normal 0 0 1
outer loop
vertex 25 20 5
vertex -20 22.5 5
vertex -20 20 5
endloop
endfacet
facet normal 0 0 1
outer loop
vertex -20 -27.5 5
vertex 25 -27.5 5
vertex 25 -25 5
endloop
endfacet
facet normal 0 0 1
outer loop
vertex -20 -27.5 5
vertex 25 -25 5
vertex -20 -25 5
endloop
endfacet
endsolid craftml
