solid csg.js
facet normal -1 0 0
outer loop
vertex -15 0 0
vertex -15 0 10
vertex -15 10 10
endloop
endfacet
facet normal -1 0 0
outer loop
vertex -15 0 0
vertex -15 10 10
vertex -15 10 0
endloop
endfacet
facet normal 1 0 0
outer loop
vertex -5 0 0
vertex -5 10 0
vertex -5 10 10
endloop
endfacet
facet normal 1 0 0
outer loop
vertex -5 0 0
vertex -5 10 10
vertex -5 0 10
endloop
endfacet
facet normal 0 -1 0
outer loop
vertex -15 0 0
vertex -5 0 0
vertex -5 0 10
endloop
endfacet
facet normal 0 -1 0
outer loop
vertex -15 0 0
vertex -5 0 10
vertex -15 0 10
endloop
endfacet
facet normal 0 1 0
outer loop
vertex -15 10 0
vertex -15 10 10
vertex -5 10 10
endloop
endfacet
facet normal 0 1 0
outer loop
vertex -15 10 0
vertex -5 10 10
vertex -5 10 0
endloop
endfacet
facet normal 0 0 -1
outer loop
vertex -15 0 0
vertex -15 10 0
vertex -5 10 0
endloop
endfacet
facet normal 0 0 -1
outer loop
vertex -15 0 0
vertex -5 10 0
vertex -5 0 0
endloop
endfacet
facet normal 0 0 1
outer loop
vertex -15 0 10
vertex -5 0 10
vertex -5 10 10
endloop
endfacet
facet normal 0 0 1
outer loop
vertex -15 0 10
vertex -5 10 10
vertex -15 10 10
endloop
endfacet
facet normal -1 0 0
outer loop
vertex 30 0 0
vertex 30 0 10
vertex 30 10 10
endloop
endfacet
facet normal -1 0 0
outer loop
vertex 30 0 0
vertex 30 10 10
vertex 30 10 0
endloop
endfacet
facet normal 0 -1 0
outer loop
vertex 30 0 0
vertex 40 0 0
vertex 40 0 10
endloop
endfacet
facet normal 0 -1 0
outer loop
vertex 30 0 0
vertex 40 0 10
vertex 30 0 10
endloop
endfacet
facet normal 0 1 0
outer loop
vertex 30 10 0
vertex 30 10 10
vertex 40 10 10
endloop
endfacet
facet normal 0 1 0
outer loop
vertex 30 10 0
vertex 40 10 10
vertex 40 10 0
endloop
endfacet
facet normal 0 0 -1
outer loop
vertex 30 0 0
vertex 30 10 0
vertex 40 10 0
endloop
endfacet
facet normal 0 0 -1
outer loop
vertex 30 0 0
vertex 40 10 0
vertex 40 0 0
endloop
endfacet
facet normal 0 0 1
outer loop
vertex 30 0 10
vertex 40 0 10
vertex 40 10 10
endloop
endfacet
facet normal 0 0 1
outer loop
vertex 30 0 10
vertex 40 10 10
vertex 30 10 10
endloop
endfacet
facet normal -1 0 0
outer loop
vertex 0 -15 -15
vertex 0 -15 -5
vertex 0 -5 -5
endloop
endfacet
facet normal -1 0 0
outer loop
vertex 0 -15 -15
vertex 0 -5 -5
vertex 0 -5 -15
endloop
endfacet
facet normal 1 0 0
outer loop
vertex 10 -15 -15
vertex 10 -5 -15
vertex 10 -5 -5
endloop
endfacet
facet normal 1 0 0
outer loop
vertex 10 -15 -15
vertex 10 -5 -5
vertex 10 -15 -5
endloop
endfacet
facet normal 0 -1 0
outer loop
vertex 0 -15 -15
vertex 10 -15 -15
vertex 10 -15 -5
endloop
endfacet
facet normal 0 -1 0
outer loop
vertex 0 -15 -15
vertex 10 -15 -5
vertex 0 -15 -5
endloop
endfacet
facet normal 0 1 0
outer loop
vertex 0 -5 -15
vertex 0 -5 -5
vertex 10 -5 -5
endloop
endfacet
facet normal 0 1 0
outer loop
vertex 0 -5 -15
vertex 10 -5 -5
vertex 10 -5 -15
endloop
endfacet
facet normal 0 0 -1
outer loop
vertex 0 -15 -15
vertex 0 -5 -15
vertex 10 -5 -15
endloop
endfacet
facet normal 0 0 -1
outer loop
vertex 0 -15 -15
vertex 10 -5 -15
vertex 10 -15 -15
endloop
endfacet
facet normal 0 0 1
outer loop
vertex 0 -15 -5
vertex 10 -15 -5
vertex 10 -5 -5
endloop
endfacet
facet normal 0 0 1
outer loop
vertex 0 -15 -5
vertex 10 -5 -5
vertex 0 -5 -5
endloop
endfacet
facet normal -1 0 0
outer loop
vertex 0 30 30
vertex 0 30 40
vertex 0 40 40
endloop
endfacet
facet normal -1 0 0
outer loop
vertex 0 30 30
vertex 0 40 40
vertex 0 40 30
endloop
endfacet
facet normal 1 0 0
outer loop
vertex 10 30 30
vertex 10 40 30
vertex 10 40 40
endloop
endfacet
facet normal 1 0 0
outer loop
vertex 10 30 30
vertex 10 40 40
vertex 10 30 40
endloop
endfacet
facet normal 0 -1 0
outer loop
vertex 0 30 30
vertex 10 30 30
vertex 10 30 40
endloop
endfacet
facet normal 0 -1 0
outer loop
vertex 0 30 30
vertex 10 30 40
vertex 0 30 40
endloop
endfacet
facet normal 0 1 0
outer loop
vertex 0 40 30
vertex 0 40 40
vertex 10 40 40
endloop
endfacet
facet normal 0 1 0
outer loop
vertex 0 40 30
vertex 10 40 40
vertex 10 40 30
endloop
endfacet
facet normal 0 0 -1
outer loop
vertex 0 30 30
vertex 0 40 30
vertex 10 40 30
endloop
endfacet
facet normal 0 0 -1
outer loop
vertex 0 30 30
vertex 10 40 30
vertex 10 30 30
endloop
endfacet
facet normal 0 0 1
outer loop
vertex 0 30 40
vertex 10 30 40
vertex 10 40 40
endloop
endfacet
facet normal 0 0 1
outer loop
vertex 0 30 40
vertex 10 40 40
vertex 0 40 40
endloop
endfacet
facet normal -1 0 0
outer loop
vertex 40 10 30
vertex 40 30 30
vertex 40 30 0
endloop
endfacet
facet normal -1 0 0
outer loop
vertex 40 10 30
vertex 40 30 0
vertex 40 10 0
endloop
endfacet
facet normal -1 0 0
outer loop
vertex 40 0 10
vertex 40 0 30
vertex 40 10 30
endloop
endfacet
facet normal -1 0 0
outer loop
vertex 40 0 10
vertex 40 10 30
vertex 40 10 10
endloop
endfacet
facet normal 1 0 0
outer loop
vertex 70 0 0
vertex 70 30 0
vertex 70 30 30
endloop
endfacet
facet normal 1 0 0
outer loop
vertex 70 0 0
vertex 70 30 30
vertex 70 0 30
endloop
endfacet
facet normal 0 -1 0
outer loop
vertex 40 0 0
vertex 70 0 0
vertex 70 0 30
endloop
endfacet
facet normal 0 -1 0
outer loop
vertex 40 0 0
vertex 70 0 30
vertex 40 0 30
endloop
endfacet
facet normal 0 1 0
outer loop
vertex 40 30 0
vertex 40 30 30
vertex 70 30 30
endloop
endfacet
facet normal 0 1 0
outer loop
vertex 40 30 0
vertex 70 30 30
vertex 70 30 0
endloop
endfacet
facet normal 0 0 -1
outer loop
vertex 40 0 0
vertex 40 30 0
vertex 70 30 0
endloop
endfacet
facet normal 0 0 -1
outer loop
vertex 40 0 0
vertex 70 30 0
vertex 70 0 0
endloop
endfacet
facet normal 0 0 1
outer loop
vertex 40 0 30
vertex 70 0 30
vertex 70 30 30
endloop
endfacet
facet normal 0 0 1
outer loop
vertex 40 0 30
vertex 70 30 30
vertex 40 30 30
endloop
endfacet
facet normal 0 0 -1
outer loop
vertex -35 15 0
vertex -20 15 0
vertex -20.51111260566398 11.117714323462188 0
endloop
endfacet
facet normal 0.9914448613738104 -0.13052619222005293 0
outer loop
vertex -20.51111260566398 11.117714323462188 0
vertex -20 15 0
vertex -20 15 30
endloop
endfacet
facet normal 0.9914448613738104 -0.13052619222005293 0
outer loop
vertex -20.51111260566398 11.117714323462188 0
vertex -20 15 30
vertex -20.51111260566398 11.117714323462188 30
endloop
endfacet
facet normal 0 0 1
outer loop
vertex -35 15 30
vertex -20.51111260566398 11.117714323462188 30
vertex -20 15 30
endloop
endfacet
facet normal 0 0 -1
outer loop
vertex -35 15 0
vertex -20.51111260566398 11.117714323462188 0
vertex -22.009618943233416 7.500000000000002 0
endloop
endfacet
facet normal 0.9238795325112871 -0.3826834323650887 0
outer loop
vertex -22.009618943233416 7.500000000000002 0
vertex -20.51111260566398 11.117714323462188 0
vertex -20.51111260566398 11.117714323462188 30
endloop
endfacet
facet normal 0.9238795325112871 -0.3826834323650887 0
outer loop
vertex -22.009618943233416 7.500000000000002 0
vertex -20.51111260566398 11.117714323462188 30
vertex -22.009618943233416 7.500000000000002 30
endloop
endfacet
facet normal 0 0 1
outer loop
vertex -35 15 30
vertex -22.009618943233416 7.500000000000002 30
vertex -20.51111260566398 11.117714323462188 30
endloop
endfacet
facet normal 0 0 -1
outer loop
vertex -35 15 0
vertex -22.009618943233416 7.500000000000002 0
vertex -24.393398282201787 4.3933982822017885 0
endloop
endfacet
facet normal 0.7933533402912348 -0.6087614290087211 0
outer loop
vertex -24.393398282201787 4.3933982822017885 0
vertex -22.009618943233416 7.500000000000002 0
vertex -22.009618943233416 7.500000000000002 30
endloop
endfacet
facet normal 0.7933533402912348 -0.6087614290087211 0
outer loop
vertex -24.393398282201787 4.3933982822017885 0
vertex -22.009618943233416 7.500000000000002 30
vertex -24.393398282201787 4.3933982822017885 30
endloop
endfacet
facet normal 0 0 1
outer loop
vertex -35 15 30
vertex -24.393398282201787 4.3933982822017885 30
vertex -22.009618943233416 7.500000000000002 30
endloop
endfacet
facet normal 0 0 -1
outer loop
vertex -35 15 0
vertex -24.393398282201787 4.3933982822017885 0
vertex -27.5 2.0096189432334217 0
endloop
endfacet
facet normal 0.6087614290087217 -0.7933533402912344 0
outer loop
vertex -27.5 2.0096189432334217 0
vertex -24.393398282201787 4.3933982822017885 0
vertex -24.393398282201787 4.3933982822017885 30
endloop
endfacet
facet normal 0.6087614290087217 -0.7933533402912344 0
outer loop
vertex -27.5 2.0096189432334217 0
vertex -24.393398282201787 4.3933982822017885 30
vertex -27.5 2.0096189432334217 30
endloop
endfacet
facet normal 0 0 1
outer loop
vertex -35 15 30
vertex -27.5 2.0096189432334217 30
vertex -24.393398282201787 4.3933982822017885 30
endloop
endfacet
facet normal 0 0 -1
outer loop
vertex -35 15 0
vertex -27.5 2.0096189432334217 0
vertex -31.117714323462188 0.5111126056639756 0
endloop
endfacet
facet normal 0.38268343236509034 -0.9238795325112864 0
outer loop
vertex -31.117714323462188 0.5111126056639756 0
vertex -27.5 2.0096189432334217 0
vertex -27.5 2.0096189432334217 30
endloop
endfacet
facet normal 0.38268343236509034 -0.9238795325112864 0
outer loop
vertex -31.117714323462188 0.5111126056639756 0
vertex -27.5 2.0096189432334217 30
vertex -31.117714323462188 0.5111126056639756 30
endloop
endfacet
facet normal 0 0 1
outer loop
vertex -35 15 30
vertex -31.117714323462188 0.5111126056639756 30
vertex -27.5 2.0096189432334217 30
endloop
endfacet
facet normal 0 0 -1
outer loop
vertex -35 15 0
vertex -31.117714323462188 0.5111126056639756 0
vertex -35 0 0
endloop
endfacet
facet normal 0.13052619222005132 -0.9914448613738104 0
outer loop
vertex -35 0 0
vertex -31.117714323462188 0.5111126056639756 0
vertex -31.117714323462188 0.5111126056639756 30
endloop
endfacet
facet normal 0.13052619222005132 -0.9914448613738104 0
outer loop
vertex -35 0 0
vertex -31.117714323462188 0.5111126056639756 30
vertex -35 0 30
endloop
endfacet
facet normal 0 0 1
outer loop
vertex -35 15 30
vertex -35 0 30
vertex -31.117714323462188 0.5111126056639756 30
endloop
endfacet
facet normal 0 0 -1
outer loop
vertex -35 15 0
vertex -35 0 0
vertex -38.88228567653781 0.5111126056639756 0
endloop
endfacet
facet normal -0.13052619222005127 -0.9914448613738104 0
outer loop
vertex -38.88228567653781 0.5111126056639756 0
vertex -35 0 0
vertex -35 0 30
endloop
endfacet
facet normal -0.13052619222005127 -0.9914448613738104 0
outer loop
vertex -38.88228567653781 0.5111126056639756 0
vertex -35 0 30
vertex -38.88228567653781 0.5111126056639756 30
endloop
endfacet
facet normal 0 0 1
outer loop
vertex -35 15 30
vertex -38.88228567653781 0.5111126056639756 30
vertex -35 0 30
endloop
endfacet
facet normal 0 0 -1
outer loop
vertex -35 15 0
vertex -38.88228567653781 0.5111126056639756 0
vertex -42.5 2.009618943233419 0
endloop
endfacet
facet normal -0.3826834323650893 -0.923879532511287 0
outer loop
vertex -42.5 2.009618943233419 0
vertex -38.88228567653781 0.5111126056639756 0
vertex -38.88228567653781 0.5111126056639756 30
endloop
endfacet
facet normal -0.3826834323650893 -0.923879532511287 0
outer loop
vertex -42.5 2.009618943233419 0
vertex -38.88228567653781 0.5111126056639756 30
vertex -42.5 2.009618943233419 30
endloop
endfacet
facet normal 0 0 1
outer loop
vertex -35 15 30
vertex -42.5 2.009618943233419 30
vertex -38.88228567653781 0.5111126056639756 30
endloop
endfacet
facet normal 0 0 -1
outer loop
vertex -35 15 0
vertex -42.5 2.009618943233419 0
vertex -45.60660171779821 4.393398282201787 0
endloop
endfacet
facet normal -0.6087614290087205 -0.7933533402912354 0
outer loop
vertex -45.60660171779821 4.393398282201787 0
vertex -42.5 2.009618943233419 0
vertex -42.5 2.009618943233419 30
endloop
endfacet
facet normal -0.6087614290087205 -0.7933533402912354 0
outer loop
vertex -45.60660171779821 4.393398282201787 0
vertex -42.5 2.009618943233419 30
vertex -45.60660171779821 4.393398282201787 30
endloop
endfacet
facet normal 0 0 1
outer loop
vertex -35 15 30
vertex -45.60660171779821 4.393398282201787 30
vertex -42.5 2.009618943233419 30
endloop
endfacet
facet normal 0 0 -1
outer loop
vertex -35 15 0
vertex -45.60660171779821 4.393398282201787 0
vertex -47.99038105676658 7.500000000000002 0
endloop
endfacet
facet normal -0.7933533402912352 -0.6087614290087208 0
outer loop
vertex -47.99038105676658 7.500000000000002 0
vertex -45.60660171779821 4.393398282201787 0
vertex -45.60660171779821 4.393398282201787 30
endloop
endfacet
facet normal -0.7933533402912352 -0.6087614290087208 0
outer loop
vertex -47.99038105676658 7.500000000000002 0
vertex -45.60660171779821 4.393398282201787 30
vertex -47.99038105676658 7.500000000000002 30
endloop
endfacet
facet normal 0 0 1
outer loop
vertex -35 15 30
vertex -47.99038105676658 7.500000000000002 30
vertex -45.60660171779821 4.393398282201787 30
endloop
endfacet
facet normal 0 0 -1
outer loop
vertex -35 15 0
vertex -47.99038105676658 7.500000000000002 0
vertex -49.48888739433602 11.117714323462184 0
endloop
endfacet
facet normal -0.9238795325112871 -0.3826834323650891 0
outer loop
vertex -49.48888739433602 11.117714323462184 0
vertex -47.99038105676658 7.500000000000002 0
vertex -47.99038105676658 7.500000000000002 30
endloop
endfacet
facet normal -0.9238795325112871 -0.3826834323650891 0
outer loop
vertex -49.48888739433602 11.117714323462184 0
vertex -47.99038105676658 7.500000000000002 30
vertex -49.48888739433602 11.117714323462184 30
endloop
endfacet
facet normal 0 0 1
outer loop
vertex -35 15 30
vertex -49.48888739433602 11.117714323462184 30
vertex -47.99038105676658 7.500000000000002 30
endloop
endfacet
facet normal 0 0 -1
outer loop
vertex -35 15 0
vertex -49.48888739433602 11.117714323462184 0
vertex -50 14.999999999999996 0
endloop
endfacet
facet normal -0.9914448613738104 -0.1305261922200529 0
outer loop
vertex -50 14.999999999999996 0
vertex -49.48888739433602 11.117714323462184 0
vertex -49.48888739433602 11.117714323462184 30
endloop
endfacet
facet normal -0.9914448613738104 -0.1305261922200529 0
outer loop
vertex -50 14.999999999999996 0
vertex -49.48888739433602 11.117714323462184 30
vertex -50 14.999999999999996 30
endloop
endfacet
facet normal 0 0 1
outer loop
vertex -35 15 30
vertex -50 14.999999999999996 30
vertex -49.48888739433602 11.117714323462184 30
endloop
endfacet
facet normal 0 0 -1
outer loop
vertex -35 15 0
vertex -50 14.999999999999996 0
vertex -49.488887394336025 18.882285676537805 0
endloop
endfacet
facet normal -0.9914448613738105 0.13052619222005055 0
outer loop
vertex -49.488887394336025 18.882285676537805 0
vertex -50 14.999999999999996 0
vertex -50 14.999999999999996 30
endloop
endfacet
facet normal -0.9914448613738105 0.13052619222005055 0
outer loop
vertex -49.488887394336025 18.882285676537805 0
vertex -50 14.999999999999996 30
vertex -49.488887394336025 18.882285676537805 30
endloop
endfacet
facet normal 0 0 1
outer loop
vertex -35 15 30
vertex -49.488887394336025 18.882285676537805 30
vertex -50 14.999999999999996 30
endloop
endfacet
facet normal 0 0 -1
outer loop
vertex -35 15 0
vertex -49.488887394336025 18.882285676537805 0
vertex -47.99038105676658 22.5 0
endloop
endfacet
facet normal -0.923879532511287 0.3826834323650892 0
outer loop
vertex -47.99038105676658 22.5 0
vertex -49.488887394336025 18.882285676537805 0
vertex -49.488887394336025 18.882285676537805 30
endloop
endfacet
facet normal -0.923879532511287 0.3826834323650892 0
outer loop
vertex -47.99038105676658 22.5 0
vertex -49.488887394336025 18.882285676537805 30
vertex -47.99038105676658 22.5 30
endloop
endfacet
facet normal 0 0 1
outer loop
vertex -35 15 30
vertex -47.99038105676658 22.5 30
vertex -49.488887394336025 18.882285676537805 30
endloop
endfacet
facet normal 0 0 -1
outer loop
vertex -35 15 0
vertex -47.99038105676658 22.5 0
vertex -45.60660171779821 25.606601717798213 0
endloop
endfacet
facet normal -0.7933533402912365 0.6087614290087191 0
outer loop
vertex -45.60660171779821 25.606601717798213 0
vertex -47.99038105676658 22.5 0
vertex -47.99038105676658 22.5 30
endloop
endfacet
facet normal -0.7933533402912365 0.6087614290087191 0
outer loop
vertex -45.60660171779821 25.606601717798213 0
vertex -47.99038105676658 22.5 30
vertex -45.60660171779821 25.606601717798213 30
endloop
endfacet
facet normal 0 0 1
outer loop
vertex -35 15 30
vertex -45.60660171779821 25.606601717798213 30
vertex -47.99038105676658 22.5 30
endloop
endfacet
facet normal 0 0 -1
outer loop
vertex -35 15 0
vertex -45.60660171779821 25.606601717798213 0
vertex -42.50000000000001 27.990381056766573 0
endloop
endfacet
facet normal -0.6087614290087198 0.7933533402912358 0
outer loop
vertex -42.50000000000001 27.990381056766573 0
vertex -45.60660171779821 25.606601717798213 0
vertex -45.60660171779821 25.606601717798213 30
endloop
endfacet
facet normal -0.6087614290087198 0.7933533402912358 0
outer loop
vertex -42.50000000000001 27.990381056766573 0
vertex -45.60660171779821 25.606601717798213 30
vertex -42.50000000000001 27.990381056766573 30
endloop
endfacet
facet normal 0 0 1
outer loop
vertex -35 15 30
vertex -42.50000000000001 27.990381056766573 30
vertex -45.60660171779821 25.606601717798213 30
endloop
endfacet
facet normal 0 0 -1
outer loop
vertex -35 15 0
vertex -42.50000000000001 27.990381056766573 0
vertex -38.88228567653781 29.48888739433602 0
endloop
endfacet
facet normal -0.3826834323650894 0.923879532511287 0
outer loop
vertex -38.88228567653781 29.48888739433602 0
vertex -42.50000000000001 27.990381056766573 0
vertex -42.50000000000001 27.990381056766573 30
endloop
endfacet
facet normal -0.3826834323650894 0.923879532511287 0
outer loop
vertex -38.88228567653781 29.48888739433602 0
vertex -42.50000000000001 27.990381056766573 30
vertex -38.88228567653781 29.48888739433602 30
endloop
endfacet
facet normal 0 0 1
outer loop
vertex -35 15 30
vertex -38.88228567653781 29.48888739433602 30
vertex -42.50000000000001 27.990381056766573 30
endloop
endfacet
facet normal 0 0 -1
outer loop
vertex -35 15 0
vertex -38.88228567653781 29.48888739433602 0
vertex -35 30 0
endloop
endfacet
facet normal -0.130526192220053 0.9914448613738104 0
outer loop
vertex -35 30 0
vertex -38.88228567653781 29.48888739433602 0
vertex -38.88228567653781 29.48888739433602 30
endloop
endfacet
facet normal -0.130526192220053 0.9914448613738104 0
outer loop
vertex -35 30 0
vertex -38.88228567653781 29.48888739433602 30
vertex -35 30 30
endloop
endfacet
facet normal 0 0 1
outer loop
vertex -35 15 30
vertex -35 30 30
vertex -38.88228567653781 29.48888739433602 30
endloop
endfacet
facet normal 0 0 -1
outer loop
vertex -35 15 0
vertex -35 30 0
vertex -31.117714323462195 29.488887394336025 0
endloop
endfacet
facet normal 0.1305261922200515 0.9914448613738104 0
outer loop
vertex -31.117714323462195 29.488887394336025 0
vertex -35 30 0
vertex -35 30 30
endloop
endfacet
facet normal 0.1305261922200515 0.9914448613738104 0
outer loop
vertex -31.117714323462195 29.488887394336025 0
vertex -35 30 30
vertex -31.117714323462195 29.488887394336025 30
endloop
endfacet
facet normal 0 0 1
outer loop
vertex -35 15 30
vertex -31.117714323462195 29.488887394336025 30
vertex -35 30 30
endloop
endfacet
facet normal 0 0 -1
outer loop
vertex -35 15 0
vertex -31.117714323462195 29.488887394336025 0
vertex -27.5 27.99038105676658 0
endloop
endfacet
facet normal 0.3826834323650904 0.9238795325112866 0
outer loop
vertex -27.5 27.99038105676658 0
vertex -31.117714323462195 29.488887394336025 0
vertex -31.117714323462195 29.488887394336025 30
endloop
endfacet
facet normal 0.3826834323650904 0.9238795325112866 0
outer loop
vertex -27.5 27.99038105676658 0
vertex -31.117714323462195 29.488887394336025 30
vertex -27.5 27.99038105676658 30
endloop
endfacet
facet normal 0 0 1
outer loop
vertex -35 15 30
vertex -27.5 27.99038105676658 30
vertex -31.117714323462195 29.488887394336025 30
endloop
endfacet
facet normal 0 0 -1
outer loop
vertex -35 15 0
vertex -27.5 27.99038105676658 0
vertex -24.393398282201787 25.606601717798213 0
endloop
endfacet
facet normal 0.6087614290087197 0.7933533402912358 0
outer loop
vertex -24.393398282201787 25.606601717798213 0
vertex -27.5 27.99038105676658 0
vertex -27.5 27.99038105676658 30
endloop
endfacet
facet normal 0.6087614290087197 0.7933533402912358 0
outer loop
vertex -24.393398282201787 25.606601717798213 0
vertex -27.5 27.99038105676658 30
vertex -24.393398282201787 25.606601717798213 30
endloop
endfacet
facet normal 0 0 1
outer loop
vertex -35 15 30
vertex -24.393398282201787 25.606601717798213 30
vertex -27.5 27.99038105676658 30
endloop
endfacet
facet normal 0 0 -1
outer loop
vertex -35 15 0
vertex -24.393398282201787 25.606601717798213 0
vertex -22.009618943233427 22.500000000000007 0
endloop
endfacet
facet normal 0.7933533402912359 0.6087614290087198 0
outer loop
vertex -22.009618943233427 22.500000000000007 0
vertex -24.393398282201787 25.606601717798213 0
vertex -24.393398282201787 25.606601717798213 30
endloop
endfacet
facet normal 0.7933533402912359 0.6087614290087198 0
outer loop
vertex -22.009618943233427 22.500000000000007 0
vertex -24.393398282201787 25.606601717798213 30
vertex -22.009618943233427 22.500000000000007 30
endloop
endfacet
facet normal 0 0 1
outer loop
vertex -35 15 30
vertex -22.009618943233427 22.500000000000007 30
vertex -24.393398282201787 25.606601717798213 30
endloop
endfacet
facet normal 0 0 -1
outer loop
vertex -35 15 0
vertex -22.009618943233427 22.500000000000007 0
vertex -20.51111260566398 18.882285676537812 0
endloop
endfacet
facet normal 0.9238795325112871 0.38268343236508917 0
outer loop
vertex -20.51111260566398 18.882285676537812 0
vertex -22.009618943233427 22.500000000000007 0
vertex -22.009618943233427 22.500000000000007 30
endloop
endfacet
facet normal 0.9238795325112871 0.38268343236508917 0
outer loop
vertex -20.51111260566398 18.882285676537812 0
vertex -22.009618943233427 22.500000000000007 30
vertex -20.51111260566398 18.882285676537812 30
endloop
endfacet
facet normal 0 0 1
outer loop
vertex -35 15 30
vertex -20.51111260566398 18.882285676537812 30
vertex -22.009618943233427 22.500000000000007 30
endloop
endfacet
facet normal 0 0 -1
outer loop
vertex -35 15 0
vertex -20.51111260566398 18.882285676537812 0
vertex -20 15.000000000000004 0
endloop
endfacet
facet normal 0.9914448613738104 0.13052619222005293 0
outer loop
vertex -20 15.000000000000004 0
vertex -20.51111260566398 18.882285676537812 0
vertex -20.51111260566398 18.882285676537812 30
endloop
endfacet
facet normal 0.9914448613738104 0.13052619222005293 0
outer loop
vertex -20 15.000000000000004 0
vertex -20.51111260566398 18.882285676537812 30
vertex -20 15.000000000000004 30
endloop
endfacet
facet normal 0 0 1
outer loop
vertex -35 15 30
vertex -20 15.000000000000004 30
vertex -20.51111260566398 18.882285676537812 30
endloop
endfacet
endsolid csg.js
