solid craftml
facet normal -1 0 0
outer loop
vertex 0 -10 0
vertex 0 -10 10
vertex 0 0 10
endloop
endfacet
facet normal -1 0 0
outer loop
vertex 0 -10 0
vertex 0 0 10
vertex 0 0 0
endloop
endfacet
facet normal 1 0 0
outer loop
vertex 10 0 10
vertex 10 -10 10
vertex 10 -10 0
endloop
endfacet
facet normal 1 0 0
outer loop
vertex 10 0 10
vertex 10 -10 0
vertex 10 0 0
endloop
endfacet
facet normal 0 1 0
outer loop
vertex 0 0 10
vertex 10 0 10
vertex 10 0 0
endloop
endfacet
facet normal 0 1 0
outer loop
vertex 0 0 10
vertex 10 0 0
vertex 0 0 0
endloop
endfacet
facet normal 0 -1 0
outer loop
vertex 10 -10 0
vertex 10 -10 10
vertex 0 -10 10
endloop
endfacet
facet normal 0 -1 0
outer loop
vertex 10 -10 0
vertex 0 -10 10
vertex 0 -10 0
endloop
endfacet
facet normal 0 0 -1
outer loop
vertex 10 0 0
vertex 10 -10 0
vertex 0 -10 0
endloop
endfacet
facet normal 0 0 -1
outer loop
vertex 10 0 0
vertex 0 -10 0
vertex 0 0 0
endloop
endfacet
facet normal 0 0 1
outer loop
vertex 0 -10 10
vertex 10 -10 10
vertex 10 0 10
endloop
endfacet
facet normal 0 0 1
outer loop
vertex 0 -10 10
vertex 10 0 10
vertex 0 0 10
endloop
endfacet
facet normal -1 0 0
outer loop
vertex 33.33333333333333 -20 0
vertex 33.33333333333333 -20 10
vertex 33.33333333333333 -10 10
endloop
endfacet
facet normal -1 0 0
outer loop
vertex 33.33333333333333 -20 0
vertex 33.33333333333333 -10 10
vertex 33.33333333333333 -10 0
endloop
endfacet
facet normal 1 0 0
outer loop
vertex 43.33333333333333 -10 10
vertex 43.33333333333333 -20 10
vertex 43.33333333333333 -20 0
endloop
endfacet
facet normal 1 0 0
outer loop
vertex 43.33333333333333 -10 10
vertex 43.33333333333333 -20 0
vertex 43.33333333333333 -10 0
endloop
endfacet
facet normal 0 1 0
outer loop
vertex 33.33333333333333 -10 10
vertex 43.33333333333333 -10 10
vertex 43.33333333333333 -10 0
endloop
endfacet
facet normal 0 1 0
outer loop
vertex 33.33333333333333 -10 10
vertex 43.33333333333333 -10 0
vertex 33.33333333333333 -10 0
endloop
endfacet
facet normal 0 -1 0
outer loop
vertex 43.33333333333333 -20 0
vertex 43.33333333333333 -20 10
vertex 33.33333333333333 -20 10
endloop
endfacet
facet normal 0 -1 0
outer loop
vertex 43.33333333333333 -20 0
vertex 33.33333333333333 -20 10
vertex 33.33333333333333 -20 0
endloop
endfacet
facet normal 0 0 -1
outer loop
vertex 43.33333333333333 -10 0
vertex 43.33333333333333 -20 0
vertex 33.33333333333333 -20 0
endloop
endfacet
facet normal 0 0 -1
outer loop
vertex 43.33333333333333 -10 0
vertex 33.33333333333333 -20 0
vertex 33.33333333333333 -10 0
endloop
endfacet
facet normal 0 0 1
outer loop
vertex 33.33333333333333 -20 10
vertex 43.33333333333333 -20 10
vertex 43.33333333333333 -10 10
endloop
endfacet
facet normal 0 0 1
outer loop
vertex 33.33333333333333 -20 10
vertex 43.33333333333333 -10 10
vertex 33.33333333333333 -10 10
endloop
endfacet
facet normal -1 0 0
outer loop
vertex 66.66666666666666 -30 0
vertex 66.66666666666666 -30 10
vertex 66.66666666666666 -20 10
endloop
endfacet
facet normal -1 0 0
outer loop
vertex 66.66666666666666 -30 0
vertex 66.66666666666666 -20 10
vertex 66.66666666666666 -20 0
endloop
endfacet
facet normal 1 0 0
outer loop
vertex 76.66666666666666 -20 10
vertex 76.66666666666666 -30 10
vertex 76.66666666666666 -30 0
endloop
endfacet
facet normal 1 0 0
outer loop
vertex 76.66666666666666 -20 10
vertex 76.66666666666666 -30 0
vertex 76.66666666666666 -20 0
endloop
endfacet
facet normal 0 1 0
outer loop
vertex 66.66666666666666 -20 10
vertex 76.66666666666666 -20 10
vertex 76.66666666666666 -20 0
endloop
endfacet
facet normal 0 1 0
outer loop
vertex 66.66666666666666 -20 10
vertex 76.66666666666666 -20 0
vertex 66.66666666666666 -20 0
endloop
endfacet
facet normal 0 -1 0
outer loop
vertex 76.66666666666666 -30 0
vertex 76.66666666666666 -30 10
vertex 66.66666666666666 -30 10
endloop
endfacet
facet normal 0 -1 0
outer loop
vertex 76.66666666666666 -30 0
vertex 66.66666666666666 -30 10
vertex 66.66666666666666 -30 0
endloop
endfacet
facet normal 0 0 -1
outer loop
vertex 76.66666666666666 -20 0
vertex 76.66666666666666 -30 0
vertex 66.66666666666666 -30 0
endloop
endfacet
facet normal 0 0 -1
outer loop
vertex 76.66666666666666 -20 0
vertex 66.66666666666666 -30 0
vertex 66.66666666666666 -20 0
endloop
endfacet
facet normal 0 0 1
outer loop
vertex 66.66666666666666 -30 10
vertex 76.66666666666666 -30 10
vertex 76.66666666666666 -20 10
endloop
endfacet
facet normal 0 0 1
outer loop
vertex 66.66666666666666 -30 10
vertex 76.66666666666666 -20 10
vertex 66.66666666666666 -20 10
endloop
endfacet
facet normal -1 0 0
outer loop
vertex 0 -40 0
vertex 0 -40 10
vertex 0 -30 10
endloop
endfacet
facet normal -1 0 0
outer loop
vertex 0 -40 0
vertex 0 -30 10
vertex 0 -30 0
endloop
endfacet
facet normal 1 0 0
outer loop
vertex 10 -30 10
vertex 10 -40 10
vertex 10 -40 0
endloop
endfacet
facet normal 1 0 0
outer loop
vertex 10 -30 10
vertex 10 -40 0
vertex 10 -30 0
endloop
endfacet
facet normal 0 1 0
outer loop
vertex 0 -30 10
vertex 10 -30 10
vertex 10 -30 0
endloop
endfacet
facet normal 0 1 0
outer loop
vertex 0 -30 10
vertex 10 -30 0
vertex 0 -30 0
endloop
endfacet
facet normal 0 0 -1
outer loop
vertex 10 -30 0
vertex 10 -40 0
vertex 0 -40 0
endloop
endfacet
facet normal 0 0 -1
outer loop
vertex 10 -30 0
vertex 0 -40 0
vertex 0 -30 0
endloop
endfacet
facet normal 0 0 1
outer loop
vertex 0 -40 10
vertex 10 -40 10
vertex 10 -30 10
endloop
endfacet
facet normal 0 0 1
outer loop
vertex 0 -40 10
vertex 10 -30 10
vertex 0 -30 10
endloop
endfacet
facet normal -1 0 0
outer loop
vertex 0 -50 0
vertex 0 -50 10
vertex 0 -40 10
endloop
endfacet
facet normal -1 0 0
outer loop
vertex 0 -50 0
vertex 0 -40 10
vertex 0 -40 0
endloop
endfacet
facet normal 1 0 0
outer loop
vertex 10 -40 10
vertex 10 -50 10
vertex 10 -50 0
endloop
endfacet
facet normal 1 0 0
outer loop
vertex 10 -40 10
vertex 10 -50 0
vertex 10 -40 0
endloop
endfacet
facet normal 0 -1 0
outer loop
vertex 10 -50 0
vertex 10 -50 10
vertex 0 -50 10
endloop
endfacet
facet normal 0 -1 0
outer loop
vertex 10 -50 0
vertex 0 -50 10
vertex 0 -50 0
endloop
endfacet
facet normal 0 0 -1
outer loop
vertex 10 -40 0
vertex 10 -50 0
vertex 0 -50 0
endloop
endfacet
facet normal 0 0 -1
outer loop
vertex 10 -40 0
vertex 0 -50 0
vertex 0 -40 0
endloop
endfacet
facet normal 0 0 1
outer loop
vertex 0 -50 10
vertex 10 -50 10
vertex 10 -40 10
endloop
endfacet
facet normal 0 0 1
outer loop
vertex 0 -50 10
vertex 10 -40 10
vertex 0 -40 10
endloop
endfacet
facet normal -1 0 0
outer loop
vertex 99.99999999999999 -60 0
vertex 99.99999999999999 -60 10
vertex 99.99999999999999 -50 10
endloop
endfacet
facet normal -1 0 0
outer loop
vertex 99.99999999999999 -60 0
vertex 99.99999999999999 -50 10
vertex 99.99999999999999 -50 0
endloop
endfacet
facet normal 1 0 0
outer loop
vertex 109.99999999999999 -50 10
vertex 109.99999999999999 -60 10
vertex 109.99999999999999 -60 0
endloop
endfacet
facet normal 1 0 0
outer loop
vertex 109.99999999999999 -50 10
vertex 109.99999999999999 -60 0
vertex 109.99999999999999 -50 0
endloop
endfacet
facet normal 0 1 0
outer loop
vertex 99.99999999999999 -50 10
vertex 109.99999999999999 -50 10
vertex 109.99999999999999 -50 0
endloop
endfacet
facet normal 0 1 0
outer loop
vertex 99.99999999999999 -50 10
vertex 109.99999999999999 -50 0
vertex 99.99999999999999 -50 0
endloop
endfacet
facet normal 0 -1 0
outer loop
vertex 109.99999999999999 -60 0
vertex 109.99999999999999 -60 10
vertex 99.99999999999999 -60 10
endloop
endfacet
facet normal 0 -1 0
outer loop
vertex 109.99999999999999 -60 0
vertex 99.99999999999999 -60 10
vertex 99.99999999999999 -60 0
endloop
endfacet
facet normal 0 0 -1
outer loop
vertex 109.99999999999999 -50 0
vertex 109.99999999999999 -60 0
vertex 99.99999999999999 -60 0
endloop
endfacet
facet normal 0 0 -1
outer loop
vertex 109.99999999999999 -50 0
vertex 99.99999999999999 -60 0
vertex 99.99999999999999 -50 0
endloop
endfacet
facet normal 0 0 1
outer loop
vertex 99.99999999999999 -60 10
vertex 109.99999999999999 -60 10
vertex 109.99999999999999 -50 10
endloop
endfacet
facet normal 0 0 1
outer loop
vertex 99.99999999999999 -60 10
vertex 109.99999999999999 -50 10
vertex 99.99999999999999 -50 10
endloop
endfacet
endsolid craftml
