solid craftml
facet normal -1 0 0
outer loop
vertex 0 -5 0
vertex 0 -5 5
vertex 0 0 5
endloop
endfacet
facet normal -1 0 0
outer loop
vertex 0 -5 0
vertex 0 0 5
vertex 0 0 0
endloop
endfacet
facet normal 0 1 0
outer loop
vertex 0 0 5
vertex 10 0 5
vertex 10 0 0
endloop
endfacet
facet normal 0 1 0
outer loop
vertex 0 0 5
vertex 10 0 0
vertex 0 0 0
endloop
endfacet
facet normal 0 0 -1
outer loop
vertex 10 0 0
vertex 10 -5 0
vertex 0 -5 0
endloop
endfacet
facet normal 0 0 -1
outer loop
vertex 10 0 0
vertex 0 -5 0
vertex 0 0 0
endloop
endfacet
facet normal -1 0 0
outer loop
vertex 0 -5 0
vertex 0 -20 0
vertex 0 -20 10
endloop
endfacet
facet normal -1 0 0
outer loop
vertex 0 -5 0
vertex 0 -20 10
vertex 0 -5 10
endloop
endfacet
facet normal -1 0 0
outer loop
vertex 0 -5 5
vertex 0 -5 10
vertex 0 0 10
endloop
endfacet
facet normal -1 0 0
outer loop
vertex 0 -5 5
vertex 0 0 10
vertex 0 0 5
endloop
endfacet
facet normal 0 1 0
outer loop
vertex 0 0 5
vertex 0 0 10
vertex 10 0 10
endloop
endfacet
facet normal 0 1 0
outer loop
vertex 0 0 5
vertex 10 0 10
vertex 10 0 5
endloop
endfacet
facet normal 0 0 -1
outer loop
vertex 10 -5 0
vertex 10 -20 0
vertex 0 -20 0
endloop
endfacet
facet normal 0 0 -1
outer loop
vertex 10 -5 0
vertex 0 -20 0
vertex 0 -5 0
endloop
endfacet
facet normal -1 0 0
outer loop
vertex 0 -20 0
vertex 0 -40 0
vertex 0 -40 20
endloop
endfacet
facet normal -1 0 0
outer loop
vertex 0 -20 0
vertex 0 -40 20
vertex 0 -20 20
endloop
endfacet
facet normal -1 0 0
outer loop
vertex 0 -5 10
vertex 0 -20 10
vertex 0 -20 20
endloop
endfacet
facet normal -1 0 0
outer loop
vertex 0 -5 10
vertex 0 -20 20
vertex 0 -5 20
endloop
endfacet
facet normal -1 0 0
outer loop
vertex 0 -5 10
vertex 0 -5 20
vertex 0 0 20
endloop
endfacet
facet normal -1 0 0
outer loop
vertex 0 -5 10
vertex 0 0 20
vertex 0 0 10
endloop
endfacet
facet normal 1 0 0
outer loop
vertex 20 0 20
vertex 20 -40 20
vertex 20 -40 0
endloop
endfacet
facet normal 1 0 0
outer loop
vertex 20 0 20
vertex 20 -40 0
vertex 20 0 0
endloop
endfacet
facet normal 0 1 0
outer loop
vertex 10 0 20
vertex 20 0 20
vertex 20 0 0
endloop
endfacet
facet normal 0 1 0
outer loop
vertex 10 0 20
vertex 20 0 0
vertex 10 0 0
endloop
endfacet
facet normal 0 1 0
outer loop
vertex 0 0 10
vertex 0 0 20
vertex 10 0 20
endloop
endfacet
facet normal 0 1 0
outer loop
vertex 0 0 10
vertex 10 0 20
vertex 10 0 10
endloop
endfacet
facet normal 0 -1 0
outer loop
vertex 20 -40 0
vertex 20 -40 20
vertex 0 -40 20
endloop
endfacet
facet normal 0 -1 0
outer loop
vertex 20 -40 0
vertex 0 -40 20
vertex 0 -40 0
endloop
endfacet
facet normal 0 0 -1
outer loop
vertex 20 0 0
vertex 20 -40 0
vertex 10 -40 0
endloop
endfacet
facet normal 0 0 -1
outer loop
vertex 20 0 0
vertex 10 -40 0
vertex 10 0 0
endloop
endfacet
facet normal 0 0 -1
outer loop
vertex 10 -40 0
vertex 0 -40 0
vertex 0 -20 0
endloop
endfacet
facet normal 0 0 -1
outer loop
vertex 10 -40 0
vertex 0 -20 0
vertex 10 -20 0
endloop
endfacet
facet normal 0 0 1
outer loop
vertex 0 -40 20
vertex 20 -40 20
vertex 20 0 20
endloop
endfacet
facet normal 0 0 1
outer loop
vertex 0 -40 20
vertex 20 0 20
vertex 0 0 20
endloop
endfacet
endsolid craftml
