solid craftml
facet normal 1 0 0
outer loop
vertex 15 -2.5 7.5
vertex 15 -7.5 7.5
vertex 15 -7.5 2.5
endloop
endfacet
facet normal 1 0 0
outer loop
vertex 15 -2.5 7.5
vertex 15 -7.5 2.5
vertex 15 -2.5 2.5
endloop
endfacet
facet normal -1 0 0
outer loop
vertex -5 -30 -5
vertex -5 -30 15
vertex -5 10 15
endloop
endfacet
facet normal -1 0 0
outer loop
vertex -5 -30 -5
vertex -5 10 15
vertex -5 10 -5
endloop
endfacet
facet normal 1 0 0
outer loop
vertex 15 10 15
vertex 15 -2.5 15
vertex 15 -2.5 -5
endloop
endfacet
facet normal 1 0 0
outer loop
vertex 15 10 15
vertex 15 -2.5 -5
vertex 15 10 -5
endloop
endfacet
facet normal 1 0 0
outer loop
vertex 15 -7.5 15
vertex 15 -30 15
vertex 15 -30 -5
endloop
endfacet
facet normal 1 0 0
outer loop
vertex 15 -7.5 15
vertex 15 -30 -5
vertex 15 -7.5 -5
endloop
endfacet
facet normal 1 0 0
outer loop
vertex 15 -2.5 2.5
vertex 15 -7.5 2.5
vertex 15 -7.5 -5
endloop
endfacet
facet normal 1 0 0
outer loop
vertex 15 -2.5 2.5
vertex 15 -7.5 -5
vertex 15 -2.5 -5
endloop
endfacet
facet normal 1 0 0
outer loop
vertex 15 -2.5 7.5
vertex 15 -2.5 15
vertex 15 -7.5 15
endloop
endfacet
facet normal 1 0 0
outer loop
vertex 15 -2.5 7.5
vertex 15 -7.5 15
vertex 15 -7.5 7.5
endloop
endfacet
facet normal 0 1 0
outer loop
vertex -5 10 15
vertex 15 10 15
vertex 15 10 -5
endloop
endfacet
facet normal 0 1 0
outer loop
vertex -5 10 15
vertex 15 10 -5
vertex -5 10 -5
endloop
endfacet
facet normal 0 -1 0
outer loop
vertex 15 -30 -5
vertex 15 -30 15
vertex -5 -30 15
endloop
endfacet
facet normal 0 -1 0
outer loop
vertex 15 -30 -5
vertex -5 -30 15
vertex -5 -30 -5
endloop
endfacet
facet normal 0 0 -1
outer loop
vertex 15 10 -5
vertex 15 -30 -5
vertex -5 -30 -5
endloop
endfacet
facet normal 0 0 -1
outer loop
vertex 15 10 -5
vertex -5 -30 -5
vertex -5 10 -5
endloop
endfacet
facet normal 0 0 1
outer loop
vertex -5 -30 15
vertex 15 -30 15
vertex 15 10 15
endloop
endfacet
facet normal 0 0 1
outer loop
vertex -5 -30 15
vertex 15 10 15
vertex -5 10 15
endloop
endfacet
endsolid craftml
