solid craftml
facet normal -1 0 0
outer loop
vertex -15 -10 0
vertex -15 -10 10
vertex -15 0 10
endloop
endfacet
facet normal -1 0 0
outer loop
vertex -15 -10 0
vertex -15 0 10
vertex -15 0 0
endloop
endfacet
facet normal 1 0 0
outer loop
vertex -5 0 10
vertex -5 -10 10
vertex -5 -10 0
endloop
endfacet
facet normal 1 0 0
outer loop
vertex -5 0 10
vertex -5 -10 0
vertex -5 0 0
endloop
endfacet
facet normal 0 1 0
outer loop
vertex -15 0 10
vertex -5 0 10
vertex -5 0 0
endloop
endfacet
facet normal 0 1 0
outer loop
vertex -15 0 10
vertex -5 0 0
vertex -15 0 0
endloop
endfacet
facet normal 0 -1 0
outer loop
vertex -5 -10 0
vertex -5 -10 10
vertex -15 -10 10
endloop
endfacet
facet normal 0 -1 0
outer loop
vertex -5 -10 0
vertex -15 -10 10
vertex -15 -10 0
endloop
endfacet
facet normal 0 0 -1
outer loop
vertex -5 0 0
vertex -5 -10 0
vertex -15 -10 0
endloop
endfacet
facet normal 0 0 -1
outer loop
vertex -5 0 0
vertex -15 -10 0
vertex -15 0 0
endloop
endfacet
facet normal 0 0 1
outer loop
vertex -15 -10 10
vertex -5 -10 10
vertex -5 0 10
endloop
endfacet
facet normal 0 0 1
outer loop
vertex -15 -10 10
vertex -5 0 10
vertex -15 0 10
endloop
endfacet
facet normal -1 0 0
outer loop
vertex 5 -10 0
vertex 5 -10 10
vertex 5 0 10
endloop
endfacet
facet normal -1 0 0
outer loop
vertex 5 -10 0
vertex 5 0 10
vertex 5 0 0
endloop
endfacet
facet normal 1 0 0
outer loop
vertex 15 0 10
vertex 15 -10 10
vertex 15 -10 0
endloop
endfacet
facet normal 1 0 0
outer loop
vertex 15 0 10
vertex 15 -10 0
vertex 15 0 0
endloop
endfacet
facet normal 0 1 0
outer loop
vertex 5 0 10
vertex 15 0 10
vertex 15 0 0
endloop
endfacet
facet normal 0 1 0
outer loop
vertex 5 0 10
vertex 15 0 0
vertex 5 0 0
endloop
endfacet
facet normal 0 -1 0
outer loop
vertex 15 -10 0
vertex 15 -10 10
vertex 5 -10 10
endloop
endfacet
facet normal 0 -1 0
outer loop
vertex 15 -10 0
vertex 5 -10 10
vertex 5 -10 0
endloop
endfacet
facet normal 0 0 -1
outer loop
vertex 15 0 0
vertex 15 -10 0
vertex 5 -10 0
endloop
endfacet
facet normal 0 0 -1
outer loop
vertex 15 0 0
vertex 5 -10 0
vertex 5 0 0
endloop
endfacet
facet normal 0 0 1
outer loop
vertex 5 -10 10
vertex 15 -10 10
vertex 15 0 10
endloop
endfacet
facet normal 0 0 1
outer loop
vertex 5 -10 10
vertex 15 0 10
vertex 5 0 10
endloop
endfacet
facet normal -1 0 0
outer loop
vertex 25 -10 0
vertex 25 -10 10
vertex 25 0 10
endloop
endfacet
facet normal -1 0 0
outer loop
vertex 25 -10 0
vertex 25 0 10
vertex 25 0 0
endloop
endfacet
facet normal 1 0 0
outer loop
vertex 35 0 10
vertex 35 -10 10
vertex 35 -10 0
endloop
endfacet
facet normal 1 0 0
outer loop
vertex 35 0 10
vertex 35 -10 0
vertex 35 0 0
endloop
endfacet
facet normal 0 1 0
outer loop
vertex 25 0 10
vertex 35 0 10
vertex 35 0 0
endloop
endfacet
facet normal 0 1 0
outer loop
vertex 25 0 10
vertex 35 0 0
vertex 25 0 0
endloop
endfacet
facet normal 0 -1 0
outer loop
vertex 35 -10 0
vertex 35 -10 10
vertex 25 -10 10
endloop
endfacet
facet normal 0 -1 0
outer loop
vertex 35 -10 0
vertex 25 -10 10
vertex 25 -10 0
endloop
endfacet
facet normal 0 0 -1
outer loop
vertex 35 0 0
vertex 35 -10 0
vertex 25 -10 0
endloop
endfacet
facet normal 0 0 -1
outer loop
vertex 35 0 0
vertex 25 -10 0
vertex 25 0 0
endloop
endfacet
facet normal 0 0 1
outer loop
vertex 25 -10 10
vertex 35 -10 10
vertex 35 0 10
endloop
endfacet
facet normal 0 0 1
outer loop
vertex 25 -10 10
vertex 35 0 10
vertex 25 0 10
endloop
endfacet
facet normal -1 0 0
outer loop
vertex -40 -15 45
vertex -40 -15 65
vertex -40 5 65
endloop
endfacet
facet normal -1 0 0
outer loop
vertex -40 -15 45
vertex -40 5 65
vertex -40 5 45
endloop
endfacet
facet normal 1 0 0
outer loop
vertex -20 5 65
vertex -20 -15 65
vertex -20 -15 45
endloop
endfacet
facet normal 1 0 0
outer loop
vertex -20 5 65
vertex -20 -15 45
vertex -20 5 45
endloop
endfacet
facet normal 0 1 0
outer loop
vertex -40 5 65
vertex -20 5 65
vertex -20 5 45
endloop
endfacet
facet normal 0 1 0
outer loop
vertex -40 5 65
vertex -20 5 45
vertex -40 5 45
endloop
endfacet
facet normal 0 -1 0
outer loop
vertex -20 -15 45
vertex -20 -15 65
vertex -40 -15 65
endloop
endfacet
facet normal 0 -1 0
outer loop
vertex -20 -15 45
vertex -40 -15 65
vertex -40 -15 45
endloop
endfacet
facet normal 0 0 -1
outer loop
vertex -20 5 45
vertex -20 -15 45
vertex -40 -15 45
endloop
endfacet
facet normal 0 0 -1
outer loop
vertex -20 5 45
vertex -40 -15 45
vertex -40 5 45
endloop
endfacet
facet normal 0 0 1
outer loop
vertex -40 -15 65
vertex -20 -15 65
vertex -20 5 65
endloop
endfacet
facet normal 0 0 1
outer loop
vertex -40 -15 65
vertex -20 5 65
vertex -40 5 65
endloop
endfacet
facet normal -1 0 0
outer loop
vertex 0 -15 45
vertex 0 -15 65
vertex 0 5 65
endloop
endfacet
facet normal -1 0 0
outer loop
vertex 0 -15 45
vertex 0 5 65
vertex 0 5 45
endloop
endfacet
facet normal 1 0 0
outer loop
vertex 20 5 65
vertex 20 -15 65
vertex 20 -15 45
endloop
endfacet
facet normal 1 0 0
outer loop
vertex 20 5 65
vertex 20 -15 45
vertex 20 5 45
endloop
endfacet
facet normal 0 1 0
outer loop
vertex 0 5 65
vertex 20 5 65
vertex 20 5 45
endloop
endfacet
facet normal 0 1 0
outer loop
vertex 0 5 65
vertex 20 5 45
vertex 0 5 45
endloop
endfacet
facet normal 0 -1 0
outer loop
vertex 20 -15 45
vertex 20 -15 65
vertex 0 -15 65
endloop
endfacet
facet normal 0 -1 0
outer loop
vertex 20 -15 45
vertex 0 -15 65
vertex 0 -15 45
endloop
endfacet
facet normal 0 0 -1
outer loop
vertex 20 5 45
vertex 20 -15 45
vertex 0 -15 45
endloop
endfacet
facet normal 0 0 -1
outer loop
vertex 20 5 45
vertex 0 -15 45
vertex 0 5 45
endloop
endfacet
facet normal 0 0 1
outer loop
vertex 0 -15 65
vertex 20 -15 65
vertex 20 5 65
endloop
endfacet
facet normal 0 0 1
outer loop
vertex 0 -15 65
vertex 20 5 65
vertex 0 5 65
endloop
endfacet
facet normal -1 0 0
outer loop
vertex 40 -15 45
vertex 40 -15 65
vertex 40 5 65
endloop
endfacet
facet normal -1 0 0
outer loop
vertex 40 -15 45
vertex 40 5 65
vertex 40 5 45
endloop
endfacet
facet normal 1 0 0
outer loop
vertex 60 5 65
vertex 60 -15 65
vertex 60 -15 45
endloop
endfacet
facet normal 1 0 0
outer loop
vertex 60 5 65
vertex 60 -15 45
vertex 60 5 45
endloop
endfacet
facet normal 0 1 0
outer loop
vertex 40 5 65
vertex 60 5 65
vertex 60 5 45
endloop
endfacet
facet normal 0 1 0
outer loop
vertex 40 5 65
vertex 60 5 45
vertex 40 5 45
endloop
endfacet
facet normal 0 -1 0
outer loop
vertex 60 -15 45
vertex 60 -15 65
vertex 40 -15 65
endloop
endfacet
facet normal 0 -1 0
outer loop
vertex 60 -15 45
vertex 40 -15 65
vertex 40 -15 45
endloop
endfacet
facet normal 0 0 -1
outer loop
vertex 60 5 45
vertex 60 -15 45
vertex 40 -15 45
endloop
endfacet
facet normal 0 0 -1
outer loop
vertex 60 5 45
vertex 40 -15 45
vertex 40 5 45
endloop
endfacet
facet normal 0 0 1
outer loop
vertex 40 -15 65
vertex 60 -15 65
vertex 60 5 65
endloop
endfacet
facet normal 0 0 1
outer loop
vertex 40 -15 65
vertex 60 5 65
vertex 40 5 65
endloop
endfacet
endsolid craftml
