solid craftml
facet normal -1 0 0
outer loop
vertex 10 -20 0
vertex 10 -20 20
vertex 10 0 20
endloop
endfacet
facet normal -1 0 0
outer loop
vertex 10 -20 0
vertex 10 0 20
vertex 10 0 0
endloop
endfacet
facet normal 1 0 0
outer loop
vertex 30 0 20
vertex 30 -20 20
vertex 30 -20 0
endloop
endfacet
facet normal 1 0 0
outer loop
vertex 30 0 20
vertex 30 -20 0
vertex 30 0 0
endloop
endfacet
facet normal 0 1 0
outer loop
vertex 10 0 20
vertex 30 0 20
vertex 30 0 0
endloop
endfacet
facet normal 0 1 0
outer loop
vertex 10 0 20
vertex 30 0 0
vertex 10 0 0
endloop
endfacet
facet normal 0 -1 0
outer loop
vertex 17.5 -20 20
vertex 10 -20 20
vertex 10 -20 0
endloop
endfacet
facet normal 0 -1 0
outer loop
vertex 17.5 -20 20
vertex 10 -20 0
vertex 17.5 -20 0
endloop
endfacet
facet normal 0 -1 0
outer loop
vertex 30 -20 0
vertex 30 -20 20
vertex 22.5 -20 20
endloop
endfacet
facet normal 0 -1 0
outer loop
vertex 30 -20 0
vertex 22.5 -20 20
vertex 22.5 -20 0
endloop
endfacet
facet normal 0 -1 0
outer loop
vertex 22.5 -20 20
vertex 17.5 -20 20
vertex 17.5 -20 5
endloop
endfacet
facet normal 0 -1 0
outer loop
vertex 22.5 -20 20
vertex 17.5 -20 5
vertex 22.5 -20 5
endloop
endfacet
facet normal 0 0 -1
outer loop
vertex 30 0 0
vertex 30 -20 0
vertex 10 -20 0
endloop
endfacet
facet normal 0 0 -1
outer loop
vertex 30 0 0
vertex 10 -20 0
vertex 10 0 0
endloop
endfacet
facet normal 0 0 1
outer loop
vertex 10 -20 20
vertex 30 -20 20
vertex 30 0 20
endloop
endfacet
facet normal 0 0 1
outer loop
vertex 10 -20 20
vertex 30 0 20
vertex 10 0 20
endloop
endfacet
facet normal -1 0 0
outer loop
vertex 17.5 -25 0
vertex 17.5 -25 5
vertex 17.5 -20 5
endloop
endfacet
facet normal -1 0 0
outer loop
vertex 17.5 -25 0
vertex 17.5 -20 5
vertex 17.5 -20 0
endloop
endfacet
facet normal 1 0 0
outer loop
vertex 22.5 -20 5
vertex 22.5 -25 5
vertex 22.5 -25 0
endloop
endfacet
facet normal 1 0 0
outer loop
vertex 22.5 -20 5
vertex 22.5 -25 0
vertex 22.5 -20 0
endloop
endfacet
facet normal 0 0 -1
outer loop
vertex 22.5 -20 0
vertex 22.5 -25 0
vertex 17.5 -25 0
endloop
endfacet
facet normal 0 0 -1
outer loop
vertex 22.5 -20 0
vertex 17.5 -25 0
vertex 17.5 -20 0
endloop
endfacet
facet normal 0 0 1
outer loop
vertex 17.5 -25 5
vertex 22.5 -25 5
vertex 22.5 -20 5
endloop
endfacet
facet normal 0 0 1
outer loop
vertex 17.5 -25 5
vertex 22.5 -20 5
vertex 17.5 -20 5
endloop
endfacet
facet normal -1 0 0
outer loop
vertex 10 -45 0
vertex 10 -45 20
vertex 10 -25 20
endloop
endfacet
facet normal -1 0 0
outer loop
vertex 10 -45 0
vertex 10 -25 20
vertex 10 -25 0
endloop
endfacet
facet normal 1 0 0
outer loop
vertex 30 -25 20
vertex 30 -45 20
vertex 30 -45 0
endloop
endfacet
facet normal 1 0 0
outer loop
vertex 30 -25 20
vertex 30 -45 0
vertex 30 -25 0
endloop
endfacet
facet normal 0 1 0
outer loop
vertex 10 -25 20
vertex 17.5 -25 20
vertex 17.5 -25 0
endloop
endfacet
facet normal 0 1 0
outer loop
vertex 10 -25 20
vertex 17.5 -25 0
vertex 10 -25 0
endloop
endfacet
facet normal 0 1 0
outer loop
vertex 22.5 -25 20
vertex 30 -25 20
vertex 30 -25 0
endloop
endfacet
facet normal 0 1 0
outer loop
vertex 22.5 -25 20
vertex 30 -25 0
vertex 22.5 -25 0
endloop
endfacet
facet normal 0 1 0
outer loop
vertex 17.5 -25 20
vertex 22.5 -25 20
vertex 22.5 -25 5
endloop
endfacet
facet normal 0 1 0
outer loop
vertex 17.5 -25 20
vertex 22.5 -25 5
vertex 17.5 -25 5
endloop
endfacet
facet normal 0 -1 0
outer loop
vertex 30 -45 0
vertex 30 -45 20
vertex 10 -45 20
endloop
endfacet
facet normal 0 -1 0
outer loop
vertex 30 -45 0
vertex 10 -45 20
vertex 10 -45 0
endloop
endfacet
facet normal 0 0 -1
outer loop
vertex 30 -25 0
vertex 30 -45 0
vertex 10 -45 0
endloop
endfacet
facet normal 0 0 -1
outer loop
vertex 30 -25 0
vertex 10 -45 0
vertex 10 -25 0
endloop
endfacet
facet normal 0 0 1
outer loop
vertex 10 -45 20
vertex 30 -45 20
vertex 30 -25 20
endloop
endfacet
facet normal 0 0 1
outer loop
vertex 10 -45 20
vertex 30 -25 20
vertex 10 -25 20
endloop
endfacet
endsolid craftml
