solid craftml
facet normal 1 0 0
outer loop
vertex 50 0 10
vertex 50 -10 10
vertex 50 -10 0
endloop
endfacet
facet normal 1 0 0
outer loop
vertex 50 0 10
vertex 50 -10 0
vertex 50 0 0
endloop
endfacet
facet normal 0 1 0
outer loop
vertex 0 0 10
vertex 50 0 10
vertex 50 0 0
endloop
endfacet
facet normal 0 1 0
outer loop
vertex 0 0 10
vertex 50 0 0
vertex 0 0 0
endloop
endfacet
facet normal 0 -1 0
outer loop
vertex 50 -10 0
vertex 50 -10 10
vertex 0 -10 10
endloop
endfacet
facet normal 0 -1 0
outer loop
vertex 50 -10 0
vertex 0 -10 10
vertex 0 -10 0
endloop
endfacet
facet normal 0 0 1
outer loop
vertex 0 -10 10
vertex 50 -10 10
vertex 50 0 10
endloop
endfacet
facet normal 0 0 1
outer loop
vertex 0 -10 10
vertex 50 0 10
vertex 0 0 10
endloop
endfacet
facet normal -6.123233995736766e-17 1 0
outer loop
vertex -10 -6.123233995736766e-16 0
vertex -10 -6.123233995736766e-16 10
vertex 0 0 10
endloop
endfacet
facet normal -6.123233995736766e-17 1 0
outer loop
vertex -10 -6.123233995736766e-16 0
vertex 0 0 10
vertex 0 0 0
endloop
endfacet
facet normal 0 -1 0
outer loop
vertex 3.061616997868383e-15 -50 10
vertex -9.999999999999996 -50 10
vertex -9.999999999999996 -50 0
endloop
endfacet
facet normal 0 -1 0
outer loop
vertex 3.061616997868383e-15 -50 10
vertex -9.999999999999996 -50 0
vertex 3.061616997868383e-15 -50 0
endloop
endfacet
facet normal 1 6.123233995736766e-17 0
outer loop
vertex 6.123233995736766e-16 -10 10
vertex 3.061616997868383e-15 -50 10
vertex 3.061616997868383e-15 -50 0
endloop
endfacet
facet normal 1 6.123233995736766e-17 0
outer loop
vertex 6.123233995736766e-16 -10 10
vertex 3.061616997868383e-15 -50 0
vertex 6.123233995736765e-16 -10 0
endloop
endfacet
facet normal -1 0 0
outer loop
vertex -9.999999999999996 -50 0
vertex -9.999999999999996 -50 10
vertex -10 -6.123233995736766e-16 10
endloop
endfacet
facet normal -1 0 0
outer loop
vertex -9.999999999999996 -50 0
vertex -10 -6.123233995736766e-16 10
vertex -10 -6.123233995736766e-16 0
endloop
endfacet
facet normal 0 0 -1
outer loop
vertex 3.061616997868383e-15 -50 0
vertex -9.999999999999996 -50 0
vertex -10 -6.123233995736766e-16 0
endloop
endfacet
facet normal 0 0 -1
outer loop
vertex 3.061616997868383e-15 -50 0
vertex -10 -6.123233995736766e-16 0
vertex 0 0 0
endloop
endfacet
facet normal 0 0 1
outer loop
vertex -10 -6.123233995736766e-16 10
vertex -9.999999999999996 -50 10
vertex 3.061616997868383e-15 -50 10
endloop
endfacet
facet normal 0 0 1
outer loop
vertex -10 -6.123233995736766e-16 10
vertex 3.061616997868383e-15 -50 10
vertex 0 0 10
endloop
endfacet
facet normal 0 0 -1
outer loop
vertex 10.000000000000004 0 -50
vertex 10.000000000000004 -10 -50
vertex 3.061616997868383e-15 -10 -50
endloop
endfacet
facet normal 0 0 -1
outer loop
vertex 10.000000000000004 0 -50
vertex 3.061616997868383e-15 -10 -50
vertex 3.061616997868383e-15 0 -50
endloop
endfacet
facet normal 0 1 0
outer loop
vertex 10 0 6.123233995736766e-16
vertex 10.000000000000004 0 -50
vertex 3.061616997868383e-15 0 -50
endloop
endfacet
facet normal 0 1 0
outer loop
vertex 10 0 6.123233995736766e-16
vertex 3.061616997868383e-15 0 -50
vertex 0 0 0
endloop
endfacet
facet normal 0 -1 0
outer loop
vertex 3.061616997868383e-15 -10 -50
vertex 10.000000000000004 -10 -50
vertex 10 -10 6.123233995736766e-16
endloop
endfacet
facet normal 0 -1 0
outer loop
vertex 3.061616997868383e-15 -10 -50
vertex 10 -10 6.123233995736766e-16
vertex 0 -10 0
endloop
endfacet
facet normal -1 0 -6.123233995736766e-17
outer loop
vertex 3.061616997868383e-15 0 -50
vertex 3.061616997868383e-15 -10 -50
vertex 0 -10 0
endloop
endfacet
facet normal -1 0 -6.123233995736766e-17
outer loop
vertex 3.061616997868383e-15 0 -50
vertex 0 -10 0
vertex 0 0 0
endloop
endfacet
facet normal 1 0 0
outer loop
vertex 10 -10 -10
vertex 10.000000000000004 -10 -50
vertex 10.000000000000004 0 -50
endloop
endfacet
facet normal 1 0 0
outer loop
vertex 10 -10 -10
vertex 10.000000000000004 0 -50
vertex 10 0 -10
endloop
endfacet
facet normal 1 0 0
outer loop
vertex 50 -10 6.123233995736766e-16
vertex 50 -10 -10
vertex 50 -6.123233995736766e-16 -10
endloop
endfacet
facet normal 1 0 0
outer loop
vertex 50 -10 6.123233995736766e-16
vertex 50 -6.123233995736766e-16 -10
vertex 50 0 0
endloop
endfacet
facet normal 0 0 -1
outer loop
vertex 50 -6.123233995736766e-16 -10
vertex 50 -10 -10
vertex 10 -10 -10
endloop
endfacet
facet normal 0 0 -1
outer loop
vertex 50 -6.123233995736766e-16 -10
vertex 10 -10 -10
vertex 10 -6.123233995736766e-16 -10
endloop
endfacet
facet normal 0 1 -6.123233995736766e-17
outer loop
vertex 10 0 0
vertex 50 0 0
vertex 50 -6.123233995736766e-16 -10
endloop
endfacet
facet normal 0 1 -6.123233995736766e-17
outer loop
vertex 10 0 0
vertex 50 -6.123233995736766e-16 -10
vertex 10 -6.123233995736766e-16 -10
endloop
endfacet
facet normal 0 -1 0
outer loop
vertex 10 -10 -10
vertex 50 -10 -10
vertex 50 -10 6.123233995736766e-16
endloop
endfacet
facet normal 0 -1 0
outer loop
vertex 10 -10 -10
vertex 50 -10 6.123233995736766e-16
vertex 10 -10 6.123233995736766e-16
endloop
endfacet
endsolid craftml
