solid craftml
facet normal 0 1 0
outer loop
vertex 0 0 40
vertex 20 0 40
vertex 20 0 0
endloop
endfacet
facet normal 0 1 0
outer loop
vertex 0 0 40
vertex 20 0 0
vertex 0 0 0
endloop
endfacet
facet normal 0 -1 0
outer loop
vertex 20 -30 0
vertex 20 -30 40
vertex 10 -30 40
endloop
endfacet
facet normal 0 -1 0
outer loop
vertex 20 -30 0
vertex 10 -30 40
vertex 10 -30 0
endloop
endfacet
facet normal 0 -1 0
outer loop
vertex 0 -30 30
vertex 0 -30 0
vertex 10 -30 0
endloop
endfacet
facet normal 0 -1 0
outer loop
vertex 0 -30 30
vertex 10 -30 0
vertex 10 -30 30
endloop
endfacet
facet normal 0 0 -1
outer loop
vertex 20 0 0
vertex 20 -30 0
vertex 0 -30 0
endloop
endfacet
facet normal 0 0 -1
outer loop
vertex 20 0 0
vertex 0 -30 0
vertex 0 0 0
endloop
endfacet
facet normal 0 0 1
outer loop
vertex 0 -30 40
vertex 20 -30 40
vertex 20 0 40
endloop
endfacet
facet normal 0 0 1
outer loop
vertex 0 -30 40
vertex 20 0 40
vertex 0 0 40
endloop
endfacet
facet normal 1 0 0
outer loop
vertex 40 0 40
vertex 40 -30 40
vertex 40 -30 0
endloop
endfacet
facet normal 1 0 0
outer loop
vertex 40 0 40
vertex 40 -30 0
vertex 40 0 0
endloop
endfacet
facet normal 0 1 0
outer loop
vertex 20 0 40
vertex 40 0 40
vertex 40 0 0
endloop
endfacet
facet normal 0 1 0
outer loop
vertex 20 0 40
vertex 40 0 0
vertex 20 0 0
endloop
endfacet
facet normal 0 -1 0
outer loop
vertex 40 -30 0
vertex 40 -30 20
vertex 20 -30 20
endloop
endfacet
facet normal 0 -1 0
outer loop
vertex 40 -30 0
vertex 20 -30 20
vertex 20 -30 0
endloop
endfacet
facet normal 0 0 -1
outer loop
vertex 40 0 0
vertex 40 -30 0
vertex 20 -30 0
endloop
endfacet
facet normal 0 0 -1
outer loop
vertex 40 0 0
vertex 20 -30 0
vertex 20 0 0
endloop
endfacet
facet normal 0 0 1
outer loop
vertex 20 -30 40
vertex 40 -30 40
vertex 40 0 40
endloop
endfacet
facet normal 0 0 1
outer loop
vertex 20 -30 40
vertex 40 0 40
vertex 20 0 40
endloop
endfacet
facet normal -1 0 0
outer loop
vertex -20 -30 0
vertex -20 -30 40
vertex -20 0 40
endloop
endfacet
facet normal -1 0 0
outer loop
vertex -20 -30 0
vertex -20 0 40
vertex -20 0 0
endloop
endfacet
facet normal 0 1 0
outer loop
vertex -20 0 40
vertex 0 0 40
vertex 0 0 0
endloop
endfacet
facet normal 0 1 0
outer loop
vertex -20 0 40
vertex 0 0 0
vertex -20 0 0
endloop
endfacet
facet normal 0 -1 0
outer loop
vertex 0 -30 0
vertex 0 -30 40
vertex -20 -30 40
endloop
endfacet
facet normal 0 -1 0
outer loop
vertex 0 -30 0
vertex -20 -30 40
vertex -20 -30 0
endloop
endfacet
facet normal 0 0 -1
outer loop
vertex 0 0 0
vertex 0 -30 0
vertex -20 -30 0
endloop
endfacet
facet normal 0 0 -1
outer loop
vertex 0 0 0
vertex -20 -30 0
vertex -20 0 0
endloop
endfacet
facet normal 0 0 1
outer loop
vertex -20 -30 40
vertex 0 -30 40
vertex 0 0 40
endloop
endfacet
facet normal 0 0 1
outer loop
vertex -20 -30 40
vertex 0 0 40
vertex -20 0 40
endloop
endfacet
facet normal -1 0 0
outer loop
vertex 0 -60 30
vertex 0 -60 60
vertex 0 -30 60
endloop
endfacet
facet normal -1 0 0
outer loop
vertex 0 -60 30
vertex 0 -30 60
vertex 0 -30 30
endloop
endfacet
facet normal 1 0 0
outer loop
vertex 10 -30 60
vertex 10 -60 60
vertex 10 -60 30
endloop
endfacet
facet normal 1 0 0
outer loop
vertex 10 -30 60
vertex 10 -60 30
vertex 10 -30 30
endloop
endfacet
facet normal 0 1 0
outer loop
vertex 0 -30 60
vertex 10 -30 60
vertex 10 -30 40
endloop
endfacet
facet normal 0 1 0
outer loop
vertex 0 -30 60
vertex 10 -30 40
vertex 0 -30 40
endloop
endfacet
facet normal 0 -1 0
outer loop
vertex 10 -60 30
vertex 10 -60 60
vertex 0 -60 60
endloop
endfacet
facet normal 0 -1 0
outer loop
vertex 10 -60 30
vertex 0 -60 60
vertex 0 -60 30
endloop
endfacet
facet normal 0 0 -1
outer loop
vertex 10 -30 30
vertex 10 -60 30
vertex 0 -60 30
endloop
endfacet
facet normal 0 0 -1
outer loop
vertex 10 -30 30
vertex 0 -60 30
vertex 0 -30 30
endloop
endfacet
facet normal 0 0 1
outer loop
vertex 0 -60 60
vertex 10 -60 60
vertex 10 -30 60
endloop
endfacet
facet normal 0 0 1
outer loop
vertex 0 -60 60
vertex 10 -30 60
vertex 0 -30 60
endloop
endfacet
facet normal -1 0 0
outer loop
vertex 20 -40 20
vertex 20 -40 40
vertex 20 -30 40
endloop
endfacet
facet normal -1 0 0
outer loop
vertex 20 -40 20
vertex 20 -30 40
vertex 20 -30 20
endloop
endfacet
facet normal 1 0 0
outer loop
vertex 40 -30 40
vertex 40 -40 40
vertex 40 -40 20
endloop
endfacet
facet normal 1 0 0
outer loop
vertex 40 -30 40
vertex 40 -40 20
vertex 40 -30 20
endloop
endfacet
facet normal 0 -1 0
outer loop
vertex 40 -40 20
vertex 40 -40 40
vertex 20 -40 40
endloop
endfacet
facet normal 0 -1 0
outer loop
vertex 40 -40 20
vertex 20 -40 40
vertex 20 -40 20
endloop
endfacet
facet normal 0 0 -1
outer loop
vertex 40 -30 20
vertex 40 -40 20
vertex 20 -40 20
endloop
endfacet
facet normal 0 0 -1
outer loop
vertex 40 -30 20
vertex 20 -40 20
vertex 20 -30 20
endloop
endfacet
facet normal 0 0 1
outer loop
vertex 20 -40 40
vertex 40 -40 40
vertex 40 -30 40
endloop
endfacet
facet normal 0 0 1
outer loop
vertex 20 -40 40
vertex 40 -30 40
vertex 20 -30 40
endloop
endfacet
endsolid craftml
