solid craftml
facet normal -1 0 0
outer loop
vertex 20 -50 60
vertex 20 -50 70
vertex 20 -40 70
endloop
endfacet
facet normal -1 0 0
outer loop
vertex 20 -50 60
vertex 20 -40 70
vertex 20 -40 60
endloop
endfacet
facet normal 1 0 0
outer loop
vertex 30 -40 70
vertex 30 -50 70
vertex 30 -50 60
endloop
endfacet
facet normal 1 0 0
outer loop
vertex 30 -40 70
vertex 30 -50 60
vertex 30 -40 60
endloop
endfacet
facet normal 0 1 0
outer loop
vertex 20 -40 70
vertex 30 -40 70
vertex 30 -40 60
endloop
endfacet
facet normal 0 1 0
outer loop
vertex 20 -40 70
vertex 30 -40 60
vertex 20 -40 60
endloop
endfacet
facet normal 0 -1 0
outer loop
vertex 30 -50 60
vertex 30 -50 70
vertex 20 -50 70
endloop
endfacet
facet normal 0 -1 0
outer loop
vertex 30 -50 60
vertex 20 -50 70
vertex 20 -50 60
endloop
endfacet
facet normal 0 0 -1
outer loop
vertex 30 -40 60
vertex 30 -50 60
vertex 20 -50 60
endloop
endfacet
facet normal 0 0 -1
outer loop
vertex 30 -40 60
vertex 20 -50 60
vertex 20 -40 60
endloop
endfacet
facet normal 0 0 1
outer loop
vertex 20 -50 70
vertex 30 -50 70
vertex 30 -40 70
endloop
endfacet
facet normal 0 0 1
outer loop
vertex 20 -50 70
vertex 30 -40 70
vertex 20 -40 70
endloop
endfacet
facet normal -1 0 0
outer loop
vertex 0 -10 0
vertex 0 -10 10
vertex 0 0 10
endloop
endfacet
facet normal -1 0 0
outer loop
vertex 0 -10 0
vertex 0 0 10
vertex 0 0 0
endloop
endfacet
facet normal 1 0 0
outer loop
vertex 10 0 10
vertex 10 -10 10
vertex 10 -10 0
endloop
endfacet
facet normal 1 0 0
outer loop
vertex 10 0 10
vertex 10 -10 0
vertex 10 0 0
endloop
endfacet
facet normal 0 1 0
outer loop
vertex 0 0 10
vertex 10 0 10
vertex 10 0 0
endloop
endfacet
facet normal 0 1 0
outer loop
vertex 0 0 10
vertex 10 0 0
vertex 0 0 0
endloop
endfacet
facet normal 0 -1 0
outer loop
vertex 10 -10 0
vertex 10 -10 10
vertex 0 -10 10
endloop
endfacet
facet normal 0 -1 0
outer loop
vertex 10 -10 0
vertex 0 -10 10
vertex 0 -10 0
endloop
endfacet
facet normal 0 0 -1
outer loop
vertex 10 0 0
vertex 10 -10 0
vertex 0 -10 0
endloop
endfacet
facet normal 0 0 -1
outer loop
vertex 10 0 0
vertex 0 -10 0
vertex 0 0 0
endloop
endfacet
facet normal 0 0 1
outer loop
vertex 0 -10 10
vertex 10 -10 10
vertex 10 0 10
endloop
endfacet
facet normal 0 0 1
outer loop
vertex 0 -10 10
vertex 10 0 10
vertex 0 0 10
endloop
endfacet
endsolid craftml
