solid craftml
facet normal -1 0 0
outer loop
vertex 30 -70 90
vertex 30 -70 100
vertex 30 -60 100
endloop
endfacet
facet normal -1 0 0
outer loop
vertex 30 -70 90
vertex 30 -60 100
vertex 30 -60 90
endloop
endfacet
facet normal 1 0 0
outer loop
vertex 40 -60 100
vertex 40 -70 100
vertex 40 -70 90
endloop
endfacet
facet normal 1 0 0
outer loop
vertex 40 -60 100
vertex 40 -70 90
vertex 40 -60 90
endloop
endfacet
facet normal 0 1 0
outer loop
vertex 30 -60 100
vertex 40 -60 100
vertex 40 -60 90
endloop
endfacet
facet normal 0 1 0
outer loop
vertex 30 -60 100
vertex 40 -60 90
vertex 30 -60 90
endloop
endfacet
facet normal 0 -1 0
outer loop
vertex 40 -70 90
vertex 40 -70 100
vertex 30 -70 100
endloop
endfacet
facet normal 0 -1 0
outer loop
vertex 40 -70 90
vertex 30 -70 100
vertex 30 -70 90
endloop
endfacet
facet normal 0 0 -1
outer loop
vertex 40 -60 90
vertex 40 -70 90
vertex 30 -70 90
endloop
endfacet
facet normal 0 0 -1
outer loop
vertex 40 -60 90
vertex 30 -70 90
vertex 30 -60 90
endloop
endfacet
facet normal 0 0 1
outer loop
vertex 30 -70 100
vertex 40 -70 100
vertex 40 -60 100
endloop
endfacet
facet normal 0 0 1
outer loop
vertex 30 -70 100
vertex 40 -60 100
vertex 30 -60 100
endloop
endfacet
facet normal -1 0 0
outer loop
vertex 10 -30 30
vertex 10 -30 40
vertex 10 -20 40
endloop
endfacet
facet normal -1 0 0
outer loop
vertex 10 -30 30
vertex 10 -20 40
vertex 10 -20 30
endloop
endfacet
facet normal 1 0 0
outer loop
vertex 20 -20 40
vertex 20 -30 40
vertex 20 -30 30
endloop
endfacet
facet normal 1 0 0
outer loop
vertex 20 -20 40
vertex 20 -30 30
vertex 20 -20 30
endloop
endfacet
facet normal 0 1 0
outer loop
vertex 10 -20 40
vertex 20 -20 40
vertex 20 -20 30
endloop
endfacet
facet normal 0 1 0
outer loop
vertex 10 -20 40
vertex 20 -20 30
vertex 10 -20 30
endloop
endfacet
facet normal 0 -1 0
outer loop
vertex 20 -30 30
vertex 20 -30 40
vertex 10 -30 40
endloop
endfacet
facet normal 0 -1 0
outer loop
vertex 20 -30 30
vertex 10 -30 40
vertex 10 -30 30
endloop
endfacet
facet normal 0 0 -1
outer loop
vertex 20 -20 30
vertex 20 -30 30
vertex 10 -30 30
endloop
endfacet
facet normal 0 0 -1
outer loop
vertex 20 -20 30
vertex 10 -30 30
vertex 10 -20 30
endloop
endfacet
facet normal 0 0 1
outer loop
vertex 10 -30 40
vertex 20 -30 40
vertex 20 -20 40
endloop
endfacet
facet normal 0 0 1
outer loop
vertex 10 -30 40
vertex 20 -20 40
vertex 10 -20 40
endloop
endfacet
endsolid craftml
