solid craftml
facet normal 0 0 -1
outer loop
vertex 9.82962913144534 -3.7059047744873963 0
vertex 10 -5 0
vertex 5 -5 0
endloop
endfacet
facet normal 0.9914448613738103 0.13052619222005293 0
outer loop
vertex 9.82962913144534 -3.7059047744873963 10
vertex 10 -5 10
vertex 10 -5 0
endloop
endfacet
facet normal 0.9914448613738103 0.13052619222005293 0
outer loop
vertex 9.82962913144534 -3.7059047744873963 10
vertex 10 -5 0
vertex 9.82962913144534 -3.7059047744873963 0
endloop
endfacet
facet normal 0 0 1
outer loop
vertex 10 -5 10
vertex 9.82962913144534 -3.7059047744873963 10
vertex 5 -5 10
endloop
endfacet
facet normal 0 0 -1
outer loop
vertex 9.330127018922195 -2.5000000000000004 0
vertex 9.82962913144534 -3.7059047744873963 0
vertex 5 -5 0
endloop
endfacet
facet normal 0.9238795325112872 0.3826834323650886 0
outer loop
vertex 9.330127018922195 -2.5000000000000004 10
vertex 9.82962913144534 -3.7059047744873963 10
vertex 9.82962913144534 -3.7059047744873963 0
endloop
endfacet
facet normal 0.9238795325112872 0.3826834323650886 0
outer loop
vertex 9.330127018922195 -2.5000000000000004 10
vertex 9.82962913144534 -3.7059047744873963 0
vertex 9.330127018922195 -2.5000000000000004 0
endloop
endfacet
facet normal 0 0 1
outer loop
vertex 9.82962913144534 -3.7059047744873963 10
vertex 9.330127018922195 -2.5000000000000004 10
vertex 5 -5 10
endloop
endfacet
facet normal 0 0 -1
outer loop
vertex 8.535533905932738 -1.4644660940672627 0
vertex 9.330127018922195 -2.5000000000000004 0
vertex 5 -5 0
endloop
endfacet
facet normal 0.7933533402912348 0.6087614290087212 0
outer loop
vertex 8.535533905932738 -1.4644660940672627 10
vertex 9.330127018922195 -2.5000000000000004 10
vertex 9.330127018922195 -2.5000000000000004 0
endloop
endfacet
facet normal 0.7933533402912348 0.6087614290087212 0
outer loop
vertex 8.535533905932738 -1.4644660940672627 10
vertex 9.330127018922195 -2.5000000000000004 0
vertex 8.535533905932738 -1.4644660940672627 0
endloop
endfacet
facet normal 0 0 1
outer loop
vertex 9.330127018922195 -2.5000000000000004 10
vertex 8.535533905932738 -1.4644660940672627 10
vertex 5 -5 10
endloop
endfacet
facet normal 0 0 -1
outer loop
vertex 7.5 -0.6698729810778072 0
vertex 8.535533905932738 -1.4644660940672627 0
vertex 5 -5 0
endloop
endfacet
facet normal 0.6087614290087204 0.7933533402912354 0
outer loop
vertex 7.5 -0.6698729810778072 10
vertex 8.535533905932738 -1.4644660940672627 10
vertex 8.535533905932738 -1.4644660940672627 0
endloop
endfacet
facet normal 0.6087614290087204 0.7933533402912354 0
outer loop
vertex 7.5 -0.6698729810778072 10
vertex 8.535533905932738 -1.4644660940672627 0
vertex 7.5 -0.6698729810778072 0
endloop
endfacet
facet normal 0 0 1
outer loop
vertex 8.535533905932738 -1.4644660940672627 10
vertex 7.5 -0.6698729810778072 10
vertex 5 -5 10
endloop
endfacet
facet normal 0 0 -1
outer loop
vertex 6.294095225512604 -0.17037086855465855 0
vertex 7.5 -0.6698729810778072 0
vertex 5 -5 0
endloop
endfacet
facet normal 0.38268343236509006 0.9238795325112866 0
outer loop
vertex 6.294095225512604 -0.17037086855465855 10
vertex 7.5 -0.6698729810778072 10
vertex 7.5 -0.6698729810778072 0
endloop
endfacet
facet normal 0.38268343236509006 0.9238795325112866 0
outer loop
vertex 6.294095225512604 -0.17037086855465855 10
vertex 7.5 -0.6698729810778072 0
vertex 6.294095225512604 -0.17037086855465855 0
endloop
endfacet
facet normal 0 0 1
outer loop
vertex 7.5 -0.6698729810778072 10
vertex 6.294095225512604 -0.17037086855465855 10
vertex 5 -5 10
endloop
endfacet
facet normal 0 0 -1
outer loop
vertex 5 0 0
vertex 6.294095225512604 -0.17037086855465855 0
vertex 5 -5 0
endloop
endfacet
facet normal 0.1305261922200516 0.9914448613738104 0
outer loop
vertex 5 0 10
vertex 6.294095225512604 -0.17037086855465855 10
vertex 6.294095225512604 -0.17037086855465855 0
endloop
endfacet
facet normal 0.1305261922200516 0.9914448613738104 0
outer loop
vertex 5 0 10
vertex 6.294095225512604 -0.17037086855465855 0
vertex 5 0 0
endloop
endfacet
facet normal 0 0 1
outer loop
vertex 6.294095225512604 -0.17037086855465855 10
vertex 5 0 10
vertex 5 -5 10
endloop
endfacet
facet normal 0 0 -1
outer loop
vertex 3.705904774487396 -0.17037086855465855 0
vertex 5 0 0
vertex 5 -5 0
endloop
endfacet
facet normal -0.13052619222005157 0.9914448613738104 0
outer loop
vertex 3.705904774487396 -0.17037086855465855 10
vertex 5 0 10
vertex 5 0 0
endloop
endfacet
facet normal -0.13052619222005157 0.9914448613738104 0
outer loop
vertex 3.705904774487396 -0.17037086855465855 10
vertex 5 0 0
vertex 3.705904774487396 -0.17037086855465855 0
endloop
endfacet
facet normal 0 0 1
outer loop
vertex 5 0 10
vertex 3.705904774487396 -0.17037086855465855 10
vertex 5 -5 10
endloop
endfacet
facet normal 0 0 -1
outer loop
vertex 2.500000000000001 -0.6698729810778064 0
vertex 3.705904774487396 -0.17037086855465855 0
vertex 5 -5 0
endloop
endfacet
facet normal -0.38268343236508984 0.9238795325112867 0
outer loop
vertex 2.500000000000001 -0.6698729810778064 10
vertex 3.705904774487396 -0.17037086855465855 10
vertex 3.705904774487396 -0.17037086855465855 0
endloop
endfacet
facet normal -0.38268343236508984 0.9238795325112867 0
outer loop
vertex 2.500000000000001 -0.6698729810778064 10
vertex 3.705904774487396 -0.17037086855465855 0
vertex 2.500000000000001 -0.6698729810778064 0
endloop
endfacet
facet normal 0 0 1
outer loop
vertex 3.705904774487396 -0.17037086855465855 10
vertex 2.500000000000001 -0.6698729810778064 10
vertex 5 -5 10
endloop
endfacet
facet normal 0 0 -1
outer loop
vertex 1.4644660940672627 -1.4644660940672622 0
vertex 2.500000000000001 -0.6698729810778064 0
vertex 5 -5 0
endloop
endfacet
facet normal -0.6087614290087208 0.793353340291235 0
outer loop
vertex 1.4644660940672627 -1.4644660940672622 10
vertex 2.500000000000001 -0.6698729810778064 10
vertex 2.500000000000001 -0.6698729810778064 0
endloop
endfacet
facet normal -0.6087614290087208 0.793353340291235 0
outer loop
vertex 1.4644660940672627 -1.4644660940672622 10
vertex 2.500000000000001 -0.6698729810778064 0
vertex 1.4644660940672627 -1.4644660940672622 0
endloop
endfacet
facet normal 0 0 1
outer loop
vertex 2.500000000000001 -0.6698729810778064 10
vertex 1.4644660940672627 -1.4644660940672622 10
vertex 5 -5 10
endloop
endfacet
facet normal 0 0 -1
outer loop
vertex 0.6698729810778064 -2.5000000000000004 0
vertex 1.4644660940672627 -1.4644660940672622 0
vertex 5 -5 0
endloop
endfacet
facet normal -0.7933533402912352 0.6087614290087208 0
outer loop
vertex 0.6698729810778064 -2.5000000000000004 10
vertex 1.4644660940672627 -1.4644660940672622 10
vertex 1.4644660940672627 -1.4644660940672622 0
endloop
endfacet
facet normal -0.7933533402912352 0.6087614290087208 0
outer loop
vertex 0.6698729810778064 -2.5000000000000004 10
vertex 1.4644660940672627 -1.4644660940672622 0
vertex 0.6698729810778064 -2.5000000000000004 0
endloop
endfacet
facet normal 0 0 1
outer loop
vertex 1.4644660940672627 -1.4644660940672622 10
vertex 0.6698729810778064 -2.5000000000000004 10
vertex 5 -5 10
endloop
endfacet
facet normal 0 0 -1
outer loop
vertex 0.17037086855465944 -3.705904774487395 0
vertex 0.6698729810778064 -2.5000000000000004 0
vertex 5 -5 0
endloop
endfacet
facet normal -0.9238795325112868 0.3826834323650893 0
outer loop
vertex 0.17037086855465944 -3.705904774487395 10
vertex 0.6698729810778064 -2.5000000000000004 10
vertex 0.6698729810778064 -2.5000000000000004 0
endloop
endfacet
facet normal -0.9238795325112868 0.3826834323650893 0
outer loop
vertex 0.17037086855465944 -3.705904774487395 10
vertex 0.6698729810778064 -2.5000000000000004 0
vertex 0.17037086855465944 -3.705904774487395 0
endloop
endfacet
facet normal 0 0 1
outer loop
vertex 0.6698729810778064 -2.5000000000000004 10
vertex 0.17037086855465944 -3.705904774487395 10
vertex 5 -5 10
endloop
endfacet
facet normal 0 0 -1
outer loop
vertex 0 -4.999999999999999 0
vertex 0.17037086855465944 -3.705904774487395 0
vertex 5 -5 0
endloop
endfacet
facet normal -0.9914448613738104 0.13052619222005227 0
outer loop
vertex 0 -4.999999999999999 10
vertex 0.17037086855465944 -3.705904774487395 10
vertex 0.17037086855465944 -3.705904774487395 0
endloop
endfacet
facet normal -0.9914448613738104 0.13052619222005227 0
outer loop
vertex 0 -4.999999999999999 10
vertex 0.17037086855465944 -3.705904774487395 0
vertex 0 -4.999999999999999 0
endloop
endfacet
facet normal 0 0 1
outer loop
vertex 0.17037086855465944 -3.705904774487395 10
vertex 0 -4.999999999999999 10
vertex 5 -5 10
endloop
endfacet
facet normal 0 0 -1
outer loop
vertex 0.17037086855465766 -6.294095225512602 0
vertex 0 -4.999999999999999 0
vertex 5 -5 0
endloop
endfacet
facet normal -0.9914448613738106 -0.13052619222005102 0
outer loop
vertex 0.17037086855465766 -6.294095225512602 10
vertex 0 -4.999999999999999 10
vertex 0 -4.999999999999999 0
endloop
endfacet
facet normal -0.9914448613738106 -0.13052619222005102 0
outer loop
vertex 0.17037086855465766 -6.294095225512602 10
vertex 0 -4.999999999999999 0
vertex 0.17037086855465766 -6.294095225512602 0
endloop
endfacet
facet normal 0 0 1
outer loop
vertex 0 -4.999999999999999 10
vertex 0.17037086855465766 -6.294095225512602 10
vertex 5 -5 10
endloop
endfacet
facet normal 0 0 -1
outer loop
vertex 0.6698729810778072 -7.5 0
vertex 0.17037086855465766 -6.294095225512602 0
vertex 5 -5 0
endloop
endfacet
facet normal -0.9238795325112866 -0.38268343236509006 0
outer loop
vertex 0.6698729810778072 -7.5 10
vertex 0.17037086855465766 -6.294095225512602 10
vertex 0.17037086855465766 -6.294095225512602 0
endloop
endfacet
facet normal -0.9238795325112866 -0.38268343236509006 0
outer loop
vertex 0.6698729810778072 -7.5 10
vertex 0.17037086855465766 -6.294095225512602 0
vertex 0.6698729810778072 -7.5 0
endloop
endfacet
facet normal 0 0 1
outer loop
vertex 0.17037086855465766 -6.294095225512602 10
vertex 0.6698729810778072 -7.5 10
vertex 5 -5 10
endloop
endfacet
facet normal 0 0 -1
outer loop
vertex 1.4644660940672614 -8.535533905932738 0
vertex 0.6698729810778072 -7.5 0
vertex 5 -5 0
endloop
endfacet
facet normal -0.7933533402912356 -0.6087614290087199 0
outer loop
vertex 1.4644660940672614 -8.535533905932738 10
vertex 0.6698729810778072 -7.5 10
vertex 0.6698729810778072 -7.5 0
endloop
endfacet
facet normal -0.7933533402912356 -0.6087614290087199 0
outer loop
vertex 1.4644660940672614 -8.535533905932738 10
vertex 0.6698729810778072 -7.5 0
vertex 1.4644660940672614 -8.535533905932738 0
endloop
endfacet
facet normal 0 0 1
outer loop
vertex 0.6698729810778072 -7.5 10
vertex 1.4644660940672614 -8.535533905932738 10
vertex 5 -5 10
endloop
endfacet
facet normal 0 0 -1
outer loop
vertex 2.499999999999998 -9.330127018922191 0
vertex 1.4644660940672614 -8.535533905932738 0
vertex 5 -5 0
endloop
endfacet
facet normal -0.6087614290087197 -0.7933533402912359 0
outer loop
vertex 2.499999999999998 -9.330127018922191 10
vertex 1.4644660940672614 -8.535533905932738 10
vertex 1.4644660940672614 -8.535533905932738 0
endloop
endfacet
facet normal -0.6087614290087197 -0.7933533402912359 0
outer loop
vertex 2.499999999999998 -9.330127018922191 10
vertex 1.4644660940672614 -8.535533905932738 0
vertex 2.499999999999998 -9.330127018922191 0
endloop
endfacet
facet normal 0 0 1
outer loop
vertex 1.4644660940672614 -8.535533905932738 10
vertex 2.499999999999998 -9.330127018922191 10
vertex 5 -5 10
endloop
endfacet
facet normal 0 0 -1
outer loop
vertex 3.7059047744873967 -9.82962913144534 0
vertex 2.499999999999998 -9.330127018922191 0
vertex 5 -5 0
endloop
endfacet
facet normal -0.3826834323650897 -0.9238795325112868 0
outer loop
vertex 3.7059047744873967 -9.82962913144534 10
vertex 2.499999999999998 -9.330127018922191 10
vertex 2.499999999999998 -9.330127018922191 0
endloop
endfacet
facet normal -0.3826834323650897 -0.9238795325112868 0
outer loop
vertex 3.7059047744873967 -9.82962913144534 10
vertex 2.499999999999998 -9.330127018922191 0
vertex 3.7059047744873967 -9.82962913144534 0
endloop
endfacet
facet normal 0 0 1
outer loop
vertex 2.499999999999998 -9.330127018922191 10
vertex 3.7059047744873967 -9.82962913144534 10
vertex 5 -5 10
endloop
endfacet
facet normal 0 0 -1
outer loop
vertex 4.999999999999999 -10 0
vertex 3.7059047744873967 -9.82962913144534 0
vertex 5 -5 0
endloop
endfacet
facet normal -0.1305261922200529 -0.9914448613738103 0
outer loop
vertex 4.999999999999999 -10 10
vertex 3.7059047744873967 -9.82962913144534 10
vertex 3.7059047744873967 -9.82962913144534 0
endloop
endfacet
facet normal -0.1305261922200529 -0.9914448613738103 0
outer loop
vertex 4.999999999999999 -10 10
vertex 3.7059047744873967 -9.82962913144534 0
vertex 4.999999999999999 -10 0
endloop
endfacet
facet normal 0 0 1
outer loop
vertex 3.7059047744873967 -9.82962913144534 10
vertex 4.999999999999999 -10 10
vertex 5 -5 10
endloop
endfacet
facet normal 0 0 -1
outer loop
vertex 6.294095225512601 -9.829629131445342 0
vertex 4.999999999999999 -10 0
vertex 5 -5 0
endloop
endfacet
facet normal 0.13052619222005116 -0.9914448613738105 0
outer loop
vertex 6.294095225512601 -9.829629131445342 10
vertex 4.999999999999999 -10 10
vertex 4.999999999999999 -10 0
endloop
endfacet
facet normal 0.13052619222005116 -0.9914448613738105 0
outer loop
vertex 6.294095225512601 -9.829629131445342 10
vertex 4.999999999999999 -10 0
vertex 6.294095225512601 -9.829629131445342 0
endloop
endfacet
facet normal 0 0 1
outer loop
vertex 4.999999999999999 -10 10
vertex 6.294095225512601 -9.829629131445342 10
vertex 5 -5 10
endloop
endfacet
facet normal 0 0 -1
outer loop
vertex 7.5 -9.330127018922193 0
vertex 6.294095225512601 -9.829629131445342 0
vertex 5 -5 0
endloop
endfacet
facet normal 0.38268343236508956 -0.9238795325112868 0
outer loop
vertex 7.5 -9.330127018922193 10
vertex 6.294095225512601 -9.829629131445342 10
vertex 6.294095225512601 -9.829629131445342 0
endloop
endfacet
facet normal 0.38268343236508956 -0.9238795325112868 0
outer loop
vertex 7.5 -9.330127018922193 10
vertex 6.294095225512601 -9.829629131445342 0
vertex 7.5 -9.330127018922193 0
endloop
endfacet
facet normal 0 0 1
outer loop
vertex 6.294095225512601 -9.829629131445342 10
vertex 7.5 -9.330127018922193 10
vertex 5 -5 10
endloop
endfacet
facet normal 0 0 -1
outer loop
vertex 8.535533905932738 -8.535533905932738 0
vertex 7.5 -9.330127018922193 0
vertex 5 -5 0
endloop
endfacet
facet normal 0.6087614290087197 -0.7933533402912359 0
outer loop
vertex 8.535533905932738 -8.535533905932738 10
vertex 7.5 -9.330127018922193 10
vertex 7.5 -9.330127018922193 0
endloop
endfacet
facet normal 0.6087614290087197 -0.7933533402912359 0
outer loop
vertex 8.535533905932738 -8.535533905932738 10
vertex 7.5 -9.330127018922193 0
vertex 8.535533905932738 -8.535533905932738 0
endloop
endfacet
facet normal 0 0 1
outer loop
vertex 7.5 -9.330127018922193 10
vertex 8.535533905932738 -8.535533905932738 10
vertex 5 -5 10
endloop
endfacet
facet normal 0 0 -1
outer loop
vertex 9.330127018922191 -7.500000000000002 0
vertex 8.535533905932738 -8.535533905932738 0
vertex 5 -5 0
endloop
endfacet
facet normal 0.7933533402912359 -0.6087614290087197 0
outer loop
vertex 9.330127018922191 -7.500000000000002 10
vertex 8.535533905932738 -8.535533905932738 10
vertex 8.535533905932738 -8.535533905932738 0
endloop
endfacet
facet normal 0.7933533402912359 -0.6087614290087197 0
outer loop
vertex 9.330127018922191 -7.500000000000002 10
vertex 8.535533905932738 -8.535533905932738 0
vertex 9.330127018922191 -7.500000000000002 0
endloop
endfacet
facet normal 0 0 1
outer loop
vertex 8.535533905932738 -8.535533905932738 10
vertex 9.330127018922191 -7.500000000000002 10
vertex 5 -5 10
endloop
endfacet
facet normal 0 0 -1
outer loop
vertex 9.82962913144534 -6.294095225512604 0
vertex 9.330127018922191 -7.500000000000002 0
vertex 5 -5 0
endloop
endfacet
facet normal 0.9238795325112868 -0.3826834323650897 0
outer loop
vertex 9.82962913144534 -6.294095225512604 10
vertex 9.330127018922191 -7.500000000000002 10
vertex 9.330127018922191 -7.500000000000002 0
endloop
endfacet
facet normal 0.9238795325112868 -0.3826834323650897 0
outer loop
vertex 9.82962913144534 -6.294095225512604 10
vertex 9.330127018922191 -7.500000000000002 0
vertex 9.82962913144534 -6.294095225512604 0
endloop
endfacet
facet normal 0 0 1
outer loop
vertex 9.330127018922191 -7.500000000000002 10
vertex 9.82962913144534 -6.294095225512604 10
vertex 5 -5 10
endloop
endfacet
facet normal 0 0 -1
outer loop
vertex 10 -5.000000000000001 0
vertex 9.82962913144534 -6.294095225512604 0
vertex 5 -5 0
endloop
endfacet
facet normal 0.9914448613738103 -0.1305261922200529 0
outer loop
vertex 10 -5.000000000000001 10
vertex 9.82962913144534 -6.294095225512604 10
vertex 9.82962913144534 -6.294095225512604 0
endloop
endfacet
facet normal 0.9914448613738103 -0.1305261922200529 0
outer loop
vertex 10 -5.000000000000001 10
vertex 9.82962913144534 -6.294095225512604 0
vertex 10 -5.000000000000001 0
endloop
endfacet
facet normal 0 0 1
outer loop
vertex 9.82962913144534 -6.294095225512604 10
vertex 10 -5.000000000000001 10
vertex 5 -5 10
endloop
endfacet
endsolid craftml
