solid craftml
facet normal -6.123233995736766e-17 1 -6.123233995736766e-17
outer loop
vertex 5.000000000000001 3.0616169978683836e-16 5
vertex 10 3.061616997868383e-16 0
vertex 0 -3.061616997868383e-16 0
endloop
endfacet
facet normal 0.7071067811865474 0 0.7071067811865478
outer loop
vertex 5.000000000000001 -10 5.000000000000001
vertex 10 -10 3.061616997868383e-16
vertex 10 3.061616997868383e-16 0
endloop
endfacet
facet normal 0.7071067811865474 0 0.7071067811865478
outer loop
vertex 5.000000000000001 -10 5.000000000000001
vertex 10 3.061616997868383e-16 0
vertex 5.000000000000001 3.0616169978683836e-16 5
endloop
endfacet
facet normal 0 -1 0
outer loop
vertex 10 -10 3.061616997868383e-16
vertex 5.000000000000001 -10 5.000000000000001
vertex 8.881784197001252e-16 -10 6.123233995736766e-16
endloop
endfacet
facet normal -0.7071067811865475 0 0.7071067811865475
outer loop
vertex 8.881784197001252e-16 -10 6.123233995736766e-16
vertex 5.000000000000001 -10 5.000000000000001
vertex 5.000000000000001 3.0616169978683836e-16 5
endloop
endfacet
facet normal -0.7071067811865475 0 0.7071067811865475
outer loop
vertex 8.881784197001252e-16 -10 6.123233995736766e-16
vertex 5.000000000000001 3.0616169978683836e-16 5
vertex 0 -3.061616997868383e-16 0
endloop
endfacet
facet normal 0 0 -1
outer loop
vertex 10 3.061616997868383e-16 0
vertex 10 -10 3.061616997868383e-16
vertex 8.881784197001252e-16 -10 6.123233995736766e-16
endloop
endfacet
facet normal 0 0 -1
outer loop
vertex 10 3.061616997868383e-16 0
vertex 8.881784197001252e-16 -10 6.123233995736766e-16
vertex 0 -3.061616997868383e-16 0
endloop
endfacet
endsolid craftml
