solid craftml
facet normal 0 0 1
outer loop
vertex 150.33950000000004 -166.67950000000002 45
vertex 149.00000000000003 -179 45
vertex 159.00000000000003 -171.67950000000002 45
endloop
endfacet
facet normal 0 0 1
outer loop
vertex 150.33950000000004 -156.67950000000002 45
vertex 139.00000000000003 -161.67950000000002 45
vertex 150.33950000000004 -166.67950000000002 45
endloop
endfacet
facet normal 0 0 1
outer loop
vertex 159.00000000000003 -151.67950000000002 45
vertex 149.00000000000003 -144.359 45
vertex 150.33950000000004 -156.67950000000002 45
endloop
endfacet
facet normal 0 0 1
outer loop
vertex 167.6605 -156.67950000000002 45
vertex 169.00000000000003 -144.359 45
vertex 159.00000000000003 -151.67950000000002 45
endloop
endfacet
facet normal 0 0 1
outer loop
vertex 167.6605 -166.67950000000002 45
vertex 179.00000000000003 -161.67950000000002 45
vertex 167.6605 -156.67950000000002 45
endloop
endfacet
facet normal 0 0 1
outer loop
vertex 159.00000000000003 -171.67950000000002 45
vertex 169.00000000000003 -179 45
vertex 167.6605 -166.67950000000002 45
endloop
endfacet
facet normal 0 0 1
outer loop
vertex 150.33950000000004 -156.67950000000002 45
vertex 150.33950000000004 -166.67950000000002 45
vertex 159.00000000000003 -171.67950000000002 45
endloop
endfacet
facet normal 0 0 1
outer loop
vertex 167.6605 -156.67950000000002 45
vertex 159.00000000000003 -151.67950000000002 45
vertex 150.33950000000004 -156.67950000000002 45
endloop
endfacet
facet normal 0 0 1
outer loop
vertex 159.00000000000003 -171.67950000000002 45
vertex 167.6605 -166.67950000000002 45
vertex 167.6605 -156.67950000000002 45
endloop
endfacet
facet normal 0 0 1
outer loop
vertex 167.6605 -156.67950000000002 45
vertex 150.33950000000004 -156.67950000000002 45
vertex 159.00000000000003 -171.67950000000002 45
endloop
endfacet
facet normal 0 0 -1
outer loop
vertex 149.00000000000006 -161.67950000000002 0
vertex 141.67950000000008 -151.67950000000002 0
vertex 154.00000000000006 -153.019 0
endloop
endfacet
facet normal 0 0 -1
outer loop
vertex 154.00000000000006 -153.019 0
vertex 159.00000000000006 -141.67950000000002 0
vertex 164.00000000000006 -153.019 0
endloop
endfacet
facet normal 0 0 -1
outer loop
vertex 164.00000000000006 -153.019 0
vertex 176.32050000000004 -151.67950000000002 0
vertex 169.00000000000006 -161.67950000000002 0
endloop
endfacet
facet normal 0 0 -1
outer loop
vertex 169.00000000000006 -161.67950000000002 0
vertex 176.32050000000004 -171.67950000000002 0
vertex 164.00000000000006 -170.34000000000003 0
endloop
endfacet
facet normal 0 0 -1
outer loop
vertex 164.00000000000006 -170.34000000000003 0
vertex 159.00000000000006 -181.67950000000002 0
vertex 154.00000000000006 -170.34000000000003 0
endloop
endfacet
facet normal 0 0 -1
outer loop
vertex 154.00000000000006 -170.34000000000003 0
vertex 141.67950000000008 -171.67950000000002 0
vertex 149.00000000000006 -161.67950000000002 0
endloop
endfacet
facet normal 0 0 -1
outer loop
vertex 149.00000000000006 -161.67950000000002 0
vertex 154.00000000000006 -153.019 0
vertex 164.00000000000006 -153.019 0
endloop
endfacet
facet normal 0 0 -1
outer loop
vertex 164.00000000000006 -153.019 0
vertex 169.00000000000006 -161.67950000000002 0
vertex 164.00000000000006 -170.34000000000003 0
endloop
endfacet
facet normal 0 0 -1
outer loop
vertex 164.00000000000006 -170.34000000000003 0
vertex 154.00000000000006 -170.34000000000003 0
vertex 149.00000000000006 -161.67950000000002 0
endloop
endfacet
facet normal 0 0 -1
outer loop
vertex 149.00000000000006 -161.67950000000002 0
vertex 164.00000000000006 -153.019 0
vertex 164.00000000000006 -170.34000000000003 0
endloop
endfacet
facet normal -0.8014258187722382 0.23290999945895335 0.5508807395047297
outer loop
vertex 149.60283156670317 -165.0996587223766 40
vertex 146.1442492085979 -177.00038090937866 40
vertex 149.00000000000003 -179 45
endloop
endfacet
facet normal -0.9783114785472602 0.10636323408255062 0.17774564236057733
outer loop
vertex 149.60283156670317 -165.0996587223766 40
vertex 149.00000000000003 -179 45
vertex 150.33950000000004 -166.67950000000002 45
endloop
endfacet
facet normal -0.5473569679230939 -0.8178038728061672 -0.17775594304909045
outer loop
vertex 139.3038449397559 -158.2065364466614 40
vertex 149.60283156670317 -165.0996587223766 40
vertex 150.33950000000004 -166.67950000000002 45
endloop
endfacet
facet normal -0.3367178290951669 -0.7636423646049255 -0.5508824217108731
outer loop
vertex 139.3038449397559 -158.2065364466614 40
vertex 150.33950000000004 -166.67950000000002 45
vertex 139.00000000000003 -161.67950000000002 45
endloop
endfacet
facet normal -0.19899722366744377 0.8105113586018493 0.5508824217108709
outer loop
vertex 151.33931334337245 -155.25158119225455 40
vertex 139.3038449397559 -158.2065364466614 40
vertex 139.00000000000003 -161.67950000000002 45
endloop
endfacet
facet normal -0.3970312334741662 0.9004271343960678 0.17775594304908
outer loop
vertex 151.33931334337245 -155.25158119225455 40
vertex 139.00000000000003 -161.67950000000002 45
vertex 150.33950000000004 -156.67950000000002 45
endloop
endfacet
facet normal -0.9819185107033744 0.06513466788042184 -0.17774564236057722
outer loop
vertex 152.15959573115802 -142.8856555372828 40
vertex 151.33931334337245 -155.25158119225455 40
vertex 150.33950000000004 -156.67950000000002 45
endloop
endfacet
facet normal -0.8296947567575069 -0.09020544025621167 -0.5508807395047356
outer loop
vertex 152.15959573115802 -142.8856555372828 40
vertex 150.33950000000004 -156.67950000000002 45
vertex 149.00000000000003 -144.359 45
endloop
endfacet
facet normal 0.6024287218869366 0.5775874262206342 0.5508832908316382
outer loop
vertex 160.73648177666934 -151.83142246987794 40
vertex 152.15959573115802 -142.8856555372828 40
vertex 149.00000000000003 -144.359 45
endloop
endfacet
facet normal 0.5812836338115106 0.7940490865535261 0.1777509077512581
outer loop
vertex 160.73648177666934 -151.83142246987794 40
vertex 149.00000000000003 -144.359 45
vertex 159.00000000000003 -151.67950000000002 45
endloop
endfacet
facet normal -0.4345674524185745 0.8829245404291537 -0.17775090775126273
outer loop
vertex 171.8557507914022 -146.3586190906214 40
vertex 160.73648177666934 -151.83142246987794 40
vertex 159.00000000000003 -151.67950000000002 45
endloop
endfacet
facet normal -0.4929794719449424 0.6734232251143226 -0.5508832908316516
outer loop
vertex 171.8557507914022 -146.3586190906214 40
vertex 159.00000000000003 -151.67950000000002 45
vertex 169.00000000000003 -144.359 45
endloop
endfacet
facet normal 0.8014258187722404 -0.2329099994589534 0.5508807395047268
outer loop
vertex 168.39716843329694 -158.25934127762343 40
vertex 171.8557507914022 -146.3586190906214 40
vertex 169.00000000000003 -144.359 45
endloop
endfacet
facet normal 0.9783114785472601 -0.1063632340825506 0.17774564236057794
outer loop
vertex 168.39716843329694 -158.25934127762343 40
vertex 169.00000000000003 -144.359 45
vertex 167.6605 -156.67950000000002 45
endloop
endfacet
facet normal 0.547356967923093 0.8178038728061695 -0.1777559430490824
outer loop
vertex 178.69615506024422 -165.15246355333863 40
vertex 168.39716843329694 -158.25934127762343 40
vertex 167.6605 -156.67950000000002 45
endloop
endfacet
facet normal 0.33671782909515946 0.763642364604931 -0.5508824217108699
outer loop
vertex 178.69615506024422 -165.15246355333863 40
vertex 167.6605 -156.67950000000002 45
vertex 179.00000000000003 -161.67950000000002 45
endloop
endfacet
facet normal 0.1989972236674553 -0.8105113586018474 0.5508824217108695
outer loop
vertex 166.6606866566276 -168.10741880774552 40
vertex 178.69615506024422 -165.15246355333863 40
vertex 179.00000000000003 -161.67950000000002 45
endloop
endfacet
facet normal 0.3970312334741662 -0.9004271343960678 0.17775594304908
outer loop
vertex 166.6606866566276 -168.10741880774552 40
vertex 179.00000000000003 -161.67950000000002 45
vertex 167.6605 -166.67950000000002 45
endloop
endfacet
facet normal 0.9819185107033744 -0.06513466788042109 -0.17774564236057724
outer loop
vertex 165.84040426884206 -180.47334446271728 40
vertex 166.6606866566276 -168.10741880774552 40
vertex 167.6605 -166.67950000000002 45
endloop
endfacet
facet normal 0.8296947567575091 0.09020544025621169 -0.5508807395047325
outer loop
vertex 165.84040426884206 -180.47334446271728 40
vertex 167.6605 -166.67950000000002 45
vertex 169.00000000000003 -179 45
endloop
endfacet
facet normal -0.6024287218869356 -0.5775874262206332 0.5508832908316402
outer loop
vertex 157.26351822333072 -171.5275775301221 40
vertex 165.84040426884206 -180.47334446271728 40
vertex 169.00000000000003 -179 45
endloop
endfacet
facet normal -0.581283633811509 -0.794049086553528 0.17775090775125532
outer loop
vertex 157.26351822333072 -171.5275775301221 40
vertex 169.00000000000003 -179 45
vertex 159.00000000000003 -171.67950000000002 45
endloop
endfacet
facet normal 0.4345674524185745 -0.8829245404291537 -0.17775090775126273
outer loop
vertex 146.1442492085979 -177.00038090937866 40
vertex 157.26351822333072 -171.5275775301221 40
vertex 159.00000000000003 -171.67950000000002 45
endloop
endfacet
facet normal 0.49297947194494407 -0.6734232251143346 -0.5508832908316355
outer loop
vertex 146.1442492085979 -177.00038090937866 40
vertex 159.00000000000003 -171.67950000000002 45
vertex 149.00000000000003 -179 45
endloop
endfacet
facet normal -0.7488059628246034 0.36853770618626946 0.5508807395047332
outer loop
vertex 149.1516913410553 -163.41589765265758 35
vertex 143.6791138996687 -174.53524460506563 35
vertex 146.1442492085979 -177.00038090937866 40
endloop
endfacet
facet normal -0.9449789471649775 0.27462934300032593 0.17774564236059287
outer loop
vertex 149.1516913410553 -163.41589765265758 35
vertex 146.1442492085979 -177.00038090937866 40
vertex 149.60283156670317 -165.0996587223766 40
endloop
endfacet
facet normal -0.6810515378776653 -0.7103320543697836 -0.17775594304908562
outer loop
vertex 140.20614758428184 -154.83909713348663 35
vertex 149.1516913410553 -163.41589765265758 35
vertex 149.60283156670317 -165.0996587223766 40
endloop
endfacet
facet normal -0.4642074336732712 -0.6935704837811687 -0.5508824217108682
outer loop
vertex 140.20614758428184 -154.83909713348663 35
vertex 149.60283156670317 -165.0996587223766 40
vertex 139.3038449397559 -158.2065364466614 40
endloop
endfacet
facet normal -0.05523018829605052 0.8327533751061901 0.5508824217108692
outer loop
vertex 152.571892774312 -154.0189714447985 35
vertex 140.20614758428184 -154.83909713348663 35
vertex 139.3038449397559 -158.2065364466614 40
endloop
endfacet
facet normal -0.2346419059036289 0.955691373145454 0.17775594304908396
outer loop
vertex 152.571892774312 -154.0189714447985 35
vertex 139.3038449397559 -158.2065364466614 40
vertex 151.33931334337245 -155.25158119225455 40
endloop
endfacet
facet normal -0.9556904457865109 0.23465348591958043 -0.17774564236056348
outer loop
vertex 155.52703368461317 -141.983352528421 35
vertex 152.571892774312 -154.0189714447985 35
vertex 151.33931334337245 -155.25158119225455 40
endloop
endfacet
facet normal -0.8327538394045116 0.05523996560255733 -0.5508807395047254
outer loop
vertex 155.52703368461317 -141.983352528421 35
vertex 151.33931334337245 -155.25158119225455 40
vertex 152.15959573115802 -142.8856555372828 40
endloop
endfacet
facet normal 0.693573479958033 0.464201925654563 0.550883290831642
outer loop
vertex 162.42020143325672 -152.2825737921409 35
vertex 155.52703368461317 -141.983352528421 35
vertex 152.15959573115802 -142.8856555372828 40
endloop
endfacet
facet normal 0.7103378061347935 0.6810468529911962 0.1777509077512594
outer loop
vertex 162.42020143325672 -152.2825737921409 35
vertex 152.15959573115802 -142.8856555372828 40
vertex 160.73648177666934 -151.83142246987794 40
endloop
endfacet
facet normal -0.2746471588856427 0.9449727789252206 -0.17775090775124314
outer loop
vertex 174.32088610033134 -148.82375539493435 35
vertex 162.42020143325672 -152.2825737921409 35
vertex 160.73648177666934 -151.83142246987794 40
endloop
endfacet
facet normal -0.3685512902075485 0.7487974000815365 -0.5508832908316267
outer loop
vertex 174.32088610033134 -148.82375539493435 35
vertex 160.73648177666934 -151.83142246987794 40
vertex 171.8557507914022 -146.3586190906214 40
endloop
endfacet
facet normal 0.7488059628246111 -0.3685377061862668 0.5508807395047246
outer loop
vertex 168.84830865894475 -159.9431023473424 35
vertex 174.32088610033134 -148.82375539493435 35
vertex 171.8557507914022 -146.3586190906214 40
endloop
endfacet
facet normal 0.9449789471649827 -0.2746293430003274 0.17774564236056342
outer loop
vertex 168.84830865894475 -159.9431023473424 35
vertex 171.8557507914022 -146.3586190906214 40
vertex 168.39716843329694 -158.25934127762343 40
endloop
endfacet
facet normal 0.6810515378776679 0.7103320543697815 -0.1777559430490843
outer loop
vertex 177.7938524157182 -168.51990286651338 35
vertex 168.84830865894475 -159.9431023473424 35
vertex 168.39716843329694 -158.25934127762343 40
endloop
endfacet
facet normal 0.46420743367327044 0.6935704837811651 -0.5508824217108735
outer loop
vertex 177.7938524157182 -168.51990286651338 35
vertex 168.39716843329694 -158.25934127762343 40
vertex 178.69615506024422 -165.15246355333863 40
endloop
endfacet
facet normal 0.05523018829603868 -0.8327533751061929 0.5508824217108662
outer loop
vertex 165.42810722568805 -169.3400285552015 35
vertex 177.7938524157182 -168.51990286651338 35
vertex 178.69615506024422 -165.15246355333863 40
endloop
endfacet
facet normal 0.23464190590362896 -0.9556913731454543 0.17775594304908227
outer loop
vertex 165.42810722568805 -169.3400285552015 35
vertex 178.69615506024422 -165.15246355333863 40
vertex 166.6606866566276 -168.10741880774552 40
endloop
endfacet
facet normal 0.9556904457865061 -0.23465348591957927 -0.17774564236059065
outer loop
vertex 162.47296631538686 -181.37564747157901 35
vertex 165.42810722568805 -169.3400285552015 35
vertex 166.6606866566276 -168.10741880774552 40
endloop
endfacet
facet normal 0.8327538394045056 -0.055239965602545446 -0.5508807395047356
outer loop
vertex 162.47296631538686 -181.37564747157901 35
vertex 166.6606866566276 -168.10741880774552 40
vertex 165.84040426884206 -180.47334446271728 40
endloop
endfacet
facet normal -0.6935734799580346 -0.46420192565455964 0.5508832908316429
outer loop
vertex 155.57979856674334 -171.07642620785907 35
vertex 162.47296631538686 -181.37564747157901 35
vertex 165.84040426884206 -180.47334446271728 40
endloop
endfacet
facet normal -0.7103378061347949 -0.6810468529911967 0.17775090775125144
outer loop
vertex 155.57979856674334 -171.07642620785907 35
vertex 165.84040426884206 -180.47334446271728 40
vertex 157.26351822333072 -171.5275775301221 40
endloop
endfacet
facet normal 0.2746471588856412 -0.9449727789252156 -0.17775090775127125
outer loop
vertex 143.6791138996687 -174.53524460506563 35
vertex 155.57979856674334 -171.07642620785907 35
vertex 157.26351822333072 -171.5275775301221 40
endloop
endfacet
facet normal 0.3685512902075565 -0.7487974000815155 -0.5508832908316501
outer loop
vertex 143.6791138996687 -174.53524460506563 35
vertex 157.26351822333072 -171.5275775301221 40
vertex 146.1442492085979 -177.00038090937866 40
endloop
endfacet
facet normal -0.6734340166106433 0.4929675812001962 0.5508807395047352
outer loop
vertex 148.99978699052488 -161.6793770189222 30
vertex 141.6794959621556 -171.67949300624838 30
vertex 143.6791138996687 -174.53524460506563 35
endloop
endfacet
facet normal -0.8829337086555198 0.43455097830016876 0.17774564236058202
outer loop
vertex 148.99978699052488 -161.6793770189222 30
vertex 143.6791138996687 -174.53524460506563 35
vertex 149.1516913410553 -163.41589765265758 35
endloop
endfacet
facet normal -0.7940527014825315 -0.5812771559067366 -0.17775594304908382
outer loop
vertex 141.67949192431124 -151.67950000000002 30
vertex 148.99978699052488 -161.6793770189222 30
vertex 149.1516913410553 -163.41589765265758 35
endloop
endfacet
facet normal -0.5775923302795068 -0.6024248147713162 -0.5508824217108714
outer loop
vertex 141.67949192431124 -151.67950000000002 30
vertex 149.1516913410553 -163.41589765265758 35
vertex 140.20614758428184 -154.83909713348663 35
endloop
endfacet
facet normal 0.09021498839890152 0.8296926017014703 0.5508824217108689
outer loop
vertex 153.99978699052488 -153.01912298107783 30
vertex 141.67949192431124 -151.67950000000002 30
vertex 140.20614758428184 -154.83909713348663 35
endloop
endfacet
facet normal -0.06512310275674586 0.9819174131249873 0.17775594304907855
outer loop
vertex 153.99978699052488 -153.01912298107783 30
vertex 140.20614758428184 -154.83909713348663 35
vertex 152.571892774312 -154.0189714447985 35
endloop
endfacet
facet normal -0.9004242102771207 0.39704247652946284 -0.17774564236057763
outer loop
vertex 158.9999959621556 -141.67950699375163 30
vertex 153.99978699052488 -153.01912298107783 30
vertex 152.571892774312 -154.0189714447985 35
endloop
endfacet
facet normal -0.8105101180349822 0.19900693305926065 -0.550880739504719
outer loop
vertex 158.9999959621556 -141.67950699375163 30
vertex 152.571892774312 -154.0189714447985 35
vertex 155.52703368461317 -141.983352528421 35
endloop
endfacet
facet normal 0.7636443588057278 0.33671188447498707 0.5508832908316351
outer loop
vertex 164 -153.01924596215562 30
vertex 158.9999959621556 -141.67950699375163 30
vertex 155.52703368461317 -141.983352528421 35
endloop
endfacet
facet normal 0.8178087236669456 0.5473513554270677 0.17775090775124947
outer loop
vertex 164 -153.01924596215562 30
vertex 155.52703368461317 -141.983352528421 35
vertex 162.42020143325672 -152.2825737921409 35
endloop
endfacet
facet normal -0.10638185040814023 0.9783084977129367 -0.1777509077512603
outer loop
vertex 176.3205040378444 -151.67950699375163 30
vertex 164 -153.01924596215562 30
vertex 162.42020143325672 -152.2825737921409 35
endloop
endfacet
facet normal -0.23292486401316959 0.801419744956999 -0.5508832908316472
outer loop
vertex 176.3205040378444 -151.67950699375163 30
vertex 162.42020143325672 -152.2825737921409 35
vertex 174.32088610033134 -148.82375539493435 35
endloop
endfacet
facet normal 0.6734340166106502 -0.4929675812001961 0.5508807395047266
outer loop
vertex 169.00021300947512 -161.6796229810778 30
vertex 176.3205040378444 -151.67950699375163 30
vertex 174.32088610033134 -148.82375539493435 35
endloop
endfacet
facet normal 0.8829337086555199 -0.43455097830016876 0.17774564236058074
outer loop
vertex 169.00021300947512 -161.6796229810778 30
vertex 174.32088610033134 -148.82375539493435 35
vertex 168.84830865894475 -159.9431023473424 35
endloop
endfacet
facet normal 0.7940527014825313 0.5812771559067328 -0.1777559430490972
outer loop
vertex 176.32050807568876 -171.67950000000002 30
vertex 169.00021300947512 -161.6796229810778 30
vertex 168.84830865894475 -159.9431023473424 35
endloop
endfacet
facet normal 0.5775923302795063 0.6024248147713129 -0.5508824217108758
outer loop
vertex 176.32050807568876 -171.67950000000002 30
vertex 168.84830865894475 -159.9431023473424 35
vertex 177.7938524157182 -168.51990286651338 35
endloop
endfacet
facet normal -0.09021498839890543 -0.8296926017014633 0.5508824217108784
outer loop
vertex 164.00021300947512 -170.3398770189222 30
vertex 176.32050807568876 -171.67950000000002 30
vertex 177.7938524157182 -168.51990286651338 35
endloop
endfacet
facet normal 0.06512310275674586 -0.9819174131249873 0.17775594304907855
outer loop
vertex 164.00021300947512 -170.3398770189222 30
vertex 177.7938524157182 -168.51990286651338 35
vertex 165.42810722568805 -169.3400285552015 35
endloop
endfacet
facet normal 0.9004242102771207 -0.39704247652946284 -0.17774564236057763
outer loop
vertex 159.0000040378444 -181.67949300624838 30
vertex 164.00021300947512 -170.3398770189222 30
vertex 165.42810722568805 -169.3400285552015 35
endloop
endfacet
facet normal 0.8105101180349756 -0.19900693305926065 -0.5508807395047288
outer loop
vertex 159.0000040378444 -181.67949300624838 30
vertex 165.42810722568805 -169.3400285552015 35
vertex 162.47296631538686 -181.37564747157901 35
endloop
endfacet
facet normal -0.7636443588057241 -0.33671188447498357 0.5508832908316422
outer loop
vertex 154 -170.3397540378444 30
vertex 159.0000040378444 -181.67949300624838 30
vertex 162.47296631538686 -181.37564747157901 35
endloop
endfacet
facet normal -0.8178087236669476 -0.5473513554270608 0.17775090775126207
outer loop
vertex 154 -170.3397540378444 30
vertex 162.47296631538686 -181.37564747157901 35
vertex 155.57979856674334 -171.07642620785907 35
endloop
endfacet
facet normal 0.10638185040814023 -0.9783084977129367 -0.1777509077512603
outer loop
vertex 141.6794959621556 -171.67949300624838 30
vertex 154 -170.3397540378444 30
vertex 155.57979856674334 -171.07642620785907 35
endloop
endfacet
facet normal 0.2329248640131582 -0.8014197449570079 -0.5508832908316391
outer loop
vertex 141.6794959621556 -171.67949300624838 30
vertex 155.57979856674334 -171.07642620785907 35
vertex 143.6791138996687 -174.53524460506563 35
endloop
endfacet
facet normal -0.5776001185760293 0.6024188857129928 0.5508807395047253
outer loop
vertex 149.15173405193542 -159.94286012190463 25
vertex 140.20615277523456 -168.51989668017688 25
vertex 141.6794959621556 -171.67949300624838 30
endloop
endfacet
facet normal -0.7940609761945696 0.5812690020177891 0.17774564236056714
outer loop
vertex 149.15173405193542 -159.94286012190463 25
vertex 141.6794959621556 -171.67949300624838 30
vertex 148.99978699052488 -161.6793770189222 30
endloop
endfacet
facet normal -0.8829269755629079 -0.43456044520188974 -0.17775594304909112
outer loop
vertex 143.67911113762048 -148.8237478062692 25
vertex 149.15173405193542 -159.94286012190463 25
vertex 148.99978699052488 -161.6793770189222 30
endloop
endfacet
facet normal -0.6734273762060211 -0.4929747726063003 -0.5508824217108772
outer loop
vertex 143.67911113762048 -148.8237478062692 25
vertex 148.99978699052488 -161.6793770189222 30
vertex 141.67949192431124 -151.67950000000002 30
endloop
endfacet
facet normal 0.23291902832234207 0.8014220384387601 0.550882421710875
outer loop
vertex 155.5796101488008 -152.28241569071486 25
vertex 143.67911113762048 -148.8237478062692 25
vertex 141.67949192431124 -151.67950000000002 30
endloop
endfacet
facet normal 0.10637443291353448 0.9783083893809006 0.17775594304909206
outer loop
vertex 155.5796101488008 -152.28241569071486 25
vertex 141.67949192431124 -151.67950000000002 30
vertex 153.99978699052488 -153.01912298107783 30
endloop
endfacet
facet normal -0.8177990407750882 0.5473675324032019 -0.17774564236058066
outer loop
vertex 162.47295836238595 -141.98335112609237 25
vertex 155.5796101488008 -152.28241569071486 25
vertex 153.99978699052488 -153.01912298107783 30
endloop
endfacet
facet normal -0.7636394568668493 0.33672717555731885 -0.5508807395047444
outer loop
vertex 162.47295836238595 -141.98335112609237 25
vertex 153.99978699052488 -153.01912298107783 30
vertex 158.9999959621556 -141.67950699375163 30
endloop
endfacet
facet normal 0.8105122902337877 0.19899102307007074 0.5508832908316489
outer loop
vertex 165.42787609686542 -154.01905556881022 25
vertex 162.47295836238595 -141.98335112609237 25
vertex 158.9999959621556 -141.67950699375163 30
endloop
endfacet
facet normal 0.9004309369616581 0.397024863901434 0.17775090775126345
outer loop
vertex 165.42787609686542 -154.01905556881022 25
vertex 158.9999959621556 -141.67950699375163 30
vertex 164 -153.01924596215562 30
endloop
endfacet
facet normal 0.06511581676221923 0.9819188078456346 -0.17775090775125987
outer loop
vertex 177.7938472247655 -154.83910331982315 25
vertex 165.42787609686542 -154.01905556881022 25
vertex 164 -153.01924596215562 30
endloop
endfacet
facet normal -0.09022113369139555 0.8296913564199248 -0.5508832908316467
outer loop
vertex 177.7938472247655 -154.83910331982315 25
vertex 164 -153.01924596215562 30
vertex 176.3205040378444 -151.67950699375163 30
endloop
endfacet
facet normal 0.5776001185760257 -0.6024188857129891 0.5508807395047332
outer loop
vertex 168.84826594806464 -163.4161398780954 25
vertex 177.7938472247655 -154.83910331982315 25
vertex 176.3205040378444 -151.67950699375163 30
endloop
endfacet
facet normal 0.7940609761945663 -0.5812690020177868 0.1777456423605897
outer loop
vertex 168.84826594806464 -163.4161398780954 25
vertex 176.3205040378444 -151.67950699375163 30
vertex 169.00021300947512 -161.6796229810778 30
endloop
endfacet
facet normal 0.8829269755629073 0.4345604452018966 -0.17775594304907674
outer loop
vertex 174.3208888623796 -174.5352521937308 25
vertex 168.84826594806464 -163.4161398780954 25
vertex 169.00021300947512 -161.6796229810778 30
endloop
endfacet
facet normal 0.6734273762060268 0.4929747726063038 -0.550882421710867
outer loop
vertex 174.3208888623796 -174.5352521937308 25
vertex 169.00021300947512 -161.6796229810778 30
vertex 176.32050807568876 -171.67950000000002 30
endloop
endfacet
facet normal -0.23291902832233635 -0.8014220384387669 0.5508824217108678
outer loop
vertex 162.42038985119925 -171.07658430928518 25
vertex 174.3208888623796 -174.5352521937308 25
vertex 176.32050807568876 -171.67950000000002 30
endloop
endfacet
facet normal -0.10637443291352038 -0.9783083893809046 0.17775594304907857
outer loop
vertex 162.42038985119925 -171.07658430928518 25
vertex 176.32050807568876 -171.67950000000002 30
vertex 164.00021300947512 -170.3398770189222 30
endloop
endfacet
facet normal 0.8177990407750884 -0.547367532403202 -0.1777456423605794
outer loop
vertex 155.5270416376141 -181.37564887390766 25
vertex 162.42038985119925 -171.07658430928518 25
vertex 164.00021300947512 -170.3398770189222 30
endloop
endfacet
facet normal 0.7636394568668561 -0.33672717555731885 -0.550880739504735
outer loop
vertex 155.5270416376141 -181.37564887390766 25
vertex 164.00021300947512 -170.3398770189222 30
vertex 159.0000040378444 -181.67949300624838 30
endloop
endfacet
facet normal -0.8105122902337941 -0.19899102307006494 0.5508832908316412
outer loop
vertex 152.57212390313464 -169.3399444311898 25
vertex 155.5270416376141 -181.37564887390766 25
vertex 159.0000040378444 -181.67949300624838 30
endloop
endfacet
facet normal -0.9004309369616633 -0.3970248639014292 0.17775090775124866
outer loop
vertex 152.57212390313464 -169.3399444311898 25
vertex 159.0000040378444 -181.67949300624838 30
vertex 154 -170.3397540378444 30
endloop
endfacet
facet normal -0.0651158167622191 -0.9819188078456346 -0.17775090775125987
outer loop
vertex 140.20615277523456 -168.51989668017688 25
vertex 152.57212390313464 -169.3399444311898 25
vertex 154 -170.3397540378444 30
endloop
endfacet
facet normal 0.09022113369139555 -0.8296913564199314 -0.5508832908316368
outer loop
vertex 140.20615277523456 -168.51989668017688 25
vertex 154 -170.3397540378444 30
vertex 141.6794959621556 -171.67949300624838 30
endloop
endfacet
facet normal -0.4642161332182391 0.6935659972220537 0.5508807395047355
outer loop
vertex 149.6029156907149 -158.2591101488008 20
vertex 139.30385112609238 -165.15245836238591 20
vertex 140.20615277523456 -168.51989668017688 25
endloop
endfacet
facet normal -0.6810611027861987 0.7103254612453859 0.17774564236058435
outer loop
vertex 149.6029156907149 -158.2591101488008 20
vertex 140.20615277523456 -168.51989668017688 25
vertex 149.15173405193542 -159.94286012190463 25
endloop
endfacet
facet normal -0.9449739602734087 -0.27463983526779157 -0.17775594304908696
outer loop
vertex 146.14424780626925 -146.35861113762044 20
vertex 149.6029156907149 -158.2591101488008 20
vertex 149.15173405193542 -159.94286012190463 25
endloop
endfacet
facet normal -0.7488006720772145 -0.3685459414329186 -0.5508824217108725
outer loop
vertex 146.14424780626925 -146.35861113762044 20
vertex 149.15173405193542 -159.94286012190463 25
vertex 143.67911113762048 -148.8237478062692 25
endloop
endfacet
facet normal 0.3685459414329186 0.7488006720772145 0.5508824217108725
outer loop
vertex 157.26336012190467 -151.83123405193538 20
vertex 146.14424780626925 -146.35861113762044 20
vertex 143.67911113762048 -148.8237478062692 25
endloop
endfacet
facet normal 0.2746398352677909 0.9449739602734063 0.177755943049101
outer loop
vertex 157.26336012190467 -151.83123405193538 20
vertex 143.67911113762048 -148.8237478062692 25
vertex 155.5796101488008 -152.28241569071486 25
endloop
endfacet
facet normal -0.7103254612453859 0.6810611027861987 -0.17774564236058435
outer loop
vertex 165.84039668017692 -142.88565277523452 20
vertex 157.26336012190467 -151.83123405193538 20
vertex 155.5796101488008 -152.28241569071486 25
endloop
endfacet
facet normal -0.6935659972220647 0.46421613321822935 -0.5508807395047299
outer loop
vertex 165.84039668017692 -142.88565277523452 20
vertex 155.5796101488008 -152.28241569071486 25
vertex 162.47295836238595 -141.98335112609237 25
endloop
endfacet
facet normal 0.8327532158621112 0.055223920123490845 0.5508832908316483
outer loop
vertex 166.66044443118983 -155.2516239031346 20
vertex 165.84039668017692 -142.88565277523452 20
vertex 162.47295836238595 -141.98335112609237 25
endloop
endfacet
facet normal 0.9556940118768329 0.23463497279043105 0.1777509077512619
outer loop
vertex 166.66044443118983 -155.2516239031346 20
vertex 162.47295836238595 -141.98335112609237 25
vertex 165.42787609686542 -154.01905556881022 25
endloop
endfacet
facet normal 0.2346349727904169 0.9556940118768367 -0.17775090775126043
outer loop
vertex 178.6961488739077 -158.20654163761407 20
vertex 166.66044443118983 -155.2516239031346 20
vertex 165.42787609686542 -154.01905556881022 25
endloop
endfacet
facet normal 0.055223920123490894 0.8327532158621177 -0.5508832908316385
outer loop
vertex 178.6961488739077 -158.20654163761407 20
vertex 165.42787609686542 -154.01905556881022 25
vertex 177.7938472247655 -154.83910331982315 25
endloop
endfacet
facet normal 0.46421613321824895 -0.6935659972220566 0.5508807395047235
outer loop
vertex 168.39708430928522 -165.09988985119924 20
vertex 178.6961488739077 -158.20654163761407 20
vertex 177.7938472247655 -154.83910331982315 25
endloop
endfacet
facet normal 0.6810611027861987 -0.7103254612453859 0.17774564236058435
outer loop
vertex 168.39708430928522 -165.09988985119924 20
vertex 177.7938472247655 -154.83910331982315 25
vertex 168.84826594806464 -163.4161398780954 25
endloop
endfacet
facet normal 0.9449739602734094 0.27463983526779073 -0.17775594304908532
outer loop
vertex 171.85575219373084 -177.00038886237957 20
vertex 168.39708430928522 -165.09988985119924 20
vertex 168.84826594806464 -163.4161398780954 25
endloop
endfacet
facet normal 0.7488006720772141 0.3685459414329199 -0.5508824217108722
outer loop
vertex 171.85575219373084 -177.00038886237957 20
vertex 168.84826594806464 -163.4161398780954 25
vertex 174.3208888623796 -174.5352521937308 25
endloop
endfacet
facet normal -0.3685459414329199 -0.7488006720772141 0.5508824217108722
outer loop
vertex 160.73663987809542 -171.5277659480646 20
vertex 171.85575219373084 -177.00038886237957 20
vertex 174.3208888623796 -174.5352521937308 25
endloop
endfacet
facet normal -0.27463983526779173 -0.9449739602734093 0.17775594304908435
outer loop
vertex 160.73663987809542 -171.5277659480646 20
vertex 174.3208888623796 -174.5352521937308 25
vertex 162.42038985119925 -171.07658430928518 25
endloop
endfacet
facet normal 0.7103254612454 -0.6810611027861839 -0.17774564236058435
outer loop
vertex 152.1596033198232 -180.47334722476546 20
vertex 160.73663987809542 -171.5277659480646 20
vertex 162.42038985119925 -171.07658430928518 25
endloop
endfacet
facet normal 0.6935659972220537 -0.4642161332182391 -0.5508807395047355
outer loop
vertex 152.1596033198232 -180.47334722476546 20
vertex 162.42038985119925 -171.07658430928518 25
vertex 155.5270416376141 -181.37564887390766 25
endloop
endfacet
facet normal -0.8327532158621198 -0.05522392012349084 0.5508832908316352
outer loop
vertex 151.33955556881025 -168.10737609686538 20
vertex 152.1596033198232 -180.47334722476546 20
vertex 155.5270416376141 -181.37564887390766 25
endloop
endfacet
facet normal -0.9556940118768367 -0.2346349727904169 0.17775090775126043
outer loop
vertex 151.33955556881025 -168.10737609686538 20
vertex 155.5270416376141 -181.37564887390766 25
vertex 152.57212390313464 -169.3399444311898 25
endloop
endfacet
facet normal -0.23463497279041765 -0.9556940118768361 -0.17775090775126187
outer loop
vertex 139.30385112609238 -165.15245836238591 20
vertex 151.33955556881025 -168.10737609686538 20
vertex 152.57212390313464 -169.3399444311898 25
endloop
endfacet
facet normal -0.055223920123490845 -0.8327532158621112 -0.5508832908316483
outer loop
vertex 139.30385112609238 -165.15245836238591 20
vertex 152.57212390313464 -169.3399444311898 25
vertex 140.20615277523456 -168.51989668017688 25
endloop
endfacet
facet normal -0.3367271755573188 0.7636394568668677 0.5508807395047188
outer loop
vertex 150.3396229810778 -156.67928699052487 15
vertex 139.00000699375167 -161.67949596215564 15
vertex 139.30385112609238 -165.15245836238591 20
endloop
endfacet
facet normal -0.5473675324032011 0.817799040775087 0.17774564236058843
outer loop
vertex 150.3396229810778 -156.67928699052487 15
vertex 139.30385112609238 -165.15245836238591 20
vertex 149.6029156907149 -158.2591101488008 20
endloop
endfacet
facet normal -0.9783083893809046 -0.10637443291352038 -0.17775594304907857
outer loop
vertex 149.00000000000003 -144.35899192431123 15
vertex 150.3396229810778 -156.67928699052487 15
vertex 149.6029156907149 -158.2591101488008 20
endloop
endfacet
facet normal -0.8014220384387669 -0.23291902832233635 -0.5508824217108678
outer loop
vertex 149.00000000000003 -144.35899192431123 15
vertex 149.6029156907149 -158.2591101488008 20
vertex 146.14424780626925 -146.35861113762044 20
endloop
endfacet
facet normal 0.4929747726063027 0.6734273762060237 0.5508824217108719
outer loop
vertex 158.99987701892223 -151.67928699052487 15
vertex 149.00000000000003 -144.35899192431123 15
vertex 146.14424780626925 -146.35861113762044 20
endloop
endfacet
facet normal 0.43456044520188897 0.8829269755629099 0.17775594304908302
outer loop
vertex 158.99987701892223 -151.67928699052487 15
vertex 146.14424780626925 -146.35861113762044 20
vertex 157.26336012190467 -151.83123405193538 20
endloop
endfacet
facet normal -0.5812690020177891 0.7940609761945696 -0.17774564236056714
outer loop
vertex 168.9999930062484 -144.35899596215563 15
vertex 158.99987701892223 -151.67928699052487 15
vertex 157.26336012190467 -151.83123405193538 20
endloop
endfacet
facet normal -0.6024188857129928 0.5776001185760293 -0.5508807395047253
outer loop
vertex 168.9999930062484 -144.35899596215563 15
vertex 157.26336012190467 -151.83123405193538 20
vertex 165.84039668017692 -142.88565277523452 20
endloop
endfacet
facet normal 0.8296913564199248 -0.09022113369139555 0.5508832908316467
outer loop
vertex 167.6602540378444 -156.67950000000002 15
vertex 168.9999930062484 -144.35899596215563 15
vertex 165.84039668017692 -142.88565277523452 20
endloop
endfacet
facet normal 0.9819188078456346 0.0651158167622191 0.17775090775125987
outer loop
vertex 167.6602540378444 -156.67950000000002 15
vertex 165.84039668017692 -142.88565277523452 20
vertex 166.66044443118983 -155.2516239031346 20
endloop
endfacet
facet normal 0.3970248639014221 0.9004309369616633 -0.17775090775126345
outer loop
vertex 178.9999930062484 -161.6795040378444 15
vertex 167.6602540378444 -156.67950000000002 15
vertex 166.66044443118983 -155.2516239031346 20
endloop
endfacet
facet normal 0.19899102307007074 0.8105122902337877 -0.5508832908316489
outer loop
vertex 178.9999930062484 -161.6795040378444 15
vertex 166.66044443118983 -155.2516239031346 20
vertex 178.6961488739077 -158.20654163761407 20
endloop
endfacet
facet normal 0.33672717555731885 -0.7636394568668629 0.5508807395047257
outer loop
vertex 167.66037701892222 -166.67971300947514 15
vertex 178.9999930062484 -161.6795040378444 15
vertex 178.6961488739077 -158.20654163761407 20
endloop
endfacet
facet normal 0.547367532403202 -0.8177990407750884 0.1777456423605794
outer loop
vertex 167.66037701892222 -166.67971300947514 15
vertex 178.6961488739077 -158.20654163761407 20
vertex 168.39708430928522 -165.09988985119924 20
endloop
endfacet
facet normal 0.9783083893809045 0.10637443291352057 -0.1777559430490792
outer loop
vertex 169.00000000000003 -179.00000807568878 15
vertex 167.66037701892222 -166.67971300947514 15
vertex 168.39708430928522 -165.09988985119924 20
endloop
endfacet
facet normal 0.8014220384387579 0.23291902832233638 -0.5508824217108808
outer loop
vertex 169.00000000000003 -179.00000807568878 15
vertex 168.39708430928522 -165.09988985119924 20
vertex 171.85575219373084 -177.00038886237957 20
endloop
endfacet
facet normal -0.49297477260630024 -0.6734273762060242 0.5508824217108734
outer loop
vertex 159.00012298107782 -171.67971300947514 15
vertex 169.00000000000003 -179.00000807568878 15
vertex 171.85575219373084 -177.00038886237957 20
endloop
endfacet
facet normal -0.4345604452018941 -0.8829269755629058 0.17775594304909112
outer loop
vertex 159.00012298107782 -171.67971300947514 15
vertex 171.85575219373084 -177.00038886237957 20
vertex 160.73663987809542 -171.5277659480646 20
endloop
endfacet
facet normal 0.5812690020177891 -0.7940609761945696 -0.17774564236056714
outer loop
vertex 149.00000699375167 -179.0000040378444 15
vertex 159.00012298107782 -171.67971300947514 15
vertex 160.73663987809542 -171.5277659480646 20
endloop
endfacet
facet normal 0.6024188857129928 -0.5776001185760293 -0.5508807395047253
outer loop
vertex 149.00000699375167 -179.0000040378444 15
vertex 160.73663987809542 -171.5277659480646 20
vertex 152.1596033198232 -180.47334722476546 20
endloop
endfacet
facet normal -0.8296913564199248 0.09022113369139555 0.5508832908316467
outer loop
vertex 150.33974596215563 -166.67950000000002 15
vertex 149.00000699375167 -179.0000040378444 15
vertex 152.1596033198232 -180.47334722476546 20
endloop
endfacet
facet normal -0.9819188078456345 -0.06511581676221921 0.17775090775126048
outer loop
vertex 150.33974596215563 -166.67950000000002 15
vertex 152.1596033198232 -180.47334722476546 20
vertex 151.33955556881025 -168.10737609686538 20
endloop
endfacet
facet normal -0.3970248639014352 -0.9004309369616609 -0.1777509077512469
outer loop
vertex 139.00000699375167 -161.67949596215564 15
vertex 150.33974596215563 -166.67950000000002 15
vertex 151.33955556881025 -168.10737609686538 20
endloop
endfacet
facet normal -0.19899102307007074 -0.8105122902337966 -0.5508832908316358
outer loop
vertex 139.00000699375167 -161.67949596215564 15
vertex 151.33955556881025 -168.10737609686538 20
vertex 139.30385112609238 -165.15245836238591 20
endloop
endfacet
facet normal -0.19900693305924838 0.8105101180349731 0.5508807395047368
outer loop
vertex 151.3394714447985 -155.251392774312 10
vertex 139.303852528421 -158.20653368461316 10
vertex 139.00000699375167 -161.67949596215564 15
endloop
endfacet
facet normal -0.39704247652946284 0.9004242102771207 0.17774564236057763
outer loop
vertex 151.3394714447985 -155.251392774312 10
vertex 139.00000699375167 -161.67949596215564 15
vertex 150.3396229810778 -156.67928699052487 15
endloop
endfacet
facet normal -0.9819174131249873 0.06512310275674586 -0.17775594304907855
outer loop
vertex 152.15959713348664 -142.88564758428186 10
vertex 151.3394714447985 -155.251392774312 10
vertex 150.3396229810778 -156.67928699052487 15
endloop
endfacet
facet normal -0.8296926017014699 -0.09021498839890543 -0.5508824217108687
outer loop
vertex 152.15959713348664 -142.88564758428186 10
vertex 150.3396229810778 -156.67928699052487 15
vertex 149.00000000000003 -144.35899192431123 15
endloop
endfacet
facet normal 0.6024248147713158 0.5775923302795092 0.5508824217108692
outer loop
vertex 160.73639765265762 -151.8311913410553 10
vertex 152.15959713348664 -142.88564758428186 10
vertex 149.00000000000003 -144.35899192431123 15
endloop
endfacet
facet normal 0.5812771559067333 0.7940527014825337 0.177755943049085
outer loop
vertex 160.73639765265762 -151.8311913410553 10
vertex 149.00000000000003 -144.35899192431123 15
vertex 158.99987701892223 -151.67928699052487 15
endloop
endfacet
facet normal -0.43455097830016876 0.8829337086555198 -0.17774564236058202
outer loop
vertex 171.85574460506564 -146.35861389966868 10
vertex 160.73639765265762 -151.8311913410553 10
vertex 158.99987701892223 -151.67928699052487 15
endloop
endfacet
facet normal -0.4929675812001962 0.6734340166106433 -0.5508807395047352
outer loop
vertex 171.85574460506564 -146.35861389966868 10
vertex 158.99987701892223 -151.67928699052487 15
vertex 168.9999930062484 -144.35899596215563 15
endloop
endfacet
facet normal 0.801419744956999 -0.23292486401316959 0.5508832908316472
outer loop
vertex 168.3969262078591 -158.25929856674333 10
vertex 171.85574460506564 -146.35861389966868 10
vertex 168.9999930062484 -144.35899596215563 15
endloop
endfacet
facet normal 0.9783084977129367 -0.10638185040814023 0.1777509077512603
outer loop
vertex 168.3969262078591 -158.25929856674333 10
vertex 168.9999930062484 -144.35899596215563 15
vertex 167.6602540378444 -156.67950000000002 15
endloop
endfacet
facet normal 0.5473513554270649 0.8178087236669467 -0.17775090775125285
outer loop
vertex 178.69614747157902 -165.15246631538685 10
vertex 168.3969262078591 -158.25929856674333 10
vertex 167.6602540378444 -156.67950000000002 15
endloop
endfacet
facet normal 0.3367118844749816 0.7636443588057259 -0.550883290831641
outer loop
vertex 178.69614747157902 -165.15246631538685 10
vertex 167.6602540378444 -156.67950000000002 15
vertex 178.9999930062484 -161.6795040378444 15
endloop
endfacet
facet normal 0.19900693305926065 -0.8105101180349822 0.550880739504719
outer loop
vertex 166.6605285552015 -168.107607225688 10
vertex 178.69614747157902 -165.15246631538685 10
vertex 178.9999930062484 -161.6795040378444 15
endloop
endfacet
facet normal 0.39704247652946284 -0.9004242102771207 0.17774564236057763
outer loop
vertex 166.6605285552015 -168.107607225688 10
vertex 178.9999930062484 -161.6795040378444 15
vertex 167.66037701892222 -166.67971300947514 15
endloop
endfacet
facet normal 0.9819174131249873 -0.06512310275674586 -0.17775594304907855
outer loop
vertex 165.8404028665134 -180.47335241571815 10
vertex 166.6605285552015 -168.107607225688 10
vertex 167.66037701892222 -166.67971300947514 15
endloop
endfacet
facet normal 0.8296926017014703 0.09021498839890152 -0.5508824217108689
outer loop
vertex 165.8404028665134 -180.47335241571815 10
vertex 167.66037701892222 -166.67971300947514 15
vertex 169.00000000000003 -179.00000807568878 15
endloop
endfacet
facet normal -0.6024248147713154 -0.5775923302795078 0.5508824217108712
outer loop
vertex 157.26360234734244 -171.5278086589447 10
vertex 165.8404028665134 -180.47335241571815 10
vertex 169.00000000000003 -179.00000807568878 15
endloop
endfacet
facet normal -0.5812771559067326 -0.7940527014825345 0.177755943049084
outer loop
vertex 157.26360234734244 -171.5278086589447 10
vertex 169.00000000000003 -179.00000807568878 15
vertex 159.00012298107782 -171.67971300947514 15
endloop
endfacet
facet normal 0.43455097830016876 -0.8829337086555198 -0.17774564236058202
outer loop
vertex 146.1442553949344 -177.00038610033133 10
vertex 157.26360234734244 -171.5278086589447 10
vertex 159.00012298107782 -171.67971300947514 15
endloop
endfacet
facet normal 0.4929675812001962 -0.6734340166106433 -0.5508807395047352
outer loop
vertex 146.1442553949344 -177.00038610033133 10
vertex 159.00012298107782 -171.67971300947514 15
vertex 149.00000699375167 -179.0000040378444 15
endloop
endfacet
facet normal -0.8014197449570012 0.2329248640131582 0.5508832908316488
outer loop
vertex 149.60307379214095 -165.09970143325668 10
vertex 146.1442553949344 -177.00038610033133 10
vertex 149.00000699375167 -179.0000040378444 15
endloop
endfacet
facet normal -0.9783084977129367 0.10638185040813958 0.1777509077512603
outer loop
vertex 149.60307379214095 -165.09970143325668 10
vertex 149.00000699375167 -179.0000040378444 15
vertex 150.33974596215563 -166.67950000000002 15
endloop
endfacet
facet normal -0.5473513554270618 -0.8178087236669473 -0.17775090775126015
outer loop
vertex 139.303852528421 -158.20653368461316 10
vertex 149.60307379214095 -165.09970143325668 10
vertex 150.33974596215563 -166.67950000000002 15
endloop
endfacet
facet normal -0.3367118844749816 -0.7636443588057235 -0.5508832908316443
outer loop
vertex 139.303852528421 -158.20653368461316 10
vertex 150.33974596215563 -166.67950000000002 15
vertex 139.00000699375167 -161.67949596215564 15
endloop
endfacet
facet normal -0.055239965602545495 0.8327538394045056 0.5508807395047356
outer loop
vertex 152.57208119225453 -154.01881334337241 5
vertex 140.20615553728277 -154.839095731158 5
vertex 139.303852528421 -158.20653368461316 10
endloop
endfacet
facet normal -0.23465348591957927 0.9556904457865061 0.17774564236059065
outer loop
vertex 152.57208119225453 -154.01881334337241 5
vertex 139.303852528421 -158.20653368461316 10
vertex 151.3394714447985 -155.251392774312 10
endloop
endfacet
facet normal -0.955691373145454 0.2346419059036289 -0.17775594304908396
outer loop
vertex 155.52703644666138 -141.98334493975585 5
vertex 152.57208119225453 -154.01881334337241 5
vertex 151.3394714447985 -155.251392774312 10
endloop
endfacet
facet normal -0.8327533751061923 0.05523018829605052 -0.5508824217108659
outer loop
vertex 155.52703644666138 -141.98334493975585 5
vertex 151.3394714447985 -155.251392774312 10
vertex 152.15959713348664 -142.88564758428186 10
endloop
endfacet
facet normal 0.6935704837811683 0.46420743367327044 0.5508824217108697
outer loop
vertex 162.42015872237658 -152.28233156670314 5
vertex 155.52703644666138 -141.98334493975585 5
vertex 152.15959713348664 -142.88564758428186 10
endloop
endfacet
facet normal 0.7103320543697824 0.6810515378776677 0.17775594304908096
outer loop
vertex 162.42015872237658 -152.28233156670314 5
vertex 152.15959713348664 -142.88564758428186 10
vertex 160.73639765265762 -151.8311913410553 10
endloop
endfacet
facet normal -0.27462934300032593 0.9449789471649777 -0.17774564236059223
outer loop
vertex 174.32088090937864 -148.82374920859786 5
vertex 162.42015872237658 -152.28233156670314 5
vertex 160.73639765265762 -151.8311913410553 10
endloop
endfacet
facet normal -0.3685377061862668 0.7488059628246111 -0.5508807395047246
outer loop
vertex 174.32088090937864 -148.82374920859786 5
vertex 160.73639765265762 -151.8311913410553 10
vertex 171.85574460506564 -146.35861389966868 10
endloop
endfacet
facet normal 0.748797400081523 -0.3685512902075485 0.5508832908316452
outer loop
vertex 168.8480775301221 -159.9430182233307 5
vertex 174.32088090937864 -148.82374920859786 5
vertex 171.85574460506564 -146.35861389966868 10
endloop
endfacet
facet normal 0.9449727789252159 -0.2746471588856413 0.17775090775127
outer loop
vertex 168.8480775301221 -159.9430182233307 5
vertex 171.85574460506564 -146.35861389966868 10
vertex 168.3969262078591 -158.25929856674333 10
endloop
endfacet
facet normal 0.6810468529911966 0.7103378061347938 -0.1777509077512555
outer loop
vertex 177.79384446271726 -168.51990426884203 5
vertex 168.8480775301221 -159.9430182233307 5
vertex 168.3969262078591 -158.25929856674333 10
endloop
endfacet
facet normal 0.46420192565455937 0.6935734799580359 -0.5508832908316416
outer loop
vertex 177.79384446271726 -168.51990426884203 5
vertex 168.3969262078591 -158.25929856674333 10
vertex 178.69614747157902 -165.15246631538685 10
endloop
endfacet
facet normal 0.055239965602545495 -0.8327538394045056 0.5508807395047356
outer loop
vertex 165.4279188077455 -169.3401866566276 5
vertex 177.79384446271726 -168.51990426884203 5
vertex 178.69614747157902 -165.15246631538685 10
endloop
endfacet
facet normal 0.23465348591957927 -0.9556904457865061 0.17774564236059065
outer loop
vertex 165.4279188077455 -169.3401866566276 5
vertex 178.69614747157902 -165.15246631538685 10
vertex 166.6605285552015 -168.107607225688 10
endloop
endfacet
facet normal 0.9556913731454543 -0.23464190590362896 -0.17775594304908227
outer loop
vertex 162.47296355333862 -181.37565506024418 5
vertex 165.4279188077455 -169.3401866566276 5
vertex 166.6605285552015 -168.107607225688 10
endloop
endfacet
facet normal 0.8327533751061929 -0.05523018829603864 -0.5508824217108663
outer loop
vertex 162.47296355333862 -181.37565506024418 5
vertex 166.6605285552015 -168.107607225688 10
vertex 165.8404028665134 -180.47335241571815 10
endloop
endfacet
facet normal -0.6935704837811658 -0.46420743367326894 0.5508824217108741
outer loop
vertex 155.57984127762342 -171.0766684332969 5
vertex 162.47296355333862 -181.37565506024418 5
vertex 165.8404028665134 -180.47335241571815 10
endloop
endfacet
facet normal -0.710332054369782 -0.6810515378776654 0.1777559430490923
outer loop
vertex 155.57984127762342 -171.0766684332969 5
vertex 165.8404028665134 -180.47335241571815 10
vertex 157.26360234734244 -171.5278086589447 10
endloop
endfacet
facet normal 0.27462934300032604 -0.944978947164978 -0.1777456423605903
outer loop
vertex 143.67911909062136 -174.53525079140218 5
vertex 155.57984127762342 -171.0766684332969 5
vertex 157.26360234734244 -171.5278086589447 10
endloop
endfacet
facet normal 0.3685377061862668 -0.7488059628246111 -0.5508807395047246
outer loop
vertex 143.67911909062136 -174.53525079140218 5
vertex 157.26360234734244 -171.5278086589447 10
vertex 146.1442553949344 -177.00038610033133 10
endloop
endfacet
facet normal -0.7487974000815272 0.36855129020755656 0.5508832908316341
outer loop
vertex 149.15192246987795 -163.4159817766693 5
vertex 143.67911909062136 -174.53525079140218 5
vertex 146.1442553949344 -177.00038610033133 10
endloop
endfacet
facet normal -0.9449727789252159 0.2746471588856413 0.17775090775127
outer loop
vertex 149.15192246987795 -163.4159817766693 5
vertex 146.1442553949344 -177.00038610033133 10
vertex 149.60307379214095 -165.09970143325668 10
endloop
endfacet
facet normal -0.6810468529911946 -0.7103378061347956 -0.17775090775125676
outer loop
vertex 140.20615553728277 -154.839095731158 5
vertex 149.15192246987795 -163.4159817766693 5
vertex 149.60307379214095 -165.09970143325668 10
endloop
endfacet
facet normal -0.464201925654561 -0.693573479958037 -0.5508832908316388
outer loop
vertex 140.20615553728277 -154.839095731158 5
vertex 149.60307379214095 -165.09970143325668 10
vertex 139.303852528421 -158.20653368461316 10
endloop
endfacet
facet normal 0.09020544025621169 0.8296947567575091 0.5508807395047325
outer loop
vertex 154.00000000000006 -153.019 0
vertex 141.67950000000008 -151.67950000000002 0
vertex 140.20615553728277 -154.839095731158 5
endloop
endfacet
facet normal -0.06513466788042184 0.9819185107033744 0.17774564236057722
outer loop
vertex 154.00000000000006 -153.019 0
vertex 140.20615553728277 -154.839095731158 5
vertex 152.57208119225453 -154.01881334337241 5
endloop
endfacet
facet normal -0.9004271343960636 0.3970312334741643 -0.17775594304910558
outer loop
vertex 159.00000000000006 -141.67950000000002 0
vertex 154.00000000000006 -153.019 0
vertex 152.57208119225453 -154.01881334337241 5
endloop
endfacet
facet normal -0.8105113586018426 0.19899722366744377 -0.5508824217108805
outer loop
vertex 159.00000000000006 -141.67950000000002 0
vertex 152.57208119225453 -154.01881334337241 5
vertex 155.52703644666138 -141.98334493975585 5
endloop
endfacet
facet normal 0.7636423646049202 0.33671782909516496 0.5508824217108814
outer loop
vertex 164.00000000000006 -153.019 0
vertex 159.00000000000006 -141.67950000000002 0
vertex 155.52703644666138 -141.98334493975585 5
endloop
endfacet
facet normal 0.817803872806166 0.547356967923093 0.17775594304909886
outer loop
vertex 164.00000000000006 -153.019 0
vertex 155.52703644666138 -141.98334493975585 5
vertex 162.42015872237658 -152.28233156670314 5
endloop
endfacet
facet normal -0.10636323408255 0.9783114785472603 -0.17774564236057733
outer loop
vertex 176.32050000000004 -151.67950000000002 0
vertex 164.00000000000006 -153.019 0
vertex 162.42015872237658 -152.28233156670314 5
endloop
endfacet
facet normal -0.2329099994589534 0.8014258187722404 -0.5508807395047268
outer loop
vertex 176.32050000000004 -151.67950000000002 0
vertex 162.42015872237658 -152.28233156670314 5
vertex 174.32088090937864 -148.82374920859786 5
endloop
endfacet
facet normal 0.6734232251143284 -0.49297947194494235 0.5508832908316447
outer loop
vertex 169.00000000000006 -161.67950000000002 0
vertex 176.32050000000004 -151.67950000000002 0
vertex 174.32088090937864 -148.82374920859786 5
endloop
endfacet
facet normal 0.8829245404291537 -0.4345674524185745 0.17775090775126273
outer loop
vertex 169.00000000000006 -161.67950000000002 0
vertex 174.32088090937864 -148.82374920859786 5
vertex 168.8480775301221 -159.9430182233307 5
endloop
endfacet
facet normal 0.7940490865535285 0.5812836338115093 -0.17775090775125293
outer loop
vertex 176.32050000000004 -171.67950000000002 0
vertex 169.00000000000006 -161.67950000000002 0
vertex 168.8480775301221 -159.9430182233307 5
endloop
endfacet
facet normal 0.5775874262206337 0.6024287218869369 -0.5508832908316385
outer loop
vertex 176.32050000000004 -171.67950000000002 0
vertex 168.8480775301221 -159.9430182233307 5
vertex 177.79384446271726 -168.51990426884203 5
endloop
endfacet
facet normal -0.09020544025621167 -0.8296947567575069 0.5508807395047356
outer loop
vertex 164.00000000000006 -170.34000000000003 0
vertex 176.32050000000004 -171.67950000000002 0
vertex 177.79384446271726 -168.51990426884203 5
endloop
endfacet
facet normal 0.06513466788042184 -0.9819185107033744 0.17774564236057722
outer loop
vertex 164.00000000000006 -170.34000000000003 0
vertex 177.79384446271726 -168.51990426884203 5
vertex 165.4279188077455 -169.3401866566276 5
endloop
endfacet
facet normal 0.9004271343960689 -0.39703123347416674 -0.17775594304907308
outer loop
vertex 159.00000000000006 -181.67950000000002 0
vertex 164.00000000000006 -170.34000000000003 0
vertex 165.4279188077455 -169.3401866566276 5
endloop
endfacet
facet normal 0.810511358601852 -0.19899722366745531 -0.550882421710863
outer loop
vertex 159.00000000000006 -181.67950000000002 0
vertex 165.4279188077455 -169.3401866566276 5
vertex 162.47296355333862 -181.37565506024418 5
endloop
endfacet
facet normal -0.7636423646049294 -0.33671782909516484 0.5508824217108688
outer loop
vertex 154.00000000000006 -170.34000000000003 0
vertex 159.00000000000006 -181.67950000000002 0
vertex 162.47296355333862 -181.37565506024418 5
endloop
endfacet
facet normal -0.8178038728061698 -0.5473569679230933 0.17775594304908016
outer loop
vertex 154.00000000000006 -170.34000000000003 0
vertex 162.47296355333862 -181.37565506024418 5
vertex 155.57984127762342 -171.0766684332969 5
endloop
endfacet
facet normal 0.1063632340825506 -0.9783114785472602 -0.1777456423605767
outer loop
vertex 141.67950000000008 -171.67950000000002 0
vertex 154.00000000000006 -170.34000000000003 0
vertex 155.57984127762342 -171.0766684332969 5
endloop
endfacet
facet normal 0.23290999945895338 -0.8014258187722448 -0.5508807395047202
outer loop
vertex 141.67950000000008 -171.67950000000002 0
vertex 155.57984127762342 -171.0766684332969 5
vertex 143.67911909062136 -174.53525079140218 5
endloop
endfacet
facet normal -0.6734232251143346 0.49297947194494407 0.5508832908316355
outer loop
vertex 149.00000000000006 -161.67950000000002 0
vertex 141.67950000000008 -171.67950000000002 0
vertex 143.67911909062136 -174.53525079140218 5
endloop
endfacet
facet normal -0.8829245404291537 0.4345674524185745 0.17775090775126273
outer loop
vertex 149.00000000000006 -161.67950000000002 0
vertex 143.67911909062136 -174.53525079140218 5
vertex 149.15192246987795 -163.4159817766693 5
endloop
endfacet
facet normal -0.7940490865535277 -0.5812836338115087 -0.17775090775125824
outer loop
vertex 141.67950000000008 -151.67950000000002 0
vertex 149.00000000000006 -161.67950000000002 0
vertex 149.15192246987795 -163.4159817766693 5
endloop
endfacet
facet normal -0.5775874262206284 -0.6024287218869353 -0.5508832908316458
outer loop
vertex 141.67950000000008 -151.67950000000002 0
vertex 149.15192246987795 -163.4159817766693 5
vertex 140.20615553728277 -154.839095731158 5
endloop
endfacet
endsolid craftml
