solid craftml
facet normal 0 0 1
outer loop
vertex -196.321 -189 45
vertex -199 -213.641 45
vertex -179 -199 45
endloop
endfacet
facet normal 0 0 1
outer loop
vertex -196.321 -169 45
vertex -219 -179 45
vertex -196.321 -189 45
endloop
endfacet
facet normal 0 0 1
outer loop
vertex -179 -159 45
vertex -199 -144.359 45
vertex -196.321 -169 45
endloop
endfacet
facet normal 0 0 1
outer loop
vertex -161.679 -169 45
vertex -159 -144.359 45
vertex -179 -159 45
endloop
endfacet
facet normal 0 0 1
outer loop
vertex -161.679 -189 45
vertex -139 -179 45
vertex -161.679 -169 45
endloop
endfacet
facet normal 0 0 1
outer loop
vertex -179 -199 45
vertex -159 -213.641 45
vertex -161.679 -189 45
endloop
endfacet
facet normal 0 0 1
outer loop
vertex -196.321 -169 45
vertex -196.321 -189 45
vertex -179 -199 45
endloop
endfacet
facet normal 0 0 1
outer loop
vertex -161.679 -169 45
vertex -179 -159 45
vertex -196.321 -169 45
endloop
endfacet
facet normal 0 0 1
outer loop
vertex -179 -199 45
vertex -161.679 -189 45
vertex -161.679 -169 45
endloop
endfacet
facet normal 0 0 1
outer loop
vertex -161.679 -169 45
vertex -196.321 -169 45
vertex -179 -199 45
endloop
endfacet
facet normal 0 0 -1
outer loop
vertex -199 -179 0
vertex -213.641 -159 0
vertex -189 -161.679 0
endloop
endfacet
facet normal 0 0 -1
outer loop
vertex -189 -161.679 0
vertex -179 -139 0
vertex -169 -161.679 0
endloop
endfacet
facet normal 0 0 -1
outer loop
vertex -169 -161.679 0
vertex -144.359 -159 0
vertex -159 -179 0
endloop
endfacet
facet normal 0 0 -1
outer loop
vertex -159 -179 0
vertex -144.359 -199 0
vertex -169 -196.321 0
endloop
endfacet
facet normal 0 0 -1
outer loop
vertex -169 -196.321 0
vertex -179 -219 0
vertex -189 -196.321 0
endloop
endfacet
facet normal 0 0 -1
outer loop
vertex -189 -196.321 0
vertex -213.641 -199 0
vertex -199 -179 0
endloop
endfacet
facet normal 0 0 -1
outer loop
vertex -199 -179 0
vertex -189 -161.679 0
vertex -169 -161.679 0
endloop
endfacet
facet normal 0 0 -1
outer loop
vertex -169 -161.679 0
vertex -159 -179 0
vertex -169 -196.321 0
endloop
endfacet
facet normal 0 0 -1
outer loop
vertex -169 -196.321 0
vertex -189 -196.321 0
vertex -199 -179 0
endloop
endfacet
facet normal 0 0 -1
outer loop
vertex -199 -179 0
vertex -169 -161.679 0
vertex -169 -196.321 0
endloop
endfacet
facet normal -0.5798293279006254 0.16850973013884782 0.7971213341485985
outer loop
vertex -197.79433686659377 -185.84031744475317 40
vertex -204.71150158280432 -209.64176181875726 40
vertex -199 -213.641 45
endloop
endfacet
facet normal -0.9350043137783213 0.10165482555952592 0.3397546609781726
outer loop
vertex -197.79433686659377 -185.84031744475317 40
vertex -199 -213.641 45
vertex -196.321 -189 45
endloop
endfacet
facet normal -0.5231243521677111 -0.781598017807778 -0.3397726456442084
outer loop
vertex -218.39231012048833 -172.05407289332277 40
vertex -197.79433686659377 -185.84031744475317 40
vertex -196.321 -189 45
endloop
endfacet
facet normal -0.24361404866910066 -0.552492300976652 -0.7971226082934629
outer loop
vertex -218.39231012048833 -172.05407289332277 40
vertex -196.321 -189 45
vertex -219 -179 45
endloop
endfacet
facet normal -0.1439737226324204 0.5864018370868177 0.7971226082934595
outer loop
vertex -194.32137331325515 -166.144162384509 40
vertex -218.39231012048833 -172.05407289332277 40
vertex -219 -179 45
endloop
endfacet
facet normal -0.3794538463438363 0.8605633781231901 0.3397726456442184
outer loop
vertex -194.32137331325515 -166.144162384509 40
vertex -219 -179 45
vertex -196.321 -169 45
endloop
endfacet
facet normal -0.9384516725182108 0.06225133485621114 -0.33975466097817214
outer loop
vertex -192.68080853768404 -141.4123110745655 40
vertex -194.32137331325515 -166.144162384509 40
vertex -196.321 -169 45
endloop
endfacet
facet normal -0.6002818250981535 -0.06526338255095424 -0.7971213341485961
outer loop
vertex -192.68080853768404 -141.4123110745655 40
vertex -196.321 -169 45
vertex -199 -144.359 45
endloop
endfacet
facet normal 0.43585452551138626 0.4178819575670623 0.7971232665850146
outer loop
vertex -175.52703644666138 -159.3038449397558 40
vertex -192.68080853768404 -141.4123110745655 40
vertex -199 -144.359 45
endloop
endfacet
facet normal 0.5555503775280803 0.7588967659696549 0.3397638542123133
outer loop
vertex -175.52703644666138 -159.3038449397558 40
vertex -199 -144.359 45
vertex -179 -159 45
endloop
endfacet
facet normal -0.415329278530557 0.8438377295227334 -0.33976385421231187
outer loop
vertex -153.2884984171957 -148.3582381812427 40
vertex -175.52703644666138 -159.3038449397558 40
vertex -179 -159 45
endloop
endfacet
facet normal -0.3566684754976602 0.48721873573889934 -0.7971232665850142
outer loop
vertex -153.2884984171957 -148.3582381812427 40
vertex -179 -159 45
vertex -159 -144.359 45
endloop
endfacet
facet normal 0.5798293279006292 -0.16850973013885007 0.7971213341485953
outer loop
vertex -160.20566313340623 -172.1596825552468 40
vertex -153.2884984171957 -148.3582381812427 40
vertex -159 -144.359 45
endloop
endfacet
facet normal 0.9350043137783213 -0.10165482555952592 0.3397546609781726
outer loop
vertex -160.20566313340623 -172.1596825552468 40
vertex -159 -144.359 45
vertex -161.679 -169 45
endloop
endfacet
facet normal 0.523124352167712 0.7815980178077795 -0.33977264564420356
outer loop
vertex -139.60768987951167 -185.9459271066772 40
vertex -160.20566313340623 -172.1596825552468 40
vertex -161.679 -169 45
endloop
endfacet
facet normal 0.24361404866909983 0.5524923009766618 -0.7971226082934565
outer loop
vertex -139.60768987951167 -185.9459271066772 40
vertex -161.679 -169 45
vertex -139 -179 45
endloop
endfacet
facet normal 0.14397372263242086 -0.5864018370868114 0.7971226082934642
outer loop
vertex -163.67862668674485 -191.85583761549097 40
vertex -139.60768987951167 -185.9459271066772 40
vertex -139 -179 45
endloop
endfacet
facet normal 0.3794538463438367 -0.860563378123191 0.33977264564421583
outer loop
vertex -163.67862668674485 -191.85583761549097 40
vertex -139 -179 45
vertex -161.679 -189 45
endloop
endfacet
facet normal 0.9384516725182108 -0.06225133485621114 -0.33975466097817214
outer loop
vertex -165.31919146231598 -216.5876889254345 40
vertex -163.67862668674485 -191.85583761549097 40
vertex -161.679 -189 45
endloop
endfacet
facet normal 0.6002818250981503 0.06526338255094995 -0.7971213341485989
outer loop
vertex -165.31919146231598 -216.5876889254345 40
vertex -161.679 -189 45
vertex -159 -213.641 45
endloop
endfacet
facet normal -0.43585452551138687 -0.4178819575670593 0.7971232665850158
outer loop
vertex -182.47296355333862 -198.69615506024414 40
vertex -165.31919146231598 -216.5876889254345 40
vertex -159 -213.641 45
endloop
endfacet
facet normal -0.5555503775280872 -0.75889676596965 0.33976385421231337
outer loop
vertex -182.47296355333862 -198.69615506024414 40
vertex -159 -213.641 45
vertex -179 -199 45
endloop
endfacet
facet normal 0.41532927853056045 -0.8438377295227258 -0.33976385421232624
outer loop
vertex -204.71150158280432 -209.64176181875726 40
vertex -182.47296355333862 -198.69615506024414 40
vertex -179 -199 45
endloop
endfacet
facet normal 0.3566684754976586 -0.48721873573889585 -0.797123266585017
outer loop
vertex -204.71150158280432 -209.64176181875726 40
vertex -179 -199 45
vertex -199 -213.641 45
endloop
endfacet
facet normal -0.541759009982638 0.26663599484652595 0.7971213341485945
outer loop
vertex -198.6966173178894 -182.47279530531517 35
vertex -209.64177220066267 -204.71148921013125 35
vertex -204.71150158280432 -209.64176181875726 40
endloop
endfacet
facet normal -0.903147322099291 0.2624722555404384 0.3397546609781744
outer loop
vertex -198.6966173178894 -182.47279530531517 35
vertex -204.71150158280432 -209.64176181875726 40
vertex -197.79433686659377 -185.84031744475317 40
endloop
endfacet
facet normal -0.6508999892646387 -0.6788841972289616 -0.3397726456442334
outer loop
vertex -216.58770483143633 -165.31919426697326 35
vertex -198.6966173178894 -182.47279530531517 35
vertex -197.79433686659377 -185.84031744475317 40
endloop
endfacet
facet normal -0.33585228511162757 -0.5017955658759123 -0.7971226082934613
outer loop
vertex -216.58770483143633 -165.31919426697326 35
vertex -197.79433686659377 -185.84031744475317 40
vertex -218.39231012048833 -172.05407289332277 40
endloop
endfacet
facet normal -0.039958827887774745 0.6024938501107473 0.7971226082934567
outer loop
vertex -191.85621445137602 -163.67894288959698 35
vertex -216.58770483143633 -165.31919426697326 35
vertex -218.39231012048833 -172.05407289332277 40
endloop
endfacet
facet normal -0.22425382741173283 0.9133809556604069 0.33977264564421683
outer loop
vertex -191.85621445137602 -163.67894288959698 35
vertex -218.39231012048833 -172.05407289332277 40
vertex -194.32137331325515 -166.144162384509 40
endloop
endfacet
facet normal -0.9133846520680944 0.22426601996301948 -0.33975466097817214
outer loop
vertex -185.94593263077368 -139.60770505684198 35
vertex -191.85621445137602 -163.67894288959698 35
vertex -194.32137331325515 -166.144162384509 40
endloop
endfacet
facet normal -0.6024950627973302 0.039965959890892494 -0.797121334148598
outer loop
vertex -185.94593263077368 -139.60770505684198 35
vertex -194.32137331325515 -166.144162384509 40
vertex -192.68080853768404 -141.4123110745655 40
endloop
endfacet
facet normal 0.5017973563204794 0.33584804757302206 0.7971232665850163
outer loop
vertex -172.1595971334866 -160.2061475842818 35
vertex -185.94593263077368 -139.60770505684198 35
vertex -192.68080853768404 -141.4123110745655 40
endloop
endfacet
facet normal 0.6788913594264664 0.6508971082028774 0.3397638542123281
outer loop
vertex -172.1595971334866 -160.2061475842818 35
vertex -192.68080853768404 -141.4123110745655 40
vertex -175.52703644666138 -159.3038449397558 40
endloop
endfacet
facet normal -0.262488609571644 0.9031391106667533 -0.3397638542123204
outer loop
vertex -148.35822779933733 -153.2885107898687 35
vertex -172.1595971334866 -160.2061475842818 35
vertex -175.52703644666138 -159.3038449397558 40
endloop
endfacet
facet normal -0.26664523433889825 0.5417516191698838 -0.797123266585014
outer loop
vertex -148.35822779933733 -153.2885107898687 35
vertex -175.52703644666138 -159.3038449397558 40
vertex -153.2884984171957 -148.3582381812427 40
endloop
endfacet
facet normal 0.5417590099826378 -0.2666359948465197 0.7971213341485968
outer loop
vertex -159.30338268211057 -175.5272046946848 35
vertex -148.35822779933733 -153.2885107898687 35
vertex -153.2884984171957 -148.3582381812427 40
endloop
endfacet
facet normal 0.9031473220992915 -0.2624722555404384 0.33975466097817325
outer loop
vertex -159.30338268211057 -175.5272046946848 35
vertex -153.2884984171957 -148.3582381812427 40
vertex -160.20566313340623 -172.1596825552468 40
endloop
endfacet
facet normal 0.6508999892646447 0.6788841972289678 -0.3397726456442092
outer loop
vertex -141.41229516856365 -192.68080573302674 35
vertex -159.30338268211057 -175.5272046946848 35
vertex -160.20566313340623 -172.1596825552468 40
endloop
endfacet
facet normal 0.33585228511162396 0.5017955658759098 -0.7971226082934644
outer loop
vertex -141.41229516856365 -192.68080573302674 35
vertex -160.20566313340623 -172.1596825552468 40
vertex -139.60768987951167 -185.9459271066772 40
endloop
endfacet
facet normal 0.03995882788776908 -0.6024938501107441 0.7971226082934595
outer loop
vertex -166.14378554862395 -194.321057110403 35
vertex -141.41229516856365 -192.68080573302674 35
vertex -139.60768987951167 -185.9459271066772 40
endloop
endfacet
facet normal 0.22425382741173283 -0.9133809556604069 0.33977264564421683
outer loop
vertex -166.14378554862395 -194.321057110403 35
vertex -139.60768987951167 -185.9459271066772 40
vertex -163.67862668674485 -191.85583761549097 40
endloop
endfacet
facet normal 0.9133846520680944 -0.22426601996301948 -0.33975466097817214
outer loop
vertex -172.0540673692263 -218.39229494315802 35
vertex -166.14378554862395 -194.321057110403 35
vertex -163.67862668674485 -191.85583761549097 40
endloop
endfacet
facet normal 0.6024950627973302 -0.03996595989089251 -0.797121334148598
outer loop
vertex -172.0540673692263 -218.39229494315802 35
vertex -163.67862668674485 -191.85583761549097 40
vertex -165.31919146231598 -216.5876889254345 40
endloop
endfacet
facet normal -0.5017973563204794 -0.33584804757302206 0.7971232665850163
outer loop
vertex -185.84040286651333 -197.79385241571816 35
vertex -172.0540673692263 -218.39229494315802 35
vertex -165.31919146231598 -216.5876889254345 40
endloop
endfacet
facet normal -0.6788913594264664 -0.6508971082028774 0.3397638542123281
outer loop
vertex -185.84040286651333 -197.79385241571816 35
vertex -165.31919146231598 -216.5876889254345 40
vertex -182.47296355333862 -198.69615506024414 40
endloop
endfacet
facet normal 0.262488609571644 -0.903139110666758 -0.33976385421230804
outer loop
vertex -209.64177220066267 -204.71148921013125 35
vertex -185.84040286651333 -197.79385241571816 35
vertex -182.47296355333862 -198.69615506024414 40
endloop
endfacet
facet normal 0.26664523433889353 -0.5417516191698838 -0.7971232665850156
outer loop
vertex -209.64177220066267 -204.71148921013125 35
vertex -182.47296355333862 -198.69615506024414 40
vertex -204.71150158280432 -209.64176181875726 40
endloop
endfacet
facet normal -0.4872276186896152 0.3566606597751024 0.7971213341485947
outer loop
vertex -199.00042601895024 -178.99975403784438 30
vertex -213.64100807568877 -198.99998601249675 30
vertex -209.64177220066267 -204.71148921013125 35
endloop
endfacet
facet normal -0.8438486560528691 0.4153145988541377 0.3397546609781732
outer loop
vertex -199.00042601895024 -178.99975403784438 30
vertex -209.64177220066267 -204.71148921013125 35
vertex -198.6966173178894 -182.47279530531517 35
endloop
endfacet
facet normal -0.7588983595590757 -0.5555428238493165 -0.33977264564421766
outer loop
vertex -213.64101615137753 -159.00000000000003 30
vertex -199.00042601895024 -178.99975403784438 30
vertex -198.6966173178894 -182.47279530531517 35
endloop
endfacet
facet normal -0.41788581982050327 -0.4358520264268427 -0.7971226082934548
outer loop
vertex -213.64101615137753 -159.00000000000003 30
vertex -198.6966173178894 -182.47279530531517 35
vertex -216.58770483143633 -165.31919426697326 35
endloop
endfacet
facet normal 0.06527019562210896 0.6002793923756554 0.7971226082934579
outer loop
vertex -189.00042601895024 -161.67924596215562 30
vertex -213.64101615137753 -159.00000000000003 30
vertex -216.58770483143633 -165.31919426697326 35
endloop
endfacet
facet normal -0.06223996941161862 0.9384459150529555 0.3397726456442041
outer loop
vertex -189.00042601895024 -161.67924596215562 30
vertex -216.58770483143633 -165.31919426697326 35
vertex -191.85621445137602 -163.67894288959698 35
endloop
endfacet
facet normal -0.8605649011598193 0.3794664955373437 -0.3397546609781794
outer loop
vertex -179.00000807568878 -139.00001398750325 30
vertex -189.00042601895024 -161.67924596215562 30
vertex -191.85621445137602 -163.67894288959698 35
endloop
endfacet
facet normal -0.5864017928906248 0.14398095686521117 -0.797121334148597
outer loop
vertex -179.00000807568878 -139.00001398750325 30
vertex -191.85621445137602 -163.67894288959698 35
vertex -185.94593263077368 -139.60770505684198 35
endloop
endfacet
facet normal 0.5524933283794843 0.243609564600793 0.797123266585019
outer loop
vertex -169 -161.67949192431124 30
vertex -179.00000807568878 -139.00001398750325 30
vertex -185.94593263077368 -139.60770505684198 35
endloop
endfacet
facet normal 0.7816045709042946 0.5231202711731854 0.33976385421231353
outer loop
vertex -169 -161.67949192431124 30
vertex -185.94593263077368 -139.60770505684198 35
vertex -172.1595971334866 -160.2061475842818 35
endloop
endfacet
facet normal -0.10167235703653615 0.934999066943611 -0.3397638542123218
outer loop
vertex -144.35899192431123 -159.00001398750325 30
vertex -169 -161.67949192431124 30
vertex -172.1595971334866 -160.2061475842818 35
endloop
endfacet
facet normal -0.16852011266373532 0.5798236537919349 -0.7971232665850198
outer loop
vertex -144.35899192431123 -159.00001398750325 30
vertex -172.1595971334866 -160.2061475842818 35
vertex -148.35822779933733 -153.2885107898687 35
endloop
endfacet
facet normal 0.48722761868961234 -0.3566606597751018 0.7971213341485966
outer loop
vertex -158.99957398104976 -179.00024596215562 30
vertex -144.35899192431123 -159.00001398750325 30
vertex -148.35822779933733 -153.2885107898687 35
endloop
endfacet
facet normal 0.8438486560528715 -0.41531459885413885 0.3397546609781657
outer loop
vertex -158.99957398104976 -179.00024596215562 30
vertex -148.35822779933733 -153.2885107898687 35
vertex -159.30338268211057 -175.5272046946848 35
endloop
endfacet
facet normal 0.758898359559073 0.555542823849325 -0.33977264564420967
outer loop
vertex -144.35898384862247 -199.00000000000003 30
vertex -158.99957398104976 -179.00024596215562 30
vertex -159.30338268211057 -175.5272046946848 35
endloop
endfacet
facet normal 0.4178858198205001 0.43585202642682946 -0.7971226082934638
outer loop
vertex -144.35898384862247 -199.00000000000003 30
vertex -159.30338268211057 -175.5272046946848 35
vertex -141.41229516856365 -192.68080573302674 35
endloop
endfacet
facet normal -0.06527019562210891 -0.600279392375652 0.7971226082934606
outer loop
vertex -168.99957398104976 -196.3207540378444 30
vertex -144.35898384862247 -199.00000000000003 30
vertex -141.41229516856365 -192.68080573302674 35
endloop
endfacet
facet normal 0.06223996941161867 -0.9384459150529508 0.33977264564421666
outer loop
vertex -168.99957398104976 -196.3207540378444 30
vertex -141.41229516856365 -192.68080573302674 35
vertex -166.14378554862395 -194.321057110403 35
endloop
endfacet
facet normal 0.86056490115982 -0.3794664955373424 -0.33975466097817936
outer loop
vertex -178.99999192431122 -218.99998601249675 30
vertex -168.99957398104976 -196.3207540378444 30
vertex -166.14378554862395 -194.321057110403 35
endloop
endfacet
facet normal 0.5864017928906248 -0.14398095686521117 -0.797121334148597
outer loop
vertex -178.99999192431122 -218.99998601249675 30
vertex -166.14378554862395 -194.321057110403 35
vertex -172.0540673692263 -218.39229494315802 35
endloop
endfacet
facet normal -0.5524933283794854 -0.24360956460078562 0.7971232665850206
outer loop
vertex -189 -196.32050807568876 30
vertex -178.99999192431122 -218.99998601249675 30
vertex -172.0540673692263 -218.39229494315802 35
endloop
endfacet
facet normal -0.7816045709042881 -0.5231202711731905 0.33976385421232097
outer loop
vertex -189 -196.32050807568876 30
vertex -172.0540673692263 -218.39229494315802 35
vertex -185.84040286651333 -197.79385241571816 35
endloop
endfacet
facet normal 0.10167235703653615 -0.934999066943611 -0.3397638542123218
outer loop
vertex -213.64100807568877 -198.99998601249675 30
vertex -189 -196.32050807568876 30
vertex -185.84040286651333 -197.79385241571816 35
endloop
endfacet
facet normal 0.16852011266374514 -0.5798236537919402 -0.7971232665850138
outer loop
vertex -213.64100807568877 -198.99998601249675 30
vertex -185.84040286651333 -197.79385241571816 35
vertex -209.64177220066267 -204.71148921013125 35
endloop
endfacet
facet normal -0.4178920627517782 0.43584837103541885 0.7971213341485948
outer loop
vertex -198.69653189612922 -175.52672024380922 25
vertex -216.58769444953094 -192.68079336035373 25
vertex -213.64100807568877 -198.99998601249675 30
endloop
endfacet
facet normal -0.758910075600301 0.5555378182409806 0.33975466097817786
outer loop
vertex -198.69653189612922 -175.52672024380922 25
vertex -213.64100807568877 -198.99998601249675 30
vertex -199.00042601895024 -178.99975403784438 30
endloop
endfacet
facet normal -0.843837987219401 -0.41532156288525307 -0.3397726456442023
outer loop
vertex -209.6417777247591 -153.28849561253844 25
vertex -198.69653189612922 -175.52672024380922 25
vertex -199.00042601895024 -178.99975403784438 30
endloop
endfacet
facet normal -0.4872221053545473 -0.3566653437065455 -0.7971226082934634
outer loop
vertex -209.6417777247591 -153.28849561253844 25
vertex -199.00042601895024 -178.99975403784438 30
vertex -213.64101615137753 -159.00000000000003 30
endloop
endfacet
facet normal 0.16851601726632026 0.5798257490592529 0.7971226082934629
outer loop
vertex -185.84077970239844 -160.20583138142968 25
vertex -209.6417777247591 -153.28849561253844 25
vertex -213.64101615137753 -159.00000000000003 30
endloop
endfacet
facet normal 0.10166501856411174 0.9349966701931556 0.3397726456442164
outer loop
vertex -185.84077970239844 -160.20583138142968 25
vertex -213.64101615137753 -159.00000000000003 30
vertex -189.00042601895024 -161.67924596215562 30
endloop
endfacet
facet normal -0.7815973211966625 0.5231370736640734 -0.3397546609781701
outer loop
vertex -172.05408327522815 -139.6077022521847 25
vertex -185.84077970239844 -160.20583138142968 25
vertex -189.00042601895024 -161.67924596215562 30
endloop
endfacet
facet normal -0.5524910012405624 0.24362116532305078 -0.7971213341485972
outer loop
vertex -172.05408327522815 -139.6077022521847 25
vertex -189.00042601895024 -161.67924596215562 30
vertex -179.00000807568878 -139.00001398750325 30
endloop
endfacet
facet normal 0.5864020702308029 0.14396912828054698 0.7971232665850168
outer loop
vertex -166.14424780626922 -163.67911113762045 25
vertex -172.05408327522815 -139.6077022521847 25
vertex -179.00000807568878 -139.00001398750325 30
endloop
endfacet
facet normal 0.860569123006177 0.37944868941553556 0.33976385421232164
outer loop
vertex -166.14424780626922 -163.67911113762045 25
vertex -179.00000807568878 -139.00001398750325 30
vertex -169 -161.67949192431124 30
endloop
endfacet
facet normal 0.062233158618426314 0.9384495497037454 -0.3397638542123209
outer loop
vertex -141.41230555046906 -165.31920663964627 25
vertex -166.14424780626922 -163.67911113762045 25
vertex -169 -161.67949192431124 30
endloop
endfacet
facet normal -0.06527459264058862 0.6002780400984464 -0.7971232665850202
outer loop
vertex -141.41230555046906 -165.31920663964627 25
vertex -169 -161.67949192431124 30
vertex -144.35899192431123 -159.00001398750325 30
endloop
endfacet
facet normal 0.4178920627517782 -0.43584837103541885 0.7971213341485948
outer loop
vertex -159.30346810387078 -182.47327975619078 25
vertex -141.41230555046906 -165.31920663964627 25
vertex -144.35899192431123 -159.00001398750325 30
endloop
endfacet
facet normal 0.758910075600301 -0.5555378182409798 0.33975466097817936
outer loop
vertex -159.30346810387078 -182.47327975619078 25
vertex -144.35899192431123 -159.00001398750325 30
vertex -158.99957398104976 -179.00024596215562 30
endloop
endfacet
facet normal 0.8438379872193995 0.41532156288525235 -0.33977264564420717
outer loop
vertex -148.35822227524085 -204.71150438746156 25
vertex -159.30346810387078 -182.47327975619078 25
vertex -158.99957398104976 -179.00024596215562 30
endloop
endfacet
facet normal 0.48722210535455757 0.3566653437065455 -0.797122608293457
outer loop
vertex -148.35822227524085 -204.71150438746156 25
vertex -158.99957398104976 -179.00024596215562 30
vertex -144.35898384862247 -199.00000000000003 30
endloop
endfacet
facet normal -0.16851601726632026 -0.5798257490592622 0.797122608293456
outer loop
vertex -172.15922029760156 -197.79416861857032 25
vertex -148.35822227524085 -204.71150438746156 25
vertex -144.35898384862247 -199.00000000000003 30
endloop
endfacet
facet normal -0.10166501856410932 -0.9349966701931558 0.33977264564421644
outer loop
vertex -172.15922029760156 -197.79416861857032 25
vertex -144.35898384862247 -199.00000000000003 30
vertex -168.99957398104976 -196.3207540378444 30
endloop
endfacet
facet normal 0.7815973211966631 -0.5231370736640703 -0.33975466097817314
outer loop
vertex -185.94591672477185 -218.3922977478153 25
vertex -172.15922029760156 -197.79416861857032 25
vertex -168.99957398104976 -196.3207540378444 30
endloop
endfacet
facet normal 0.5524910012405607 -0.2436211653230508 -0.7971213341485984
outer loop
vertex -185.94591672477185 -218.3922977478153 25
vertex -168.99957398104976 -196.3207540378444 30
vertex -178.99999192431122 -218.99998601249675 30
endloop
endfacet
facet normal -0.5864020702308026 -0.14396912828055114 0.7971232665850163
outer loop
vertex -191.85575219373078 -194.32088886237955 25
vertex -185.94591672477185 -218.3922977478153 25
vertex -178.99999192431122 -218.99998601249675 30
endloop
endfacet
facet normal -0.860569123006177 -0.37944868941553556 0.33976385421232164
outer loop
vertex -191.85575219373078 -194.32088886237955 25
vertex -178.99999192431122 -218.99998601249675 30
vertex -189 -196.32050807568876 30
endloop
endfacet
facet normal -0.062233158618426314 -0.9384495497037445 -0.3397638542123232
outer loop
vertex -216.58769444953094 -192.68079336035373 25
vertex -191.85575219373078 -194.32088886237955 25
vertex -189 -196.32050807568876 30
endloop
endfacet
facet normal 0.06527459264058862 -0.6002780400984464 -0.7971232665850202
outer loop
vertex -216.58769444953094 -192.68079336035373 25
vertex -189 -196.32050807568876 30
vertex -213.64100807568877 -198.99998601249675 30
endloop
endfacet
facet normal -0.3358590679508125 0.5017930500917416 0.7971213341485965
outer loop
vertex -197.79416861857032 -172.15922029760156 20
vertex -218.3922977478153 -185.94591672477185 20
vertex -216.58769444953094 -192.68079336035373 25
endloop
endfacet
facet normal -0.6509123965276514 0.6788813021362684 0.3397546609781742
outer loop
vertex -197.79416861857032 -172.15922029760156 20
vertex -216.58769444953094 -192.68079336035373 25
vertex -198.69653189612922 -175.52672024380922 25
endloop
endfacet
facet normal -0.9031380246406809 -0.26248096639577184 -0.3397726456442165
outer loop
vertex -204.7115043874616 -148.35822227524085 20
vertex -197.79416861857032 -172.15922029760156 20
vertex -198.69653189612922 -175.52672024380922 25
endloop
endfacet
facet normal -0.5417543937636807 -0.2666415649991122 -0.7971226082934613
outer loop
vertex -204.7115043874616 -148.35822227524085 20
vertex -198.69653189612922 -175.52672024380922 25
vertex -209.6417777247591 -153.28849561253844 25
endloop
endfacet
facet normal 0.2666415649991122 0.5417543937636807 0.7971226082934613
outer loop
vertex -182.47327975619075 -159.30346810387078 20
vertex -204.7115043874616 -148.35822227524085 20
vertex -209.6417777247591 -153.28849561253844 25
endloop
endfacet
facet normal 0.2624809663957694 0.9031380246406816 0.3397726456442167
outer loop
vertex -182.47327975619075 -159.30346810387078 20
vertex -209.6417777247591 -153.28849561253844 25
vertex -185.84077970239844 -160.20583138142968 25
endloop
endfacet
facet normal -0.6788813021362684 0.6509123965276497 -0.3397546609781778
outer loop
vertex -165.31920663964627 -141.41230555046906 20
vertex -182.47327975619075 -159.30346810387078 20
vertex -185.84077970239844 -160.20583138142968 25
endloop
endfacet
facet normal -0.501793050091742 0.3358590679508123 -0.7971213341485963
outer loop
vertex -165.31920663964627 -141.41230555046906 20
vertex -185.84077970239844 -160.20583138142968 25
vertex -172.05408327522815 -139.6077022521847 25
endloop
endfacet
facet normal 0.6024932819119174 0.03995426284940677 0.7971232665850164
outer loop
vertex -163.67911113762045 -166.14424780626922 20
vertex -165.31920663964627 -141.41230555046906 20
vertex -172.05408327522815 -139.6077022521847 25
endloop
endfacet
facet normal 0.9133857177745139 0.22424775124028526 0.33976385421232064
outer loop
vertex -163.67911113762045 -166.14424780626922 20
vertex -172.05408327522815 -139.6077022521847 25
vertex -166.14424780626922 -163.67911113762045 25
endloop
endfacet
facet normal 0.22424775124028767 0.9133857177745135 -0.33976385421232047
outer loop
vertex -139.6077022521847 -172.05408327522815 20
vertex -163.67911113762045 -166.14424780626922 20
vertex -166.14424780626922 -163.67911113762045 25
endloop
endfacet
facet normal 0.03995426284940249 0.6024932819119175 -0.7971232665850166
outer loop
vertex -139.6077022521847 -172.05408327522815 20
vertex -166.14424780626922 -163.67911113762045 25
vertex -141.41230555046906 -165.31920663964627 25
endloop
endfacet
facet normal 0.3358590679508115 -0.5017930500917421 0.7971213341485965
outer loop
vertex -160.20583138142968 -185.84077970239844 20
vertex -139.6077022521847 -172.05408327522815 20
vertex -141.41230555046906 -165.31920663964627 25
endloop
endfacet
facet normal 0.650912396527652 -0.678881302136269 0.3397546609781718
outer loop
vertex -160.20583138142968 -185.84077970239844 20
vertex -141.41230555046906 -165.31920663964627 25
vertex -159.30346810387078 -182.47327975619078 25
endloop
endfacet
facet normal 0.9031380246406809 0.26248096639577184 -0.3397726456442165
outer loop
vertex -153.28849561253844 -209.64177772475915 20
vertex -160.20583138142968 -185.84077970239844 20
vertex -159.30346810387078 -182.47327975619078 25
endloop
endfacet
facet normal 0.5417543937636822 0.2666415649991026 -0.7971226082934635
outer loop
vertex -153.28849561253844 -209.64177772475915 20
vertex -159.30346810387078 -182.47327975619078 25
vertex -148.35822227524085 -204.71150438746156 25
endloop
endfacet
facet normal -0.2666415649991026 -0.5417543937636822 0.7971226082934635
outer loop
vertex -175.52672024380922 -198.69653189612922 20
vertex -153.28849561253844 -209.64177772475915 20
vertex -148.35822227524085 -204.71150438746156 25
endloop
endfacet
facet normal -0.26248096639577184 -0.9031380246406809 0.3397726456442165
outer loop
vertex -175.52672024380922 -198.69653189612922 20
vertex -148.35822227524085 -204.71150438746156 25
vertex -172.15922029760156 -197.79416861857032 25
endloop
endfacet
facet normal 0.6788813021362687 -0.6509123965276518 -0.33975466097817314
outer loop
vertex -192.68079336035373 -216.58769444953094 20
vertex -175.52672024380922 -198.69653189612922 20
vertex -172.15922029760156 -197.79416861857032 25
endloop
endfacet
facet normal 0.5017930500917395 -0.3358590679508121 -0.7971213341485981
outer loop
vertex -192.68079336035373 -216.58769444953094 20
vertex -172.15922029760156 -197.79416861857032 25
vertex -185.94591672477185 -218.3922977478153 25
endloop
endfacet
facet normal -0.6024932819119175 -0.03995426284940249 0.7971232665850166
outer loop
vertex -194.32088886237955 -191.85575219373078 20
vertex -192.68079336035373 -216.58769444953094 20
vertex -185.94591672477185 -218.3922977478153 25
endloop
endfacet
facet normal -0.9133857177745135 -0.22424775124028767 0.33976385421232047
outer loop
vertex -194.32088886237955 -191.85575219373078 20
vertex -185.94591672477185 -218.3922977478153 25
vertex -191.85575219373078 -194.32088886237955 25
endloop
endfacet
facet normal -0.22424775124028767 -0.9133857177745135 -0.33976385421232047
outer loop
vertex -218.3922977478153 -185.94591672477185 20
vertex -194.32088886237955 -191.85575219373078 20
vertex -191.85575219373078 -194.32088886237955 25
endloop
endfacet
facet normal -0.03995426284940677 -0.6024932819119174 -0.7971232665850164
outer loop
vertex -218.3922977478153 -185.94591672477185 20
vertex -191.85575219373078 -194.32088886237955 25
vertex -216.58769444953094 -192.68079336035373 25
endloop
endfacet
facet normal -0.2436211653230534 0.5524910012405643 0.797121334148595
outer loop
vertex -196.32075403784438 -168.99957398104974 15
vertex -218.99998601249672 -178.99999192431127 15
vertex -218.3922977478153 -185.94591672477185 20
endloop
endfacet
facet normal -0.5231370736640713 0.7815973211966627 0.3397546609781722
outer loop
vertex -196.32075403784438 -168.99957398104974 15
vertex -218.3922977478153 -185.94591672477185 20
vertex -197.79416861857032 -172.15922029760156 20
endloop
endfacet
facet normal -0.9349966701931554 -0.10166501856411417 -0.3397726456442163
outer loop
vertex -199 -144.35898384862247 15
vertex -196.32075403784438 -168.99957398104974 15
vertex -197.79416861857032 -172.15922029760156 20
endloop
endfacet
facet normal -0.5798257490592529 -0.16851601726632026 -0.7971226082934629
outer loop
vertex -199 -144.35898384862247 15
vertex -197.79416861857032 -172.15922029760156 20
vertex -204.7115043874616 -148.35822227524085 20
endloop
endfacet
facet normal 0.35666534370654895 0.4872221053545497 0.7971226082934603
outer loop
vertex -179.0002459621556 -158.99957398104974 15
vertex -199 -144.35898384862247 15
vertex -204.7115043874616 -148.35822227524085 20
endloop
endfacet
facet normal 0.41532156288525235 0.8438379872193995 0.33977264564420717
outer loop
vertex -179.0002459621556 -158.99957398104974 15
vertex -204.7115043874616 -148.35822227524085 20
vertex -182.47327975619075 -159.30346810387078 20
endloop
endfacet
facet normal -0.5555378182409811 0.7589100756003022 -0.3397546609781746
outer loop
vertex -159.00001398750328 -144.35899192431125 15
vertex -179.0002459621556 -158.99957398104974 15
vertex -182.47327975619075 -159.30346810387078 20
endloop
endfacet
facet normal -0.4358483710354189 0.4178920627517763 -0.7971213341485959
outer loop
vertex -159.00001398750328 -144.35899192431125 15
vertex -182.47327975619075 -159.30346810387078 20
vertex -165.31920663964627 -141.41230555046906 20
endloop
endfacet
facet normal 0.6002780400984508 -0.06527459264059428 0.7971232665850165
outer loop
vertex -161.67949192431124 -169.00000000000003 15
vertex -159.00001398750328 -144.35899192431125 15
vertex -165.31920663964627 -141.41230555046906 20
endloop
endfacet
facet normal 0.9384495497037454 0.062233158618426314 0.3397638542123209
outer loop
vertex -161.67949192431124 -169.00000000000003 15
vertex -165.31920663964627 -141.41230555046906 20
vertex -163.67911113762045 -166.14424780626922 20
endloop
endfacet
facet normal 0.37944868941553556 0.860569123006177 -0.33976385421232164
outer loop
vertex -139.00001398750325 -179.00000807568878 15
vertex -161.67949192431124 -169.00000000000003 15
vertex -163.67911113762045 -166.14424780626922 20
endloop
endfacet
facet normal 0.14396912828055114 0.5864020702308026 -0.7971232665850163
outer loop
vertex -139.00001398750325 -179.00000807568878 15
vertex -163.67911113762045 -166.14424780626922 20
vertex -139.6077022521847 -172.05408327522815 20
endloop
endfacet
facet normal 0.2436211653230508 -0.5524910012405607 0.7971213341485984
outer loop
vertex -161.6792459621556 -189.00042601895026 15
vertex -139.00001398750325 -179.00000807568878 15
vertex -139.6077022521847 -172.05408327522815 20
endloop
endfacet
facet normal 0.5231370736640721 -0.7815973211966606 0.3397546609781762
outer loop
vertex -161.6792459621556 -189.00042601895026 15
vertex -139.6077022521847 -172.05408327522815 20
vertex -160.20583138142968 -185.84077970239844 20
endloop
endfacet
facet normal 0.9349966701931556 0.10166501856411174 -0.3397726456442164
outer loop
vertex -159 -213.64101615137756 15
vertex -161.6792459621556 -189.00042601895026 15
vertex -160.20583138142968 -185.84077970239844 20
endloop
endfacet
facet normal 0.5798257490592529 0.16851601726632026 -0.7971226082934629
outer loop
vertex -159 -213.64101615137756 15
vertex -160.20583138142968 -185.84077970239844 20
vertex -153.28849561253844 -209.64177772475915 20
endloop
endfacet
facet normal -0.3566653437065455 -0.48722210535455757 0.797122608293457
outer loop
vertex -178.99975403784438 -199.00042601895026 15
vertex -159 -213.64101615137756 15
vertex -153.28849561253844 -209.64177772475915 20
endloop
endfacet
facet normal -0.41532156288525235 -0.8438379872193995 0.33977264564420717
outer loop
vertex -178.99975403784438 -199.00042601895026 15
vertex -153.28849561253844 -209.64177772475915 20
vertex -175.52672024380922 -198.69653189612922 20
endloop
endfacet
facet normal 0.5555378182409791 -0.7589100756003024 -0.3397546609781773
outer loop
vertex -198.99998601249672 -213.6410080756888 15
vertex -178.99975403784438 -199.00042601895026 15
vertex -175.52672024380922 -198.69653189612922 20
endloop
endfacet
facet normal 0.43584837103542035 -0.4178920627517781 -0.7971213341485941
outer loop
vertex -198.99998601249672 -213.6410080756888 15
vertex -175.52672024380922 -198.69653189612922 20
vertex -192.68079336035373 -216.58769444953094 20
endloop
endfacet
facet normal -0.6002780400984555 0.06527459264058867 0.7971232665850133
outer loop
vertex -196.32050807568876 -189.00000000000003 15
vertex -198.99998601249672 -213.6410080756888 15
vertex -192.68079336035373 -216.58769444953094 20
endloop
endfacet
facet normal -0.9384495497037454 -0.062233158618426314 0.3397638542123209
outer loop
vertex -196.32050807568876 -189.00000000000003 15
vertex -192.68079336035373 -216.58769444953094 20
vertex -194.32088886237955 -191.85575219373078 20
endloop
endfacet
facet normal -0.37944868941553556 -0.860569123006177 -0.33976385421232164
outer loop
vertex -218.99998601249672 -178.99999192431127 15
vertex -196.32050807568876 -189.00000000000003 15
vertex -194.32088886237955 -191.85575219373078 20
endloop
endfacet
facet normal -0.14396912828056246 -0.5864020702308017 -0.797123266585015
outer loop
vertex -218.99998601249672 -178.99999192431127 15
vertex -194.32088886237955 -191.85575219373078 20
vertex -218.3922977478153 -185.94591672477185 20
endloop
endfacet
facet normal -0.14398095686521117 0.5864017928906248 0.797121334148597
outer loop
vertex -194.32105711040296 -166.14378554862398 10
vertex -218.392294943158 -172.05406736922632 10
vertex -218.99998601249672 -178.99999192431127 15
endloop
endfacet
facet normal -0.3794664955373436 0.8605649011598228 0.33975466097817086
outer loop
vertex -194.32105711040296 -166.14378554862398 10
vertex -218.99998601249672 -178.99999192431127 15
vertex -196.32075403784438 -168.99957398104974 15
endloop
endfacet
facet normal -0.9384459150529509 0.062239969411618565 -0.3397726456442167
outer loop
vertex -192.68080573302672 -141.41229516856367 10
vertex -194.32105711040296 -166.14378554862398 10
vertex -196.32075403784438 -168.99957398104974 15
endloop
endfacet
facet normal -0.600279392375652 -0.06527019562210896 -0.7971226082934605
outer loop
vertex -192.68080573302672 -141.41229516856367 10
vertex -196.32075403784438 -168.99957398104974 15
vertex -199 -144.35898384862247 15
endloop
endfacet
facet normal 0.4358520264268397 0.4178858198205032 0.7971226082934565
outer loop
vertex -175.5272046946848 -159.3033826821106 10
vertex -192.68080573302672 -141.41229516856367 10
vertex -199 -144.35898384862247 15
endloop
endfacet
facet normal 0.5555428238493182 0.758898359559078 0.33977264564420967
outer loop
vertex -175.5272046946848 -159.3033826821106 10
vertex -199 -144.35898384862247 15
vertex -179.0002459621556 -158.99957398104974 15
endloop
endfacet
facet normal -0.4153145988541389 0.843848656052868 -0.3397546609781744
outer loop
vertex -153.28851078986872 -148.35822779933736 10
vertex -175.5272046946848 -159.3033826821106 10
vertex -179.0002459621556 -158.99957398104974 15
endloop
endfacet
facet normal -0.3566606597751018 0.4872276186896128 -0.7971213341485965
outer loop
vertex -153.28851078986872 -148.35822779933736 10
vertex -179.0002459621556 -158.99957398104974 15
vertex -159.00001398750328 -144.35899192431125 15
endloop
endfacet
facet normal 0.5798236537919389 -0.16852011266374098 0.7971232665850155
outer loop
vertex -160.2061475842818 -172.1595971334866 10
vertex -153.28851078986872 -148.35822779933736 10
vertex -159.00001398750328 -144.35899192431125 15
endloop
endfacet
facet normal 0.934999066943611 -0.10167235703653615 0.3397638542123218
outer loop
vertex -160.2061475842818 -172.1595971334866 10
vertex -159.00001398750328 -144.35899192431125 15
vertex -161.67949192431124 -169.00000000000003 15
endloop
endfacet
facet normal 0.5231202711731854 0.7816045709042946 -0.33976385421231353
outer loop
vertex -139.60770505684195 -185.94593263077368 10
vertex -160.2061475842818 -172.1595971334866 10
vertex -161.67949192431124 -169.00000000000003 15
endloop
endfacet
facet normal 0.24360956460079694 0.5524933283794838 -0.7971232665850182
outer loop
vertex -139.60770505684195 -185.94593263077368 10
vertex -161.67949192431124 -169.00000000000003 15
vertex -139.00001398750325 -179.00000807568878 15
endloop
endfacet
facet normal 0.14398095686521117 -0.5864017928906248 0.797121334148597
outer loop
vertex -163.67894288959698 -191.85621445137602 10
vertex -139.60770505684195 -185.94593263077368 10
vertex -139.00001398750325 -179.00000807568878 15
endloop
endfacet
facet normal 0.3794664955373411 -0.8605649011598204 0.3397546609781793
outer loop
vertex -163.67894288959698 -191.85621445137602 10
vertex -139.00001398750325 -179.00000807568878 15
vertex -161.6792459621556 -189.00042601895026 15
endloop
endfacet
facet normal 0.9384459150529509 -0.062239969411618565 -0.3397726456442167
outer loop
vertex -165.31919426697323 -216.5877048314363 10
vertex -163.67894288959698 -191.85621445137602 10
vertex -161.6792459621556 -189.00042601895026 15
endloop
endfacet
facet normal 0.600279392375652 0.06527019562210891 -0.7971226082934606
outer loop
vertex -165.31919426697323 -216.5877048314363 10
vertex -161.6792459621556 -189.00042601895026 15
vertex -159 -213.64101615137756 15
endloop
endfacet
facet normal -0.4358520264268281 -0.4178858198205063 0.7971226082934613
outer loop
vertex -182.47279530531515 -198.6966173178894 10
vertex -165.31919426697323 -216.5877048314363 10
vertex -159 -213.64101615137756 15
endloop
endfacet
facet normal -0.5555428238493165 -0.7588983595590757 0.33977264564421766
outer loop
vertex -182.47279530531515 -198.6966173178894 10
vertex -159 -213.64101615137756 15
vertex -178.99975403784438 -199.00042601895026 15
endloop
endfacet
facet normal 0.41531459885413746 -0.8438486560528686 -0.33975466097817436
outer loop
vertex -204.71148921013122 -209.64177220066264 10
vertex -182.47279530531515 -198.6966173178894 10
vertex -178.99975403784438 -199.00042601895026 15
endloop
endfacet
facet normal 0.3566606597751018 -0.487227618689612 -0.797121334148597
outer loop
vertex -204.71148921013122 -209.64177220066264 10
vertex -178.99975403784438 -199.00042601895026 15
vertex -198.99998601249672 -213.6410080756888 15
endloop
endfacet
facet normal -0.5798236537919379 0.16852011266373945 0.7971232665850168
outer loop
vertex -197.79385241571813 -185.84040286651336 10
vertex -204.71148921013122 -209.64177220066264 10
vertex -198.99998601249672 -213.6410080756888 15
endloop
endfacet
facet normal -0.9349990669436119 0.10167235703653617 0.3397638542123196
outer loop
vertex -197.79385241571813 -185.84040286651336 10
vertex -198.99998601249672 -213.6410080756888 15
vertex -196.32050807568876 -189.00000000000003 15
endloop
endfacet
facet normal -0.5231202711731829 -0.781604570904291 -0.3397638542123258
outer loop
vertex -218.392294943158 -172.05406736922632 10
vertex -197.79385241571813 -185.84040286651336 10
vertex -196.32050807568876 -189.00000000000003 15
endloop
endfacet
facet normal -0.24360956460079694 -0.5524933283794838 -0.7971232665850182
outer loop
vertex -218.392294943158 -172.05406736922632 10
vertex -196.32050807568876 -189.00000000000003 15
vertex -218.99998601249672 -178.99999192431127 15
endloop
endfacet
facet normal -0.039965959890892494 0.6024950627973302 0.797121334148598
outer loop
vertex -191.85583761549097 -163.67862668674482 5
vertex -216.5876889254345 -165.31919146231596 5
vertex -218.392294943158 -172.05406736922632 10
endloop
endfacet
facet normal -0.22426601996301943 0.9133846520680889 0.3397546609781869
outer loop
vertex -191.85583761549097 -163.67862668674482 5
vertex -218.392294943158 -172.05406736922632 10
vertex -194.32105711040296 -166.14378554862398 10
endloop
endfacet
facet normal -0.9133809556604073 0.2242538274117304 -0.339772645644217
outer loop
vertex -185.9459271066772 -139.60768987951167 5
vertex -191.85583761549097 -163.67862668674482 5
vertex -194.32105711040296 -166.14378554862398 10
endloop
endfacet
facet normal -0.6024938501107475 0.0399588278877648 -0.7971226082934569
outer loop
vertex -185.9459271066772 -139.60768987951167 5
vertex -194.32105711040296 -166.14378554862398 10
vertex -192.68080573302672 -141.41229516856367 10
endloop
endfacet
facet normal 0.5017955658759098 0.33585228511162396 0.7971226082934644
outer loop
vertex -172.1596825552468 -160.20566313340623 5
vertex -185.9459271066772 -139.60768987951167 5
vertex -192.68080573302672 -141.41229516856367 10
endloop
endfacet
facet normal 0.6788841972289616 0.6508999892646387 0.3397726456442334
outer loop
vertex -172.1596825552468 -160.20566313340623 5
vertex -192.68080573302672 -141.41229516856367 10
vertex -175.5272046946848 -159.3033826821106 10
endloop
endfacet
facet normal -0.26247225554043835 0.9031473220992919 -0.3397546609781721
outer loop
vertex -148.3582381812427 -153.28849841719568 5
vertex -172.1596825552468 -160.20566313340623 5
vertex -175.5272046946848 -159.3033826821106 10
endloop
endfacet
facet normal -0.26663599484651834 0.5417590099826409 -0.7971213341485951
outer loop
vertex -148.3582381812427 -153.28849841719568 5
vertex -175.5272046946848 -159.3033826821106 10
vertex -153.28851078986872 -148.35822779933736 10
endloop
endfacet
facet normal 0.5417516191698838 -0.26664523433889353 0.7971232665850156
outer loop
vertex -159.3038449397558 -175.52703644666138 5
vertex -148.3582381812427 -153.28849841719568 5
vertex -153.28851078986872 -148.35822779933736 10
endloop
endfacet
facet normal 0.9031391106667533 -0.262488609571644 0.3397638542123204
outer loop
vertex -159.3038449397558 -175.52703644666138 5
vertex -153.28851078986872 -148.35822779933736 10
vertex -160.2061475842818 -172.1595971334866 10
endloop
endfacet
facet normal 0.6508971082028774 0.6788913594264664 -0.3397638542123281
outer loop
vertex -141.41231107456548 -192.68080853768402 5
vertex -159.3038449397558 -175.52703644666138 5
vertex -160.2061475842818 -172.1595971334866 10
endloop
endfacet
facet normal 0.33584804757302206 0.5017973563204794 -0.7971232665850163
outer loop
vertex -141.41231107456548 -192.68080853768402 5
vertex -160.2061475842818 -172.1595971334866 10
vertex -139.60770505684195 -185.94593263077368 10
endloop
endfacet
facet normal 0.03996595989089251 -0.6024950627973302 0.797121334148598
outer loop
vertex -166.144162384509 -194.32137331325515 5
vertex -141.41231107456548 -192.68080853768402 5
vertex -139.60770505684195 -185.94593263077368 10
endloop
endfacet
facet normal 0.22426601996303247 -0.9133846520680916 0.3397546609781711
outer loop
vertex -166.144162384509 -194.32137331325515 5
vertex -139.60770505684195 -185.94593263077368 10
vertex -163.67894288959698 -191.85621445137602 10
endloop
endfacet
facet normal 0.9133809556604069 -0.22425382741173283 -0.33977264564421683
outer loop
vertex -172.05407289332277 -218.39231012048833 5
vertex -166.144162384509 -194.32137331325515 5
vertex -163.67894288959698 -191.85621445137602 10
endloop
endfacet
facet normal 0.6024938501107475 -0.039958827887764836 -0.797122608293457
outer loop
vertex -172.05407289332277 -218.39231012048833 5
vertex -163.67894288959698 -191.85621445137602 10
vertex -165.31919426697323 -216.5877048314363 10
endloop
endfacet
facet normal -0.5017955658759098 -0.33585228511162396 0.7971226082934644
outer loop
vertex -185.84031744475317 -197.79433686659374 5
vertex -172.05407289332277 -218.39231012048833 5
vertex -165.31919426697323 -216.5877048314363 10
endloop
endfacet
facet normal -0.6788841972289616 -0.6508999892646387 0.3397726456442334
outer loop
vertex -185.84031744475317 -197.79433686659374 5
vertex -165.31919426697323 -216.5877048314363 10
vertex -182.47279530531515 -198.6966173178894 10
endloop
endfacet
facet normal 0.2624722555404384 -0.903147322099291 -0.3397546609781744
outer loop
vertex -209.6417618187573 -204.7115015828043 5
vertex -185.84031744475317 -197.79433686659374 5
vertex -182.47279530531515 -198.6966173178894 10
endloop
endfacet
facet normal 0.2666359948465184 -0.5417590099826362 -0.7971213341485984
outer loop
vertex -209.6417618187573 -204.7115015828043 5
vertex -182.47279530531515 -198.6966173178894 10
vertex -204.71148921013122 -209.64177220066264 10
endloop
endfacet
facet normal -0.5417516191698796 0.2666452343388944 0.7971232665850182
outer loop
vertex -198.69615506024414 -182.4729635533386 5
vertex -209.6417618187573 -204.7115015828043 5
vertex -204.71148921013122 -209.64177220066264 10
endloop
endfacet
facet normal -0.9031391106667536 0.26248860957164305 0.3397638542123205
outer loop
vertex -198.69615506024414 -182.4729635533386 5
vertex -204.71148921013122 -209.64177220066264 10
vertex -197.79385241571813 -185.84040286651336 10
endloop
endfacet
facet normal -0.6508971082028774 -0.6788913594264664 -0.3397638542123281
outer loop
vertex -216.5876889254345 -165.31919146231596 5
vertex -198.69615506024414 -182.4729635533386 5
vertex -197.79385241571813 -185.84040286651336 10
endloop
endfacet
facet normal -0.33584804757302206 -0.5017973563204794 -0.7971232665850163
outer loop
vertex -216.5876889254345 -165.31919146231596 5
vertex -197.79385241571813 -185.84040286651336 10
vertex -218.392294943158 -172.05406736922632 10
endloop
endfacet
facet normal 0.06526338255095 0.6002818250981503 0.7971213341485989
outer loop
vertex -189 -161.679 0
vertex -213.641 -159 0
vertex -216.5876889254345 -165.31919146231596 5
endloop
endfacet
facet normal -0.06225133485621114 0.9384516725182108 0.33975466097817214
outer loop
vertex -189 -161.679 0
vertex -216.5876889254345 -165.31919146231596 5
vertex -191.85583761549097 -163.67862668674482 5
endloop
endfacet
facet normal -0.860563378123191 0.3794538463438367 -0.33977264564421583
outer loop
vertex -179 -139 0
vertex -189 -161.679 0
vertex -191.85583761549097 -163.67862668674482 5
endloop
endfacet
facet normal -0.5864018370868236 0.1439737226324253 -0.7971226082934544
outer loop
vertex -179 -139 0
vertex -191.85583761549097 -163.67862668674482 5
vertex -185.9459271066772 -139.60768987951167 5
endloop
endfacet
facet normal 0.552492300976652 0.24361404866910066 0.7971226082934629
outer loop
vertex -169 -161.679 0
vertex -179 -139 0
vertex -185.9459271066772 -139.60768987951167 5
endloop
endfacet
facet normal 0.7815980178077795 0.523124352167712 0.33977264564420356
outer loop
vertex -169 -161.679 0
vertex -185.9459271066772 -139.60768987951167 5
vertex -172.1596825552468 -160.20566313340623 5
endloop
endfacet
facet normal -0.1016548255595261 0.9350043137783213 -0.33975466097817264
outer loop
vertex -144.359 -159 0
vertex -169 -161.679 0
vertex -172.1596825552468 -160.20566313340623 5
endloop
endfacet
facet normal -0.16850973013885226 0.579829327900625 -0.797121334148598
outer loop
vertex -144.359 -159 0
vertex -172.1596825552468 -160.20566313340623 5
vertex -148.3582381812427 -153.28849841719568 5
endloop
endfacet
facet normal 0.4872187357388975 -0.3566684754976588 0.7971232665850159
outer loop
vertex -159 -179 0
vertex -144.359 -159 0
vertex -148.3582381812427 -153.28849841719568 5
endloop
endfacet
facet normal 0.8438377295227334 -0.415329278530557 0.33976385421231187
outer loop
vertex -159 -179 0
vertex -148.3582381812427 -153.28849841719568 5
vertex -159.3038449397558 -175.52703644666138 5
endloop
endfacet
facet normal 0.7588967659696549 0.5555503775280803 -0.3397638542123133
outer loop
vertex -144.359 -199 0
vertex -159 -179 0
vertex -159.3038449397558 -175.52703644666138 5
endloop
endfacet
facet normal 0.4178819575670623 0.43585452551138626 -0.7971232665850146
outer loop
vertex -144.359 -199 0
vertex -159.3038449397558 -175.52703644666138 5
vertex -141.41231107456548 -192.68080853768402 5
endloop
endfacet
facet normal -0.06526338255094995 -0.6002818250981503 0.7971213341485989
outer loop
vertex -169 -196.321 0
vertex -144.359 -199 0
vertex -141.41231107456548 -192.68080853768402 5
endloop
endfacet
facet normal 0.06225133485621114 -0.9384516725182108 0.33975466097817214
outer loop
vertex -169 -196.321 0
vertex -141.41231107456548 -192.68080853768402 5
vertex -166.144162384509 -194.32137331325515 5
endloop
endfacet
facet normal 0.8605633781231901 -0.3794538463438363 -0.3397726456442184
outer loop
vertex -179 -219 0
vertex -169 -196.321 0
vertex -166.144162384509 -194.32137331325515 5
endloop
endfacet
facet normal 0.5864018370868166 -0.14397372263241548 -0.7971226082934614
outer loop
vertex -179 -219 0
vertex -166.144162384509 -194.32137331325515 5
vertex -172.05407289332277 -218.39231012048833 5
endloop
endfacet
facet normal -0.5524923009766523 -0.2436140486690998 0.797122608293463
outer loop
vertex -189 -196.321 0
vertex -179 -219 0
vertex -172.05407289332277 -218.39231012048833 5
endloop
endfacet
facet normal -0.7815980178077714 -0.5231243521677161 0.33977264564421583
outer loop
vertex -189 -196.321 0
vertex -172.05407289332277 -218.39231012048833 5
vertex -185.84031744475317 -197.79433686659374 5
endloop
endfacet
facet normal 0.1016548255595261 -0.9350043137783213 -0.33975466097817264
outer loop
vertex -213.641 -199 0
vertex -189 -196.321 0
vertex -185.84031744475317 -197.79433686659374 5
endloop
endfacet
facet normal 0.16850973013885226 -0.579829327900625 -0.797121334148598
outer loop
vertex -213.641 -199 0
vertex -185.84031744475317 -197.79433686659374 5
vertex -209.6417618187573 -204.7115015828043 5
endloop
endfacet
facet normal -0.4872187357388991 0.35666847549766095 0.7971232665850139
outer loop
vertex -199 -179 0
vertex -213.641 -199 0
vertex -209.6417618187573 -204.7115015828043 5
endloop
endfacet
facet normal -0.8438377295227303 0.4153292785305626 0.3397638542123131
outer loop
vertex -199 -179 0
vertex -209.6417618187573 -204.7115015828043 5
vertex -198.69615506024414 -182.4729635533386 5
endloop
endfacet
facet normal -0.7588967659696599 -0.5555503775280736 -0.3397638542123133
outer loop
vertex -213.641 -159 0
vertex -199 -179 0
vertex -198.69615506024414 -182.4729635533386 5
endloop
endfacet
facet normal -0.4178819575670593 -0.43585452551138687 -0.7971232665850158
outer loop
vertex -213.641 -159 0
vertex -198.69615506024414 -182.4729635533386 5
vertex -216.5876889254345 -165.31919146231596 5
endloop
endfacet
endsolid craftml
