solid craftml
facet normal -1 0 0
outer loop
vertex 0 -20 0
vertex 0 -20 20
vertex 0 0 20
endloop
endfacet
facet normal -1 0 0
outer loop
vertex 0 -20 0
vertex 0 0 20
vertex 0 0 0
endloop
endfacet
facet normal 0 1 0
outer loop
vertex 0 0 20
vertex 20 0 20
vertex 20 0 0
endloop
endfacet
facet normal 0 1 0
outer loop
vertex 0 0 20
vertex 20 0 0
vertex 0 0 0
endloop
endfacet
facet normal 0 -1 0
outer loop
vertex 20 -20 0
vertex 20 -20 20
vertex 0 -20 20
endloop
endfacet
facet normal 0 -1 0
outer loop
vertex 20 -20 0
vertex 0 -20 20
vertex 0 -20 0
endloop
endfacet
facet normal 0 0 -1
outer loop
vertex 20 0 0
vertex 20 -20 0
vertex 0 -20 0
endloop
endfacet
facet normal 0 0 -1
outer loop
vertex 20 0 0
vertex 0 -20 0
vertex 0 0 0
endloop
endfacet
facet normal 0 0 1
outer loop
vertex 0 -20 20
vertex 20 -20 20
vertex 20 0 20
endloop
endfacet
facet normal 0 0 1
outer loop
vertex 0 -20 20
vertex 20 0 20
vertex 0 0 20
endloop
endfacet
facet normal -1 0 0
outer loop
vertex 20 0 30
vertex 20 5 30
vertex 20 5 0
endloop
endfacet
facet normal -1 0 0
outer loop
vertex 20 0 30
vertex 20 5 0
vertex 20 0 0
endloop
endfacet
facet normal -1 0 0
outer loop
vertex 20 -25 0
vertex 20 -25 30
vertex 20 -20 30
endloop
endfacet
facet normal -1 0 0
outer loop
vertex 20 -25 0
vertex 20 -20 30
vertex 20 -20 0
endloop
endfacet
facet normal -1 0 0
outer loop
vertex 20 -20 30
vertex 20 0 30
vertex 20 0 20
endloop
endfacet
facet normal -1 0 0
outer loop
vertex 20 -20 30
vertex 20 0 20
vertex 20 -20 20
endloop
endfacet
facet normal 0 1 0
outer loop
vertex 20 5 30
vertex 50 5 30
vertex 50 5 0
endloop
endfacet
facet normal 0 1 0
outer loop
vertex 20 5 30
vertex 50 5 0
vertex 20 5 0
endloop
endfacet
facet normal 0 -1 0
outer loop
vertex 50 -25 0
vertex 50 -25 30
vertex 20 -25 30
endloop
endfacet
facet normal 0 -1 0
outer loop
vertex 50 -25 0
vertex 20 -25 30
vertex 20 -25 0
endloop
endfacet
facet normal 0 0 -1
outer loop
vertex 50 5 0
vertex 50 -25 0
vertex 20 -25 0
endloop
endfacet
facet normal 0 0 -1
outer loop
vertex 50 5 0
vertex 20 -25 0
vertex 20 5 0
endloop
endfacet
facet normal 0 0 1
outer loop
vertex 20 -25 30
vertex 50 -25 30
vertex 50 5 30
endloop
endfacet
facet normal 0 0 1
outer loop
vertex 20 -25 30
vertex 50 5 30
vertex 20 5 30
endloop
endfacet
facet normal -1 0 0
outer loop
vertex 50 5 40
vertex 50 10 40
vertex 50 10 0
endloop
endfacet
facet normal -1 0 0
outer loop
vertex 50 5 40
vertex 50 10 0
vertex 50 5 0
endloop
endfacet
facet normal -1 0 0
outer loop
vertex 50 -30 0
vertex 50 -30 40
vertex 50 -25 40
endloop
endfacet
facet normal -1 0 0
outer loop
vertex 50 -30 0
vertex 50 -25 40
vertex 50 -25 0
endloop
endfacet
facet normal -1 0 0
outer loop
vertex 50 -25 40
vertex 50 5 40
vertex 50 5 30
endloop
endfacet
facet normal -1 0 0
outer loop
vertex 50 -25 40
vertex 50 5 30
vertex 50 -25 30
endloop
endfacet
facet normal 1 0 0
outer loop
vertex 90 10 40
vertex 90 -5 40
vertex 90 -5 0
endloop
endfacet
facet normal 1 0 0
outer loop
vertex 90 10 40
vertex 90 -5 0
vertex 90 10 0
endloop
endfacet
facet normal 1 0 0
outer loop
vertex 90 -15 40
vertex 90 -30 40
vertex 90 -30 0
endloop
endfacet
facet normal 1 0 0
outer loop
vertex 90 -15 40
vertex 90 -30 0
vertex 90 -15 0
endloop
endfacet
facet normal 1 0 0
outer loop
vertex 90 -5 40
vertex 90 -15 40
vertex 90 -15 10
endloop
endfacet
facet normal 1 0 0
outer loop
vertex 90 -5 40
vertex 90 -15 10
vertex 90 -5 10
endloop
endfacet
facet normal 0 1 0
outer loop
vertex 50 10 40
vertex 90 10 40
vertex 90 10 0
endloop
endfacet
facet normal 0 1 0
outer loop
vertex 50 10 40
vertex 90 10 0
vertex 50 10 0
endloop
endfacet
facet normal 0 -1 0
outer loop
vertex 90 -30 0
vertex 90 -30 40
vertex 50 -30 40
endloop
endfacet
facet normal 0 -1 0
outer loop
vertex 90 -30 0
vertex 50 -30 40
vertex 50 -30 0
endloop
endfacet
facet normal 0 0 -1
outer loop
vertex 90 10 0
vertex 90 -30 0
vertex 50 -30 0
endloop
endfacet
facet normal 0 0 -1
outer loop
vertex 90 10 0
vertex 50 -30 0
vertex 50 10 0
endloop
endfacet
facet normal 0 0 1
outer loop
vertex 50 -30 40
vertex 90 -30 40
vertex 90 10 40
endloop
endfacet
facet normal 0 0 1
outer loop
vertex 50 -30 40
vertex 90 10 40
vertex 50 10 40
endloop
endfacet
facet normal 0 1 0
outer loop
vertex 90 -5 10
vertex 130 -5 10
vertex 130 -5 0
endloop
endfacet
facet normal 0 1 0
outer loop
vertex 90 -5 10
vertex 130 -5 0
vertex 90 -5 0
endloop
endfacet
facet normal 0 -1 0
outer loop
vertex 130 -15 0
vertex 130 -15 10
vertex 90 -15 10
endloop
endfacet
facet normal 0 -1 0
outer loop
vertex 130 -15 0
vertex 90 -15 10
vertex 90 -15 0
endloop
endfacet
facet normal 0 0 -1
outer loop
vertex 130 -5 0
vertex 130 -15 0
vertex 90 -15 0
endloop
endfacet
facet normal 0 0 -1
outer loop
vertex 130 -5 0
vertex 90 -15 0
vertex 90 -5 0
endloop
endfacet
facet normal 0 0 1
outer loop
vertex 90 -15 10
vertex 130 -15 10
vertex 130 -5 10
endloop
endfacet
facet normal 0 0 1
outer loop
vertex 90 -15 10
vertex 130 -5 10
vertex 90 -5 10
endloop
endfacet
facet normal -1 0 0
outer loop
vertex 130 -5 10
vertex 130 10 10
vertex 130 10 0
endloop
endfacet
facet normal -1 0 0
outer loop
vertex 130 -5 10
vertex 130 10 0
vertex 130 -5 0
endloop
endfacet
facet normal -1 0 0
outer loop
vertex 130 -30 0
vertex 130 -30 10
vertex 130 -15 10
endloop
endfacet
facet normal -1 0 0
outer loop
vertex 130 -30 0
vertex 130 -15 10
vertex 130 -15 0
endloop
endfacet
facet normal 1 0 0
outer loop
vertex 140 10 10
vertex 140 -5 10
vertex 140 -5 0
endloop
endfacet
facet normal 1 0 0
outer loop
vertex 140 10 10
vertex 140 -5 0
vertex 140 10 0
endloop
endfacet
facet normal 1 0 0
outer loop
vertex 140 -15 10
vertex 140 -30 10
vertex 140 -30 0
endloop
endfacet
facet normal 1 0 0
outer loop
vertex 140 -15 10
vertex 140 -30 0
vertex 140 -15 0
endloop
endfacet
facet normal 0 1 0
outer loop
vertex 130 10 10
vertex 140 10 10
vertex 140 10 0
endloop
endfacet
facet normal 0 1 0
outer loop
vertex 130 10 10
vertex 140 10 0
vertex 130 10 0
endloop
endfacet
facet normal 0 -1 0
outer loop
vertex 140 -30 0
vertex 140 -30 10
vertex 130 -30 10
endloop
endfacet
facet normal 0 -1 0
outer loop
vertex 140 -30 0
vertex 130 -30 10
vertex 130 -30 0
endloop
endfacet
facet normal 0 0 -1
outer loop
vertex 140 10 0
vertex 140 -30 0
vertex 130 -30 0
endloop
endfacet
facet normal 0 0 -1
outer loop
vertex 140 10 0
vertex 130 -30 0
vertex 130 10 0
endloop
endfacet
facet normal 0 0 1
outer loop
vertex 130 -30 10
vertex 140 -30 10
vertex 140 10 10
endloop
endfacet
facet normal 0 0 1
outer loop
vertex 130 -30 10
vertex 140 10 10
vertex 130 10 10
endloop
endfacet
facet normal -1 0 0
outer loop
vertex 140 -15 10
vertex 140 -15 40
vertex 140 -5 40
endloop
endfacet
facet normal -1 0 0
outer loop
vertex 140 -15 10
vertex 140 -5 40
vertex 140 -5 10
endloop
endfacet
facet normal 1 0 0
outer loop
vertex 150 -5 40
vertex 150 -15 40
vertex 150 -15 0
endloop
endfacet
facet normal 1 0 0
outer loop
vertex 150 -5 40
vertex 150 -15 0
vertex 150 -5 0
endloop
endfacet
facet normal 0 1 0
outer loop
vertex 140 -5 40
vertex 150 -5 40
vertex 150 -5 0
endloop
endfacet
facet normal 0 1 0
outer loop
vertex 140 -5 40
vertex 150 -5 0
vertex 140 -5 0
endloop
endfacet
facet normal 0 -1 0
outer loop
vertex 150 -15 0
vertex 150 -15 40
vertex 140 -15 40
endloop
endfacet
facet normal 0 -1 0
outer loop
vertex 150 -15 0
vertex 140 -15 40
vertex 140 -15 0
endloop
endfacet
facet normal 0 0 -1
outer loop
vertex 150 -5 0
vertex 150 -15 0
vertex 140 -15 0
endloop
endfacet
facet normal 0 0 -1
outer loop
vertex 150 -5 0
vertex 140 -15 0
vertex 140 -5 0
endloop
endfacet
facet normal 0 0 1
outer loop
vertex 140 -15 40
vertex 150 -15 40
vertex 150 -5 40
endloop
endfacet
facet normal 0 0 1
outer loop
vertex 140 -15 40
vertex 150 -5 40
vertex 140 -5 40
endloop
endfacet
endsolid craftml
