solid csg.js
facet normal -1 0 0
outer loop
vertex 0 0 0
vertex 0 0 20
vertex 0 20 20
endloop
endfacet
facet normal -1 0 0
outer loop
vertex 0 0 0
vertex 0 20 20
vertex 0 20 0
endloop
endfacet
facet normal 0 -1 0
outer loop
vertex 0 0 0
vertex 20 0 0
vertex 20 0 20
endloop
endfacet
facet normal 0 -1 0
outer loop
vertex 0 0 0
vertex 20 0 20
vertex 0 0 20
endloop
endfacet
facet normal 0 1 0
outer loop
vertex 0 20 0
vertex 0 20 20
vertex 20 20 20
endloop
endfacet
facet normal 0 1 0
outer loop
vertex 0 20 0
vertex 20 20 20
vertex 20 20 0
endloop
endfacet
facet normal 0 0 -1
outer loop
vertex 0 0 0
vertex 0 20 0
vertex 20 20 0
endloop
endfacet
facet normal 0 0 -1
outer loop
vertex 0 0 0
vertex 20 20 0
vertex 20 0 0
endloop
endfacet
facet normal 0 0 1
outer loop
vertex 0 0 20
vertex 20 0 20
vertex 20 20 20
endloop
endfacet
facet normal 0 0 1
outer loop
vertex 0 0 20
vertex 20 20 20
vertex 0 20 20
endloop
endfacet
facet normal -1 0 0
outer loop
vertex 20 20 30
vertex 20 30 30
vertex 20 30 0
endloop
endfacet
facet normal -1 0 0
outer loop
vertex 20 20 30
vertex 20 30 0
vertex 20 20 0
endloop
endfacet
facet normal -1 0 0
outer loop
vertex 20 0 20
vertex 20 0 30
vertex 20 20 30
endloop
endfacet
facet normal -1 0 0
outer loop
vertex 20 0 20
vertex 20 20 30
vertex 20 20 20
endloop
endfacet
facet normal 0 -1 0
outer loop
vertex 20 0 0
vertex 50 0 0
vertex 50 0 30
endloop
endfacet
facet normal 0 -1 0
outer loop
vertex 20 0 0
vertex 50 0 30
vertex 20 0 30
endloop
endfacet
facet normal 0 1 0
outer loop
vertex 20 30 0
vertex 20 30 30
vertex 50 30 30
endloop
endfacet
facet normal 0 1 0
outer loop
vertex 20 30 0
vertex 50 30 30
vertex 50 30 0
endloop
endfacet
facet normal 0 0 -1
outer loop
vertex 20 0 0
vertex 20 30 0
vertex 50 30 0
endloop
endfacet
facet normal 0 0 -1
outer loop
vertex 20 0 0
vertex 50 30 0
vertex 50 0 0
endloop
endfacet
facet normal 0 0 1
outer loop
vertex 20 0 30
vertex 50 0 30
vertex 50 30 30
endloop
endfacet
facet normal 0 0 1
outer loop
vertex 20 0 30
vertex 50 30 30
vertex 20 30 30
endloop
endfacet
facet normal -1 0 0
outer loop
vertex 50 30 40
vertex 50 40 40
vertex 50 40 0
endloop
endfacet
facet normal -1 0 0
outer loop
vertex 50 30 40
vertex 50 40 0
vertex 50 30 0
endloop
endfacet
facet normal -1 0 0
outer loop
vertex 50 0 30
vertex 50 0 40
vertex 50 30 40
endloop
endfacet
facet normal -1 0 0
outer loop
vertex 50 0 30
vertex 50 30 40
vertex 50 30 30
endloop
endfacet
facet normal 1 0 0
outer loop
vertex 90 10 0
vertex 90 40 0
vertex 90 40 40
endloop
endfacet
facet normal 1 0 0
outer loop
vertex 90 10 0
vertex 90 40 40
vertex 90 10 40
endloop
endfacet
facet normal 1 0 0
outer loop
vertex 90 10 10
vertex 90 10 40
vertex 90 0 40
endloop
endfacet
facet normal 1 0 0
outer loop
vertex 90 10 10
vertex 90 0 40
vertex 90 0 10
endloop
endfacet
facet normal 0 -1 0
outer loop
vertex 50 0 0
vertex 90 0 0
vertex 90 0 40
endloop
endfacet
facet normal 0 -1 0
outer loop
vertex 50 0 0
vertex 90 0 40
vertex 50 0 40
endloop
endfacet
facet normal 0 1 0
outer loop
vertex 50 40 0
vertex 50 40 40
vertex 90 40 40
endloop
endfacet
facet normal 0 1 0
outer loop
vertex 50 40 0
vertex 90 40 40
vertex 90 40 0
endloop
endfacet
facet normal 0 0 -1
outer loop
vertex 50 0 0
vertex 50 40 0
vertex 90 40 0
endloop
endfacet
facet normal 0 0 -1
outer loop
vertex 50 0 0
vertex 90 40 0
vertex 90 0 0
endloop
endfacet
facet normal 0 0 1
outer loop
vertex 50 0 40
vertex 90 0 40
vertex 90 40 40
endloop
endfacet
facet normal 0 0 1
outer loop
vertex 50 0 40
vertex 90 40 40
vertex 50 40 40
endloop
endfacet
facet normal 0 -1 0
outer loop
vertex 90 0 0
vertex 130 0 0
vertex 130 0 10
endloop
endfacet
facet normal 0 -1 0
outer loop
vertex 90 0 0
vertex 130 0 10
vertex 90 0 10
endloop
endfacet
facet normal 0 1 0
outer loop
vertex 90 10 0
vertex 90 10 10
vertex 130 10 10
endloop
endfacet
facet normal 0 1 0
outer loop
vertex 90 10 0
vertex 130 10 10
vertex 130 10 0
endloop
endfacet
facet normal 0 0 -1
outer loop
vertex 90 0 0
vertex 90 10 0
vertex 130 10 0
endloop
endfacet
facet normal 0 0 -1
outer loop
vertex 90 0 0
vertex 130 10 0
vertex 130 0 0
endloop
endfacet
facet normal 0 0 1
outer loop
vertex 90 0 10
vertex 130 0 10
vertex 130 10 10
endloop
endfacet
facet normal 0 0 1
outer loop
vertex 90 0 10
vertex 130 10 10
vertex 90 10 10
endloop
endfacet
facet normal -1 0 0
outer loop
vertex 130 10 10
vertex 130 40 10
vertex 130 40 0
endloop
endfacet
facet normal -1 0 0
outer loop
vertex 130 10 10
vertex 130 40 0
vertex 130 10 0
endloop
endfacet
facet normal 1 0 0
outer loop
vertex 140 10 0
vertex 140 40 0
vertex 140 40 10
endloop
endfacet
facet normal 1 0 0
outer loop
vertex 140 10 0
vertex 140 40 10
vertex 140 10 10
endloop
endfacet
facet normal 0 -1 0
outer loop
vertex 130 0 0
vertex 140 0 0
vertex 140 0 10
endloop
endfacet
facet normal 0 -1 0
outer loop
vertex 130 0 0
vertex 140 0 10
vertex 130 0 10
endloop
endfacet
facet normal 0 1 0
outer loop
vertex 130 40 0
vertex 130 40 10
vertex 140 40 10
endloop
endfacet
facet normal 0 1 0
outer loop
vertex 130 40 0
vertex 140 40 10
vertex 140 40 0
endloop
endfacet
facet normal 0 0 -1
outer loop
vertex 130 0 0
vertex 130 40 0
vertex 140 40 0
endloop
endfacet
facet normal 0 0 -1
outer loop
vertex 130 0 0
vertex 140 40 0
vertex 140 0 0
endloop
endfacet
facet normal 0 0 1
outer loop
vertex 130 0 10
vertex 140 0 10
vertex 140 40 10
endloop
endfacet
facet normal 0 0 1
outer loop
vertex 130 0 10
vertex 140 40 10
vertex 130 40 10
endloop
endfacet
facet normal -1 0 0
outer loop
vertex 140 0 10
vertex 140 0 40
vertex 140 10 40
endloop
endfacet
facet normal -1 0 0
outer loop
vertex 140 0 10
vertex 140 10 40
vertex 140 10 10
endloop
endfacet
facet normal 1 0 0
outer loop
vertex 150 0 0
vertex 150 10 0
vertex 150 10 40
endloop
endfacet
facet normal 1 0 0
outer loop
vertex 150 0 0
vertex 150 10 40
vertex 150 0 40
endloop
endfacet
facet normal 0 -1 0
outer loop
vertex 140 0 0
vertex 150 0 0
vertex 150 0 40
endloop
endfacet
facet normal 0 -1 0
outer loop
vertex 140 0 0
vertex 150 0 40
vertex 140 0 40
endloop
endfacet
facet normal 0 1 0
outer loop
vertex 140 10 0
vertex 140 10 40
vertex 150 10 40
endloop
endfacet
facet normal 0 1 0
outer loop
vertex 140 10 0
vertex 150 10 40
vertex 150 10 0
endloop
endfacet
facet normal 0 0 -1
outer loop
vertex 140 0 0
vertex 140 10 0
vertex 150 10 0
endloop
endfacet
facet normal 0 0 -1
outer loop
vertex 140 0 0
vertex 150 10 0
vertex 150 0 0
endloop
endfacet
facet normal 0 0 1
outer loop
vertex 140 0 40
vertex 150 0 40
vertex 150 10 40
endloop
endfacet
facet normal 0 0 1
outer loop
vertex 140 0 40
vertex 150 10 40
vertex 140 10 40
endloop
endfacet
endsolid csg.js
